<?xml version="1.0" encoding="UTF-8" standalone="no"?>
<!DOCTYPE svg PUBLIC "-//W3C//DTD SVG 1.1//EN"
 "http://www.w3.org/Graphics/SVG/1.1/DTD/svg11.dtd">
<!-- Generated by graphviz version 12.1.0 (0)
 -->
<!-- Pages: 1 -->
<svg width="161pt" height="190pt"
 viewBox="0.00 0.00 161.11 190.00" xmlns="http://www.w3.org/2000/svg" xmlns:xlink="http://www.w3.org/1999/xlink">
<g id="graph0" class="graph" transform="scale(1 1) rotate(0) translate(4 186)">
<polygon fill="white" stroke="none" points="-4,4 -4,-186 157.11,-186 157.11,4 -4,4"/>
<!-- B -->
<g id="node1" class="node">
<title>B</title>
<polygon fill="none" stroke="black" points="76.66,-146.05 78.42,-146.15 80.16,-146.3 81.88,-146.49 83.57,-146.74 85.21,-147.03 86.81,-147.36 88.36,-147.75 89.85,-148.18 91.28,-148.65 92.64,-149.16 93.93,-149.71 95.14,-150.31 96.26,-150.94 97.31,-151.61 98.26,-152.31 99.13,-153.04 99.91,-153.8 100.59,-154.59 101.18,-155.41 101.67,-156.25 102.07,-157.11 102.37,-157.99 102.59,-158.89 102.71,-159.8 102.74,-160.72 102.69,-161.65 102.55,-162.59 102.33,-163.53 102.03,-164.47 101.65,-165.41 101.21,-166.35 100.69,-167.28 100.11,-168.2 99.47,-169.11 98.77,-170.01 98.02,-170.89 97.22,-171.75 96.37,-172.59 95.48,-173.41 94.56,-174.2 93.6,-174.96 92.61,-175.69 91.59,-176.39 90.54,-177.06 89.48,-177.69 88.39,-178.29 87.29,-178.84 86.18,-179.35 85.05,-179.82 83.91,-180.25 82.76,-180.64 81.61,-180.97 80.45,-181.26 79.28,-181.51 78.11,-181.7 76.94,-181.85 75.76,-181.95 74.59,-182 73.41,-182 72.24,-181.95 71.06,-181.85 69.89,-181.7 68.72,-181.51 67.55,-181.26 66.39,-180.97 65.24,-180.64 64.09,-180.25 62.95,-179.82 61.82,-179.35 60.71,-178.84 59.61,-178.29 58.52,-177.69 57.46,-177.06 56.41,-176.39 55.39,-175.69 54.4,-174.96 53.44,-174.2 52.52,-173.41 51.63,-172.59 50.78,-171.75 49.98,-170.89 49.23,-170.01 48.53,-169.11 47.89,-168.2 47.31,-167.28 46.79,-166.35 46.35,-165.41 45.97,-164.47 45.67,-163.53 45.45,-162.59 45.31,-161.65 45.26,-160.72 45.29,-159.8 45.41,-158.89 45.63,-157.99 45.93,-157.11 46.33,-156.25 46.82,-155.41 47.41,-154.59 48.09,-153.8 48.87,-153.04 49.74,-152.31 50.69,-151.61 51.74,-150.94 52.86,-150.31 54.07,-149.71 55.36,-149.16 56.72,-148.65 58.15,-148.18 59.64,-147.75 61.19,-147.36 62.79,-147.03 64.43,-146.74 66.12,-146.49 67.84,-146.3 69.58,-146.15 71.34,-146.05 73.11,-146 74.89,-146 76.66,-146.05"/>
<text text-anchor="middle" x="74" y="-159.32" font-family="Times,serif" font-size="14.00">B</text>
</g>
<!-- C -->
<g id="node3" class="node">
<title>C</title>
<polygon fill="none" stroke="black" points="54,-109 0,-109 0,-73 54,-73 54,-109"/>
<text text-anchor="middle" x="27" y="-86.33" font-family="Times,serif" font-size="14.00">C</text>
</g>
<!-- B&#45;&gt;C -->
<g id="edge3" class="edge">
<title>B&#45;&gt;C</title>
<path fill="none" stroke="green" d="M63.1,-146.53C57.62,-138.26 50.86,-128.04 44.66,-118.68"/>
<polygon fill="green" stroke="green" points="47.77,-117.04 39.33,-110.63 41.93,-120.9 47.77,-117.04"/>
</g>
<!-- A -->
<g id="node2" class="node">
<title>A</title>
<polygon fill="none" stroke="black" points="54,-36 0,-36 0,0 54,0 54,-36"/>
<text text-anchor="middle" x="27" y="-13.32" font-family="Times,serif" font-size="14.00">A</text>
</g>
<!-- A&#45;&gt;B -->
<g id="edge1" class="edge">
<title>A&#45;&gt;B</title>
<path fill="none" stroke="red" stroke-dasharray="1,5" d="M41.61,-36.33C49.27,-46.4 58.07,-59.69 63,-73 70.28,-92.64 72.96,-116.18 73.86,-134.26"/>
<polygon fill="red" stroke="red" points="70.35,-134.13 74.18,-144.01 77.35,-133.9 70.35,-134.13"/>
<text text-anchor="middle" x="112.23" y="-86.33" font-family="Times,serif" font-size="14.00">i am dotted</text>
</g>
<!-- A&#45;&gt;C -->
<g id="edge2" class="edge">
<title>A&#45;&gt;C</title>
<path fill="none" stroke="black" d="M32.86,-36.03C33.67,-43.68 33.93,-52.92 33.63,-61.58"/>
<polygon fill="black" stroke="black" points="30.15,-61.09 32.98,-71.3 37.14,-61.56 30.15,-61.09"/>
</g>
<!-- C&#45;&gt;A -->
<g id="edge4" class="edge">
<title>C&#45;&gt;A</title>
<path fill="none" stroke="green" d="M21.12,-72.81C20.32,-65.14 20.07,-55.89 20.38,-47.24"/>
<polygon fill="green" stroke="green" points="23.85,-47.75 21.04,-37.54 16.87,-47.28 23.85,-47.75"/>
</g>
</g>
</svg>
