<?xml version="1.0" encoding="UTF-8" standalone="no"?>
<!DOCTYPE svg PUBLIC "-//W3C//DTD SVG 1.1//EN"
 "http://www.w3.org/Graphics/SVG/1.1/DTD/svg11.dtd">
<!-- Generated by graphviz version 12.1.1 (0)
 -->
<!-- Pages: 1 -->
<svg width="605pt" height="655pt"
 viewBox="0.00 0.00 604.59 654.50" xmlns="http://www.w3.org/2000/svg" xmlns:xlink="http://www.w3.org/1999/xlink">
<g id="graph0" class="graph" transform="scale(1 1) rotate(0) translate(4 650.5)">
<polygon fill="white" stroke="none" points="-4,4 -4,-650.5 600.59,-650.5 600.59,4 -4,4"/>
<!-- host&#45;c++ -->
<g id="node1" class="node">
<title>host&#45;c++</title>
<polygon fill="none" stroke="black" stroke-dasharray="1,5" points="246.62,-646.5 39.38,-646.5 39.38,-570.75 246.62,-570.75 246.62,-646.5"/>
<text text-anchor="middle" x="143" y="-629.2" font-family="Times,serif" font-size="14.00">host CXX</text>
<text text-anchor="middle" x="143" y="-595.95" font-family="Times,serif" font-size="14.00">system compiler</text>
<text text-anchor="middle" x="143" y="-578.7" font-family="Times,serif" font-size="14.00">usually optimized with &#45;O2</text>
</g>
<!-- stage1&#45;gcc -->
<g id="node2" class="node">
<title>stage1&#45;gcc</title>
<polygon fill="none" stroke="black" points="195.25,-517.5 90.75,-517.5 90.75,-459 195.25,-459 195.25,-517.5"/>
<text text-anchor="middle" x="143" y="-500.2" font-family="Times,serif" font-size="14.00">stage1&#45;gcc</text>
<text text-anchor="middle" x="143" y="-466.95" font-family="Times,serif" font-size="14.00">unoptimized</text>
</g>
<!-- host&#45;c++&#45;&gt;stage1&#45;gcc -->
<g id="edge1" class="edge">
<title>host&#45;c++&#45;&gt;stage1&#45;gcc</title>
<path fill="none" stroke="red" d="M143,-570.5C143,-557.38 143,-542.59 143,-529.25"/>
<polygon fill="red" stroke="red" points="146.5,-529.5 143,-519.5 139.5,-529.5 146.5,-529.5"/>
<text text-anchor="middle" x="200.38" y="-539.45" font-family="Times,serif" font-size="14.00">1. CFLAGS=&#45;O0</text>
</g>
<!-- stageprofile&#45;gcc -->
<g id="node3" class="node">
<title>stageprofile&#45;gcc</title>
<polygon fill="none" stroke="black" points="286,-405.75 0,-405.75 0,-330 286,-330 286,-405.75"/>
<text text-anchor="middle" x="143" y="-388.45" font-family="Times,serif" font-size="14.00">stageprofile&#45;gcc</text>
<text text-anchor="middle" x="143" y="-355.2" font-family="Times,serif" font-size="14.00">optimized and instrumented</text>
<text text-anchor="middle" x="143" y="-337.95" font-family="Times,serif" font-size="14.00">also produces *.gcda files on each run</text>
</g>
<!-- stage1&#45;gcc&#45;&gt;stageprofile&#45;gcc -->
<g id="edge2" class="edge">
<title>stage1&#45;gcc&#45;&gt;stageprofile&#45;gcc</title>
<path fill="none" stroke="blue" d="M143,-458.59C143,-446.3 143,-431.58 143,-417.66"/>
<polygon fill="blue" stroke="blue" points="146.5,-417.74 143,-407.74 139.5,-417.74 146.5,-417.74"/>
<text text-anchor="middle" x="264.5" y="-427.7" font-family="Times,serif" font-size="14.00">2. CFLAGS=&#45;O2 &#45;fprofile&#45;generate</text>
</g>
<!-- stagetrain&#45;gcc -->
<g id="node4" class="node">
<title>stagetrain&#45;gcc</title>
<polygon fill="none" stroke="black" points="280,-187.5 6,-187.5 6,-111.75 280,-111.75 280,-187.5"/>
<text text-anchor="middle" x="143" y="-170.2" font-family="Times,serif" font-size="14.00">stagetrain&#45;gcc</text>
<text text-anchor="middle" x="143" y="-136.95" font-family="Times,serif" font-size="14.00">optimized</text>
<text text-anchor="middle" x="143" y="-119.7" font-family="Times,serif" font-size="14.00">uses *.gcda files to generate objects</text>
</g>
<!-- stageprofile&#45;gcc&#45;&gt;stagetrain&#45;gcc -->
<g id="edge3" class="edge">
<title>stageprofile&#45;gcc&#45;&gt;stagetrain&#45;gcc</title>
<path fill="none" stroke="black" d="M143,-329.7C143,-293.62 143,-238.66 143,-199.15"/>
<polygon fill="black" stroke="black" points="146.5,-199.19 143,-189.19 139.5,-199.19 146.5,-199.19"/>
<text text-anchor="middle" x="200.38" y="-254.07" font-family="Times,serif" font-size="14.00">3. CFLAGS=&#45;O2</text>
</g>
<!-- *.gcda -->
<g id="node6" class="node">
<title>*.gcda</title>
<polygon fill="none" stroke="black" points="325.22,-240.8 328.01,-240.9 330.77,-241.05 333.49,-241.24 336.17,-241.49 338.78,-241.78 341.31,-242.11 343.77,-242.5 346.13,-242.93 348.4,-243.4 350.55,-243.91 352.59,-244.46 354.51,-245.06 356.3,-245.69 357.95,-246.36 359.47,-247.06 360.84,-247.79 362.07,-248.55 363.15,-249.34 364.08,-250.16 364.87,-251 365.5,-251.86 365.98,-252.74 366.32,-253.64 366.52,-254.55 366.57,-255.47 366.48,-256.4 366.26,-257.34 365.91,-258.28 365.44,-259.22 364.84,-260.16 364.13,-261.1 363.31,-262.03 362.39,-262.95 361.38,-263.86 360.27,-264.76 359.08,-265.64 357.81,-266.5 356.47,-267.34 355.06,-268.16 353.59,-268.95 352.07,-269.71 350.5,-270.44 348.88,-271.14 347.23,-271.81 345.54,-272.44 343.82,-273.04 342.07,-273.59 340.3,-274.1 338.52,-274.57 336.71,-275 334.89,-275.39 333.06,-275.72 331.22,-276.01 329.37,-276.26 327.52,-276.45 325.66,-276.6 323.8,-276.7 321.93,-276.75 320.07,-276.75 318.2,-276.7 316.34,-276.6 314.48,-276.45 312.63,-276.26 310.78,-276.01 308.94,-275.72 307.11,-275.39 305.29,-275 303.48,-274.57 301.7,-274.1 299.93,-273.59 298.18,-273.04 296.46,-272.44 294.77,-271.81 293.12,-271.14 291.5,-270.44 289.93,-269.71 288.41,-268.95 286.94,-268.16 285.53,-267.34 284.19,-266.5 282.92,-265.64 281.73,-264.76 280.62,-263.86 279.61,-262.95 278.69,-262.03 277.87,-261.1 277.16,-260.16 276.56,-259.22 276.09,-258.28 275.74,-257.34 275.52,-256.4 275.43,-255.47 275.48,-254.55 275.68,-253.64 276.02,-252.74 276.5,-251.86 277.13,-251 277.92,-250.16 278.85,-249.34 279.93,-248.55 281.16,-247.79 282.53,-247.06 284.05,-246.36 285.7,-245.69 287.49,-245.06 289.41,-244.46 291.45,-243.91 293.6,-243.4 295.87,-242.93 298.23,-242.5 300.69,-242.11 303.22,-241.78 305.83,-241.49 308.51,-241.24 311.23,-241.05 313.99,-240.9 316.78,-240.8 319.59,-240.75 322.41,-240.75 325.22,-240.8"/>
<text text-anchor="middle" x="321" y="-254.07" font-family="Times,serif" font-size="14.00">*.gcda</text>
</g>
<!-- stageprofile&#45;gcc&#45;&gt;*.gcda -->
<g id="edge4" class="edge">
<title>stageprofile&#45;gcc&#45;&gt;*.gcda</title>
<path fill="none" stroke="black" stroke-dasharray="1,5" d="M204.76,-329.71C232.92,-312.76 265.11,-293.38 288.47,-279.33"/>
<polygon fill="black" stroke="black" points="290.15,-282.4 296.92,-274.24 286.54,-276.4 290.15,-282.4"/>
<text text-anchor="middle" x="427.47" y="-298.7" font-family="Times,serif" font-size="14.00">produced when building stagetrain&#45;gcc sources</text>
</g>
<!-- stagefeedback&#45;gcc -->
<g id="node5" class="node">
<title>stagefeedback&#45;gcc</title>
<polygon fill="none" stroke="black" points="256.38,-58.5 29.62,-58.5 29.62,0 256.38,0 256.38,-58.5"/>
<text text-anchor="middle" x="143" y="-41.2" font-family="Times,serif" font-size="14.00">stagefeedback&#45;gcc</text>
<text text-anchor="middle" x="143" y="-7.95" font-family="Times,serif" font-size="14.00">optimized on profile feedback</text>
</g>
<!-- stagetrain&#45;gcc&#45;&gt;stagefeedback&#45;gcc -->
<g id="edge6" class="edge">
<title>stagetrain&#45;gcc&#45;&gt;stagefeedback&#45;gcc</title>
<path fill="none" stroke="black" d="M143,-111.5C143,-98.38 143,-83.59 143,-70.25"/>
<polygon fill="black" stroke="black" points="146.5,-70.5 143,-60.5 139.5,-70.5 146.5,-70.5"/>
<text text-anchor="middle" x="245" y="-80.45" font-family="Times,serif" font-size="14.00">4. CFLAGS=&#45;O2 &#45;fprofile&#45;use</text>
</g>
<!-- *.gcda&#45;&gt;stagetrain&#45;gcc -->
<g id="edge5" class="edge">
<title>*.gcda&#45;&gt;stagetrain&#45;gcc</title>
<path fill="none" stroke="black" d="M295.87,-242.63C274.69,-229.88 243.31,-211 214.48,-193.65"/>
<polygon fill="black" stroke="black" points="216.49,-190.77 206.12,-188.61 212.88,-196.77 216.49,-190.77"/>
<text text-anchor="middle" x="382.47" y="-209.45" font-family="Times,serif" font-size="14.00">used to compile stagefeedback&#45;gcc</text>
</g>
</g>
</svg>
