<?xml version="1.0" encoding="UTF-8" standalone="no"?>
<!DOCTYPE svg PUBLIC "-//W3C//DTD SVG 1.1//EN"
 "http://www.w3.org/Graphics/SVG/1.1/DTD/svg11.dtd">
<!-- Generated by graphviz version 10.0.1 (0)
 -->
<!-- Pages: 1 -->
<svg width="401pt" height="470pt"
 viewBox="0.00 0.00 401.25 469.75" xmlns="http://www.w3.org/2000/svg" xmlns:xlink="http://www.w3.org/1999/xlink">
<g id="graph0" class="graph" transform="scale(1 1) rotate(0) translate(4 465.75)">
<polygon fill="white" stroke="none" points="-4,4 -4,-465.75 397.25,-465.75 397.25,4 -4,4"/>
<!-- gi_ptr -->
<g id="node1" class="node">
<title>gi_ptr</title>
<polygon fill="none" stroke="black" points="207.88,-425.25 207.88,-461.25 308.62,-461.25 308.62,-425.25 207.88,-425.25"/>
<text text-anchor="middle" x="258.25" y="-438.57" font-family="Times,serif" font-size="14.00">info * gi_ptr</text>
</g>
<!-- mod1 -->
<g id="node2" class="node">
<title>mod1</title>
<polygon fill="none" stroke="black" points="169.62,-211.5 169.62,-388.25 346.88,-388.25 346.88,-211.5 169.62,-211.5"/>
<text text-anchor="middle" x="258.25" y="-370.95" font-family="Times,serif" font-size="14.00">...</text>
<polyline fill="none" stroke="black" points="169.62,-363 346.88,-363"/>
<text text-anchor="middle" x="258.25" y="-345.7" font-family="Times,serif" font-size="14.00">info * next</text>
<polyline fill="none" stroke="black" points="169.62,-337.75 346.88,-337.75"/>
<text text-anchor="middle" x="258.25" y="-320.45" font-family="Times,serif" font-size="14.00">name=&#39;logic.gcda&#39;</text>
<polyline fill="none" stroke="black" points="169.62,-312.5 346.88,-312.5"/>
<text text-anchor="middle" x="258.25" y="-295.2" font-family="Times,serif" font-size="14.00">...</text>
<polyline fill="none" stroke="black" points="169.62,-287.25 346.88,-287.25"/>
<text text-anchor="middle" x="258.25" y="-269.95" font-family="Times,serif" font-size="14.00">u64 n_functions = 106</text>
<polyline fill="none" stroke="black" points="169.62,-262 346.88,-262"/>
<text text-anchor="middle" x="258.25" y="-244.7" font-family="Times,serif" font-size="14.00">fn_info ** functions</text>
<polyline fill="none" stroke="black" points="169.62,-236.75 346.88,-236.75"/>
<text text-anchor="middle" x="258.25" y="-219.45" font-family="Times,serif" font-size="14.00">...</text>
</g>
<!-- gi_ptr&#45;&gt;mod1 -->
<g id="edge1" class="edge">
<title>gi_ptr&#45;&gt;mod1:W</title>
<path fill="none" stroke="black" d="M258.25,-424.81C258.25,-417.17 258.25,-408.08 258.25,-399.83"/>
<polygon fill="black" stroke="black" points="261.75,-400.1 258.25,-390.1 254.75,-400.1 261.75,-400.1"/>
</g>
<!-- mod1_fns -->
<g id="node3" class="node">
<title>mod1_fns</title>
<polygon fill="none" stroke="black" points="75.38,-73.5 75.38,-174.5 197.12,-174.5 197.12,-73.5 75.38,-73.5"/>
<text text-anchor="middle" x="136.25" y="-157.2" font-family="Times,serif" font-size="14.00">[0]</text>
<polyline fill="none" stroke="black" points="75.38,-149.25 197.12,-149.25"/>
<text text-anchor="middle" x="136.25" y="-131.95" font-family="Times,serif" font-size="14.00">[1]</text>
<polyline fill="none" stroke="black" points="75.38,-124 197.12,-124"/>
<text text-anchor="middle" x="136.25" y="-106.7" font-family="Times,serif" font-size="14.00">...</text>
<polyline fill="none" stroke="black" points="75.38,-98.75 197.12,-98.75"/>
<text text-anchor="middle" x="136.25" y="-81.45" font-family="Times,serif" font-size="14.00">[n_functions&#45;1]</text>
</g>
<!-- mod1&#45;&gt;mod1_fns -->
<g id="edge2" class="edge">
<title>mod1:w&#45;&gt;mod1_fns:W</title>
<path fill="none" stroke="black" d="M168.25,-248.88C141.45,-248.88 135.99,-212.03 135.43,-186.33"/>
<polygon fill="black" stroke="black" points="138.93,-186.35 135.48,-176.33 131.93,-186.32 138.93,-186.35"/>
</g>
<!-- mod2 -->
<g id="node7" class="node">
<title>mod2</title>
<polygon fill="none" stroke="black" points="265.12,-73.5 265.12,-174.5 355.38,-174.5 355.38,-73.5 265.12,-73.5"/>
<text text-anchor="middle" x="310.25" y="-157.2" font-family="Times,serif" font-size="14.00">...</text>
<polyline fill="none" stroke="black" points="265.12,-149.25 355.38,-149.25"/>
<text text-anchor="middle" x="310.25" y="-131.95" font-family="Times,serif" font-size="14.00">info * next</text>
<polyline fill="none" stroke="black" points="265.12,-124 355.38,-124"/>
<text text-anchor="middle" x="310.25" y="-106.7" font-family="Times,serif" font-size="14.00">name=&#39;...&#39;</text>
<polyline fill="none" stroke="black" points="265.12,-98.75 355.38,-98.75"/>
<text text-anchor="middle" x="310.25" y="-81.45" font-family="Times,serif" font-size="14.00">...</text>
</g>
<!-- mod1&#45;&gt;mod2 -->
<g id="edge6" class="edge">
<title>mod1:e&#45;&gt;mod2:e</title>
<path fill="none" stroke="black" d="M348.25,-350.88C386.32,-350.88 396.46,-195.75 366.76,-166.67"/>
<polygon fill="black" stroke="black" points="368.19,-163.48 357.63,-162.61 365.35,-169.87 368.19,-163.48"/>
</g>
<!-- __gcov.f${N&#45;1} -->
<g id="node4" class="node">
<title>__gcov.f${N&#45;1}</title>
<polygon fill="none" stroke="black" points="0,-0.5 0,-36.5 122.5,-36.5 122.5,-0.5 0,-0.5"/>
<text text-anchor="middle" x="61.25" y="-13.82" font-family="Times,serif" font-size="14.00">__gcov.f${N&#45;1}</text>
</g>
<!-- mod1_fns&#45;&gt;__gcov.f${N&#45;1} -->
<g id="edge3" class="edge">
<title>mod1_fns:e&#45;&gt;__gcov.f${N&#45;1}</title>
<path fill="none" stroke="black" d="M198.25,-86C240.39,-86 176.96,-60.23 123.08,-40.77"/>
<polygon fill="black" stroke="black" points="124.48,-37.55 113.89,-37.48 122.12,-44.15 124.48,-37.55"/>
</g>
<!-- __gcov.f1 -->
<g id="node5" class="node">
<title>__gcov.f1</title>
<polygon fill="none" stroke="black" points="140.75,-0.5 140.75,-36.5 219.75,-36.5 219.75,-0.5 140.75,-0.5"/>
<text text-anchor="middle" x="180.25" y="-13.82" font-family="Times,serif" font-size="14.00">__gcov.f1</text>
</g>
<!-- mod1_fns&#45;&gt;__gcov.f1 -->
<g id="edge4" class="edge">
<title>mod1_fns:e&#45;&gt;__gcov.f1</title>
<path fill="none" stroke="black" d="M198.25,-137C234.53,-137 212.49,-81.58 195.12,-46.86"/>
<polygon fill="black" stroke="black" points="198.34,-45.47 190.64,-38.18 192.12,-48.67 198.34,-45.47"/>
</g>
<!-- __gcov.f0 -->
<g id="node6" class="node">
<title>__gcov.f0</title>
<polygon fill="none" stroke="black" points="237.75,-0.5 237.75,-36.5 316.75,-36.5 316.75,-0.5 237.75,-0.5"/>
<text text-anchor="middle" x="277.25" y="-13.82" font-family="Times,serif" font-size="14.00">__gcov.f0</text>
</g>
<!-- mod1_fns&#45;&gt;__gcov.f0 -->
<g id="edge5" class="edge">
<title>mod1_fns:e&#45;&gt;__gcov.f0</title>
<path fill="none" stroke="black" d="M198.25,-162C211.23,-162 246.23,-88.71 264.98,-47.25"/>
<polygon fill="black" stroke="black" points="268.07,-48.91 268.97,-38.35 261.69,-46.04 268.07,-48.91"/>
</g>
<!-- NULL -->
<g id="node8" class="node">
<title>NULL</title>
<polygon fill="none" stroke="black" points="335.25,-0.5 335.25,-36.5 393.25,-36.5 393.25,-0.5 335.25,-0.5"/>
<text text-anchor="middle" x="364.25" y="-13.82" font-family="Times,serif" font-size="14.00">NULL</text>
</g>
<!-- mod2&#45;&gt;NULL -->
<g id="edge7" class="edge">
<title>mod2:e&#45;&gt;NULL</title>
<path fill="none" stroke="black" d="M356.25,-137C391.89,-137 382.71,-82.53 373.22,-47.77"/>
<polygon fill="black" stroke="black" points="376.62,-46.92 370.47,-38.29 369.89,-48.87 376.62,-46.92"/>
</g>
</g>
</svg>
