<?xml version="1.0" encoding="UTF-8" standalone="no"?>
<!DOCTYPE svg PUBLIC "-//W3C//DTD SVG 1.1//EN"
 "http://www.w3.org/Graphics/SVG/1.1/DTD/svg11.dtd">
<!-- Generated by graphviz version 12.1.1 (0)
 -->
<!-- Pages: 1 -->
<svg width="401pt" height="470pt"
 viewBox="0.00 0.00 401.25 469.75" xmlns="http://www.w3.org/2000/svg" xmlns:xlink="http://www.w3.org/1999/xlink">
<g id="graph0" class="graph" transform="scale(1 1) rotate(0) translate(4 465.75)">
<polygon fill="white" stroke="none" points="-4,4 -4,-465.75 397.25,-465.75 397.25,4 -4,4"/>
<!-- gi_ptr -->
<g id="node1" class="node">
<title>gi_ptr</title>
<polygon fill="none" stroke="black" points="208.88,-425.25 208.88,-461.25 309.62,-461.25 309.62,-425.25 208.88,-425.25"/>
<text text-anchor="middle" x="259.25" y="-438.57" font-family="Times,serif" font-size="14.00">info * gi_ptr</text>
</g>
<!-- mod1 -->
<g id="node2" class="node">
<title>mod1</title>
<polygon fill="none" stroke="black" points="170.62,-211.5 170.62,-388.25 347.88,-388.25 347.88,-211.5 170.62,-211.5"/>
<text text-anchor="middle" x="259.25" y="-370.95" font-family="Times,serif" font-size="14.00">...</text>
<polyline fill="none" stroke="black" points="170.62,-363 347.88,-363"/>
<text text-anchor="middle" x="259.25" y="-345.7" font-family="Times,serif" font-size="14.00">info * next</text>
<polyline fill="none" stroke="black" points="170.62,-337.75 347.88,-337.75"/>
<text text-anchor="middle" x="259.25" y="-320.45" font-family="Times,serif" font-size="14.00">name=&#39;logic.gcda&#39;</text>
<polyline fill="none" stroke="black" points="170.62,-312.5 347.88,-312.5"/>
<text text-anchor="middle" x="259.25" y="-295.2" font-family="Times,serif" font-size="14.00">...</text>
<polyline fill="none" stroke="black" points="170.62,-287.25 347.88,-287.25"/>
<text text-anchor="middle" x="259.25" y="-269.95" font-family="Times,serif" font-size="14.00">u64 n_functions = 106</text>
<polyline fill="none" stroke="black" points="170.62,-262 347.88,-262"/>
<text text-anchor="middle" x="259.25" y="-244.7" font-family="Times,serif" font-size="14.00">fn_info ** functions</text>
<polyline fill="none" stroke="black" points="170.62,-236.75 347.88,-236.75"/>
<text text-anchor="middle" x="259.25" y="-219.45" font-family="Times,serif" font-size="14.00">...</text>
</g>
<!-- gi_ptr&#45;&gt;mod1 -->
<g id="edge1" class="edge">
<title>gi_ptr&#45;&gt;mod1:W</title>
<path fill="none" stroke="black" d="M259.25,-425.09C259.25,-417.42 259.25,-408.25 259.25,-399.9"/>
<polygon fill="black" stroke="black" points="262.75,-400.03 259.25,-390.03 255.75,-400.03 262.75,-400.03"/>
</g>
<!-- mod1_fns -->
<g id="node3" class="node">
<title>mod1_fns</title>
<polygon fill="none" stroke="black" points="76.38,-73.5 76.38,-174.5 198.12,-174.5 198.12,-73.5 76.38,-73.5"/>
<text text-anchor="middle" x="137.25" y="-157.2" font-family="Times,serif" font-size="14.00">[0]</text>
<polyline fill="none" stroke="black" points="76.38,-149.25 198.12,-149.25"/>
<text text-anchor="middle" x="137.25" y="-131.95" font-family="Times,serif" font-size="14.00">[1]</text>
<polyline fill="none" stroke="black" points="76.38,-124 198.12,-124"/>
<text text-anchor="middle" x="137.25" y="-106.7" font-family="Times,serif" font-size="14.00">...</text>
<polyline fill="none" stroke="black" points="76.38,-98.75 198.12,-98.75"/>
<text text-anchor="middle" x="137.25" y="-81.45" font-family="Times,serif" font-size="14.00">[n_functions&#45;1]</text>
</g>
<!-- mod1&#45;&gt;mod1_fns -->
<g id="edge2" class="edge">
<title>mod1:w&#45;&gt;mod1_fns:W</title>
<path fill="none" stroke="black" d="M169.62,-249.38C142.5,-249.38 137.01,-211.93 136.46,-186.03"/>
<polygon fill="black" stroke="black" points="139.95,-186.31 136.49,-176.3 132.95,-186.29 139.95,-186.31"/>
</g>
<!-- mod2 -->
<g id="node7" class="node">
<title>mod2</title>
<polygon fill="none" stroke="black" points="265.12,-73.5 265.12,-174.5 355.38,-174.5 355.38,-73.5 265.12,-73.5"/>
<text text-anchor="middle" x="310.25" y="-157.2" font-family="Times,serif" font-size="14.00">...</text>
<polyline fill="none" stroke="black" points="265.12,-149.25 355.38,-149.25"/>
<text text-anchor="middle" x="310.25" y="-131.95" font-family="Times,serif" font-size="14.00">info * next</text>
<polyline fill="none" stroke="black" points="265.12,-124 355.38,-124"/>
<text text-anchor="middle" x="310.25" y="-106.7" font-family="Times,serif" font-size="14.00">name=&#39;...&#39;</text>
<polyline fill="none" stroke="black" points="265.12,-98.75 355.38,-98.75"/>
<text text-anchor="middle" x="310.25" y="-81.45" font-family="Times,serif" font-size="14.00">...</text>
</g>
<!-- mod1&#45;&gt;mod2 -->
<g id="edge6" class="edge">
<title>mod1:e&#45;&gt;mod2:e</title>
<path fill="none" stroke="black" d="M348.88,-350.38C386.87,-350.38 396.59,-195.56 366.87,-166.53"/>
<polygon fill="black" stroke="black" points="368.32,-163.35 357.76,-162.49 365.48,-169.74 368.32,-163.35"/>
</g>
<!-- __gcov.f${N&#45;1} -->
<g id="node4" class="node">
<title>__gcov.f${N&#45;1}</title>
<polygon fill="none" stroke="black" points="0,-0.5 0,-36.5 122.5,-36.5 122.5,-0.5 0,-0.5"/>
<text text-anchor="middle" x="61.25" y="-13.82" font-family="Times,serif" font-size="14.00">__gcov.f${N&#45;1}</text>
</g>
<!-- mod1_fns&#45;&gt;__gcov.f${N&#45;1} -->
<g id="edge3" class="edge">
<title>mod1_fns:e&#45;&gt;__gcov.f${N&#45;1}</title>
<path fill="none" stroke="black" d="M199.12,-86.12C241.62,-86.12 177.3,-60.15 122.98,-40.64"/>
<polygon fill="black" stroke="black" points="124.3,-37.39 113.71,-37.34 121.96,-43.99 124.3,-37.39"/>
</g>
<!-- __gcov.f1 -->
<g id="node5" class="node">
<title>__gcov.f1</title>
<polygon fill="none" stroke="black" points="140.75,-0.5 140.75,-36.5 219.75,-36.5 219.75,-0.5 140.75,-0.5"/>
<text text-anchor="middle" x="180.25" y="-13.82" font-family="Times,serif" font-size="14.00">__gcov.f1</text>
</g>
<!-- mod1_fns&#45;&gt;__gcov.f1 -->
<g id="edge4" class="edge">
<title>mod1_fns:e&#45;&gt;__gcov.f1</title>
<path fill="none" stroke="black" d="M199.12,-136.62C235.34,-136.62 212.91,-81.38 195.3,-46.78"/>
<polygon fill="black" stroke="black" points="198.51,-45.36 190.77,-38.12 192.31,-48.6 198.51,-45.36"/>
</g>
<!-- __gcov.f0 -->
<g id="node6" class="node">
<title>__gcov.f0</title>
<polygon fill="none" stroke="black" points="237.75,-0.5 237.75,-36.5 316.75,-36.5 316.75,-0.5 237.75,-0.5"/>
<text text-anchor="middle" x="277.25" y="-13.82" font-family="Times,serif" font-size="14.00">__gcov.f0</text>
</g>
<!-- mod1_fns&#45;&gt;__gcov.f0 -->
<g id="edge5" class="edge">
<title>mod1_fns:e&#45;&gt;__gcov.f0</title>
<path fill="none" stroke="black" d="M199.12,-161.88C212.07,-161.88 246.63,-88.65 265.14,-47.23"/>
<polygon fill="black" stroke="black" points="268.23,-48.9 269.08,-38.34 261.83,-46.06 268.23,-48.9"/>
</g>
<!-- NULL -->
<g id="node8" class="node">
<title>NULL</title>
<polygon fill="none" stroke="black" points="335.25,-0.5 335.25,-36.5 393.25,-36.5 393.25,-0.5 335.25,-0.5"/>
<text text-anchor="middle" x="364.25" y="-13.82" font-family="Times,serif" font-size="14.00">NULL</text>
</g>
<!-- mod2&#45;&gt;NULL -->
<g id="edge7" class="edge">
<title>mod2:e&#45;&gt;NULL</title>
<path fill="none" stroke="black" d="M356.38,-136.62C391.9,-136.62 382.7,-82.33 373.21,-47.68"/>
<polygon fill="black" stroke="black" points="376.62,-46.86 370.47,-38.24 369.9,-48.82 376.62,-46.86"/>
</g>
</g>
</svg>
