<?xml version="1.0" encoding="UTF-8" standalone="no"?>
<!DOCTYPE svg PUBLIC "-//W3C//DTD SVG 1.1//EN"
 "http://www.w3.org/Graphics/SVG/1.1/DTD/svg11.dtd">
<!-- Generated by graphviz version 12.2.1 (0)
 -->
<!-- Pages: 1 -->
<svg width="405pt" height="191pt"
 viewBox="0.00 0.00 405.00 191.00" xmlns="http://www.w3.org/2000/svg" xmlns:xlink="http://www.w3.org/1999/xlink">
<g id="graph0" class="graph" transform="scale(1 1) rotate(0) translate(4 187)">
<polygon fill="white" stroke="none" points="-4,4 -4,-187 401,-187 401,4 -4,4"/>
<!-- libncurses.so.6 -->
<g id="node1" class="node">
<title>libncurses.so.6</title>
<polygon fill="pink" stroke="black" points="272.25,-0.5 272.25,-36.5 395.5,-36.5 395.5,-0.5 272.25,-0.5"/>
<text text-anchor="middle" x="333.88" y="-13.82" font-family="Times,serif" font-size="14.00">libncurses.so.6</text>
</g>
<!-- libncursesw.so.6 -->
<g id="node2" class="node">
<title>libncursesw.so.6</title>
<polygon fill="pink" stroke="black" points="0,-73.5 0,-109.5 133.75,-109.5 133.75,-73.5 0,-73.5"/>
<text text-anchor="middle" x="66.88" y="-86.83" font-family="Times,serif" font-size="14.00">libncursesw.so.6</text>
</g>
<!-- libtinfow.so.6 -->
<g id="node4" class="node">
<title>libtinfow.so.6</title>
<polygon fill="red" stroke="black" points="11.25,-0.5 11.25,-36.5 122.5,-36.5 122.5,-0.5 11.25,-0.5"/>
<text text-anchor="middle" x="66.88" y="-13.82" font-family="Times,serif" font-size="14.00">libtinfow.so.6</text>
</g>
<!-- libncursesw.so.6&#45;&gt;libtinfow.so.6 -->
<g id="edge5" class="edge">
<title>libncursesw.so.6&#45;&gt;libtinfow.so.6</title>
<path fill="none" stroke="black" d="M66.88,-73.31C66.88,-65.73 66.88,-56.6 66.88,-48.04"/>
<polygon fill="black" stroke="black" points="70.38,-48.04 66.88,-38.04 63.38,-48.04 70.38,-48.04"/>
</g>
<!-- libtinfo.so.6 -->
<g id="node3" class="node">
<title>libtinfo.so.6</title>
<polygon fill="red" stroke="black" points="151.5,-73.5 151.5,-109.5 252.25,-109.5 252.25,-73.5 151.5,-73.5"/>
<text text-anchor="middle" x="201.88" y="-86.83" font-family="Times,serif" font-size="14.00">libtinfo.so.6</text>
</g>
<!-- gdb -->
<g id="node5" class="node">
<title>gdb</title>
<polygon fill="none" stroke="black" points="174.88,-146.5 174.88,-182.5 228.88,-182.5 228.88,-146.5 174.88,-146.5"/>
<text text-anchor="middle" x="201.88" y="-159.82" font-family="Times,serif" font-size="14.00">gdb</text>
</g>
<!-- gdb&#45;&gt;libncursesw.so.6 -->
<g id="edge3" class="edge">
<title>gdb&#45;&gt;libncursesw.so.6</title>
<path fill="none" stroke="black" d="M174.56,-149.13C156.02,-139.38 131.12,-126.29 109.94,-115.15"/>
<polygon fill="black" stroke="black" points="111.7,-112.12 101.22,-110.56 108.44,-118.31 111.7,-112.12"/>
</g>
<!-- gdb&#45;&gt;libtinfo.so.6 -->
<g id="edge1" class="edge">
<title>gdb&#45;&gt;libtinfo.so.6</title>
<path fill="none" stroke="black" d="M201.88,-146.31C201.88,-138.73 201.88,-129.6 201.88,-121.04"/>
<polygon fill="black" stroke="black" points="205.38,-121.04 201.88,-111.04 198.38,-121.04 205.38,-121.04"/>
</g>
<!-- libreadline.so.7 -->
<g id="node6" class="node">
<title>libreadline.so.7</title>
<polygon fill="none" stroke="black" points="270.75,-73.5 270.75,-109.5 397,-109.5 397,-73.5 270.75,-73.5"/>
<text text-anchor="middle" x="333.88" y="-86.83" font-family="Times,serif" font-size="14.00">libreadline.so.7</text>
</g>
<!-- gdb&#45;&gt;libreadline.so.7 -->
<g id="edge2" class="edge">
<title>gdb&#45;&gt;libreadline.so.7</title>
<path fill="none" stroke="black" d="M229.23,-148.79C247.18,-139.13 271.04,-126.3 291.44,-115.33"/>
<polygon fill="black" stroke="black" points="292.95,-118.49 300.1,-110.67 289.64,-112.32 292.95,-118.49"/>
</g>
<!-- libreadline.so.7&#45;&gt;libncurses.so.6 -->
<g id="edge4" class="edge">
<title>libreadline.so.7&#45;&gt;libncurses.so.6</title>
<path fill="none" stroke="black" d="M333.88,-73.31C333.88,-65.73 333.88,-56.6 333.88,-48.04"/>
<polygon fill="black" stroke="black" points="337.38,-48.04 333.88,-38.04 330.38,-48.04 337.38,-48.04"/>
</g>
</g>
</svg>
