<?xml version="1.0" encoding="UTF-8" standalone="no"?>
<!DOCTYPE svg PUBLIC "-//W3C//DTD SVG 1.1//EN"
 "http://www.w3.org/Graphics/SVG/1.1/DTD/svg11.dtd">
<!-- Generated by graphviz version 8.0.5 (0)
 -->
<!-- Pages: 1 -->
<svg width="650pt" height="191pt"
 viewBox="0.00 0.00 650.38 191.00" xmlns="http://www.w3.org/2000/svg" xmlns:xlink="http://www.w3.org/1999/xlink">
<g id="graph0" class="graph" transform="scale(1 1) rotate(0) translate(4 187)">
<polygon fill="white" stroke="none" points="-4,4 -4,-187 646.38,-187 646.38,4 -4,4"/>
<!-- libmpfr.so.4 -->
<g id="node1" class="node">
<title>libmpfr.so.4</title>
<polygon fill="lightgreen" stroke="black" points="0,-73.5 0,-109.5 100.75,-109.5 100.75,-73.5 0,-73.5"/>
<text text-anchor="middle" x="50.38" y="-86.83" font-family="Times,serif" font-size="14.00">libmpfr.so.4</text>
</g>
<!-- libmpfr.so.3 -->
<g id="node2" class="node">
<title>libmpfr.so.3</title>
<polygon fill="lightgreen" stroke="black" points="117,-0.5 117,-36.5 217.75,-36.5 217.75,-0.5 117,-0.5"/>
<text text-anchor="middle" x="167.38" y="-13.82" font-family="Times,serif" font-size="14.00">libmpfr.so.3</text>
</g>
<!-- cc1 -->
<g id="node3" class="node">
<title>cc1</title>
<polygon fill="none" stroke="black" points="140.38,-146.5 140.38,-182.5 194.38,-182.5 194.38,-146.5 140.38,-146.5"/>
<text text-anchor="middle" x="167.38" y="-159.82" font-family="Times,serif" font-size="14.00">cc1</text>
</g>
<!-- cc1&#45;&gt;libmpfr.so.4 -->
<!-- cc1&#45;&gt;libmpfr.so.3 -->
<g id="edge3" class="edge">
<title>cc1&#45;&gt;libmpfr.so.3</title>
<path fill="none" stroke="black" d="M159.28,-146.6C154.79,-136.28 149.67,-122.69 147.38,-110 144.45,-93.82 144.45,-89.18 147.38,-73 148.99,-64.08 152,-54.71 155.2,-46.35"/>
<polygon fill="black" stroke="black" points="158.72,-47.98 159.28,-37.4 152.25,-45.33 158.72,-47.98"/>
</g>
<!-- libmpc.so.3 -->
<g id="node4" class="node">
<title>libmpc.so.3</title>
<polygon fill="none" stroke="black" points="156.5,-73.5 156.5,-109.5 254.25,-109.5 254.25,-73.5 156.5,-73.5"/>
<text text-anchor="middle" x="205.38" y="-86.83" font-family="Times,serif" font-size="14.00">libmpc.so.3</text>
</g>
<!-- cc1&#45;&gt;libmpc.so.3 -->
<g id="edge1" class="edge">
<title>cc1&#45;&gt;libmpc.so.3</title>
<path fill="none" stroke="black" d="M176.38,-146.67C180.83,-138.36 186.3,-128.14 191.29,-118.83"/>
<polygon fill="black" stroke="black" points="194.8,-120.67 196.43,-110.21 188.63,-117.37 194.8,-120.67"/>
</g>
<!-- ... -->
<g id="node5" class="node">
<title>...</title>
<polygon fill="none" stroke="black" points="272.38,-73.5 272.38,-109.5 326.38,-109.5 326.38,-73.5 272.38,-73.5"/>
<text text-anchor="middle" x="299.12" y="-86.83" font-family="Times,serif" font-size="14.00">...</text>
</g>
<!-- cc1&#45;&gt;... -->
<g id="edge5" class="edge">
<title>cc1&#45;&gt;...</title>
<path fill="none" stroke="black" d="M194.09,-149.13C213.95,-138.45 241.27,-123.75 263.1,-112.01"/>
<polygon fill="black" stroke="black" points="264.55,-114.67 271.7,-106.85 261.24,-108.5 264.55,-114.67"/>
</g>
<!-- libmpc.so.3&#45;&gt;libmpfr.so.3 -->
<g id="edge2" class="edge">
<title>libmpc.so.3&#45;&gt;libmpfr.so.3</title>
<path fill="none" stroke="black" d="M196.37,-73.67C191.92,-65.36 186.45,-55.14 181.46,-45.83"/>
<polygon fill="black" stroke="black" points="184.12,-44.37 176.32,-37.21 177.95,-47.67 184.12,-44.37"/>
</g>
<!-- libmpfr.so.4  -->
<g id="node6" class="node">
<title>libmpfr.so.4 </title>
<polygon fill="pink" stroke="black" points="466.75,-0.5 466.75,-36.5 572,-36.5 572,-0.5 466.75,-0.5"/>
<text text-anchor="middle" x="519.38" y="-13.82" font-family="Times,serif" font-size="14.00">libmpfr.so.4 </text>
</g>
<!-- libmpfr.so.3  -->
<g id="node7" class="node">
<title>libmpfr.so.3 </title>
<polygon fill="pink" stroke="black" points="344.75,-73.5 344.75,-109.5 450,-109.5 450,-73.5 344.75,-73.5"/>
<text text-anchor="middle" x="397.38" y="-86.83" font-family="Times,serif" font-size="14.00">libmpfr.so.3 </text>
</g>
<!-- cc1  -->
<g id="node8" class="node">
<title>cc1 </title>
<polygon fill="none" stroke="black" points="492.38,-146.5 492.38,-182.5 546.38,-182.5 546.38,-146.5 492.38,-146.5"/>
<text text-anchor="middle" x="519.12" y="-159.82" font-family="Times,serif" font-size="14.00">cc1 </text>
</g>
<!-- cc1 &#45;&gt;libmpfr.so.3  -->
<g id="edge8" class="edge">
<title>cc1 &#45;&gt;libmpfr.so.3 </title>
<path fill="none" stroke="black" d="M492.6,-147.92C475.88,-138.19 454.08,-125.5 435.56,-114.72"/>
<polygon fill="black" stroke="black" points="437.62,-111.29 427.21,-109.28 434.1,-117.34 437.62,-111.29"/>
</g>
<!-- libmpc.so.3  -->
<g id="node9" class="node">
<title>libmpc.so.3 </title>
<polygon fill="none" stroke="black" points="468.25,-73.5 468.25,-109.5 570.5,-109.5 570.5,-73.5 468.25,-73.5"/>
<text text-anchor="middle" x="519.38" y="-86.83" font-family="Times,serif" font-size="14.00">libmpc.so.3 </text>
</g>
<!-- cc1 &#45;&gt;libmpc.so.3  -->
<g id="edge6" class="edge">
<title>cc1 &#45;&gt;libmpc.so.3 </title>
<path fill="none" stroke="black" d="M519.38,-146.67C519.38,-138.72 519.38,-129.01 519.38,-120.02"/>
<polygon fill="black" stroke="black" points="522.88,-120.21 519.38,-110.21 515.88,-120.21 522.88,-120.21"/>
</g>
<!-- ...  -->
<g id="node10" class="node">
<title>... </title>
<polygon fill="none" stroke="black" points="588.38,-73.5 588.38,-109.5 642.38,-109.5 642.38,-73.5 588.38,-73.5"/>
<text text-anchor="middle" x="615.38" y="-86.83" font-family="Times,serif" font-size="14.00">... </text>
</g>
<!-- cc1 &#45;&gt;...  -->
<g id="edge9" class="edge">
<title>cc1 &#45;&gt;... </title>
<path fill="none" stroke="black" d="M542.13,-146.67C554.59,-137.46 570.22,-125.89 583.85,-115.82"/>
<polygon fill="black" stroke="black" points="585.5,-118.21 591.45,-109.45 581.33,-112.58 585.5,-118.21"/>
</g>
<!-- libmpc.so.3 &#45;&gt;libmpfr.so.4  -->
<g id="edge7" class="edge">
<title>libmpc.so.3 &#45;&gt;libmpfr.so.4 </title>
<path fill="none" stroke="red" d="M519.38,-73.67C519.38,-65.72 519.38,-56.01 519.38,-47.02"/>
<polygon fill="red" stroke="red" points="522.88,-47.21 519.38,-37.21 515.88,-47.21 522.88,-47.21"/>
</g>
</g>
</svg>
