<?xml version="1.0" encoding="UTF-8" standalone="no"?>
<!DOCTYPE svg PUBLIC "-//W3C//DTD SVG 1.1//EN"
 "http://www.w3.org/Graphics/SVG/1.1/DTD/svg11.dtd">
<!-- Generated by graphviz version 8.0.5 (0)
 -->
<!-- Pages: 1 -->
<svg width="1103pt" height="404pt"
 viewBox="0.00 0.00 1102.62 404.00" xmlns="http://www.w3.org/2000/svg" xmlns:xlink="http://www.w3.org/1999/xlink">
<g id="graph0" class="graph" transform="scale(1 1) rotate(0) translate(4 400)">
<polygon fill="white" stroke="none" points="-4,4 -4,-400 1098.62,-400 1098.62,4 -4,4"/>
<!-- gdb -->
<g id="node1" class="node">
<title>gdb</title>
<polygon fill="none" stroke="black" points="613,-396 559,-396 559,-360 613,-360 613,-396"/>
<text text-anchor="middle" x="586" y="-373.32" font-family="Times,serif" font-size="14.00">gdb</text>
</g>
<!-- libboost_regex.so.1.77.0 -->
<g id="node2" class="node">
<title>libboost_regex.so.1.77.0</title>
<polygon fill="none" stroke="black" points="276,-252 86,-252 86,-216 276,-216 276,-252"/>
<text text-anchor="middle" x="181" y="-229.32" font-family="Times,serif" font-size="14.00">libboost_regex.so.1.77.0</text>
</g>
<!-- gdb&#45;&gt;libboost_regex.so.1.77.0 -->
<g id="edge1" class="edge">
<title>gdb&#45;&gt;libboost_regex.so.1.77.0</title>
<path fill="none" stroke="black" d="M558.6,-375.98C484.88,-372.75 284.29,-360.74 231,-324 209.85,-309.42 196.62,-282.82 189.12,-262.48"/>
<polygon fill="black" stroke="black" points="192.17,-261.56 185.62,-253.23 185.54,-263.83 192.17,-261.56"/>
</g>
<!-- libcrypt.so.1 -->
<g id="node3" class="node">
<title>libcrypt.so.1</title>
<polygon fill="none" stroke="black" points="458.62,-252 353.38,-252 353.38,-216 458.62,-216 458.62,-252"/>
<text text-anchor="middle" x="406" y="-229.32" font-family="Times,serif" font-size="14.00">libcrypt.so.1</text>
</g>
<!-- gdb&#45;&gt;libcrypt.so.1 -->
<g id="edge2" class="edge">
<title>gdb&#45;&gt;libcrypt.so.1</title>
<path fill="none" stroke="black" d="M558.78,-373.49C510.92,-366.7 414.84,-350.09 395,-324 381.78,-306.62 386.35,-281.57 393.18,-262.47"/>
<polygon fill="black" stroke="black" points="396.79,-263.87 397.23,-253.29 390.28,-261.29 396.79,-263.87"/>
</g>
<!-- libexpat.so.1 -->
<g id="node4" class="node">
<title>libexpat.so.1</title>
<polygon fill="none" stroke="black" points="347.75,-324 240.25,-324 240.25,-288 347.75,-288 347.75,-324"/>
<text text-anchor="middle" x="294" y="-301.32" font-family="Times,serif" font-size="14.00">libexpat.so.1</text>
</g>
<!-- gdb&#45;&gt;libexpat.so.1 -->
<g id="edge3" class="edge">
<title>gdb&#45;&gt;libexpat.so.1</title>
<path fill="none" stroke="black" d="M558.73,-370.67C516.53,-360.84 432.86,-341.24 362,-324 360.88,-323.73 359.74,-323.45 358.6,-323.17"/>
<polygon fill="black" stroke="black" points="359.72,-319.6 349.18,-320.61 358.05,-326.39 359.72,-319.6"/>
</g>
<!-- libgmp.so.10 -->
<g id="node5" class="node">
<title>libgmp.so.10</title>
<polygon fill="none" stroke="black" points="822.12,-252 713.88,-252 713.88,-216 822.12,-216 822.12,-252"/>
<text text-anchor="middle" x="768" y="-229.32" font-family="Times,serif" font-size="14.00">libgmp.so.10</text>
</g>
<!-- gdb&#45;&gt;libgmp.so.10 -->
<g id="edge4" class="edge">
<title>gdb&#45;&gt;libgmp.so.10</title>
<path fill="none" stroke="black" d="M613.45,-373.98C663.96,-367.79 768.45,-351.86 790,-324 803.85,-306.1 795.52,-280.62 785.38,-261.51"/>
<polygon fill="black" stroke="black" points="788.04,-260.1 780.02,-253.17 781.97,-263.58 788.04,-260.1"/>
</g>
<!-- libipt.so.2 -->
<g id="node6" class="node">
<title>libipt.so.2</title>
<polygon fill="none" stroke="black" points="491.62,-324 404.38,-324 404.38,-288 491.62,-288 491.62,-324"/>
<text text-anchor="middle" x="448" y="-301.32" font-family="Times,serif" font-size="14.00">libipt.so.2</text>
</g>
<!-- gdb&#45;&gt;libipt.so.2 -->
<g id="edge5" class="edge">
<title>gdb&#45;&gt;libipt.so.2</title>
<path fill="none" stroke="black" d="M558.74,-363.17C539.73,-353.53 513.96,-340.46 492.06,-329.35"/>
<polygon fill="black" stroke="black" points="493.81,-325.81 483.31,-324.4 490.65,-332.05 493.81,-325.81"/>
</g>
<!-- libmpfr.so.6 -->
<g id="node7" class="node">
<title>libmpfr.so.6</title>
<polygon fill="none" stroke="black" points="781.38,-324 680.62,-324 680.62,-288 781.38,-288 781.38,-324"/>
<text text-anchor="middle" x="731" y="-301.32" font-family="Times,serif" font-size="14.00">libmpfr.so.6</text>
</g>
<!-- gdb&#45;&gt;libmpfr.so.6 -->
<g id="edge6" class="edge">
<title>gdb&#45;&gt;libmpfr.so.6</title>
<path fill="none" stroke="black" d="M613.27,-363.83C633.44,-354.1 661.39,-340.6 684.99,-329.21"/>
<polygon fill="black" stroke="black" points="686.33,-331.97 693.81,-324.47 683.28,-325.67 686.33,-331.97"/>
</g>
<!-- libncursesw.so.6 -->
<g id="node8" class="node">
<title>libncursesw.so.6</title>
<polygon fill="none" stroke="black" points="1011.88,-252 878.12,-252 878.12,-216 1011.88,-216 1011.88,-252"/>
<text text-anchor="middle" x="945" y="-229.32" font-family="Times,serif" font-size="14.00">libncursesw.so.6</text>
</g>
<!-- gdb&#45;&gt;libncursesw.so.6 -->
<g id="edge7" class="edge">
<title>gdb&#45;&gt;libncursesw.so.6</title>
<path fill="none" stroke="black" d="M613.24,-377.65C693.29,-378.91 925.1,-377.78 972,-324 987.23,-306.54 976.9,-280.68 964.88,-261.33"/>
<polygon fill="black" stroke="black" points="967.4,-259.81 958.95,-253.42 961.58,-263.69 967.4,-259.81"/>
</g>
<!-- libpython3.9.so.1.0 -->
<g id="node9" class="node">
<title>libpython3.9.so.1.0</title>
<polygon fill="none" stroke="black" points="662.62,-324 509.38,-324 509.38,-288 662.62,-288 662.62,-324"/>
<text text-anchor="middle" x="586" y="-301.32" font-family="Times,serif" font-size="14.00">libpython3.9.so.1.0</text>
</g>
<!-- gdb&#45;&gt;libpython3.9.so.1.0 -->
<g id="edge8" class="edge">
<title>gdb&#45;&gt;libpython3.9.so.1.0</title>
<path fill="none" stroke="black" d="M586,-359.7C586,-352.24 586,-343.32 586,-334.97"/>
<polygon fill="black" stroke="black" points="589.5,-335.1 586,-325.1 582.5,-335.1 589.5,-335.1"/>
</g>
<!-- libreadline.so.8 -->
<g id="node10" class="node">
<title>libreadline.so.8</title>
<polygon fill="none" stroke="black" points="963.12,-324 836.88,-324 836.88,-288 963.12,-288 963.12,-324"/>
<text text-anchor="middle" x="900" y="-301.32" font-family="Times,serif" font-size="14.00">libreadline.so.8</text>
</g>
<!-- gdb&#45;&gt;libreadline.so.8 -->
<g id="edge9" class="edge">
<title>gdb&#45;&gt;libreadline.so.8</title>
<path fill="none" stroke="black" d="M613.32,-370.91C660.27,-360.44 757.79,-338.7 825.99,-323.5"/>
<polygon fill="black" stroke="black" points="826.67,-326.71 835.67,-321.12 825.15,-319.88 826.67,-326.71"/>
</g>
<!-- libsource&#45;highlight.so.4 -->
<g id="node11" class="node">
<title>libsource&#45;highlight.so.4</title>
<polygon fill="none" stroke="black" points="184,-324 0,-324 0,-288 184,-288 184,-324"/>
<text text-anchor="middle" x="92" y="-301.32" font-family="Times,serif" font-size="14.00">libsource&#45;highlight.so.4</text>
</g>
<!-- gdb&#45;&gt;libsource&#45;highlight.so.4 -->
<g id="edge10" class="edge">
<title>gdb&#45;&gt;libsource&#45;highlight.so.4</title>
<path fill="none" stroke="black" d="M558.69,-373.49C495.27,-365.3 333.17,-344.07 198,-324 197.03,-323.86 196.06,-323.71 195.08,-323.57"/>
<polygon fill="black" stroke="black" points="195.89,-320 185.48,-321.96 194.84,-326.92 195.89,-320"/>
</g>
<!-- libz.so.1 -->
<g id="node12" class="node">
<title>libz.so.1</title>
<polygon fill="none" stroke="black" points="1094.62,-324 1019.38,-324 1019.38,-288 1094.62,-288 1094.62,-324"/>
<text text-anchor="middle" x="1057" y="-301.32" font-family="Times,serif" font-size="14.00">libz.so.1</text>
</g>
<!-- gdb&#45;&gt;libz.so.1 -->
<g id="edge11" class="edge">
<title>gdb&#45;&gt;libz.so.1</title>
<path fill="none" stroke="black" d="M613.27,-375.35C680.52,-370.9 859.41,-356.69 1005,-324 1006.14,-323.75 1007.28,-323.48 1008.43,-323.19"/>
<polygon fill="black" stroke="black" points="1009.15,-326.36 1017.89,-320.37 1007.33,-319.6 1009.15,-326.36"/>
</g>
<!-- libicudata.so.71 -->
<g id="node13" class="node">
<title>libicudata.so.71</title>
<polygon fill="none" stroke="black" points="217.62,-36 88.38,-36 88.38,0 217.62,0 217.62,-36"/>
<text text-anchor="middle" x="153" y="-13.32" font-family="Times,serif" font-size="14.00">libicudata.so.71</text>
</g>
<!-- libboost_regex.so.1.77.0&#45;&gt;libicudata.so.71 -->
<g id="edge12" class="edge">
<title>libboost_regex.so.1.77.0&#45;&gt;libicudata.so.71</title>
<path fill="none" stroke="black" d="M143.22,-215.56C129.19,-206.98 114.8,-195.18 107,-180 84.15,-135.52 112.78,-78.12 134.02,-45.25"/>
<polygon fill="black" stroke="black" points="137.38,-47.53 140.04,-37.27 131.56,-43.63 137.38,-47.53"/>
</g>
<!-- libicui18n.so.71 -->
<g id="node14" class="node">
<title>libicui18n.so.71</title>
<polygon fill="none" stroke="black" points="245.62,-180 116.38,-180 116.38,-144 245.62,-144 245.62,-180"/>
<text text-anchor="middle" x="181" y="-157.32" font-family="Times,serif" font-size="14.00">libicui18n.so.71</text>
</g>
<!-- libboost_regex.so.1.77.0&#45;&gt;libicui18n.so.71 -->
<g id="edge13" class="edge">
<title>libboost_regex.so.1.77.0&#45;&gt;libicui18n.so.71</title>
<path fill="none" stroke="black" d="M181,-215.7C181,-208.24 181,-199.32 181,-190.97"/>
<polygon fill="black" stroke="black" points="184.5,-191.1 181,-181.1 177.5,-191.1 184.5,-191.1"/>
</g>
<!-- libicuuc.so.71 -->
<g id="node15" class="node">
<title>libicuuc.so.71</title>
<polygon fill="none" stroke="black" points="295.12,-108 180.88,-108 180.88,-72 295.12,-72 295.12,-108"/>
<text text-anchor="middle" x="238" y="-85.33" font-family="Times,serif" font-size="14.00">libicuuc.so.71</text>
</g>
<!-- libboost_regex.so.1.77.0&#45;&gt;libicuuc.so.71 -->
<g id="edge14" class="edge">
<title>libboost_regex.so.1.77.0&#45;&gt;libicuuc.so.71</title>
<path fill="none" stroke="black" d="M218.78,-215.56C232.81,-206.98 247.2,-195.18 255,-180 264.86,-160.82 259.28,-136.66 251.97,-118.35"/>
<polygon fill="black" stroke="black" points="254.8,-117.08 247.58,-109.33 248.39,-119.89 254.8,-117.08"/>
</g>
<!-- libmpfr.so.6&#45;&gt;libgmp.so.10 -->
<g id="edge18" class="edge">
<title>libmpfr.so.6&#45;&gt;libgmp.so.10</title>
<path fill="none" stroke="black" d="M740.15,-287.7C744.27,-279.9 749.23,-270.51 753.82,-261.83"/>
<polygon fill="black" stroke="black" points="757.38,-263.58 758.96,-253.1 751.19,-260.31 757.38,-263.58"/>
</g>
<!-- libpython3.9.so.1.0&#45;&gt;libcrypt.so.1 -->
<g id="edge19" class="edge">
<title>libpython3.9.so.1.0&#45;&gt;libcrypt.so.1</title>
<path fill="none" stroke="black" d="M541.04,-287.52C516.68,-278.04 486.39,-266.26 460.67,-256.26"/>
<polygon fill="black" stroke="black" points="462.28,-252.74 451.7,-252.38 459.75,-259.27 462.28,-252.74"/>
</g>
<!-- libreadline.so.8&#45;&gt;libncursesw.so.6 -->
<g id="edge20" class="edge">
<title>libreadline.so.8&#45;&gt;libncursesw.so.6</title>
<path fill="none" stroke="black" d="M911.12,-287.7C916.25,-279.73 922.44,-270.1 928.12,-261.26"/>
<polygon fill="black" stroke="black" points="931.54,-263.41 934,-253.1 925.65,-259.62 931.54,-263.41"/>
</g>
<!-- libsource&#45;highlight.so.4&#45;&gt;libboost_regex.so.1.77.0 -->
<g id="edge21" class="edge">
<title>libsource&#45;highlight.so.4&#45;&gt;libboost_regex.so.1.77.0</title>
<path fill="none" stroke="black" d="M114,-287.7C125.02,-279.03 138.53,-268.4 150.53,-258.96"/>
<polygon fill="black" stroke="black" points="152.25,-261.28 157.94,-252.35 147.92,-255.78 152.25,-261.28"/>
</g>
<!-- libicui18n.so.71&#45;&gt;libicudata.so.71 -->
<g id="edge15" class="edge">
<title>libicui18n.so.71&#45;&gt;libicudata.so.71</title>
<path fill="none" stroke="black" d="M177.57,-143.59C172.8,-119.4 164.11,-75.36 158.45,-46.65"/>
<polygon fill="black" stroke="black" points="161.74,-46.24 156.37,-37.11 154.87,-47.6 161.74,-46.24"/>
</g>
<!-- libicui18n.so.71&#45;&gt;libicuuc.so.71 -->
<g id="edge16" class="edge">
<title>libicui18n.so.71&#45;&gt;libicuuc.so.71</title>
<path fill="none" stroke="black" d="M195.09,-143.7C201.79,-135.47 209.92,-125.48 217.3,-116.42"/>
<polygon fill="black" stroke="black" points="220.47,-119.07 224.07,-109.1 215.04,-114.65 220.47,-119.07"/>
</g>
<!-- libicuuc.so.71&#45;&gt;libicudata.so.71 -->
<g id="edge17" class="edge">
<title>libicuuc.so.71&#45;&gt;libicudata.so.71</title>
<path fill="none" stroke="black" d="M216.99,-71.7C206.57,-63.11 193.81,-52.61 182.43,-43.24"/>
<polygon fill="black" stroke="black" points="185.01,-40 175.06,-36.35 180.56,-45.41 185.01,-40"/>
</g>
</g>
</svg>
