<?xml version="1.0" encoding="UTF-8" standalone="no"?>
<!DOCTYPE svg PUBLIC "-//W3C//DTD SVG 1.1//EN"
 "http://www.w3.org/Graphics/SVG/1.1/DTD/svg11.dtd">
<!-- Generated by graphviz version 7.1.0 (0)
 -->
<!-- Pages: 1 -->
<svg width="859pt" height="118pt"
 viewBox="0.00 0.00 859.00 118.00" xmlns="http://www.w3.org/2000/svg" xmlns:xlink="http://www.w3.org/1999/xlink">
<g id="graph0" class="graph" transform="scale(1 1) rotate(0) translate(4 114)">
<polygon fill="white" stroke="none" points="-4,4 -4,-114 855,-114 855,4 -4,4"/>
<!-- strip&#45;2.38 -->
<g id="node1" class="node">
<title>strip&#45;2.38</title>
<polygon fill="none" stroke="black" points="8.5,-73.5 8.5,-109.5 94.5,-109.5 94.5,-73.5 8.5,-73.5"/>
<text text-anchor="middle" x="51.5" y="-87.8" font-family="Times,serif" font-size="14.00">strip&#45;2.38</text>
</g>
<!-- .../binutils/.../2.38/libbfd&#45;2.38&#45;64&#45;bit.so -->
<g id="node2" class="node">
<title>.../binutils/.../2.38/libbfd&#45;2.38&#45;64&#45;bit.so</title>
<polygon fill="none" stroke="black" points="0,-0.5 0,-36.5 291,-36.5 291,-0.5 0,-0.5"/>
<text text-anchor="middle" x="145.5" y="-14.8" font-family="Times,serif" font-size="14.00">.../binutils/.../2.38/libbfd&#45;2.38&#45;64&#45;bit.so</text>
</g>
<!-- strip&#45;2.38&#45;&gt;.../binutils/.../2.38/libbfd&#45;2.38&#45;64&#45;bit.so -->
<g id="edge1" class="edge">
<title>strip&#45;2.38&#45;&gt;.../binutils/.../2.38/libbfd&#45;2.38&#45;64&#45;bit.so</title>
<path fill="none" stroke="black" d="M73.78,-73.67C85.86,-64.54 101,-53.11 114.25,-43.11"/>
<polygon fill="black" stroke="black" points="115.98,-46.18 121.85,-37.36 111.76,-40.6 115.98,-46.18"/>
</g>
<!-- ld&#45;2.38 -->
<g id="node3" class="node">
<title>ld&#45;2.38</title>
<polygon fill="none" stroke="black" points="112.5,-73.5 112.5,-109.5 178.5,-109.5 178.5,-73.5 112.5,-73.5"/>
<text text-anchor="middle" x="145.5" y="-87.8" font-family="Times,serif" font-size="14.00">ld&#45;2.38</text>
</g>
<!-- ld&#45;2.38&#45;&gt;.../binutils/.../2.38/libbfd&#45;2.38&#45;64&#45;bit.so -->
<g id="edge2" class="edge">
<title>ld&#45;2.38&#45;&gt;.../binutils/.../2.38/libbfd&#45;2.38&#45;64&#45;bit.so</title>
<path fill="none" stroke="black" d="M145.5,-73.67C145.5,-65.89 145.5,-56.44 145.5,-47.62"/>
<polygon fill="black" stroke="black" points="149,-47.72 145.5,-37.72 142,-47.72 149,-47.72"/>
</g>
<!-- ... -->
<g id="node4" class="node">
<title>...</title>
<polygon fill="none" stroke="black" points="196.5,-73.5 196.5,-109.5 250.5,-109.5 250.5,-73.5 196.5,-73.5"/>
<text text-anchor="middle" x="223.5" y="-87.8" font-family="Times,serif" font-size="14.00">...</text>
</g>
<!-- ...&#45;&gt;.../binutils/.../2.38/libbfd&#45;2.38&#45;64&#45;bit.so -->
<g id="edge3" class="edge">
<title>...&#45;&gt;.../binutils/.../2.38/libbfd&#45;2.38&#45;64&#45;bit.so</title>
<path fill="none" stroke="black" d="M205.02,-73.67C195.28,-64.81 183.15,-53.77 172.39,-43.97"/>
<polygon fill="black" stroke="black" points="174.99,-41.61 165.24,-37.47 170.28,-46.79 174.99,-41.61"/>
</g>
<!-- ld&#45;2.37 -->
<g id="node5" class="node">
<title>ld&#45;2.37</title>
<polygon fill="none" stroke="black" points="382.5,-73.5 382.5,-109.5 448.5,-109.5 448.5,-73.5 382.5,-73.5"/>
<text text-anchor="middle" x="415.5" y="-87.8" font-family="Times,serif" font-size="14.00">ld&#45;2.37</text>
</g>
<!-- .../binutils/.../2.37/libbfd&#45;2.37&#45;64&#45;bit.so -->
<g id="node6" class="node">
<title>.../binutils/.../2.37/libbfd&#45;2.37&#45;64&#45;bit.so</title>
<polygon fill="none" stroke="black" points="309,-0.5 309,-36.5 600,-36.5 600,-0.5 309,-0.5"/>
<text text-anchor="middle" x="454.5" y="-14.8" font-family="Times,serif" font-size="14.00">.../binutils/.../2.37/libbfd&#45;2.37&#45;64&#45;bit.so</text>
</g>
<!-- ld&#45;2.37&#45;&gt;.../binutils/.../2.37/libbfd&#45;2.37&#45;64&#45;bit.so -->
<g id="edge4" class="edge">
<title>ld&#45;2.37&#45;&gt;.../binutils/.../2.37/libbfd&#45;2.37&#45;64&#45;bit.so</title>
<path fill="none" stroke="black" d="M424.74,-73.67C429.26,-65.45 434.8,-55.36 439.88,-46.12"/>
<polygon fill="black" stroke="black" points="442.85,-47.98 444.6,-37.53 436.71,-44.61 442.85,-47.98"/>
</g>
<!-- ...  -->
<g id="node7" class="node">
<title>... </title>
<polygon fill="none" stroke="black" points="466.5,-73.5 466.5,-109.5 520.5,-109.5 520.5,-73.5 466.5,-73.5"/>
<text text-anchor="middle" x="493.5" y="-87.8" font-family="Times,serif" font-size="14.00">... </text>
</g>
<!-- ... &#45;&gt;.../binutils/.../2.37/libbfd&#45;2.37&#45;64&#45;bit.so -->
<g id="edge5" class="edge">
<title>... &#45;&gt;.../binutils/.../2.37/libbfd&#45;2.37&#45;64&#45;bit.so</title>
<path fill="none" stroke="black" d="M484.26,-73.67C479.74,-65.45 474.2,-55.36 469.12,-46.12"/>
<polygon fill="black" stroke="black" points="472.29,-44.61 464.4,-37.53 466.15,-47.98 472.29,-44.61"/>
</g>
<!-- perf -->
<g id="node8" class="node">
<title>perf</title>
<polygon fill="none" stroke="black" points="635.5,-73.5 635.5,-109.5 689.5,-109.5 689.5,-73.5 635.5,-73.5"/>
<text text-anchor="middle" x="662.5" y="-87.8" font-family="Times,serif" font-size="14.00">perf</text>
</g>
<!-- /usr/lib64/libbfd&#45;2.38&#45;32&#45;bit.so -->
<g id="node9" class="node">
<title>/usr/lib64/libbfd&#45;2.38&#45;32&#45;bit.so</title>
<polygon fill="none" stroke="black" points="618,-0.5 618,-36.5 851,-36.5 851,-0.5 618,-0.5"/>
<text text-anchor="middle" x="734.5" y="-14.8" font-family="Times,serif" font-size="14.00">/usr/lib64/libbfd&#45;2.38&#45;32&#45;bit.so</text>
</g>
<!-- perf&#45;&gt;/usr/lib64/libbfd&#45;2.38&#45;32&#45;bit.so -->
<g id="edge6" class="edge">
<title>perf&#45;&gt;/usr/lib64/libbfd&#45;2.38&#45;32&#45;bit.so</title>
<path fill="none" stroke="black" d="M679.56,-73.67C688.53,-64.83 699.69,-53.83 709.6,-44.05"/>
<polygon fill="black" stroke="black" points="711.82,-46.78 716.48,-37.27 706.9,-41.8 711.82,-46.78"/>
</g>
<!-- ghc -->
<g id="node10" class="node">
<title>ghc</title>
<polygon fill="none" stroke="black" points="707.5,-73.5 707.5,-109.5 761.5,-109.5 761.5,-73.5 707.5,-73.5"/>
<text text-anchor="middle" x="734.5" y="-87.8" font-family="Times,serif" font-size="14.00">ghc</text>
</g>
<!-- ghc&#45;&gt;/usr/lib64/libbfd&#45;2.38&#45;32&#45;bit.so -->
<g id="edge7" class="edge">
<title>ghc&#45;&gt;/usr/lib64/libbfd&#45;2.38&#45;32&#45;bit.so</title>
<path fill="none" stroke="black" d="M734.5,-73.67C734.5,-65.89 734.5,-56.44 734.5,-47.62"/>
<polygon fill="black" stroke="black" points="738,-47.72 734.5,-37.72 731,-47.72 738,-47.72"/>
</g>
<!-- ... &#160; -->
<g id="node11" class="node">
<title>... &#160;</title>
<polygon fill="none" stroke="black" points="779.5,-73.5 779.5,-109.5 833.5,-109.5 833.5,-73.5 779.5,-73.5"/>
<text text-anchor="middle" x="806.5" y="-87.8" font-family="Times,serif" font-size="14.00">... &#160;</text>
</g>
<!-- ... &#160;&#45;&gt;/usr/lib64/libbfd&#45;2.38&#45;32&#45;bit.so -->
<g id="edge8" class="edge">
<title>... &#160;&#45;&gt;/usr/lib64/libbfd&#45;2.38&#45;32&#45;bit.so</title>
<path fill="none" stroke="black" d="M789.44,-73.67C780.47,-64.83 769.31,-53.83 759.4,-44.05"/>
<polygon fill="black" stroke="black" points="762.1,-41.8 752.52,-37.27 757.18,-46.78 762.1,-41.8"/>
</g>
</g>
</svg>
