<?xml version="1.0" encoding="UTF-8" standalone="no"?>
<!DOCTYPE svg PUBLIC "-//W3C//DTD SVG 1.1//EN"
 "http://www.w3.org/Graphics/SVG/1.1/DTD/svg11.dtd">
<!-- Generated by graphviz version 9.0.0 (0)
 -->
<!-- Pages: 1 -->
<svg width="1103pt" height="404pt"
 viewBox="0.00 0.00 1102.62 404.00" xmlns="http://www.w3.org/2000/svg" xmlns:xlink="http://www.w3.org/1999/xlink">
<g id="graph0" class="graph" transform="scale(1 1) rotate(0) translate(4 400)">
<polygon fill="white" stroke="none" points="-4,4 -4,-400 1098.62,-400 1098.62,4 -4,4"/>
<!-- gdb -->
<g id="node1" class="node">
<title>gdb</title>
<polygon fill="none" stroke="black" points="613,-396 559,-396 559,-360 613,-360 613,-396"/>
<text text-anchor="middle" x="586" y="-373.32" font-family="Times,serif" font-size="14.00">gdb</text>
</g>
<!-- libboost_regex.so.1.77.0 -->
<g id="node2" class="node">
<title>libboost_regex.so.1.77.0</title>
<polygon fill="none" stroke="black" points="276,-252 86,-252 86,-216 276,-216 276,-252"/>
<text text-anchor="middle" x="181" y="-229.32" font-family="Times,serif" font-size="14.00">libboost_regex.so.1.77.0</text>
</g>
<!-- gdb&#45;&gt;libboost_regex.so.1.77.0 -->
<g id="edge1" class="edge">
<title>gdb&#45;&gt;libboost_regex.so.1.77.0</title>
<path fill="none" stroke="black" d="M558.6,-375.98C484.88,-372.75 284.29,-360.74 231,-324 210.04,-309.55 196.87,-283.31 189.33,-263.05"/>
<polygon fill="black" stroke="black" points="192.67,-261.99 186.11,-253.66 186.05,-264.26 192.67,-261.99"/>
</g>
<!-- libcrypt.so.1 -->
<g id="node3" class="node">
<title>libcrypt.so.1</title>
<polygon fill="none" stroke="black" points="458.62,-252 353.38,-252 353.38,-216 458.62,-216 458.62,-252"/>
<text text-anchor="middle" x="406" y="-229.32" font-family="Times,serif" font-size="14.00">libcrypt.so.1</text>
</g>
<!-- gdb&#45;&gt;libcrypt.so.1 -->
<g id="edge2" class="edge">
<title>gdb&#45;&gt;libcrypt.so.1</title>
<path fill="none" stroke="black" d="M558.78,-373.49C510.92,-366.7 414.84,-350.09 395,-324 381.85,-306.7 386.31,-281.8 393.09,-262.74"/>
<polygon fill="black" stroke="black" points="396.24,-264.28 396.67,-253.69 389.73,-261.7 396.24,-264.28"/>
</g>
<!-- libexpat.so.1 -->
<g id="node4" class="node">
<title>libexpat.so.1</title>
<polygon fill="none" stroke="black" points="347.75,-324 240.25,-324 240.25,-288 347.75,-288 347.75,-324"/>
<text text-anchor="middle" x="294" y="-301.32" font-family="Times,serif" font-size="14.00">libexpat.so.1</text>
</g>
<!-- gdb&#45;&gt;libexpat.so.1 -->
<g id="edge3" class="edge">
<title>gdb&#45;&gt;libexpat.so.1</title>
<path fill="none" stroke="black" d="M558.73,-370.67C516.53,-360.84 432.86,-341.24 362,-324 361.02,-323.76 360.03,-323.52 359.03,-323.28"/>
<polygon fill="black" stroke="black" points="360.19,-319.96 349.65,-320.97 358.52,-326.76 360.19,-319.96"/>
</g>
<!-- libgmp.so.10 -->
<g id="node5" class="node">
<title>libgmp.so.10</title>
<polygon fill="none" stroke="black" points="822.12,-252 713.88,-252 713.88,-216 822.12,-216 822.12,-252"/>
<text text-anchor="middle" x="768" y="-229.32" font-family="Times,serif" font-size="14.00">libgmp.so.10</text>
</g>
<!-- gdb&#45;&gt;libgmp.so.10 -->
<g id="edge4" class="edge">
<title>gdb&#45;&gt;libgmp.so.10</title>
<path fill="none" stroke="black" d="M613.45,-373.98C663.96,-367.79 768.45,-351.86 790,-324 803.72,-306.26 795.67,-281.08 785.66,-262.03"/>
<polygon fill="black" stroke="black" points="788.77,-260.43 780.78,-253.48 782.7,-263.9 788.77,-260.43"/>
</g>
<!-- libipt.so.2 -->
<g id="node6" class="node">
<title>libipt.so.2</title>
<polygon fill="none" stroke="black" points="491.62,-324 404.38,-324 404.38,-288 491.62,-288 491.62,-324"/>
<text text-anchor="middle" x="448" y="-301.32" font-family="Times,serif" font-size="14.00">libipt.so.2</text>
</g>
<!-- gdb&#45;&gt;libipt.so.2 -->
<g id="edge5" class="edge">
<title>gdb&#45;&gt;libipt.so.2</title>
<path fill="none" stroke="black" d="M558.74,-363.17C539.82,-353.57 514.19,-340.58 492.36,-329.5"/>
<polygon fill="black" stroke="black" points="494.16,-326.49 483.66,-325.09 491,-332.73 494.16,-326.49"/>
</g>
<!-- libmpfr.so.6 -->
<g id="node7" class="node">
<title>libmpfr.so.6</title>
<polygon fill="none" stroke="black" points="781.38,-324 680.62,-324 680.62,-288 781.38,-288 781.38,-324"/>
<text text-anchor="middle" x="731" y="-301.32" font-family="Times,serif" font-size="14.00">libmpfr.so.6</text>
</g>
<!-- gdb&#45;&gt;libmpfr.so.6 -->
<g id="edge6" class="edge">
<title>gdb&#45;&gt;libmpfr.so.6</title>
<path fill="none" stroke="black" d="M613.27,-363.83C633.35,-354.14 661.14,-340.72 684.68,-329.36"/>
<polygon fill="black" stroke="black" points="685.96,-332.63 693.45,-325.13 682.92,-326.33 685.96,-332.63"/>
</g>
<!-- libncursesw.so.6 -->
<g id="node8" class="node">
<title>libncursesw.so.6</title>
<polygon fill="none" stroke="black" points="1011.88,-252 878.12,-252 878.12,-216 1011.88,-216 1011.88,-252"/>
<text text-anchor="middle" x="945" y="-229.32" font-family="Times,serif" font-size="14.00">libncursesw.so.6</text>
</g>
<!-- gdb&#45;&gt;libncursesw.so.6 -->
<g id="edge7" class="edge">
<title>gdb&#45;&gt;libncursesw.so.6</title>
<path fill="none" stroke="black" d="M613.24,-377.65C693.29,-378.91 925.1,-377.78 972,-324 987.09,-306.69 977.08,-281.15 965.21,-261.86"/>
<polygon fill="black" stroke="black" points="968.23,-260.08 959.78,-253.68 962.39,-263.95 968.23,-260.08"/>
</g>
<!-- libpython3.9.so.1.0 -->
<g id="node9" class="node">
<title>libpython3.9.so.1.0</title>
<polygon fill="none" stroke="black" points="662.62,-324 509.38,-324 509.38,-288 662.62,-288 662.62,-324"/>
<text text-anchor="middle" x="586" y="-301.32" font-family="Times,serif" font-size="14.00">libpython3.9.so.1.0</text>
</g>
<!-- gdb&#45;&gt;libpython3.9.so.1.0 -->
<g id="edge8" class="edge">
<title>gdb&#45;&gt;libpython3.9.so.1.0</title>
<path fill="none" stroke="black" d="M586,-359.7C586,-352.41 586,-343.73 586,-335.54"/>
<polygon fill="black" stroke="black" points="589.5,-335.62 586,-325.62 582.5,-335.62 589.5,-335.62"/>
</g>
<!-- libreadline.so.8 -->
<g id="node10" class="node">
<title>libreadline.so.8</title>
<polygon fill="none" stroke="black" points="963.12,-324 836.88,-324 836.88,-288 963.12,-288 963.12,-324"/>
<text text-anchor="middle" x="900" y="-301.32" font-family="Times,serif" font-size="14.00">libreadline.so.8</text>
</g>
<!-- gdb&#45;&gt;libreadline.so.8 -->
<g id="edge9" class="edge">
<title>gdb&#45;&gt;libreadline.so.8</title>
<path fill="none" stroke="black" d="M613.32,-370.91C660.17,-360.47 757.39,-338.79 825.57,-323.59"/>
<polygon fill="black" stroke="black" points="826.2,-327.04 835.2,-321.45 824.67,-320.21 826.2,-327.04"/>
</g>
<!-- libsource&#45;highlight.so.4 -->
<g id="node11" class="node">
<title>libsource&#45;highlight.so.4</title>
<polygon fill="none" stroke="black" points="184,-324 0,-324 0,-288 184,-288 184,-324"/>
<text text-anchor="middle" x="92" y="-301.32" font-family="Times,serif" font-size="14.00">libsource&#45;highlight.so.4</text>
</g>
<!-- gdb&#45;&gt;libsource&#45;highlight.so.4 -->
<g id="edge10" class="edge">
<title>gdb&#45;&gt;libsource&#45;highlight.so.4</title>
<path fill="none" stroke="black" d="M558.69,-373.49C495.27,-365.3 333.17,-344.07 198,-324 197.17,-323.88 196.34,-323.75 195.5,-323.63"/>
<polygon fill="black" stroke="black" points="196.39,-320.22 185.97,-322.19 195.34,-327.14 196.39,-320.22"/>
</g>
<!-- libz.so.1 -->
<g id="node12" class="node">
<title>libz.so.1</title>
<polygon fill="none" stroke="black" points="1094.62,-324 1019.38,-324 1019.38,-288 1094.62,-288 1094.62,-324"/>
<text text-anchor="middle" x="1057" y="-301.32" font-family="Times,serif" font-size="14.00">libz.so.1</text>
</g>
<!-- gdb&#45;&gt;libz.so.1 -->
<g id="edge11" class="edge">
<title>gdb&#45;&gt;libz.so.1</title>
<path fill="none" stroke="black" d="M613.27,-375.35C680.52,-370.9 859.41,-356.69 1005,-324 1005.99,-323.78 1006.99,-323.54 1008,-323.3"/>
<polygon fill="black" stroke="black" points="1008.68,-326.74 1017.43,-320.76 1006.87,-319.98 1008.68,-326.74"/>
</g>
<!-- libicudata.so.71 -->
<g id="node13" class="node">
<title>libicudata.so.71</title>
<polygon fill="none" stroke="black" points="217.62,-36 88.38,-36 88.38,0 217.62,0 217.62,-36"/>
<text text-anchor="middle" x="153" y="-13.32" font-family="Times,serif" font-size="14.00">libicudata.so.71</text>
</g>
<!-- libboost_regex.so.1.77.0&#45;&gt;libicudata.so.71 -->
<g id="edge12" class="edge">
<title>libboost_regex.so.1.77.0&#45;&gt;libicudata.so.71</title>
<path fill="none" stroke="black" d="M143.22,-215.56C129.19,-206.98 114.8,-195.18 107,-180 84.24,-135.71 112.53,-78.62 133.74,-45.68"/>
<polygon fill="black" stroke="black" points="136.54,-47.79 139.2,-37.53 130.73,-43.89 136.54,-47.79"/>
</g>
<!-- libicui18n.so.71 -->
<g id="node14" class="node">
<title>libicui18n.so.71</title>
<polygon fill="none" stroke="black" points="245.62,-180 116.38,-180 116.38,-144 245.62,-144 245.62,-180"/>
<text text-anchor="middle" x="181" y="-157.32" font-family="Times,serif" font-size="14.00">libicui18n.so.71</text>
</g>
<!-- libboost_regex.so.1.77.0&#45;&gt;libicui18n.so.71 -->
<g id="edge13" class="edge">
<title>libboost_regex.so.1.77.0&#45;&gt;libicui18n.so.71</title>
<path fill="none" stroke="black" d="M181,-215.7C181,-208.41 181,-199.73 181,-191.54"/>
<polygon fill="black" stroke="black" points="184.5,-191.62 181,-181.62 177.5,-191.62 184.5,-191.62"/>
</g>
<!-- libicuuc.so.71 -->
<g id="node15" class="node">
<title>libicuuc.so.71</title>
<polygon fill="none" stroke="black" points="295.12,-108 180.88,-108 180.88,-72 295.12,-72 295.12,-108"/>
<text text-anchor="middle" x="238" y="-85.33" font-family="Times,serif" font-size="14.00">libicuuc.so.71</text>
</g>
<!-- libboost_regex.so.1.77.0&#45;&gt;libicuuc.so.71 -->
<g id="edge14" class="edge">
<title>libboost_regex.so.1.77.0&#45;&gt;libicuuc.so.71</title>
<path fill="none" stroke="black" d="M218.78,-215.56C232.81,-206.98 247.2,-195.18 255,-180 264.76,-161 259.38,-137.11 252.18,-118.87"/>
<polygon fill="black" stroke="black" points="255.39,-117.48 248.18,-109.72 248.98,-120.28 255.39,-117.48"/>
</g>
<!-- libmpfr.so.6&#45;&gt;libgmp.so.10 -->
<g id="edge18" class="edge">
<title>libmpfr.so.6&#45;&gt;libgmp.so.10</title>
<path fill="none" stroke="black" d="M740.15,-287.7C744.22,-279.98 749.12,-270.71 753.67,-262.11"/>
<polygon fill="black" stroke="black" points="756.67,-263.92 758.25,-253.44 750.48,-260.65 756.67,-263.92"/>
</g>
<!-- libpython3.9.so.1.0&#45;&gt;libcrypt.so.1 -->
<g id="edge19" class="edge">
<title>libpython3.9.so.1.0&#45;&gt;libcrypt.so.1</title>
<path fill="none" stroke="black" d="M541.04,-287.52C516.9,-278.13 486.92,-266.47 461.35,-256.53"/>
<polygon fill="black" stroke="black" points="462.7,-253.29 452.11,-252.93 460.16,-259.82 462.7,-253.29"/>
</g>
<!-- libreadline.so.8&#45;&gt;libncursesw.so.6 -->
<g id="edge20" class="edge">
<title>libreadline.so.8&#45;&gt;libncursesw.so.6</title>
<path fill="none" stroke="black" d="M911.12,-287.7C916.19,-279.81 922.3,-270.3 927.93,-261.55"/>
<polygon fill="black" stroke="black" points="930.72,-263.68 933.19,-253.38 924.83,-259.9 930.72,-263.68"/>
</g>
<!-- libsource&#45;highlight.so.4&#45;&gt;libboost_regex.so.1.77.0 -->
<g id="edge21" class="edge">
<title>libsource&#45;highlight.so.4&#45;&gt;libboost_regex.so.1.77.0</title>
<path fill="none" stroke="black" d="M114,-287.7C124.91,-279.11 138.27,-268.61 150.18,-259.24"/>
<polygon fill="black" stroke="black" points="152.06,-262.22 157.75,-253.28 147.73,-256.71 152.06,-262.22"/>
</g>
<!-- libicui18n.so.71&#45;&gt;libicudata.so.71 -->
<g id="edge15" class="edge">
<title>libicui18n.so.71&#45;&gt;libicudata.so.71</title>
<path fill="none" stroke="black" d="M177.57,-143.59C172.82,-119.5 164.19,-75.75 158.53,-47.03"/>
<polygon fill="black" stroke="black" points="162.04,-46.73 156.67,-37.6 155.17,-48.08 162.04,-46.73"/>
</g>
<!-- libicui18n.so.71&#45;&gt;libicuuc.so.71 -->
<g id="edge16" class="edge">
<title>libicui18n.so.71&#45;&gt;libicuuc.so.71</title>
<path fill="none" stroke="black" d="M195.09,-143.7C201.65,-135.64 209.59,-125.89 216.84,-116.98"/>
<polygon fill="black" stroke="black" points="219.52,-119.24 223.12,-109.28 214.09,-114.82 219.52,-119.24"/>
</g>
<!-- libicuuc.so.71&#45;&gt;libicudata.so.71 -->
<g id="edge17" class="edge">
<title>libicuuc.so.71&#45;&gt;libicudata.so.71</title>
<path fill="none" stroke="black" d="M216.99,-71.7C206.67,-63.2 194.06,-52.81 182.77,-43.51"/>
<polygon fill="black" stroke="black" points="185.18,-40.96 175.23,-37.31 180.73,-46.37 185.18,-40.96"/>
</g>
</g>
</svg>
