<?xml version="1.0" encoding="UTF-8" standalone="no"?>
<!DOCTYPE svg PUBLIC "-//W3C//DTD SVG 1.1//EN"
 "http://www.w3.org/Graphics/SVG/1.1/DTD/svg11.dtd">
<!-- Generated by graphviz version 8.1.0 (0)
 -->
<!-- Pages: 1 -->
<svg width="314pt" height="191pt"
 viewBox="0.00 0.00 313.50 191.00" xmlns="http://www.w3.org/2000/svg" xmlns:xlink="http://www.w3.org/1999/xlink">
<g id="graph0" class="graph" transform="scale(1 1) rotate(0) translate(4 187)">
<polygon fill="white" stroke="none" points="-4,4 -4,-187 309.5,-187 309.5,4 -4,4"/>
<!-- qtwebengine -->
<g id="node1" class="node">
<title>qtwebengine</title>
<polygon fill="none" stroke="black" points="27.38,-73.5 27.38,-109.5 135.62,-109.5 135.62,-73.5 27.38,-73.5"/>
<text text-anchor="middle" x="81.5" y="-86.83" font-family="Times,serif" font-size="14.00">qtwebengine</text>
</g>
<!-- ffmpeg&#45;4 -->
<g id="node2" class="node">
<title>ffmpeg&#45;4</title>
<polygon fill="pink" stroke="black" points="0,-0.5 0,-36.5 79,-36.5 79,-0.5 0,-0.5"/>
<text text-anchor="middle" x="39.5" y="-13.82" font-family="Times,serif" font-size="14.00">ffmpeg&#45;4</text>
</g>
<!-- qtwebengine&#45;&gt;ffmpeg&#45;4 -->
<g id="edge1" class="edge">
<title>qtwebengine&#45;&gt;ffmpeg&#45;4</title>
<path fill="none" stroke="black" d="M71.55,-73.67C66.58,-65.27 60.45,-54.92 54.9,-45.53"/>
<polygon fill="black" stroke="black" points="57.49,-44.03 49.38,-37.21 51.46,-47.59 57.49,-44.03"/>
</g>
<!-- ... -->
<g id="node3" class="node">
<title>...</title>
<polygon fill="none" stroke="black" points="97.5,-0.5 97.5,-36.5 151.5,-36.5 151.5,-0.5 97.5,-0.5"/>
<text text-anchor="middle" x="124.25" y="-13.82" font-family="Times,serif" font-size="14.00">...</text>
</g>
<!-- qtwebengine&#45;&gt;... -->
<g id="edge2" class="edge">
<title>qtwebengine&#45;&gt;...</title>
<path fill="none" stroke="black" d="M91.69,-73.67C96.78,-65.27 103.05,-54.92 108.74,-45.53"/>
<polygon fill="black" stroke="black" points="112.2,-47.57 114.38,-37.21 106.21,-43.95 112.2,-47.57"/>
</g>
<!-- amarok -->
<g id="node4" class="node">
<title>amarok</title>
<polygon fill="none" stroke="black" points="158.88,-146.5 158.88,-182.5 228.12,-182.5 228.12,-146.5 158.88,-146.5"/>
<text text-anchor="middle" x="193.5" y="-159.82" font-family="Times,serif" font-size="14.00">amarok</text>
</g>
<!-- amarok&#45;&gt;qtwebengine -->
<g id="edge4" class="edge">
<title>amarok&#45;&gt;qtwebengine</title>
<path fill="none" stroke="black" d="M166.96,-146.67C152.14,-137.28 133.48,-125.45 117.38,-115.24"/>
<polygon fill="black" stroke="black" points="119.56,-111.85 109.24,-109.45 115.81,-117.76 119.56,-111.85"/>
</g>
<!-- ffmpeg&#45;5 -->
<g id="node5" class="node">
<title>ffmpeg&#45;5</title>
<polygon fill="pink" stroke="black" points="154,-73.5 154,-109.5 233,-109.5 233,-73.5 154,-73.5"/>
<text text-anchor="middle" x="193.5" y="-86.83" font-family="Times,serif" font-size="14.00">ffmpeg&#45;5</text>
</g>
<!-- amarok&#45;&gt;ffmpeg&#45;5 -->
<g id="edge3" class="edge">
<title>amarok&#45;&gt;ffmpeg&#45;5</title>
<path fill="none" stroke="black" d="M193.5,-146.67C193.5,-138.72 193.5,-129.01 193.5,-120.02"/>
<polygon fill="black" stroke="black" points="197,-120.21 193.5,-110.21 190,-120.21 197,-120.21"/>
</g>
<!-- ...  -->
<g id="node6" class="node">
<title>... </title>
<polygon fill="none" stroke="black" points="251.5,-73.5 251.5,-109.5 305.5,-109.5 305.5,-73.5 251.5,-73.5"/>
<text text-anchor="middle" x="278.5" y="-86.83" font-family="Times,serif" font-size="14.00">... </text>
</g>
<!-- amarok&#45;&gt;...  -->
<g id="edge5" class="edge">
<title>amarok&#45;&gt;... </title>
<path fill="none" stroke="black" d="M213.64,-146.67C224.47,-137.63 238,-126.33 249.89,-116.39"/>
<polygon fill="black" stroke="black" points="251.78,-118.55 257.21,-109.45 247.29,-113.18 251.78,-118.55"/>
</g>
</g>
</svg>
