<?xml version="1.0" encoding="UTF-8" standalone="no"?>
<!DOCTYPE svg PUBLIC "-//W3C//DTD SVG 1.1//EN"
 "http://www.w3.org/Graphics/SVG/1.1/DTD/svg11.dtd">
<!-- Generated by graphviz version 12.1.0 (0)
 -->
<!-- Pages: 1 -->
<svg width="754pt" height="118pt"
 viewBox="0.00 0.00 754.00 118.00" xmlns="http://www.w3.org/2000/svg" xmlns:xlink="http://www.w3.org/1999/xlink">
<g id="graph0" class="graph" transform="scale(1 1) rotate(0) translate(4 114)">
<polygon fill="white" stroke="none" points="-4,4 -4,-114 750,-114 750,4 -4,4"/>
<!-- strip&#45;2.38 -->
<g id="node1" class="node">
<title>strip&#45;2.38</title>
<polygon fill="none" stroke="black" points="68.12,-73.5 68.12,-109.5 153.88,-109.5 153.88,-73.5 68.12,-73.5"/>
<text text-anchor="middle" x="111" y="-86.83" font-family="Times,serif" font-size="14.00">strip&#45;2.38</text>
</g>
<!-- .../binutils/.../2.38/libbfd&#45;2.38.so -->
<g id="node2" class="node">
<title>.../binutils/.../2.38/libbfd&#45;2.38.so</title>
<polygon fill="none" stroke="black" points="0,-0.5 0,-36.5 244,-36.5 244,-0.5 0,-0.5"/>
<text text-anchor="middle" x="122" y="-13.82" font-family="Times,serif" font-size="14.00">.../binutils/.../2.38/libbfd&#45;2.38.so</text>
</g>
<!-- strip&#45;2.38&#45;&gt;.../binutils/.../2.38/libbfd&#45;2.38.so -->
<g id="edge1" class="edge">
<title>strip&#45;2.38&#45;&gt;.../binutils/.../2.38/libbfd&#45;2.38.so</title>
<path fill="none" stroke="black" stroke-dasharray="1,5" d="M113.66,-73.31C114.85,-65.64 116.28,-56.39 117.62,-47.74"/>
<polygon fill="black" stroke="black" points="121.06,-48.44 119.13,-38.02 114.14,-47.37 121.06,-48.44"/>
</g>
<!-- /usr/lib64/libbfd&#45;2.38.so -->
<g id="node5" class="node">
<title>/usr/lib64/libbfd&#45;2.38.so</title>
<polygon fill="none" stroke="black" points="261.88,-0.5 261.88,-36.5 448.12,-36.5 448.12,-0.5 261.88,-0.5"/>
<text text-anchor="middle" x="355" y="-13.82" font-family="Times,serif" font-size="14.00">/usr/lib64/libbfd&#45;2.38.so</text>
</g>
<!-- strip&#45;2.38&#45;&gt;/usr/lib64/libbfd&#45;2.38.so -->
<g id="edge4" class="edge">
<title>strip&#45;2.38&#45;&gt;/usr/lib64/libbfd&#45;2.38.so</title>
<path fill="none" stroke="red" d="M154.36,-75.72C157.28,-74.78 160.18,-73.87 163,-73 200.77,-61.39 243.04,-49.49 278.29,-39.88"/>
<polygon fill="red" stroke="red" points="278.8,-43.37 287.53,-37.36 276.96,-36.61 278.8,-43.37"/>
</g>
<!-- ld&#45;2.38 -->
<g id="node3" class="node">
<title>ld&#45;2.38</title>
<polygon fill="none" stroke="black" points="172.25,-73.5 172.25,-109.5 237.75,-109.5 237.75,-73.5 172.25,-73.5"/>
<text text-anchor="middle" x="205" y="-86.83" font-family="Times,serif" font-size="14.00">ld&#45;2.38</text>
</g>
<!-- ld&#45;2.38&#45;&gt;.../binutils/.../2.38/libbfd&#45;2.38.so -->
<g id="edge2" class="edge">
<title>ld&#45;2.38&#45;&gt;.../binutils/.../2.38/libbfd&#45;2.38.so</title>
<path fill="none" stroke="black" stroke-dasharray="1,5" d="M184.91,-73.31C174.69,-64.57 162.08,-53.78 150.84,-44.17"/>
<polygon fill="black" stroke="black" points="153.22,-41.6 143.34,-37.76 148.67,-46.92 153.22,-41.6"/>
</g>
<!-- ld&#45;2.38&#45;&gt;/usr/lib64/libbfd&#45;2.38.so -->
<g id="edge5" class="edge">
<title>ld&#45;2.38&#45;&gt;/usr/lib64/libbfd&#45;2.38.so</title>
<path fill="none" stroke="red" d="M237.92,-74.92C258.48,-65.18 285.29,-52.49 308.07,-41.72"/>
<polygon fill="red" stroke="red" points="309.3,-45 316.84,-37.56 306.31,-38.68 309.3,-45"/>
</g>
<!-- ... -->
<g id="node4" class="node">
<title>...</title>
<polygon fill="none" stroke="black" points="256,-73.5 256,-109.5 310,-109.5 310,-73.5 256,-73.5"/>
<text text-anchor="middle" x="282.75" y="-86.83" font-family="Times,serif" font-size="14.00">...</text>
</g>
<!-- ...&#45;&gt;.../binutils/.../2.38/libbfd&#45;2.38.so -->
<g id="edge3" class="edge">
<title>...&#45;&gt;.../binutils/.../2.38/libbfd&#45;2.38.so</title>
<path fill="none" stroke="black" stroke-dasharray="1,5" d="M255.55,-76.99C252.67,-75.62 249.78,-74.27 247,-73 223.37,-62.21 196.95,-50.8 174.51,-41.31"/>
<polygon fill="black" stroke="black" points="176.14,-38.2 165.57,-37.54 173.42,-44.65 176.14,-38.2"/>
</g>
<!-- ...&#45;&gt;/usr/lib64/libbfd&#45;2.38.so -->
<g id="edge6" class="edge">
<title>...&#45;&gt;/usr/lib64/libbfd&#45;2.38.so</title>
<path fill="none" stroke="red" d="M300.43,-73.31C309.12,-64.74 319.8,-54.21 329.4,-44.74"/>
<polygon fill="red" stroke="red" points="331.74,-47.35 336.4,-37.84 326.83,-42.37 331.74,-47.35"/>
</g>
<!-- ld&#45;2.37 -->
<g id="node6" class="node">
<title>ld&#45;2.37</title>
<polygon fill="none" stroke="black" points="549.25,-73.5 549.25,-109.5 614.75,-109.5 614.75,-73.5 549.25,-73.5"/>
<text text-anchor="middle" x="582" y="-86.83" font-family="Times,serif" font-size="14.00">ld&#45;2.37</text>
</g>
<!-- .../binutils/.../2.37/libbfd&#45;2.37.so -->
<g id="node7" class="node">
<title>.../binutils/.../2.37/libbfd&#45;2.37.so</title>
<polygon fill="none" stroke="black" points="502,-0.5 502,-36.5 746,-36.5 746,-0.5 502,-0.5"/>
<text text-anchor="middle" x="624" y="-13.82" font-family="Times,serif" font-size="14.00">.../binutils/.../2.37/libbfd&#45;2.37.so</text>
</g>
<!-- ld&#45;2.37&#45;&gt;.../binutils/.../2.37/libbfd&#45;2.37.so -->
<g id="edge7" class="edge">
<title>ld&#45;2.37&#45;&gt;.../binutils/.../2.37/libbfd&#45;2.37.so</title>
<path fill="none" stroke="black" d="M592.17,-73.31C596.96,-65.2 602.8,-55.34 608.16,-46.28"/>
<polygon fill="black" stroke="black" points="611.08,-48.22 613.16,-37.83 605.05,-44.66 611.08,-48.22"/>
</g>
<!-- ...  -->
<g id="node8" class="node">
<title>... </title>
<polygon fill="none" stroke="black" points="633,-73.5 633,-109.5 687,-109.5 687,-73.5 633,-73.5"/>
<text text-anchor="middle" x="660" y="-86.83" font-family="Times,serif" font-size="14.00">... </text>
</g>
<!-- ... &#45;&gt;.../binutils/.../2.37/libbfd&#45;2.37.so -->
<g id="edge8" class="edge">
<title>... &#45;&gt;.../binutils/.../2.37/libbfd&#45;2.37.so</title>
<path fill="none" stroke="black" d="M651.29,-73.31C647.22,-65.29 642.28,-55.55 637.73,-46.57"/>
<polygon fill="black" stroke="black" points="640.96,-45.21 633.32,-37.88 634.72,-48.38 640.96,-45.21"/>
</g>
<!-- perf -->
<g id="node9" class="node">
<title>perf</title>
<polygon fill="none" stroke="black" points="328,-73.5 328,-109.5 382,-109.5 382,-73.5 328,-73.5"/>
<text text-anchor="middle" x="354.62" y="-86.83" font-family="Times,serif" font-size="14.00">perf</text>
</g>
<!-- perf&#45;&gt;/usr/lib64/libbfd&#45;2.38.so -->
<g id="edge9" class="edge">
<title>perf&#45;&gt;/usr/lib64/libbfd&#45;2.38.so</title>
<path fill="none" stroke="black" d="M355,-73.31C355,-65.73 355,-56.6 355,-48.04"/>
<polygon fill="black" stroke="black" points="358.5,-48.04 355,-38.04 351.5,-48.04 358.5,-48.04"/>
</g>
<!-- ghc -->
<g id="node10" class="node">
<title>ghc</title>
<polygon fill="none" stroke="black" points="400,-73.5 400,-109.5 454,-109.5 454,-73.5 400,-73.5"/>
<text text-anchor="middle" x="426.75" y="-86.83" font-family="Times,serif" font-size="14.00">ghc</text>
</g>
<!-- ghc&#45;&gt;/usr/lib64/libbfd&#45;2.38.so -->
<g id="edge10" class="edge">
<title>ghc&#45;&gt;/usr/lib64/libbfd&#45;2.38.so</title>
<path fill="none" stroke="black" d="M409.57,-73.31C400.88,-64.74 390.2,-54.21 380.6,-44.74"/>
<polygon fill="black" stroke="black" points="383.17,-42.37 373.6,-37.84 378.26,-47.35 383.17,-42.37"/>
</g>
<!-- ... &#160; -->
<g id="node11" class="node">
<title>... &#160;</title>
<polygon fill="none" stroke="black" points="472,-73.5 472,-109.5 526,-109.5 526,-73.5 472,-73.5"/>
<text text-anchor="middle" x="498.75" y="-86.83" font-family="Times,serif" font-size="14.00">... &#160;</text>
</g>
<!-- ... &#160;&#45;&gt;/usr/lib64/libbfd&#45;2.38.so -->
<g id="edge11" class="edge">
<title>... &#160;&#45;&gt;/usr/lib64/libbfd&#45;2.38.so</title>
<path fill="none" stroke="black" d="M471.58,-76.98C451.46,-67.06 423.69,-53.37 400.3,-41.83"/>
<polygon fill="black" stroke="black" points="402.12,-38.83 391.6,-37.55 399.02,-45.11 402.12,-38.83"/>
</g>
</g>
</svg>
