<?xml version="1.0" encoding="UTF-8" standalone="no"?>
<!DOCTYPE svg PUBLIC "-//W3C//DTD SVG 1.1//EN"
 "http://www.w3.org/Graphics/SVG/1.1/DTD/svg11.dtd">
<!-- Generated by graphviz version 7.1.0 (0)
 -->
<!-- Pages: 1 -->
<svg width="216pt" height="191pt"
 viewBox="0.00 0.00 215.50 191.00" xmlns="http://www.w3.org/2000/svg" xmlns:xlink="http://www.w3.org/1999/xlink">
<g id="graph0" class="graph" transform="scale(1 1) rotate(0) translate(4 187)">
<polygon fill="white" stroke="none" points="-4,4 -4,-187 211.5,-187 211.5,4 -4,4"/>
<!-- main -->
<g id="node1" class="node">
<title>main</title>
<polygon fill="none" stroke="black" points="76,-146.5 76,-182.5 130,-182.5 130,-146.5 76,-146.5"/>
<text text-anchor="middle" x="103" y="-160.8" font-family="Times,serif" font-size="14.00">main</text>
</g>
<!-- libone.so.1 -->
<g id="node4" class="node">
<title>libone.so.1</title>
<polygon fill="none" stroke="black" points="0,-73.5 0,-109.5 94,-109.5 94,-73.5 0,-73.5"/>
<text text-anchor="middle" x="47" y="-87.8" font-family="Times,serif" font-size="14.00">libone.so.1</text>
</g>
<!-- main&#45;&gt;libone.so.1 -->
<g id="edge1" class="edge">
<title>main&#45;&gt;libone.so.1</title>
<path fill="none" stroke="black" d="M89.73,-146.67C83.03,-138.19 74.77,-127.71 67.3,-118.23"/>
<polygon fill="black" stroke="black" points="70.05,-116.08 61.11,-110.39 64.56,-120.41 70.05,-116.08"/>
</g>
<!-- libtwo.so.1 -->
<g id="node5" class="node">
<title>libtwo.so.1</title>
<polygon fill="none" stroke="black" points="112.5,-73.5 112.5,-109.5 207.5,-109.5 207.5,-73.5 112.5,-73.5"/>
<text text-anchor="middle" x="160" y="-87.8" font-family="Times,serif" font-size="14.00">libtwo.so.1</text>
</g>
<!-- main&#45;&gt;libtwo.so.1 -->
<g id="edge2" class="edge">
<title>main&#45;&gt;libtwo.so.1</title>
<path fill="none" stroke="black" d="M116.51,-146.67C123.39,-138.1 131.91,-127.49 139.58,-117.94"/>
<polygon fill="black" stroke="black" points="142.11,-120.37 145.64,-110.39 136.65,-115.99 142.11,-120.37"/>
</g>
<!-- libfoo.so.5 -->
<g id="node2" class="node">
<title>libfoo.so.5</title>
<polygon fill="lightgreen" stroke="black" points="2,-0.5 2,-36.5 92,-36.5 92,-0.5 2,-0.5"/>
<text text-anchor="middle" x="47" y="-14.8" font-family="Times,serif" font-size="14.00">libfoo.so.5</text>
</g>
<!-- libfoo.so.6 -->
<g id="node3" class="node">
<title>libfoo.so.6</title>
<polygon fill="lightgreen" stroke="black" points="112,-0.5 112,-36.5 202,-36.5 202,-0.5 112,-0.5"/>
<text text-anchor="middle" x="157" y="-14.8" font-family="Times,serif" font-size="14.00">libfoo.so.6</text>
</g>
<!-- libone.so.1&#45;&gt;libfoo.so.5 -->
<!-- libone.so.1&#45;&gt;libfoo.so.6 -->
<g id="edge3" class="edge">
<title>libone.so.1&#45;&gt;libfoo.so.6</title>
<path fill="none" stroke="green" d="M73.07,-73.67C87.48,-64.37 105.61,-52.67 121.32,-42.53"/>
<polygon fill="green" stroke="green" points="122.96,-45.64 129.47,-37.27 119.17,-39.75 122.96,-45.64"/>
</g>
<!-- libtwo.so.1&#45;&gt;libfoo.so.6 -->
<g id="edge5" class="edge">
<title>libtwo.so.1&#45;&gt;libfoo.so.6</title>
<path fill="none" stroke="green" d="M159.29,-73.67C158.96,-65.89 158.56,-56.44 158.19,-47.62"/>
<polygon fill="green" stroke="green" points="161.69,-47.56 157.77,-37.72 154.7,-47.86 161.69,-47.56"/>
</g>
</g>
</svg>
