<?xml version="1.0" encoding="UTF-8" standalone="no"?>
<!DOCTYPE svg PUBLIC "-//W3C//DTD SVG 1.1//EN"
 "http://www.w3.org/Graphics/SVG/1.1/DTD/svg11.dtd">
<!-- Generated by graphviz version 7.0.2 (0)
 -->
<!-- Pages: 1 -->
<svg width="407pt" height="191pt"
 viewBox="0.00 0.00 406.50 191.00" xmlns="http://www.w3.org/2000/svg" xmlns:xlink="http://www.w3.org/1999/xlink">
<g id="graph0" class="graph" transform="scale(1 1) rotate(0) translate(4 187)">
<polygon fill="white" stroke="none" points="-4,4 -4,-187 402.5,-187 402.5,4 -4,4"/>
<!-- libncurses.so.6 -->
<g id="node1" class="node">
<title>libncurses.so.6</title>
<polygon fill="pink" stroke="black" points="273,-0.5 273,-36.5 397,-36.5 397,-0.5 273,-0.5"/>
<text text-anchor="middle" x="335" y="-14.8" font-family="Times,serif" font-size="14.00">libncurses.so.6</text>
</g>
<!-- libncursesw.so.6 -->
<g id="node2" class="node">
<title>libncursesw.so.6</title>
<polygon fill="pink" stroke="black" points="0,-73.5 0,-109.5 134,-109.5 134,-73.5 0,-73.5"/>
<text text-anchor="middle" x="67" y="-87.8" font-family="Times,serif" font-size="14.00">libncursesw.so.6</text>
</g>
<!-- libtinfow.so.6 -->
<g id="node4" class="node">
<title>libtinfow.so.6</title>
<polygon fill="red" stroke="black" points="11,-0.5 11,-36.5 123,-36.5 123,-0.5 11,-0.5"/>
<text text-anchor="middle" x="67" y="-14.8" font-family="Times,serif" font-size="14.00">libtinfow.so.6</text>
</g>
<!-- libncursesw.so.6&#45;&gt;libtinfow.so.6 -->
<g id="edge5" class="edge">
<title>libncursesw.so.6&#45;&gt;libtinfow.so.6</title>
<path fill="none" stroke="black" d="M67,-73.67C67,-65.89 67,-56.44 67,-47.62"/>
<polygon fill="black" stroke="black" points="70.5,-47.72 67,-37.72 63.5,-47.72 70.5,-47.72"/>
</g>
<!-- libtinfo.so.6 -->
<g id="node3" class="node">
<title>libtinfo.so.6</title>
<polygon fill="red" stroke="black" points="152.5,-73.5 152.5,-109.5 253.5,-109.5 253.5,-73.5 152.5,-73.5"/>
<text text-anchor="middle" x="203" y="-87.8" font-family="Times,serif" font-size="14.00">libtinfo.so.6</text>
</g>
<!-- gdb -->
<g id="node5" class="node">
<title>gdb</title>
<polygon fill="none" stroke="black" points="176,-146.5 176,-182.5 230,-182.5 230,-146.5 176,-146.5"/>
<text text-anchor="middle" x="203" y="-160.8" font-family="Times,serif" font-size="14.00">gdb</text>
</g>
<!-- gdb&#45;&gt;libncursesw.so.6 -->
<g id="edge3" class="edge">
<title>gdb&#45;&gt;libncursesw.so.6</title>
<path fill="none" stroke="black" d="M176.13,-149.47C157.02,-139.49 130.96,-125.89 109.1,-114.48"/>
<polygon fill="black" stroke="black" points="110.9,-111.47 100.42,-109.95 107.66,-117.68 110.9,-111.47"/>
</g>
<!-- gdb&#45;&gt;libtinfo.so.6 -->
<g id="edge1" class="edge">
<title>gdb&#45;&gt;libtinfo.so.6</title>
<path fill="none" stroke="black" d="M203,-146.67C203,-138.89 203,-129.44 203,-120.62"/>
<polygon fill="black" stroke="black" points="206.5,-120.72 203,-110.72 199.5,-120.72 206.5,-120.72"/>
</g>
<!-- libreadline.so.7 -->
<g id="node6" class="node">
<title>libreadline.so.7</title>
<polygon fill="none" stroke="black" points="271.5,-73.5 271.5,-109.5 398.5,-109.5 398.5,-73.5 271.5,-73.5"/>
<text text-anchor="middle" x="335" y="-87.8" font-family="Times,serif" font-size="14.00">libreadline.so.7</text>
</g>
<!-- gdb&#45;&gt;libreadline.so.7 -->
<g id="edge2" class="edge">
<title>gdb&#45;&gt;libreadline.so.7</title>
<path fill="none" stroke="black" d="M229.71,-149.13C248.1,-139.24 272.88,-125.91 293.78,-114.67"/>
<polygon fill="black" stroke="black" points="295.2,-117.88 302.35,-110.06 291.89,-111.71 295.2,-117.88"/>
</g>
<!-- libreadline.so.7&#45;&gt;libncurses.so.6 -->
<g id="edge4" class="edge">
<title>libreadline.so.7&#45;&gt;libncurses.so.6</title>
<path fill="none" stroke="black" d="M335,-73.67C335,-65.89 335,-56.44 335,-47.62"/>
<polygon fill="black" stroke="black" points="338.5,-47.72 335,-37.72 331.5,-47.72 338.5,-47.72"/>
</g>
</g>
</svg>
