<?xml version="1.0" encoding="UTF-8" standalone="no"?>
<!DOCTYPE svg PUBLIC "-//W3C//DTD SVG 1.1//EN"
 "http://www.w3.org/Graphics/SVG/1.1/DTD/svg11.dtd">
<!-- Generated by graphviz version 12.2.0 (0)
 -->
<!-- Pages: 1 -->
<svg width="515pt" height="175pt"
 viewBox="0.00 0.00 515.00 175.25" xmlns="http://www.w3.org/2000/svg" xmlns:xlink="http://www.w3.org/1999/xlink">
<g id="graph0" class="graph" transform="scale(1 1) rotate(0) translate(4 171.25)">
<polygon fill="white" stroke="none" points="-4,4 -4,-171.25 511,-171.25 511,4 -4,4"/>
<g id="clust1" class="cluster">
<title>clusterMono</title>
<polygon fill="none" stroke="black" points="8,-81 8,-159.25 242,-159.25 242,-81 8,-81"/>
<text text-anchor="middle" x="125" y="-141.95" font-family="Times,serif" font-size="14.00">main.elf (embeds library code)</text>
</g>
<g id="clust2" class="cluster">
<title>clusterDyn</title>
<polygon fill="none" stroke="black" points="250,-8 250,-159.25 499,-159.25 499,-8 250,-8"/>
<text text-anchor="middle" x="374.5" y="-141.95" font-family="Times,serif" font-size="14.00">main.elf links to a shared library</text>
</g>
<!-- mono -->
<g id="node1" class="node">
<title>mono</title>
<polygon fill="none" stroke="black" points="69.62,-89.5 69.62,-125.5 180.38,-125.5 180.38,-89.5 69.62,-89.5"/>
<text text-anchor="middle" x="101.62" y="-102.83" font-family="Times,serif" font-size="14.00">main.o</text>
<polyline fill="none" stroke="black" points="133.62,-89.5 133.62,-125.5"/>
<text text-anchor="middle" x="157" y="-102.83" font-family="Times,serif" font-size="14.00">lib.o</text>
</g>
<!-- dyprog -->
<g id="node2" class="node">
<title>dyprog</title>
<polygon fill="none" stroke="black" points="305.62,-89.5 305.62,-125.5 442.38,-125.5 442.38,-89.5 305.62,-89.5"/>
<text text-anchor="middle" x="374" y="-102.83" font-family="Times,serif" font-size="14.00">main.elf (main.o)</text>
</g>
<!-- dylib -->
<g id="node3" class="node">
<title>dylib</title>
<polygon fill="none" stroke="black" points="310.88,-16.5 310.88,-52.5 437.12,-52.5 437.12,-16.5 310.88,-16.5"/>
<text text-anchor="middle" x="374" y="-29.82" font-family="Times,serif" font-size="14.00">libdep.so (lib.o)</text>
</g>
<!-- dyprog&#45;&gt;dylib -->
<g id="edge1" class="edge">
<title>dyprog&#45;&gt;dylib</title>
<path fill="none" stroke="black" stroke-width="5" d="M374,-89.31C374,-83.03 374,-75.7 374,-68.51"/>
<polygon fill="black" stroke="black" stroke-width="5" points="378.38,-68.77 374,-58.77 369.63,-68.77 378.38,-68.77"/>
</g>
</g>
</svg>
