<?xml version="1.0" encoding="UTF-8" standalone="no"?>
<!DOCTYPE svg PUBLIC "-//W3C//DTD SVG 1.1//EN"
 "http://www.w3.org/Graphics/SVG/1.1/DTD/svg11.dtd">
<!-- Generated by graphviz version 7.0.0 (0)
 -->
<!-- Pages: 1 -->
<svg width="654pt" height="191pt"
 viewBox="0.00 0.00 653.50 191.00" xmlns="http://www.w3.org/2000/svg" xmlns:xlink="http://www.w3.org/1999/xlink">
<g id="graph0" class="graph" transform="scale(1 1) rotate(0) translate(4 187)">
<polygon fill="white" stroke="none" points="-4,4 -4,-187 649.5,-187 649.5,4 -4,4"/>
<!-- libmpfr.so.4 -->
<g id="node1" class="node">
<title>libmpfr.so.4</title>
<polygon fill="lightgreen" stroke="black" points="0,-73.5 0,-109.5 101,-109.5 101,-73.5 0,-73.5"/>
<text text-anchor="middle" x="50.5" y="-87.8" font-family="Times,serif" font-size="14.00">libmpfr.so.4</text>
</g>
<!-- libmpfr.so.3 -->
<g id="node2" class="node">
<title>libmpfr.so.3</title>
<polygon fill="lightgreen" stroke="black" points="118,-0.5 118,-36.5 219,-36.5 219,-0.5 118,-0.5"/>
<text text-anchor="middle" x="168.5" y="-14.8" font-family="Times,serif" font-size="14.00">libmpfr.so.3</text>
</g>
<!-- cc1 -->
<g id="node3" class="node">
<title>cc1</title>
<polygon fill="none" stroke="black" points="141.5,-146.5 141.5,-182.5 195.5,-182.5 195.5,-146.5 141.5,-146.5"/>
<text text-anchor="middle" x="168.5" y="-160.8" font-family="Times,serif" font-size="14.00">cc1</text>
</g>
<!-- cc1&#45;&gt;libmpfr.so.4 -->
<!-- cc1&#45;&gt;libmpfr.so.3 -->
<g id="edge3" class="edge">
<title>cc1&#45;&gt;libmpfr.so.3</title>
<path fill="none" stroke="black" d="M160.4,-146.6C155.92,-136.28 150.79,-122.69 148.5,-110 145.57,-93.82 145.57,-89.18 148.5,-73 150.08,-64.28 152.99,-55.13 156.12,-46.91"/>
<polygon fill="black" stroke="black" points="159.29,-48.39 159.83,-37.81 152.81,-45.74 159.29,-48.39"/>
</g>
<!-- libmpc.so.3 -->
<g id="node4" class="node">
<title>libmpc.so.3</title>
<polygon fill="none" stroke="black" points="157.5,-73.5 157.5,-109.5 255.5,-109.5 255.5,-73.5 157.5,-73.5"/>
<text text-anchor="middle" x="206.5" y="-87.8" font-family="Times,serif" font-size="14.00">libmpc.so.3</text>
</g>
<!-- cc1&#45;&gt;libmpc.so.3 -->
<g id="edge1" class="edge">
<title>cc1&#45;&gt;libmpc.so.3</title>
<path fill="none" stroke="black" d="M177.51,-146.67C181.91,-138.45 187.31,-128.36 192.25,-119.12"/>
<polygon fill="black" stroke="black" points="195.21,-121.01 196.84,-110.54 189.04,-117.7 195.21,-121.01"/>
</g>
<!-- ... -->
<g id="node5" class="node">
<title>...</title>
<polygon fill="none" stroke="black" points="273.5,-73.5 273.5,-109.5 327.5,-109.5 327.5,-73.5 273.5,-73.5"/>
<text text-anchor="middle" x="300.5" y="-87.8" font-family="Times,serif" font-size="14.00">...</text>
</g>
<!-- cc1&#45;&gt;... -->
<g id="edge5" class="edge">
<title>cc1&#45;&gt;...</title>
<path fill="none" stroke="black" d="M195.21,-149.13C214.98,-138.5 242.15,-123.89 263.93,-112.17"/>
<polygon fill="black" stroke="black" points="265.35,-115.38 272.49,-107.56 262.03,-109.22 265.35,-115.38"/>
</g>
<!-- libmpc.so.3&#45;&gt;libmpfr.so.3 -->
<g id="edge2" class="edge">
<title>libmpc.so.3&#45;&gt;libmpfr.so.3</title>
<path fill="none" stroke="black" d="M197.49,-73.67C193.09,-65.45 187.69,-55.36 182.75,-46.12"/>
<polygon fill="black" stroke="black" points="185.96,-44.7 178.16,-37.54 179.79,-48.01 185.96,-44.7"/>
</g>
<!-- libmpfr.so.4  -->
<g id="node6" class="node">
<title>libmpfr.so.4 </title>
<polygon fill="pink" stroke="black" points="468.5,-0.5 468.5,-36.5 574.5,-36.5 574.5,-0.5 468.5,-0.5"/>
<text text-anchor="middle" x="521.5" y="-14.8" font-family="Times,serif" font-size="14.00">libmpfr.so.4 </text>
</g>
<!-- libmpfr.so.3  -->
<g id="node7" class="node">
<title>libmpfr.so.3 </title>
<polygon fill="pink" stroke="black" points="345.5,-73.5 345.5,-109.5 451.5,-109.5 451.5,-73.5 345.5,-73.5"/>
<text text-anchor="middle" x="398.5" y="-87.8" font-family="Times,serif" font-size="14.00">libmpfr.so.3 </text>
</g>
<!-- cc1  -->
<g id="node8" class="node">
<title>cc1 </title>
<polygon fill="none" stroke="black" points="494.5,-146.5 494.5,-182.5 548.5,-182.5 548.5,-146.5 494.5,-146.5"/>
<text text-anchor="middle" x="521.5" y="-160.8" font-family="Times,serif" font-size="14.00">cc1 </text>
</g>
<!-- cc1 &#45;&gt;libmpfr.so.3  -->
<g id="edge8" class="edge">
<title>cc1 &#45;&gt;libmpfr.so.3 </title>
<path fill="none" stroke="black" d="M494.51,-147.92C477.8,-138.27 456.07,-125.73 437.51,-115.02"/>
<polygon fill="black" stroke="black" points="439.3,-112.01 428.89,-110.04 435.8,-118.07 439.3,-112.01"/>
</g>
<!-- libmpc.so.3  -->
<g id="node9" class="node">
<title>libmpc.so.3 </title>
<polygon fill="none" stroke="black" points="470,-73.5 470,-109.5 573,-109.5 573,-73.5 470,-73.5"/>
<text text-anchor="middle" x="521.5" y="-87.8" font-family="Times,serif" font-size="14.00">libmpc.so.3 </text>
</g>
<!-- cc1 &#45;&gt;libmpc.so.3  -->
<g id="edge6" class="edge">
<title>cc1 &#45;&gt;libmpc.so.3 </title>
<path fill="none" stroke="black" d="M521.5,-146.67C521.5,-138.89 521.5,-129.44 521.5,-120.62"/>
<polygon fill="black" stroke="black" points="525,-120.72 521.5,-110.72 518,-120.72 525,-120.72"/>
</g>
<!-- ...  -->
<g id="node10" class="node">
<title>... </title>
<polygon fill="none" stroke="black" points="591.5,-73.5 591.5,-109.5 645.5,-109.5 645.5,-73.5 591.5,-73.5"/>
<text text-anchor="middle" x="618.5" y="-87.8" font-family="Times,serif" font-size="14.00">... </text>
</g>
<!-- cc1 &#45;&gt;...  -->
<g id="edge9" class="edge">
<title>cc1 &#45;&gt;... </title>
<path fill="none" stroke="black" d="M544.49,-146.67C556.96,-137.54 572.58,-126.11 586.25,-116.11"/>
<polygon fill="black" stroke="black" points="588.12,-119.08 594.12,-110.35 583.98,-113.43 588.12,-119.08"/>
</g>
<!-- libmpc.so.3 &#45;&gt;libmpfr.so.4  -->
<g id="edge7" class="edge">
<title>libmpc.so.3 &#45;&gt;libmpfr.so.4 </title>
<path fill="none" stroke="red" d="M521.5,-73.67C521.5,-65.89 521.5,-56.44 521.5,-47.62"/>
<polygon fill="red" stroke="red" points="525,-47.72 521.5,-37.72 518,-47.72 525,-47.72"/>
</g>
</g>
</svg>
