<?xml version="1.0" encoding="UTF-8" standalone="no"?>
<!DOCTYPE svg PUBLIC "-//W3C//DTD SVG 1.1//EN"
 "http://www.w3.org/Graphics/SVG/1.1/DTD/svg11.dtd">
<!-- Generated by graphviz version 8.0.5 (0)
 -->
<!-- Pages: 1 -->
<svg width="405pt" height="191pt"
 viewBox="0.00 0.00 405.00 191.00" xmlns="http://www.w3.org/2000/svg" xmlns:xlink="http://www.w3.org/1999/xlink">
<g id="graph0" class="graph" transform="scale(1 1) rotate(0) translate(4 187)">
<polygon fill="white" stroke="none" points="-4,4 -4,-187 401,-187 401,4 -4,4"/>
<!-- libncurses.so.6 -->
<g id="node1" class="node">
<title>libncurses.so.6</title>
<polygon fill="pink" stroke="black" points="272.25,-0.5 272.25,-36.5 395.5,-36.5 395.5,-0.5 272.25,-0.5"/>
<text text-anchor="middle" x="333.88" y="-13.82" font-family="Times,serif" font-size="14.00">libncurses.so.6</text>
</g>
<!-- libncursesw.so.6 -->
<g id="node2" class="node">
<title>libncursesw.so.6</title>
<polygon fill="pink" stroke="black" points="0,-73.5 0,-109.5 133.75,-109.5 133.75,-73.5 0,-73.5"/>
<text text-anchor="middle" x="66.88" y="-86.83" font-family="Times,serif" font-size="14.00">libncursesw.so.6</text>
</g>
<!-- libtinfow.so.6 -->
<g id="node4" class="node">
<title>libtinfow.so.6</title>
<polygon fill="red" stroke="black" points="11.25,-0.5 11.25,-36.5 122.5,-36.5 122.5,-0.5 11.25,-0.5"/>
<text text-anchor="middle" x="66.88" y="-13.82" font-family="Times,serif" font-size="14.00">libtinfow.so.6</text>
</g>
<!-- libncursesw.so.6&#45;&gt;libtinfow.so.6 -->
<g id="edge5" class="edge">
<title>libncursesw.so.6&#45;&gt;libtinfow.so.6</title>
<path fill="none" stroke="black" d="M66.88,-73.67C66.88,-65.72 66.88,-56.01 66.88,-47.02"/>
<polygon fill="black" stroke="black" points="70.38,-47.21 66.88,-37.21 63.38,-47.21 70.38,-47.21"/>
</g>
<!-- libtinfo.so.6 -->
<g id="node3" class="node">
<title>libtinfo.so.6</title>
<polygon fill="red" stroke="black" points="151.5,-73.5 151.5,-109.5 252.25,-109.5 252.25,-73.5 151.5,-73.5"/>
<text text-anchor="middle" x="201.88" y="-86.83" font-family="Times,serif" font-size="14.00">libtinfo.so.6</text>
</g>
<!-- gdb -->
<g id="node5" class="node">
<title>gdb</title>
<polygon fill="none" stroke="black" points="174.88,-146.5 174.88,-182.5 228.88,-182.5 228.88,-146.5 174.88,-146.5"/>
<text text-anchor="middle" x="201.88" y="-159.82" font-family="Times,serif" font-size="14.00">gdb</text>
</g>
<!-- gdb&#45;&gt;libncursesw.so.6 -->
<g id="edge3" class="edge">
<title>gdb&#45;&gt;libncursesw.so.6</title>
<path fill="none" stroke="black" d="M174.88,-149.3C155.93,-139.34 130.22,-125.81 108.64,-114.46"/>
<polygon fill="black" stroke="black" points="110.53,-110.98 100.05,-109.42 107.27,-117.18 110.53,-110.98"/>
</g>
<!-- gdb&#45;&gt;libtinfo.so.6 -->
<g id="edge1" class="edge">
<title>gdb&#45;&gt;libtinfo.so.6</title>
<path fill="none" stroke="black" d="M201.88,-146.67C201.88,-138.72 201.88,-129.01 201.88,-120.02"/>
<polygon fill="black" stroke="black" points="205.38,-120.21 201.88,-110.21 198.38,-120.21 205.38,-120.21"/>
</g>
<!-- libreadline.so.7 -->
<g id="node6" class="node">
<title>libreadline.so.7</title>
<polygon fill="none" stroke="black" points="270.75,-73.5 270.75,-109.5 397,-109.5 397,-73.5 270.75,-73.5"/>
<text text-anchor="middle" x="333.88" y="-86.83" font-family="Times,serif" font-size="14.00">libreadline.so.7</text>
</g>
<!-- gdb&#45;&gt;libreadline.so.7 -->
<g id="edge2" class="edge">
<title>gdb&#45;&gt;libreadline.so.7</title>
<path fill="none" stroke="black" d="M228.59,-149.13C247.06,-139.2 271.98,-125.79 292.94,-114.52"/>
<polygon fill="black" stroke="black" points="294.41,-117.16 301.56,-109.34 291.1,-111 294.41,-117.16"/>
</g>
<!-- libreadline.so.7&#45;&gt;libncurses.so.6 -->
<g id="edge4" class="edge">
<title>libreadline.so.7&#45;&gt;libncurses.so.6</title>
<path fill="none" stroke="black" d="M333.88,-73.67C333.88,-65.72 333.88,-56.01 333.88,-47.02"/>
<polygon fill="black" stroke="black" points="337.38,-47.21 333.88,-37.21 330.38,-47.21 337.38,-47.21"/>
</g>
</g>
</svg>
