<?xml version="1.0" encoding="UTF-8" standalone="no"?>
<!DOCTYPE svg PUBLIC "-//W3C//DTD SVG 1.1//EN"
 "http://www.w3.org/Graphics/SVG/1.1/DTD/svg11.dtd">
<!-- Generated by graphviz version 8.1.0 (0)
 -->
<!-- Pages: 1 -->
<svg width="722pt" height="209pt"
 viewBox="0.00 0.00 721.88 209.25" xmlns="http://www.w3.org/2000/svg" xmlns:xlink="http://www.w3.org/1999/xlink">
<g id="graph0" class="graph" transform="scale(1 1) rotate(0) translate(4 205.25)">
<polygon fill="white" stroke="none" points="-4,4 -4,-205.25 717.88,-205.25 717.88,4 -4,4"/>
<!-- strip -->
<g id="node1" class="node">
<title>strip</title>
<polygon fill="none" stroke="black" points="15.88,-164.75 15.88,-200.75 69.88,-200.75 69.88,-164.75 15.88,-164.75"/>
<text text-anchor="middle" x="42.75" y="-178.07" font-family="Times,serif" font-size="14.00">strip</text>
</g>
<!-- strip&#45;2.38 -->
<g id="node2" class="node">
<title>strip&#45;2.38</title>
<polygon fill="none" stroke="black" points="0,-74.5 0,-110.5 85.75,-110.5 85.75,-74.5 0,-74.5"/>
<text text-anchor="middle" x="42.88" y="-87.83" font-family="Times,serif" font-size="14.00">strip&#45;2.38</text>
</g>
<!-- strip&#45;&gt;strip&#45;2.38 -->
<g id="edge1" class="edge">
<title>strip&#45;&gt;strip&#45;2.38</title>
<path fill="none" stroke="black" d="M42.88,-165.15C42.88,-152.78 42.88,-135.6 42.88,-121.17"/>
<polygon fill="black" stroke="black" points="46.38,-121.32 42.88,-111.32 39.38,-121.32 46.38,-121.32"/>
<text text-anchor="middle" x="70.62" y="-132.95" font-family="Times,serif" font-size="14.00">symlink</text>
</g>
<!-- .../binutils/.../2.38/libbfd&#45;2.38.so -->
<g id="node3" class="node">
<title>.../binutils/.../2.38/libbfd&#45;2.38.so</title>
<polygon fill="none" stroke="black" points="14.88,-0.5 14.88,-36.5 258.88,-36.5 258.88,-0.5 14.88,-0.5"/>
<text text-anchor="middle" x="136.88" y="-13.82" font-family="Times,serif" font-size="14.00">.../binutils/.../2.38/libbfd&#45;2.38.so</text>
</g>
<!-- strip&#45;2.38&#45;&gt;.../binutils/.../2.38/libbfd&#45;2.38.so -->
<g id="edge2" class="edge">
<title>strip&#45;2.38&#45;&gt;.../binutils/.../2.38/libbfd&#45;2.38.so</title>
<path fill="none" stroke="black" d="M64.68,-74.8C77.04,-65.33 92.72,-53.32 106.3,-42.92"/>
<polygon fill="black" stroke="black" points="108.06,-45.22 113.87,-36.36 103.8,-39.66 108.06,-45.22"/>
</g>
<!-- ld&#45;2.38 -->
<g id="node4" class="node">
<title>ld&#45;2.38</title>
<polygon fill="none" stroke="black" points="104.12,-74.5 104.12,-110.5 169.62,-110.5 169.62,-74.5 104.12,-74.5"/>
<text text-anchor="middle" x="136.88" y="-87.83" font-family="Times,serif" font-size="14.00">ld&#45;2.38</text>
</g>
<!-- ld&#45;2.38&#45;&gt;.../binutils/.../2.38/libbfd&#45;2.38.so -->
<g id="edge3" class="edge">
<title>ld&#45;2.38&#45;&gt;.../binutils/.../2.38/libbfd&#45;2.38.so</title>
<path fill="none" stroke="black" d="M136.88,-74.8C136.88,-66.53 136.88,-56.33 136.88,-46.96"/>
<polygon fill="black" stroke="black" points="140.38,-47.11 136.88,-37.11 133.38,-47.11 140.38,-47.11"/>
</g>
<!-- ... -->
<g id="node5" class="node">
<title>...</title>
<polygon fill="none" stroke="black" points="187.88,-74.5 187.88,-110.5 241.88,-110.5 241.88,-74.5 187.88,-74.5"/>
<text text-anchor="middle" x="214.62" y="-87.83" font-family="Times,serif" font-size="14.00">...</text>
</g>
<!-- ...&#45;&gt;.../binutils/.../2.38/libbfd&#45;2.38.so -->
<g id="edge4" class="edge">
<title>...&#45;&gt;.../binutils/.../2.38/libbfd&#45;2.38.so</title>
<path fill="none" stroke="black" d="M196.78,-74.8C186.81,-65.6 174.26,-54.01 163.22,-43.82"/>
<polygon fill="black" stroke="black" points="165.86,-41.57 156.14,-37.36 161.11,-46.71 165.86,-41.57"/>
</g>
<!-- ld&#45;2.37 -->
<g id="node6" class="node">
<title>ld&#45;2.37</title>
<polygon fill="none" stroke="black" points="310.12,-164.75 310.12,-200.75 375.62,-200.75 375.62,-164.75 310.12,-164.75"/>
<text text-anchor="middle" x="342.88" y="-178.07" font-family="Times,serif" font-size="14.00">ld&#45;2.37</text>
</g>
<!-- .../binutils/.../2.37/libbfd&#45;2.37.so -->
<g id="node7" class="node">
<title>.../binutils/.../2.37/libbfd&#45;2.37.so</title>
<polygon fill="none" stroke="black" points="259.88,-74.5 259.88,-110.5 503.88,-110.5 503.88,-74.5 259.88,-74.5"/>
<text text-anchor="middle" x="381.88" y="-87.83" font-family="Times,serif" font-size="14.00">.../binutils/.../2.37/libbfd&#45;2.37.so</text>
</g>
<!-- ld&#45;2.37&#45;&gt;.../binutils/.../2.37/libbfd&#45;2.37.so -->
<g id="edge5" class="edge">
<title>ld&#45;2.37&#45;&gt;.../binutils/.../2.37/libbfd&#45;2.37.so</title>
<path fill="none" stroke="black" d="M350.21,-165.15C355.79,-152.54 363.57,-134.92 370.02,-120.31"/>
<polygon fill="black" stroke="black" points="373.6,-121.89 374.44,-111.32 367.2,-119.06 373.6,-121.89"/>
</g>
<!-- ...  -->
<g id="node8" class="node">
<title>... </title>
<polygon fill="none" stroke="black" points="393.88,-164.75 393.88,-200.75 447.88,-200.75 447.88,-164.75 393.88,-164.75"/>
<text text-anchor="middle" x="420.88" y="-178.07" font-family="Times,serif" font-size="14.00">... </text>
</g>
<!-- ... &#45;&gt;.../binutils/.../2.37/libbfd&#45;2.37.so -->
<g id="edge6" class="edge">
<title>... &#45;&gt;.../binutils/.../2.37/libbfd&#45;2.37.so</title>
<path fill="none" stroke="black" d="M413.54,-165.15C407.96,-152.54 400.18,-134.92 393.73,-120.31"/>
<polygon fill="black" stroke="black" points="396.55,-119.06 389.31,-111.32 390.15,-121.89 396.55,-119.06"/>
</g>
<!-- perf -->
<g id="node9" class="node">
<title>perf</title>
<polygon fill="none" stroke="black" points="515.88,-164.75 515.88,-200.75 569.88,-200.75 569.88,-164.75 515.88,-164.75"/>
<text text-anchor="middle" x="542.5" y="-178.07" font-family="Times,serif" font-size="14.00">perf</text>
</g>
<!-- /usr/lib64/libbfd&#45;2.38.so -->
<g id="node10" class="node">
<title>/usr/lib64/libbfd&#45;2.38.so</title>
<polygon fill="none" stroke="black" points="521.75,-74.5 521.75,-110.5 708,-110.5 708,-74.5 521.75,-74.5"/>
<text text-anchor="middle" x="614.88" y="-87.83" font-family="Times,serif" font-size="14.00">/usr/lib64/libbfd&#45;2.38.so</text>
</g>
<!-- perf&#45;&gt;/usr/lib64/libbfd&#45;2.38.so -->
<g id="edge7" class="edge">
<title>perf&#45;&gt;/usr/lib64/libbfd&#45;2.38.so</title>
<path fill="none" stroke="black" d="M556.42,-165.15C567.11,-152.05 582.2,-133.55 594.37,-118.63"/>
<polygon fill="black" stroke="black" points="597.54,-121.29 601.15,-111.32 592.11,-116.86 597.54,-121.29"/>
</g>
<!-- ghc -->
<g id="node11" class="node">
<title>ghc</title>
<polygon fill="none" stroke="black" points="587.88,-164.75 587.88,-200.75 641.88,-200.75 641.88,-164.75 587.88,-164.75"/>
<text text-anchor="middle" x="614.62" y="-178.07" font-family="Times,serif" font-size="14.00">ghc</text>
</g>
<!-- ghc&#45;&gt;/usr/lib64/libbfd&#45;2.38.so -->
<g id="edge8" class="edge">
<title>ghc&#45;&gt;/usr/lib64/libbfd&#45;2.38.so</title>
<path fill="none" stroke="black" d="M614.88,-165.15C614.88,-152.78 614.88,-135.6 614.88,-121.17"/>
<polygon fill="black" stroke="black" points="618.38,-121.32 614.88,-111.32 611.38,-121.32 618.38,-121.32"/>
</g>
<!-- ... &#160; -->
<g id="node12" class="node">
<title>... &#160;</title>
<polygon fill="none" stroke="black" points="659.88,-164.75 659.88,-200.75 713.88,-200.75 713.88,-164.75 659.88,-164.75"/>
<text text-anchor="middle" x="686.62" y="-178.07" font-family="Times,serif" font-size="14.00">... &#160;</text>
</g>
<!-- ... &#160;&#45;&gt;/usr/lib64/libbfd&#45;2.38.so -->
<g id="edge9" class="edge">
<title>... &#160;&#45;&gt;/usr/lib64/libbfd&#45;2.38.so</title>
<path fill="none" stroke="black" d="M673.33,-165.15C662.64,-152.05 647.55,-133.55 635.38,-118.63"/>
<polygon fill="black" stroke="black" points="637.64,-116.86 628.6,-111.32 632.21,-121.29 637.64,-116.86"/>
</g>
</g>
</svg>
