<?xml version="1.0" encoding="UTF-8" standalone="no"?>
<!DOCTYPE svg PUBLIC "-//W3C//DTD SVG 1.1//EN"
 "http://www.w3.org/Graphics/SVG/1.1/DTD/svg11.dtd">
<!-- Generated by graphviz version 12.2.1 (0)
 -->
<!-- Pages: 1 -->
<svg width="650pt" height="191pt"
 viewBox="0.00 0.00 650.38 191.00" xmlns="http://www.w3.org/2000/svg" xmlns:xlink="http://www.w3.org/1999/xlink">
<g id="graph0" class="graph" transform="scale(1 1) rotate(0) translate(4 187)">
<polygon fill="white" stroke="none" points="-4,4 -4,-187 646.38,-187 646.38,4 -4,4"/>
<!-- libmpfr.so.4 -->
<g id="node1" class="node">
<title>libmpfr.so.4</title>
<polygon fill="lightgreen" stroke="black" points="0,-73.5 0,-109.5 100.75,-109.5 100.75,-73.5 0,-73.5"/>
<text text-anchor="middle" x="50.38" y="-86.83" font-family="Times,serif" font-size="14.00">libmpfr.so.4</text>
</g>
<!-- libmpfr.so.3 -->
<g id="node2" class="node">
<title>libmpfr.so.3</title>
<polygon fill="lightgreen" stroke="black" points="117,-0.5 117,-36.5 217.75,-36.5 217.75,-0.5 117,-0.5"/>
<text text-anchor="middle" x="167.38" y="-13.82" font-family="Times,serif" font-size="14.00">libmpfr.so.3</text>
</g>
<!-- cc1 -->
<g id="node3" class="node">
<title>cc1</title>
<polygon fill="none" stroke="black" points="140.38,-146.5 140.38,-182.5 194.38,-182.5 194.38,-146.5 140.38,-146.5"/>
<text text-anchor="middle" x="167.38" y="-159.82" font-family="Times,serif" font-size="14.00">cc1</text>
</g>
<!-- cc1&#45;&gt;libmpfr.so.4 -->
<!-- cc1&#45;&gt;libmpfr.so.3 -->
<g id="edge3" class="edge">
<title>cc1&#45;&gt;libmpfr.so.3</title>
<path fill="none" stroke="black" d="M159.07,-146.12C154.63,-135.86 149.63,-122.49 147.38,-110 144.45,-93.82 144.45,-89.18 147.38,-73 148.93,-64.41 151.78,-55.41 154.85,-47.29"/>
<polygon fill="black" stroke="black" points="157.98,-48.87 158.5,-38.28 151.5,-46.23 157.98,-48.87"/>
</g>
<!-- libmpc.so.3 -->
<g id="node4" class="node">
<title>libmpc.so.3</title>
<polygon fill="none" stroke="black" points="156.5,-73.5 156.5,-109.5 254.25,-109.5 254.25,-73.5 156.5,-73.5"/>
<text text-anchor="middle" x="205.38" y="-86.83" font-family="Times,serif" font-size="14.00">libmpc.so.3</text>
</g>
<!-- cc1&#45;&gt;libmpc.so.3 -->
<g id="edge1" class="edge">
<title>cc1&#45;&gt;libmpc.so.3</title>
<path fill="none" stroke="black" d="M176.57,-146.31C180.87,-138.29 186.08,-128.55 190.89,-119.57"/>
<polygon fill="black" stroke="black" points="193.91,-121.33 195.55,-110.86 187.74,-118.03 193.91,-121.33"/>
</g>
<!-- ... -->
<g id="node5" class="node">
<title>...</title>
<polygon fill="none" stroke="black" points="272.38,-73.5 272.38,-109.5 326.38,-109.5 326.38,-73.5 272.38,-73.5"/>
<text text-anchor="middle" x="299.12" y="-86.83" font-family="Times,serif" font-size="14.00">...</text>
</g>
<!-- cc1&#45;&gt;... -->
<g id="edge5" class="edge">
<title>cc1&#45;&gt;...</title>
<path fill="none" stroke="black" d="M194.73,-148.79C214.19,-138.32 240.59,-124.12 262,-112.6"/>
<polygon fill="black" stroke="black" points="263.58,-115.73 270.73,-107.91 260.26,-109.56 263.58,-115.73"/>
</g>
<!-- libmpc.so.3&#45;&gt;libmpfr.so.3 -->
<g id="edge2" class="edge">
<title>libmpc.so.3&#45;&gt;libmpfr.so.3</title>
<path fill="none" stroke="black" d="M196.18,-73.31C191.88,-65.29 186.67,-55.55 181.86,-46.57"/>
<polygon fill="black" stroke="black" points="185.01,-45.03 177.2,-37.86 178.84,-48.33 185.01,-45.03"/>
</g>
<!-- libmpfr.so.4  -->
<g id="node6" class="node">
<title>libmpfr.so.4 </title>
<polygon fill="pink" stroke="black" points="466.75,-0.5 466.75,-36.5 572,-36.5 572,-0.5 466.75,-0.5"/>
<text text-anchor="middle" x="519.38" y="-13.82" font-family="Times,serif" font-size="14.00">libmpfr.so.4 </text>
</g>
<!-- libmpfr.so.3  -->
<g id="node7" class="node">
<title>libmpfr.so.3 </title>
<polygon fill="pink" stroke="black" points="344.75,-73.5 344.75,-109.5 450,-109.5 450,-73.5 344.75,-73.5"/>
<text text-anchor="middle" x="397.38" y="-86.83" font-family="Times,serif" font-size="14.00">libmpfr.so.3 </text>
</g>
<!-- cc1  -->
<g id="node8" class="node">
<title>cc1 </title>
<polygon fill="none" stroke="black" points="492.38,-146.5 492.38,-182.5 546.38,-182.5 546.38,-146.5 492.38,-146.5"/>
<text text-anchor="middle" x="519.12" y="-159.82" font-family="Times,serif" font-size="14.00">cc1 </text>
</g>
<!-- cc1 &#45;&gt;libmpfr.so.3  -->
<g id="edge8" class="edge">
<title>cc1 &#45;&gt;libmpfr.so.3 </title>
<path fill="none" stroke="black" d="M492,-147.57C475.83,-138.16 455.08,-126.08 437.14,-115.64"/>
<polygon fill="black" stroke="black" points="438.94,-112.64 428.53,-110.63 435.42,-118.69 438.94,-112.64"/>
</g>
<!-- libmpc.so.3  -->
<g id="node9" class="node">
<title>libmpc.so.3 </title>
<polygon fill="none" stroke="black" points="468.25,-73.5 468.25,-109.5 570.5,-109.5 570.5,-73.5 468.25,-73.5"/>
<text text-anchor="middle" x="519.38" y="-86.83" font-family="Times,serif" font-size="14.00">libmpc.so.3 </text>
</g>
<!-- cc1 &#45;&gt;libmpc.so.3  -->
<g id="edge6" class="edge">
<title>cc1 &#45;&gt;libmpc.so.3 </title>
<path fill="none" stroke="black" d="M519.38,-146.31C519.38,-138.73 519.38,-129.6 519.38,-121.04"/>
<polygon fill="black" stroke="black" points="522.88,-121.04 519.38,-111.04 515.88,-121.04 522.88,-121.04"/>
</g>
<!-- ...  -->
<g id="node10" class="node">
<title>... </title>
<polygon fill="none" stroke="black" points="588.38,-73.5 588.38,-109.5 642.38,-109.5 642.38,-73.5 588.38,-73.5"/>
<text text-anchor="middle" x="615.38" y="-86.83" font-family="Times,serif" font-size="14.00">... </text>
</g>
<!-- cc1 &#45;&gt;...  -->
<g id="edge9" class="edge">
<title>cc1 &#45;&gt;... </title>
<path fill="none" stroke="black" d="M542.61,-146.31C554.67,-137.4 569.6,-126.36 582.79,-116.6"/>
<polygon fill="black" stroke="black" points="584.84,-119.44 590.8,-110.67 580.68,-113.81 584.84,-119.44"/>
</g>
<!-- libmpc.so.3 &#45;&gt;libmpfr.so.4  -->
<g id="edge7" class="edge">
<title>libmpc.so.3 &#45;&gt;libmpfr.so.4 </title>
<path fill="none" stroke="red" d="M519.38,-73.31C519.38,-65.73 519.38,-56.6 519.38,-48.04"/>
<polygon fill="red" stroke="red" points="522.88,-48.04 519.38,-38.04 515.88,-48.04 522.88,-48.04"/>
</g>
</g>
</svg>
