<?xml version="1.0" encoding="UTF-8" standalone="no"?>
<!DOCTYPE svg PUBLIC "-//W3C//DTD SVG 1.1//EN"
 "http://www.w3.org/Graphics/SVG/1.1/DTD/svg11.dtd">
<!-- Generated by graphviz version 12.1.0 (0)
 -->
<!-- Pages: 1 -->
<svg width="1807pt" height="620pt"
 viewBox="0.00 0.00 1806.62 620.00" xmlns="http://www.w3.org/2000/svg" xmlns:xlink="http://www.w3.org/1999/xlink">
<g id="graph0" class="graph" transform="scale(1 1) rotate(0) translate(4 616)">
<polygon fill="white" stroke="none" points="-4,4 -4,-616 1802.62,-616 1802.62,4 -4,4"/>
<!-- gdb -->
<g id="node1" class="node">
<title>gdb</title>
<polygon fill="none" stroke="black" points="1268,-612 1214,-612 1214,-576 1268,-576 1268,-612"/>
<text text-anchor="middle" x="1241" y="-589.33" font-family="Times,serif" font-size="14.00">gdb</text>
</g>
<!-- ld&#45;linux&#45;x86&#45;64.so.2 -->
<g id="node2" class="node">
<title>ld&#45;linux&#45;x86&#45;64.so.2</title>
<polygon fill="none" stroke="black" points="447.75,-36 292.25,-36 292.25,0 447.75,0 447.75,-36"/>
<text text-anchor="middle" x="370" y="-13.32" font-family="Times,serif" font-size="14.00">ld&#45;linux&#45;x86&#45;64.so.2</text>
</g>
<!-- gdb&#45;&gt;ld&#45;linux&#45;x86&#45;64.so.2 -->
<g id="edge1" class="edge">
<title>gdb&#45;&gt;ld&#45;linux&#45;x86&#45;64.so.2</title>
<path fill="none" stroke="black" d="M1213.63,-592.83C1031.34,-591.37 0,-577.52 0,-451 0,-451 0,-451 0,-161 0,-90.98 65.75,-99.84 130,-72 177.75,-51.31 234.46,-38.31 280.77,-30.36"/>
<polygon fill="black" stroke="black" points="281.22,-33.84 290.51,-28.75 280.07,-26.93 281.22,-33.84"/>
</g>
<!-- libboost_regex.so.1.77.0 -->
<g id="node3" class="node">
<title>libboost_regex.so.1.77.0</title>
<polygon fill="none" stroke="black" points="868,-468 678,-468 678,-432 868,-432 868,-468"/>
<text text-anchor="middle" x="773" y="-445.32" font-family="Times,serif" font-size="14.00">libboost_regex.so.1.77.0</text>
</g>
<!-- gdb&#45;&gt;libboost_regex.so.1.77.0 -->
<g id="edge2" class="edge">
<title>gdb&#45;&gt;libboost_regex.so.1.77.0</title>
<path fill="none" stroke="black" d="M1213.53,-593.81C1151.55,-594.61 997.28,-590.88 882,-540 848.41,-525.17 816.69,-497.08 796.22,-476.41"/>
<polygon fill="black" stroke="black" points="798.95,-474.19 789.48,-469.43 793.91,-479.05 798.95,-474.19"/>
</g>
<!-- libcrypt.so.1 -->
<g id="node4" class="node">
<title>libcrypt.so.1</title>
<polygon fill="none" stroke="black" points="1699.62,-180 1594.38,-180 1594.38,-144 1699.62,-144 1699.62,-180"/>
<text text-anchor="middle" x="1647" y="-157.32" font-family="Times,serif" font-size="14.00">libcrypt.so.1</text>
</g>
<!-- gdb&#45;&gt;libcrypt.so.1 -->
<g id="edge3" class="edge">
<title>gdb&#45;&gt;libcrypt.so.1</title>
<path fill="none" stroke="black" d="M1268.44,-593.54C1331.92,-593.87 1492.76,-589.33 1615,-540 1677.57,-514.75 1738,-518.48 1738,-451 1738,-451 1738,-451 1738,-305 1738,-264.55 1740.94,-249.98 1719,-216 1711.57,-204.49 1700.7,-194.61 1689.65,-186.62"/>
<polygon fill="black" stroke="black" points="1691.89,-183.91 1681.65,-181.19 1687.96,-189.7 1691.89,-183.91"/>
</g>
<!-- libc.so.6 -->
<g id="node5" class="node">
<title>libc.so.6</title>
<polygon fill="none" stroke="black" points="1130.62,-108 1055.38,-108 1055.38,-72 1130.62,-72 1130.62,-108"/>
<text text-anchor="middle" x="1093" y="-85.33" font-family="Times,serif" font-size="14.00">libc.so.6</text>
</g>
<!-- gdb&#45;&gt;libc.so.6 -->
<g id="edge4" class="edge">
<title>gdb&#45;&gt;libc.so.6</title>
<path fill="none" stroke="black" d="M1263.56,-575.62C1274.62,-566.11 1287.38,-553.53 1296,-540 1336.47,-476.52 1418.81,-287.42 1395,-216 1382.35,-178.05 1374.7,-165.55 1341,-144 1280.13,-105.08 1195.4,-94.28 1142.41,-91.54"/>
<polygon fill="black" stroke="black" points="1142.61,-88.04 1132.47,-91.11 1142.31,-95.04 1142.61,-88.04"/>
</g>
<!-- libdl.so.2 -->
<g id="node6" class="node">
<title>libdl.so.2</title>
<polygon fill="none" stroke="black" points="1798.62,-180 1717.38,-180 1717.38,-144 1798.62,-144 1798.62,-180"/>
<text text-anchor="middle" x="1758" y="-157.32" font-family="Times,serif" font-size="14.00">libdl.so.2</text>
</g>
<!-- gdb&#45;&gt;libdl.so.2 -->
<g id="edge5" class="edge">
<title>gdb&#45;&gt;libdl.so.2</title>
<path fill="none" stroke="black" d="M1268.46,-591.84C1352.39,-587.96 1604.24,-573.74 1678,-540 1731.5,-515.53 1776,-509.84 1776,-451 1776,-451 1776,-451 1776,-305 1776,-265.43 1769.03,-220.14 1763.77,-191.56"/>
<polygon fill="black" stroke="black" points="1767.24,-191.05 1761.93,-181.89 1760.36,-192.36 1767.24,-191.05"/>
</g>
<!-- libexpat.so.1 -->
<g id="node7" class="node">
<title>libexpat.so.1</title>
<polygon fill="none" stroke="black" points="173.75,-252 66.25,-252 66.25,-216 173.75,-216 173.75,-252"/>
<text text-anchor="middle" x="120" y="-229.32" font-family="Times,serif" font-size="14.00">libexpat.so.1</text>
</g>
<!-- gdb&#45;&gt;libexpat.so.1 -->
<g id="edge6" class="edge">
<title>gdb&#45;&gt;libexpat.so.1</title>
<path fill="none" stroke="black" d="M1213.57,-592.24C1078.67,-588.35 488.94,-569.76 413,-540 274.41,-485.7 171.59,-326.15 134.79,-262.08"/>
<polygon fill="black" stroke="black" points="137.97,-260.61 130,-253.62 131.88,-264.05 137.97,-260.61"/>
</g>
<!-- libgcc_s.so.1 -->
<g id="node8" class="node">
<title>libgcc_s.so.1</title>
<polygon fill="none" stroke="black" points="1146,-180 1040,-180 1040,-144 1146,-144 1146,-180"/>
<text text-anchor="middle" x="1093" y="-157.32" font-family="Times,serif" font-size="14.00">libgcc_s.so.1</text>
</g>
<!-- gdb&#45;&gt;libgcc_s.so.1 -->
<g id="edge7" class="edge">
<title>gdb&#45;&gt;libgcc_s.so.1</title>
<path fill="none" stroke="black" d="M1237.16,-575.61C1231.6,-548.94 1222,-496.27 1222,-451 1222,-451 1222,-451 1222,-377 1222,-299.16 1158.63,-225.31 1120.72,-188.09"/>
<polygon fill="black" stroke="black" points="1123.32,-185.74 1113.68,-181.34 1118.47,-190.79 1123.32,-185.74"/>
</g>
<!-- libgmp.so.10 -->
<g id="node9" class="node">
<title>libgmp.so.10</title>
<polygon fill="none" stroke="black" points="1310.12,-180 1201.88,-180 1201.88,-144 1310.12,-144 1310.12,-180"/>
<text text-anchor="middle" x="1256" y="-157.32" font-family="Times,serif" font-size="14.00">libgmp.so.10</text>
</g>
<!-- gdb&#45;&gt;libgmp.so.10 -->
<g id="edge8" class="edge">
<title>gdb&#45;&gt;libgmp.so.10</title>
<path fill="none" stroke="black" d="M1244.84,-575.61C1250.4,-548.94 1260,-496.27 1260,-451 1260,-451 1260,-451 1260,-377 1260,-310.68 1258.06,-232.83 1256.88,-191.75"/>
<polygon fill="black" stroke="black" points="1260.38,-191.88 1256.59,-181.99 1253.39,-192.09 1260.38,-191.88"/>
</g>
<!-- libipt.so.2 -->
<g id="node10" class="node">
<title>libipt.so.2</title>
<polygon fill="none" stroke="black" points="431.62,-324 344.38,-324 344.38,-288 431.62,-288 431.62,-324"/>
<text text-anchor="middle" x="388" y="-301.32" font-family="Times,serif" font-size="14.00">libipt.so.2</text>
</g>
<!-- gdb&#45;&gt;libipt.so.2 -->
<g id="edge9" class="edge">
<title>gdb&#45;&gt;libipt.so.2</title>
<path fill="none" stroke="black" d="M1213.72,-593.05C1080.91,-593.07 506.01,-590.21 446,-540 385.3,-489.22 382.73,-385.62 385.46,-335.46"/>
<polygon fill="black" stroke="black" points="388.93,-335.93 386.11,-325.72 381.95,-335.46 388.93,-335.93"/>
</g>
<!-- libmpfr.so.6 -->
<g id="node11" class="node">
<title>libmpfr.so.6</title>
<polygon fill="none" stroke="black" points="1386.38,-252 1285.62,-252 1285.62,-216 1386.38,-216 1386.38,-252"/>
<text text-anchor="middle" x="1336" y="-229.32" font-family="Times,serif" font-size="14.00">libmpfr.so.6</text>
</g>
<!-- gdb&#45;&gt;libmpfr.so.6 -->
<g id="edge10" class="edge">
<title>gdb&#45;&gt;libmpfr.so.6</title>
<path fill="none" stroke="black" d="M1253.67,-575.57C1260.47,-565.56 1268.55,-552.52 1274,-540 1290.34,-502.43 1298,-491.97 1298,-451 1298,-451 1298,-451 1298,-377 1298,-336.18 1312.84,-290.93 1323.97,-262.72"/>
<polygon fill="black" stroke="black" points="1327.2,-264.08 1327.74,-253.49 1320.72,-261.43 1327.2,-264.08"/>
</g>
<!-- libm.so.6 -->
<g id="node12" class="node">
<title>libm.so.6</title>
<polygon fill="none" stroke="black" points="325.62,-180 244.38,-180 244.38,-144 325.62,-144 325.62,-180"/>
<text text-anchor="middle" x="285" y="-157.32" font-family="Times,serif" font-size="14.00">libm.so.6</text>
</g>
<!-- gdb&#45;&gt;libm.so.6 -->
<g id="edge11" class="edge">
<title>gdb&#45;&gt;libm.so.6</title>
<path fill="none" stroke="black" d="M1213.53,-592.73C1071.43,-591.18 423.24,-581.83 345,-540 248.34,-488.32 233.56,-433.34 226,-324 222.64,-275.38 223.7,-259.84 245,-216 249.49,-206.76 255.7,-197.53 261.89,-189.42"/>
<polygon fill="black" stroke="black" points="264.58,-191.66 268.1,-181.67 259.12,-187.29 264.58,-191.66"/>
</g>
<!-- libncursesw.so.6 -->
<g id="node13" class="node">
<title>libncursesw.so.6</title>
<polygon fill="none" stroke="black" points="1497.88,-468 1364.12,-468 1364.12,-432 1497.88,-432 1497.88,-468"/>
<text text-anchor="middle" x="1431" y="-445.32" font-family="Times,serif" font-size="14.00">libncursesw.so.6</text>
</g>
<!-- gdb&#45;&gt;libncursesw.so.6 -->
<g id="edge12" class="edge">
<title>gdb&#45;&gt;libncursesw.so.6</title>
<path fill="none" stroke="black" d="M1268.13,-583.17C1291.21,-574.06 1324.56,-559.04 1350,-540 1373.9,-522.12 1396.35,-496.47 1411.52,-477.3"/>
<polygon fill="black" stroke="black" points="1414.28,-479.46 1417.64,-469.41 1408.75,-475.17 1414.28,-479.46"/>
</g>
<!-- libpthread.so.0 -->
<g id="node14" class="node">
<title>libpthread.so.0</title>
<polygon fill="none" stroke="black" points="506,-252 382,-252 382,-216 506,-216 506,-252"/>
<text text-anchor="middle" x="444" y="-229.32" font-family="Times,serif" font-size="14.00">libpthread.so.0</text>
</g>
<!-- gdb&#45;&gt;libpthread.so.0 -->
<g id="edge13" class="edge">
<title>gdb&#45;&gt;libpthread.so.0</title>
<path fill="none" stroke="black" d="M1213.66,-590.99C1075.43,-580.48 460,-529.3 460,-451 460,-451 460,-451 460,-377 460,-337.49 453.81,-292.19 449.13,-263.59"/>
<polygon fill="black" stroke="black" points="452.61,-263.19 447.49,-253.91 445.71,-264.35 452.61,-263.19"/>
</g>
<!-- libpython3.9.so.1.0 -->
<g id="node15" class="node">
<title>libpython3.9.so.1.0</title>
<polygon fill="none" stroke="black" points="1709.62,-252 1556.38,-252 1556.38,-216 1709.62,-216 1709.62,-252"/>
<text text-anchor="middle" x="1633" y="-229.32" font-family="Times,serif" font-size="14.00">libpython3.9.so.1.0</text>
</g>
<!-- gdb&#45;&gt;libpython3.9.so.1.0 -->
<g id="edge14" class="edge">
<title>gdb&#45;&gt;libpython3.9.so.1.0</title>
<path fill="none" stroke="black" d="M1268.41,-590.68C1337.05,-584.54 1514.54,-566.5 1567,-540 1617.5,-514.49 1658,-507.57 1658,-451 1658,-451 1658,-451 1658,-377 1658,-337.14 1648.33,-291.92 1641.01,-263.43"/>
<polygon fill="black" stroke="black" points="1644.4,-262.54 1638.45,-253.78 1637.63,-264.34 1644.4,-262.54"/>
</g>
<!-- libreadline.so.8 -->
<g id="node16" class="node">
<title>libreadline.so.8</title>
<polygon fill="none" stroke="black" points="1528.12,-540 1401.88,-540 1401.88,-504 1528.12,-504 1528.12,-540"/>
<text text-anchor="middle" x="1465" y="-517.33" font-family="Times,serif" font-size="14.00">libreadline.so.8</text>
</g>
<!-- gdb&#45;&gt;libreadline.so.8 -->
<g id="edge15" class="edge">
<title>gdb&#45;&gt;libreadline.so.8</title>
<path fill="none" stroke="black" d="M1268.47,-584.42C1300.67,-574.35 1355.16,-557.33 1398.61,-543.75"/>
<polygon fill="black" stroke="black" points="1399.45,-547.15 1407.95,-540.83 1397.36,-540.47 1399.45,-547.15"/>
</g>
<!-- libsource&#45;highlight.so.4 -->
<g id="node17" class="node">
<title>libsource&#45;highlight.so.4</title>
<polygon fill="none" stroke="black" points="1194,-540 1010,-540 1010,-504 1194,-504 1194,-540"/>
<text text-anchor="middle" x="1102" y="-517.33" font-family="Times,serif" font-size="14.00">libsource&#45;highlight.so.4</text>
</g>
<!-- gdb&#45;&gt;libsource&#45;highlight.so.4 -->
<g id="edge16" class="edge">
<title>gdb&#45;&gt;libsource&#45;highlight.so.4</title>
<path fill="none" stroke="black" d="M1213.54,-579.17C1194.48,-569.57 1168.67,-556.58 1146.68,-545.5"/>
<polygon fill="black" stroke="black" points="1148.42,-542.46 1137.91,-541.08 1145.27,-548.71 1148.42,-542.46"/>
</g>
<!-- libstdc++.so.6 -->
<g id="node18" class="node">
<title>libstdc++.so.6</title>
<polygon fill="none" stroke="black" points="907.88,-252 786.12,-252 786.12,-216 907.88,-216 907.88,-252"/>
<text text-anchor="middle" x="847" y="-229.32" font-family="Times,serif" font-size="14.00">libstdc++.so.6</text>
</g>
<!-- gdb&#45;&gt;libstdc++.so.6 -->
<g id="edge17" class="edge">
<title>gdb&#45;&gt;libstdc++.so.6</title>
<path fill="none" stroke="black" d="M1213.67,-591.25C1167.6,-587.38 1072.49,-575.44 1001,-540 946.19,-512.83 896,-512.18 896,-451 896,-451 896,-451 896,-377 896,-335.14 876.74,-289.96 862.37,-262.07"/>
<polygon fill="black" stroke="black" points="865.65,-260.79 857.86,-253.6 859.47,-264.08 865.65,-260.79"/>
</g>
<!-- libz.so.1 -->
<g id="node19" class="node">
<title>libz.so.1</title>
<polygon fill="none" stroke="black" points="1629.62,-468 1554.38,-468 1554.38,-432 1629.62,-432 1629.62,-468"/>
<text text-anchor="middle" x="1592" y="-445.32" font-family="Times,serif" font-size="14.00">libz.so.1</text>
</g>
<!-- gdb&#45;&gt;libz.so.1 -->
<g id="edge18" class="edge">
<title>gdb&#45;&gt;libz.so.1</title>
<path fill="none" stroke="black" d="M1268.17,-590.96C1332.73,-585.66 1493.18,-569.8 1537,-540 1558.67,-525.26 1573.38,-498.87 1582.1,-478.64"/>
<polygon fill="black" stroke="black" points="1585.27,-480.13 1585.76,-469.55 1578.78,-477.51 1585.27,-480.13"/>
</g>
<!-- libboost_regex.so.1.77.0&#45;&gt;libc.so.6 -->
<g id="edge19" class="edge">
<title>libboost_regex.so.1.77.0&#45;&gt;libc.so.6</title>
<path fill="none" stroke="black" d="M809.17,-431.73C825.66,-422.67 844.66,-410.43 859,-396 951.34,-303.04 920.93,-238.2 1012,-144 1022.89,-132.74 1036.59,-122.65 1049.61,-114.37"/>
<polygon fill="black" stroke="black" points="1051.38,-117.39 1058.09,-109.19 1047.73,-111.42 1051.38,-117.39"/>
</g>
<!-- libboost_regex.so.1.77.0&#45;&gt;libgcc_s.so.1 -->
<g id="edge20" class="edge">
<title>libboost_regex.so.1.77.0&#45;&gt;libgcc_s.so.1</title>
<path fill="none" stroke="black" d="M868.18,-442.24C938.3,-435.24 1025.68,-421.58 1051,-396 1105.52,-340.93 1102.52,-240.61 1097.15,-191.55"/>
<polygon fill="black" stroke="black" points="1100.64,-191.25 1095.95,-181.74 1093.69,-192.1 1100.64,-191.25"/>
</g>
<!-- libboost_regex.so.1.77.0&#45;&gt;libm.so.6 -->
<g id="edge24" class="edge">
<title>libboost_regex.so.1.77.0&#45;&gt;libm.so.6</title>
<path fill="none" stroke="black" d="M677.5,-434.65C557.97,-414.78 362.71,-375.47 312,-324 277.51,-288.99 277.36,-227.54 280.85,-191.53"/>
<polygon fill="black" stroke="black" points="284.29,-192.21 281.95,-181.88 277.34,-191.41 284.29,-192.21"/>
</g>
<!-- libboost_regex.so.1.77.0&#45;&gt;libpthread.so.0 -->
<g id="edge25" class="edge">
<title>libboost_regex.so.1.77.0&#45;&gt;libpthread.so.0</title>
<path fill="none" stroke="black" d="M714.1,-431.51C657.28,-412.34 571.37,-377.07 512,-324 491.6,-305.77 473.08,-280.69 460.54,-261.8"/>
<polygon fill="black" stroke="black" points="463.58,-260.05 455.2,-253.56 457.7,-263.86 463.58,-260.05"/>
</g>
<!-- libboost_regex.so.1.77.0&#45;&gt;libstdc++.so.6 -->
<g id="edge27" class="edge">
<title>libboost_regex.so.1.77.0&#45;&gt;libstdc++.so.6</title>
<path fill="none" stroke="black" d="M804.71,-431.71C817.71,-422.85 831.45,-410.79 839,-396 860.53,-353.82 857.09,-297.06 852.29,-263.42"/>
<polygon fill="black" stroke="black" points="855.76,-262.97 850.74,-253.64 848.85,-264.06 855.76,-262.97"/>
</g>
<!-- libicudata.so.71 -->
<g id="node20" class="node">
<title>libicudata.so.71</title>
<polygon fill="none" stroke="black" points="767.62,-252 638.38,-252 638.38,-216 767.62,-216 767.62,-252"/>
<text text-anchor="middle" x="703" y="-229.32" font-family="Times,serif" font-size="14.00">libicudata.so.71</text>
</g>
<!-- libboost_regex.so.1.77.0&#45;&gt;libicudata.so.71 -->
<g id="edge21" class="edge">
<title>libboost_regex.so.1.77.0&#45;&gt;libicudata.so.71</title>
<path fill="none" stroke="black" d="M729.52,-431.51C714.54,-423.13 699.43,-411.48 691,-396 678.95,-373.87 689.75,-303.39 697.24,-263.4"/>
<polygon fill="black" stroke="black" points="700.64,-264.26 699.1,-253.78 693.77,-262.94 700.64,-264.26"/>
</g>
<!-- libicui18n.so.71 -->
<g id="node21" class="node">
<title>libicui18n.so.71</title>
<polygon fill="none" stroke="black" points="829.62,-396 700.38,-396 700.38,-360 829.62,-360 829.62,-396"/>
<text text-anchor="middle" x="765" y="-373.32" font-family="Times,serif" font-size="14.00">libicui18n.so.71</text>
</g>
<!-- libboost_regex.so.1.77.0&#45;&gt;libicui18n.so.71 -->
<g id="edge22" class="edge">
<title>libboost_regex.so.1.77.0&#45;&gt;libicui18n.so.71</title>
<path fill="none" stroke="black" d="M771.02,-431.7C770.19,-424.41 769.2,-415.73 768.26,-407.54"/>
<polygon fill="black" stroke="black" points="771.74,-407.15 767.13,-397.61 764.78,-407.94 771.74,-407.15"/>
</g>
<!-- libicuuc.so.71 -->
<g id="node22" class="node">
<title>libicuuc.so.71</title>
<polygon fill="none" stroke="black" points="678.12,-324 563.88,-324 563.88,-288 678.12,-288 678.12,-324"/>
<text text-anchor="middle" x="621" y="-301.32" font-family="Times,serif" font-size="14.00">libicuuc.so.71</text>
</g>
<!-- libboost_regex.so.1.77.0&#45;&gt;libicuuc.so.71 -->
<g id="edge23" class="edge">
<title>libboost_regex.so.1.77.0&#45;&gt;libicuuc.so.71</title>
<path fill="none" stroke="black" d="M713.92,-431.59C694.13,-423.39 673.25,-411.84 658,-396 641.95,-379.33 632.44,-354.7 627.09,-335.57"/>
<polygon fill="black" stroke="black" points="630.51,-334.79 624.65,-325.96 623.72,-336.51 630.51,-334.79"/>
</g>
<!-- librt.so.1 -->
<g id="node23" class="node">
<title>librt.so.1</title>
<polygon fill="none" stroke="black" points="1042.25,-396 961.75,-396 961.75,-360 1042.25,-360 1042.25,-396"/>
<text text-anchor="middle" x="1002" y="-373.32" font-family="Times,serif" font-size="14.00">librt.so.1</text>
</g>
<!-- libboost_regex.so.1.77.0&#45;&gt;librt.so.1 -->
<g id="edge26" class="edge">
<title>libboost_regex.so.1.77.0&#45;&gt;librt.so.1</title>
<path fill="none" stroke="black" d="M830.98,-431.61C865.08,-421.34 909.02,-408.04 948,-396 948.81,-395.75 949.63,-395.5 950.45,-395.24"/>
<polygon fill="black" stroke="black" points="951.37,-398.62 959.88,-392.31 949.29,-391.94 951.37,-398.62"/>
</g>
<!-- libcrypt.so.1&#45;&gt;libc.so.6 -->
<g id="edge28" class="edge">
<title>libcrypt.so.1&#45;&gt;libc.so.6</title>
<path fill="none" stroke="black" d="M1594.12,-146.85C1589.36,-145.8 1584.61,-144.83 1580,-144 1421.2,-115.36 1230.28,-100.06 1142.08,-94.06"/>
<polygon fill="black" stroke="black" points="1142.56,-90.58 1132.35,-93.41 1142.09,-97.57 1142.56,-90.58"/>
</g>
<!-- libc.so.6&#45;&gt;ld&#45;linux&#45;x86&#45;64.so.2 -->
<g id="edge29" class="edge">
<title>libc.so.6&#45;&gt;ld&#45;linux&#45;x86&#45;64.so.2</title>
<path fill="none" stroke="black" d="M1054.89,-85.31C943.83,-74.56 618.26,-43.04 459.34,-27.65"/>
<polygon fill="black" stroke="black" points="459.98,-24.2 449.69,-26.72 459.31,-31.16 459.98,-24.2"/>
</g>
<!-- libdl.so.2&#45;&gt;libc.so.6 -->
<g id="edge30" class="edge">
<title>libdl.so.2&#45;&gt;libc.so.6</title>
<path fill="none" stroke="black" d="M1717.04,-145.96C1714.34,-145.23 1711.64,-144.56 1709,-144 1501.77,-99.86 1247.88,-92.28 1142.49,-91.12"/>
<polygon fill="black" stroke="black" points="1142.52,-87.62 1132.49,-91.03 1142.46,-94.62 1142.52,-87.62"/>
</g>
<!-- libexpat.so.1&#45;&gt;libc.so.6 -->
<g id="edge31" class="edge">
<title>libexpat.so.1&#45;&gt;libc.so.6</title>
<path fill="none" stroke="black" d="M135.54,-215.85C155.98,-194.63 194.13,-159.39 235,-144 310.61,-115.53 872.18,-97.3 1043.51,-92.36"/>
<polygon fill="black" stroke="black" points="1043.52,-95.86 1053.42,-92.08 1043.32,-88.86 1043.52,-95.86"/>
</g>
<!-- libexpat.so.1&#45;&gt;libm.so.6 -->
<g id="edge32" class="edge">
<title>libexpat.so.1&#45;&gt;libm.so.6</title>
<path fill="none" stroke="black" d="M161.21,-215.52C183.15,-206.21 210.33,-194.68 233.63,-184.79"/>
<polygon fill="black" stroke="black" points="234.8,-188.1 242.64,-180.97 232.06,-181.66 234.8,-188.1"/>
</g>
<!-- libgcc_s.so.1&#45;&gt;libc.so.6 -->
<g id="edge33" class="edge">
<title>libgcc_s.so.1&#45;&gt;libc.so.6</title>
<path fill="none" stroke="black" d="M1093,-143.7C1093,-136.41 1093,-127.73 1093,-119.54"/>
<polygon fill="black" stroke="black" points="1096.5,-119.62 1093,-109.62 1089.5,-119.62 1096.5,-119.62"/>
</g>
<!-- libgmp.so.10&#45;&gt;libc.so.6 -->
<g id="edge34" class="edge">
<title>libgmp.so.10&#45;&gt;libc.so.6</title>
<path fill="none" stroke="black" d="M1215.29,-143.52C1192.88,-133.89 1164.94,-121.89 1141.42,-111.79"/>
<polygon fill="black" stroke="black" points="1142.92,-108.63 1132.35,-107.9 1140.16,-115.06 1142.92,-108.63"/>
</g>
<!-- libipt.so.2&#45;&gt;libc.so.6 -->
<g id="edge49" class="edge">
<title>libipt.so.2&#45;&gt;libc.so.6</title>
<path fill="none" stroke="black" d="M378.77,-287.75C370.06,-268.9 360.1,-238.41 373,-216 404.8,-160.77 436.26,-163.28 497,-144 598.55,-111.76 920.04,-97.16 1043.79,-92.63"/>
<polygon fill="black" stroke="black" points="1043.75,-96.13 1053.62,-92.27 1043.5,-89.14 1043.75,-96.13"/>
</g>
<!-- libipt.so.2&#45;&gt;libpthread.so.0 -->
<g id="edge50" class="edge">
<title>libipt.so.2&#45;&gt;libpthread.so.0</title>
<path fill="none" stroke="black" d="M401.84,-287.7C408.29,-279.64 416.08,-269.89 423.21,-260.98"/>
<polygon fill="black" stroke="black" points="425.86,-263.28 429.37,-253.29 420.39,-258.91 425.86,-263.28"/>
</g>
<!-- libmpfr.so.6&#45;&gt;ld&#45;linux&#45;x86&#45;64.so.2 -->
<g id="edge51" class="edge">
<title>libmpfr.so.6&#45;&gt;ld&#45;linux&#45;x86&#45;64.so.2</title>
<path fill="none" stroke="black" d="M1342.9,-215.52C1349.3,-196.19 1355.79,-165.01 1341,-144 1286.37,-66.41 1232.88,-91.44 1140,-72 1012.37,-45.28 633.74,-28.56 459.54,-22.07"/>
<polygon fill="black" stroke="black" points="459.75,-18.58 449.62,-21.71 459.49,-25.57 459.75,-18.58"/>
</g>
<!-- libmpfr.so.6&#45;&gt;libc.so.6 -->
<g id="edge52" class="edge">
<title>libmpfr.so.6&#45;&gt;libc.so.6</title>
<path fill="none" stroke="black" d="M1337.82,-215.8C1338.92,-195.83 1337.4,-163.19 1319,-144 1295,-118.98 1201.2,-103.66 1142.25,-96.29"/>
<polygon fill="black" stroke="black" points="1142.8,-92.83 1132.46,-95.11 1141.96,-99.78 1142.8,-92.83"/>
</g>
<!-- libmpfr.so.6&#45;&gt;libgmp.so.10 -->
<g id="edge53" class="edge">
<title>libmpfr.so.6&#45;&gt;libgmp.so.10</title>
<path fill="none" stroke="black" d="M1316.22,-215.7C1306.61,-207.28 1294.88,-197.02 1284.33,-187.79"/>
<polygon fill="black" stroke="black" points="1286.79,-185.29 1276.96,-181.34 1282.19,-190.56 1286.79,-185.29"/>
</g>
<!-- libm.so.6&#45;&gt;ld&#45;linux&#45;x86&#45;64.so.2 -->
<g id="edge54" class="edge">
<title>libm.so.6&#45;&gt;ld&#45;linux&#45;x86&#45;64.so.2</title>
<path fill="none" stroke="black" d="M295.42,-143.59C310.03,-119.18 336.73,-74.58 353.9,-45.89"/>
<polygon fill="black" stroke="black" points="356.85,-47.79 358.98,-37.41 350.84,-44.19 356.85,-47.79"/>
</g>
<!-- libm.so.6&#45;&gt;libc.so.6 -->
<g id="edge55" class="edge">
<title>libm.so.6&#45;&gt;libc.so.6</title>
<path fill="none" stroke="black" d="M325.89,-147.24C330.61,-145.98 335.38,-144.86 340,-144 601.8,-95 922.5,-90.4 1043.58,-90.58"/>
<polygon fill="black" stroke="black" points="1043.48,-94.08 1053.49,-90.61 1043.5,-87.08 1043.48,-94.08"/>
</g>
<!-- libncursesw.so.6&#45;&gt;libc.so.6 -->
<g id="edge56" class="edge">
<title>libncursesw.so.6&#45;&gt;libc.so.6</title>
<path fill="none" stroke="black" d="M1435.25,-431.63C1441.39,-404.99 1452,-352.36 1452,-307 1452,-307 1452,-307 1452,-233 1452,-192.03 1458.47,-171.39 1428,-144 1386.79,-106.96 1225.13,-95.74 1142.38,-92.39"/>
<polygon fill="black" stroke="black" points="1142.65,-88.9 1132.52,-92.02 1142.38,-95.89 1142.65,-88.9"/>
</g>
<!-- libpthread.so.0&#45;&gt;libc.so.6 -->
<g id="edge57" class="edge">
<title>libpthread.so.0&#45;&gt;libc.so.6</title>
<path fill="none" stroke="black" d="M459.82,-215.73C480.23,-194.71 517.91,-160.05 558,-144 645.65,-108.91 928.87,-96.18 1043.83,-92.39"/>
<polygon fill="black" stroke="black" points="1043.67,-95.89 1053.55,-92.07 1043.44,-88.9 1043.67,-95.89"/>
</g>
<!-- libpython3.9.so.1.0&#45;&gt;libcrypt.so.1 -->
<g id="edge58" class="edge">
<title>libpython3.9.so.1.0&#45;&gt;libcrypt.so.1</title>
<path fill="none" stroke="black" d="M1636.46,-215.7C1637.94,-208.32 1639.7,-199.52 1641.35,-191.25"/>
<polygon fill="black" stroke="black" points="1644.75,-192.08 1643.28,-181.59 1637.89,-190.71 1644.75,-192.08"/>
</g>
<!-- libpython3.9.so.1.0&#45;&gt;libc.so.6 -->
<g id="edge59" class="edge">
<title>libpython3.9.so.1.0&#45;&gt;libc.so.6</title>
<path fill="none" stroke="black" d="M1617.75,-215.61C1596.81,-192.2 1559.74,-152.48 1542,-144 1472.26,-110.66 1244.07,-97.25 1142.51,-92.84"/>
<polygon fill="black" stroke="black" points="1142.71,-89.34 1132.58,-92.42 1142.42,-96.34 1142.71,-89.34"/>
</g>
<!-- libpython3.9.so.1.0&#45;&gt;libdl.so.2 -->
<g id="edge60" class="edge">
<title>libpython3.9.so.1.0&#45;&gt;libdl.so.2</title>
<path fill="none" stroke="black" d="M1664.22,-215.52C1680.3,-206.51 1700.1,-195.42 1717.36,-185.76"/>
<polygon fill="black" stroke="black" points="1718.84,-188.94 1725.86,-181 1715.42,-182.83 1718.84,-188.94"/>
</g>
<!-- libpython3.9.so.1.0&#45;&gt;libgcc_s.so.1 -->
<g id="edge61" class="edge">
<title>libpython3.9.so.1.0&#45;&gt;libgcc_s.so.1</title>
<path fill="none" stroke="black" d="M1556.15,-224.89C1468.21,-215.34 1319.97,-198.43 1193,-180 1181.51,-178.33 1169.31,-176.4 1157.52,-174.44"/>
<polygon fill="black" stroke="black" points="1158.31,-171.03 1147.87,-172.82 1157.15,-177.93 1158.31,-171.03"/>
</g>
<!-- libpython3.9.so.1.0&#45;&gt;libm.so.6 -->
<g id="edge62" class="edge">
<title>libpython3.9.so.1.0&#45;&gt;libm.so.6</title>
<path fill="none" stroke="black" d="M1556.12,-227.05C1509.52,-223.55 1448.86,-219.21 1395,-216 988,-191.75 496.51,-171.42 337.41,-165.06"/>
<polygon fill="black" stroke="black" points="337.74,-161.57 327.6,-164.67 337.46,-168.57 337.74,-161.57"/>
</g>
<!-- libreadline.so.8&#45;&gt;libc.so.6 -->
<g id="edge63" class="edge">
<title>libreadline.so.8&#45;&gt;libc.so.6</title>
<path fill="none" stroke="black" d="M1483.6,-503.76C1492.53,-494.2 1502.29,-481.53 1507,-468 1512.26,-452.89 1508.08,-447.96 1507,-432 1503.21,-376.06 1490,-363.07 1490,-307 1490,-307 1490,-307 1490,-233 1490,-190.16 1486.8,-170.31 1453,-144 1405.52,-107.04 1229.37,-95.74 1142.32,-92.37"/>
<polygon fill="black" stroke="black" points="1142.54,-88.88 1132.42,-92.01 1142.29,-95.88 1142.54,-88.88"/>
</g>
<!-- libreadline.so.8&#45;&gt;libncursesw.so.6 -->
<g id="edge64" class="edge">
<title>libreadline.so.8&#45;&gt;libncursesw.so.6</title>
<path fill="none" stroke="black" d="M1456.6,-503.7C1452.89,-496.07 1448.44,-486.92 1444.31,-478.4"/>
<polygon fill="black" stroke="black" points="1447.49,-476.93 1439.97,-469.47 1441.19,-479.99 1447.49,-476.93"/>
</g>
<!-- libsource&#45;highlight.so.4&#45;&gt;libboost_regex.so.1.77.0 -->
<g id="edge66" class="edge">
<title>libsource&#45;highlight.so.4&#45;&gt;libboost_regex.so.1.77.0</title>
<path fill="none" stroke="black" d="M1019.83,-503.52C973.12,-493.58 914.49,-481.1 866.09,-470.81"/>
<polygon fill="black" stroke="black" points="866.97,-467.42 856.46,-468.76 865.51,-474.26 866.97,-467.42"/>
</g>
<!-- libsource&#45;highlight.so.4&#45;&gt;libc.so.6 -->
<g id="edge67" class="edge">
<title>libsource&#45;highlight.so.4&#45;&gt;libc.so.6</title>
<path fill="none" stroke="black" d="M1108.5,-503.56C1112.08,-493.33 1116.33,-480.08 1119,-468 1146.82,-342.04 1146.98,-308.75 1155,-180 1155.99,-164.03 1161.7,-158.53 1155,-144 1149.88,-132.89 1141.16,-123.24 1131.84,-115.33"/>
<polygon fill="black" stroke="black" points="1134.06,-112.63 1124.02,-109.23 1129.75,-118.14 1134.06,-112.63"/>
</g>
<!-- libsource&#45;highlight.so.4&#45;&gt;libgcc_s.so.1 -->
<g id="edge68" class="edge">
<title>libsource&#45;highlight.so.4&#45;&gt;libgcc_s.so.1</title>
<path fill="none" stroke="black" d="M1102.87,-503.7C1104.96,-460.98 1110.24,-347.09 1112,-252 1112.3,-236 1114.74,-231.76 1112,-216 1110.54,-207.62 1107.88,-198.82 1105,-190.84"/>
<polygon fill="black" stroke="black" points="1108.32,-189.72 1101.44,-181.67 1101.8,-192.25 1108.32,-189.72"/>
</g>
<!-- libsource&#45;highlight.so.4&#45;&gt;libm.so.6 -->
<g id="edge69" class="edge">
<title>libsource&#45;highlight.so.4&#45;&gt;libm.so.6</title>
<path fill="none" stroke="black" d="M1009.75,-515.38C787.38,-500.6 240,-456.35 240,-379 240,-379 240,-379 240,-305 240,-263.68 257.53,-218.62 270.71,-190.58"/>
<polygon fill="black" stroke="black" points="273.79,-192.25 275.01,-181.73 267.49,-189.19 273.79,-192.25"/>
</g>
<!-- libsource&#45;highlight.so.4&#45;&gt;libstdc++.so.6 -->
<g id="edge70" class="edge">
<title>libsource&#45;highlight.so.4&#45;&gt;libstdc++.so.6</title>
<path fill="none" stroke="black" d="M1100.48,-503.66C1096.91,-472.02 1085.51,-404.11 1051,-360 1013.01,-311.44 950.49,-277.17 904.66,-256.94"/>
<polygon fill="black" stroke="black" points="906.23,-253.81 895.66,-253.07 903.46,-260.24 906.23,-253.81"/>
</g>
<!-- libstdc++.so.6&#45;&gt;ld&#45;linux&#45;x86&#45;64.so.2 -->
<g id="edge71" class="edge">
<title>libstdc++.so.6&#45;&gt;ld&#45;linux&#45;x86&#45;64.so.2</title>
<path fill="none" stroke="black" d="M808.37,-215.67C722.22,-177.02 514.47,-83.81 419.22,-41.08"/>
<polygon fill="black" stroke="black" points="420.93,-38.01 410.37,-37.11 418.06,-44.4 420.93,-38.01"/>
</g>
<!-- libstdc++.so.6&#45;&gt;libc.so.6 -->
<g id="edge72" class="edge">
<title>libstdc++.so.6&#45;&gt;libc.so.6</title>
<path fill="none" stroke="black" d="M857.24,-215.69C869.97,-195.61 893.54,-162.87 922,-144 958.93,-119.51 1007.76,-105.86 1043.79,-98.57"/>
<polygon fill="black" stroke="black" points="1044.35,-102.03 1053.51,-96.71 1043.03,-95.15 1044.35,-102.03"/>
</g>
<!-- libstdc++.so.6&#45;&gt;libgcc_s.so.1 -->
<g id="edge73" class="edge">
<title>libstdc++.so.6&#45;&gt;libgcc_s.so.1</title>
<path fill="none" stroke="black" d="M908.13,-215.61C944.91,-205.14 991.67,-191.83 1028.96,-181.22"/>
<polygon fill="black" stroke="black" points="1029.59,-184.68 1038.25,-178.58 1027.68,-177.95 1029.59,-184.68"/>
</g>
<!-- libstdc++.so.6&#45;&gt;libm.so.6 -->
<g id="edge74" class="edge">
<title>libstdc++.so.6&#45;&gt;libm.so.6</title>
<path fill="none" stroke="black" d="M785.64,-217.6C782.72,-217.03 779.83,-216.49 777,-216 624.21,-189.64 584.11,-197.03 430,-180 399.25,-176.6 364.86,-172.58 337.29,-169.3"/>
<polygon fill="black" stroke="black" points="337.77,-165.83 327.42,-168.12 336.94,-172.78 337.77,-165.83"/>
</g>
<!-- libz.so.1&#45;&gt;libc.so.6 -->
<g id="edge75" class="edge">
<title>libz.so.1&#45;&gt;libc.so.6</title>
<path fill="none" stroke="black" d="M1578.43,-431.76C1559.64,-406.1 1528,-355.67 1528,-307 1528,-307 1528,-307 1528,-233 1528,-192.03 1534.86,-170.95 1504,-144 1451.01,-97.73 1239.16,-91.22 1142.06,-90.73"/>
<polygon fill="black" stroke="black" points="1142.33,-87.23 1132.32,-90.7 1142.31,-94.23 1142.33,-87.23"/>
</g>
<!-- libicui18n.so.71&#45;&gt;libc.so.6 -->
<g id="edge35" class="edge">
<title>libicui18n.so.71&#45;&gt;libc.so.6</title>
<path fill="none" stroke="black" d="M793.93,-359.66C827.61,-338.17 882.95,-298.63 917,-252 947.47,-210.28 923.47,-180.54 960,-144 982.63,-121.37 1016.14,-108.09 1043.86,-100.49"/>
<polygon fill="black" stroke="black" points="1044.66,-103.9 1053.48,-98.03 1042.93,-97.12 1044.66,-103.9"/>
</g>
<!-- libicui18n.so.71&#45;&gt;libgcc_s.so.1 -->
<g id="edge36" class="edge">
<title>libicui18n.so.71&#45;&gt;libgcc_s.so.1</title>
<path fill="none" stroke="black" d="M791.56,-359.67C850.14,-321.45 990.48,-229.89 1056.94,-186.53"/>
<polygon fill="black" stroke="black" points="1058.46,-189.72 1064.92,-181.32 1054.63,-183.85 1058.46,-189.72"/>
</g>
<!-- libicui18n.so.71&#45;&gt;libm.so.6 -->
<g id="edge39" class="edge">
<title>libicui18n.so.71&#45;&gt;libm.so.6</title>
<path fill="none" stroke="black" d="M699.89,-377.35C593.53,-376.59 388.96,-369.1 335,-324 314.61,-306.96 297.99,-233.1 290.05,-191.59"/>
<polygon fill="black" stroke="black" points="293.5,-191.01 288.23,-181.82 286.62,-192.29 293.5,-191.01"/>
</g>
<!-- libicui18n.so.71&#45;&gt;libpthread.so.0 -->
<g id="edge40" class="edge">
<title>libicui18n.so.71&#45;&gt;libpthread.so.0</title>
<path fill="none" stroke="black" d="M700.33,-368.39C657.38,-360.86 600.71,-347.34 555,-324 532.8,-312.66 531.39,-303.66 512,-288 500.24,-278.5 487.18,-268.25 475.67,-259.31"/>
<polygon fill="black" stroke="black" points="478.07,-256.75 468.02,-253.4 473.79,-262.28 478.07,-256.75"/>
</g>
<!-- libicui18n.so.71&#45;&gt;libstdc++.so.6 -->
<g id="edge41" class="edge">
<title>libicui18n.so.71&#45;&gt;libstdc++.so.6</title>
<path fill="none" stroke="black" d="M771.61,-359.68C778.93,-341.31 791.62,-311.71 806,-288 811.52,-278.89 818.34,-269.52 824.82,-261.24"/>
<polygon fill="black" stroke="black" points="827.42,-263.59 830.95,-253.6 821.96,-259.21 827.42,-263.59"/>
</g>
<!-- libicui18n.so.71&#45;&gt;libicudata.so.71 -->
<g id="edge37" class="edge">
<title>libicui18n.so.71&#45;&gt;libicudata.so.71</title>
<path fill="none" stroke="black" d="M757.4,-359.59C746.84,-335.4 727.61,-291.36 715.07,-262.65"/>
<polygon fill="black" stroke="black" points="718.29,-261.26 711.08,-253.5 711.87,-264.06 718.29,-261.26"/>
</g>
<!-- libicui18n.so.71&#45;&gt;libicuuc.so.71 -->
<g id="edge38" class="edge">
<title>libicui18n.so.71&#45;&gt;libicuuc.so.71</title>
<path fill="none" stroke="black" d="M729.03,-359.52C710.16,-350.34 686.85,-339.01 666.71,-329.22"/>
<polygon fill="black" stroke="black" points="668.39,-326.15 657.87,-324.92 665.33,-332.44 668.39,-326.15"/>
</g>
<!-- libicuuc.so.71&#45;&gt;ld&#45;linux&#45;x86&#45;64.so.2 -->
<g id="edge42" class="edge">
<title>libicuuc.so.71&#45;&gt;ld&#45;linux&#45;x86&#45;64.so.2</title>
<path fill="none" stroke="black" d="M563.45,-299.55C528.11,-296.21 481.94,-291.85 441,-288 398.33,-283.99 85.85,-283.68 57,-252 -28.7,-157.89 179.99,-76.42 297.11,-39.72"/>
<polygon fill="black" stroke="black" points="297.84,-43.16 306.36,-36.86 295.77,-36.47 297.84,-43.16"/>
</g>
<!-- libicuuc.so.71&#45;&gt;libc.so.6 -->
<g id="edge43" class="edge">
<title>libicuuc.so.71&#45;&gt;libc.so.6</title>
<path fill="none" stroke="black" d="M612.48,-287.67C604.26,-268.19 595.18,-236.59 611,-216 664.03,-146.98 931.88,-109.2 1043.77,-96.22"/>
<polygon fill="black" stroke="black" points="1044,-99.71 1053.54,-95.1 1043.21,-92.76 1044,-99.71"/>
</g>
<!-- libicuuc.so.71&#45;&gt;libgcc_s.so.1 -->
<g id="edge44" class="edge">
<title>libicuuc.so.71&#45;&gt;libgcc_s.so.1</title>
<path fill="none" stroke="black" d="M616.8,-287.65C613.07,-267.54 610.69,-234.76 629,-216 656.4,-187.93 907.49,-172.01 1028.45,-165.92"/>
<polygon fill="black" stroke="black" points="1028.41,-169.42 1038.22,-165.43 1028.06,-162.43 1028.41,-169.42"/>
</g>
<!-- libicuuc.so.71&#45;&gt;libm.so.6 -->
<g id="edge46" class="edge">
<title>libicuuc.so.71&#45;&gt;libm.so.6</title>
<path fill="none" stroke="black" d="M600.46,-287.7C569.81,-261.9 515.62,-216.31 515,-216 458.08,-187.63 385.64,-174.18 337.42,-167.98"/>
<polygon fill="black" stroke="black" points="337.86,-164.51 327.51,-166.78 337.01,-171.46 337.86,-164.51"/>
</g>
<!-- libicuuc.so.71&#45;&gt;libpthread.so.0 -->
<g id="edge47" class="edge">
<title>libicuuc.so.71&#45;&gt;libpthread.so.0</title>
<path fill="none" stroke="black" d="M576.79,-287.52C553.05,-278.13 523.58,-266.47 498.43,-256.53"/>
<polygon fill="black" stroke="black" points="499.94,-253.36 489.36,-252.94 497.37,-259.87 499.94,-253.36"/>
</g>
<!-- libicuuc.so.71&#45;&gt;libstdc++.so.6 -->
<g id="edge48" class="edge">
<title>libicuuc.so.71&#45;&gt;libstdc++.so.6</title>
<path fill="none" stroke="black" d="M677.45,-287.52C708.57,-277.88 747.42,-265.84 780.07,-255.73"/>
<polygon fill="black" stroke="black" points="780.92,-259.13 789.44,-252.83 778.85,-252.44 780.92,-259.13"/>
</g>
<!-- libicuuc.so.71&#45;&gt;libicudata.so.71 -->
<g id="edge45" class="edge">
<title>libicuuc.so.71&#45;&gt;libicudata.so.71</title>
<path fill="none" stroke="black" d="M641.27,-287.7C651.13,-279.28 663.15,-269.02 673.96,-259.79"/>
<polygon fill="black" stroke="black" points="676.19,-262.48 681.53,-253.33 671.65,-257.16 676.19,-262.48"/>
</g>
<!-- librt.so.1&#45;&gt;libc.so.6 -->
<g id="edge65" class="edge">
<title>librt.so.1&#45;&gt;libc.so.6</title>
<path fill="none" stroke="black" d="M1000.09,-359.65C996.46,-319.15 992.08,-216.33 1031,-144 1036.85,-133.13 1045.9,-123.52 1055.3,-115.57"/>
<polygon fill="black" stroke="black" points="1057.43,-118.34 1063.13,-109.41 1053.1,-112.84 1057.43,-118.34"/>
</g>
</g>
</svg>
