<?xml version="1.0" encoding="UTF-8" standalone="no"?>
<!DOCTYPE svg PUBLIC "-//W3C//DTD SVG 1.1//EN"
 "http://www.w3.org/Graphics/SVG/1.1/DTD/svg11.dtd">
<!-- Generated by graphviz version 7.1.0 (0)
 -->
<!-- Pages: 1 -->
<svg width="754pt" height="118pt"
 viewBox="0.00 0.00 754.00 118.00" xmlns="http://www.w3.org/2000/svg" xmlns:xlink="http://www.w3.org/1999/xlink">
<g id="graph0" class="graph" transform="scale(1 1) rotate(0) translate(4 114)">
<polygon fill="white" stroke="none" points="-4,4 -4,-114 750,-114 750,4 -4,4"/>
<!-- strip&#45;2.38 -->
<g id="node1" class="node">
<title>strip&#45;2.38</title>
<polygon fill="none" stroke="black" points="69.5,-73.5 69.5,-109.5 155.5,-109.5 155.5,-73.5 69.5,-73.5"/>
<text text-anchor="middle" x="112.5" y="-87.8" font-family="Times,serif" font-size="14.00">strip&#45;2.38</text>
</g>
<!-- .../binutils/.../2.38/libbfd&#45;2.38.so -->
<g id="node2" class="node">
<title>.../binutils/.../2.38/libbfd&#45;2.38.so</title>
<polygon fill="none" stroke="black" points="0,-0.5 0,-36.5 245,-36.5 245,-0.5 0,-0.5"/>
<text text-anchor="middle" x="122.5" y="-14.8" font-family="Times,serif" font-size="14.00">.../binutils/.../2.38/libbfd&#45;2.38.so</text>
</g>
<!-- strip&#45;2.38&#45;&gt;.../binutils/.../2.38/libbfd&#45;2.38.so -->
<g id="edge1" class="edge">
<title>strip&#45;2.38&#45;&gt;.../binutils/.../2.38/libbfd&#45;2.38.so</title>
<path fill="none" stroke="black" stroke-dasharray="1,5" d="M114.87,-73.67C115.98,-65.8 117.33,-56.22 118.58,-47.32"/>
<polygon fill="black" stroke="black" points="122.01,-48.09 119.94,-37.7 115.08,-47.12 122.01,-48.09"/>
</g>
<!-- /usr/lib64/libbfd&#45;2.38.so -->
<g id="node5" class="node">
<title>/usr/lib64/libbfd&#45;2.38.so</title>
<polygon fill="none" stroke="black" points="263,-0.5 263,-36.5 450,-36.5 450,-0.5 263,-0.5"/>
<text text-anchor="middle" x="356.5" y="-14.8" font-family="Times,serif" font-size="14.00">/usr/lib64/libbfd&#45;2.38.so</text>
</g>
<!-- strip&#45;2.38&#45;&gt;/usr/lib64/libbfd&#45;2.38.so -->
<g id="edge4" class="edge">
<title>strip&#45;2.38&#45;&gt;/usr/lib64/libbfd&#45;2.38.so</title>
<path fill="none" stroke="red" d="M155.29,-75.9C158.4,-74.9 161.5,-73.92 164.5,-73 202.87,-61.21 245.89,-49.12 281.46,-39.42"/>
<polygon fill="red" stroke="red" points="282.06,-42.89 290.79,-36.89 280.22,-36.13 282.06,-42.89"/>
</g>
<!-- ld&#45;2.38 -->
<g id="node3" class="node">
<title>ld&#45;2.38</title>
<polygon fill="none" stroke="black" points="173.5,-73.5 173.5,-109.5 239.5,-109.5 239.5,-73.5 173.5,-73.5"/>
<text text-anchor="middle" x="206.5" y="-87.8" font-family="Times,serif" font-size="14.00">ld&#45;2.38</text>
</g>
<!-- ld&#45;2.38&#45;&gt;.../binutils/.../2.38/libbfd&#45;2.38.so -->
<g id="edge2" class="edge">
<title>ld&#45;2.38&#45;&gt;.../binutils/.../2.38/libbfd&#45;2.38.so</title>
<path fill="none" stroke="black" stroke-dasharray="1,5" d="M186.59,-73.67C176,-64.72 162.79,-53.55 151.11,-43.68"/>
<polygon fill="black" stroke="black" points="153.61,-41.21 143.71,-37.43 149.09,-46.56 153.61,-41.21"/>
</g>
<!-- ld&#45;2.38&#45;&gt;/usr/lib64/libbfd&#45;2.38.so -->
<g id="edge5" class="edge">
<title>ld&#45;2.38&#45;&gt;/usr/lib64/libbfd&#45;2.38.so</title>
<path fill="none" stroke="red" d="M239.42,-74.92C260.28,-65.04 287.57,-52.13 310.56,-41.25"/>
<polygon fill="red" stroke="red" points="311.87,-44.5 319.41,-37.06 308.87,-38.17 311.87,-44.5"/>
</g>
<!-- ... -->
<g id="node4" class="node">
<title>...</title>
<polygon fill="none" stroke="black" points="257.5,-73.5 257.5,-109.5 311.5,-109.5 311.5,-73.5 257.5,-73.5"/>
<text text-anchor="middle" x="284.5" y="-87.8" font-family="Times,serif" font-size="14.00">...</text>
</g>
<!-- ...&#45;&gt;.../binutils/.../2.38/libbfd&#45;2.38.so -->
<g id="edge3" class="edge">
<title>...&#45;&gt;.../binutils/.../2.38/libbfd&#45;2.38.so</title>
<path fill="none" stroke="black" stroke-dasharray="1,5" d="M257.84,-77.35C254.7,-75.86 251.54,-74.38 248.5,-73 224.32,-62 197.23,-50.4 174.38,-40.83"/>
<polygon fill="black" stroke="black" points="175.85,-37.65 165.27,-37.03 173.15,-44.11 175.85,-37.65"/>
</g>
<!-- ...&#45;&gt;/usr/lib64/libbfd&#45;2.38.so -->
<g id="edge6" class="edge">
<title>...&#45;&gt;/usr/lib64/libbfd&#45;2.38.so</title>
<path fill="none" stroke="red" d="M301.56,-73.67C310.53,-64.83 321.69,-53.83 331.6,-44.05"/>
<polygon fill="red" stroke="red" points="333.82,-46.78 338.48,-37.27 328.9,-41.8 333.82,-46.78"/>
</g>
<!-- ld&#45;2.37 -->
<g id="node6" class="node">
<title>ld&#45;2.37</title>
<polygon fill="none" stroke="black" points="567.5,-73.5 567.5,-109.5 633.5,-109.5 633.5,-73.5 567.5,-73.5"/>
<text text-anchor="middle" x="600.5" y="-87.8" font-family="Times,serif" font-size="14.00">ld&#45;2.37</text>
</g>
<!-- .../binutils/.../2.37/libbfd&#45;2.37.so -->
<g id="node7" class="node">
<title>.../binutils/.../2.37/libbfd&#45;2.37.so</title>
<polygon fill="none" stroke="black" points="501,-0.5 501,-36.5 746,-36.5 746,-0.5 501,-0.5"/>
<text text-anchor="middle" x="623.5" y="-14.8" font-family="Times,serif" font-size="14.00">.../binutils/.../2.37/libbfd&#45;2.37.so</text>
</g>
<!-- ld&#45;2.37&#45;&gt;.../binutils/.../2.37/libbfd&#45;2.37.so -->
<g id="edge7" class="edge">
<title>ld&#45;2.37&#45;&gt;.../binutils/.../2.37/libbfd&#45;2.37.so</title>
<path fill="none" stroke="black" d="M605.95,-73.67C608.53,-65.72 611.67,-56.01 614.59,-47.02"/>
<polygon fill="black" stroke="black" points="617.87,-48.24 617.62,-37.65 611.21,-46.08 617.87,-48.24"/>
</g>
<!-- ...  -->
<g id="node8" class="node">
<title>... </title>
<polygon fill="none" stroke="black" points="651.5,-73.5 651.5,-109.5 705.5,-109.5 705.5,-73.5 651.5,-73.5"/>
<text text-anchor="middle" x="678.5" y="-87.8" font-family="Times,serif" font-size="14.00">... </text>
</g>
<!-- ... &#45;&gt;.../binutils/.../2.37/libbfd&#45;2.37.so -->
<g id="edge8" class="edge">
<title>... &#45;&gt;.../binutils/.../2.37/libbfd&#45;2.37.so</title>
<path fill="none" stroke="black" d="M665.47,-73.67C658.89,-65.19 650.77,-54.71 643.43,-45.23"/>
<polygon fill="black" stroke="black" points="646.26,-43.16 637.37,-37.4 640.72,-47.45 646.26,-43.16"/>
</g>
<!-- perf -->
<g id="node9" class="node">
<title>perf</title>
<polygon fill="none" stroke="black" points="329.5,-73.5 329.5,-109.5 383.5,-109.5 383.5,-73.5 329.5,-73.5"/>
<text text-anchor="middle" x="356.5" y="-87.8" font-family="Times,serif" font-size="14.00">perf</text>
</g>
<!-- perf&#45;&gt;/usr/lib64/libbfd&#45;2.38.so -->
<g id="edge9" class="edge">
<title>perf&#45;&gt;/usr/lib64/libbfd&#45;2.38.so</title>
<path fill="none" stroke="black" d="M356.5,-73.67C356.5,-65.89 356.5,-56.44 356.5,-47.62"/>
<polygon fill="black" stroke="black" points="360,-47.72 356.5,-37.72 353,-47.72 360,-47.72"/>
</g>
<!-- ghc -->
<g id="node10" class="node">
<title>ghc</title>
<polygon fill="none" stroke="black" points="401.5,-73.5 401.5,-109.5 455.5,-109.5 455.5,-73.5 401.5,-73.5"/>
<text text-anchor="middle" x="428.5" y="-87.8" font-family="Times,serif" font-size="14.00">ghc</text>
</g>
<!-- ghc&#45;&gt;/usr/lib64/libbfd&#45;2.38.so -->
<g id="edge10" class="edge">
<title>ghc&#45;&gt;/usr/lib64/libbfd&#45;2.38.so</title>
<path fill="none" stroke="black" d="M411.44,-73.67C402.47,-64.83 391.31,-53.83 381.4,-44.05"/>
<polygon fill="black" stroke="black" points="384.1,-41.8 374.52,-37.27 379.18,-46.78 384.1,-41.8"/>
</g>
<!-- ... &#160; -->
<g id="node11" class="node">
<title>... &#160;</title>
<polygon fill="none" stroke="black" points="473.5,-73.5 473.5,-109.5 527.5,-109.5 527.5,-73.5 473.5,-73.5"/>
<text text-anchor="middle" x="500.5" y="-87.8" font-family="Times,serif" font-size="14.00">... &#160;</text>
</g>
<!-- ... &#160;&#45;&gt;/usr/lib64/libbfd&#45;2.38.so -->
<g id="edge11" class="edge">
<title>... &#160;&#45;&gt;/usr/lib64/libbfd&#45;2.38.so</title>
<path fill="none" stroke="black" d="M473.75,-77.31C453.35,-67.25 424.79,-53.17 400.96,-41.42"/>
<polygon fill="black" stroke="black" points="402.61,-38.33 392.1,-37.05 399.52,-44.61 402.61,-38.33"/>
</g>
</g>
</svg>
