<?xml version="1.0" encoding="UTF-8" standalone="no"?>
<!DOCTYPE svg PUBLIC "-//W3C//DTD SVG 1.1//EN"
 "http://www.w3.org/Graphics/SVG/1.1/DTD/svg11.dtd">
<!-- Generated by graphviz version 8.1.0 (0)
 -->
<!-- Pages: 1 -->
<svg width="718pt" height="118pt"
 viewBox="0.00 0.00 718.00 118.00" xmlns="http://www.w3.org/2000/svg" xmlns:xlink="http://www.w3.org/1999/xlink">
<g id="graph0" class="graph" transform="scale(1 1) rotate(0) translate(4 114)">
<polygon fill="white" stroke="none" points="-4,4 -4,-114 714,-114 714,4 -4,4"/>
<!-- strip&#45;2.38 -->
<g id="node1" class="node">
<title>strip&#45;2.38</title>
<polygon fill="none" stroke="black" points="68.12,-73.5 68.12,-109.5 153.88,-109.5 153.88,-73.5 68.12,-73.5"/>
<text text-anchor="middle" x="111" y="-86.83" font-family="Times,serif" font-size="14.00">strip&#45;2.38</text>
</g>
<!-- .../binutils/.../2.38/libbfd&#45;2.38.so -->
<g id="node2" class="node">
<title>.../binutils/.../2.38/libbfd&#45;2.38.so</title>
<polygon fill="none" stroke="black" points="0,-0.5 0,-36.5 244,-36.5 244,-0.5 0,-0.5"/>
<text text-anchor="middle" x="122" y="-13.82" font-family="Times,serif" font-size="14.00">.../binutils/.../2.38/libbfd&#45;2.38.so</text>
</g>
<!-- strip&#45;2.38&#45;&gt;.../binutils/.../2.38/libbfd&#45;2.38.so -->
<g id="edge1" class="edge">
<title>strip&#45;2.38&#45;&gt;.../binutils/.../2.38/libbfd&#45;2.38.so</title>
<path fill="none" stroke="black" stroke-dasharray="1,5" d="M113.61,-73.67C114.84,-65.72 116.34,-56.01 117.74,-47.02"/>
<polygon fill="black" stroke="black" points="121.34,-47.62 119.41,-37.21 114.42,-46.55 121.34,-47.62"/>
</g>
<!-- /usr/lib64/libbfd&#45;2.38.so -->
<g id="node5" class="node">
<title>/usr/lib64/libbfd&#45;2.38.so</title>
<polygon fill="none" stroke="black" points="261.88,-0.5 261.88,-36.5 448.12,-36.5 448.12,-0.5 261.88,-0.5"/>
<text text-anchor="middle" x="355" y="-13.82" font-family="Times,serif" font-size="14.00">/usr/lib64/libbfd&#45;2.38.so</text>
</g>
<!-- strip&#45;2.38&#45;&gt;/usr/lib64/libbfd&#45;2.38.so -->
<g id="edge4" class="edge">
<title>strip&#45;2.38&#45;&gt;/usr/lib64/libbfd&#45;2.38.so</title>
<path fill="none" stroke="red" d="M153.79,-75.9C156.9,-74.9 160,-73.92 163,-73 201.53,-61.16 244.76,-49.01 280.42,-39.29"/>
<polygon fill="red" stroke="red" points="281.02,-42.49 289.75,-36.49 279.19,-35.73 281.02,-42.49"/>
</g>
<!-- ld&#45;2.38 -->
<g id="node3" class="node">
<title>ld&#45;2.38</title>
<polygon fill="none" stroke="black" points="172.25,-73.5 172.25,-109.5 237.75,-109.5 237.75,-73.5 172.25,-73.5"/>
<text text-anchor="middle" x="205" y="-86.83" font-family="Times,serif" font-size="14.00">ld&#45;2.38</text>
</g>
<!-- ld&#45;2.38&#45;&gt;.../binutils/.../2.38/libbfd&#45;2.38.so -->
<g id="edge2" class="edge">
<title>ld&#45;2.38&#45;&gt;.../binutils/.../2.38/libbfd&#45;2.38.so</title>
<path fill="none" stroke="black" stroke-dasharray="1,5" d="M185.33,-73.67C174.76,-64.63 161.55,-53.33 149.93,-43.39"/>
<polygon fill="black" stroke="black" points="152.69,-40.29 142.82,-36.45 148.14,-45.61 152.69,-40.29"/>
</g>
<!-- ld&#45;2.38&#45;&gt;/usr/lib64/libbfd&#45;2.38.so -->
<g id="edge5" class="edge">
<title>ld&#45;2.38&#45;&gt;/usr/lib64/libbfd&#45;2.38.so</title>
<path fill="none" stroke="red" d="M237.55,-75.09C258.58,-65.14 286.26,-52.04 309.46,-41.05"/>
<polygon fill="red" stroke="red" points="310.56,-43.93 318.1,-36.49 307.57,-37.61 310.56,-43.93"/>
</g>
<!-- ... -->
<g id="node4" class="node">
<title>...</title>
<polygon fill="none" stroke="black" points="256,-73.5 256,-109.5 310,-109.5 310,-73.5 256,-73.5"/>
<text text-anchor="middle" x="282.75" y="-86.83" font-family="Times,serif" font-size="14.00">...</text>
</g>
<!-- ...&#45;&gt;.../binutils/.../2.38/libbfd&#45;2.38.so -->
<g id="edge3" class="edge">
<title>...&#45;&gt;.../binutils/.../2.38/libbfd&#45;2.38.so</title>
<path fill="none" stroke="black" stroke-dasharray="1,5" d="M256.33,-77.36C253.2,-75.87 250.03,-74.39 247,-73 222.89,-61.99 195.87,-50.34 173.15,-40.74"/>
<polygon fill="black" stroke="black" points="174.61,-37.13 164.03,-36.48 171.89,-43.58 174.61,-37.13"/>
</g>
<!-- ...&#45;&gt;/usr/lib64/libbfd&#45;2.38.so -->
<g id="edge6" class="edge">
<title>...&#45;&gt;/usr/lib64/libbfd&#45;2.38.so</title>
<path fill="none" stroke="red" d="M300.06,-73.67C309.12,-64.74 320.41,-53.61 330.4,-43.76"/>
<polygon fill="red" stroke="red" points="332.4,-46.72 337.06,-37.21 327.48,-41.73 332.4,-46.72"/>
</g>
<!-- ld&#45;2.37 -->
<g id="node6" class="node">
<title>ld&#45;2.37</title>
<polygon fill="none" stroke="black" points="550.25,-73.5 550.25,-109.5 615.75,-109.5 615.75,-73.5 550.25,-73.5"/>
<text text-anchor="middle" x="583" y="-86.83" font-family="Times,serif" font-size="14.00">ld&#45;2.37</text>
</g>
<!-- .../binutils/.../2.37/libbfd&#45;2.37.so -->
<g id="node7" class="node">
<title>.../binutils/.../2.37/libbfd&#45;2.37.so</title>
<polygon fill="none" stroke="black" points="466,-0.5 466,-36.5 710,-36.5 710,-0.5 466,-0.5"/>
<text text-anchor="middle" x="588" y="-13.82" font-family="Times,serif" font-size="14.00">.../binutils/.../2.37/libbfd&#45;2.37.so</text>
</g>
<!-- ld&#45;2.37&#45;&gt;.../binutils/.../2.37/libbfd&#45;2.37.so -->
<g id="edge7" class="edge">
<title>ld&#45;2.37&#45;&gt;.../binutils/.../2.37/libbfd&#45;2.37.so</title>
<path fill="none" stroke="black" d="M584.18,-73.67C584.75,-65.72 585.43,-56.01 586.06,-47.02"/>
<polygon fill="black" stroke="black" points="589.61,-47.43 586.82,-37.21 582.63,-46.93 589.61,-47.43"/>
</g>
<!-- ...  -->
<g id="node8" class="node">
<title>... </title>
<polygon fill="none" stroke="black" points="634,-73.5 634,-109.5 688,-109.5 688,-73.5 634,-73.5"/>
<text text-anchor="middle" x="661" y="-86.83" font-family="Times,serif" font-size="14.00">... </text>
</g>
<!-- ... &#45;&gt;.../binutils/.../2.37/libbfd&#45;2.37.so -->
<g id="edge8" class="edge">
<title>... &#45;&gt;.../binutils/.../2.37/libbfd&#45;2.37.so</title>
<path fill="none" stroke="black" d="M643.7,-73.67C634.58,-64.81 623.24,-53.77 613.16,-43.97"/>
<polygon fill="black" stroke="black" points="616.04,-41.91 606.43,-37.45 611.16,-46.93 616.04,-41.91"/>
</g>
<!-- perf -->
<g id="node9" class="node">
<title>perf</title>
<polygon fill="none" stroke="black" points="328,-73.5 328,-109.5 382,-109.5 382,-73.5 328,-73.5"/>
<text text-anchor="middle" x="354.62" y="-86.83" font-family="Times,serif" font-size="14.00">perf</text>
</g>
<!-- perf&#45;&gt;/usr/lib64/libbfd&#45;2.38.so -->
<g id="edge9" class="edge">
<title>perf&#45;&gt;/usr/lib64/libbfd&#45;2.38.so</title>
<path fill="none" stroke="black" d="M355,-73.67C355,-65.72 355,-56.01 355,-47.02"/>
<polygon fill="black" stroke="black" points="358.5,-47.21 355,-37.21 351.5,-47.21 358.5,-47.21"/>
</g>
<!-- ghc -->
<g id="node10" class="node">
<title>ghc</title>
<polygon fill="none" stroke="black" points="400,-73.5 400,-109.5 454,-109.5 454,-73.5 400,-73.5"/>
<text text-anchor="middle" x="426.75" y="-86.83" font-family="Times,serif" font-size="14.00">ghc</text>
</g>
<!-- ghc&#45;&gt;/usr/lib64/libbfd&#45;2.38.so -->
<g id="edge10" class="edge">
<title>ghc&#45;&gt;/usr/lib64/libbfd&#45;2.38.so</title>
<path fill="none" stroke="black" d="M409.94,-73.67C400.88,-64.74 389.59,-53.61 379.6,-43.76"/>
<polygon fill="black" stroke="black" points="382.52,-41.73 372.94,-37.21 377.6,-46.72 382.52,-41.73"/>
</g>
<!-- ... &#160; -->
<g id="node11" class="node">
<title>... &#160;</title>
<polygon fill="none" stroke="black" points="472,-73.5 472,-109.5 526,-109.5 526,-73.5 472,-73.5"/>
<text text-anchor="middle" x="498.75" y="-86.83" font-family="Times,serif" font-size="14.00">... &#160;</text>
</g>
<!-- ... &#160;&#45;&gt;/usr/lib64/libbfd&#45;2.38.so -->
<g id="edge11" class="edge">
<title>... &#160;&#45;&gt;/usr/lib64/libbfd&#45;2.38.so</title>
<path fill="none" stroke="black" d="M472.25,-77.31C451.66,-67.16 422.77,-52.92 398.82,-41.11"/>
<polygon fill="black" stroke="black" points="400.76,-37.67 390.24,-36.38 397.66,-43.94 400.76,-37.67"/>
</g>
</g>
</svg>
