<?xml version="1.0" encoding="UTF-8" standalone="no"?>
<!DOCTYPE svg PUBLIC "-//W3C//DTD SVG 1.1//EN"
 "http://www.w3.org/Graphics/SVG/1.1/DTD/svg11.dtd">
<!-- Generated by graphviz version 12.1.1 (0)
 -->
<!-- Pages: 1 -->
<svg width="372pt" height="156pt"
 viewBox="0.00 0.00 371.75 156.25" xmlns="http://www.w3.org/2000/svg" xmlns:xlink="http://www.w3.org/1999/xlink">
<g id="graph0" class="graph" transform="scale(1 1) rotate(0) translate(4 152.25)">
<polygon fill="white" stroke="none" points="-4,4 -4,-152.25 367.75,-152.25 367.75,4 -4,4"/>
<text text-anchor="middle" x="181.88" y="-7.95" font-family="Times,serif" font-size="14.00">Which lib_name() will be used?</text>
<!-- main -->
<g id="node1" class="node">
<title>main</title>
<polygon fill="none" stroke="black" points="109.62,-105.25 109.62,-147.75 236.62,-147.75 236.62,-105.25 109.62,-105.25"/>
<text text-anchor="middle" x="173.12" y="-130.45" font-family="Times,serif" font-size="14.00">main:</text>
<text text-anchor="middle" x="173.12" y="-113.2" font-family="Times,serif" font-size="14.00">uses lib_name()</text>
</g>
<!-- libl1.so -->
<g id="node2" class="node">
<title>libl1.so</title>
<polygon fill="none" stroke="black" points="0,-25.75 0,-68.25 156.25,-68.25 156.25,-25.75 0,-25.75"/>
<text text-anchor="middle" x="78.12" y="-50.95" font-family="Times,serif" font-size="14.00">libl1.so:</text>
<text text-anchor="middle" x="78.12" y="-33.7" font-family="Times,serif" font-size="14.00">provides lib_name()</text>
</g>
<!-- main&#45;&gt;libl1.so -->
<g id="edge1" class="edge">
<title>main&#45;&gt;libl1.so</title>
<path fill="none" stroke="red" d="M148.16,-105.14C137.13,-96.13 123.97,-85.4 112.06,-75.68"/>
<polygon fill="red" stroke="red" points="114.38,-73.06 104.42,-69.45 109.96,-78.49 114.38,-73.06"/>
</g>
<!-- libl2.so -->
<g id="node3" class="node">
<title>libl2.so</title>
<polygon fill="none" stroke="black" points="174.5,-25.75 174.5,-68.25 363.75,-68.25 363.75,-25.75 174.5,-25.75"/>
<text text-anchor="middle" x="269.12" y="-50.95" font-family="Times,serif" font-size="14.00">libl2.so:</text>
<text text-anchor="middle" x="269.12" y="-33.7" font-family="Times,serif" font-size="14.00">also provides lib_name()</text>
</g>
<!-- main&#45;&gt;libl2.so -->
<g id="edge2" class="edge">
<title>main&#45;&gt;libl2.so</title>
<path fill="none" stroke="red" d="M198.6,-104.93C209.67,-96 222.8,-85.4 234.71,-75.78"/>
<polygon fill="red" stroke="red" points="236.77,-78.62 242.35,-69.61 232.37,-73.17 236.77,-78.62"/>
</g>
</g>
</svg>
