<?xml version="1.0" encoding="UTF-8" standalone="no"?>
<!DOCTYPE svg PUBLIC "-//W3C//DTD SVG 1.1//EN"
 "http://www.w3.org/Graphics/SVG/1.1/DTD/svg11.dtd">
<!-- Generated by graphviz version 12.1.0 (0)
 -->
<!-- Pages: 1 -->
<svg width="314pt" height="191pt"
 viewBox="0.00 0.00 313.50 191.00" xmlns="http://www.w3.org/2000/svg" xmlns:xlink="http://www.w3.org/1999/xlink">
<g id="graph0" class="graph" transform="scale(1 1) rotate(0) translate(4 187)">
<polygon fill="white" stroke="none" points="-4,4 -4,-187 309.5,-187 309.5,4 -4,4"/>
<!-- qtwebengine -->
<g id="node1" class="node">
<title>qtwebengine</title>
<polygon fill="none" stroke="black" points="27.38,-73.5 27.38,-109.5 135.62,-109.5 135.62,-73.5 27.38,-73.5"/>
<text text-anchor="middle" x="81.5" y="-86.83" font-family="Times,serif" font-size="14.00">qtwebengine</text>
</g>
<!-- ffmpeg&#45;4 -->
<g id="node2" class="node">
<title>ffmpeg&#45;4</title>
<polygon fill="pink" stroke="black" points="0,-0.5 0,-36.5 79,-36.5 79,-0.5 0,-0.5"/>
<text text-anchor="middle" x="39.5" y="-13.82" font-family="Times,serif" font-size="14.00">ffmpeg&#45;4</text>
</g>
<!-- qtwebengine&#45;&gt;ffmpeg&#45;4 -->
<g id="edge1" class="edge">
<title>qtwebengine&#45;&gt;ffmpeg&#45;4</title>
<path fill="none" stroke="black" d="M71.33,-73.31C66.54,-65.2 60.7,-55.34 55.34,-46.28"/>
<polygon fill="black" stroke="black" points="58.45,-44.66 50.34,-37.83 52.42,-48.22 58.45,-44.66"/>
</g>
<!-- ... -->
<g id="node3" class="node">
<title>...</title>
<polygon fill="none" stroke="black" points="97.5,-0.5 97.5,-36.5 151.5,-36.5 151.5,-0.5 97.5,-0.5"/>
<text text-anchor="middle" x="124.25" y="-13.82" font-family="Times,serif" font-size="14.00">...</text>
</g>
<!-- qtwebengine&#45;&gt;... -->
<g id="edge2" class="edge">
<title>qtwebengine&#45;&gt;...</title>
<path fill="none" stroke="black" d="M91.91,-73.31C96.82,-65.2 102.8,-55.34 108.28,-46.28"/>
<polygon fill="black" stroke="black" points="111.22,-48.19 113.4,-37.82 105.23,-44.56 111.22,-48.19"/>
</g>
<!-- amarok -->
<g id="node4" class="node">
<title>amarok</title>
<polygon fill="none" stroke="black" points="158.88,-146.5 158.88,-182.5 228.12,-182.5 228.12,-146.5 158.88,-146.5"/>
<text text-anchor="middle" x="193.5" y="-159.82" font-family="Times,serif" font-size="14.00">amarok</text>
</g>
<!-- amarok&#45;&gt;qtwebengine -->
<g id="edge4" class="edge">
<title>amarok&#45;&gt;qtwebengine</title>
<path fill="none" stroke="black" d="M166.1,-146.13C151.73,-137.02 133.92,-125.73 118.35,-115.86"/>
<polygon fill="black" stroke="black" points="120.6,-113.14 110.28,-110.75 116.85,-119.06 120.6,-113.14"/>
</g>
<!-- ffmpeg&#45;5 -->
<g id="node5" class="node">
<title>ffmpeg&#45;5</title>
<polygon fill="pink" stroke="black" points="154,-73.5 154,-109.5 233,-109.5 233,-73.5 154,-73.5"/>
<text text-anchor="middle" x="193.5" y="-86.83" font-family="Times,serif" font-size="14.00">ffmpeg&#45;5</text>
</g>
<!-- amarok&#45;&gt;ffmpeg&#45;5 -->
<g id="edge3" class="edge">
<title>amarok&#45;&gt;ffmpeg&#45;5</title>
<path fill="none" stroke="black" d="M193.5,-146.31C193.5,-138.73 193.5,-129.6 193.5,-121.04"/>
<polygon fill="black" stroke="black" points="197,-121.04 193.5,-111.04 190,-121.04 197,-121.04"/>
</g>
<!-- ...  -->
<g id="node6" class="node">
<title>... </title>
<polygon fill="none" stroke="black" points="251.5,-73.5 251.5,-109.5 305.5,-109.5 305.5,-73.5 251.5,-73.5"/>
<text text-anchor="middle" x="278.5" y="-86.83" font-family="Times,serif" font-size="14.00">... </text>
</g>
<!-- amarok&#45;&gt;...  -->
<g id="edge5" class="edge">
<title>amarok&#45;&gt;... </title>
<path fill="none" stroke="black" d="M214.08,-146.31C224.65,-137.48 237.71,-126.57 249.3,-116.89"/>
<polygon fill="black" stroke="black" points="251.23,-119.84 256.66,-110.75 246.74,-114.47 251.23,-119.84"/>
</g>
</g>
</svg>
