<?xml version="1.0" encoding="UTF-8" standalone="no"?>
<!DOCTYPE svg PUBLIC "-//W3C//DTD SVG 1.1//EN"
 "http://www.w3.org/Graphics/SVG/1.1/DTD/svg11.dtd">
<!-- Generated by graphviz version 9.0.0 (0)
 -->
<!-- Pages: 1 -->
<svg width="859pt" height="118pt"
 viewBox="0.00 0.00 858.62 118.00" xmlns="http://www.w3.org/2000/svg" xmlns:xlink="http://www.w3.org/1999/xlink">
<g id="graph0" class="graph" transform="scale(1 1) rotate(0) translate(4 114)">
<polygon fill="white" stroke="none" points="-4,4 -4,-114 854.62,-114 854.62,4 -4,4"/>
<!-- strip&#45;2.38 -->
<g id="node1" class="node">
<title>strip&#45;2.38</title>
<polygon fill="none" stroke="black" points="8.38,-73.5 8.38,-109.5 94.12,-109.5 94.12,-73.5 8.38,-73.5"/>
<text text-anchor="middle" x="51.25" y="-86.83" font-family="Times,serif" font-size="14.00">strip&#45;2.38</text>
</g>
<!-- .../binutils/.../2.38/libbfd&#45;2.38&#45;64&#45;bit.so -->
<g id="node2" class="node">
<title>.../binutils/.../2.38/libbfd&#45;2.38&#45;64&#45;bit.so</title>
<polygon fill="none" stroke="black" points="0,-0.5 0,-36.5 290.5,-36.5 290.5,-0.5 0,-0.5"/>
<text text-anchor="middle" x="145.25" y="-13.82" font-family="Times,serif" font-size="14.00">.../binutils/.../2.38/libbfd&#45;2.38&#45;64&#45;bit.so</text>
</g>
<!-- strip&#45;2.38&#45;&gt;.../binutils/.../2.38/libbfd&#45;2.38&#45;64&#45;bit.so -->
<g id="edge1" class="edge">
<title>strip&#45;2.38&#45;&gt;.../binutils/.../2.38/libbfd&#45;2.38&#45;64&#45;bit.so</title>
<path fill="none" stroke="black" d="M74,-73.31C85.81,-64.4 100.43,-53.36 113.34,-43.6"/>
<polygon fill="black" stroke="black" points="115.3,-46.51 121.17,-37.69 111.08,-40.92 115.3,-46.51"/>
</g>
<!-- ld&#45;2.38 -->
<g id="node3" class="node">
<title>ld&#45;2.38</title>
<polygon fill="none" stroke="black" points="112.5,-73.5 112.5,-109.5 178,-109.5 178,-73.5 112.5,-73.5"/>
<text text-anchor="middle" x="145.25" y="-86.83" font-family="Times,serif" font-size="14.00">ld&#45;2.38</text>
</g>
<!-- ld&#45;2.38&#45;&gt;.../binutils/.../2.38/libbfd&#45;2.38&#45;64&#45;bit.so -->
<g id="edge2" class="edge">
<title>ld&#45;2.38&#45;&gt;.../binutils/.../2.38/libbfd&#45;2.38&#45;64&#45;bit.so</title>
<path fill="none" stroke="black" d="M145.25,-73.31C145.25,-65.73 145.25,-56.6 145.25,-48.04"/>
<polygon fill="black" stroke="black" points="148.75,-48.04 145.25,-38.04 141.75,-48.04 148.75,-48.04"/>
</g>
<!-- ... -->
<g id="node4" class="node">
<title>...</title>
<polygon fill="none" stroke="black" points="196.25,-73.5 196.25,-109.5 250.25,-109.5 250.25,-73.5 196.25,-73.5"/>
<text text-anchor="middle" x="223" y="-86.83" font-family="Times,serif" font-size="14.00">...</text>
</g>
<!-- ...&#45;&gt;.../binutils/.../2.38/libbfd&#45;2.38&#45;64&#45;bit.so -->
<g id="edge3" class="edge">
<title>...&#45;&gt;.../binutils/.../2.38/libbfd&#45;2.38&#45;64&#45;bit.so</title>
<path fill="none" stroke="black" d="M204.37,-73.31C194.86,-64.66 183.15,-54 172.67,-44.46"/>
<polygon fill="black" stroke="black" points="175.1,-41.94 165.35,-37.79 170.39,-47.11 175.1,-41.94"/>
</g>
<!-- ld&#45;2.37 -->
<g id="node5" class="node">
<title>ld&#45;2.37</title>
<polygon fill="none" stroke="black" points="382.5,-73.5 382.5,-109.5 448,-109.5 448,-73.5 382.5,-73.5"/>
<text text-anchor="middle" x="415.25" y="-86.83" font-family="Times,serif" font-size="14.00">ld&#45;2.37</text>
</g>
<!-- .../binutils/.../2.37/libbfd&#45;2.37&#45;64&#45;bit.so -->
<g id="node6" class="node">
<title>.../binutils/.../2.37/libbfd&#45;2.37&#45;64&#45;bit.so</title>
<polygon fill="none" stroke="black" points="309,-0.5 309,-36.5 599.5,-36.5 599.5,-0.5 309,-0.5"/>
<text text-anchor="middle" x="454.25" y="-13.82" font-family="Times,serif" font-size="14.00">.../binutils/.../2.37/libbfd&#45;2.37&#45;64&#45;bit.so</text>
</g>
<!-- ld&#45;2.37&#45;&gt;.../binutils/.../2.37/libbfd&#45;2.37&#45;64&#45;bit.so -->
<g id="edge4" class="edge">
<title>ld&#45;2.37&#45;&gt;.../binutils/.../2.37/libbfd&#45;2.37&#45;64&#45;bit.so</title>
<path fill="none" stroke="black" d="M424.69,-73.31C429.1,-65.29 434.45,-55.55 439.38,-46.57"/>
<polygon fill="black" stroke="black" points="442.42,-48.31 444.17,-37.86 436.29,-44.94 442.42,-48.31"/>
</g>
<!-- ...  -->
<g id="node7" class="node">
<title>... </title>
<polygon fill="none" stroke="black" points="466.25,-73.5 466.25,-109.5 520.25,-109.5 520.25,-73.5 466.25,-73.5"/>
<text text-anchor="middle" x="493.25" y="-86.83" font-family="Times,serif" font-size="14.00">... </text>
</g>
<!-- ... &#45;&gt;.../binutils/.../2.37/libbfd&#45;2.37&#45;64&#45;bit.so -->
<g id="edge5" class="edge">
<title>... &#45;&gt;.../binutils/.../2.37/libbfd&#45;2.37&#45;64&#45;bit.so</title>
<path fill="none" stroke="black" d="M483.81,-73.31C479.4,-65.29 474.05,-55.55 469.12,-46.57"/>
<polygon fill="black" stroke="black" points="472.21,-44.94 464.33,-37.86 466.08,-48.31 472.21,-44.94"/>
</g>
<!-- perf -->
<g id="node8" class="node">
<title>perf</title>
<polygon fill="none" stroke="black" points="635.25,-73.5 635.25,-109.5 689.25,-109.5 689.25,-73.5 635.25,-73.5"/>
<text text-anchor="middle" x="661.88" y="-86.83" font-family="Times,serif" font-size="14.00">perf</text>
</g>
<!-- /usr/lib64/libbfd&#45;2.38&#45;32&#45;bit.so -->
<g id="node9" class="node">
<title>/usr/lib64/libbfd&#45;2.38&#45;32&#45;bit.so</title>
<polygon fill="none" stroke="black" points="617.88,-0.5 617.88,-36.5 850.62,-36.5 850.62,-0.5 617.88,-0.5"/>
<text text-anchor="middle" x="734.25" y="-13.82" font-family="Times,serif" font-size="14.00">/usr/lib64/libbfd&#45;2.38&#45;32&#45;bit.so</text>
</g>
<!-- perf&#45;&gt;/usr/lib64/libbfd&#45;2.38&#45;32&#45;bit.so -->
<g id="edge6" class="edge">
<title>perf&#45;&gt;/usr/lib64/libbfd&#45;2.38&#45;32&#45;bit.so</title>
<path fill="none" stroke="black" d="M679.68,-73.31C688.37,-64.74 699.05,-54.21 708.65,-44.74"/>
<polygon fill="black" stroke="black" points="710.99,-47.35 715.65,-37.84 706.08,-42.37 710.99,-47.35"/>
</g>
<!-- ghc -->
<g id="node10" class="node">
<title>ghc</title>
<polygon fill="none" stroke="black" points="707.25,-73.5 707.25,-109.5 761.25,-109.5 761.25,-73.5 707.25,-73.5"/>
<text text-anchor="middle" x="734" y="-86.83" font-family="Times,serif" font-size="14.00">ghc</text>
</g>
<!-- ghc&#45;&gt;/usr/lib64/libbfd&#45;2.38&#45;32&#45;bit.so -->
<g id="edge7" class="edge">
<title>ghc&#45;&gt;/usr/lib64/libbfd&#45;2.38&#45;32&#45;bit.so</title>
<path fill="none" stroke="black" d="M734.25,-73.31C734.25,-65.73 734.25,-56.6 734.25,-48.04"/>
<polygon fill="black" stroke="black" points="737.75,-48.04 734.25,-38.04 730.75,-48.04 737.75,-48.04"/>
</g>
<!-- ... &#160; -->
<g id="node11" class="node">
<title>... &#160;</title>
<polygon fill="none" stroke="black" points="779.25,-73.5 779.25,-109.5 833.25,-109.5 833.25,-73.5 779.25,-73.5"/>
<text text-anchor="middle" x="806" y="-86.83" font-family="Times,serif" font-size="14.00">... &#160;</text>
</g>
<!-- ... &#160;&#45;&gt;/usr/lib64/libbfd&#45;2.38&#45;32&#45;bit.so -->
<g id="edge8" class="edge">
<title>... &#160;&#45;&gt;/usr/lib64/libbfd&#45;2.38&#45;32&#45;bit.so</title>
<path fill="none" stroke="black" d="M788.82,-73.31C780.13,-64.74 769.45,-54.21 759.85,-44.74"/>
<polygon fill="black" stroke="black" points="762.42,-42.37 752.85,-37.84 757.51,-47.35 762.42,-42.37"/>
</g>
</g>
</svg>
