<?xml version="1.0" encoding="UTF-8" standalone="no"?>
<!DOCTYPE svg PUBLIC "-//W3C//DTD SVG 1.1//EN"
 "http://www.w3.org/Graphics/SVG/1.1/DTD/svg11.dtd">
<!-- Generated by graphviz version 8.0.5 (0)
 -->
<!-- Pages: 1 -->
<svg width="1807pt" height="620pt"
 viewBox="0.00 0.00 1806.62 620.00" xmlns="http://www.w3.org/2000/svg" xmlns:xlink="http://www.w3.org/1999/xlink">
<g id="graph0" class="graph" transform="scale(1 1) rotate(0) translate(4 616)">
<polygon fill="white" stroke="none" points="-4,4 -4,-616 1802.62,-616 1802.62,4 -4,4"/>
<!-- gdb -->
<g id="node1" class="node">
<title>gdb</title>
<polygon fill="none" stroke="black" points="1268,-612 1214,-612 1214,-576 1268,-576 1268,-612"/>
<text text-anchor="middle" x="1241" y="-589.33" font-family="Times,serif" font-size="14.00">gdb</text>
</g>
<!-- ld&#45;linux&#45;x86&#45;64.so.2 -->
<g id="node2" class="node">
<title>ld&#45;linux&#45;x86&#45;64.so.2</title>
<polygon fill="none" stroke="black" points="447.75,-36 292.25,-36 292.25,0 447.75,0 447.75,-36"/>
<text text-anchor="middle" x="370" y="-13.32" font-family="Times,serif" font-size="14.00">ld&#45;linux&#45;x86&#45;64.so.2</text>
</g>
<!-- gdb&#45;&gt;ld&#45;linux&#45;x86&#45;64.so.2 -->
<g id="edge1" class="edge">
<title>gdb&#45;&gt;ld&#45;linux&#45;x86&#45;64.so.2</title>
<path fill="none" stroke="black" d="M1213.63,-592.83C1031.34,-591.37 0,-577.52 0,-451 0,-451 0,-451 0,-161 0,-90.98 65.75,-99.84 130,-72 177.95,-51.23 234.94,-38.2 281.36,-30.26"/>
<polygon fill="black" stroke="black" points="281.71,-33.59 291,-28.5 280.56,-26.68 281.71,-33.59"/>
</g>
<!-- libboost_regex.so.1.77.0 -->
<g id="node3" class="node">
<title>libboost_regex.so.1.77.0</title>
<polygon fill="none" stroke="black" points="868,-468 678,-468 678,-432 868,-432 868,-468"/>
<text text-anchor="middle" x="773" y="-445.32" font-family="Times,serif" font-size="14.00">libboost_regex.so.1.77.0</text>
</g>
<!-- gdb&#45;&gt;libboost_regex.so.1.77.0 -->
<g id="edge2" class="edge">
<title>gdb&#45;&gt;libboost_regex.so.1.77.0</title>
<path fill="none" stroke="black" d="M1213.53,-593.81C1151.55,-594.61 997.28,-590.88 882,-540 848.26,-525.11 816.41,-496.83 795.95,-476.13"/>
<polygon fill="black" stroke="black" points="798.89,-474.1 789.43,-469.34 793.86,-478.97 798.89,-474.1"/>
</g>
<!-- libcrypt.so.1 -->
<g id="node4" class="node">
<title>libcrypt.so.1</title>
<polygon fill="none" stroke="black" points="1699.62,-180 1594.38,-180 1594.38,-144 1699.62,-144 1699.62,-180"/>
<text text-anchor="middle" x="1647" y="-157.32" font-family="Times,serif" font-size="14.00">libcrypt.so.1</text>
</g>
<!-- gdb&#45;&gt;libcrypt.so.1 -->
<g id="edge3" class="edge">
<title>gdb&#45;&gt;libcrypt.so.1</title>
<path fill="none" stroke="black" d="M1268.06,-593.59C1331.4,-594.04 1493.23,-589.8 1616,-540 1678.2,-514.77 1738,-518.12 1738,-451 1738,-451 1738,-451 1738,-305 1738,-264.55 1740.94,-249.98 1719,-216 1711.49,-204.37 1700.48,-194.42 1689.32,-186.38"/>
<polygon fill="black" stroke="black" points="1691.64,-183.04 1681.39,-180.34 1687.72,-188.84 1691.64,-183.04"/>
</g>
<!-- libc.so.6 -->
<g id="node5" class="node">
<title>libc.so.6</title>
<polygon fill="none" stroke="black" points="1130.62,-108 1055.38,-108 1055.38,-72 1130.62,-72 1130.62,-108"/>
<text text-anchor="middle" x="1093" y="-85.33" font-family="Times,serif" font-size="14.00">libc.so.6</text>
</g>
<!-- gdb&#45;&gt;libc.so.6 -->
<g id="edge4" class="edge">
<title>gdb&#45;&gt;libc.so.6</title>
<path fill="none" stroke="black" d="M1263.56,-575.62C1274.62,-566.11 1287.38,-553.53 1296,-540 1336.47,-476.52 1418.49,-287.53 1395,-216 1382.6,-178.25 1375.39,-165.54 1342,-144 1280.63,-104.4 1194.74,-93.84 1141.55,-91.33"/>
<polygon fill="black" stroke="black" points="1141.85,-87.8 1131.72,-90.91 1141.58,-94.8 1141.85,-87.8"/>
</g>
<!-- libdl.so.2 -->
<g id="node6" class="node">
<title>libdl.so.2</title>
<polygon fill="none" stroke="black" points="1798.62,-180 1717.38,-180 1717.38,-144 1798.62,-144 1798.62,-180"/>
<text text-anchor="middle" x="1758" y="-157.32" font-family="Times,serif" font-size="14.00">libdl.so.2</text>
</g>
<!-- gdb&#45;&gt;libdl.so.2 -->
<g id="edge5" class="edge">
<title>gdb&#45;&gt;libdl.so.2</title>
<path fill="none" stroke="black" d="M1268.24,-591.88C1352.08,-588.08 1605.07,-574.03 1679,-540 1732.15,-515.53 1776,-509.51 1776,-451 1776,-451 1776,-451 1776,-305 1776,-265.25 1768.97,-219.73 1763.7,-191.18"/>
<polygon fill="black" stroke="black" points="1766.95,-190.57 1761.64,-181.4 1760.08,-191.88 1766.95,-190.57"/>
</g>
<!-- libexpat.so.1 -->
<g id="node7" class="node">
<title>libexpat.so.1</title>
<polygon fill="none" stroke="black" points="173.75,-252 66.25,-252 66.25,-216 173.75,-216 173.75,-252"/>
<text text-anchor="middle" x="120" y="-229.32" font-family="Times,serif" font-size="14.00">libexpat.so.1</text>
</g>
<!-- gdb&#45;&gt;libexpat.so.1 -->
<g id="edge6" class="edge">
<title>gdb&#45;&gt;libexpat.so.1</title>
<path fill="none" stroke="black" d="M1213.57,-592.24C1078.67,-588.35 488.94,-569.76 413,-540 274.13,-485.59 171.16,-325.49 134.56,-261.69"/>
<polygon fill="black" stroke="black" points="137.22,-260.29 129.26,-253.31 131.13,-263.73 137.22,-260.29"/>
</g>
<!-- libgcc_s.so.1 -->
<g id="node8" class="node">
<title>libgcc_s.so.1</title>
<polygon fill="none" stroke="black" points="1146,-180 1040,-180 1040,-144 1146,-144 1146,-180"/>
<text text-anchor="middle" x="1093" y="-157.32" font-family="Times,serif" font-size="14.00">libgcc_s.so.1</text>
</g>
<!-- gdb&#45;&gt;libgcc_s.so.1 -->
<g id="edge7" class="edge">
<title>gdb&#45;&gt;libgcc_s.so.1</title>
<path fill="none" stroke="black" d="M1237.16,-575.61C1231.6,-548.94 1222,-496.27 1222,-451 1222,-451 1222,-451 1222,-377 1222,-298.83 1158.09,-224.69 1120.24,-187.62"/>
<polygon fill="black" stroke="black" points="1123.23,-185.68 1113.59,-181.29 1118.39,-190.74 1123.23,-185.68"/>
</g>
<!-- libgmp.so.10 -->
<g id="node9" class="node">
<title>libgmp.so.10</title>
<polygon fill="none" stroke="black" points="1310.12,-180 1201.88,-180 1201.88,-144 1310.12,-144 1310.12,-180"/>
<text text-anchor="middle" x="1256" y="-157.32" font-family="Times,serif" font-size="14.00">libgmp.so.10</text>
</g>
<!-- gdb&#45;&gt;libgmp.so.10 -->
<g id="edge8" class="edge">
<title>gdb&#45;&gt;libgmp.so.10</title>
<path fill="none" stroke="black" d="M1244.84,-575.61C1250.4,-548.94 1260,-496.27 1260,-451 1260,-451 1260,-451 1260,-377 1260,-310.4 1258.04,-232.16 1256.86,-191.22"/>
<polygon fill="black" stroke="black" points="1260.34,-191.37 1256.55,-181.47 1253.34,-191.57 1260.34,-191.37"/>
</g>
<!-- libipt.so.2 -->
<g id="node10" class="node">
<title>libipt.so.2</title>
<polygon fill="none" stroke="black" points="431.62,-324 344.38,-324 344.38,-288 431.62,-288 431.62,-324"/>
<text text-anchor="middle" x="388" y="-301.32" font-family="Times,serif" font-size="14.00">libipt.so.2</text>
</g>
<!-- gdb&#45;&gt;libipt.so.2 -->
<g id="edge9" class="edge">
<title>gdb&#45;&gt;libipt.so.2</title>
<path fill="none" stroke="black" d="M1213.72,-593.05C1080.91,-593.07 506.01,-590.21 446,-540 385.17,-489.11 382.72,-385.18 385.48,-335.14"/>
<polygon fill="black" stroke="black" points="389.03,-335.42 386.21,-325.21 382.05,-334.95 389.03,-335.42"/>
</g>
<!-- libmpfr.so.6 -->
<g id="node11" class="node">
<title>libmpfr.so.6</title>
<polygon fill="none" stroke="black" points="1386.38,-252 1285.62,-252 1285.62,-216 1386.38,-216 1386.38,-252"/>
<text text-anchor="middle" x="1336" y="-229.32" font-family="Times,serif" font-size="14.00">libmpfr.so.6</text>
</g>
<!-- gdb&#45;&gt;libmpfr.so.6 -->
<g id="edge10" class="edge">
<title>gdb&#45;&gt;libmpfr.so.6</title>
<path fill="none" stroke="black" d="M1253.67,-575.57C1260.47,-565.56 1268.55,-552.52 1274,-540 1290.34,-502.43 1298,-491.97 1298,-451 1298,-451 1298,-451 1298,-377 1298,-335.81 1313.1,-290.12 1324.26,-261.98"/>
<polygon fill="black" stroke="black" points="1327.76,-263.67 1328.31,-253.09 1321.28,-261.02 1327.76,-263.67"/>
</g>
<!-- libm.so.6 -->
<g id="node12" class="node">
<title>libm.so.6</title>
<polygon fill="none" stroke="black" points="325.62,-180 244.38,-180 244.38,-144 325.62,-144 325.62,-180"/>
<text text-anchor="middle" x="285" y="-157.32" font-family="Times,serif" font-size="14.00">libm.so.6</text>
</g>
<!-- gdb&#45;&gt;libm.so.6 -->
<g id="edge11" class="edge">
<title>gdb&#45;&gt;libm.so.6</title>
<path fill="none" stroke="black" d="M1213.57,-592.73C1071.64,-591.13 424.25,-581.62 346,-540 249.04,-488.43 233.57,-433.56 226,-324 222.64,-275.38 223.7,-259.84 245,-216 249.59,-206.56 255.97,-197.13 262.3,-188.89"/>
<polygon fill="black" stroke="black" points="265.51,-191.48 269.05,-181.49 260.06,-187.09 265.51,-191.48"/>
</g>
<!-- libncursesw.so.6 -->
<g id="node13" class="node">
<title>libncursesw.so.6</title>
<polygon fill="none" stroke="black" points="1497.88,-468 1364.12,-468 1364.12,-432 1497.88,-432 1497.88,-468"/>
<text text-anchor="middle" x="1431" y="-445.32" font-family="Times,serif" font-size="14.00">libncursesw.so.6</text>
</g>
<!-- gdb&#45;&gt;libncursesw.so.6 -->
<g id="edge12" class="edge">
<title>gdb&#45;&gt;libncursesw.so.6</title>
<path fill="none" stroke="black" d="M1268.13,-583.17C1291.21,-574.06 1324.56,-559.04 1350,-540 1374.11,-521.95 1396.76,-496.01 1411.94,-476.78"/>
<polygon fill="black" stroke="black" points="1415.22,-479.26 1418.57,-469.21 1409.68,-474.98 1415.22,-479.26"/>
</g>
<!-- libpthread.so.0 -->
<g id="node14" class="node">
<title>libpthread.so.0</title>
<polygon fill="none" stroke="black" points="506,-252 382,-252 382,-216 506,-216 506,-252"/>
<text text-anchor="middle" x="444" y="-229.32" font-family="Times,serif" font-size="14.00">libpthread.so.0</text>
</g>
<!-- gdb&#45;&gt;libpthread.so.0 -->
<g id="edge13" class="edge">
<title>gdb&#45;&gt;libpthread.so.0</title>
<path fill="none" stroke="black" d="M1213.66,-590.99C1075.43,-580.48 460,-529.3 460,-451 460,-451 460,-451 460,-377 460,-337.32 453.75,-291.78 449.07,-263.2"/>
<polygon fill="black" stroke="black" points="452.36,-262.69 447.24,-253.42 445.46,-263.86 452.36,-262.69"/>
</g>
<!-- libpython3.9.so.1.0 -->
<g id="node15" class="node">
<title>libpython3.9.so.1.0</title>
<polygon fill="none" stroke="black" points="1709.62,-252 1556.38,-252 1556.38,-216 1709.62,-216 1709.62,-252"/>
<text text-anchor="middle" x="1633" y="-229.32" font-family="Times,serif" font-size="14.00">libpython3.9.so.1.0</text>
</g>
<!-- gdb&#45;&gt;libpython3.9.so.1.0 -->
<g id="edge14" class="edge">
<title>gdb&#45;&gt;libpython3.9.so.1.0</title>
<path fill="none" stroke="black" d="M1268.41,-590.68C1337.05,-584.54 1514.54,-566.5 1567,-540 1617.5,-514.49 1658,-507.57 1658,-451 1658,-451 1658,-451 1658,-377 1658,-336.78 1648.15,-291.11 1640.82,-262.68"/>
<polygon fill="black" stroke="black" points="1644.01,-262.08 1638.06,-253.32 1637.25,-263.88 1644.01,-262.08"/>
</g>
<!-- libreadline.so.8 -->
<g id="node16" class="node">
<title>libreadline.so.8</title>
<polygon fill="none" stroke="black" points="1528.12,-540 1401.88,-540 1401.88,-504 1528.12,-504 1528.12,-540"/>
<text text-anchor="middle" x="1465" y="-517.33" font-family="Times,serif" font-size="14.00">libreadline.so.8</text>
</g>
<!-- gdb&#45;&gt;libreadline.so.8 -->
<g id="edge15" class="edge">
<title>gdb&#45;&gt;libreadline.so.8</title>
<path fill="none" stroke="black" d="M1268.47,-584.42C1300.8,-574.31 1355.62,-557.18 1399.16,-543.58"/>
<polygon fill="black" stroke="black" points="1399.89,-546.7 1408.4,-540.38 1397.81,-540.02 1399.89,-546.7"/>
</g>
<!-- libsource&#45;highlight.so.4 -->
<g id="node17" class="node">
<title>libsource&#45;highlight.so.4</title>
<polygon fill="none" stroke="black" points="1194,-540 1010,-540 1010,-504 1194,-504 1194,-540"/>
<text text-anchor="middle" x="1102" y="-517.33" font-family="Times,serif" font-size="14.00">libsource&#45;highlight.so.4</text>
</g>
<!-- gdb&#45;&gt;libsource&#45;highlight.so.4 -->
<g id="edge16" class="edge">
<title>gdb&#45;&gt;libsource&#45;highlight.so.4</title>
<path fill="none" stroke="black" d="M1213.54,-579.17C1194.4,-569.53 1168.44,-556.46 1146.38,-545.35"/>
<polygon fill="black" stroke="black" points="1148.06,-541.78 1137.56,-540.4 1144.92,-548.03 1148.06,-541.78"/>
</g>
<!-- libstdc++.so.6 -->
<g id="node18" class="node">
<title>libstdc++.so.6</title>
<polygon fill="none" stroke="black" points="907.88,-252 786.12,-252 786.12,-216 907.88,-216 907.88,-252"/>
<text text-anchor="middle" x="847" y="-229.32" font-family="Times,serif" font-size="14.00">libstdc++.so.6</text>
</g>
<!-- gdb&#45;&gt;libstdc++.so.6 -->
<g id="edge17" class="edge">
<title>gdb&#45;&gt;libstdc++.so.6</title>
<path fill="none" stroke="black" d="M1213.67,-591.25C1167.6,-587.38 1072.49,-575.44 1001,-540 946.19,-512.83 896,-512.18 896,-451 896,-451 896,-451 896,-377 896,-334.96 876.57,-289.56 862.18,-261.7"/>
<polygon fill="black" stroke="black" points="864.95,-260.45 857.15,-253.27 858.77,-263.74 864.95,-260.45"/>
</g>
<!-- libz.so.1 -->
<g id="node19" class="node">
<title>libz.so.1</title>
<polygon fill="none" stroke="black" points="1629.62,-468 1554.38,-468 1554.38,-432 1629.62,-432 1629.62,-468"/>
<text text-anchor="middle" x="1592" y="-445.32" font-family="Times,serif" font-size="14.00">libz.so.1</text>
</g>
<!-- gdb&#45;&gt;libz.so.1 -->
<g id="edge18" class="edge">
<title>gdb&#45;&gt;libz.so.1</title>
<path fill="none" stroke="black" d="M1268.17,-590.96C1332.73,-585.66 1493.18,-569.8 1537,-540 1558.87,-525.13 1573.66,-498.38 1582.34,-478.07"/>
<polygon fill="black" stroke="black" points="1585.85,-479.73 1586.33,-469.14 1579.35,-477.12 1585.85,-479.73"/>
</g>
<!-- libboost_regex.so.1.77.0&#45;&gt;libc.so.6 -->
<g id="edge19" class="edge">
<title>libboost_regex.so.1.77.0&#45;&gt;libc.so.6</title>
<path fill="none" stroke="black" d="M810.04,-431.59C826.64,-422.57 845.65,-410.41 860,-396 952.28,-303.31 921.22,-238.17 1012,-144 1022.98,-132.61 1036.84,-122.43 1049.98,-114.11"/>
<polygon fill="black" stroke="black" points="1051.64,-116.58 1058.36,-108.39 1048,-110.6 1051.64,-116.58"/>
</g>
<!-- libboost_regex.so.1.77.0&#45;&gt;libgcc_s.so.1 -->
<g id="edge20" class="edge">
<title>libboost_regex.so.1.77.0&#45;&gt;libgcc_s.so.1</title>
<path fill="none" stroke="black" d="M868.18,-442.24C938.3,-435.24 1025.68,-421.58 1051,-396 1105.75,-340.7 1102.49,-239.76 1097.08,-190.93"/>
<polygon fill="black" stroke="black" points="1100.46,-190.74 1095.76,-181.24 1093.51,-191.59 1100.46,-190.74"/>
</g>
<!-- libboost_regex.so.1.77.0&#45;&gt;libm.so.6 -->
<g id="edge24" class="edge">
<title>libboost_regex.so.1.77.0&#45;&gt;libm.so.6</title>
<path fill="none" stroke="black" d="M677.51,-434.64C557.99,-414.76 362.73,-375.44 312,-324 277.34,-288.86 277.34,-227.02 280.89,-191.07"/>
<polygon fill="black" stroke="black" points="284.45,-191.71 282.12,-181.38 277.5,-190.91 284.45,-191.71"/>
</g>
<!-- libboost_regex.so.1.77.0&#45;&gt;libpthread.so.0 -->
<g id="edge25" class="edge">
<title>libboost_regex.so.1.77.0&#45;&gt;libpthread.so.0</title>
<path fill="none" stroke="black" d="M714.1,-431.51C657.28,-412.34 571.37,-377.07 512,-324 491.41,-305.6 472.74,-280.23 460.19,-261.28"/>
<polygon fill="black" stroke="black" points="462.75,-259.79 454.38,-253.29 456.87,-263.59 462.75,-259.79"/>
</g>
<!-- libboost_regex.so.1.77.0&#45;&gt;libstdc++.so.6 -->
<g id="edge27" class="edge">
<title>libboost_regex.so.1.77.0&#45;&gt;libstdc++.so.6</title>
<path fill="none" stroke="black" d="M804.71,-431.71C817.71,-422.85 831.45,-410.79 839,-396 860.62,-353.63 857.06,-296.56 852.22,-262.98"/>
<polygon fill="black" stroke="black" points="855.53,-262.47 850.5,-253.14 848.61,-263.57 855.53,-262.47"/>
</g>
<!-- libicudata.so.71 -->
<g id="node20" class="node">
<title>libicudata.so.71</title>
<polygon fill="none" stroke="black" points="767.62,-252 638.38,-252 638.38,-216 767.62,-216 767.62,-252"/>
<text text-anchor="middle" x="703" y="-229.32" font-family="Times,serif" font-size="14.00">libicudata.so.71</text>
</g>
<!-- libboost_regex.so.1.77.0&#45;&gt;libicudata.so.71 -->
<g id="edge21" class="edge">
<title>libboost_regex.so.1.77.0&#45;&gt;libicudata.so.71</title>
<path fill="none" stroke="black" d="M729.52,-431.51C714.54,-423.13 699.43,-411.48 691,-396 678.9,-373.77 689.84,-302.78 697.34,-262.89"/>
<polygon fill="black" stroke="black" points="700.93,-263.78 699.39,-253.29 694.05,-262.45 700.93,-263.78"/>
</g>
<!-- libicui18n.so.71 -->
<g id="node21" class="node">
<title>libicui18n.so.71</title>
<polygon fill="none" stroke="black" points="829.62,-396 700.38,-396 700.38,-360 829.62,-360 829.62,-396"/>
<text text-anchor="middle" x="765" y="-373.32" font-family="Times,serif" font-size="14.00">libicui18n.so.71</text>
</g>
<!-- libboost_regex.so.1.77.0&#45;&gt;libicui18n.so.71 -->
<g id="edge22" class="edge">
<title>libboost_regex.so.1.77.0&#45;&gt;libicui18n.so.71</title>
<path fill="none" stroke="black" d="M771.02,-431.7C770.17,-424.24 769.15,-415.32 768.2,-406.97"/>
<polygon fill="black" stroke="black" points="771.57,-406.64 766.95,-397.1 764.61,-407.44 771.57,-406.64"/>
</g>
<!-- libicuuc.so.71 -->
<g id="node22" class="node">
<title>libicuuc.so.71</title>
<polygon fill="none" stroke="black" points="678.12,-324 563.88,-324 563.88,-288 678.12,-288 678.12,-324"/>
<text text-anchor="middle" x="621" y="-301.32" font-family="Times,serif" font-size="14.00">libicuuc.so.71</text>
</g>
<!-- libboost_regex.so.1.77.0&#45;&gt;libicuuc.so.71 -->
<g id="edge23" class="edge">
<title>libboost_regex.so.1.77.0&#45;&gt;libicuuc.so.71</title>
<path fill="none" stroke="black" d="M713.92,-431.59C694.13,-423.39 673.25,-411.84 658,-396 641.8,-379.17 632.26,-354.23 626.94,-335.03"/>
<polygon fill="black" stroke="black" points="630.12,-334.33 624.28,-325.49 623.34,-336.05 630.12,-334.33"/>
</g>
<!-- librt.so.1 -->
<g id="node23" class="node">
<title>librt.so.1</title>
<polygon fill="none" stroke="black" points="1042.25,-396 961.75,-396 961.75,-360 1042.25,-360 1042.25,-396"/>
<text text-anchor="middle" x="1002" y="-373.32" font-family="Times,serif" font-size="14.00">librt.so.1</text>
</g>
<!-- libboost_regex.so.1.77.0&#45;&gt;librt.so.1 -->
<g id="edge26" class="edge">
<title>libboost_regex.so.1.77.0&#45;&gt;librt.so.1</title>
<path fill="none" stroke="black" d="M830.98,-431.61C865.08,-421.34 909.02,-408.04 948,-396 948.94,-395.71 949.9,-395.41 950.86,-395.12"/>
<polygon fill="black" stroke="black" points="951.82,-398.17 960.32,-391.86 949.74,-391.49 951.82,-398.17"/>
</g>
<!-- libcrypt.so.1&#45;&gt;libc.so.6 -->
<g id="edge28" class="edge">
<title>libcrypt.so.1&#45;&gt;libc.so.6</title>
<path fill="none" stroke="black" d="M1594.12,-146.85C1589.36,-145.8 1584.61,-144.83 1580,-144 1420.88,-115.3 1229.5,-100 1141.54,-94.02"/>
<polygon fill="black" stroke="black" points="1142.05,-90.48 1131.84,-93.31 1141.58,-97.46 1142.05,-90.48"/>
</g>
<!-- libc.so.6&#45;&gt;ld&#45;linux&#45;x86&#45;64.so.2 -->
<g id="edge29" class="edge">
<title>libc.so.6&#45;&gt;ld&#45;linux&#45;x86&#45;64.so.2</title>
<path fill="none" stroke="black" d="M1054.89,-85.31C943.72,-74.55 617.61,-42.97 458.86,-27.6"/>
<polygon fill="black" stroke="black" points="459.48,-24.05 449.19,-26.57 458.8,-31.02 459.48,-24.05"/>
</g>
<!-- libdl.so.2&#45;&gt;libc.so.6 -->
<g id="edge30" class="edge">
<title>libdl.so.2&#45;&gt;libc.so.6</title>
<path fill="none" stroke="black" d="M1717.04,-145.96C1714.34,-145.23 1711.64,-144.56 1709,-144 1501.35,-99.77 1246.85,-92.25 1141.85,-91.11"/>
<polygon fill="black" stroke="black" points="1142.01,-87.61 1131.98,-91.01 1141.95,-94.61 1142.01,-87.61"/>
</g>
<!-- libexpat.so.1&#45;&gt;libc.so.6 -->
<g id="edge31" class="edge">
<title>libexpat.so.1&#45;&gt;libc.so.6</title>
<path fill="none" stroke="black" d="M135.54,-215.85C155.98,-194.63 194.13,-159.39 235,-144 310.68,-115.5 873.31,-97.27 1044.03,-92.35"/>
<polygon fill="black" stroke="black" points="1044.03,-95.82 1053.93,-92.03 1043.83,-88.82 1044.03,-95.82"/>
</g>
<!-- libexpat.so.1&#45;&gt;libm.so.6 -->
<g id="edge32" class="edge">
<title>libexpat.so.1&#45;&gt;libm.so.6</title>
<path fill="none" stroke="black" d="M161.21,-215.52C183.25,-206.17 210.57,-194.57 233.94,-184.66"/>
<polygon fill="black" stroke="black" points="235.19,-187.51 243.03,-180.38 232.46,-181.07 235.19,-187.51"/>
</g>
<!-- libgcc_s.so.1&#45;&gt;libc.so.6 -->
<g id="edge33" class="edge">
<title>libgcc_s.so.1&#45;&gt;libc.so.6</title>
<path fill="none" stroke="black" d="M1093,-143.7C1093,-136.24 1093,-127.32 1093,-118.97"/>
<polygon fill="black" stroke="black" points="1096.5,-119.1 1093,-109.1 1089.5,-119.1 1096.5,-119.1"/>
</g>
<!-- libgmp.so.10&#45;&gt;libc.so.6 -->
<g id="edge34" class="edge">
<title>libgmp.so.10&#45;&gt;libc.so.6</title>
<path fill="none" stroke="black" d="M1215.29,-143.52C1192.68,-133.81 1164.43,-121.68 1140.78,-111.52"/>
<polygon fill="black" stroke="black" points="1142.53,-108.03 1131.96,-107.3 1139.76,-114.46 1142.53,-108.03"/>
</g>
<!-- libipt.so.2&#45;&gt;libc.so.6 -->
<g id="edge49" class="edge">
<title>libipt.so.2&#45;&gt;libc.so.6</title>
<path fill="none" stroke="black" d="M378.77,-287.75C370.06,-268.9 360.1,-238.41 373,-216 404.8,-160.77 436.26,-163.28 497,-144 598.66,-111.73 920.69,-97.13 1044.16,-92.61"/>
<polygon fill="black" stroke="black" points="1044.26,-96.08 1054.13,-92.22 1044.01,-89.08 1044.26,-96.08"/>
</g>
<!-- libipt.so.2&#45;&gt;libpthread.so.0 -->
<g id="edge50" class="edge">
<title>libipt.so.2&#45;&gt;libpthread.so.0</title>
<path fill="none" stroke="black" d="M401.84,-287.7C408.42,-279.47 416.41,-269.48 423.66,-260.42"/>
<polygon fill="black" stroke="black" points="426.8,-263.1 430.32,-253.1 421.34,-258.73 426.8,-263.1"/>
</g>
<!-- libmpfr.so.6&#45;&gt;ld&#45;linux&#45;x86&#45;64.so.2 -->
<g id="edge51" class="edge">
<title>libmpfr.so.6&#45;&gt;ld&#45;linux&#45;x86&#45;64.so.2</title>
<path fill="none" stroke="black" d="M1343.2,-215.52C1349.89,-196.19 1356.82,-165.01 1342,-144 1287.07,-66.11 1233.3,-91.45 1140,-72 1012.22,-45.36 632.98,-28.57 459.01,-22.07"/>
<polygon fill="black" stroke="black" points="459.23,-18.54 449.11,-21.67 458.97,-25.53 459.23,-18.54"/>
</g>
<!-- libmpfr.so.6&#45;&gt;libc.so.6 -->
<g id="edge52" class="edge">
<title>libmpfr.so.6&#45;&gt;libc.so.6</title>
<path fill="none" stroke="black" d="M1337.82,-215.8C1338.92,-195.83 1337.4,-163.19 1319,-144 1294.9,-118.88 1200.42,-103.53 1141.51,-96.2"/>
<polygon fill="black" stroke="black" points="1142.3,-92.65 1131.95,-94.92 1141.46,-99.6 1142.3,-92.65"/>
</g>
<!-- libmpfr.so.6&#45;&gt;libgmp.so.10 -->
<g id="edge53" class="edge">
<title>libmpfr.so.6&#45;&gt;libgmp.so.10</title>
<path fill="none" stroke="black" d="M1316.22,-215.7C1306.51,-207.2 1294.64,-196.81 1284.02,-187.51"/>
<polygon fill="black" stroke="black" points="1286.66,-184.3 1276.83,-180.35 1282.05,-189.57 1286.66,-184.3"/>
</g>
<!-- libm.so.6&#45;&gt;ld&#45;linux&#45;x86&#45;64.so.2 -->
<g id="edge54" class="edge">
<title>libm.so.6&#45;&gt;ld&#45;linux&#45;x86&#45;64.so.2</title>
<path fill="none" stroke="black" d="M295.42,-143.59C310.1,-119.08 336.96,-74.19 354.13,-45.52"/>
<polygon fill="black" stroke="black" points="357.62,-47.49 359.76,-37.11 351.62,-43.89 357.62,-47.49"/>
</g>
<!-- libm.so.6&#45;&gt;libc.so.6 -->
<g id="edge55" class="edge">
<title>libm.so.6&#45;&gt;libc.so.6</title>
<path fill="none" stroke="black" d="M325.89,-147.24C330.61,-145.98 335.38,-144.86 340,-144 602.32,-94.9 923.79,-90.38 1044.31,-90.58"/>
<polygon fill="black" stroke="black" points="1043.99,-94.08 1054,-90.61 1044.01,-87.08 1043.99,-94.08"/>
</g>
<!-- libncursesw.so.6&#45;&gt;libc.so.6 -->
<g id="edge56" class="edge">
<title>libncursesw.so.6&#45;&gt;libc.so.6</title>
<path fill="none" stroke="black" d="M1435.25,-431.63C1441.39,-404.99 1452,-352.36 1452,-307 1452,-307 1452,-307 1452,-233 1452,-192.03 1458.47,-171.39 1428,-144 1386.71,-106.89 1224.46,-95.69 1141.87,-92.37"/>
<polygon fill="black" stroke="black" points="1142.13,-88.84 1132.01,-91.96 1141.87,-95.83 1142.13,-88.84"/>
</g>
<!-- libpthread.so.0&#45;&gt;libc.so.6 -->
<g id="edge57" class="edge">
<title>libpthread.so.0&#45;&gt;libc.so.6</title>
<path fill="none" stroke="black" d="M459.82,-215.73C480.23,-194.71 517.91,-160.05 558,-144 645.74,-108.88 929.44,-96.16 1044.18,-92.37"/>
<polygon fill="black" stroke="black" points="1044.18,-95.84 1054.06,-92.03 1043.95,-88.85 1044.18,-95.84"/>
</g>
<!-- libpython3.9.so.1.0&#45;&gt;libcrypt.so.1 -->
<g id="edge58" class="edge">
<title>libpython3.9.so.1.0&#45;&gt;libcrypt.so.1</title>
<path fill="none" stroke="black" d="M1636.46,-215.7C1637.97,-208.15 1639.78,-199.12 1641.46,-190.68"/>
<polygon fill="black" stroke="black" points="1645.05,-191.6 1643.58,-181.1 1638.19,-190.22 1645.05,-191.6"/>
</g>
<!-- libpython3.9.so.1.0&#45;&gt;libc.so.6 -->
<g id="edge59" class="edge">
<title>libpython3.9.so.1.0&#45;&gt;libc.so.6</title>
<path fill="none" stroke="black" d="M1617.75,-215.61C1596.81,-192.2 1559.74,-152.48 1542,-144 1472.12,-110.6 1243.14,-97.2 1141.9,-92.81"/>
<polygon fill="black" stroke="black" points="1142.2,-89.28 1132.06,-92.36 1141.91,-96.27 1142.2,-89.28"/>
</g>
<!-- libpython3.9.so.1.0&#45;&gt;libdl.so.2 -->
<g id="edge60" class="edge">
<title>libpython3.9.so.1.0&#45;&gt;libdl.so.2</title>
<path fill="none" stroke="black" d="M1664.22,-215.52C1680.45,-206.43 1700.47,-195.22 1717.84,-185.49"/>
<polygon fill="black" stroke="black" points="1719.16,-188.2 1726.18,-180.26 1715.74,-182.09 1719.16,-188.2"/>
</g>
<!-- libpython3.9.so.1.0&#45;&gt;libgcc_s.so.1 -->
<g id="edge61" class="edge">
<title>libpython3.9.so.1.0&#45;&gt;libgcc_s.so.1</title>
<path fill="none" stroke="black" d="M1556.15,-224.89C1468.21,-215.34 1319.97,-198.43 1193,-180 1181.39,-178.32 1169.05,-176.36 1157.15,-174.38"/>
<polygon fill="black" stroke="black" points="1157.82,-170.77 1147.38,-172.57 1156.66,-177.68 1157.82,-170.77"/>
</g>
<!-- libpython3.9.so.1.0&#45;&gt;libm.so.6 -->
<g id="edge62" class="edge">
<title>libpython3.9.so.1.0&#45;&gt;libm.so.6</title>
<path fill="none" stroke="black" d="M1556.12,-227.05C1509.52,-223.55 1448.86,-219.21 1395,-216 987.59,-191.73 495.53,-171.38 336.93,-165.04"/>
<polygon fill="black" stroke="black" points="337.22,-161.51 327.09,-164.61 336.94,-168.51 337.22,-161.51"/>
</g>
<!-- libreadline.so.8&#45;&gt;libc.so.6 -->
<g id="edge63" class="edge">
<title>libreadline.so.8&#45;&gt;libc.so.6</title>
<path fill="none" stroke="black" d="M1483.6,-503.76C1492.53,-494.2 1502.29,-481.53 1507,-468 1512.26,-452.89 1508.08,-447.96 1507,-432 1503.21,-376.06 1490,-363.07 1490,-307 1490,-307 1490,-307 1490,-233 1490,-190.33 1487.55,-170.37 1454,-144 1406.47,-106.64 1229.11,-95.53 1141.96,-92.29"/>
<polygon fill="black" stroke="black" points="1142.16,-88.76 1132.04,-91.91 1141.91,-95.76 1142.16,-88.76"/>
</g>
<!-- libreadline.so.8&#45;&gt;libncursesw.so.6 -->
<g id="edge64" class="edge">
<title>libreadline.so.8&#45;&gt;libncursesw.so.6</title>
<path fill="none" stroke="black" d="M1456.6,-503.7C1452.81,-495.9 1448.25,-486.51 1444.03,-477.83"/>
<polygon fill="black" stroke="black" points="1446.83,-476.57 1439.31,-469.1 1440.53,-479.63 1446.83,-476.57"/>
</g>
<!-- libsource&#45;highlight.so.4&#45;&gt;libboost_regex.so.1.77.0 -->
<g id="edge66" class="edge">
<title>libsource&#45;highlight.so.4&#45;&gt;libboost_regex.so.1.77.0</title>
<path fill="none" stroke="black" d="M1019.83,-503.52C972.93,-493.54 914,-481 865.48,-470.68"/>
<polygon fill="black" stroke="black" points="866.49,-467.1 855.98,-468.44 865.03,-473.95 866.49,-467.1"/>
</g>
<!-- libsource&#45;highlight.so.4&#45;&gt;libc.so.6 -->
<g id="edge67" class="edge">
<title>libsource&#45;highlight.so.4&#45;&gt;libc.so.6</title>
<path fill="none" stroke="black" d="M1108.93,-503.6C1112.73,-493.38 1117.23,-480.13 1120,-468 1148.66,-342.28 1147.21,-308.71 1155,-180 1155.97,-164.03 1161.7,-158.53 1155,-144 1149.78,-132.66 1140.79,-122.84 1131.27,-114.85"/>
<polygon fill="black" stroke="black" points="1133.87,-111.67 1123.83,-108.3 1129.58,-117.2 1133.87,-111.67"/>
</g>
<!-- libsource&#45;highlight.so.4&#45;&gt;libgcc_s.so.1 -->
<g id="edge68" class="edge">
<title>libsource&#45;highlight.so.4&#45;&gt;libgcc_s.so.1</title>
<path fill="none" stroke="black" d="M1103.08,-503.82C1103.7,-493.45 1104.47,-479.97 1105,-468 1109.27,-372.04 1110.44,-348.04 1112,-252 1112.26,-236 1114.74,-231.76 1112,-216 1110.51,-207.43 1107.76,-198.41 1104.81,-190.29"/>
<polygon fill="black" stroke="black" points="1107.79,-189.3 1100.89,-181.25 1101.26,-191.84 1107.79,-189.3"/>
</g>
<!-- libsource&#45;highlight.so.4&#45;&gt;libm.so.6 -->
<g id="edge69" class="edge">
<title>libsource&#45;highlight.so.4&#45;&gt;libm.so.6</title>
<path fill="none" stroke="black" d="M1009.75,-515.38C787.38,-500.6 240,-456.35 240,-379 240,-379 240,-379 240,-305 240,-263.49 257.69,-218.22 270.88,-190.21"/>
<polygon fill="black" stroke="black" points="274.45,-191.89 275.68,-181.37 268.15,-188.83 274.45,-191.89"/>
</g>
<!-- libsource&#45;highlight.so.4&#45;&gt;libstdc++.so.6 -->
<g id="edge70" class="edge">
<title>libsource&#45;highlight.so.4&#45;&gt;libstdc++.so.6</title>
<path fill="none" stroke="black" d="M1100.48,-503.66C1096.91,-472.02 1085.51,-404.11 1051,-360 1012.93,-311.34 950.22,-277.02 904.37,-256.81"/>
<polygon fill="black" stroke="black" points="905.84,-253.21 895.27,-252.47 903.07,-259.64 905.84,-253.21"/>
</g>
<!-- libstdc++.so.6&#45;&gt;ld&#45;linux&#45;x86&#45;64.so.2 -->
<g id="edge71" class="edge">
<title>libstdc++.so.6&#45;&gt;ld&#45;linux&#45;x86&#45;64.so.2</title>
<path fill="none" stroke="black" d="M808.37,-215.67C722.13,-176.98 514.05,-83.63 418.93,-40.95"/>
<polygon fill="black" stroke="black" points="420.55,-37.39 409.99,-36.49 417.68,-43.78 420.55,-37.39"/>
</g>
<!-- libstdc++.so.6&#45;&gt;libc.so.6 -->
<g id="edge72" class="edge">
<title>libstdc++.so.6&#45;&gt;libc.so.6</title>
<path fill="none" stroke="black" d="M857.24,-215.69C869.97,-195.61 893.54,-162.87 922,-144 959.09,-119.4 1008.19,-105.74 1044.25,-98.48"/>
<polygon fill="black" stroke="black" points="1044.84,-101.74 1054,-96.42 1043.52,-94.86 1044.84,-101.74"/>
</g>
<!-- libstdc++.so.6&#45;&gt;libgcc_s.so.1 -->
<g id="edge73" class="edge">
<title>libstdc++.so.6&#45;&gt;libgcc_s.so.1</title>
<path fill="none" stroke="black" d="M908.13,-215.61C945.06,-205.1 992.07,-191.72 1029.44,-181.09"/>
<polygon fill="black" stroke="black" points="1030.05,-184.27 1038.71,-178.16 1028.13,-177.53 1030.05,-184.27"/>
</g>
<!-- libstdc++.so.6&#45;&gt;libm.so.6 -->
<g id="edge74" class="edge">
<title>libstdc++.so.6&#45;&gt;libm.so.6</title>
<path fill="none" stroke="black" d="M785.64,-217.6C782.72,-217.03 779.83,-216.49 777,-216 624.21,-189.64 584.11,-197.03 430,-180 398.97,-176.57 364.24,-172.51 336.55,-169.21"/>
<polygon fill="black" stroke="black" points="337.27,-165.65 326.92,-167.95 336.44,-172.61 337.27,-165.65"/>
</g>
<!-- libz.so.1&#45;&gt;libc.so.6 -->
<g id="edge75" class="edge">
<title>libz.so.1&#45;&gt;libc.so.6</title>
<path fill="none" stroke="black" d="M1578.43,-431.76C1559.64,-406.1 1528,-355.67 1528,-307 1528,-307 1528,-307 1528,-233 1528,-192.03 1534.86,-170.95 1504,-144 1450.96,-97.68 1238.73,-91.21 1141.77,-90.73"/>
<polygon fill="black" stroke="black" points="1141.82,-87.23 1131.81,-90.7 1141.8,-94.23 1141.82,-87.23"/>
</g>
<!-- libicui18n.so.71&#45;&gt;libc.so.6 -->
<g id="edge35" class="edge">
<title>libicui18n.so.71&#45;&gt;libc.so.6</title>
<path fill="none" stroke="black" d="M793.93,-359.66C827.61,-338.17 882.95,-298.63 917,-252 947.47,-210.28 923.47,-180.54 960,-144 982.83,-121.16 1016.74,-107.86 1044.6,-100.29"/>
<polygon fill="black" stroke="black" points="1045.12,-103.51 1053.95,-97.66 1043.39,-96.73 1045.12,-103.51"/>
</g>
<!-- libicui18n.so.71&#45;&gt;libgcc_s.so.1 -->
<g id="edge36" class="edge">
<title>libicui18n.so.71&#45;&gt;libgcc_s.so.1</title>
<path fill="none" stroke="black" d="M791.56,-359.67C850.26,-321.37 991.06,-229.51 1057.35,-186.26"/>
<polygon fill="black" stroke="black" points="1058.73,-188.89 1065.19,-180.49 1054.9,-183.03 1058.73,-188.89"/>
</g>
<!-- libicui18n.so.71&#45;&gt;libm.so.6 -->
<g id="edge39" class="edge">
<title>libicui18n.so.71&#45;&gt;libm.so.6</title>
<path fill="none" stroke="black" d="M699.89,-377.35C593.53,-376.59 388.96,-369.1 335,-324 314.52,-306.89 297.85,-232.46 289.95,-191.06"/>
<polygon fill="black" stroke="black" points="293.22,-190.52 287.96,-181.33 286.34,-191.8 293.22,-190.52"/>
</g>
<!-- libicui18n.so.71&#45;&gt;libpthread.so.0 -->
<g id="edge40" class="edge">
<title>libicui18n.so.71&#45;&gt;libpthread.so.0</title>
<path fill="none" stroke="black" d="M700.33,-368.39C657.38,-360.86 600.71,-347.34 555,-324 532.8,-312.66 531.39,-303.66 512,-288 500.12,-278.41 486.92,-268.04 475.32,-259.05"/>
<polygon fill="black" stroke="black" points="477.87,-255.82 467.82,-252.47 473.59,-261.36 477.87,-255.82"/>
</g>
<!-- libicui18n.so.71&#45;&gt;libstdc++.so.6 -->
<g id="edge41" class="edge">
<title>libicui18n.so.71&#45;&gt;libstdc++.so.6</title>
<path fill="none" stroke="black" d="M771.61,-359.68C778.93,-341.31 791.62,-311.71 806,-288 811.58,-278.8 818.48,-269.32 825.02,-260.97"/>
<polygon fill="black" stroke="black" points="828.36,-263.41 831.9,-253.42 822.9,-259.02 828.36,-263.41"/>
</g>
<!-- libicui18n.so.71&#45;&gt;libicudata.so.71 -->
<g id="edge37" class="edge">
<title>libicui18n.so.71&#45;&gt;libicudata.so.71</title>
<path fill="none" stroke="black" d="M757.4,-359.59C746.74,-335.18 727.27,-290.58 714.74,-261.89"/>
<polygon fill="black" stroke="black" points="717.68,-260.87 710.47,-253.11 711.26,-263.68 717.68,-260.87"/>
</g>
<!-- libicui18n.so.71&#45;&gt;libicuuc.so.71 -->
<g id="edge38" class="edge">
<title>libicui18n.so.71&#45;&gt;libicuuc.so.71</title>
<path fill="none" stroke="black" d="M729.03,-359.52C709.99,-350.26 686.42,-338.8 666.15,-328.95"/>
<polygon fill="black" stroke="black" points="668.03,-325.48 657.51,-324.26 664.97,-331.78 668.03,-325.48"/>
</g>
<!-- libicuuc.so.71&#45;&gt;ld&#45;linux&#45;x86&#45;64.so.2 -->
<g id="edge42" class="edge">
<title>libicuuc.so.71&#45;&gt;ld&#45;linux&#45;x86&#45;64.so.2</title>
<path fill="none" stroke="black" d="M563.45,-299.55C528.11,-296.21 481.94,-291.85 441,-288 398.33,-283.99 85.85,-283.68 57,-252 -28.78,-157.8 180.41,-76.25 297.47,-39.61"/>
<polygon fill="black" stroke="black" points="298.28,-42.71 306.8,-36.42 296.22,-36.03 298.28,-42.71"/>
</g>
<!-- libicuuc.so.71&#45;&gt;libc.so.6 -->
<g id="edge43" class="edge">
<title>libicuuc.so.71&#45;&gt;libc.so.6</title>
<path fill="none" stroke="black" d="M612.48,-287.67C604.26,-268.19 595.18,-236.59 611,-216 664.14,-146.84 932.96,-109.04 1044.45,-96.14"/>
<polygon fill="black" stroke="black" points="1044.51,-99.54 1054.05,-94.93 1043.71,-92.59 1044.51,-99.54"/>
</g>
<!-- libicuuc.so.71&#45;&gt;libgcc_s.so.1 -->
<g id="edge44" class="edge">
<title>libicuuc.so.71&#45;&gt;libgcc_s.so.1</title>
<path fill="none" stroke="black" d="M616.8,-287.65C613.07,-267.54 610.69,-234.76 629,-216 656.43,-187.9 908,-171.98 1028.81,-165.9"/>
<polygon fill="black" stroke="black" points="1028.92,-169.35 1038.74,-165.36 1028.57,-162.35 1028.92,-169.35"/>
</g>
<!-- libicuuc.so.71&#45;&gt;libm.so.6 -->
<g id="edge46" class="edge">
<title>libicuuc.so.71&#45;&gt;libm.so.6</title>
<path fill="none" stroke="black" d="M600.46,-287.7C569.81,-261.9 515.62,-216.31 515,-216 457.84,-187.51 385.03,-174.06 336.81,-167.9"/>
<polygon fill="black" stroke="black" points="337.36,-164.32 327.01,-166.59 336.51,-171.27 337.36,-164.32"/>
</g>
<!-- libicuuc.so.71&#45;&gt;libpthread.so.0 -->
<g id="edge47" class="edge">
<title>libicuuc.so.71&#45;&gt;libpthread.so.0</title>
<path fill="none" stroke="black" d="M576.79,-287.52C552.94,-278.08 523.31,-266.37 498.1,-256.39"/>
<polygon fill="black" stroke="black" points="499.54,-252.8 488.95,-252.38 496.96,-259.31 499.54,-252.8"/>
</g>
<!-- libicuuc.so.71&#45;&gt;libstdc++.so.6 -->
<g id="edge48" class="edge">
<title>libicuuc.so.71&#45;&gt;libstdc++.so.6</title>
<path fill="none" stroke="black" d="M677.45,-287.52C708.71,-277.83 747.75,-265.74 780.49,-255.6"/>
<polygon fill="black" stroke="black" points="781.37,-258.68 789.88,-252.38 779.29,-252 781.37,-258.68"/>
</g>
<!-- libicuuc.so.71&#45;&gt;libicudata.so.71 -->
<g id="edge45" class="edge">
<title>libicuuc.so.71&#45;&gt;libicudata.so.71</title>
<path fill="none" stroke="black" d="M641.27,-287.7C651.32,-279.11 663.63,-268.61 674.61,-259.24"/>
<polygon fill="black" stroke="black" points="676.35,-261.5 681.68,-252.35 671.8,-256.18 676.35,-261.5"/>
</g>
<!-- librt.so.1&#45;&gt;libc.so.6 -->
<g id="edge65" class="edge">
<title>librt.so.1&#45;&gt;libc.so.6</title>
<path fill="none" stroke="black" d="M1000.09,-359.65C996.46,-319.15 992.08,-216.33 1031,-144 1036.97,-132.91 1046.27,-123.13 1055.88,-115.08"/>
<polygon fill="black" stroke="black" points="1057.6,-117.39 1063.32,-108.47 1053.29,-111.88 1057.6,-117.39"/>
</g>
</g>
</svg>
