<?xml version="1.0" encoding="UTF-8" standalone="no"?>
<!DOCTYPE svg PUBLIC "-//W3C//DTD SVG 1.1//EN"
 "http://www.w3.org/Graphics/SVG/1.1/DTD/svg11.dtd">
<!-- Generated by graphviz version 8.0.5 (0)
 -->
<!-- Pages: 1 -->
<svg width="372pt" height="156pt"
 viewBox="0.00 0.00 371.75 156.25" xmlns="http://www.w3.org/2000/svg" xmlns:xlink="http://www.w3.org/1999/xlink">
<g id="graph0" class="graph" transform="scale(1 1) rotate(0) translate(4 152.25)">
<polygon fill="white" stroke="none" points="-4,4 -4,-152.25 367.75,-152.25 367.75,4 -4,4"/>
<text text-anchor="middle" x="181.88" y="-7.95" font-family="Times,serif" font-size="14.00">Which lib_name() will be used?</text>
<!-- main -->
<g id="node1" class="node">
<title>main</title>
<polygon fill="none" stroke="black" points="109.62,-105.25 109.62,-147.75 236.62,-147.75 236.62,-105.25 109.62,-105.25"/>
<text text-anchor="middle" x="173.12" y="-130.45" font-family="Times,serif" font-size="14.00">main:</text>
<text text-anchor="middle" x="173.12" y="-113.2" font-family="Times,serif" font-size="14.00">uses lib_name()</text>
</g>
<!-- libl1.so -->
<g id="node2" class="node">
<title>libl1.so</title>
<polygon fill="none" stroke="black" points="0,-25.75 0,-68.25 156.25,-68.25 156.25,-25.75 0,-25.75"/>
<text text-anchor="middle" x="78.12" y="-50.95" font-family="Times,serif" font-size="14.00">libl1.so:</text>
<text text-anchor="middle" x="78.12" y="-33.7" font-family="Times,serif" font-size="14.00">provides lib_name()</text>
</g>
<!-- main&#45;&gt;libl1.so -->
<g id="edge1" class="edge">
<title>main&#45;&gt;libl1.so</title>
<path fill="none" stroke="red" d="M148.66,-105.54C137.23,-96.21 123.44,-84.97 111.1,-74.9"/>
<polygon fill="red" stroke="red" points="113.8,-71.77 103.84,-68.16 109.37,-77.19 113.8,-71.77"/>
</g>
<!-- libl2.so -->
<g id="node3" class="node">
<title>libl2.so</title>
<polygon fill="none" stroke="black" points="174.5,-25.75 174.5,-68.25 363.75,-68.25 363.75,-25.75 174.5,-25.75"/>
<text text-anchor="middle" x="269.12" y="-50.95" font-family="Times,serif" font-size="14.00">libl2.so:</text>
<text text-anchor="middle" x="269.12" y="-33.7" font-family="Times,serif" font-size="14.00">also provides lib_name()</text>
</g>
<!-- main&#45;&gt;libl2.so -->
<g id="edge2" class="edge">
<title>main&#45;&gt;libl2.so</title>
<path fill="none" stroke="red" d="M198.1,-105.34C209.65,-96.01 223.54,-84.8 235.96,-74.77"/>
<polygon fill="red" stroke="red" points="237.7,-77.06 243.28,-68.06 233.3,-71.62 237.7,-77.06"/>
</g>
</g>
</svg>
