<?xml version="1.0" encoding="UTF-8" standalone="no"?>
<!DOCTYPE svg PUBLIC "-//W3C//DTD SVG 1.1//EN"
 "http://www.w3.org/Graphics/SVG/1.1/DTD/svg11.dtd">
<!-- Generated by graphviz version 7.0.2 (0)
 -->
<!-- Pages: 1 -->
<svg width="1110pt" height="404pt"
 viewBox="0.00 0.00 1109.50 404.00" xmlns="http://www.w3.org/2000/svg" xmlns:xlink="http://www.w3.org/1999/xlink">
<g id="graph0" class="graph" transform="scale(1 1) rotate(0) translate(4 400)">
<polygon fill="white" stroke="none" points="-4,4 -4,-400 1105.5,-400 1105.5,4 -4,4"/>
<!-- gdb -->
<g id="node1" class="node">
<title>gdb</title>
<polygon fill="none" stroke="black" points="615.5,-396 561.5,-396 561.5,-360 615.5,-360 615.5,-396"/>
<text text-anchor="middle" x="588.5" y="-374.3" font-family="Times,serif" font-size="14.00">gdb</text>
</g>
<!-- libboost_regex.so.1.77.0 -->
<g id="node2" class="node">
<title>libboost_regex.so.1.77.0</title>
<polygon fill="none" stroke="black" points="278,-252 87,-252 87,-216 278,-216 278,-252"/>
<text text-anchor="middle" x="182.5" y="-230.3" font-family="Times,serif" font-size="14.00">libboost_regex.so.1.77.0</text>
</g>
<!-- gdb&#45;&gt;libboost_regex.so.1.77.0 -->
<g id="edge1" class="edge">
<title>gdb&#45;&gt;libboost_regex.so.1.77.0</title>
<path fill="none" stroke="black" d="M561.02,-375.99C487.1,-372.79 285.95,-360.83 232.5,-324 211.54,-309.56 198.36,-283.31 190.83,-263.05"/>
<polygon fill="black" stroke="black" points="194.17,-261.99 187.61,-253.66 187.55,-264.26 194.17,-261.99"/>
</g>
<!-- libcrypt.so.1 -->
<g id="node3" class="node">
<title>libcrypt.so.1</title>
<polygon fill="none" stroke="black" points="461.5,-252 355.5,-252 355.5,-216 461.5,-216 461.5,-252"/>
<text text-anchor="middle" x="408.5" y="-230.3" font-family="Times,serif" font-size="14.00">libcrypt.so.1</text>
</g>
<!-- gdb&#45;&gt;libcrypt.so.1 -->
<g id="edge2" class="edge">
<title>gdb&#45;&gt;libcrypt.so.1</title>
<path fill="none" stroke="black" d="M561.14,-373.51C513.03,-366.76 416.45,-350.21 396.5,-324 383.32,-306.68 388.08,-281.79 395.14,-262.73"/>
<polygon fill="black" stroke="black" points="398.29,-264.26 398.86,-253.68 391.82,-261.59 398.29,-264.26"/>
</g>
<!-- libexpat.so.1 -->
<g id="node4" class="node">
<title>libexpat.so.1</title>
<polygon fill="none" stroke="black" points="349.5,-324 241.5,-324 241.5,-288 349.5,-288 349.5,-324"/>
<text text-anchor="middle" x="295.5" y="-302.3" font-family="Times,serif" font-size="14.00">libexpat.so.1</text>
</g>
<!-- gdb&#45;&gt;libexpat.so.1 -->
<g id="edge3" class="edge">
<title>gdb&#45;&gt;libexpat.so.1</title>
<path fill="none" stroke="black" d="M561.11,-370.67C518.72,-360.86 434.67,-341.28 363.5,-324 362.52,-323.76 361.53,-323.52 360.53,-323.28"/>
<polygon fill="black" stroke="black" points="361.69,-319.96 351.14,-320.97 360.02,-326.76 361.69,-319.96"/>
</g>
<!-- libgmp.so.10 -->
<g id="node5" class="node">
<title>libgmp.so.10</title>
<polygon fill="none" stroke="black" points="827,-252 718,-252 718,-216 827,-216 827,-252"/>
<text text-anchor="middle" x="772.5" y="-230.3" font-family="Times,serif" font-size="14.00">libgmp.so.10</text>
</g>
<!-- gdb&#45;&gt;libgmp.so.10 -->
<g id="edge4" class="edge">
<title>gdb&#45;&gt;libgmp.so.10</title>
<path fill="none" stroke="black" d="M615.69,-374.05C666.29,-367.93 771.78,-352.05 793.5,-324 807.2,-306.31 799.45,-281.13 789.72,-262.07"/>
<polygon fill="black" stroke="black" points="792.89,-260.56 784.97,-253.51 786.77,-263.96 792.89,-260.56"/>
</g>
<!-- libipt.so.2 -->
<g id="node6" class="node">
<title>libipt.so.2</title>
<polygon fill="none" stroke="black" points="493.5,-324 405.5,-324 405.5,-288 493.5,-288 493.5,-324"/>
<text text-anchor="middle" x="449.5" y="-302.3" font-family="Times,serif" font-size="14.00">libipt.so.2</text>
</g>
<!-- gdb&#45;&gt;libipt.so.2 -->
<g id="edge5" class="edge">
<title>gdb&#45;&gt;libipt.so.2</title>
<path fill="none" stroke="black" d="M561.04,-363.17C541.98,-353.57 516.17,-340.58 494.18,-329.5"/>
<polygon fill="black" stroke="black" points="495.92,-326.46 485.41,-325.08 492.77,-332.71 495.92,-326.46"/>
</g>
<!-- libmpfr.so.6 -->
<g id="node7" class="node">
<title>libmpfr.so.6</title>
<polygon fill="none" stroke="black" points="785,-324 684,-324 684,-288 785,-288 785,-324"/>
<text text-anchor="middle" x="734.5" y="-302.3" font-family="Times,serif" font-size="14.00">libmpfr.so.6</text>
</g>
<!-- gdb&#45;&gt;libmpfr.so.6 -->
<g id="edge6" class="edge">
<title>gdb&#45;&gt;libmpfr.so.6</title>
<path fill="none" stroke="black" d="M615.96,-363.83C636.18,-354.14 664.16,-340.72 687.86,-329.36"/>
<polygon fill="black" stroke="black" points="689.19,-332.61 696.69,-325.13 686.16,-326.29 689.19,-332.61"/>
</g>
<!-- libncursesw.so.6 -->
<g id="node8" class="node">
<title>libncursesw.so.6</title>
<polygon fill="none" stroke="black" points="1018.5,-252 884.5,-252 884.5,-216 1018.5,-216 1018.5,-252"/>
<text text-anchor="middle" x="951.5" y="-230.3" font-family="Times,serif" font-size="14.00">libncursesw.so.6</text>
</g>
<!-- gdb&#45;&gt;libncursesw.so.6 -->
<g id="edge7" class="edge">
<title>gdb&#45;&gt;libncursesw.so.6</title>
<path fill="none" stroke="black" d="M615.79,-375.34C700.47,-369.9 954.57,-351.41 978.5,-324 993.6,-306.7 983.6,-281.16 971.71,-261.87"/>
<polygon fill="black" stroke="black" points="974.73,-260.09 966.29,-253.69 968.9,-263.96 974.73,-260.09"/>
</g>
<!-- libpython3.9.so.1.0 -->
<g id="node9" class="node">
<title>libpython3.9.so.1.0</title>
<polygon fill="none" stroke="black" points="665.5,-324 511.5,-324 511.5,-288 665.5,-288 665.5,-324"/>
<text text-anchor="middle" x="588.5" y="-302.3" font-family="Times,serif" font-size="14.00">libpython3.9.so.1.0</text>
</g>
<!-- gdb&#45;&gt;libpython3.9.so.1.0 -->
<g id="edge8" class="edge">
<title>gdb&#45;&gt;libpython3.9.so.1.0</title>
<path fill="none" stroke="black" d="M588.5,-359.7C588.5,-352.41 588.5,-343.73 588.5,-335.54"/>
<polygon fill="black" stroke="black" points="592,-335.62 588.5,-325.62 585,-335.62 592,-335.62"/>
</g>
<!-- libreadline.so.8 -->
<g id="node10" class="node">
<title>libreadline.so.8</title>
<polygon fill="none" stroke="black" points="969,-324 842,-324 842,-288 969,-288 969,-324"/>
<text text-anchor="middle" x="905.5" y="-302.3" font-family="Times,serif" font-size="14.00">libreadline.so.8</text>
</g>
<!-- gdb&#45;&gt;libreadline.so.8 -->
<g id="edge9" class="edge">
<title>gdb&#45;&gt;libreadline.so.8</title>
<path fill="none" stroke="black" d="M615.8,-370.97C663.03,-360.54 761.54,-338.79 830.52,-323.56"/>
<polygon fill="black" stroke="black" points="831.26,-326.98 840.27,-321.4 829.75,-320.14 831.26,-326.98"/>
</g>
<!-- libsource&#45;highlight.so.4 -->
<g id="node11" class="node">
<title>libsource&#45;highlight.so.4</title>
<polygon fill="none" stroke="black" points="185,-324 0,-324 0,-288 185,-288 185,-324"/>
<text text-anchor="middle" x="92.5" y="-302.3" font-family="Times,serif" font-size="14.00">libsource&#45;highlight.so.4</text>
</g>
<!-- gdb&#45;&gt;libsource&#45;highlight.so.4 -->
<g id="edge10" class="edge">
<title>gdb&#45;&gt;libsource&#45;highlight.so.4</title>
<path fill="none" stroke="black" d="M561.12,-373.48C497.54,-365.27 335.03,-344 199.5,-324 198.48,-323.85 197.46,-323.7 196.43,-323.55"/>
<polygon fill="black" stroke="black" points="197.18,-320.12 186.77,-322.09 196.14,-327.04 197.18,-320.12"/>
</g>
<!-- libz.so.1 -->
<g id="node12" class="node">
<title>libz.so.1</title>
<polygon fill="none" stroke="black" points="1101.5,-324 1025.5,-324 1025.5,-288 1101.5,-288 1101.5,-324"/>
<text text-anchor="middle" x="1063.5" y="-302.3" font-family="Times,serif" font-size="14.00">libz.so.1</text>
</g>
<!-- gdb&#45;&gt;libz.so.1 -->
<g id="edge11" class="edge">
<title>gdb&#45;&gt;libz.so.1</title>
<path fill="none" stroke="black" d="M615.78,-375.4C683.48,-371.03 864.35,-356.95 1011.5,-324 1012.33,-323.81 1013.17,-323.62 1014.02,-323.42"/>
<polygon fill="black" stroke="black" points="1014.89,-326.81 1023.65,-320.85 1013.08,-320.04 1014.89,-326.81"/>
</g>
<!-- libicudata.so.71 -->
<g id="node13" class="node">
<title>libicudata.so.71</title>
<polygon fill="none" stroke="black" points="219.5,-36 89.5,-36 89.5,0 219.5,0 219.5,-36"/>
<text text-anchor="middle" x="154.5" y="-14.3" font-family="Times,serif" font-size="14.00">libicudata.so.71</text>
</g>
<!-- libboost_regex.so.1.77.0&#45;&gt;libicudata.so.71 -->
<g id="edge12" class="edge">
<title>libboost_regex.so.1.77.0&#45;&gt;libicudata.so.71</title>
<path fill="none" stroke="black" d="M144.72,-215.56C130.69,-206.98 116.3,-195.18 108.5,-180 85.74,-135.71 114.03,-78.62 135.24,-45.68"/>
<polygon fill="black" stroke="black" points="138.04,-47.79 140.7,-37.53 132.23,-43.89 138.04,-47.79"/>
</g>
<!-- libicui18n.so.71 -->
<g id="node14" class="node">
<title>libicui18n.so.71</title>
<polygon fill="none" stroke="black" points="247.5,-180 117.5,-180 117.5,-144 247.5,-144 247.5,-180"/>
<text text-anchor="middle" x="182.5" y="-158.3" font-family="Times,serif" font-size="14.00">libicui18n.so.71</text>
</g>
<!-- libboost_regex.so.1.77.0&#45;&gt;libicui18n.so.71 -->
<g id="edge13" class="edge">
<title>libboost_regex.so.1.77.0&#45;&gt;libicui18n.so.71</title>
<path fill="none" stroke="black" d="M182.5,-215.7C182.5,-208.41 182.5,-199.73 182.5,-191.54"/>
<polygon fill="black" stroke="black" points="186,-191.62 182.5,-181.62 179,-191.62 186,-191.62"/>
</g>
<!-- libicuuc.so.71 -->
<g id="node15" class="node">
<title>libicuuc.so.71</title>
<polygon fill="none" stroke="black" points="298,-108 183,-108 183,-72 298,-72 298,-108"/>
<text text-anchor="middle" x="240.5" y="-86.3" font-family="Times,serif" font-size="14.00">libicuuc.so.71</text>
</g>
<!-- libboost_regex.so.1.77.0&#45;&gt;libicuuc.so.71 -->
<g id="edge14" class="edge">
<title>libboost_regex.so.1.77.0&#45;&gt;libicuuc.so.71</title>
<path fill="none" stroke="black" d="M220.28,-215.56C234.31,-206.98 248.7,-195.18 256.5,-180 266.24,-161.04 261.15,-137.14 254.21,-118.89"/>
<polygon fill="black" stroke="black" points="257.47,-117.6 250.36,-109.74 251.02,-120.32 257.47,-117.6"/>
</g>
<!-- libmpfr.so.6&#45;&gt;libgmp.so.10 -->
<g id="edge18" class="edge">
<title>libmpfr.so.6&#45;&gt;libgmp.so.10</title>
<path fill="none" stroke="black" d="M743.89,-287.7C748.08,-279.98 753.11,-270.71 757.78,-262.11"/>
<polygon fill="black" stroke="black" points="760.8,-263.89 762.49,-253.43 754.65,-260.55 760.8,-263.89"/>
</g>
<!-- libpython3.9.so.1.0&#45;&gt;libcrypt.so.1 -->
<g id="edge19" class="edge">
<title>libpython3.9.so.1.0&#45;&gt;libcrypt.so.1</title>
<path fill="none" stroke="black" d="M543.54,-287.52C519.4,-278.13 489.42,-266.47 463.85,-256.53"/>
<polygon fill="black" stroke="black" points="465.2,-253.29 454.61,-252.93 462.66,-259.82 465.2,-253.29"/>
</g>
<!-- libreadline.so.8&#45;&gt;libncursesw.so.6 -->
<g id="edge20" class="edge">
<title>libreadline.so.8&#45;&gt;libncursesw.so.6</title>
<path fill="none" stroke="black" d="M916.87,-287.7C922.05,-279.81 928.3,-270.3 934.06,-261.55"/>
<polygon fill="black" stroke="black" points="936.86,-263.65 939.43,-253.37 931.01,-259.8 936.86,-263.65"/>
</g>
<!-- libsource&#45;highlight.so.4&#45;&gt;libboost_regex.so.1.77.0 -->
<g id="edge21" class="edge">
<title>libsource&#45;highlight.so.4&#45;&gt;libboost_regex.so.1.77.0</title>
<path fill="none" stroke="black" d="M114.75,-287.7C125.78,-279.11 139.29,-268.61 151.34,-259.24"/>
<polygon fill="black" stroke="black" points="153.26,-262.18 159,-253.28 148.96,-256.65 153.26,-262.18"/>
</g>
<!-- libicui18n.so.71&#45;&gt;libicudata.so.71 -->
<g id="edge15" class="edge">
<title>libicui18n.so.71&#45;&gt;libicudata.so.71</title>
<path fill="none" stroke="black" d="M179.07,-143.59C174.32,-119.5 165.69,-75.75 160.03,-47.03"/>
<polygon fill="black" stroke="black" points="163.54,-46.73 158.17,-37.6 156.67,-48.08 163.54,-46.73"/>
</g>
<!-- libicui18n.so.71&#45;&gt;libicuuc.so.71 -->
<g id="edge16" class="edge">
<title>libicui18n.so.71&#45;&gt;libicuuc.so.71</title>
<path fill="none" stroke="black" d="M196.84,-143.7C203.58,-135.56 211.76,-125.69 219.2,-116.7"/>
<polygon fill="black" stroke="black" points="221.68,-119.2 225.36,-109.27 216.29,-114.74 221.68,-119.2"/>
</g>
<!-- libicuuc.so.71&#45;&gt;libicudata.so.71 -->
<g id="edge17" class="edge">
<title>libicuuc.so.71&#45;&gt;libicudata.so.71</title>
<path fill="none" stroke="black" d="M219.24,-71.7C208.8,-63.2 196.04,-52.81 184.62,-43.51"/>
<polygon fill="black" stroke="black" points="186.95,-40.9 176.99,-37.3 182.53,-46.33 186.95,-40.9"/>
</g>
</g>
</svg>
