<?xml version="1.0" encoding="UTF-8" standalone="no"?>
<!DOCTYPE svg PUBLIC "-//W3C//DTD SVG 1.1//EN"
 "http://www.w3.org/Graphics/SVG/1.1/DTD/svg11.dtd">
<!-- Generated by graphviz version 8.1.0 (0)
 -->
<!-- Pages: 1 -->
<svg width="859pt" height="118pt"
 viewBox="0.00 0.00 858.62 118.00" xmlns="http://www.w3.org/2000/svg" xmlns:xlink="http://www.w3.org/1999/xlink">
<g id="graph0" class="graph" transform="scale(1 1) rotate(0) translate(4 114)">
<polygon fill="white" stroke="none" points="-4,4 -4,-114 854.62,-114 854.62,4 -4,4"/>
<!-- strip&#45;2.38 -->
<g id="node1" class="node">
<title>strip&#45;2.38</title>
<polygon fill="none" stroke="black" points="8.38,-73.5 8.38,-109.5 94.12,-109.5 94.12,-73.5 8.38,-73.5"/>
<text text-anchor="middle" x="51.25" y="-86.83" font-family="Times,serif" font-size="14.00">strip&#45;2.38</text>
</g>
<!-- .../binutils/.../2.38/libbfd&#45;2.38&#45;64&#45;bit.so -->
<g id="node2" class="node">
<title>.../binutils/.../2.38/libbfd&#45;2.38&#45;64&#45;bit.so</title>
<polygon fill="none" stroke="black" points="0,-0.5 0,-36.5 290.5,-36.5 290.5,-0.5 0,-0.5"/>
<text text-anchor="middle" x="145.25" y="-13.82" font-family="Times,serif" font-size="14.00">.../binutils/.../2.38/libbfd&#45;2.38&#45;64&#45;bit.so</text>
</g>
<!-- strip&#45;2.38&#45;&gt;.../binutils/.../2.38/libbfd&#45;2.38&#45;64&#45;bit.so -->
<g id="edge1" class="edge">
<title>strip&#45;2.38&#45;&gt;.../binutils/.../2.38/libbfd&#45;2.38&#45;64&#45;bit.so</title>
<path fill="none" stroke="black" d="M73.53,-73.67C85.73,-64.46 101.04,-52.89 114.38,-42.82"/>
<polygon fill="black" stroke="black" points="115.94,-45.27 121.81,-36.45 111.72,-39.69 115.94,-45.27"/>
</g>
<!-- ld&#45;2.38 -->
<g id="node3" class="node">
<title>ld&#45;2.38</title>
<polygon fill="none" stroke="black" points="112.5,-73.5 112.5,-109.5 178,-109.5 178,-73.5 112.5,-73.5"/>
<text text-anchor="middle" x="145.25" y="-86.83" font-family="Times,serif" font-size="14.00">ld&#45;2.38</text>
</g>
<!-- ld&#45;2.38&#45;&gt;.../binutils/.../2.38/libbfd&#45;2.38&#45;64&#45;bit.so -->
<g id="edge2" class="edge">
<title>ld&#45;2.38&#45;&gt;.../binutils/.../2.38/libbfd&#45;2.38&#45;64&#45;bit.so</title>
<path fill="none" stroke="black" d="M145.25,-73.67C145.25,-65.72 145.25,-56.01 145.25,-47.02"/>
<polygon fill="black" stroke="black" points="148.75,-47.21 145.25,-37.21 141.75,-47.21 148.75,-47.21"/>
</g>
<!-- ... -->
<g id="node4" class="node">
<title>...</title>
<polygon fill="none" stroke="black" points="196.25,-73.5 196.25,-109.5 250.25,-109.5 250.25,-73.5 196.25,-73.5"/>
<text text-anchor="middle" x="223" y="-86.83" font-family="Times,serif" font-size="14.00">...</text>
</g>
<!-- ...&#45;&gt;.../binutils/.../2.38/libbfd&#45;2.38&#45;64&#45;bit.so -->
<g id="edge3" class="edge">
<title>...&#45;&gt;.../binutils/.../2.38/libbfd&#45;2.38&#45;64&#45;bit.so</title>
<path fill="none" stroke="black" d="M204.77,-73.67C194.93,-64.72 182.66,-53.55 171.82,-43.68"/>
<polygon fill="black" stroke="black" points="174.62,-41.59 164.87,-37.45 169.91,-46.77 174.62,-41.59"/>
</g>
<!-- ld&#45;2.37 -->
<g id="node5" class="node">
<title>ld&#45;2.37</title>
<polygon fill="none" stroke="black" points="382.5,-73.5 382.5,-109.5 448,-109.5 448,-73.5 382.5,-73.5"/>
<text text-anchor="middle" x="415.25" y="-86.83" font-family="Times,serif" font-size="14.00">ld&#45;2.37</text>
</g>
<!-- .../binutils/.../2.37/libbfd&#45;2.37&#45;64&#45;bit.so -->
<g id="node6" class="node">
<title>.../binutils/.../2.37/libbfd&#45;2.37&#45;64&#45;bit.so</title>
<polygon fill="none" stroke="black" points="309,-0.5 309,-36.5 599.5,-36.5 599.5,-0.5 309,-0.5"/>
<text text-anchor="middle" x="454.25" y="-13.82" font-family="Times,serif" font-size="14.00">.../binutils/.../2.37/libbfd&#45;2.37&#45;64&#45;bit.so</text>
</g>
<!-- ld&#45;2.37&#45;&gt;.../binutils/.../2.37/libbfd&#45;2.37&#45;64&#45;bit.so -->
<g id="edge4" class="edge">
<title>ld&#45;2.37&#45;&gt;.../binutils/.../2.37/libbfd&#45;2.37&#45;64&#45;bit.so</title>
<path fill="none" stroke="black" d="M424.49,-73.67C429.06,-65.36 434.67,-55.14 439.79,-45.83"/>
<polygon fill="black" stroke="black" points="443.33,-47.66 445.07,-37.21 437.19,-44.28 443.33,-47.66"/>
</g>
<!-- ...  -->
<g id="node7" class="node">
<title>... </title>
<polygon fill="none" stroke="black" points="466.25,-73.5 466.25,-109.5 520.25,-109.5 520.25,-73.5 466.25,-73.5"/>
<text text-anchor="middle" x="493.25" y="-86.83" font-family="Times,serif" font-size="14.00">... </text>
</g>
<!-- ... &#45;&gt;.../binutils/.../2.37/libbfd&#45;2.37&#45;64&#45;bit.so -->
<g id="edge5" class="edge">
<title>... &#45;&gt;.../binutils/.../2.37/libbfd&#45;2.37&#45;64&#45;bit.so</title>
<path fill="none" stroke="black" d="M484.01,-73.67C479.44,-65.36 473.83,-55.14 468.71,-45.83"/>
<polygon fill="black" stroke="black" points="471.31,-44.28 463.43,-37.21 465.17,-47.66 471.31,-44.28"/>
</g>
<!-- perf -->
<g id="node8" class="node">
<title>perf</title>
<polygon fill="none" stroke="black" points="635.25,-73.5 635.25,-109.5 689.25,-109.5 689.25,-73.5 635.25,-73.5"/>
<text text-anchor="middle" x="661.88" y="-86.83" font-family="Times,serif" font-size="14.00">perf</text>
</g>
<!-- /usr/lib64/libbfd&#45;2.38&#45;32&#45;bit.so -->
<g id="node9" class="node">
<title>/usr/lib64/libbfd&#45;2.38&#45;32&#45;bit.so</title>
<polygon fill="none" stroke="black" points="617.88,-0.5 617.88,-36.5 850.62,-36.5 850.62,-0.5 617.88,-0.5"/>
<text text-anchor="middle" x="734.25" y="-13.82" font-family="Times,serif" font-size="14.00">/usr/lib64/libbfd&#45;2.38&#45;32&#45;bit.so</text>
</g>
<!-- perf&#45;&gt;/usr/lib64/libbfd&#45;2.38&#45;32&#45;bit.so -->
<g id="edge6" class="edge">
<title>perf&#45;&gt;/usr/lib64/libbfd&#45;2.38&#45;32&#45;bit.so</title>
<path fill="none" stroke="black" d="M679.31,-73.67C688.37,-64.74 699.66,-53.61 709.65,-43.76"/>
<polygon fill="black" stroke="black" points="711.65,-46.72 716.31,-37.21 706.73,-41.73 711.65,-46.72"/>
</g>
<!-- ghc -->
<g id="node10" class="node">
<title>ghc</title>
<polygon fill="none" stroke="black" points="707.25,-73.5 707.25,-109.5 761.25,-109.5 761.25,-73.5 707.25,-73.5"/>
<text text-anchor="middle" x="734" y="-86.83" font-family="Times,serif" font-size="14.00">ghc</text>
</g>
<!-- ghc&#45;&gt;/usr/lib64/libbfd&#45;2.38&#45;32&#45;bit.so -->
<g id="edge7" class="edge">
<title>ghc&#45;&gt;/usr/lib64/libbfd&#45;2.38&#45;32&#45;bit.so</title>
<path fill="none" stroke="black" d="M734.25,-73.67C734.25,-65.72 734.25,-56.01 734.25,-47.02"/>
<polygon fill="black" stroke="black" points="737.75,-47.21 734.25,-37.21 730.75,-47.21 737.75,-47.21"/>
</g>
<!-- ... &#160; -->
<g id="node11" class="node">
<title>... &#160;</title>
<polygon fill="none" stroke="black" points="779.25,-73.5 779.25,-109.5 833.25,-109.5 833.25,-73.5 779.25,-73.5"/>
<text text-anchor="middle" x="806" y="-86.83" font-family="Times,serif" font-size="14.00">... &#160;</text>
</g>
<!-- ... &#160;&#45;&gt;/usr/lib64/libbfd&#45;2.38&#45;32&#45;bit.so -->
<g id="edge8" class="edge">
<title>... &#160;&#45;&gt;/usr/lib64/libbfd&#45;2.38&#45;32&#45;bit.so</title>
<path fill="none" stroke="black" d="M789.19,-73.67C780.13,-64.74 768.84,-53.61 758.85,-43.76"/>
<polygon fill="black" stroke="black" points="761.77,-41.73 752.19,-37.21 756.85,-46.72 761.77,-41.73"/>
</g>
</g>
</svg>
