<?xml version="1.0" encoding="UTF-8" standalone="no"?>
<!DOCTYPE svg PUBLIC "-//W3C//DTD SVG 1.1//EN"
 "http://www.w3.org/Graphics/SVG/1.1/DTD/svg11.dtd">
<!-- Generated by graphviz version 7.1.0 (0)
 -->
<!-- Pages: 1 -->
<svg width="315pt" height="191pt"
 viewBox="0.00 0.00 315.00 191.00" xmlns="http://www.w3.org/2000/svg" xmlns:xlink="http://www.w3.org/1999/xlink">
<g id="graph0" class="graph" transform="scale(1 1) rotate(0) translate(4 187)">
<polygon fill="white" stroke="none" points="-4,4 -4,-187 311,-187 311,4 -4,4"/>
<!-- qtwebengine -->
<g id="node1" class="node">
<title>qtwebengine</title>
<polygon fill="none" stroke="black" points="27.5,-73.5 27.5,-109.5 136.5,-109.5 136.5,-73.5 27.5,-73.5"/>
<text text-anchor="middle" x="82" y="-87.8" font-family="Times,serif" font-size="14.00">qtwebengine</text>
</g>
<!-- ffmpeg&#45;4 -->
<g id="node2" class="node">
<title>ffmpeg&#45;4</title>
<polygon fill="pink" stroke="black" points="0,-0.5 0,-36.5 80,-36.5 80,-0.5 0,-0.5"/>
<text text-anchor="middle" x="40" y="-14.8" font-family="Times,serif" font-size="14.00">ffmpeg&#45;4</text>
</g>
<!-- qtwebengine&#45;&gt;ffmpeg&#45;4 -->
<g id="edge1" class="edge">
<title>qtwebengine&#45;&gt;ffmpeg&#45;4</title>
<path fill="none" stroke="black" d="M72.05,-73.67C67.13,-65.36 61.08,-55.14 55.57,-45.83"/>
<polygon fill="black" stroke="black" points="58.76,-44.33 50.65,-37.51 52.73,-47.9 58.76,-44.33"/>
</g>
<!-- ... -->
<g id="node3" class="node">
<title>...</title>
<polygon fill="none" stroke="black" points="98,-0.5 98,-36.5 152,-36.5 152,-0.5 98,-0.5"/>
<text text-anchor="middle" x="125" y="-14.8" font-family="Times,serif" font-size="14.00">...</text>
</g>
<!-- qtwebengine&#45;&gt;... -->
<g id="edge2" class="edge">
<title>qtwebengine&#45;&gt;...</title>
<path fill="none" stroke="black" d="M92.19,-73.67C97.22,-65.36 103.41,-55.14 109.06,-45.83"/>
<polygon fill="black" stroke="black" points="111.91,-47.87 114.1,-37.5 105.92,-44.24 111.91,-47.87"/>
</g>
<!-- amarok -->
<g id="node4" class="node">
<title>amarok</title>
<polygon fill="none" stroke="black" points="160,-146.5 160,-182.5 230,-182.5 230,-146.5 160,-146.5"/>
<text text-anchor="middle" x="195" y="-160.8" font-family="Times,serif" font-size="14.00">amarok</text>
</g>
<!-- amarok&#45;&gt;qtwebengine -->
<g id="edge4" class="edge">
<title>amarok&#45;&gt;qtwebengine</title>
<path fill="none" stroke="black" d="M168.22,-146.67C153.41,-137.37 134.79,-125.67 118.65,-115.53"/>
<polygon fill="black" stroke="black" points="120.59,-112.61 110.26,-110.26 116.87,-118.54 120.59,-112.61"/>
</g>
<!-- ffmpeg&#45;5 -->
<g id="node5" class="node">
<title>ffmpeg&#45;5</title>
<polygon fill="pink" stroke="black" points="155,-73.5 155,-109.5 235,-109.5 235,-73.5 155,-73.5"/>
<text text-anchor="middle" x="195" y="-87.8" font-family="Times,serif" font-size="14.00">ffmpeg&#45;5</text>
</g>
<!-- amarok&#45;&gt;ffmpeg&#45;5 -->
<g id="edge3" class="edge">
<title>amarok&#45;&gt;ffmpeg&#45;5</title>
<path fill="none" stroke="black" d="M195,-146.67C195,-138.89 195,-129.44 195,-120.62"/>
<polygon fill="black" stroke="black" points="198.5,-120.72 195,-110.72 191.5,-120.72 198.5,-120.72"/>
</g>
<!-- ...  -->
<g id="node6" class="node">
<title>... </title>
<polygon fill="none" stroke="black" points="253,-73.5 253,-109.5 307,-109.5 307,-73.5 253,-73.5"/>
<text text-anchor="middle" x="280" y="-87.8" font-family="Times,serif" font-size="14.00">... </text>
</g>
<!-- amarok&#45;&gt;...  -->
<g id="edge5" class="edge">
<title>amarok&#45;&gt;... </title>
<path fill="none" stroke="black" d="M215.14,-146.67C225.86,-137.72 239.23,-126.55 251.05,-116.68"/>
<polygon fill="black" stroke="black" points="253.11,-119.52 258.54,-110.42 248.63,-114.15 253.11,-119.52"/>
</g>
</g>
</svg>
