<?xml version="1.0" encoding="UTF-8" standalone="no"?>
<!DOCTYPE svg PUBLIC "-//W3C//DTD SVG 1.1//EN"
 "http://www.w3.org/Graphics/SVG/1.1/DTD/svg11.dtd">
<!-- Generated by graphviz version 10.0.1 (0)
 -->
<!-- Pages: 1 -->
<svg width="722pt" height="209pt"
 viewBox="0.00 0.00 721.88 209.25" xmlns="http://www.w3.org/2000/svg" xmlns:xlink="http://www.w3.org/1999/xlink">
<g id="graph0" class="graph" transform="scale(1 1) rotate(0) translate(4 205.25)">
<polygon fill="white" stroke="none" points="-4,4 -4,-205.25 717.88,-205.25 717.88,4 -4,4"/>
<!-- strip -->
<g id="node1" class="node">
<title>strip</title>
<polygon fill="none" stroke="black" points="15.88,-164.75 15.88,-200.75 69.88,-200.75 69.88,-164.75 15.88,-164.75"/>
<text text-anchor="middle" x="42.75" y="-178.07" font-family="Times,serif" font-size="14.00">strip</text>
</g>
<!-- strip&#45;2.38 -->
<g id="node2" class="node">
<title>strip&#45;2.38</title>
<polygon fill="none" stroke="black" points="0,-74.5 0,-110.5 85.75,-110.5 85.75,-74.5 0,-74.5"/>
<text text-anchor="middle" x="42.88" y="-87.83" font-family="Times,serif" font-size="14.00">strip&#45;2.38</text>
</g>
<!-- strip&#45;&gt;strip&#45;2.38 -->
<g id="edge1" class="edge">
<title>strip&#45;&gt;strip&#45;2.38</title>
<path fill="none" stroke="black" d="M42.88,-164.31C42.88,-152.35 42.88,-136.19 42.88,-122.33"/>
<polygon fill="black" stroke="black" points="46.38,-122.41 42.88,-112.41 39.38,-122.41 46.38,-122.41"/>
<text text-anchor="middle" x="70.62" y="-132.95" font-family="Times,serif" font-size="14.00">symlink</text>
</g>
<!-- .../binutils/.../2.38/libbfd&#45;2.38.so -->
<g id="node3" class="node">
<title>.../binutils/.../2.38/libbfd&#45;2.38.so</title>
<polygon fill="none" stroke="black" points="14.88,-0.5 14.88,-36.5 258.88,-36.5 258.88,-0.5 14.88,-0.5"/>
<text text-anchor="middle" x="136.88" y="-13.82" font-family="Times,serif" font-size="14.00">.../binutils/.../2.38/libbfd&#45;2.38.so</text>
</g>
<!-- strip&#45;2.38&#45;&gt;.../binutils/.../2.38/libbfd&#45;2.38.so -->
<g id="edge2" class="edge">
<title>strip&#45;2.38&#45;&gt;.../binutils/.../2.38/libbfd&#45;2.38.so</title>
<path fill="none" stroke="black" d="M65.63,-74.07C77.52,-64.96 92.27,-53.67 105.25,-43.72"/>
<polygon fill="black" stroke="black" points="107.32,-46.55 113.13,-37.69 103.06,-40.99 107.32,-46.55"/>
</g>
<!-- ld&#45;2.38 -->
<g id="node4" class="node">
<title>ld&#45;2.38</title>
<polygon fill="none" stroke="black" points="104.12,-74.5 104.12,-110.5 169.62,-110.5 169.62,-74.5 104.12,-74.5"/>
<text text-anchor="middle" x="136.88" y="-87.83" font-family="Times,serif" font-size="14.00">ld&#45;2.38</text>
</g>
<!-- ld&#45;2.38&#45;&gt;.../binutils/.../2.38/libbfd&#45;2.38.so -->
<g id="edge3" class="edge">
<title>ld&#45;2.38&#45;&gt;.../binutils/.../2.38/libbfd&#45;2.38.so</title>
<path fill="none" stroke="black" d="M136.88,-74.07C136.88,-66.29 136.88,-56.91 136.88,-48.14"/>
<polygon fill="black" stroke="black" points="140.38,-48.28 136.88,-38.28 133.38,-48.28 140.38,-48.28"/>
</g>
<!-- ... -->
<g id="node5" class="node">
<title>...</title>
<polygon fill="none" stroke="black" points="187.88,-74.5 187.88,-110.5 241.88,-110.5 241.88,-74.5 187.88,-74.5"/>
<text text-anchor="middle" x="214.62" y="-87.83" font-family="Times,serif" font-size="14.00">...</text>
</g>
<!-- ...&#45;&gt;.../binutils/.../2.38/libbfd&#45;2.38.so -->
<g id="edge4" class="edge">
<title>...&#45;&gt;.../binutils/.../2.38/libbfd&#45;2.38.so</title>
<path fill="none" stroke="black" d="M195.99,-74.07C186.32,-65.14 174.36,-54.11 163.74,-44.3"/>
<polygon fill="black" stroke="black" points="166.42,-42.01 156.69,-37.8 161.67,-47.15 166.42,-42.01"/>
</g>
<!-- ld&#45;2.37 -->
<g id="node6" class="node">
<title>ld&#45;2.37</title>
<polygon fill="none" stroke="black" points="310.12,-164.75 310.12,-200.75 375.62,-200.75 375.62,-164.75 310.12,-164.75"/>
<text text-anchor="middle" x="342.88" y="-178.07" font-family="Times,serif" font-size="14.00">ld&#45;2.37</text>
</g>
<!-- .../binutils/.../2.37/libbfd&#45;2.37.so -->
<g id="node7" class="node">
<title>.../binutils/.../2.37/libbfd&#45;2.37.so</title>
<polygon fill="none" stroke="black" points="259.88,-74.5 259.88,-110.5 503.88,-110.5 503.88,-74.5 259.88,-74.5"/>
<text text-anchor="middle" x="381.88" y="-87.83" font-family="Times,serif" font-size="14.00">.../binutils/.../2.37/libbfd&#45;2.37.so</text>
</g>
<!-- ld&#45;2.37&#45;&gt;.../binutils/.../2.37/libbfd&#45;2.37.so -->
<g id="edge5" class="edge">
<title>ld&#45;2.37&#45;&gt;.../binutils/.../2.37/libbfd&#45;2.37.so</title>
<path fill="none" stroke="black" d="M350.58,-164.31C356.03,-151.99 363.44,-135.2 369.69,-121.07"/>
<polygon fill="black" stroke="black" points="372.73,-122.84 373.57,-112.28 366.33,-120.02 372.73,-122.84"/>
</g>
<!-- ...  -->
<g id="node8" class="node">
<title>... </title>
<polygon fill="none" stroke="black" points="393.88,-164.75 393.88,-200.75 447.88,-200.75 447.88,-164.75 393.88,-164.75"/>
<text text-anchor="middle" x="420.88" y="-178.07" font-family="Times,serif" font-size="14.00">... </text>
</g>
<!-- ... &#45;&gt;.../binutils/.../2.37/libbfd&#45;2.37.so -->
<g id="edge6" class="edge">
<title>... &#45;&gt;.../binutils/.../2.37/libbfd&#45;2.37.so</title>
<path fill="none" stroke="black" d="M413.17,-164.31C407.72,-151.99 400.31,-135.2 394.06,-121.07"/>
<polygon fill="black" stroke="black" points="397.42,-120.02 390.18,-112.28 391.02,-122.84 397.42,-120.02"/>
</g>
<!-- perf -->
<g id="node9" class="node">
<title>perf</title>
<polygon fill="none" stroke="black" points="515.88,-164.75 515.88,-200.75 569.88,-200.75 569.88,-164.75 515.88,-164.75"/>
<text text-anchor="middle" x="542.5" y="-178.07" font-family="Times,serif" font-size="14.00">perf</text>
</g>
<!-- /usr/lib64/libbfd&#45;2.38.so -->
<g id="node10" class="node">
<title>/usr/lib64/libbfd&#45;2.38.so</title>
<polygon fill="none" stroke="black" points="521.75,-74.5 521.75,-110.5 708,-110.5 708,-74.5 521.75,-74.5"/>
<text text-anchor="middle" x="614.88" y="-87.83" font-family="Times,serif" font-size="14.00">/usr/lib64/libbfd&#45;2.38.so</text>
</g>
<!-- perf&#45;&gt;/usr/lib64/libbfd&#45;2.38.so -->
<g id="edge7" class="edge">
<title>perf&#45;&gt;/usr/lib64/libbfd&#45;2.38.so</title>
<path fill="none" stroke="black" d="M557.1,-164.31C567.55,-151.5 581.93,-133.88 593.73,-119.42"/>
<polygon fill="black" stroke="black" points="596.11,-122.03 599.72,-112.07 590.69,-117.61 596.11,-122.03"/>
</g>
<!-- ghc -->
<g id="node11" class="node">
<title>ghc</title>
<polygon fill="none" stroke="black" points="587.88,-164.75 587.88,-200.75 641.88,-200.75 641.88,-164.75 587.88,-164.75"/>
<text text-anchor="middle" x="614.62" y="-178.07" font-family="Times,serif" font-size="14.00">ghc</text>
</g>
<!-- ghc&#45;&gt;/usr/lib64/libbfd&#45;2.38.so -->
<g id="edge8" class="edge">
<title>ghc&#45;&gt;/usr/lib64/libbfd&#45;2.38.so</title>
<path fill="none" stroke="black" d="M614.88,-164.31C614.88,-152.35 614.88,-136.19 614.88,-122.33"/>
<polygon fill="black" stroke="black" points="618.38,-122.41 614.88,-112.41 611.38,-122.41 618.38,-122.41"/>
</g>
<!-- ... &#160; -->
<g id="node12" class="node">
<title>... &#160;</title>
<polygon fill="none" stroke="black" points="659.88,-164.75 659.88,-200.75 713.88,-200.75 713.88,-164.75 659.88,-164.75"/>
<text text-anchor="middle" x="686.62" y="-178.07" font-family="Times,serif" font-size="14.00">... &#160;</text>
</g>
<!-- ... &#160;&#45;&gt;/usr/lib64/libbfd&#45;2.38.so -->
<g id="edge9" class="edge">
<title>... &#160;&#45;&gt;/usr/lib64/libbfd&#45;2.38.so</title>
<path fill="none" stroke="black" d="M672.65,-164.31C662.2,-151.5 647.82,-133.88 636.02,-119.42"/>
<polygon fill="black" stroke="black" points="639.06,-117.61 630.03,-112.07 633.64,-122.03 639.06,-117.61"/>
</g>
</g>
</svg>
