<?xml version="1.0" encoding="UTF-8" standalone="no"?>
<!DOCTYPE svg PUBLIC "-//W3C//DTD SVG 1.1//EN"
 "http://www.w3.org/Graphics/SVG/1.1/DTD/svg11.dtd">
<!-- Generated by graphviz version 7.0.2 (0)
 -->
<!-- Pages: 1 -->
<svg width="374pt" height="145pt"
 viewBox="0.00 0.00 373.50 145.00" xmlns="http://www.w3.org/2000/svg" xmlns:xlink="http://www.w3.org/1999/xlink">
<g id="graph0" class="graph" transform="scale(1 1) rotate(0) translate(4 141)">
<polygon fill="white" stroke="none" points="-4,4 -4,-141 369.5,-141 369.5,4 -4,4"/>
<text text-anchor="middle" x="182.75" y="-7.8" font-family="Times,serif" font-size="14.00">Which lib_name() will be used?</text>
<!-- main -->
<g id="node1" class="node">
<title>main</title>
<polygon fill="none" stroke="black" points="110.5,-98.5 110.5,-136.5 238.5,-136.5 238.5,-98.5 110.5,-98.5"/>
<text text-anchor="middle" x="174.5" y="-121.3" font-family="Times,serif" font-size="14.00">main:</text>
<text text-anchor="middle" x="174.5" y="-106.3" font-family="Times,serif" font-size="14.00">uses lib_name()</text>
</g>
<!-- libl1.so -->
<g id="node2" class="node">
<title>libl1.so</title>
<polygon fill="none" stroke="black" points="0,-23.5 0,-61.5 157,-61.5 157,-23.5 0,-23.5"/>
<text text-anchor="middle" x="78.5" y="-46.3" font-family="Times,serif" font-size="14.00">libl1.so:</text>
<text text-anchor="middle" x="78.5" y="-31.3" font-family="Times,serif" font-size="14.00">provides lib_name()</text>
</g>
<!-- main&#45;&gt;libl1.so -->
<g id="edge1" class="edge">
<title>main&#45;&gt;libl1.so</title>
<path fill="none" stroke="red" d="M151.26,-98.83C139.09,-89.57 123.99,-78.09 110.71,-67.99"/>
<polygon fill="red" stroke="red" points="113.14,-65.44 103.06,-62.18 108.9,-71.02 113.14,-65.44"/>
</g>
<!-- libl2.so -->
<g id="node3" class="node">
<title>libl2.so</title>
<polygon fill="none" stroke="black" points="175.5,-23.5 175.5,-61.5 365.5,-61.5 365.5,-23.5 175.5,-23.5"/>
<text text-anchor="middle" x="270.5" y="-46.3" font-family="Times,serif" font-size="14.00">libl2.so:</text>
<text text-anchor="middle" x="270.5" y="-31.3" font-family="Times,serif" font-size="14.00">also provides lib_name()</text>
</g>
<!-- main&#45;&gt;libl2.so -->
<g id="edge2" class="edge">
<title>main&#45;&gt;libl2.so</title>
<path fill="none" stroke="red" d="M197.74,-98.83C209.91,-89.57 225.01,-78.09 238.29,-67.99"/>
<polygon fill="red" stroke="red" points="240.1,-71.02 245.94,-62.18 235.86,-65.44 240.1,-71.02"/>
</g>
</g>
</svg>
