<?xml version="1.0" encoding="UTF-8" standalone="no"?>
<!DOCTYPE svg PUBLIC "-//W3C//DTD SVG 1.1//EN"
 "http://www.w3.org/Graphics/SVG/1.1/DTD/svg11.dtd">
<!-- Generated by graphviz version 7.0.2 (0)
 -->
<!-- Pages: 1 -->
<svg width="1814pt" height="620pt"
 viewBox="0.00 0.00 1814.00 620.00" xmlns="http://www.w3.org/2000/svg" xmlns:xlink="http://www.w3.org/1999/xlink">
<g id="graph0" class="graph" transform="scale(1 1) rotate(0) translate(4 616)">
<polygon fill="white" stroke="none" points="-4,4 -4,-616 1810,-616 1810,4 -4,4"/>
<!-- gdb -->
<g id="node1" class="node">
<title>gdb</title>
<polygon fill="none" stroke="black" points="1272,-612 1218,-612 1218,-576 1272,-576 1272,-612"/>
<text text-anchor="middle" x="1245" y="-590.3" font-family="Times,serif" font-size="14.00">gdb</text>
</g>
<!-- ld&#45;linux&#45;x86&#45;64.so.2 -->
<g id="node2" class="node">
<title>ld&#45;linux&#45;x86&#45;64.so.2</title>
<polygon fill="none" stroke="black" points="489,-36 333,-36 333,0 489,0 489,-36"/>
<text text-anchor="middle" x="411" y="-14.3" font-family="Times,serif" font-size="14.00">ld&#45;linux&#45;x86&#45;64.so.2</text>
</g>
<!-- gdb&#45;&gt;ld&#45;linux&#45;x86&#45;64.so.2 -->
<g id="edge1" class="edge">
<title>gdb&#45;&gt;ld&#45;linux&#45;x86&#45;64.so.2</title>
<path fill="none" stroke="black" d="M1217.55,-592.84C1034.66,-591.44 0,-577.93 0,-451 0,-451 0,-451 0,-161 0,-90.98 65.33,-98.84 130,-72 191.26,-46.58 265.1,-33.26 321.72,-26.33"/>
<polygon fill="black" stroke="black" points="321.78,-29.84 331.3,-25.2 320.96,-22.89 321.78,-29.84"/>
</g>
<!-- libboost_regex.so.1.77.0 -->
<g id="node3" class="node">
<title>libboost_regex.so.1.77.0</title>
<polygon fill="none" stroke="black" points="869.5,-468 678.5,-468 678.5,-432 869.5,-432 869.5,-468"/>
<text text-anchor="middle" x="774" y="-446.3" font-family="Times,serif" font-size="14.00">libboost_regex.so.1.77.0</text>
</g>
<!-- gdb&#45;&gt;libboost_regex.so.1.77.0 -->
<g id="edge2" class="edge">
<title>gdb&#45;&gt;libboost_regex.so.1.77.0</title>
<path fill="none" stroke="black" d="M1217.86,-593.79C1155.88,-594.61 1000.33,-590.98 884,-540 850.18,-525.18 818.16,-497.09 797.48,-476.41"/>
<polygon fill="black" stroke="black" points="800.15,-474.14 790.66,-469.43 795.14,-479.03 800.15,-474.14"/>
</g>
<!-- libcrypt.so.1 -->
<g id="node4" class="node">
<title>libcrypt.so.1</title>
<polygon fill="none" stroke="black" points="1706,-180 1600,-180 1600,-144 1706,-144 1706,-180"/>
<text text-anchor="middle" x="1653" y="-158.3" font-family="Times,serif" font-size="14.00">libcrypt.so.1</text>
</g>
<!-- gdb&#45;&gt;libcrypt.so.1 -->
<g id="edge3" class="edge">
<title>gdb&#45;&gt;libcrypt.so.1</title>
<path fill="none" stroke="black" d="M1272.03,-593.52C1335.32,-593.84 1497.03,-589.32 1620,-540 1682.96,-514.75 1744,-518.84 1744,-451 1744,-451 1744,-451 1744,-305 1744,-264.55 1746.94,-249.98 1725,-216 1717.57,-204.49 1706.7,-194.61 1695.65,-186.62"/>
<polygon fill="black" stroke="black" points="1697.89,-183.91 1687.65,-181.19 1693.96,-189.7 1697.89,-183.91"/>
</g>
<!-- libc.so.6 -->
<g id="node5" class="node">
<title>libc.so.6</title>
<polygon fill="none" stroke="black" points="1134,-108 1058,-108 1058,-72 1134,-72 1134,-108"/>
<text text-anchor="middle" x="1096" y="-86.3" font-family="Times,serif" font-size="14.00">libc.so.6</text>
</g>
<!-- gdb&#45;&gt;libc.so.6 -->
<g id="edge4" class="edge">
<title>gdb&#45;&gt;libc.so.6</title>
<path fill="none" stroke="black" d="M1267.54,-575.6C1278.59,-566.1 1291.35,-553.52 1300,-540 1340.6,-476.52 1423.51,-287.59 1400,-216 1387.6,-178.25 1380.41,-165.51 1347,-144 1285.43,-104.35 1199.4,-93.77 1145.73,-91.27"/>
<polygon fill="black" stroke="black" points="1146.1,-87.78 1135.98,-90.9 1145.84,-94.78 1146.1,-87.78"/>
</g>
<!-- libdl.so.2 -->
<g id="node6" class="node">
<title>libdl.so.2</title>
<polygon fill="none" stroke="black" points="1806,-180 1724,-180 1724,-144 1806,-144 1806,-180"/>
<text text-anchor="middle" x="1765" y="-158.3" font-family="Times,serif" font-size="14.00">libdl.so.2</text>
</g>
<!-- gdb&#45;&gt;libdl.so.2 -->
<g id="edge5" class="edge">
<title>gdb&#45;&gt;libdl.so.2</title>
<path fill="none" stroke="black" d="M1272.29,-591.87C1356.3,-588.04 1609.82,-573.91 1684,-540 1737.51,-515.54 1782,-509.84 1782,-451 1782,-451 1782,-451 1782,-305 1782,-265.46 1775.42,-220.16 1770.45,-191.57"/>
<polygon fill="black" stroke="black" points="1773.92,-191.12 1768.71,-181.9 1767.03,-192.36 1773.92,-191.12"/>
</g>
<!-- libexpat.so.1 -->
<g id="node7" class="node">
<title>libexpat.so.1</title>
<polygon fill="none" stroke="black" points="174,-252 66,-252 66,-216 174,-216 174,-252"/>
<text text-anchor="middle" x="120" y="-230.3" font-family="Times,serif" font-size="14.00">libexpat.so.1</text>
</g>
<!-- gdb&#45;&gt;libexpat.so.1 -->
<g id="edge6" class="edge">
<title>gdb&#45;&gt;libexpat.so.1</title>
<path fill="none" stroke="black" d="M1217.89,-592.25C1083.19,-588.42 489.4,-569.92 413,-540 274.4,-485.72 171.58,-326.16 134.78,-262.09"/>
<polygon fill="black" stroke="black" points="137.97,-260.61 130,-253.63 131.88,-264.05 137.97,-260.61"/>
</g>
<!-- libgcc_s.so.1 -->
<g id="node8" class="node">
<title>libgcc_s.so.1</title>
<polygon fill="none" stroke="black" points="1149.5,-180 1042.5,-180 1042.5,-144 1149.5,-144 1149.5,-180"/>
<text text-anchor="middle" x="1096" y="-158.3" font-family="Times,serif" font-size="14.00">libgcc_s.so.1</text>
</g>
<!-- gdb&#45;&gt;libgcc_s.so.1 -->
<g id="edge7" class="edge">
<title>gdb&#45;&gt;libgcc_s.so.1</title>
<path fill="none" stroke="black" d="M1241.16,-575.61C1235.6,-548.94 1226,-496.27 1226,-451 1226,-451 1226,-451 1226,-377 1226,-299 1162.14,-225.21 1123.93,-188.05"/>
<polygon fill="black" stroke="black" points="1126.5,-185.66 1116.84,-181.3 1121.67,-190.73 1126.5,-185.66"/>
</g>
<!-- libgmp.so.10 -->
<g id="node9" class="node">
<title>libgmp.so.10</title>
<polygon fill="none" stroke="black" points="1315.5,-180 1206.5,-180 1206.5,-144 1315.5,-144 1315.5,-180"/>
<text text-anchor="middle" x="1261" y="-158.3" font-family="Times,serif" font-size="14.00">libgmp.so.10</text>
</g>
<!-- gdb&#45;&gt;libgmp.so.10 -->
<g id="edge8" class="edge">
<title>gdb&#45;&gt;libgmp.so.10</title>
<path fill="none" stroke="black" d="M1248.84,-575.61C1254.4,-548.94 1264,-496.27 1264,-451 1264,-451 1264,-451 1264,-377 1264,-310.69 1262.54,-232.83 1261.66,-191.75"/>
<polygon fill="black" stroke="black" points="1265.16,-191.91 1261.44,-181.99 1258.16,-192.06 1265.16,-191.91"/>
</g>
<!-- libipt.so.2 -->
<g id="node10" class="node">
<title>libipt.so.2</title>
<polygon fill="none" stroke="black" points="432,-324 344,-324 344,-288 432,-288 432,-324"/>
<text text-anchor="middle" x="388" y="-302.3" font-family="Times,serif" font-size="14.00">libipt.so.2</text>
</g>
<!-- gdb&#45;&gt;libipt.so.2 -->
<g id="edge9" class="edge">
<title>gdb&#45;&gt;libipt.so.2</title>
<path fill="none" stroke="black" d="M1217.58,-593.06C1084.1,-593.12 506.32,-590.45 446,-540 385.29,-489.23 382.73,-385.62 385.46,-335.46"/>
<polygon fill="black" stroke="black" points="388.93,-335.93 386.11,-325.72 381.95,-335.46 388.93,-335.93"/>
</g>
<!-- libmpfr.so.6 -->
<g id="node11" class="node">
<title>libmpfr.so.6</title>
<polygon fill="none" stroke="black" points="1391.5,-252 1290.5,-252 1290.5,-216 1391.5,-216 1391.5,-252"/>
<text text-anchor="middle" x="1341" y="-230.3" font-family="Times,serif" font-size="14.00">libmpfr.so.6</text>
</g>
<!-- gdb&#45;&gt;libmpfr.so.6 -->
<g id="edge10" class="edge">
<title>gdb&#45;&gt;libmpfr.so.6</title>
<path fill="none" stroke="black" d="M1257.67,-575.57C1264.47,-565.56 1272.55,-552.52 1278,-540 1294.34,-502.43 1302,-491.97 1302,-451 1302,-451 1302,-451 1302,-377 1302,-335.92 1317.36,-290.47 1328.8,-262.32"/>
<polygon fill="black" stroke="black" points="1331.88,-264.04 1332.52,-253.47 1325.42,-261.33 1331.88,-264.04"/>
</g>
<!-- libm.so.6 -->
<g id="node12" class="node">
<title>libm.so.6</title>
<polygon fill="none" stroke="black" points="326,-180 244,-180 244,-144 326,-144 326,-180"/>
<text text-anchor="middle" x="285" y="-158.3" font-family="Times,serif" font-size="14.00">libm.so.6</text>
</g>
<!-- gdb&#45;&gt;libm.so.6 -->
<g id="edge11" class="edge">
<title>gdb&#45;&gt;libm.so.6</title>
<path fill="none" stroke="black" d="M1217.91,-592.74C1076.31,-591.19 424.69,-581.84 346,-540 249.03,-488.44 233.57,-433.56 226,-324 222.64,-275.38 223.7,-259.84 245,-216 249.49,-206.76 255.7,-197.53 261.89,-189.42"/>
<polygon fill="black" stroke="black" points="264.58,-191.66 268.1,-181.67 259.12,-187.29 264.58,-191.66"/>
</g>
<!-- libncursesw.so.6 -->
<g id="node13" class="node">
<title>libncursesw.so.6</title>
<polygon fill="none" stroke="black" points="1502,-468 1368,-468 1368,-432 1502,-432 1502,-468"/>
<text text-anchor="middle" x="1435" y="-446.3" font-family="Times,serif" font-size="14.00">libncursesw.so.6</text>
</g>
<!-- gdb&#45;&gt;libncursesw.so.6 -->
<g id="edge12" class="edge">
<title>gdb&#45;&gt;libncursesw.so.6</title>
<path fill="none" stroke="black" d="M1272.13,-583.17C1295.21,-574.06 1328.56,-559.04 1354,-540 1377.9,-522.12 1400.35,-496.47 1415.52,-477.3"/>
<polygon fill="black" stroke="black" points="1418.28,-479.46 1421.64,-469.41 1412.75,-475.17 1418.28,-479.46"/>
</g>
<!-- libpthread.so.0 -->
<g id="node14" class="node">
<title>libpthread.so.0</title>
<polygon fill="none" stroke="black" points="507.5,-252 382.5,-252 382.5,-216 507.5,-216 507.5,-252"/>
<text text-anchor="middle" x="445" y="-230.3" font-family="Times,serif" font-size="14.00">libpthread.so.0</text>
</g>
<!-- gdb&#45;&gt;libpthread.so.0 -->
<g id="edge13" class="edge">
<title>gdb&#45;&gt;libpthread.so.0</title>
<path fill="none" stroke="black" d="M1217.52,-591.01C1078.58,-580.57 460,-529.68 460,-451 460,-451 460,-451 460,-377 460,-337.52 454.2,-292.21 449.81,-263.6"/>
<polygon fill="black" stroke="black" points="453.3,-263.25 448.27,-253.92 446.38,-264.35 453.3,-263.25"/>
</g>
<!-- libpython3.9.so.1.0 -->
<g id="node15" class="node">
<title>libpython3.9.so.1.0</title>
<polygon fill="none" stroke="black" points="1716,-252 1562,-252 1562,-216 1716,-216 1716,-252"/>
<text text-anchor="middle" x="1639" y="-230.3" font-family="Times,serif" font-size="14.00">libpython3.9.so.1.0</text>
</g>
<!-- gdb&#45;&gt;libpython3.9.so.1.0 -->
<g id="edge14" class="edge">
<title>gdb&#45;&gt;libpython3.9.so.1.0</title>
<path fill="none" stroke="black" d="M1272.25,-590.73C1340.94,-584.67 1519.39,-566.74 1572,-540 1622.15,-514.51 1662,-507.26 1662,-451 1662,-451 1662,-451 1662,-377 1662,-337.23 1653.1,-291.99 1646.37,-263.47"/>
<polygon fill="black" stroke="black" points="1649.79,-262.7 1644.01,-253.81 1642.99,-264.36 1649.79,-262.7"/>
</g>
<!-- libreadline.so.8 -->
<g id="node16" class="node">
<title>libreadline.so.8</title>
<polygon fill="none" stroke="black" points="1533.5,-540 1406.5,-540 1406.5,-504 1533.5,-504 1533.5,-540"/>
<text text-anchor="middle" x="1470" y="-518.3" font-family="Times,serif" font-size="14.00">libreadline.so.8</text>
</g>
<!-- gdb&#45;&gt;libreadline.so.8 -->
<g id="edge15" class="edge">
<title>gdb&#45;&gt;libreadline.so.8</title>
<path fill="none" stroke="black" d="M1272.14,-584.56C1304.36,-574.53 1359.23,-557.46 1403.03,-543.84"/>
<polygon fill="black" stroke="black" points="1403.95,-547.21 1412.46,-540.9 1401.87,-540.53 1403.95,-547.21"/>
</g>
<!-- libsource&#45;highlight.so.4 -->
<g id="node17" class="node">
<title>libsource&#45;highlight.so.4</title>
<polygon fill="none" stroke="black" points="1197.5,-540 1012.5,-540 1012.5,-504 1197.5,-504 1197.5,-540"/>
<text text-anchor="middle" x="1105" y="-518.3" font-family="Times,serif" font-size="14.00">libsource&#45;highlight.so.4</text>
</g>
<!-- gdb&#45;&gt;libsource&#45;highlight.so.4 -->
<g id="edge16" class="edge">
<title>gdb&#45;&gt;libsource&#45;highlight.so.4</title>
<path fill="none" stroke="black" d="M1217.67,-579.34C1198.51,-569.75 1172.44,-556.72 1150.2,-545.6"/>
<polygon fill="black" stroke="black" points="1151.84,-542.5 1141.33,-541.16 1148.7,-548.77 1151.84,-542.5"/>
</g>
<!-- libstdc++.so.6 -->
<g id="node18" class="node">
<title>libstdc++.so.6</title>
<polygon fill="none" stroke="black" points="910,-252 788,-252 788,-216 910,-216 910,-252"/>
<text text-anchor="middle" x="849" y="-230.3" font-family="Times,serif" font-size="14.00">libstdc++.so.6</text>
</g>
<!-- gdb&#45;&gt;libstdc++.so.6 -->
<g id="edge17" class="edge">
<title>gdb&#45;&gt;libstdc++.so.6</title>
<path fill="none" stroke="black" d="M1217.82,-591.33C1171.5,-587.57 1075.28,-575.75 1003,-540 948.17,-512.88 898,-512.18 898,-451 898,-451 898,-451 898,-377 898,-335.14 878.74,-289.96 864.37,-262.07"/>
<polygon fill="black" stroke="black" points="867.65,-260.79 859.86,-253.6 861.47,-264.08 867.65,-260.79"/>
</g>
<!-- libz.so.1 -->
<g id="node19" class="node">
<title>libz.so.1</title>
<polygon fill="none" stroke="black" points="1634,-468 1558,-468 1558,-432 1634,-432 1634,-468"/>
<text text-anchor="middle" x="1596" y="-446.3" font-family="Times,serif" font-size="14.00">libz.so.1</text>
</g>
<!-- gdb&#45;&gt;libz.so.1 -->
<g id="edge18" class="edge">
<title>gdb&#45;&gt;libz.so.1</title>
<path fill="none" stroke="black" d="M1272.28,-590.99C1337.09,-585.77 1498.15,-570.06 1542,-540 1563.51,-525.25 1577.92,-498.86 1586.41,-478.63"/>
<polygon fill="black" stroke="black" points="1589.58,-480.14 1589.97,-469.55 1583.06,-477.58 1589.58,-480.14"/>
</g>
<!-- libboost_regex.so.1.77.0&#45;&gt;libc.so.6 -->
<g id="edge19" class="edge">
<title>libboost_regex.so.1.77.0&#45;&gt;libc.so.6</title>
<path fill="none" stroke="black" d="M811.48,-431.67C828.26,-422.67 847.49,-410.5 862,-396 954.52,-303.54 922.96,-237.91 1014,-144 1025.11,-132.54 1039.14,-122.34 1052.43,-114.03"/>
<polygon fill="black" stroke="black" points="1053.87,-117.25 1060.64,-109.09 1050.27,-111.25 1053.87,-117.25"/>
</g>
<!-- libboost_regex.so.1.77.0&#45;&gt;libgcc_s.so.1 -->
<g id="edge20" class="edge">
<title>libboost_regex.so.1.77.0&#45;&gt;libgcc_s.so.1</title>
<path fill="none" stroke="black" d="M869.86,-442.33C940.48,-435.37 1028.49,-421.74 1054,-396 1108.55,-340.97 1105.54,-240.63 1100.15,-191.56"/>
<polygon fill="black" stroke="black" points="1103.64,-191.25 1098.95,-181.75 1096.69,-192.1 1103.64,-191.25"/>
</g>
<!-- libboost_regex.so.1.77.0&#45;&gt;libm.so.6 -->
<g id="edge24" class="edge">
<title>libboost_regex.so.1.77.0&#45;&gt;libm.so.6</title>
<path fill="none" stroke="black" d="M678.05,-434.63C558.23,-414.77 362.8,-375.5 312,-324 277.49,-289.01 277.34,-227.56 280.84,-191.54"/>
<polygon fill="black" stroke="black" points="284.29,-192.21 281.95,-181.88 277.33,-191.42 284.29,-192.21"/>
</g>
<!-- libboost_regex.so.1.77.0&#45;&gt;libpthread.so.0 -->
<g id="edge25" class="edge">
<title>libboost_regex.so.1.77.0&#45;&gt;libpthread.so.0</title>
<path fill="none" stroke="black" d="M714.85,-431.58C657.8,-412.46 571.56,-377.23 512,-324 491.71,-305.87 473.48,-280.78 461.18,-261.86"/>
<polygon fill="black" stroke="black" points="464.26,-260.19 455.95,-253.61 458.35,-263.93 464.26,-260.19"/>
</g>
<!-- libboost_regex.so.1.77.0&#45;&gt;libstdc++.so.6 -->
<g id="edge27" class="edge">
<title>libboost_regex.so.1.77.0&#45;&gt;libstdc++.so.6</title>
<path fill="none" stroke="black" d="M806.53,-431.57C819.62,-422.76 833.39,-410.77 841,-396 862.68,-353.9 859.2,-297.11 854.34,-263.45"/>
<polygon fill="black" stroke="black" points="857.81,-262.98 852.77,-253.65 850.9,-264.08 857.81,-262.98"/>
</g>
<!-- libicudata.so.71 -->
<g id="node20" class="node">
<title>libicudata.so.71</title>
<polygon fill="none" stroke="black" points="770,-252 640,-252 640,-216 770,-216 770,-252"/>
<text text-anchor="middle" x="705" y="-230.3" font-family="Times,serif" font-size="14.00">libicudata.so.71</text>
</g>
<!-- libboost_regex.so.1.77.0&#45;&gt;libicudata.so.71 -->
<g id="edge21" class="edge">
<title>libboost_regex.so.1.77.0&#45;&gt;libicudata.so.71</title>
<path fill="none" stroke="black" d="M731.46,-431.64C716.53,-423.23 701.39,-411.52 693,-396 681.01,-373.83 691.79,-303.37 699.26,-263.39"/>
<polygon fill="black" stroke="black" points="702.66,-264.26 701.11,-253.78 695.79,-262.93 702.66,-264.26"/>
</g>
<!-- libicui18n.so.71 -->
<g id="node21" class="node">
<title>libicui18n.so.71</title>
<polygon fill="none" stroke="black" points="832,-396 702,-396 702,-360 832,-360 832,-396"/>
<text text-anchor="middle" x="767" y="-374.3" font-family="Times,serif" font-size="14.00">libicui18n.so.71</text>
</g>
<!-- libboost_regex.so.1.77.0&#45;&gt;libicui18n.so.71 -->
<g id="edge22" class="edge">
<title>libboost_regex.so.1.77.0&#45;&gt;libicui18n.so.71</title>
<path fill="none" stroke="black" d="M772.27,-431.7C771.54,-424.41 770.67,-415.73 769.85,-407.54"/>
<polygon fill="black" stroke="black" points="773.34,-407.21 768.86,-397.61 766.37,-407.91 773.34,-407.21"/>
</g>
<!-- libicuuc.so.71 -->
<g id="node22" class="node">
<title>libicuuc.so.71</title>
<polygon fill="none" stroke="black" points="679.5,-324 564.5,-324 564.5,-288 679.5,-288 679.5,-324"/>
<text text-anchor="middle" x="622" y="-302.3" font-family="Times,serif" font-size="14.00">libicuuc.so.71</text>
</g>
<!-- libboost_regex.so.1.77.0&#45;&gt;libicuuc.so.71 -->
<g id="edge23" class="edge">
<title>libboost_regex.so.1.77.0&#45;&gt;libicuuc.so.71</title>
<path fill="none" stroke="black" d="M715.81,-431.53C696.11,-423.31 675.26,-411.75 660,-396 643.83,-379.31 634.04,-354.68 628.46,-335.56"/>
<polygon fill="black" stroke="black" points="631.85,-334.71 625.9,-325.95 625.09,-336.51 631.85,-334.71"/>
</g>
<!-- librt.so.1 -->
<g id="node23" class="node">
<title>librt.so.1</title>
<polygon fill="none" stroke="black" points="1045.5,-396 964.5,-396 964.5,-360 1045.5,-360 1045.5,-396"/>
<text text-anchor="middle" x="1005" y="-374.3" font-family="Times,serif" font-size="14.00">librt.so.1</text>
</g>
<!-- libboost_regex.so.1.77.0&#45;&gt;librt.so.1 -->
<g id="edge26" class="edge">
<title>libboost_regex.so.1.77.0&#45;&gt;librt.so.1</title>
<path fill="none" stroke="black" d="M832.3,-431.56C866.59,-421.27 910.78,-407.97 950,-396 951.15,-395.65 952.31,-395.3 953.48,-394.94"/>
<polygon fill="black" stroke="black" points="954.18,-398.38 962.72,-392.1 952.13,-391.69 954.18,-398.38"/>
</g>
<!-- libcrypt.so.1&#45;&gt;libc.so.6 -->
<g id="edge28" class="edge">
<title>libcrypt.so.1&#45;&gt;libc.so.6</title>
<path fill="none" stroke="black" d="M1599.75,-146.77C1595.12,-145.75 1590.49,-144.81 1586,-144 1426.43,-115.27 1234.61,-100.03 1145.72,-94.06"/>
<polygon fill="black" stroke="black" points="1146.1,-90.57 1135.89,-93.41 1145.64,-97.56 1146.1,-90.57"/>
</g>
<!-- libc.so.6&#45;&gt;ld&#45;linux&#45;x86&#45;64.so.2 -->
<g id="edge29" class="edge">
<title>libc.so.6&#45;&gt;ld&#45;linux&#45;x86&#45;64.so.2</title>
<path fill="none" stroke="black" d="M1057.7,-85.09C951.6,-74.24 651.73,-43.6 500.53,-28.15"/>
<polygon fill="black" stroke="black" points="501.27,-24.71 490.97,-27.17 500.56,-31.67 501.27,-24.71"/>
</g>
<!-- libdl.so.2&#45;&gt;libc.so.6 -->
<g id="edge30" class="edge">
<title>libdl.so.2&#45;&gt;libc.so.6</title>
<path fill="none" stroke="black" d="M1723.74,-146.11C1720.81,-145.32 1717.87,-144.6 1715,-144 1506.41,-100.29 1251.05,-92.48 1145.39,-91.19"/>
<polygon fill="black" stroke="black" points="1145.7,-87.69 1135.66,-91.09 1145.62,-94.69 1145.7,-87.69"/>
</g>
<!-- libexpat.so.1&#45;&gt;libc.so.6 -->
<g id="edge31" class="edge">
<title>libexpat.so.1&#45;&gt;libc.so.6</title>
<path fill="none" stroke="black" d="M135.54,-215.85C155.98,-194.62 194.13,-159.39 235,-144 310.83,-115.45 873.78,-97.29 1046.05,-92.36"/>
<polygon fill="black" stroke="black" points="1046.12,-95.86 1056.02,-92.08 1045.92,-88.86 1046.12,-95.86"/>
</g>
<!-- libexpat.so.1&#45;&gt;libm.so.6 -->
<g id="edge32" class="edge">
<title>libexpat.so.1&#45;&gt;libm.so.6</title>
<path fill="none" stroke="black" d="M161.21,-215.52C183.15,-206.21 210.33,-194.68 233.63,-184.79"/>
<polygon fill="black" stroke="black" points="234.8,-188.1 242.64,-180.97 232.06,-181.66 234.8,-188.1"/>
</g>
<!-- libgcc_s.so.1&#45;&gt;libc.so.6 -->
<g id="edge33" class="edge">
<title>libgcc_s.so.1&#45;&gt;libc.so.6</title>
<path fill="none" stroke="black" d="M1096,-143.7C1096,-136.41 1096,-127.73 1096,-119.54"/>
<polygon fill="black" stroke="black" points="1099.5,-119.62 1096,-109.62 1092.5,-119.62 1099.5,-119.62"/>
</g>
<!-- libgmp.so.10&#45;&gt;libc.so.6 -->
<g id="edge34" class="edge">
<title>libgmp.so.10&#45;&gt;libc.so.6</title>
<path fill="none" stroke="black" d="M1219.79,-143.52C1197.11,-133.89 1168.82,-121.89 1145.01,-111.79"/>
<polygon fill="black" stroke="black" points="1146.39,-108.58 1135.82,-107.89 1143.66,-115.02 1146.39,-108.58"/>
</g>
<!-- libipt.so.2&#45;&gt;libc.so.6 -->
<g id="edge49" class="edge">
<title>libipt.so.2&#45;&gt;libc.so.6</title>
<path fill="none" stroke="black" d="M378.74,-287.73C370.01,-268.87 360.02,-238.36 373,-216 405.37,-160.21 437.46,-163.3 499,-144 600.71,-112.11 922.03,-97.32 1046.28,-92.68"/>
<polygon fill="black" stroke="black" points="1046.29,-96.18 1056.16,-92.32 1046.04,-89.19 1046.29,-96.18"/>
</g>
<!-- libipt.so.2&#45;&gt;libpthread.so.0 -->
<g id="edge50" class="edge">
<title>libipt.so.2&#45;&gt;libpthread.so.0</title>
<path fill="none" stroke="black" d="M402.09,-287.7C408.65,-279.64 416.59,-269.89 423.84,-260.98"/>
<polygon fill="black" stroke="black" points="426.52,-263.24 430.12,-253.28 421.09,-258.82 426.52,-263.24"/>
</g>
<!-- libmpfr.so.6&#45;&gt;ld&#45;linux&#45;x86&#45;64.so.2 -->
<g id="edge51" class="edge">
<title>libmpfr.so.6&#45;&gt;ld&#45;linux&#45;x86&#45;64.so.2</title>
<path fill="none" stroke="black" d="M1348.21,-215.52C1354.92,-196.18 1361.85,-164.99 1347,-144 1291.47,-65.51 1237.12,-91.65 1143,-72 1022.73,-46.9 668.28,-29.54 500.71,-22.5"/>
<polygon fill="black" stroke="black" points="500.87,-19.01 490.73,-22.09 500.57,-26 500.87,-19.01"/>
</g>
<!-- libmpfr.so.6&#45;&gt;libc.so.6 -->
<g id="edge52" class="edge">
<title>libmpfr.so.6&#45;&gt;libc.so.6</title>
<path fill="none" stroke="black" d="M1342.83,-215.79C1343.93,-195.81 1342.42,-163.17 1324,-144 1299.78,-118.8 1205.15,-103.53 1145.68,-96.23"/>
<polygon fill="black" stroke="black" points="1146.13,-92.76 1135.79,-95.06 1145.3,-99.71 1146.13,-92.76"/>
</g>
<!-- libmpfr.so.6&#45;&gt;libgmp.so.10 -->
<g id="edge53" class="edge">
<title>libmpfr.so.6&#45;&gt;libgmp.so.10</title>
<path fill="none" stroke="black" d="M1321.22,-215.7C1311.61,-207.28 1299.88,-197.02 1289.33,-187.79"/>
<polygon fill="black" stroke="black" points="1291.79,-185.29 1281.96,-181.34 1287.19,-190.56 1291.79,-185.29"/>
</g>
<!-- libm.so.6&#45;&gt;ld&#45;linux&#45;x86&#45;64.so.2 -->
<g id="edge54" class="edge">
<title>libm.so.6&#45;&gt;ld&#45;linux&#45;x86&#45;64.so.2</title>
<path fill="none" stroke="black" d="M300.45,-143.59C322.48,-118.76 363.07,-73.01 388.46,-44.4"/>
<polygon fill="black" stroke="black" points="390.79,-47.05 394.81,-37.24 385.56,-42.4 390.79,-47.05"/>
</g>
<!-- libm.so.6&#45;&gt;libc.so.6 -->
<g id="edge55" class="edge">
<title>libm.so.6&#45;&gt;libc.so.6</title>
<path fill="none" stroke="black" d="M326.49,-147.08C331.01,-145.89 335.58,-144.83 340,-144 602.84,-94.84 924.82,-90.33 1046.38,-90.56"/>
<polygon fill="black" stroke="black" points="1046.33,-94.06 1056.34,-90.59 1046.35,-87.06 1046.33,-94.06"/>
</g>
<!-- libncursesw.so.6&#45;&gt;libc.so.6 -->
<g id="edge56" class="edge">
<title>libncursesw.so.6&#45;&gt;libc.so.6</title>
<path fill="none" stroke="black" d="M1439.65,-431.66C1446.38,-405.05 1458,-352.45 1458,-307 1458,-307 1458,-307 1458,-233 1458,-192.03 1464.49,-171.37 1434,-144 1392.41,-106.67 1229.3,-95.58 1145.82,-92.33"/>
<polygon fill="black" stroke="black" points="1145.98,-88.83 1135.86,-91.97 1145.72,-95.83 1145.98,-88.83"/>
</g>
<!-- libpthread.so.0&#45;&gt;libc.so.6 -->
<g id="edge57" class="edge">
<title>libpthread.so.0&#45;&gt;libc.so.6</title>
<path fill="none" stroke="black" d="M460.99,-215.73C481.61,-194.71 519.65,-160.05 560,-144 647.78,-109.08 930.92,-96.27 1046.33,-92.42"/>
<polygon fill="black" stroke="black" points="1046.22,-95.92 1056.1,-92.1 1045.99,-88.93 1046.22,-95.92"/>
</g>
<!-- libpython3.9.so.1.0&#45;&gt;libcrypt.so.1 -->
<g id="edge58" class="edge">
<title>libpython3.9.so.1.0&#45;&gt;libcrypt.so.1</title>
<path fill="none" stroke="black" d="M1642.46,-215.7C1643.94,-208.32 1645.7,-199.52 1647.35,-191.25"/>
<polygon fill="black" stroke="black" points="1650.75,-192.08 1649.28,-181.59 1643.89,-190.71 1650.75,-192.08"/>
</g>
<!-- libpython3.9.so.1.0&#45;&gt;libc.so.6 -->
<g id="edge59" class="edge">
<title>libpython3.9.so.1.0&#45;&gt;libc.so.6</title>
<path fill="none" stroke="black" d="M1623.75,-215.61C1602.81,-192.19 1565.75,-152.48 1548,-144 1477.72,-110.44 1247.61,-97.14 1145.53,-92.79"/>
<polygon fill="black" stroke="black" points="1145.96,-89.31 1135.83,-92.39 1145.68,-96.3 1145.96,-89.31"/>
</g>
<!-- libpython3.9.so.1.0&#45;&gt;libdl.so.2 -->
<g id="edge60" class="edge">
<title>libpython3.9.so.1.0&#45;&gt;libdl.so.2</title>
<path fill="none" stroke="black" d="M1670.47,-215.52C1686.68,-206.51 1706.64,-195.42 1724.03,-185.76"/>
<polygon fill="black" stroke="black" points="1725.57,-188.91 1732.61,-181 1722.17,-182.79 1725.57,-188.91"/>
</g>
<!-- libpython3.9.so.1.0&#45;&gt;libgcc_s.so.1 -->
<g id="edge61" class="edge">
<title>libpython3.9.so.1.0&#45;&gt;libgcc_s.so.1</title>
<path fill="none" stroke="black" d="M1561.8,-224.87C1473.47,-215.3 1324.56,-198.37 1197,-180 1185.4,-178.33 1173.07,-176.39 1161.16,-174.43"/>
<polygon fill="black" stroke="black" points="1161.85,-171 1151.41,-172.81 1160.7,-177.9 1161.85,-171"/>
</g>
<!-- libpython3.9.so.1.0&#45;&gt;libm.so.6 -->
<g id="edge62" class="edge">
<title>libpython3.9.so.1.0&#45;&gt;libm.so.6</title>
<path fill="none" stroke="black" d="M1561.53,-227.03C1514.77,-223.54 1453.98,-219.2 1400,-216 991.16,-191.75 497.46,-171.42 337.64,-165.06"/>
<polygon fill="black" stroke="black" points="337.92,-161.57 327.79,-164.67 337.64,-168.56 337.92,-161.57"/>
</g>
<!-- libreadline.so.8&#45;&gt;libc.so.6 -->
<g id="edge63" class="edge">
<title>libreadline.so.8&#45;&gt;libc.so.6</title>
<path fill="none" stroke="black" d="M1488.17,-503.68C1496.88,-494.1 1506.41,-481.43 1511,-468 1516.17,-452.86 1511.95,-447.97 1511,-432 1507.66,-376.15 1496,-362.95 1496,-307 1496,-307 1496,-307 1496,-233 1496,-190.33 1493.56,-170.35 1460,-144 1412.11,-106.4 1233.6,-95.41 1145.64,-92.25"/>
<polygon fill="black" stroke="black" points="1145.98,-88.76 1135.87,-91.92 1145.74,-95.75 1145.98,-88.76"/>
</g>
<!-- libreadline.so.8&#45;&gt;libncursesw.so.6 -->
<g id="edge64" class="edge">
<title>libreadline.so.8&#45;&gt;libncursesw.so.6</title>
<path fill="none" stroke="black" d="M1461.35,-503.7C1457.53,-496.07 1452.96,-486.92 1448.7,-478.4"/>
<polygon fill="black" stroke="black" points="1451.83,-476.84 1444.23,-469.46 1445.57,-479.97 1451.83,-476.84"/>
</g>
<!-- libsource&#45;highlight.so.4&#45;&gt;libboost_regex.so.1.77.0 -->
<g id="edge66" class="edge">
<title>libsource&#45;highlight.so.4&#45;&gt;libboost_regex.so.1.77.0</title>
<path fill="none" stroke="black" d="M1022.33,-503.52C975.34,-493.58 916.35,-481.1 867.66,-470.81"/>
<polygon fill="black" stroke="black" points="868.47,-467.4 857.96,-468.76 867.02,-474.25 868.47,-467.4"/>
</g>
<!-- libsource&#45;highlight.so.4&#45;&gt;libc.so.6 -->
<g id="edge67" class="edge">
<title>libsource&#45;highlight.so.4&#45;&gt;libc.so.6</title>
<path fill="none" stroke="black" d="M1111.93,-503.6C1115.73,-493.38 1120.23,-480.13 1123,-468 1151.66,-342.28 1150.21,-308.71 1158,-180 1158.97,-164.03 1164.7,-158.53 1158,-144 1152.88,-132.89 1144.16,-123.24 1134.84,-115.33"/>
<polygon fill="black" stroke="black" points="1137.06,-112.63 1127.02,-109.23 1132.75,-118.14 1137.06,-112.63"/>
</g>
<!-- libsource&#45;highlight.so.4&#45;&gt;libgcc_s.so.1 -->
<g id="edge68" class="edge">
<title>libsource&#45;highlight.so.4&#45;&gt;libgcc_s.so.1</title>
<path fill="none" stroke="black" d="M1106.1,-503.82C1106.73,-493.45 1107.5,-479.97 1108,-468 1112.05,-372.05 1112.67,-348.03 1114,-252 1114.22,-236 1116.61,-231.79 1114,-216 1112.62,-207.66 1110.1,-198.87 1107.37,-190.89"/>
<polygon fill="black" stroke="black" points="1110.74,-189.89 1104,-181.72 1104.17,-192.31 1110.74,-189.89"/>
</g>
<!-- libsource&#45;highlight.so.4&#45;&gt;libm.so.6 -->
<g id="edge69" class="edge">
<title>libsource&#45;highlight.so.4&#45;&gt;libm.so.6</title>
<path fill="none" stroke="black" d="M1012.02,-515.38C788.61,-500.65 240,-456.57 240,-379 240,-379 240,-379 240,-305 240,-263.68 257.53,-218.62 270.71,-190.58"/>
<polygon fill="black" stroke="black" points="273.79,-192.25 275.01,-181.73 267.49,-189.19 273.79,-192.25"/>
</g>
<!-- libsource&#45;highlight.so.4&#45;&gt;libstdc++.so.6 -->
<g id="edge70" class="edge">
<title>libsource&#45;highlight.so.4&#45;&gt;libstdc++.so.6</title>
<path fill="none" stroke="black" d="M1103.49,-503.66C1099.94,-472 1088.56,-404.07 1054,-360 1015.82,-311.31 952.99,-277.06 906.94,-256.87"/>
<polygon fill="black" stroke="black" points="908.46,-253.72 897.89,-253 905.71,-260.15 908.46,-253.72"/>
</g>
<!-- libstdc++.so.6&#45;&gt;ld&#45;linux&#45;x86&#45;64.so.2 -->
<g id="edge71" class="edge">
<title>libstdc++.so.6&#45;&gt;ld&#45;linux&#45;x86&#45;64.so.2</title>
<path fill="none" stroke="black" d="M813.53,-215.67C734.66,-177.14 544.82,-84.38 456.99,-41.47"/>
<polygon fill="black" stroke="black" points="458.68,-38.4 448.16,-37.16 455.61,-44.69 458.68,-38.4"/>
</g>
<!-- libstdc++.so.6&#45;&gt;libc.so.6 -->
<g id="edge72" class="edge">
<title>libstdc++.so.6&#45;&gt;libc.so.6</title>
<path fill="none" stroke="black" d="M859.23,-215.68C871.96,-195.6 895.53,-162.85 924,-144 961.15,-119.41 1010.27,-105.77 1046.5,-98.51"/>
<polygon fill="black" stroke="black" points="1047.12,-101.96 1056.29,-96.66 1045.82,-95.08 1047.12,-101.96"/>
</g>
<!-- libstdc++.so.6&#45;&gt;libgcc_s.so.1 -->
<g id="edge73" class="edge">
<title>libstdc++.so.6&#45;&gt;libgcc_s.so.1</title>
<path fill="none" stroke="black" d="M910.37,-215.61C947.17,-205.18 993.93,-191.93 1031.31,-181.33"/>
<polygon fill="black" stroke="black" points="1031.96,-184.79 1040.63,-178.69 1030.05,-178.05 1031.96,-184.79"/>
</g>
<!-- libstdc++.so.6&#45;&gt;libm.so.6 -->
<g id="edge74" class="edge">
<title>libstdc++.so.6&#45;&gt;libm.so.6</title>
<path fill="none" stroke="black" d="M787.64,-217.59C784.73,-217.02 781.84,-216.48 779,-216 620.05,-188.91 578.21,-198.22 418,-180 391.44,-176.98 361.96,-173.25 337.51,-170.05"/>
<polygon fill="black" stroke="black" points="338.17,-166.61 327.8,-168.78 337.26,-173.55 338.17,-166.61"/>
</g>
<!-- libz.so.1&#45;&gt;libc.so.6 -->
<g id="edge75" class="edge">
<title>libz.so.1&#45;&gt;libc.so.6</title>
<path fill="none" stroke="black" d="M1582.85,-431.69C1564.65,-405.95 1534,-355.42 1534,-307 1534,-307 1534,-307 1534,-233 1534,-192.03 1540.87,-170.93 1510,-144 1456.68,-97.48 1243.74,-91.09 1145.78,-90.68"/>
<polygon fill="black" stroke="black" points="1145.94,-87.18 1135.93,-90.66 1145.93,-94.18 1145.94,-87.18"/>
</g>
<!-- libicui18n.so.71&#45;&gt;libc.so.6 -->
<g id="edge35" class="edge">
<title>libicui18n.so.71&#45;&gt;libc.so.6</title>
<path fill="none" stroke="black" d="M795.93,-359.66C829.61,-338.17 884.95,-298.63 919,-252 949.47,-210.28 925.43,-180.49 962,-144 984.9,-121.15 1018.87,-107.86 1046.87,-100.3"/>
<polygon fill="black" stroke="black" points="1047.35,-103.79 1056.2,-97.96 1045.65,-97 1047.35,-103.79"/>
</g>
<!-- libicui18n.so.71&#45;&gt;libgcc_s.so.1 -->
<g id="edge36" class="edge">
<title>libicui18n.so.71&#45;&gt;libgcc_s.so.1</title>
<path fill="none" stroke="black" d="M793.64,-359.67C852.4,-321.45 993.17,-229.89 1059.83,-186.53"/>
<polygon fill="black" stroke="black" points="1061.36,-189.7 1067.84,-181.32 1057.55,-183.84 1061.36,-189.7"/>
</g>
<!-- libicui18n.so.71&#45;&gt;libm.so.6 -->
<g id="edge39" class="edge">
<title>libicui18n.so.71&#45;&gt;libm.so.6</title>
<path fill="none" stroke="black" d="M701.58,-377.4C594.74,-376.69 389.22,-369.29 335,-324 314.61,-306.97 297.99,-233.1 290.05,-191.59"/>
<polygon fill="black" stroke="black" points="293.5,-191.01 288.23,-181.82 286.62,-192.29 293.5,-191.01"/>
</g>
<!-- libicui18n.so.71&#45;&gt;libpthread.so.0 -->
<g id="edge40" class="edge">
<title>libicui18n.so.71&#45;&gt;libpthread.so.0</title>
<path fill="none" stroke="black" d="M701.71,-368.5C658.36,-361.01 601.15,-347.5 555,-324 532.79,-312.69 531.33,-303.73 512,-288 500.29,-278.47 487.3,-268.14 475.9,-259.15"/>
<polygon fill="black" stroke="black" points="478.37,-256.64 468.34,-253.21 474.04,-262.14 478.37,-256.64"/>
</g>
<!-- libicui18n.so.71&#45;&gt;libstdc++.so.6 -->
<g id="edge41" class="edge">
<title>libicui18n.so.71&#45;&gt;libstdc++.so.6</title>
<path fill="none" stroke="black" d="M773.61,-359.68C780.93,-341.31 793.62,-311.71 808,-288 813.52,-278.89 820.34,-269.52 826.82,-261.24"/>
<polygon fill="black" stroke="black" points="829.42,-263.59 832.95,-253.6 823.96,-259.21 829.42,-263.59"/>
</g>
<!-- libicui18n.so.71&#45;&gt;libicudata.so.71 -->
<g id="edge37" class="edge">
<title>libicui18n.so.71&#45;&gt;libicudata.so.71</title>
<path fill="none" stroke="black" d="M759.4,-359.59C748.84,-335.4 729.61,-291.36 717.07,-262.65"/>
<polygon fill="black" stroke="black" points="720.29,-261.26 713.08,-253.5 713.87,-264.06 720.29,-261.26"/>
</g>
<!-- libicui18n.so.71&#45;&gt;libicuuc.so.71 -->
<g id="edge38" class="edge">
<title>libicui18n.so.71&#45;&gt;libicuuc.so.71</title>
<path fill="none" stroke="black" d="M730.78,-359.52C711.86,-350.38 688.48,-339.09 668.25,-329.33"/>
<polygon fill="black" stroke="black" points="669.9,-326.24 659.37,-325.04 666.85,-332.54 669.9,-326.24"/>
</g>
<!-- libicuuc.so.71&#45;&gt;ld&#45;linux&#45;x86&#45;64.so.2 -->
<g id="edge42" class="edge">
<title>libicuuc.so.71&#45;&gt;ld&#45;linux&#45;x86&#45;64.so.2</title>
<path fill="none" stroke="black" d="M564.12,-299.56C528.6,-296.22 482.17,-291.86 441,-288 398.33,-284 85.85,-283.68 57,-252 -34.91,-151.07 192.34,-74.05 324.41,-39.3"/>
<polygon fill="black" stroke="black" points="325.05,-42.75 333.85,-36.85 323.29,-35.98 325.05,-42.75"/>
</g>
<!-- libicuuc.so.71&#45;&gt;libc.so.6 -->
<g id="edge43" class="edge">
<title>libicuuc.so.71&#45;&gt;libc.so.6</title>
<path fill="none" stroke="black" d="M613.76,-287.67C605.84,-268.17 597.2,-236.57 613,-216 666.07,-146.93 933.89,-109.23 1046.26,-96.25"/>
<polygon fill="black" stroke="black" points="1046.55,-99.74 1056.09,-95.13 1045.76,-92.78 1046.55,-99.74"/>
</g>
<!-- libicuuc.so.71&#45;&gt;libgcc_s.so.1 -->
<g id="edge44" class="edge">
<title>libicuuc.so.71&#45;&gt;libgcc_s.so.1</title>
<path fill="none" stroke="black" d="M618.02,-287.62C614.54,-267.48 612.56,-234.68 631,-216 658.58,-188.06 909.54,-172.1 1030.88,-165.96"/>
<polygon fill="black" stroke="black" points="1030.88,-169.46 1040.7,-165.47 1030.53,-162.47 1030.88,-169.46"/>
</g>
<!-- libicuuc.so.71&#45;&gt;libm.so.6 -->
<g id="edge46" class="edge">
<title>libicuuc.so.71&#45;&gt;libm.so.6</title>
<path fill="none" stroke="black" d="M601.66,-287.72C571.57,-262.18 518.46,-217.23 516,-216 458.71,-187.48 385.77,-174.05 337.34,-167.9"/>
<polygon fill="black" stroke="black" points="338.04,-164.46 327.69,-166.74 337.2,-171.41 338.04,-164.46"/>
</g>
<!-- libicuuc.so.71&#45;&gt;libpthread.so.0 -->
<g id="edge47" class="edge">
<title>libicuuc.so.71&#45;&gt;libpthread.so.0</title>
<path fill="none" stroke="black" d="M577.79,-287.52C554.05,-278.13 524.58,-266.47 499.43,-256.53"/>
<polygon fill="black" stroke="black" points="500.94,-253.36 490.36,-252.94 498.37,-259.87 500.94,-253.36"/>
</g>
<!-- libicuuc.so.71&#45;&gt;libstdc++.so.6 -->
<g id="edge48" class="edge">
<title>libicuuc.so.71&#45;&gt;libstdc++.so.6</title>
<path fill="none" stroke="black" d="M678.7,-287.52C709.96,-277.88 748.98,-265.84 781.77,-255.73"/>
<polygon fill="black" stroke="black" points="782.66,-259.12 791.19,-252.83 780.6,-252.43 782.66,-259.12"/>
</g>
<!-- libicuuc.so.71&#45;&gt;libicudata.so.71 -->
<g id="edge45" class="edge">
<title>libicuuc.so.71&#45;&gt;libicudata.so.71</title>
<path fill="none" stroke="black" d="M642.52,-287.7C652.59,-279.2 664.91,-268.81 675.93,-259.51"/>
<polygon fill="black" stroke="black" points="677.89,-262.45 683.27,-253.32 673.37,-257.09 677.89,-262.45"/>
</g>
<!-- librt.so.1&#45;&gt;libc.so.6 -->
<g id="edge65" class="edge">
<title>librt.so.1&#45;&gt;libc.so.6</title>
<path fill="none" stroke="black" d="M1002.96,-359.64C999.03,-319.1 993.97,-216.22 1033,-144 1038.98,-132.93 1048.3,-123.2 1057.96,-115.21"/>
<polygon fill="black" stroke="black" points="1059.85,-118.17 1065.63,-109.29 1055.58,-112.62 1059.85,-118.17"/>
</g>
</g>
</svg>
