<?xml version="1.0" encoding="UTF-8" standalone="no"?>
<!DOCTYPE svg PUBLIC "-//W3C//DTD SVG 1.1//EN"
 "http://www.w3.org/Graphics/SVG/1.1/DTD/svg11.dtd">
<!-- Generated by graphviz version 12.2.0 (0)
 -->
<!-- Pages: 1 -->
<svg width="214pt" height="191pt"
 viewBox="0.00 0.00 213.62 191.00" xmlns="http://www.w3.org/2000/svg" xmlns:xlink="http://www.w3.org/1999/xlink">
<g id="graph0" class="graph" transform="scale(1 1) rotate(0) translate(4 187)">
<polygon fill="white" stroke="none" points="-4,4 -4,-187 209.62,-187 209.62,4 -4,4"/>
<!-- main -->
<g id="node1" class="node">
<title>main</title>
<polygon fill="none" stroke="black" points="75.62,-146.5 75.62,-182.5 129.62,-182.5 129.62,-146.5 75.62,-146.5"/>
<text text-anchor="middle" x="102.25" y="-159.82" font-family="Times,serif" font-size="14.00">main</text>
</g>
<!-- libone.so.1 -->
<g id="node4" class="node">
<title>libone.so.1</title>
<polygon fill="none" stroke="black" points="0,-73.5 0,-109.5 93.25,-109.5 93.25,-73.5 0,-73.5"/>
<text text-anchor="middle" x="46.62" y="-86.83" font-family="Times,serif" font-size="14.00">libone.so.1</text>
</g>
<!-- main&#45;&gt;libone.so.1 -->
<g id="edge1" class="edge">
<title>main&#45;&gt;libone.so.1</title>
<path fill="none" stroke="black" d="M89.07,-146.31C82.47,-137.94 74.39,-127.7 67.06,-118.4"/>
<polygon fill="black" stroke="black" points="69.93,-116.4 60.99,-110.72 64.44,-120.74 69.93,-116.4"/>
</g>
<!-- libtwo.so.1 -->
<g id="node5" class="node">
<title>libtwo.so.1</title>
<polygon fill="none" stroke="black" points="111.62,-73.5 111.62,-109.5 205.62,-109.5 205.62,-73.5 111.62,-73.5"/>
<text text-anchor="middle" x="158.62" y="-86.83" font-family="Times,serif" font-size="14.00">libtwo.so.1</text>
</g>
<!-- main&#45;&gt;libtwo.so.1 -->
<g id="edge2" class="edge">
<title>main&#45;&gt;libtwo.so.1</title>
<path fill="none" stroke="black" d="M116.18,-146.31C122.78,-137.94 130.86,-127.7 138.19,-118.4"/>
<polygon fill="black" stroke="black" points="140.81,-120.74 144.26,-110.72 135.32,-116.4 140.81,-120.74"/>
</g>
<!-- libfoo.so.5 -->
<g id="node2" class="node">
<title>libfoo.so.5</title>
<polygon fill="lightgreen" stroke="black" points="1.88,-0.5 1.88,-36.5 91.38,-36.5 91.38,-0.5 1.88,-0.5"/>
<text text-anchor="middle" x="46.62" y="-13.82" font-family="Times,serif" font-size="14.00">libfoo.so.5</text>
</g>
<!-- libfoo.so.6 -->
<g id="node3" class="node">
<title>libfoo.so.6</title>
<polygon fill="lightgreen" stroke="black" points="111.88,-0.5 111.88,-36.5 201.38,-36.5 201.38,-0.5 111.88,-0.5"/>
<text text-anchor="middle" x="156.62" y="-13.82" font-family="Times,serif" font-size="14.00">libfoo.so.6</text>
</g>
<!-- libone.so.1&#45;&gt;libfoo.so.5 -->
<!-- libone.so.1&#45;&gt;libfoo.so.6 -->
<g id="edge3" class="edge">
<title>libone.so.1&#45;&gt;libfoo.so.6</title>
<path fill="none" stroke="green" d="M73.53,-73.13C87.52,-64.11 104.81,-52.94 120,-43.14"/>
<polygon fill="green" stroke="green" points="121.84,-46.12 128.34,-37.76 118.04,-40.24 121.84,-46.12"/>
</g>
<!-- libtwo.so.1&#45;&gt;libfoo.so.6 -->
<g id="edge5" class="edge">
<title>libtwo.so.1&#45;&gt;libfoo.so.6</title>
<path fill="none" stroke="green" d="M158.14,-73.31C157.92,-65.64 157.66,-56.39 157.42,-47.74"/>
<polygon fill="green" stroke="green" points="160.93,-47.94 157.15,-38.04 153.93,-48.14 160.93,-47.94"/>
</g>
</g>
</svg>
