<?xml version="1.0" encoding="UTF-8" standalone="no"?>
<!DOCTYPE svg PUBLIC "-//W3C//DTD SVG 1.1//EN"
 "http://www.w3.org/Graphics/SVG/1.1/DTD/svg11.dtd">
<!-- Generated by graphviz version 7.0.2 (0)
 -->
<!-- Pages: 1 -->
<svg width="724pt" height="207pt"
 viewBox="0.00 0.00 724.00 207.00" xmlns="http://www.w3.org/2000/svg" xmlns:xlink="http://www.w3.org/1999/xlink">
<g id="graph0" class="graph" transform="scale(1 1) rotate(0) translate(4 203)">
<polygon fill="white" stroke="none" points="-4,4 -4,-203 720,-203 720,4 -4,4"/>
<!-- strip -->
<g id="node1" class="node">
<title>strip</title>
<polygon fill="none" stroke="black" points="16,-162.5 16,-198.5 70,-198.5 70,-162.5 16,-162.5"/>
<text text-anchor="middle" x="43" y="-176.8" font-family="Times,serif" font-size="14.00">strip</text>
</g>
<!-- strip&#45;2.38 -->
<g id="node2" class="node">
<title>strip&#45;2.38</title>
<polygon fill="none" stroke="black" points="0,-74.5 0,-110.5 86,-110.5 86,-74.5 0,-74.5"/>
<text text-anchor="middle" x="43" y="-88.8" font-family="Times,serif" font-size="14.00">strip&#45;2.38</text>
</g>
<!-- strip&#45;&gt;strip&#45;2.38 -->
<g id="edge1" class="edge">
<title>strip&#45;&gt;strip&#45;2.38</title>
<path fill="none" stroke="black" d="M43,-162.51C43,-150.85 43,-135.1 43,-121.59"/>
<polygon fill="black" stroke="black" points="46.5,-121.97 43,-111.97 39.5,-121.97 46.5,-121.97"/>
<text text-anchor="middle" x="71" y="-132.8" font-family="Times,serif" font-size="14.00">symlink</text>
</g>
<!-- .../binutils/.../2.38/libbfd&#45;2.38.so -->
<g id="node3" class="node">
<title>.../binutils/.../2.38/libbfd&#45;2.38.so</title>
<polygon fill="none" stroke="black" points="14.5,-0.5 14.5,-36.5 259.5,-36.5 259.5,-0.5 14.5,-0.5"/>
<text text-anchor="middle" x="137" y="-14.8" font-family="Times,serif" font-size="14.00">.../binutils/.../2.38/libbfd&#45;2.38.so</text>
</g>
<!-- strip&#45;2.38&#45;&gt;.../binutils/.../2.38/libbfd&#45;2.38.so -->
<g id="edge2" class="edge">
<title>strip&#45;2.38&#45;&gt;.../binutils/.../2.38/libbfd&#45;2.38.so</title>
<path fill="none" stroke="black" d="M64.8,-74.8C77.05,-65.42 92.55,-53.55 106.04,-43.22"/>
<polygon fill="black" stroke="black" points="107.98,-46.14 113.79,-37.28 103.72,-40.58 107.98,-46.14"/>
</g>
<!-- ld&#45;2.38 -->
<g id="node4" class="node">
<title>ld&#45;2.38</title>
<polygon fill="none" stroke="black" points="104,-74.5 104,-110.5 170,-110.5 170,-74.5 104,-74.5"/>
<text text-anchor="middle" x="137" y="-88.8" font-family="Times,serif" font-size="14.00">ld&#45;2.38</text>
</g>
<!-- ld&#45;2.38&#45;&gt;.../binutils/.../2.38/libbfd&#45;2.38.so -->
<g id="edge3" class="edge">
<title>ld&#45;2.38&#45;&gt;.../binutils/.../2.38/libbfd&#45;2.38.so</title>
<path fill="none" stroke="black" d="M137,-74.8C137,-66.71 137,-56.78 137,-47.57"/>
<polygon fill="black" stroke="black" points="140.5,-47.62 137,-37.62 133.5,-47.62 140.5,-47.62"/>
</g>
<!-- ... -->
<g id="node5" class="node">
<title>...</title>
<polygon fill="none" stroke="black" points="188,-74.5 188,-110.5 242,-110.5 242,-74.5 188,-74.5"/>
<text text-anchor="middle" x="215" y="-88.8" font-family="Times,serif" font-size="14.00">...</text>
</g>
<!-- ...&#45;&gt;.../binutils/.../2.38/libbfd&#45;2.38.so -->
<g id="edge4" class="edge">
<title>...&#45;&gt;.../binutils/.../2.38/libbfd&#45;2.38.so</title>
<path fill="none" stroke="black" d="M196.91,-74.8C187.04,-65.69 174.63,-54.23 163.67,-44.12"/>
<polygon fill="black" stroke="black" points="166.1,-41.6 156.38,-37.38 161.35,-46.74 166.1,-41.6"/>
</g>
<!-- ld&#45;2.37 -->
<g id="node6" class="node">
<title>ld&#45;2.37</title>
<polygon fill="none" stroke="black" points="311,-162.5 311,-198.5 377,-198.5 377,-162.5 311,-162.5"/>
<text text-anchor="middle" x="344" y="-176.8" font-family="Times,serif" font-size="14.00">ld&#45;2.37</text>
</g>
<!-- .../binutils/.../2.37/libbfd&#45;2.37.so -->
<g id="node7" class="node">
<title>.../binutils/.../2.37/libbfd&#45;2.37.so</title>
<polygon fill="none" stroke="black" points="260.5,-74.5 260.5,-110.5 505.5,-110.5 505.5,-74.5 260.5,-74.5"/>
<text text-anchor="middle" x="383" y="-88.8" font-family="Times,serif" font-size="14.00">.../binutils/.../2.37/libbfd&#45;2.37.so</text>
</g>
<!-- ld&#45;2.37&#45;&gt;.../binutils/.../2.37/libbfd&#45;2.37.so -->
<g id="edge5" class="edge">
<title>ld&#45;2.37&#45;&gt;.../binutils/.../2.37/libbfd&#45;2.37.so</title>
<path fill="none" stroke="black" d="M351.71,-162.51C357.1,-150.61 364.42,-134.46 370.63,-120.77"/>
<polygon fill="black" stroke="black" points="373.74,-122.39 374.69,-111.83 367.37,-119.5 373.74,-122.39"/>
</g>
<!-- ...  -->
<g id="node8" class="node">
<title>... </title>
<polygon fill="none" stroke="black" points="395,-162.5 395,-198.5 449,-198.5 449,-162.5 395,-162.5"/>
<text text-anchor="middle" x="422" y="-176.8" font-family="Times,serif" font-size="14.00">... </text>
</g>
<!-- ... &#45;&gt;.../binutils/.../2.37/libbfd&#45;2.37.so -->
<g id="edge6" class="edge">
<title>... &#45;&gt;.../binutils/.../2.37/libbfd&#45;2.37.so</title>
<path fill="none" stroke="black" d="M414.29,-162.51C408.9,-150.61 401.58,-134.46 395.37,-120.77"/>
<polygon fill="black" stroke="black" points="398.63,-119.5 391.31,-111.83 392.26,-122.39 398.63,-119.5"/>
</g>
<!-- perf -->
<g id="node9" class="node">
<title>perf</title>
<polygon fill="none" stroke="black" points="518,-162.5 518,-198.5 572,-198.5 572,-162.5 518,-162.5"/>
<text text-anchor="middle" x="545" y="-176.8" font-family="Times,serif" font-size="14.00">perf</text>
</g>
<!-- /usr/lib64/libbfd&#45;2.38.so -->
<g id="node10" class="node">
<title>/usr/lib64/libbfd&#45;2.38.so</title>
<polygon fill="none" stroke="black" points="523.5,-74.5 523.5,-110.5 710.5,-110.5 710.5,-74.5 523.5,-74.5"/>
<text text-anchor="middle" x="617" y="-88.8" font-family="Times,serif" font-size="14.00">/usr/lib64/libbfd&#45;2.38.so</text>
</g>
<!-- perf&#45;&gt;/usr/lib64/libbfd&#45;2.38.so -->
<g id="edge7" class="edge">
<title>perf&#45;&gt;/usr/lib64/libbfd&#45;2.38.so</title>
<path fill="none" stroke="black" d="M559.22,-162.51C569.58,-150.14 583.78,-133.18 595.52,-119.16"/>
<polygon fill="black" stroke="black" points="598.1,-121.53 601.83,-111.62 592.73,-117.04 598.1,-121.53"/>
</g>
<!-- ghc -->
<g id="node11" class="node">
<title>ghc</title>
<polygon fill="none" stroke="black" points="590,-162.5 590,-198.5 644,-198.5 644,-162.5 590,-162.5"/>
<text text-anchor="middle" x="617" y="-176.8" font-family="Times,serif" font-size="14.00">ghc</text>
</g>
<!-- ghc&#45;&gt;/usr/lib64/libbfd&#45;2.38.so -->
<g id="edge8" class="edge">
<title>ghc&#45;&gt;/usr/lib64/libbfd&#45;2.38.so</title>
<path fill="none" stroke="black" d="M617,-162.51C617,-150.85 617,-135.1 617,-121.59"/>
<polygon fill="black" stroke="black" points="620.5,-121.97 617,-111.97 613.5,-121.97 620.5,-121.97"/>
</g>
<!-- ... &#160; -->
<g id="node12" class="node">
<title>... &#160;</title>
<polygon fill="none" stroke="black" points="662,-162.5 662,-198.5 716,-198.5 716,-162.5 662,-162.5"/>
<text text-anchor="middle" x="689" y="-176.8" font-family="Times,serif" font-size="14.00">... &#160;</text>
</g>
<!-- ... &#160;&#45;&gt;/usr/lib64/libbfd&#45;2.38.so -->
<g id="edge9" class="edge">
<title>... &#160;&#45;&gt;/usr/lib64/libbfd&#45;2.38.so</title>
<path fill="none" stroke="black" d="M674.78,-162.51C664.42,-150.14 650.22,-133.18 638.48,-119.16"/>
<polygon fill="black" stroke="black" points="641.27,-117.04 632.17,-111.62 635.9,-121.53 641.27,-117.04"/>
</g>
</g>
</svg>
