<?xml version="1.0" encoding="UTF-8" standalone="no"?>
<!DOCTYPE svg PUBLIC "-//W3C//DTD SVG 1.1//EN"
 "http://www.w3.org/Graphics/SVG/1.1/DTD/svg11.dtd">
<!-- Generated by graphviz version 12.1.0 (0)
 -->
<!-- Title: D Pages: 1 -->
<svg width="214pt" height="230pt"
 viewBox="0.00 0.00 214.25 229.62" xmlns="http://www.w3.org/2000/svg" xmlns:xlink="http://www.w3.org/1999/xlink">
<g id="graph0" class="graph" transform="scale(1 1) rotate(0) translate(4 225.62)">
<title>D</title>
<polygon fill="white" stroke="none" points="-4,4 -4,-225.62 210.25,-225.62 210.25,4 -4,4"/>
<!-- a -->
<g id="node1" class="node">
<title>a</title>
<polygon fill="yellow" stroke="none" points="42.62,-172.81 42.62,-196.06 57.62,-196.06 57.62,-172.81 42.62,-172.81"/>
<polygon fill="none" stroke="black" points="42.62,-172.81 42.62,-196.06 57.62,-196.06 57.62,-172.81 42.62,-172.81"/>
<text text-anchor="start" x="45.62" y="-179.76" font-family="Times,serif" font-size="14.00">0</text>
<polygon fill="yellow" stroke="none" points="59.62,-172.81 59.62,-196.06 74.62,-196.06 74.62,-172.81 59.62,-172.81"/>
<polygon fill="none" stroke="black" points="59.62,-172.81 59.62,-196.06 74.62,-196.06 74.62,-172.81 59.62,-172.81"/>
<text text-anchor="start" x="62.62" y="-179.76" font-family="Times,serif" font-size="14.00">1</text>
<polygon fill="yellow" stroke="none" points="76.62,-172.81 76.62,-196.06 96.12,-196.06 96.12,-172.81 76.62,-172.81"/>
<polygon fill="none" stroke="black" points="76.62,-172.81 76.62,-196.06 96.12,-196.06 96.12,-172.81 76.62,-172.81"/>
<text text-anchor="start" x="79.62" y="-179.76" font-family="Times,serif" font-size="14.00">...</text>
<polygon fill="green" stroke="none" points="98.12,-172.81 98.12,-196.06 108.62,-196.06 108.62,-172.81 98.12,-172.81"/>
<polygon fill="none" stroke="black" points="98.12,-172.81 98.12,-196.06 108.62,-196.06 108.62,-172.81 98.12,-172.81"/>
<text text-anchor="start" x="101.12" y="-179.76" font-family="Times,serif" font-size="14.00">i</text>
<polygon fill="yellow" stroke="none" points="110.62,-172.81 110.62,-196.06 130.12,-196.06 130.12,-172.81 110.62,-172.81"/>
<polygon fill="none" stroke="black" points="110.62,-172.81 110.62,-196.06 130.12,-196.06 130.12,-172.81 110.62,-172.81"/>
<text text-anchor="start" x="113.62" y="-179.76" font-family="Times,serif" font-size="14.00">...</text>
<polygon fill="yellow" stroke="none" points="132.12,-172.81 132.12,-196.06 163.62,-196.06 163.62,-172.81 132.12,-172.81"/>
<polygon fill="none" stroke="black" points="132.12,-172.81 132.12,-196.06 163.62,-196.06 163.62,-172.81 132.12,-172.81"/>
<text text-anchor="start" x="135.12" y="-179.76" font-family="Times,serif" font-size="14.00">N&#45;1</text>
<polygon fill="none" stroke="black" points="39.62,-169.81 39.62,-199.06 166.62,-199.06 166.62,-169.81 39.62,-169.81"/>
</g>
<!-- a&#45;&gt;a -->
<g id="edge1" class="edge">
<title>a:s&#45;&gt;a:s</title>
<path fill="none" stroke="black" d="M103.38,-172.81C112.38,-160.42 112.38,-147.25 76.75,-147.25 51.14,-147.25 43.94,-154.05 45.26,-162.48"/>
<polygon fill="black" stroke="black" points="42.05,-163.89 49.48,-171.44 48.39,-160.91 42.05,-163.89"/>
</g>
<!-- a&#45;&gt;a -->
<g id="edge2" class="edge">
<title>a:s&#45;&gt;a:s</title>
<path fill="none" stroke="black" d="M103.38,-172.81C112.38,-160.42 112.38,-147.25 85.25,-147.25 65.75,-147.25 60.27,-154.05 62.07,-162.48"/>
<polygon fill="black" stroke="black" points="58.92,-164.01 66.46,-171.45 65.21,-160.93 58.92,-164.01"/>
</g>
<!-- a&#45;&gt;a -->
<g id="edge3" class="edge">
<title>a:s&#45;&gt;a:s</title>
<path fill="none" stroke="black" d="M103.38,-172.81C112.38,-160.42 112.38,-147.25 94.88,-147.25 82.16,-147.25 78.68,-154.2 81.18,-162.76"/>
<polygon fill="black" stroke="black" points="77.98,-164.19 85.68,-171.47 84.2,-160.98 77.98,-164.19"/>
</g>
<!-- a&#45;&gt;a -->
<g id="edge4" class="edge">
<title>a:n&#45;&gt;a:n</title>
<path fill="none" stroke="black" d="M103.38,-196.06C112.38,-208.46 112.38,-221.62 103.38,-221.62 96.84,-221.62 95.05,-214.67 98.01,-206.12"/>
<polygon fill="black" stroke="black" points="101.04,-207.87 102.66,-197.4 94.87,-204.57 101.04,-207.87"/>
</g>
<!-- a&#45;&gt;a -->
<g id="edge5" class="edge">
<title>a:s&#45;&gt;a:s</title>
<path fill="none" stroke="black" d="M103.38,-172.81C94.38,-160.42 94.38,-147.25 111.88,-147.25 124.59,-147.25 128.07,-154.2 125.57,-162.76"/>
<polygon fill="black" stroke="black" points="122.55,-160.98 121.07,-171.47 128.77,-164.19 122.55,-160.98"/>
</g>
<!-- a&#45;&gt;a -->
<g id="edge6" class="edge">
<title>a:s&#45;&gt;a:s</title>
<path fill="none" stroke="black" d="M103.38,-172.81C94.38,-160.42 94.38,-147.25 125.62,-147.25 148.09,-147.25 154.4,-154.05 152.84,-162.48"/>
<polygon fill="black" stroke="black" points="149.71,-160.92 148.53,-171.45 156.02,-163.95 149.71,-160.92"/>
<text text-anchor="middle" x="103.12" y="-133.95" font-family="Times,serif" font-size="14.00">On each iteration swap an</text>
<text text-anchor="middle" x="103.12" y="-116.7" font-family="Times,serif" font-size="14.00">element with 1/N probability</text>
</g>
<!-- b -->
<g id="node2" class="node">
<title>b</title>
<polygon fill="yellow" stroke="none" points="26.38,-25.56 26.38,-48.81 41.38,-48.81 41.38,-25.56 26.38,-25.56"/>
<polygon fill="none" stroke="black" points="26.38,-25.56 26.38,-48.81 41.38,-48.81 41.38,-25.56 26.38,-25.56"/>
<text text-anchor="start" x="29.38" y="-32.51" font-family="Times,serif" font-size="14.00">0</text>
<polygon fill="yellow" stroke="none" points="43.38,-25.56 43.38,-48.81 62.88,-48.81 62.88,-25.56 43.38,-25.56"/>
<polygon fill="none" stroke="black" points="43.38,-25.56 43.38,-48.81 62.88,-48.81 62.88,-25.56 43.38,-25.56"/>
<text text-anchor="start" x="46.38" y="-32.51" font-family="Times,serif" font-size="14.00">...</text>
<polygon fill="yellow" stroke="none" points="64.88,-25.56 64.88,-48.81 75.38,-48.81 75.38,-25.56 64.88,-25.56"/>
<polygon fill="none" stroke="black" points="64.88,-25.56 64.88,-48.81 75.38,-48.81 75.38,-25.56 64.88,-25.56"/>
<text text-anchor="start" x="67.88" y="-32.51" font-family="Times,serif" font-size="14.00">i</text>
<polygon fill="green" stroke="none" points="77.38,-25.56 77.38,-48.81 108.88,-48.81 108.88,-25.56 77.38,-25.56"/>
<polygon fill="none" stroke="black" points="77.38,-25.56 77.38,-48.81 108.88,-48.81 108.88,-25.56 77.38,-25.56"/>
<text text-anchor="start" x="80.38" y="-32.51" font-family="Times,serif" font-size="14.00">i+1</text>
<polygon fill="yellow" stroke="none" points="110.88,-25.56 110.88,-48.81 130.38,-48.81 130.38,-25.56 110.88,-25.56"/>
<polygon fill="none" stroke="black" points="110.88,-25.56 110.88,-48.81 130.38,-48.81 130.38,-25.56 110.88,-25.56"/>
<text text-anchor="start" x="113.88" y="-32.51" font-family="Times,serif" font-size="14.00">...</text>
<polygon fill="yellow" stroke="none" points="132.38,-25.56 132.38,-48.81 163.88,-48.81 163.88,-25.56 132.38,-25.56"/>
<polygon fill="none" stroke="black" points="132.38,-25.56 132.38,-48.81 163.88,-48.81 163.88,-25.56 132.38,-25.56"/>
<text text-anchor="start" x="135.38" y="-32.51" font-family="Times,serif" font-size="14.00">N&#45;1</text>
<polygon fill="none" stroke="black" points="23.38,-22.56 23.38,-51.81 166.88,-51.81 166.88,-22.56 23.38,-22.56"/>
</g>
<!-- a&#45;&gt;b -->
<g id="edge15" class="edge">
<title>a&#45;&gt;b</title>
<path fill="none" stroke="black" stroke-dasharray="1,5" d="M102.16,-165.92C100.81,-141.38 98.34,-96.48 96.71,-66.99"/>
<polygon fill="black" stroke="black" points="100.22,-67.07 96.18,-57.28 93.23,-67.46 100.22,-67.07"/>
</g>
<!-- x -->
<!-- a&#45;&gt;x -->
<!-- b&#45;&gt;b -->
<g id="edge7" class="edge">
<title>b:s&#45;&gt;b:s</title>
<path fill="none" stroke="black" d="M93.12,-25.56C102.12,-13.17 102.12,0 63.5,0 35.74,0 27.93,-6.8 29.08,-15.23"/>
<polygon fill="black" stroke="black" points="25.85,-16.59 33.24,-24.19 32.2,-13.65 25.85,-16.59"/>
</g>
<!-- b&#45;&gt;b -->
<g id="edge8" class="edge">
<title>b:s&#45;&gt;b:s</title>
<path fill="none" stroke="black" d="M93.12,-25.56C102.12,-13.17 102.12,0 73.12,0 52.28,0 46.42,-6.8 48.11,-15.23"/>
<polygon fill="black" stroke="black" points="44.95,-16.73 52.46,-24.2 51.25,-13.68 44.95,-16.73"/>
</g>
<!-- b&#45;&gt;b -->
<g id="edge9" class="edge">
<title>b:s&#45;&gt;b:s</title>
<path fill="none" stroke="black" d="M93.12,-25.56C102.12,-13.17 102.12,0 81.62,0 66.73,0 62.66,-6.95 65,-15.51"/>
<polygon fill="black" stroke="black" points="61.78,-16.9 69.44,-24.21 68.01,-13.72 61.78,-16.9"/>
</g>
<!-- b&#45;&gt;b -->
<g id="edge10" class="edge">
<title>b:n&#45;&gt;b:n</title>
<path fill="none" stroke="black" d="M93.12,-48.81C102.12,-61.21 102.12,-74.38 93.12,-74.38 86.59,-74.38 84.8,-67.42 87.76,-58.87"/>
<polygon fill="black" stroke="black" points="90.79,-60.62 92.41,-50.15 84.62,-57.32 90.79,-60.62"/>
</g>
<!-- b&#45;&gt;b -->
<g id="edge11" class="edge">
<title>b:s&#45;&gt;b:s</title>
<path fill="none" stroke="black" d="M93.12,-25.56C84.12,-13.17 84.12,0 106.88,0 123.4,0 127.92,-6.95 125.71,-15.51"/>
<polygon fill="black" stroke="black" points="122.7,-13.71 121.31,-24.21 128.94,-16.87 122.7,-13.71"/>
</g>
<!-- b&#45;&gt;b -->
<g id="edge12" class="edge">
<title>b:s&#45;&gt;b:s</title>
<path fill="none" stroke="black" d="M93.12,-25.56C84.12,-13.17 84.12,0 120.62,0 146.86,0 154.24,-6.8 152.97,-15.23"/>
<polygon fill="black" stroke="black" points="149.85,-13.65 148.77,-24.19 156.18,-16.63 149.85,-13.65"/>
</g>
<!-- x&#45;&gt;b -->
</g>
</svg>
