<?xml version="1.0" encoding="UTF-8" standalone="no"?>
<!DOCTYPE svg PUBLIC "-//W3C//DTD SVG 1.1//EN"
 "http://www.w3.org/Graphics/SVG/1.1/DTD/svg11.dtd">
<!-- Generated by graphviz version 12.2.1 (0)
 -->
<!-- Title: G Pages: 1 -->
<svg width="169pt" height="475pt"
 viewBox="0.00 0.00 168.50 474.75" xmlns="http://www.w3.org/2000/svg" xmlns:xlink="http://www.w3.org/1999/xlink">
<g id="graph0" class="graph" transform="scale(1 1) rotate(0) translate(4 470.75)">
<title>G</title>
<polygon fill="white" stroke="none" points="-4,4 -4,-470.75 164.5,-470.75 164.5,4 -4,4"/>
<!-- init -->
<g id="node1" class="node">
<title>init</title>
<polygon fill="none" stroke="black" points="22.5,-390.5 22.5,-466.25 138,-466.25 138,-390.5 22.5,-390.5"/>
<text text-anchor="middle" x="41.75" y="-448.95" font-family="Times,serif" font-size="14.00">1/1</text>
<polyline fill="none" stroke="black" points="22.5,-441 61,-441"/>
<text text-anchor="middle" x="41.75" y="-423.7" font-family="Times,serif" font-size="14.00">0/1</text>
<polyline fill="none" stroke="black" points="22.5,-415.75 61,-415.75"/>
<text text-anchor="middle" x="41.75" y="-398.45" font-family="Times,serif" font-size="14.00">0/1</text>
<polyline fill="none" stroke="black" points="61,-390.5 61,-466.25"/>
<text text-anchor="middle" x="80.25" y="-448.95" font-family="Times,serif" font-size="14.00">0/1</text>
<polyline fill="none" stroke="black" points="61,-441 99.5,-441"/>
<text text-anchor="middle" x="80.25" y="-423.7" font-family="Times,serif" font-size="14.00">1/1</text>
<polyline fill="none" stroke="black" points="61,-415.75 99.5,-415.75"/>
<text text-anchor="middle" x="80.25" y="-398.45" font-family="Times,serif" font-size="14.00">0/1</text>
<polyline fill="none" stroke="black" points="99.5,-390.5 99.5,-466.25"/>
<text text-anchor="middle" x="118.75" y="-448.95" font-family="Times,serif" font-size="14.00">0/1</text>
<polyline fill="none" stroke="black" points="99.5,-441 138,-441"/>
<text text-anchor="middle" x="118.75" y="-423.7" font-family="Times,serif" font-size="14.00">0/1</text>
<polyline fill="none" stroke="black" points="99.5,-415.75 138,-415.75"/>
<text text-anchor="middle" x="118.75" y="-398.45" font-family="Times,serif" font-size="14.00">1/1</text>
</g>
<!-- i1 -->
<g id="node2" class="node">
<title>i1</title>
<polygon fill="none" stroke="black" points="22.5,-260.5 22.5,-336.25 138,-336.25 138,-260.5 22.5,-260.5"/>
<text text-anchor="middle" x="41.75" y="-318.95" font-family="Times,serif" font-size="14.00">1/3</text>
<polyline fill="none" stroke="black" points="22.5,-311 61,-311"/>
<text text-anchor="middle" x="41.75" y="-293.7" font-family="Times,serif" font-size="14.00">1/3</text>
<polyline fill="none" stroke="black" points="22.5,-285.75 61,-285.75"/>
<text text-anchor="middle" x="41.75" y="-268.45" font-family="Times,serif" font-size="14.00">1/3</text>
<polyline fill="none" stroke="black" points="61,-260.5 61,-336.25"/>
<text text-anchor="middle" x="80.25" y="-318.95" font-family="Times,serif" font-size="14.00">1/3</text>
<polyline fill="none" stroke="black" points="61,-311 99.5,-311"/>
<text text-anchor="middle" x="80.25" y="-293.7" font-family="Times,serif" font-size="14.00">2/3</text>
<polyline fill="none" stroke="black" points="61,-285.75 99.5,-285.75"/>
<text text-anchor="middle" x="80.25" y="-268.45" font-family="Times,serif" font-size="14.00">0/3</text>
<polyline fill="none" stroke="black" points="99.5,-260.5 99.5,-336.25"/>
<text text-anchor="middle" x="118.75" y="-318.95" font-family="Times,serif" font-size="14.00">1/3</text>
<polyline fill="none" stroke="black" points="99.5,-311 138,-311"/>
<text text-anchor="middle" x="118.75" y="-293.7" font-family="Times,serif" font-size="14.00">2/3</text>
<polyline fill="none" stroke="black" points="99.5,-285.75 138,-285.75"/>
<text text-anchor="middle" x="118.75" y="-268.45" font-family="Times,serif" font-size="14.00">0/3</text>
</g>
<!-- init&#45;&gt;i1 -->
<g id="edge1" class="edge">
<title>init&#45;&gt;i1</title>
<path fill="none" stroke="black" d="M80.25,-390.01C80.25,-376.86 80.25,-361.9 80.25,-347.96"/>
<polygon fill="black" stroke="black" points="83.75,-348.08 80.25,-338.08 76.75,-348.08 83.75,-348.08"/>
<text text-anchor="middle" x="93" y="-358.7" font-family="Times,serif" font-size="14.00">i=1</text>
</g>
<!-- i2 -->
<g id="node3" class="node">
<title>i2</title>
<polygon fill="none" stroke="black" points="22.5,-130.5 22.5,-206.25 138,-206.25 138,-130.5 22.5,-130.5"/>
<text text-anchor="middle" x="41.75" y="-188.95" font-family="Times,serif" font-size="14.00">3/9</text>
<polyline fill="none" stroke="black" points="22.5,-181 61,-181"/>
<text text-anchor="middle" x="41.75" y="-163.7" font-family="Times,serif" font-size="14.00">4/9</text>
<polyline fill="none" stroke="black" points="22.5,-155.75 61,-155.75"/>
<text text-anchor="middle" x="41.75" y="-138.45" font-family="Times,serif" font-size="14.00">2/9</text>
<polyline fill="none" stroke="black" points="61,-130.5 61,-206.25"/>
<text text-anchor="middle" x="80.25" y="-188.95" font-family="Times,serif" font-size="14.00">3/9</text>
<polyline fill="none" stroke="black" points="61,-181 99.5,-181"/>
<text text-anchor="middle" x="80.25" y="-163.7" font-family="Times,serif" font-size="14.00">3/9</text>
<polyline fill="none" stroke="black" points="61,-155.75 99.5,-155.75"/>
<text text-anchor="middle" x="80.25" y="-138.45" font-family="Times,serif" font-size="14.00">3/9</text>
<polyline fill="none" stroke="black" points="99.5,-130.5 99.5,-206.25"/>
<text text-anchor="middle" x="118.75" y="-188.95" font-family="Times,serif" font-size="14.00">3/9</text>
<polyline fill="none" stroke="black" points="99.5,-181 138,-181"/>
<text text-anchor="middle" x="118.75" y="-163.7" font-family="Times,serif" font-size="14.00">2/9</text>
<polyline fill="none" stroke="black" points="99.5,-155.75 138,-155.75"/>
<text text-anchor="middle" x="118.75" y="-138.45" font-family="Times,serif" font-size="14.00">4/9</text>
</g>
<!-- i1&#45;&gt;i2 -->
<g id="edge2" class="edge">
<title>i1&#45;&gt;i2</title>
<path fill="none" stroke="black" d="M80.25,-260.01C80.25,-246.86 80.25,-231.9 80.25,-217.96"/>
<polygon fill="black" stroke="black" points="83.75,-218.08 80.25,-208.08 76.75,-218.08 83.75,-218.08"/>
<text text-anchor="middle" x="93" y="-228.7" font-family="Times,serif" font-size="14.00">i=2</text>
</g>
<!-- i3 -->
<g id="node4" class="node">
<title>i3</title>
<polygon fill="none" stroke="black" points="0,-0.5 0,-76.25 160.5,-76.25 160.5,-0.5 0,-0.5"/>
<text text-anchor="middle" x="28.25" y="-58.95" font-family="Times,serif" font-size="14.00">9/27</text>
<polyline fill="none" stroke="black" points="0,-51 56.5,-51"/>
<text text-anchor="middle" x="28.25" y="-33.7" font-family="Times,serif" font-size="14.00">10/27</text>
<polyline fill="none" stroke="black" points="0,-25.75 56.5,-25.75"/>
<text text-anchor="middle" x="28.25" y="-8.45" font-family="Times,serif" font-size="14.00">8/27</text>
<polyline fill="none" stroke="black" points="56.5,-0.5 56.5,-76.25"/>
<text text-anchor="middle" x="84.75" y="-58.95" font-family="Times,serif" font-size="14.00">9/27</text>
<polyline fill="none" stroke="black" points="56.5,-51 113,-51"/>
<text text-anchor="middle" x="84.75" y="-33.7" font-family="Times,serif" font-size="14.00">8/27</text>
<polyline fill="none" stroke="black" points="56.5,-25.75 113,-25.75"/>
<text text-anchor="middle" x="84.75" y="-8.45" font-family="Times,serif" font-size="14.00">10/27</text>
<polyline fill="none" stroke="black" points="113,-0.5 113,-76.25"/>
<text text-anchor="middle" x="136.75" y="-58.95" font-family="Times,serif" font-size="14.00">9/27</text>
<polyline fill="none" stroke="black" points="113,-51 160.5,-51"/>
<text text-anchor="middle" x="136.75" y="-33.7" font-family="Times,serif" font-size="14.00">9/27</text>
<polyline fill="none" stroke="black" points="113,-25.75 160.5,-25.75"/>
<text text-anchor="middle" x="136.75" y="-8.45" font-family="Times,serif" font-size="14.00">9/27</text>
</g>
<!-- i2&#45;&gt;i3 -->
<g id="edge3" class="edge">
<title>i2&#45;&gt;i3</title>
<path fill="none" stroke="black" d="M80.25,-130.01C80.25,-116.86 80.25,-101.9 80.25,-87.96"/>
<polygon fill="black" stroke="black" points="83.75,-88.08 80.25,-78.08 76.75,-88.08 83.75,-88.08"/>
<text text-anchor="middle" x="93" y="-98.7" font-family="Times,serif" font-size="14.00">i=3</text>
</g>
</g>
</svg>
