<?xml version="1.0" encoding="UTF-8" standalone="no"?>
<!DOCTYPE svg PUBLIC "-//W3C//DTD SVG 1.1//EN"
 "http://www.w3.org/Graphics/SVG/1.1/DTD/svg11.dtd">
<!-- Generated by graphviz version 10.0.1 (0)
 -->
<!-- Title: G Pages: 1 -->
<svg width="124pt" height="345pt"
 viewBox="0.00 0.00 123.50 344.75" xmlns="http://www.w3.org/2000/svg" xmlns:xlink="http://www.w3.org/1999/xlink">
<g id="graph0" class="graph" transform="scale(1 1) rotate(0) translate(4 340.75)">
<title>G</title>
<polygon fill="white" stroke="none" points="-4,4 -4,-340.75 119.5,-340.75 119.5,4 -4,4"/>
<!-- init -->
<g id="node1" class="node">
<title>init</title>
<polygon fill="none" stroke="black" points="0,-260.5 0,-336.25 115.5,-336.25 115.5,-260.5 0,-260.5"/>
<text text-anchor="middle" x="19.25" y="-318.95" font-family="Times,serif" font-size="14.00">1/1</text>
<polyline fill="none" stroke="black" points="0,-311 38.5,-311"/>
<text text-anchor="middle" x="19.25" y="-293.7" font-family="Times,serif" font-size="14.00">0/1</text>
<polyline fill="none" stroke="black" points="0,-285.75 38.5,-285.75"/>
<text text-anchor="middle" x="19.25" y="-268.45" font-family="Times,serif" font-size="14.00">0/1</text>
<polyline fill="none" stroke="black" points="38.5,-260.5 38.5,-336.25"/>
<text text-anchor="middle" x="57.75" y="-318.95" font-family="Times,serif" font-size="14.00">0/1</text>
<polyline fill="none" stroke="black" points="38.5,-311 77,-311"/>
<text text-anchor="middle" x="57.75" y="-293.7" font-family="Times,serif" font-size="14.00">1/1</text>
<polyline fill="none" stroke="black" points="38.5,-285.75 77,-285.75"/>
<text text-anchor="middle" x="57.75" y="-268.45" font-family="Times,serif" font-size="14.00">0/1</text>
<polyline fill="none" stroke="black" points="77,-260.5 77,-336.25"/>
<text text-anchor="middle" x="96.25" y="-318.95" font-family="Times,serif" font-size="14.00">0/1</text>
<polyline fill="none" stroke="black" points="77,-311 115.5,-311"/>
<text text-anchor="middle" x="96.25" y="-293.7" font-family="Times,serif" font-size="14.00">0/1</text>
<polyline fill="none" stroke="black" points="77,-285.75 115.5,-285.75"/>
<text text-anchor="middle" x="96.25" y="-268.45" font-family="Times,serif" font-size="14.00">1/1</text>
</g>
<!-- i2 -->
<g id="node2" class="node">
<title>i2</title>
<polygon fill="none" stroke="black" points="0,-130.5 0,-206.25 115.5,-206.25 115.5,-130.5 0,-130.5"/>
<text text-anchor="middle" x="19.25" y="-188.95" font-family="Times,serif" font-size="14.00">2/3</text>
<polyline fill="none" stroke="black" points="0,-181 38.5,-181"/>
<text text-anchor="middle" x="19.25" y="-163.7" font-family="Times,serif" font-size="14.00">0/3</text>
<polyline fill="none" stroke="black" points="0,-155.75 38.5,-155.75"/>
<text text-anchor="middle" x="19.25" y="-138.45" font-family="Times,serif" font-size="14.00">1/3</text>
<polyline fill="none" stroke="black" points="38.5,-130.5 38.5,-206.25"/>
<text text-anchor="middle" x="57.75" y="-188.95" font-family="Times,serif" font-size="14.00">0/3</text>
<polyline fill="none" stroke="black" points="38.5,-181 77,-181"/>
<text text-anchor="middle" x="57.75" y="-163.7" font-family="Times,serif" font-size="14.00">2/3</text>
<polyline fill="none" stroke="black" points="38.5,-155.75 77,-155.75"/>
<text text-anchor="middle" x="57.75" y="-138.45" font-family="Times,serif" font-size="14.00">1/3</text>
<polyline fill="none" stroke="black" points="77,-130.5 77,-206.25"/>
<text text-anchor="middle" x="96.25" y="-188.95" font-family="Times,serif" font-size="14.00">1/3</text>
<polyline fill="none" stroke="black" points="77,-181 115.5,-181"/>
<text text-anchor="middle" x="96.25" y="-163.7" font-family="Times,serif" font-size="14.00">1/3</text>
<polyline fill="none" stroke="black" points="77,-155.75 115.5,-155.75"/>
<text text-anchor="middle" x="96.25" y="-138.45" font-family="Times,serif" font-size="14.00">1/3</text>
</g>
<!-- init&#45;&gt;i2 -->
<g id="edge1" class="edge">
<title>init&#45;&gt;i2</title>
<path fill="none" stroke="black" d="M57.75,-260.01C57.75,-246.86 57.75,-231.9 57.75,-217.96"/>
<polygon fill="black" stroke="black" points="61.25,-218.08 57.75,-208.08 54.25,-218.08 61.25,-218.08"/>
<text text-anchor="middle" x="70.5" y="-228.7" font-family="Times,serif" font-size="14.00">i=2</text>
</g>
<!-- i1 -->
<g id="node3" class="node">
<title>i1</title>
<polygon fill="none" stroke="black" points="0,-0.5 0,-76.25 115.5,-76.25 115.5,-0.5 0,-0.5"/>
<text text-anchor="middle" x="19.25" y="-58.95" font-family="Times,serif" font-size="14.00">1/3</text>
<polyline fill="none" stroke="black" points="0,-51 38.5,-51"/>
<text text-anchor="middle" x="19.25" y="-33.7" font-family="Times,serif" font-size="14.00">1/3</text>
<polyline fill="none" stroke="black" points="0,-25.75 38.5,-25.75"/>
<text text-anchor="middle" x="19.25" y="-8.45" font-family="Times,serif" font-size="14.00">1/3</text>
<polyline fill="none" stroke="black" points="38.5,-0.5 38.5,-76.25"/>
<text text-anchor="middle" x="57.75" y="-58.95" font-family="Times,serif" font-size="14.00">1/3</text>
<polyline fill="none" stroke="black" points="38.5,-51 77,-51"/>
<text text-anchor="middle" x="57.75" y="-33.7" font-family="Times,serif" font-size="14.00">1/3</text>
<polyline fill="none" stroke="black" points="38.5,-25.75 77,-25.75"/>
<text text-anchor="middle" x="57.75" y="-8.45" font-family="Times,serif" font-size="14.00">1/3</text>
<polyline fill="none" stroke="black" points="77,-0.5 77,-76.25"/>
<text text-anchor="middle" x="96.25" y="-58.95" font-family="Times,serif" font-size="14.00">1/3</text>
<polyline fill="none" stroke="black" points="77,-51 115.5,-51"/>
<text text-anchor="middle" x="96.25" y="-33.7" font-family="Times,serif" font-size="14.00">1/3</text>
<polyline fill="none" stroke="black" points="77,-25.75 115.5,-25.75"/>
<text text-anchor="middle" x="96.25" y="-8.45" font-family="Times,serif" font-size="14.00">1/3</text>
</g>
<!-- i2&#45;&gt;i1 -->
<g id="edge2" class="edge">
<title>i2&#45;&gt;i1</title>
<path fill="none" stroke="black" d="M57.75,-130.01C57.75,-116.86 57.75,-101.9 57.75,-87.96"/>
<polygon fill="black" stroke="black" points="61.25,-88.08 57.75,-78.08 54.25,-88.08 61.25,-88.08"/>
<text text-anchor="middle" x="70.5" y="-98.7" font-family="Times,serif" font-size="14.00">i=1</text>
</g>
</g>
</svg>
