<?xml version="1.0" encoding="UTF-8" standalone="no"?>
<!DOCTYPE svg PUBLIC "-//W3C//DTD SVG 1.1//EN"
 "http://www.w3.org/Graphics/SVG/1.1/DTD/svg11.dtd">
<!-- Generated by graphviz version 10.0.1 (0)
 -->
<!-- Title: D Pages: 1 -->
<svg width="214pt" height="230pt"
 viewBox="0.00 0.00 214.25 229.62" xmlns="http://www.w3.org/2000/svg" xmlns:xlink="http://www.w3.org/1999/xlink">
<g id="graph0" class="graph" transform="scale(1 1) rotate(0) translate(4 225.62)">
<title>D</title>
<polygon fill="white" stroke="none" points="-4,4 -4,-225.62 210.25,-225.62 210.25,4 -4,4"/>
<!-- a -->
<g id="node1" class="node">
<title>a</title>
<polygon fill="yellow" stroke="none" points="42.62,-172.81 42.62,-196.06 57.62,-196.06 57.62,-172.81 42.62,-172.81"/>
<polygon fill="none" stroke="black" points="42.62,-172.81 42.62,-196.06 57.62,-196.06 57.62,-172.81 42.62,-172.81"/>
<text text-anchor="start" x="45.62" y="-179.76" font-family="Times,serif" font-size="14.00">0</text>
<polygon fill="yellow" stroke="none" points="59.62,-172.81 59.62,-196.06 74.62,-196.06 74.62,-172.81 59.62,-172.81"/>
<polygon fill="none" stroke="black" points="59.62,-172.81 59.62,-196.06 74.62,-196.06 74.62,-172.81 59.62,-172.81"/>
<text text-anchor="start" x="62.62" y="-179.76" font-family="Times,serif" font-size="14.00">1</text>
<polygon fill="yellow" stroke="none" points="76.62,-172.81 76.62,-196.06 96.12,-196.06 96.12,-172.81 76.62,-172.81"/>
<polygon fill="none" stroke="black" points="76.62,-172.81 76.62,-196.06 96.12,-196.06 96.12,-172.81 76.62,-172.81"/>
<text text-anchor="start" x="79.62" y="-179.76" font-family="Times,serif" font-size="14.00">...</text>
<polygon fill="green" stroke="none" points="98.12,-172.81 98.12,-196.06 108.62,-196.06 108.62,-172.81 98.12,-172.81"/>
<polygon fill="none" stroke="black" points="98.12,-172.81 98.12,-196.06 108.62,-196.06 108.62,-172.81 98.12,-172.81"/>
<text text-anchor="start" x="101.12" y="-179.76" font-family="Times,serif" font-size="14.00">i</text>
<polygon fill="yellow" stroke="none" points="110.62,-172.81 110.62,-196.06 130.12,-196.06 130.12,-172.81 110.62,-172.81"/>
<polygon fill="none" stroke="black" points="110.62,-172.81 110.62,-196.06 130.12,-196.06 130.12,-172.81 110.62,-172.81"/>
<text text-anchor="start" x="113.62" y="-179.76" font-family="Times,serif" font-size="14.00">...</text>
<polygon fill="yellow" stroke="none" points="132.12,-172.81 132.12,-196.06 163.62,-196.06 163.62,-172.81 132.12,-172.81"/>
<polygon fill="none" stroke="black" points="132.12,-172.81 132.12,-196.06 163.62,-196.06 163.62,-172.81 132.12,-172.81"/>
<text text-anchor="start" x="135.12" y="-179.76" font-family="Times,serif" font-size="14.00">N&#45;1</text>
<polygon fill="none" stroke="black" points="39.62,-169.81 39.62,-199.06 166.62,-199.06 166.62,-169.81 39.62,-169.81"/>
</g>
<!-- a&#45;&gt;a -->
<g id="edge1" class="edge">
<title>a:s&#45;&gt;a:s</title>
<path fill="none" stroke="black" d="M103.12,-172.44C112.12,-160.04 112.12,-147.25 76.62,-147.25 51.11,-147.25 43.93,-153.86 45.26,-162.18"/>
<polygon fill="black" stroke="black" points="42.03,-163.54 49.48,-171.07 48.35,-160.54 42.03,-163.54"/>
</g>
<!-- a&#45;&gt;a -->
<g id="edge2" class="edge">
<title>a:s&#45;&gt;a:s</title>
<path fill="none" stroke="black" d="M103.12,-172.44C112.12,-160.04 112.12,-147.25 85.12,-147.25 65.72,-147.25 60.26,-153.86 62.07,-162.18"/>
<polygon fill="black" stroke="black" points="58.89,-163.66 66.46,-171.08 65.17,-160.56 58.89,-163.66"/>
</g>
<!-- a&#45;&gt;a -->
<g id="edge3" class="edge">
<title>a:s&#45;&gt;a:s</title>
<path fill="none" stroke="black" d="M103.12,-172.44C112.12,-160.04 112.12,-147.25 94.62,-147.25 81.91,-147.25 78.43,-154 80.93,-162.45"/>
<polygon fill="black" stroke="black" points="77.71,-163.84 85.43,-171.09 83.92,-160.61 77.71,-163.84"/>
</g>
<!-- a&#45;&gt;a -->
<g id="edge4" class="edge">
<title>a:n&#45;&gt;a:n</title>
<path fill="none" stroke="black" d="M103.12,-196.44C112.12,-208.83 112.12,-221.62 103.12,-221.62 96.59,-221.62 94.8,-214.87 97.76,-206.43"/>
<polygon fill="black" stroke="black" points="100.76,-208.24 102.41,-197.77 94.59,-204.92 100.76,-208.24"/>
</g>
<!-- a&#45;&gt;a -->
<g id="edge5" class="edge">
<title>a:s&#45;&gt;a:s</title>
<path fill="none" stroke="black" d="M103.12,-172.44C94.12,-160.04 94.12,-147.25 111.62,-147.25 124.34,-147.25 127.82,-154 125.32,-162.45"/>
<polygon fill="black" stroke="black" points="122.33,-160.61 120.82,-171.09 128.54,-163.84 122.33,-160.61"/>
</g>
<!-- a&#45;&gt;a -->
<g id="edge6" class="edge">
<title>a:s&#45;&gt;a:s</title>
<path fill="none" stroke="black" d="M103.12,-172.44C94.12,-160.04 94.12,-147.25 125.62,-147.25 148.27,-147.25 154.63,-153.86 153.08,-162.18"/>
<polygon fill="black" stroke="black" points="149.98,-160.55 148.78,-171.07 156.29,-163.59 149.98,-160.55"/>
<text text-anchor="middle" x="103.12" y="-133.95" font-family="Times,serif" font-size="14.00">On each iteration swap an</text>
<text text-anchor="middle" x="103.12" y="-116.7" font-family="Times,serif" font-size="14.00">element with 1/N probability</text>
</g>
<!-- b -->
<g id="node2" class="node">
<title>b</title>
<polygon fill="yellow" stroke="none" points="26.38,-25.56 26.38,-48.81 41.38,-48.81 41.38,-25.56 26.38,-25.56"/>
<polygon fill="none" stroke="black" points="26.38,-25.56 26.38,-48.81 41.38,-48.81 41.38,-25.56 26.38,-25.56"/>
<text text-anchor="start" x="29.38" y="-32.51" font-family="Times,serif" font-size="14.00">0</text>
<polygon fill="yellow" stroke="none" points="43.38,-25.56 43.38,-48.81 62.88,-48.81 62.88,-25.56 43.38,-25.56"/>
<polygon fill="none" stroke="black" points="43.38,-25.56 43.38,-48.81 62.88,-48.81 62.88,-25.56 43.38,-25.56"/>
<text text-anchor="start" x="46.38" y="-32.51" font-family="Times,serif" font-size="14.00">...</text>
<polygon fill="yellow" stroke="none" points="64.88,-25.56 64.88,-48.81 75.38,-48.81 75.38,-25.56 64.88,-25.56"/>
<polygon fill="none" stroke="black" points="64.88,-25.56 64.88,-48.81 75.38,-48.81 75.38,-25.56 64.88,-25.56"/>
<text text-anchor="start" x="67.88" y="-32.51" font-family="Times,serif" font-size="14.00">i</text>
<polygon fill="green" stroke="none" points="77.38,-25.56 77.38,-48.81 108.88,-48.81 108.88,-25.56 77.38,-25.56"/>
<polygon fill="none" stroke="black" points="77.38,-25.56 77.38,-48.81 108.88,-48.81 108.88,-25.56 77.38,-25.56"/>
<text text-anchor="start" x="80.38" y="-32.51" font-family="Times,serif" font-size="14.00">i+1</text>
<polygon fill="yellow" stroke="none" points="110.88,-25.56 110.88,-48.81 130.38,-48.81 130.38,-25.56 110.88,-25.56"/>
<polygon fill="none" stroke="black" points="110.88,-25.56 110.88,-48.81 130.38,-48.81 130.38,-25.56 110.88,-25.56"/>
<text text-anchor="start" x="113.88" y="-32.51" font-family="Times,serif" font-size="14.00">...</text>
<polygon fill="yellow" stroke="none" points="132.38,-25.56 132.38,-48.81 163.88,-48.81 163.88,-25.56 132.38,-25.56"/>
<polygon fill="none" stroke="black" points="132.38,-25.56 132.38,-48.81 163.88,-48.81 163.88,-25.56 132.38,-25.56"/>
<text text-anchor="start" x="135.38" y="-32.51" font-family="Times,serif" font-size="14.00">N&#45;1</text>
<polygon fill="none" stroke="black" points="23.38,-22.56 23.38,-51.81 166.88,-51.81 166.88,-22.56 23.38,-22.56"/>
</g>
<!-- a&#45;&gt;b -->
<g id="edge15" class="edge">
<title>a&#45;&gt;b</title>
<path fill="none" stroke="black" stroke-dasharray="1,5" d="M102.16,-165.92C100.81,-141.38 98.34,-96.48 96.71,-66.99"/>
<polygon fill="black" stroke="black" points="100.22,-67.07 96.18,-57.28 93.23,-67.46 100.22,-67.07"/>
</g>
<!-- x -->
<!-- a&#45;&gt;x -->
<!-- b&#45;&gt;b -->
<g id="edge7" class="edge">
<title>b:s&#45;&gt;b:s</title>
<path fill="none" stroke="black" d="M93.12,-25.19C102.12,-12.79 102.12,0 63.62,0 35.95,0 28.17,-6.61 29.32,-14.93"/>
<polygon fill="black" stroke="black" points="26.07,-16.24 33.48,-23.82 32.41,-13.28 26.07,-16.24"/>
</g>
<!-- b&#45;&gt;b -->
<g id="edge8" class="edge">
<title>b:s&#45;&gt;b:s</title>
<path fill="none" stroke="black" d="M93.12,-25.19C102.12,-12.79 102.12,0 73.12,0 52.28,0 46.42,-6.61 48.11,-14.93"/>
<polygon fill="black" stroke="black" points="44.93,-16.38 52.46,-23.83 51.21,-13.31 44.93,-16.38"/>
</g>
<!-- b&#45;&gt;b -->
<g id="edge9" class="edge">
<title>b:s&#45;&gt;b:s</title>
<path fill="none" stroke="black" d="M93.12,-25.19C102.12,-12.79 102.12,0 81.62,0 66.89,0 62.75,-6.61 64.92,-14.93"/>
<polygon fill="black" stroke="black" points="61.8,-16.5 69.44,-23.84 68.04,-13.34 61.8,-16.5"/>
</g>
<!-- b&#45;&gt;b -->
<g id="edge10" class="edge">
<title>b:n&#45;&gt;b:n</title>
<path fill="none" stroke="black" d="M93.12,-49.19C102.12,-61.58 102.12,-74.38 93.12,-74.38 86.59,-74.38 84.8,-67.62 87.76,-59.18"/>
<polygon fill="black" stroke="black" points="90.76,-60.99 92.41,-50.52 84.59,-57.67 90.76,-60.99"/>
</g>
<!-- b&#45;&gt;b -->
<g id="edge11" class="edge">
<title>b:s&#45;&gt;b:s</title>
<path fill="none" stroke="black" d="M93.12,-25.19C84.12,-12.79 84.12,0 107.12,0 123.66,0 128.31,-6.61 126.27,-14.93"/>
<polygon fill="black" stroke="black" points="123.16,-13.33 121.8,-23.83 129.42,-16.47 123.16,-13.33"/>
</g>
<!-- b&#45;&gt;b -->
<g id="edge12" class="edge">
<title>b:s&#45;&gt;b:s</title>
<path fill="none" stroke="black" d="M93.12,-25.19C84.12,-12.79 84.12,0 120.62,0 146.86,0 154.24,-6.61 152.97,-14.93"/>
<polygon fill="black" stroke="black" points="149.88,-13.28 148.77,-23.82 156.21,-16.27 149.88,-13.28"/>
</g>
<!-- x&#45;&gt;b -->
</g>
</svg>
