<?xml version="1.0" encoding="UTF-8" standalone="no"?>
<!DOCTYPE svg PUBLIC "-//W3C//DTD SVG 1.1//EN"
 "http://www.w3.org/Graphics/SVG/1.1/DTD/svg11.dtd">
<!-- Generated by graphviz version 10.0.1 (0)
 -->
<!-- Title: D Pages: 1 -->
<svg width="238pt" height="230pt"
 viewBox="0.00 0.00 238.25 229.62" xmlns="http://www.w3.org/2000/svg" xmlns:xlink="http://www.w3.org/1999/xlink">
<g id="graph0" class="graph" transform="scale(1 1) rotate(0) translate(4 225.62)">
<title>D</title>
<polygon fill="white" stroke="none" points="-4,4 -4,-225.62 234.25,-225.62 234.25,4 -4,4"/>
<!-- a -->
<g id="node1" class="node">
<title>a</title>
<polygon fill="yellow" stroke="none" points="46.38,-172.81 46.38,-196.06 61.38,-196.06 61.38,-172.81 46.38,-172.81"/>
<polygon fill="none" stroke="black" points="46.38,-172.81 46.38,-196.06 61.38,-196.06 61.38,-172.81 46.38,-172.81"/>
<text text-anchor="start" x="49.38" y="-179.76" font-family="Times,serif" font-size="14.00">0</text>
<polygon fill="yellow" stroke="none" points="63.38,-172.81 63.38,-196.06 82.88,-196.06 82.88,-172.81 63.38,-172.81"/>
<polygon fill="none" stroke="black" points="63.38,-172.81 63.38,-196.06 82.88,-196.06 82.88,-172.81 63.38,-172.81"/>
<text text-anchor="start" x="66.38" y="-179.76" font-family="Times,serif" font-size="14.00">...</text>
<polygon fill="yellow" stroke="none" points="84.88,-172.81 84.88,-196.06 95.38,-196.06 95.38,-172.81 84.88,-172.81"/>
<polygon fill="none" stroke="black" points="84.88,-172.81 84.88,-196.06 95.38,-196.06 95.38,-172.81 84.88,-172.81"/>
<text text-anchor="start" x="87.88" y="-179.76" font-family="Times,serif" font-size="14.00">i</text>
<polygon fill="green" stroke="none" points="97.38,-172.81 97.38,-196.06 128.88,-196.06 128.88,-172.81 97.38,-172.81"/>
<polygon fill="none" stroke="black" points="97.38,-172.81 97.38,-196.06 128.88,-196.06 128.88,-172.81 97.38,-172.81"/>
<text text-anchor="start" x="100.38" y="-179.76" font-family="Times,serif" font-size="14.00">i+1</text>
<polygon fill="gray" stroke="none" points="130.88,-172.81 130.88,-196.06 150.38,-196.06 150.38,-172.81 130.88,-172.81"/>
<polygon fill="none" stroke="black" points="130.88,-172.81 130.88,-196.06 150.38,-196.06 150.38,-172.81 130.88,-172.81"/>
<text text-anchor="start" x="133.88" y="-179.76" font-family="Times,serif" font-size="14.00">...</text>
<polygon fill="gray" stroke="none" points="152.38,-172.81 152.38,-196.06 183.88,-196.06 183.88,-172.81 152.38,-172.81"/>
<polygon fill="none" stroke="black" points="152.38,-172.81 152.38,-196.06 183.88,-196.06 183.88,-172.81 152.38,-172.81"/>
<text text-anchor="start" x="155.38" y="-179.76" font-family="Times,serif" font-size="14.00">N&#45;1</text>
<polygon fill="none" stroke="black" points="43.38,-169.81 43.38,-199.06 186.88,-199.06 186.88,-169.81 43.38,-169.81"/>
</g>
<!-- a&#45;&gt;a -->
<g id="edge1" class="edge">
<title>a:s&#45;&gt;a:s</title>
<path fill="none" stroke="black" d="M113.12,-172.44C122.12,-160.04 122.12,-147.25 83.62,-147.25 55.95,-147.25 48.17,-153.86 49.32,-162.18"/>
<polygon fill="black" stroke="black" points="46.07,-163.49 53.48,-171.07 52.41,-160.53 46.07,-163.49"/>
</g>
<!-- a&#45;&gt;a -->
<g id="edge2" class="edge">
<title>a:s&#45;&gt;a:s</title>
<path fill="none" stroke="black" d="M113.12,-172.44C122.12,-160.04 122.12,-147.25 93.12,-147.25 72.28,-147.25 66.42,-153.86 68.11,-162.18"/>
<polygon fill="black" stroke="black" points="64.93,-163.63 72.46,-171.08 71.21,-160.56 64.93,-163.63"/>
</g>
<!-- a&#45;&gt;a -->
<g id="edge3" class="edge">
<title>a:s&#45;&gt;a:s</title>
<path fill="none" stroke="black" d="M113.12,-172.44C122.12,-160.04 122.12,-147.25 101.62,-147.25 86.89,-147.25 82.75,-153.86 84.92,-162.18"/>
<polygon fill="black" stroke="black" points="81.8,-163.75 89.44,-171.09 88.04,-160.59 81.8,-163.75"/>
<text text-anchor="middle" x="115.12" y="-133.95" font-family="Times,serif" font-size="14.00">On each iteration swap an</text>
<text text-anchor="middle" x="115.12" y="-116.7" font-family="Times,serif" font-size="14.00">element with 1/(i+1) probability</text>
</g>
<!-- a&#45;&gt;a -->
<g id="edge4" class="edge">
<title>a:n&#45;&gt;a:n</title>
<path fill="none" stroke="black" d="M113.12,-196.44C122.12,-208.83 122.12,-221.62 113.12,-221.62 106.59,-221.62 104.8,-214.87 107.76,-206.43"/>
<polygon fill="black" stroke="black" points="110.76,-208.24 112.41,-197.77 104.59,-204.92 110.76,-208.24"/>
</g>
<!-- b -->
<g id="node2" class="node">
<title>b</title>
<polygon fill="yellow" stroke="none" points="29.88,-25.56 29.88,-48.81 44.88,-48.81 44.88,-25.56 29.88,-25.56"/>
<polygon fill="none" stroke="black" points="29.88,-25.56 29.88,-48.81 44.88,-48.81 44.88,-25.56 29.88,-25.56"/>
<text text-anchor="start" x="32.88" y="-32.51" font-family="Times,serif" font-size="14.00">0</text>
<polygon fill="yellow" stroke="none" points="46.88,-25.56 46.88,-48.81 61.88,-48.81 61.88,-25.56 46.88,-25.56"/>
<polygon fill="none" stroke="black" points="46.88,-25.56 46.88,-48.81 61.88,-48.81 61.88,-25.56 46.88,-25.56"/>
<text text-anchor="start" x="49.88" y="-32.51" font-family="Times,serif" font-size="14.00">1</text>
<polygon fill="yellow" stroke="none" points="63.88,-25.56 63.88,-48.81 83.38,-48.81 83.38,-25.56 63.88,-25.56"/>
<polygon fill="none" stroke="black" points="63.88,-25.56 63.88,-48.81 83.38,-48.81 83.38,-25.56 63.88,-25.56"/>
<text text-anchor="start" x="66.88" y="-32.51" font-family="Times,serif" font-size="14.00">...</text>
<polygon fill="green" stroke="none" points="85.38,-25.56 85.38,-48.81 95.88,-48.81 95.88,-25.56 85.38,-25.56"/>
<polygon fill="none" stroke="black" points="85.38,-25.56 85.38,-48.81 95.88,-48.81 95.88,-25.56 85.38,-25.56"/>
<text text-anchor="start" x="88.38" y="-32.51" font-family="Times,serif" font-size="14.00">i</text>
<polygon fill="gray" stroke="none" points="97.88,-25.56 97.88,-48.81 129.38,-48.81 129.38,-25.56 97.88,-25.56"/>
<polygon fill="none" stroke="black" points="97.88,-25.56 97.88,-48.81 129.38,-48.81 129.38,-25.56 97.88,-25.56"/>
<text text-anchor="start" x="100.88" y="-32.51" font-family="Times,serif" font-size="14.00">i+1</text>
<polygon fill="gray" stroke="none" points="131.38,-25.56 131.38,-48.81 150.88,-48.81 150.88,-25.56 131.38,-25.56"/>
<polygon fill="none" stroke="black" points="131.38,-25.56 131.38,-48.81 150.88,-48.81 150.88,-25.56 131.38,-25.56"/>
<text text-anchor="start" x="134.38" y="-32.51" font-family="Times,serif" font-size="14.00">...</text>
<polygon fill="gray" stroke="none" points="152.88,-25.56 152.88,-48.81 184.38,-48.81 184.38,-25.56 152.88,-25.56"/>
<polygon fill="none" stroke="black" points="152.88,-25.56 152.88,-48.81 184.38,-48.81 184.38,-25.56 152.88,-25.56"/>
<text text-anchor="start" x="155.88" y="-32.51" font-family="Times,serif" font-size="14.00">N&#45;1</text>
<polygon fill="none" stroke="black" points="26.88,-22.56 26.88,-51.81 187.38,-51.81 187.38,-22.56 26.88,-22.56"/>
</g>
<!-- a&#45;&gt;b -->
<g id="edge11" class="edge">
<title>a&#45;&gt;b</title>
<path fill="none" stroke="black" stroke-dasharray="1,5" d="M114.16,-165.92C112.81,-141.38 110.34,-96.48 108.71,-66.99"/>
<polygon fill="black" stroke="black" points="112.22,-67.07 108.18,-57.28 105.23,-67.46 112.22,-67.07"/>
</g>
<!-- x -->
<!-- a&#45;&gt;x -->
<!-- b&#45;&gt;b -->
<g id="edge5" class="edge">
<title>b:s&#45;&gt;b:s</title>
<path fill="none" stroke="black" d="M90.12,-25.19C99.12,-12.79 99.12,0 63.62,0 38.11,0 30.93,-6.61 32.26,-14.93"/>
<polygon fill="black" stroke="black" points="29.03,-16.29 36.48,-23.82 35.35,-13.29 29.03,-16.29"/>
</g>
<!-- b&#45;&gt;b -->
<g id="edge6" class="edge">
<title>b:s&#45;&gt;b:s</title>
<path fill="none" stroke="black" d="M90.12,-25.19C99.12,-12.79 99.12,0 72.12,0 52.72,0 47.26,-6.61 49.07,-14.93"/>
<polygon fill="black" stroke="black" points="45.89,-16.41 53.46,-23.83 52.17,-13.31 45.89,-16.41"/>
</g>
<!-- b&#45;&gt;b -->
<g id="edge7" class="edge">
<title>b:s&#45;&gt;b:s</title>
<path fill="none" stroke="black" d="M90.12,-25.19C99.12,-12.79 99.12,0 81.62,0 68.91,0 65.43,-6.75 67.93,-15.2"/>
<polygon fill="black" stroke="black" points="64.71,-16.59 72.43,-23.84 70.92,-13.36 64.71,-16.59"/>
</g>
<!-- b&#45;&gt;b -->
<g id="edge8" class="edge">
<title>b:n&#45;&gt;b:n</title>
<path fill="none" stroke="black" d="M90.12,-49.19C99.12,-61.58 99.12,-74.38 90.12,-74.38 83.59,-74.38 81.8,-67.62 84.76,-59.18"/>
<polygon fill="black" stroke="black" points="87.76,-60.99 89.41,-50.52 81.59,-57.67 87.76,-60.99"/>
</g>
<!-- x&#45;&gt;b -->
</g>
</svg>
