<?xml version="1.0" encoding="UTF-8" standalone="no"?>
<!DOCTYPE svg PUBLIC "-//W3C//DTD SVG 1.1//EN"
 "http://www.w3.org/Graphics/SVG/1.1/DTD/svg11.dtd">
<!-- Generated by graphviz version 10.0.1 (0)
 -->
<!-- Title: G Pages: 1 -->
<svg width="871pt" height="439pt"
 viewBox="0.00 0.00 871.38 438.50" xmlns="http://www.w3.org/2000/svg" xmlns:xlink="http://www.w3.org/1999/xlink">
<g id="graph0" class="graph" transform="scale(1 1) rotate(0) translate(4 434.5)">
<title>G</title>
<polygon fill="white" stroke="none" points="-4,4 -4,-434.5 867.38,-434.5 867.38,4 -4,4"/>
<!-- sf -->
<g id="node1" class="node">
<title>sf</title>
<polygon fill="none" stroke="black" points="73.38,-387.5 73.38,-430 214.62,-430 214.62,-387.5 73.38,-387.5"/>
<text text-anchor="middle" x="144" y="-412.7" font-family="Times,serif" font-size="14.00">sf:</text>
<text text-anchor="middle" x="144" y="-395.45" font-family="Times,serif" font-size="14.00">2147483648.0 x4</text>
</g>
<!-- overflow_mask -->
<g id="node2" class="node">
<title>overflow_mask</title>
<polygon fill="none" stroke="black" points="103.25,-290.75 103.25,-333.25 420.75,-333.25 420.75,-290.75 103.25,-290.75"/>
<text text-anchor="middle" x="262" y="-315.95" font-family="Times,serif" font-size="14.00">overflow_mask: cmpge(sf, 2147483648.0f)</text>
<text text-anchor="middle" x="262" y="-298.7" font-family="Times,serif" font-size="14.00">0xFFFFffff x4</text>
</g>
<!-- sf&#45;&gt;overflow_mask -->
<g id="edge1" class="edge">
<title>sf&#45;&gt;overflow_mask</title>
<path fill="none" stroke="black" d="M203.03,-387.18C212.7,-382.18 222.12,-376.16 230,-369 237.68,-362.02 244,-352.75 248.93,-343.76"/>
<polygon fill="black" stroke="black" points="252.05,-345.36 253.4,-334.85 245.79,-342.22 252.05,-345.36"/>
<text text-anchor="middle" x="356.12" y="-355.7" font-family="Times,serif" font-size="14.00">1. compare for int32_t overflow</text>
</g>
<!-- conv -->
<g id="node3" class="node">
<title>conv</title>
<polygon fill="none" stroke="black" points="0,-290.75 0,-333.25 54,-333.25 54,-290.75 0,-290.75"/>
<text text-anchor="middle" x="26.75" y="-315.95" font-family="Times,serif" font-size="14.00">conv:</text>
<text text-anchor="middle" x="26.75" y="-298.7" font-family="Times,serif" font-size="14.00">? x4</text>
</g>
<!-- sf&#45;&gt;conv -->
<g id="edge2" class="edge">
<title>sf&#45;&gt;conv</title>
<path fill="none" stroke="black" d="M81.39,-387.06C71.93,-382.13 62.82,-376.16 55.25,-369 47.92,-362.06 42.19,-352.8 37.87,-343.82"/>
<polygon fill="black" stroke="black" points="41.21,-342.72 34.03,-334.93 34.78,-345.5 41.21,-342.72"/>
<text text-anchor="middle" x="143.38" y="-355.7" font-family="Times,serif" font-size="14.00">2. convert float&#45;&gt;int32_t</text>
</g>
<!-- a -->
<g id="node5" class="node">
<title>a</title>
<polygon fill="none" stroke="black" points="418,-194 418,-236.5 626,-236.5 626,-194 418,-194"/>
<text text-anchor="middle" x="522" y="-219.2" font-family="Times,serif" font-size="14.00">a: and(overflow_mask, yes)</text>
<text text-anchor="middle" x="522" y="-201.95" font-family="Times,serif" font-size="14.00">0x7FFFffff x4</text>
</g>
<!-- overflow_mask&#45;&gt;a -->
<g id="edge4" class="edge">
<title>overflow_mask&#45;&gt;a</title>
<path fill="none" stroke="black" d="M420.97,-295.11C452.93,-289.47 480.78,-282.02 494,-272.25 502.29,-266.12 508.29,-256.84 512.54,-247.59"/>
<polygon fill="black" stroke="black" points="515.78,-248.93 516.22,-238.34 509.27,-246.34 515.78,-248.93"/>
<text text-anchor="middle" x="644" y="-258.95" font-family="Times,serif" font-size="14.00">3. leave substutes for overflow values</text>
</g>
<!-- na -->
<g id="node6" class="node">
<title>na</title>
<polygon fill="none" stroke="black" points="109.12,-194 109.12,-236.5 368.88,-236.5 368.88,-194 109.12,-194"/>
<text text-anchor="middle" x="239" y="-219.2" font-family="Times,serif" font-size="14.00">na: and(not(overflow_mask), conv)</text>
<text text-anchor="middle" x="239" y="-201.95" font-family="Times,serif" font-size="14.00">0x00000000 x4</text>
</g>
<!-- overflow_mask&#45;&gt;na -->
<g id="edge6" class="edge">
<title>overflow_mask&#45;&gt;na</title>
<path fill="none" stroke="black" d="M257.01,-290.44C254,-278.02 250.09,-261.94 246.69,-247.93"/>
<polygon fill="black" stroke="black" points="250.1,-247.13 244.34,-238.24 243.3,-248.78 250.1,-247.13"/>
<text text-anchor="middle" x="371.5" y="-258.95" font-family="Times,serif" font-size="14.00">4. remove the overflowing values</text>
</g>
<!-- conv&#45;&gt;na -->
<g id="edge5" class="edge">
<title>conv&#45;&gt;na</title>
<path fill="none" stroke="green" d="M23.87,-290.42C23.29,-278.61 24.83,-264.31 33.5,-255 43.68,-244.08 68.52,-236.17 97.57,-230.47"/>
<polygon fill="green" stroke="green" points="98.19,-233.92 107.39,-228.67 96.92,-227.03 98.19,-233.92"/>
<text text-anchor="middle" x="139.75" y="-258.95" font-family="Times,serif" font-size="14.00">No values shoud survive here</text>
</g>
<!-- actual -->
<g id="node9" class="node">
<title>actual</title>
<polygon fill="none" stroke="black" points="116.38,-0.5 116.38,-43 347.62,-43 347.62,-0.5 116.38,-0.5"/>
<text text-anchor="middle" x="232" y="-25.7" font-family="Times,serif" font-size="14.00">actual: eq(conv_masked, imm)</text>
<text text-anchor="middle" x="232" y="-8.45" font-family="Times,serif" font-size="14.00">? x4</text>
</g>
<!-- conv&#45;&gt;actual -->
<g id="edge10" class="edge">
<title>conv&#45;&gt;actual</title>
<path fill="none" stroke="red" d="M22.48,-290.39C16.83,-259.2 10.74,-199.33 36.25,-158.25 67.91,-107.27 126.62,-70.53 171.52,-48.28"/>
<polygon fill="red" stroke="red" points="172.89,-51.5 180.38,-44 169.85,-45.2 172.89,-51.5"/>
<text text-anchor="middle" x="136.38" y="-162.2" font-family="Times,serif" font-size="14.00">buggy assumed value reuse</text>
</g>
<!-- yes -->
<g id="node4" class="node">
<title>yes</title>
<polygon fill="none" stroke="black" points="750.62,-290.75 750.62,-333.25 863.38,-333.25 863.38,-290.75 750.62,-290.75"/>
<text text-anchor="middle" x="807" y="-315.95" font-family="Times,serif" font-size="14.00">yes:</text>
<text text-anchor="middle" x="807" y="-298.7" font-family="Times,serif" font-size="14.00">0x7FFFffff x4</text>
</g>
<!-- yes&#45;&gt;a -->
<g id="edge3" class="edge">
<title>yes&#45;&gt;a</title>
<path fill="none" stroke="black" d="M803.35,-290.31C800.09,-278.15 794.06,-263.52 783,-255 760.12,-237.37 696.44,-227.7 637.7,-222.43"/>
<polygon fill="black" stroke="black" points="638.19,-218.96 627.93,-221.6 637.6,-225.94 638.19,-218.96"/>
</g>
<!-- conv_masked -->
<g id="node7" class="node">
<title>conv_masked</title>
<polygon fill="none" stroke="black" points="149.25,-97.25 149.25,-139.75 328.75,-139.75 328.75,-97.25 149.25,-97.25"/>
<text text-anchor="middle" x="239" y="-122.45" font-family="Times,serif" font-size="14.00">conv_masked: or(a, na)</text>
<text text-anchor="middle" x="239" y="-105.2" font-family="Times,serif" font-size="14.00">0x7FFFffff x4</text>
</g>
<!-- a&#45;&gt;conv_masked -->
<g id="edge7" class="edge">
<title>a&#45;&gt;conv_masked</title>
<path fill="none" stroke="black" d="M479.75,-193.63C455.14,-182.16 423.27,-168.23 394,-158.25 376.74,-152.36 358.13,-146.95 339.99,-142.14"/>
<polygon fill="black" stroke="black" points="341.11,-138.82 330.55,-139.69 339.35,-145.59 341.11,-138.82"/>
</g>
<!-- na&#45;&gt;conv_masked -->
<g id="edge8" class="edge">
<title>na&#45;&gt;conv_masked</title>
<path fill="none" stroke="black" d="M239,-193.69C239,-181.27 239,-165.19 239,-151.18"/>
<polygon fill="black" stroke="black" points="242.5,-151.53 239,-141.53 235.5,-151.53 242.5,-151.53"/>
<text text-anchor="middle" x="314.38" y="-162.2" font-family="Times,serif" font-size="14.00">5. get the final result</text>
</g>
<!-- conv_masked&#45;&gt;actual -->
<g id="edge11" class="edge">
<title>conv_masked&#45;&gt;actual</title>
<path fill="none" stroke="black" d="M235.48,-97.04C234.59,-91.16 233.76,-84.71 233.25,-78.75 232.59,-70.96 232.22,-62.55 232.02,-54.67"/>
<polygon fill="black" stroke="black" points="235.52,-54.72 231.87,-44.78 228.53,-54.83 235.52,-54.72"/>
<text text-anchor="middle" x="310.88" y="-65.45" font-family="Times,serif" font-size="14.00">6. compare the result</text>
</g>
<!-- imm -->
<g id="node8" class="node">
<title>imm</title>
<polygon fill="none" stroke="black" points="352.62,-97.25 352.62,-139.75 465.38,-139.75 465.38,-97.25 352.62,-97.25"/>
<text text-anchor="middle" x="409" y="-122.45" font-family="Times,serif" font-size="14.00">imm:</text>
<text text-anchor="middle" x="409" y="-105.2" font-family="Times,serif" font-size="14.00">0x7FFFffff x4</text>
</g>
<!-- imm&#45;&gt;actual -->
<g id="edge9" class="edge">
<title>imm&#45;&gt;actual</title>
<path fill="none" stroke="brown" stroke-dasharray="1,5" d="M405.74,-96.94C402.8,-84.98 397.28,-70.53 387,-61.5 378.48,-54.02 368.73,-47.94 358.36,-43"/>
<polygon fill="brown" stroke="brown" points="359.76,-39.79 349.2,-39.04 356.98,-46.22 359.76,-39.79"/>
<text text-anchor="middle" x="526.38" y="-65.45" font-family="Times,serif" font-size="14.00">not used, used &#39;conv&#39; result instead</text>
</g>
</g>
</svg>
