<?xml version="1.0" encoding="UTF-8" standalone="no"?>
<!DOCTYPE svg PUBLIC "-//W3C//DTD SVG 1.1//EN"
 "http://www.w3.org/Graphics/SVG/1.1/DTD/svg11.dtd">
<!-- Generated by graphviz version 10.0.1 (0)
 -->
<!-- Title: G Pages: 1 -->
<svg width="687pt" height="316pt"
 viewBox="0.00 0.00 686.75 315.75" xmlns="http://www.w3.org/2000/svg" xmlns:xlink="http://www.w3.org/1999/xlink">
<g id="graph0" class="graph" transform="scale(1 1) rotate(0) translate(4 311.75)">
<title>G</title>
<polygon fill="white" stroke="none" points="-4,4 -4,-311.75 682.75,-311.75 682.75,4 -4,4"/>
<!-- imm -->
<g id="node1" class="node">
<title>imm</title>
<polygon fill="none" stroke="black" points="216,-271.25 216,-307.25 360,-307.25 360,-271.25 216,-271.25"/>
<text text-anchor="middle" x="287.75" y="-284.57" font-family="Times,serif" font-size="14.00">0x4f000000</text>
</g>
<!-- xmm0 -->
<g id="node2" class="node">
<title>xmm0</title>
<polygon fill="none" stroke="black" points="0,-181 0,-217 576,-217 576,-181 0,-181"/>
<text text-anchor="middle" x="71.75" y="-194.32" font-family="Times,serif" font-size="14.00">0x4f000000</text>
<polyline fill="none" stroke="black" points="143.5,-181 143.5,-217"/>
<text text-anchor="middle" x="215.75" y="-194.32" font-family="Times,serif" font-size="14.00">0x4f000000</text>
<polyline fill="none" stroke="black" points="288,-181 288,-217"/>
<text text-anchor="middle" x="359.75" y="-194.32" font-family="Times,serif" font-size="14.00">0x4f000000</text>
<polyline fill="none" stroke="black" points="431.5,-181 431.5,-217"/>
<text text-anchor="middle" x="503.75" y="-194.32" font-family="Times,serif" font-size="14.00">0x4f000000</text>
</g>
<!-- imm&#45;&gt;xmm0 -->
<g id="edge1" class="edge">
<title>imm&#45;&gt;xmm0:n</title>
<path fill="none" stroke="black" d="M215.77,-278.54C160.59,-269.28 91.35,-253.04 75.39,-228.24"/>
<polygon fill="black" stroke="black" points="78.8,-227.43 72.46,-218.94 72.12,-229.53 78.8,-227.43"/>
</g>
<!-- imm&#45;&gt;xmm0 -->
<g id="edge2" class="edge">
<title>imm&#45;&gt;xmm0:n</title>
<path fill="none" stroke="black" d="M253.69,-270.81C238.26,-260.75 222.41,-246.54 217.53,-228.73"/>
<polygon fill="black" stroke="black" points="221.02,-228.44 216.2,-219 214.08,-229.38 221.02,-228.44"/>
</g>
<!-- imm&#45;&gt;xmm0 -->
<g id="edge3" class="edge">
<title>imm&#45;&gt;xmm0:n</title>
<path fill="none" stroke="black" d="M322.31,-270.81C337.74,-260.75 353.59,-246.54 358.47,-228.73"/>
<polygon fill="black" stroke="black" points="361.92,-229.38 359.8,-219 354.98,-228.44 361.92,-229.38"/>
</g>
<!-- imm&#45;&gt;xmm0 -->
<g id="edge4" class="edge">
<title>imm&#45;&gt;xmm0:n</title>
<path fill="none" stroke="black" d="M360.23,-278.54C415.41,-269.28 484.65,-253.04 500.61,-228.24"/>
<polygon fill="black" stroke="black" points="503.88,-229.53 503.54,-218.94 497.2,-227.43 503.88,-229.53"/>
<text text-anchor="middle" x="581.25" y="-239.45" font-family="Times,serif" font-size="14.00">1. broadcast 0x4f000000</text>
</g>
<!-- xmm1 -->
<g id="node3" class="node">
<title>xmm1</title>
<polygon fill="none" stroke="black" points="0,-90.75 0,-126.75 576,-126.75 576,-90.75 0,-90.75"/>
<text text-anchor="middle" x="71.75" y="-104.08" font-family="Times,serif" font-size="14.00">2147483648.0</text>
<polyline fill="none" stroke="black" points="143.5,-90.75 143.5,-126.75"/>
<text text-anchor="middle" x="215.75" y="-104.08" font-family="Times,serif" font-size="14.00">2147483648.0</text>
<polyline fill="none" stroke="black" points="288,-90.75 288,-126.75"/>
<text text-anchor="middle" x="359.75" y="-104.08" font-family="Times,serif" font-size="14.00">2147483648.0</text>
<polyline fill="none" stroke="black" points="431.5,-90.75 431.5,-126.75"/>
<text text-anchor="middle" x="503.75" y="-104.08" font-family="Times,serif" font-size="14.00">2147483648.0</text>
</g>
<!-- xmm0&#45;&gt;xmm1 -->
<g id="edge5" class="edge">
<title>xmm0:s&#45;&gt;xmm1:n</title>
<path fill="none" stroke="black" d="M72,-180.5C72,-161.09 72,-153.62 72,-138.49"/>
<polygon fill="black" stroke="black" points="75.5,-138.76 72,-128.76 68.5,-138.76 75.5,-138.76"/>
</g>
<!-- xmm0&#45;&gt;xmm1 -->
<g id="edge6" class="edge">
<title>xmm0:s&#45;&gt;xmm1:n</title>
<path fill="none" stroke="black" d="M216,-180.5C216,-161.09 216,-153.62 216,-138.49"/>
<polygon fill="black" stroke="black" points="219.5,-138.76 216,-128.76 212.5,-138.76 219.5,-138.76"/>
</g>
<!-- xmm0&#45;&gt;xmm1 -->
<g id="edge7" class="edge">
<title>xmm0:s&#45;&gt;xmm1:n</title>
<path fill="none" stroke="black" d="M360,-180.5C360,-161.09 360,-153.62 360,-138.49"/>
<polygon fill="black" stroke="black" points="363.5,-138.76 360,-128.76 356.5,-138.76 363.5,-138.76"/>
</g>
<!-- xmm0&#45;&gt;xmm1 -->
<g id="edge8" class="edge">
<title>xmm0:s&#45;&gt;xmm1:n</title>
<path fill="none" stroke="black" d="M504,-180.5C504,-161.09 504,-153.62 504,-138.49"/>
<polygon fill="black" stroke="black" points="507.5,-138.76 504,-128.76 500.5,-138.76 507.5,-138.76"/>
<text text-anchor="middle" x="588.75" y="-149.2" font-family="Times,serif" font-size="14.00">2. bitcast int32_t&#45;&gt;float</text>
</g>
<!-- xmm2 -->
<g id="node4" class="node">
<title>xmm2</title>
<polygon fill="none" stroke="black" points="0,-0.5 0,-36.5 576,-36.5 576,-0.5 0,-0.5"/>
<text text-anchor="middle" x="71.75" y="-13.82" font-family="Times,serif" font-size="14.00">?</text>
<polyline fill="none" stroke="black" points="143.5,-0.5 143.5,-36.5"/>
<text text-anchor="middle" x="215.75" y="-13.82" font-family="Times,serif" font-size="14.00">?</text>
<polyline fill="none" stroke="black" points="288,-0.5 288,-36.5"/>
<text text-anchor="middle" x="359.75" y="-13.82" font-family="Times,serif" font-size="14.00">?</text>
<polyline fill="none" stroke="black" points="431.5,-0.5 431.5,-36.5"/>
<text text-anchor="middle" x="503.75" y="-13.82" font-family="Times,serif" font-size="14.00">?</text>
</g>
<!-- xmm1&#45;&gt;xmm2 -->
<g id="edge9" class="edge">
<title>xmm1:s&#45;&gt;xmm2:n</title>
<path fill="none" stroke="black" d="M72,-90.25C72,-70.84 72,-63.37 72,-48.24"/>
<polygon fill="black" stroke="black" points="75.5,-48.51 72,-38.51 68.5,-48.51 75.5,-48.51"/>
</g>
<!-- xmm1&#45;&gt;xmm2 -->
<g id="edge10" class="edge">
<title>xmm1:s&#45;&gt;xmm2:n</title>
<path fill="none" stroke="black" d="M216,-90.25C216,-70.84 216,-63.37 216,-48.24"/>
<polygon fill="black" stroke="black" points="219.5,-48.51 216,-38.51 212.5,-48.51 219.5,-48.51"/>
</g>
<!-- xmm1&#45;&gt;xmm2 -->
<g id="edge11" class="edge">
<title>xmm1:s&#45;&gt;xmm2:n</title>
<path fill="none" stroke="black" d="M360,-90.25C360,-70.84 360,-63.37 360,-48.24"/>
<polygon fill="black" stroke="black" points="363.5,-48.51 360,-38.51 356.5,-48.51 363.5,-48.51"/>
</g>
<!-- xmm1&#45;&gt;xmm2 -->
<g id="edge12" class="edge">
<title>xmm1:s&#45;&gt;xmm2:n</title>
<path fill="none" stroke="black" d="M504,-90.25C504,-70.84 504,-63.37 504,-48.24"/>
<polygon fill="black" stroke="black" points="507.5,-48.51 504,-38.51 500.5,-48.51 507.5,-48.51"/>
<text text-anchor="middle" x="591.38" y="-58.95" font-family="Times,serif" font-size="14.00">3. convert float&#45;&gt;int32_t</text>
</g>
</g>
</svg>
