<?xml version="1.0" encoding="UTF-8" standalone="no"?>
<!DOCTYPE svg PUBLIC "-//W3C//DTD SVG 1.1//EN"
 "http://www.w3.org/Graphics/SVG/1.1/DTD/svg11.dtd">
<!-- Generated by graphviz version 12.2.0 (0)
 -->
<!-- Title: G Pages: 1 -->
<svg width="687pt" height="316pt"
 viewBox="0.00 0.00 686.50 315.75" xmlns="http://www.w3.org/2000/svg" xmlns:xlink="http://www.w3.org/1999/xlink">
<g id="graph0" class="graph" transform="scale(1 1) rotate(0) translate(4 311.75)">
<title>G</title>
<polygon fill="white" stroke="none" points="-4,4 -4,-311.75 682.5,-311.75 682.5,4 -4,4"/>
<!-- imm -->
<g id="node1" class="node">
<title>imm</title>
<polygon fill="none" stroke="black" points="216,-271.25 216,-307.25 360,-307.25 360,-271.25 216,-271.25"/>
<text text-anchor="middle" x="287.75" y="-284.57" font-family="Times,serif" font-size="14.00">0x4f000000</text>
</g>
<!-- xmm0 -->
<g id="node2" class="node">
<title>xmm0</title>
<polygon fill="none" stroke="black" points="0,-181 0,-217 576,-217 576,-181 0,-181"/>
<text text-anchor="middle" x="71.75" y="-194.32" font-family="Times,serif" font-size="14.00">0x4f000000</text>
<polyline fill="none" stroke="black" points="143.5,-181 143.5,-217"/>
<text text-anchor="middle" x="215.75" y="-194.32" font-family="Times,serif" font-size="14.00">0x4f000000</text>
<polyline fill="none" stroke="black" points="288,-181 288,-217"/>
<text text-anchor="middle" x="359.75" y="-194.32" font-family="Times,serif" font-size="14.00">0x4f000000</text>
<polyline fill="none" stroke="black" points="431.5,-181 431.5,-217"/>
<text text-anchor="middle" x="503.75" y="-194.32" font-family="Times,serif" font-size="14.00">0x4f000000</text>
</g>
<!-- imm&#45;&gt;xmm0 -->
<g id="edge1" class="edge">
<title>imm&#45;&gt;xmm0:n</title>
<path fill="none" stroke="black" d="M215.69,-278.55C160.44,-269.31 91.12,-253.07 75.14,-228.25"/>
<polygon fill="black" stroke="black" points="78.55,-227.43 72.21,-218.94 71.88,-229.53 78.55,-227.43"/>
</g>
<!-- imm&#45;&gt;xmm0 -->
<g id="edge2" class="edge">
<title>imm&#45;&gt;xmm0:n</title>
<path fill="none" stroke="black" d="M253.57,-270.84C238.08,-260.79 222.19,-246.58 217.28,-228.74"/>
<polygon fill="black" stroke="black" points="220.77,-228.44 215.95,-219 213.84,-229.38 220.77,-228.44"/>
</g>
<!-- imm&#45;&gt;xmm0 -->
<g id="edge3" class="edge">
<title>imm&#45;&gt;xmm0:n</title>
<path fill="none" stroke="black" d="M322.19,-270.79C337.57,-260.71 353.36,-246.5 358.23,-228.71"/>
<polygon fill="black" stroke="black" points="361.67,-229.38 359.55,-219 354.73,-228.44 361.67,-229.38"/>
</g>
<!-- imm&#45;&gt;xmm0 -->
<g id="edge4" class="edge">
<title>imm&#45;&gt;xmm0:n</title>
<path fill="none" stroke="black" d="M360.44,-278.47C415.53,-269.2 484.49,-252.95 500.38,-228.21"/>
<polygon fill="black" stroke="black" points="503.63,-229.53 503.3,-218.94 496.95,-227.43 503.63,-229.53"/>
<text text-anchor="middle" x="581.5" y="-239.45" font-family="Times,serif" font-size="14.00">1. broadcast 0x4f000000</text>
</g>
<!-- xmm1 -->
<g id="node3" class="node">
<title>xmm1</title>
<polygon fill="none" stroke="black" points="0,-90.75 0,-126.75 576,-126.75 576,-90.75 0,-90.75"/>
<text text-anchor="middle" x="71.75" y="-104.08" font-family="Times,serif" font-size="14.00">2147483648.0</text>
<polyline fill="none" stroke="black" points="143.5,-90.75 143.5,-126.75"/>
<text text-anchor="middle" x="215.75" y="-104.08" font-family="Times,serif" font-size="14.00">2147483648.0</text>
<polyline fill="none" stroke="black" points="288,-90.75 288,-126.75"/>
<text text-anchor="middle" x="359.75" y="-104.08" font-family="Times,serif" font-size="14.00">2147483648.0</text>
<polyline fill="none" stroke="black" points="431.5,-90.75 431.5,-126.75"/>
<text text-anchor="middle" x="503.75" y="-104.08" font-family="Times,serif" font-size="14.00">2147483648.0</text>
</g>
<!-- xmm0&#45;&gt;xmm1 -->
<g id="edge5" class="edge">
<title>xmm0:s&#45;&gt;xmm1:n</title>
<path fill="none" stroke="black" d="M71.75,-180.5C71.75,-161.09 71.75,-153.62 71.75,-138.49"/>
<polygon fill="black" stroke="black" points="75.25,-138.76 71.75,-128.76 68.25,-138.76 75.25,-138.76"/>
</g>
<!-- xmm0&#45;&gt;xmm1 -->
<g id="edge6" class="edge">
<title>xmm0:s&#45;&gt;xmm1:n</title>
<path fill="none" stroke="black" d="M215.75,-180.5C215.75,-161.09 215.75,-153.62 215.75,-138.49"/>
<polygon fill="black" stroke="black" points="219.25,-138.76 215.75,-128.76 212.25,-138.76 219.25,-138.76"/>
</g>
<!-- xmm0&#45;&gt;xmm1 -->
<g id="edge7" class="edge">
<title>xmm0:s&#45;&gt;xmm1:n</title>
<path fill="none" stroke="black" d="M359.75,-180.5C359.75,-161.09 359.75,-153.62 359.75,-138.49"/>
<polygon fill="black" stroke="black" points="363.25,-138.76 359.75,-128.76 356.25,-138.76 363.25,-138.76"/>
</g>
<!-- xmm0&#45;&gt;xmm1 -->
<g id="edge8" class="edge">
<title>xmm0:s&#45;&gt;xmm1:n</title>
<path fill="none" stroke="black" d="M503.75,-180.5C503.75,-161.09 503.75,-153.62 503.75,-138.49"/>
<polygon fill="black" stroke="black" points="507.25,-138.76 503.75,-128.76 500.25,-138.76 507.25,-138.76"/>
<text text-anchor="middle" x="588.5" y="-149.2" font-family="Times,serif" font-size="14.00">2. bitcast int32_t&#45;&gt;float</text>
</g>
<!-- xmm2 -->
<g id="node4" class="node">
<title>xmm2</title>
<polygon fill="none" stroke="black" points="0,-0.5 0,-36.5 576,-36.5 576,-0.5 0,-0.5"/>
<text text-anchor="middle" x="71.75" y="-13.82" font-family="Times,serif" font-size="14.00">?</text>
<polyline fill="none" stroke="black" points="143.5,-0.5 143.5,-36.5"/>
<text text-anchor="middle" x="215.75" y="-13.82" font-family="Times,serif" font-size="14.00">?</text>
<polyline fill="none" stroke="black" points="288,-0.5 288,-36.5"/>
<text text-anchor="middle" x="359.75" y="-13.82" font-family="Times,serif" font-size="14.00">?</text>
<polyline fill="none" stroke="black" points="431.5,-0.5 431.5,-36.5"/>
<text text-anchor="middle" x="503.75" y="-13.82" font-family="Times,serif" font-size="14.00">?</text>
</g>
<!-- xmm1&#45;&gt;xmm2 -->
<g id="edge9" class="edge">
<title>xmm1:s&#45;&gt;xmm2:n</title>
<path fill="none" stroke="black" d="M71.75,-90.25C71.75,-70.84 71.75,-63.37 71.75,-48.24"/>
<polygon fill="black" stroke="black" points="75.25,-48.51 71.75,-38.51 68.25,-48.51 75.25,-48.51"/>
</g>
<!-- xmm1&#45;&gt;xmm2 -->
<g id="edge10" class="edge">
<title>xmm1:s&#45;&gt;xmm2:n</title>
<path fill="none" stroke="black" d="M215.75,-90.25C215.75,-70.84 215.75,-63.37 215.75,-48.24"/>
<polygon fill="black" stroke="black" points="219.25,-48.51 215.75,-38.51 212.25,-48.51 219.25,-48.51"/>
</g>
<!-- xmm1&#45;&gt;xmm2 -->
<g id="edge11" class="edge">
<title>xmm1:s&#45;&gt;xmm2:n</title>
<path fill="none" stroke="black" d="M359.75,-90.25C359.75,-70.84 359.75,-63.37 359.75,-48.24"/>
<polygon fill="black" stroke="black" points="363.25,-48.51 359.75,-38.51 356.25,-48.51 363.25,-48.51"/>
</g>
<!-- xmm1&#45;&gt;xmm2 -->
<g id="edge12" class="edge">
<title>xmm1:s&#45;&gt;xmm2:n</title>
<path fill="none" stroke="black" d="M503.75,-90.25C503.75,-70.84 503.75,-63.37 503.75,-48.24"/>
<polygon fill="black" stroke="black" points="507.25,-48.51 503.75,-38.51 500.25,-48.51 507.25,-48.51"/>
<text text-anchor="middle" x="591.12" y="-58.95" font-family="Times,serif" font-size="14.00">3. convert float&#45;&gt;int32_t</text>
</g>
</g>
</svg>
