<?xml version="1.0" encoding="UTF-8" standalone="no"?>
<!DOCTYPE svg PUBLIC "-//W3C//DTD SVG 1.1//EN"
 "http://www.w3.org/Graphics/SVG/1.1/DTD/svg11.dtd">
<!-- Generated by graphviz version 12.2.0 (0)
 -->
<!-- Title: G Pages: 1 -->
<svg width="871pt" height="439pt"
 viewBox="0.00 0.00 871.38 438.50" xmlns="http://www.w3.org/2000/svg" xmlns:xlink="http://www.w3.org/1999/xlink">
<g id="graph0" class="graph" transform="scale(1 1) rotate(0) translate(4 434.5)">
<title>G</title>
<polygon fill="white" stroke="none" points="-4,4 -4,-434.5 867.38,-434.5 867.38,4 -4,4"/>
<!-- sf -->
<g id="node1" class="node">
<title>sf</title>
<polygon fill="none" stroke="black" points="73.38,-387.5 73.38,-430 214.62,-430 214.62,-387.5 73.38,-387.5"/>
<text text-anchor="middle" x="144" y="-412.7" font-family="Times,serif" font-size="14.00">sf:</text>
<text text-anchor="middle" x="144" y="-395.45" font-family="Times,serif" font-size="14.00">2147483648.0 x4</text>
</g>
<!-- overflow_mask -->
<g id="node2" class="node">
<title>overflow_mask</title>
<polygon fill="none" stroke="black" points="103.25,-290.75 103.25,-333.25 420.75,-333.25 420.75,-290.75 103.25,-290.75"/>
<text text-anchor="middle" x="262" y="-315.95" font-family="Times,serif" font-size="14.00">overflow_mask: cmpge(sf, 2147483648.0f)</text>
<text text-anchor="middle" x="262" y="-298.7" font-family="Times,serif" font-size="14.00">0xFFFFffff x4</text>
</g>
<!-- sf&#45;&gt;overflow_mask -->
<g id="edge1" class="edge">
<title>sf&#45;&gt;overflow_mask</title>
<path fill="none" stroke="black" d="M203.03,-387.18C212.7,-382.18 222.12,-376.16 230,-369 237.68,-362.02 244,-352.75 248.93,-343.76"/>
<polygon fill="black" stroke="black" points="252.05,-345.36 253.4,-334.85 245.79,-342.22 252.05,-345.36"/>
<text text-anchor="middle" x="355.59" y="-355.7" font-family="Times,serif" font-size="14.00">1. compare for int32_t overflow</text>
</g>
<!-- conv -->
<g id="node3" class="node">
<title>conv</title>
<polygon fill="none" stroke="black" points="0,-290.75 0,-333.25 54,-333.25 54,-290.75 0,-290.75"/>
<text text-anchor="middle" x="26.75" y="-315.95" font-family="Times,serif" font-size="14.00">conv:</text>
<text text-anchor="middle" x="26.75" y="-298.7" font-family="Times,serif" font-size="14.00">? x4</text>
</g>
<!-- sf&#45;&gt;conv -->
<g id="edge2" class="edge">
<title>sf&#45;&gt;conv</title>
<path fill="none" stroke="black" d="M81.39,-387.06C71.93,-382.13 62.82,-376.16 55.25,-369 47.92,-362.06 42.19,-352.8 37.87,-343.82"/>
<polygon fill="black" stroke="black" points="41.21,-342.72 34.03,-334.93 34.78,-345.5 41.21,-342.72"/>
<text text-anchor="middle" x="142.62" y="-355.7" font-family="Times,serif" font-size="14.00">2. convert float&#45;&gt;int32_t</text>
</g>
<!-- a -->
<g id="node5" class="node">
<title>a</title>
<polygon fill="none" stroke="black" points="418,-194 418,-236.5 626,-236.5 626,-194 418,-194"/>
<text text-anchor="middle" x="522" y="-219.2" font-family="Times,serif" font-size="14.00">a: and(overflow_mask, yes)</text>
<text text-anchor="middle" x="522" y="-201.95" font-family="Times,serif" font-size="14.00">0x7FFFffff x4</text>
</g>
<!-- overflow_mask&#45;&gt;a -->
<g id="edge4" class="edge">
<title>overflow_mask&#45;&gt;a</title>
<path fill="none" stroke="black" d="M421.16,-293.47C450.74,-287.98 476.33,-280.99 489,-272.25 498.01,-266.04 504.92,-256.5 510.04,-247.05"/>
<polygon fill="black" stroke="black" points="513.05,-248.88 514.25,-238.35 506.74,-245.83 513.05,-248.88"/>
<text text-anchor="middle" x="639.69" y="-258.95" font-family="Times,serif" font-size="14.00">3. leave substutes for overflow values</text>
</g>
<!-- na -->
<g id="node6" class="node">
<title>na</title>
<polygon fill="none" stroke="black" points="77.12,-194 77.12,-236.5 336.88,-236.5 336.88,-194 77.12,-194"/>
<text text-anchor="middle" x="207" y="-219.2" font-family="Times,serif" font-size="14.00">na: and(not(overflow_mask), conv)</text>
<text text-anchor="middle" x="207" y="-201.95" font-family="Times,serif" font-size="14.00">0x00000000 x4</text>
</g>
<!-- overflow_mask&#45;&gt;na -->
<g id="edge6" class="edge">
<title>overflow_mask&#45;&gt;na</title>
<path fill="none" stroke="black" d="M255.7,-290.28C251.94,-279.38 246.6,-266.02 240,-255 238.09,-251.82 235.92,-248.63 233.63,-245.54"/>
<polygon fill="black" stroke="black" points="236.42,-243.42 227.45,-237.78 230.94,-247.79 236.42,-243.42"/>
<text text-anchor="middle" x="366.75" y="-258.95" font-family="Times,serif" font-size="14.00">4. remove the overflowing values</text>
</g>
<!-- conv&#45;&gt;na -->
<g id="edge5" class="edge">
<title>conv&#45;&gt;na</title>
<path fill="none" stroke="green" d="M19.87,-290.26C17.28,-278.68 16.66,-264.68 24.5,-255 31.25,-246.66 46.73,-240.05 65.96,-234.82"/>
<polygon fill="green" stroke="green" points="66.68,-238.25 75.53,-232.42 64.98,-231.46 66.68,-238.25"/>
<text text-anchor="middle" x="130.25" y="-258.95" font-family="Times,serif" font-size="14.00">No values shoud survive here</text>
</g>
<!-- actual -->
<g id="node9" class="node">
<title>actual</title>
<polygon fill="none" stroke="black" points="88.38,-0.5 88.38,-43 319.62,-43 319.62,-0.5 88.38,-0.5"/>
<text text-anchor="middle" x="204" y="-25.7" font-family="Times,serif" font-size="14.00">actual: eq(conv_masked, imm)</text>
<text text-anchor="middle" x="204" y="-8.45" font-family="Times,serif" font-size="14.00">0xFFFFffff x4</text>
</g>
<!-- conv&#45;&gt;actual -->
<!-- yes -->
<g id="node4" class="node">
<title>yes</title>
<polygon fill="none" stroke="black" points="750.62,-290.75 750.62,-333.25 863.38,-333.25 863.38,-290.75 750.62,-290.75"/>
<text text-anchor="middle" x="807" y="-315.95" font-family="Times,serif" font-size="14.00">yes:</text>
<text text-anchor="middle" x="807" y="-298.7" font-family="Times,serif" font-size="14.00">0x7FFFffff x4</text>
</g>
<!-- yes&#45;&gt;a -->
<g id="edge3" class="edge">
<title>yes&#45;&gt;a</title>
<path fill="none" stroke="black" d="M801.92,-290.53C797.8,-278.28 790.7,-263.5 779,-255 756.24,-238.46 694.69,-228.84 637.52,-223.32"/>
<polygon fill="black" stroke="black" points="637.95,-219.85 627.67,-222.41 637.31,-226.82 637.95,-219.85"/>
</g>
<!-- conv_masked -->
<g id="node7" class="node">
<title>conv_masked</title>
<polygon fill="none" stroke="black" points="117.25,-97.25 117.25,-139.75 296.75,-139.75 296.75,-97.25 117.25,-97.25"/>
<text text-anchor="middle" x="207" y="-122.45" font-family="Times,serif" font-size="14.00">conv_masked: or(a, na)</text>
<text text-anchor="middle" x="207" y="-105.2" font-family="Times,serif" font-size="14.00">0x7FFFffff x4</text>
</g>
<!-- a&#45;&gt;conv_masked -->
<g id="edge7" class="edge">
<title>a&#45;&gt;conv_masked</title>
<path fill="none" stroke="black" d="M466.87,-193.55C436.22,-182.4 397.24,-168.8 362,-158.25 344.31,-152.96 325.34,-147.8 306.96,-143.06"/>
<polygon fill="black" stroke="black" points="307.93,-139.69 297.37,-140.61 306.2,-146.48 307.93,-139.69"/>
</g>
<!-- na&#45;&gt;conv_masked -->
<g id="edge8" class="edge">
<title>na&#45;&gt;conv_masked</title>
<path fill="none" stroke="black" d="M207,-193.69C207,-181.27 207,-165.19 207,-151.18"/>
<polygon fill="black" stroke="black" points="210.5,-151.53 207,-141.53 203.5,-151.53 210.5,-151.53"/>
<text text-anchor="middle" x="282.38" y="-162.2" font-family="Times,serif" font-size="14.00">5. get the final result</text>
</g>
<!-- conv_masked&#45;&gt;actual -->
<g id="edge11" class="edge">
<title>conv_masked&#45;&gt;actual</title>
<path fill="none" stroke="black" d="M205.99,-96.99C205.72,-91.1 205.45,-84.67 205.25,-78.75 204.99,-71.01 204.77,-62.66 204.59,-54.83"/>
<polygon fill="black" stroke="black" points="208.09,-54.93 204.38,-45.01 201.09,-55.08 208.09,-54.93"/>
<text text-anchor="middle" x="282.12" y="-65.45" font-family="Times,serif" font-size="14.00">6. compare the result</text>
</g>
<!-- imm -->
<g id="node8" class="node">
<title>imm</title>
<polygon fill="none" stroke="black" points="316.62,-97.25 316.62,-139.75 429.38,-139.75 429.38,-97.25 316.62,-97.25"/>
<text text-anchor="middle" x="373" y="-122.45" font-family="Times,serif" font-size="14.00">imm:</text>
<text text-anchor="middle" x="373" y="-105.2" font-family="Times,serif" font-size="14.00">0x7FFFffff x4</text>
</g>
<!-- imm&#45;&gt;actual -->
<g id="edge9" class="edge">
<title>imm&#45;&gt;actual</title>
<path fill="none" stroke="black" d="M372.86,-96.85C371.68,-85.01 368.21,-70.71 359,-61.5 353.54,-56.04 343.14,-51.13 330.2,-46.78"/>
<polygon fill="black" stroke="black" points="331.35,-43.47 320.76,-43.86 329.28,-50.16 331.35,-43.47"/>
</g>
</g>
</svg>
