<?xml version="1.0" encoding="UTF-8" standalone="no"?>
<!DOCTYPE svg PUBLIC "-//W3C//DTD SVG 1.1//EN"
 "http://www.w3.org/Graphics/SVG/1.1/DTD/svg11.dtd">
<!-- Generated by graphviz version 12.2.0 (0)
 -->
<!-- Pages: 1 -->
<svg width="382pt" height="194pt"
 viewBox="0.00 0.00 382.00 193.50" xmlns="http://www.w3.org/2000/svg" xmlns:xlink="http://www.w3.org/1999/xlink">
<g id="graph0" class="graph" transform="scale(1 1) rotate(0) translate(4 189.5)">
<polygon fill="white" stroke="none" points="-4,4 -4,-189.5 378,-189.5 378,4 -4,4"/>
<!-- prog -->
<g id="node1" class="node">
<title>prog</title>
<polygon fill="#ddffdd" stroke="none" points="9,-163.75 9,-180.5 199,-180.5 199,-163.75 9,-163.75"/>
<text text-anchor="start" x="11" y="-169" font-family="mono" font-size="10.00">static int f.constprop(int a) {</text>
<text text-anchor="start" x="11" y="-152.25" font-family="mono" font-size="10.00"> &#160;&#160;&#160;return a + 10;</text>
<text text-anchor="start" x="11" y="-135.5" font-family="mono" font-size="10.00">}</text>
<polygon fill="#ddffdd" stroke="none" points="9,-109.5 9,-126.25 199,-126.25 199,-109.5 9,-109.5"/>
<text text-anchor="start" x="11" y="-114.75" font-family="mono" font-size="10.00">static int g.constprop(int a) {</text>
<polygon fill="lightcyan" stroke="none" points="9,-92.75 9,-109.5 199,-109.5 199,-92.75 9,-92.75"/>
<text text-anchor="start" x="11" y="-98" font-family="mono" font-size="10.00"> &#160;&#160;&#160;return f.constprop(a);</text>
<text text-anchor="start" x="11" y="-81.25" font-family="mono" font-size="10.00">}</text>
<text text-anchor="start" x="11" y="-60.5" font-family="mono" font-size="10.00">int main(void) {</text>
<text text-anchor="start" x="11" y="-43.75" font-family="mono" font-size="10.00"> &#160;volatile int i = 42;</text>
<polygon fill="lightcyan" stroke="none" points="9,-21.75 9,-38.5 199,-38.5 199,-21.75 9,-21.75"/>
<text text-anchor="start" x="11" y="-27" font-family="mono" font-size="10.00"> &#160;return g.constprop(i);</text>
<text text-anchor="start" x="11" y="-10.25" font-family="mono" font-size="10.00">}</text>
<polygon fill="none" stroke="black" points="8,-4 8,-181.5 200,-181.5 200,-4 8,-4"/>
</g>
<!-- call g.constprop(i)\nb = 10; was inlined -->
<g id="node2" class="node">
<title>call g.constprop(i)\nb = 10; was inlined</title>
<text text-anchor="middle" x="309" y="-86" font-family="mono" font-size="10.00">call g.constprop(i)</text>
<text text-anchor="middle" x="309" y="-73.25" font-family="mono" font-size="10.00">b = 10; was inlined</text>
</g>
<!-- prog&#45;&gt;call g.constprop(i)\nb = 10; was inlined -->
<g id="edge1" class="edge">
<title>prog:e&#45;&gt;call g.constprop(i)\nb = 10; was inlined</title>
<path fill="none" stroke="black" d="M200,-30.12C200,-30.12 232.16,-45.8 261.39,-60.04"/>
<polygon fill="black" stroke="black" points="270.04,-64.25 259.08,-63.92 266.64,-62.6 261.05,-59.87 261.05,-59.87 261.05,-59.87 266.64,-62.6 263.02,-55.83 270.04,-64.25"/>
</g>
<!-- call f.constprop(a)\nb = 10; was inlined -->
<g id="node3" class="node">
<title>call f.constprop(a)\nb = 10; was inlined</title>
<text text-anchor="middle" x="309" y="-140" font-family="mono" font-size="10.00">call f.constprop(a)</text>
<text text-anchor="middle" x="309" y="-127.25" font-family="mono" font-size="10.00">b = 10; was inlined</text>
</g>
<!-- prog&#45;&gt;call f.constprop(a)\nb = 10; was inlined -->
<g id="edge3" class="edge">
<title>prog:e&#45;&gt;call f.constprop(a)\nb = 10; was inlined</title>
<path fill="none" stroke="black" d="M200,-101.12C200,-101.12 220.15,-107.77 243.04,-115.32"/>
<polygon fill="black" stroke="black" points="252.53,-118.45 241.62,-119.59 248.94,-117.27 243.03,-115.32 243.03,-115.32 243.03,-115.32 248.94,-117.27 244.44,-111.05 252.53,-118.45"/>
</g>
<!-- call g.constprop(i)\nb = 10; was inlined&#45;&gt;prog -->
<g id="edge2" class="edge">
<title>call g.constprop(i)\nb = 10; was inlined&#45;&gt;prog:e</title>
<path fill="none" stroke="black" d="M252.73,-100.72C236.54,-105.99 220.5,-111.21 210.44,-114.48"/>
<polygon fill="black" stroke="black" points="201.16,-117.5 209.28,-110.13 204.75,-116.33 210.67,-114.41 210.67,-114.41 210.67,-114.41 204.75,-116.33 212.06,-118.68 201.16,-117.5"/>
</g>
<!-- call f.constprop(a)\nb = 10; was inlined&#45;&gt;prog -->
<g id="edge4" class="edge">
<title>call f.constprop(a)\nb = 10; was inlined&#45;&gt;prog:e</title>
<path fill="none" stroke="black" d="M253.05,-154.75C236.79,-160.07 220.65,-165.36 210.52,-168.68"/>
<polygon fill="black" stroke="black" points="201.16,-171.75 209.26,-164.36 204.75,-170.57 210.66,-168.63 210.66,-168.63 210.66,-168.63 204.75,-170.57 212.06,-172.91 201.16,-171.75"/>
</g>
</g>
</svg>
