<?xml version="1.0" encoding="UTF-8" standalone="no"?>
<!DOCTYPE svg PUBLIC "-//W3C//DTD SVG 1.1//EN"
 "http://www.w3.org/Graphics/SVG/1.1/DTD/svg11.dtd">
<!-- Generated by graphviz version 12.1.0 (0)
 -->
<!-- Pages: 1 -->
<svg width="328pt" height="194pt"
 viewBox="0.00 0.00 328.00 193.50" xmlns="http://www.w3.org/2000/svg" xmlns:xlink="http://www.w3.org/1999/xlink">
<g id="graph0" class="graph" transform="scale(1 1) rotate(0) translate(4 189.5)">
<polygon fill="white" stroke="none" points="-4,4 -4,-189.5 324,-189.5 324,4 -4,4"/>
<!-- prog -->
<g id="node1" class="node">
<title>prog</title>
<polygon fill="#ddffdd" stroke="none" points="9,-163.75 9,-180.5 181,-180.5 181,-163.75 9,-163.75"/>
<text text-anchor="start" x="11" y="-169" font-family="mono" font-size="10.00">static int f(int a, int b) {</text>
<text text-anchor="start" x="11" y="-152.25" font-family="mono" font-size="10.00"> &#160;&#160;&#160;return a + b;</text>
<text text-anchor="start" x="11" y="-135.5" font-family="mono" font-size="10.00">}</text>
<polygon fill="#ddffdd" stroke="none" points="9,-109.5 9,-126.25 181,-126.25 181,-109.5 9,-109.5"/>
<text text-anchor="start" x="11" y="-114.75" font-family="mono" font-size="10.00">static int g(int a, int b) {</text>
<polygon fill="lightcyan" stroke="none" points="9,-92.75 9,-109.5 181,-109.5 181,-92.75 9,-92.75"/>
<text text-anchor="start" x="11" y="-98" font-family="mono" font-size="10.00"> &#160;&#160;&#160;return f(a, b);</text>
<text text-anchor="start" x="11" y="-81.25" font-family="mono" font-size="10.00">}</text>
<text text-anchor="start" x="11" y="-60.5" font-family="mono" font-size="10.00">int main(void) {</text>
<text text-anchor="start" x="11" y="-43.75" font-family="mono" font-size="10.00"> &#160;volatile int i = 42;</text>
<polygon fill="lightcyan" stroke="none" points="9,-21.75 9,-38.5 181,-38.5 181,-21.75 9,-21.75"/>
<text text-anchor="start" x="11" y="-27" font-family="mono" font-size="10.00"> &#160;return g(i, 10);</text>
<text text-anchor="start" x="11" y="-10.25" font-family="mono" font-size="10.00">}</text>
<polygon fill="none" stroke="black" points="8,-4 8,-181.5 182,-181.5 182,-4 8,-4"/>
</g>
<!-- call g(i, 10) -->
<g id="node2" class="node">
<title>call g(i, 10)</title>
<text text-anchor="middle" x="273" y="-79.62" font-family="mono" font-size="10.00">call g(i, 10)</text>
</g>
<!-- prog&#45;&gt;call g(i, 10) -->
<g id="edge1" class="edge">
<title>prog:e&#45;&gt;call g(i, 10)</title>
<path fill="none" stroke="black" d="M182,-30.12C182,-30.12 207.88,-45.26 231.88,-59.29"/>
<polygon fill="black" stroke="black" points="240.23,-64.17 229.32,-63.01 236.96,-62.26 231.59,-59.12 231.59,-59.12 231.59,-59.12 236.96,-62.26 233.87,-55.24 240.23,-64.17"/>
</g>
<!-- call f(a, b) -->
<g id="node3" class="node">
<title>call f(a, b)</title>
<text text-anchor="middle" x="273" y="-133.62" font-family="mono" font-size="10.00">call f(a, b)</text>
</g>
<!-- prog&#45;&gt;call f(a, b) -->
<g id="edge3" class="edge">
<title>prog:e&#45;&gt;call f(a, b)</title>
<path fill="none" stroke="black" d="M182,-101.12C182,-101.12 199.35,-107.99 218.82,-115.7"/>
<polygon fill="black" stroke="black" points="227.98,-119.32 217.02,-119.83 224.46,-117.93 218.68,-115.64 218.68,-115.64 218.68,-115.64 224.46,-117.93 220.33,-111.46 227.98,-119.32"/>
</g>
<!-- call g(i, 10)&#45;&gt;prog -->
<g id="edge2" class="edge">
<title>call g(i, 10)&#45;&gt;prog:e</title>
<path fill="none" stroke="black" d="M226.21,-100.62C213.53,-105.57 200.93,-110.49 192.45,-113.8"/>
<polygon fill="black" stroke="black" points="183.14,-117.43 190.81,-109.6 186.66,-116.06 192.45,-113.8 192.45,-113.8 192.45,-113.8 186.66,-116.06 194.09,-117.99 183.14,-117.43"/>
</g>
<!-- call f(a, b)&#45;&gt;prog -->
<g id="edge4" class="edge">
<title>call f(a, b)&#45;&gt;prog:e</title>
<path fill="none" stroke="black" d="M229.11,-153.61C215.35,-159.02 201.32,-164.53 192.19,-168.12"/>
<polygon fill="black" stroke="black" points="183.13,-171.68 190.79,-163.83 186.65,-170.3 192.44,-168.02 192.44,-168.02 192.44,-168.02 186.65,-170.3 194.09,-172.21 183.13,-171.68"/>
</g>
</g>
</svg>
