<?xml version="1.0" encoding="UTF-8" standalone="no"?>
<!DOCTYPE svg PUBLIC "-//W3C//DTD SVG 1.1//EN"
 "http://www.w3.org/Graphics/SVG/1.1/DTD/svg11.dtd">
<!-- Generated by graphviz version 9.0.0 (0)
 -->
<!-- Pages: 1 -->
<svg width="328pt" height="194pt"
 viewBox="0.00 0.00 328.00 193.50" xmlns="http://www.w3.org/2000/svg" xmlns:xlink="http://www.w3.org/1999/xlink">
<g id="graph0" class="graph" transform="scale(1 1) rotate(0) translate(4 189.5)">
<polygon fill="white" stroke="none" points="-4,4 -4,-189.5 324,-189.5 324,4 -4,4"/>
<!-- prog -->
<g id="node1" class="node">
<title>prog</title>
<polygon fill="#ddffdd" stroke="none" points="9,-163.75 9,-180.5 181,-180.5 181,-163.75 9,-163.75"/>
<text text-anchor="start" x="11" y="-169" font-family="mono" font-size="10.00">static int f(int a, int b) {</text>
<text text-anchor="start" x="11" y="-152.25" font-family="mono" font-size="10.00"> &#160;&#160;&#160;return a + b;</text>
<text text-anchor="start" x="11" y="-135.5" font-family="mono" font-size="10.00">}</text>
<polygon fill="#ddffdd" stroke="none" points="9,-109.5 9,-126.25 181,-126.25 181,-109.5 9,-109.5"/>
<text text-anchor="start" x="11" y="-114.75" font-family="mono" font-size="10.00">static int g(int a, int b) {</text>
<polygon fill="lightcyan" stroke="none" points="9,-92.75 9,-109.5 181,-109.5 181,-92.75 9,-92.75"/>
<text text-anchor="start" x="11" y="-98" font-family="mono" font-size="10.00"> &#160;&#160;&#160;return f(a, b);</text>
<text text-anchor="start" x="11" y="-81.25" font-family="mono" font-size="10.00">}</text>
<text text-anchor="start" x="11" y="-60.5" font-family="mono" font-size="10.00">int main(void) {</text>
<text text-anchor="start" x="11" y="-43.75" font-family="mono" font-size="10.00"> &#160;volatile int i = 42;</text>
<polygon fill="lightcyan" stroke="none" points="9,-21.75 9,-38.5 181,-38.5 181,-21.75 9,-21.75"/>
<text text-anchor="start" x="11" y="-27" font-family="mono" font-size="10.00"> &#160;return g(i, 10);</text>
<text text-anchor="start" x="11" y="-10.25" font-family="mono" font-size="10.00">}</text>
<polygon fill="none" stroke="black" points="8,-4 8,-181.5 182,-181.5 182,-4 8,-4"/>
</g>
<!-- call g(i, 10) -->
<g id="node2" class="node">
<title>call g(i, 10)</title>
<text text-anchor="middle" x="273" y="-48.62" font-family="mono" font-size="10.00">call g(i, 10)</text>
</g>
<!-- prog&#45;&gt;call g(i, 10) -->
<g id="edge1" class="edge">
<title>prog:e&#45;&gt;call g(i, 10)</title>
<path fill="none" stroke="black" d="M182,-29.75C182,-29.75 197.36,-33.5 215.38,-37.91"/>
<polygon fill="black" stroke="black" points="225.03,-40.27 214.24,-42.26 221.35,-39.37 215.31,-37.89 215.31,-37.89 215.31,-37.89 221.35,-39.37 216.38,-33.52 225.03,-40.27"/>
</g>
<!-- call f(a, b) -->
<g id="node3" class="node">
<title>call f(a, b)</title>
<text text-anchor="middle" x="273" y="-146.62" font-family="mono" font-size="10.00">call f(a, b)</text>
</g>
<!-- prog&#45;&gt;call f(a, b) -->
<g id="edge3" class="edge">
<title>prog:e&#45;&gt;call f(a, b)</title>
<path fill="none" stroke="black" d="M182,-100.75C182,-100.75 205.97,-113.8 229.17,-126.43"/>
<polygon fill="black" stroke="black" points="237.93,-131.2 226.99,-130.37 234.61,-129.39 229.15,-126.42 229.15,-126.42 229.15,-126.42 234.61,-129.39 231.3,-122.47 237.93,-131.2"/>
</g>
<!-- call g(i, 10)&#45;&gt;prog -->
<g id="edge2" class="edge">
<title>call g(i, 10)&#45;&gt;prog:e</title>
<path fill="none" stroke="black" d="M247.88,-69.44C229.14,-83.18 204.18,-101.48 191.02,-111.14"/>
<polygon fill="black" stroke="black" points="182.98,-117.03 188.39,-107.49 186.03,-114.79 191.05,-111.12 191.05,-111.12 191.05,-111.12 186.03,-114.79 193.71,-114.74 182.98,-117.03"/>
</g>
<!-- call f(a, b)&#45;&gt;prog -->
<g id="edge4" class="edge">
<title>call f(a, b)&#45;&gt;prog:e</title>
<path fill="none" stroke="black" d="M229.11,-160.23C215.53,-163.55 201.69,-166.94 192.56,-169.17"/>
<polygon fill="black" stroke="black" points="183.18,-171.46 191.83,-164.71 186.86,-170.56 192.9,-169.09 192.9,-169.09 192.9,-169.09 186.86,-170.56 193.97,-173.46 183.18,-171.46"/>
</g>
</g>
</svg>
