<?xml version="1.0" encoding="UTF-8" standalone="no"?>
<!DOCTYPE svg PUBLIC "-//W3C//DTD SVG 1.1//EN"
 "http://www.w3.org/Graphics/SVG/1.1/DTD/svg11.dtd">
<!-- Generated by graphviz version 8.1.0 (0)
 -->
<!-- Pages: 1 -->
<svg width="382pt" height="194pt"
 viewBox="0.00 0.00 382.00 193.50" xmlns="http://www.w3.org/2000/svg" xmlns:xlink="http://www.w3.org/1999/xlink">
<g id="graph0" class="graph" transform="scale(1 1) rotate(0) translate(4 189.5)">
<polygon fill="white" stroke="none" points="-4,4 -4,-189.5 378,-189.5 378,4 -4,4"/>
<!-- prog -->
<g id="node1" class="node">
<title>prog</title>
<polygon fill="#ddffdd" stroke="none" points="9,-163.75 9,-180.5 199,-180.5 199,-163.75 9,-163.75"/>
<text text-anchor="start" x="11" y="-169" font-family="mono" font-size="10.00">static int f.constprop(int a) {</text>
<text text-anchor="start" x="11" y="-152.25" font-family="mono" font-size="10.00"> &#160;&#160;&#160;return a + 10;</text>
<text text-anchor="start" x="11" y="-135.5" font-family="mono" font-size="10.00">}</text>
<polygon fill="#ddffdd" stroke="none" points="9,-109.5 9,-126.25 199,-126.25 199,-109.5 9,-109.5"/>
<text text-anchor="start" x="11" y="-114.75" font-family="mono" font-size="10.00">static int g.constprop(int a) {</text>
<polygon fill="lightcyan" stroke="none" points="9,-92.75 9,-109.5 199,-109.5 199,-92.75 9,-92.75"/>
<text text-anchor="start" x="11" y="-98" font-family="mono" font-size="10.00"> &#160;&#160;&#160;return f.constprop(a);</text>
<text text-anchor="start" x="11" y="-81.25" font-family="mono" font-size="10.00">}</text>
<text text-anchor="start" x="11" y="-60.5" font-family="mono" font-size="10.00">int main(void) {</text>
<text text-anchor="start" x="11" y="-43.75" font-family="mono" font-size="10.00"> &#160;volatile int i = 42;</text>
<polygon fill="lightcyan" stroke="none" points="9,-21.75 9,-38.5 199,-38.5 199,-21.75 9,-21.75"/>
<text text-anchor="start" x="11" y="-27" font-family="mono" font-size="10.00"> &#160;return g.constprop(i);</text>
<text text-anchor="start" x="11" y="-10.25" font-family="mono" font-size="10.00">}</text>
<polygon fill="none" stroke="black" points="8,-4 8,-181.5 200,-181.5 200,-4 8,-4"/>
</g>
<!-- call g.constprop(i)\nb = 10; was inlined -->
<g id="node2" class="node">
<title>call g.constprop(i)\nb = 10; was inlined</title>
<text text-anchor="middle" x="309" y="-55" font-family="mono" font-size="10.00">call g.constprop(i)</text>
<text text-anchor="middle" x="309" y="-42.25" font-family="mono" font-size="10.00">b = 10; was inlined</text>
</g>
<!-- prog&#45;&gt;call g.constprop(i)\nb = 10; was inlined -->
<g id="edge1" class="edge">
<title>prog:e&#45;&gt;call g.constprop(i)\nb = 10; was inlined</title>
<path fill="none" stroke="black" d="M200,-29.75C200,-29.75 215.4,-32.89 234.58,-36.79"/>
<polygon fill="black" stroke="black" points="244.24,-38.76 233.54,-41.18 239.34,-37.76 234.44,-36.77 234.44,-36.77 234.44,-36.77 239.34,-37.76 235.34,-32.36 244.24,-38.76 244.24,-38.76"/>
</g>
<!-- call f.constprop(a)\nb = 10; was inlined -->
<g id="node3" class="node">
<title>call f.constprop(a)\nb = 10; was inlined</title>
<text text-anchor="middle" x="309" y="-153" font-family="mono" font-size="10.00">call f.constprop(a)</text>
<text text-anchor="middle" x="309" y="-140.25" font-family="mono" font-size="10.00">b = 10; was inlined</text>
</g>
<!-- prog&#45;&gt;call f.constprop(a)\nb = 10; was inlined -->
<g id="edge3" class="edge">
<title>prog:e&#45;&gt;call f.constprop(a)\nb = 10; was inlined</title>
<path fill="none" stroke="black" d="M200,-100.75C200,-100.75 230.86,-114.75 259.59,-127.79"/>
<polygon fill="black" stroke="black" points="268.4,-131.78 257.43,-131.75 263.84,-129.72 259.29,-127.65 259.29,-127.65 259.29,-127.65 263.84,-129.72 261.15,-123.55 268.4,-131.78 268.4,-131.78"/>
</g>
<!-- call g.constprop(i)\nb = 10; was inlined&#45;&gt;prog -->
<g id="edge2" class="edge">
<title>call g.constprop(i)\nb = 10; was inlined&#45;&gt;prog:e</title>
<path fill="none" stroke="black" d="M278.77,-69.61C255.04,-84.12 223.14,-103.61 208.27,-112.69"/>
<polygon fill="black" stroke="black" points="200,-117.75 206.19,-108.7 204.27,-115.14 208.53,-112.54 208.53,-112.54 208.53,-112.54 204.27,-115.14 210.88,-116.38 200,-117.75 200,-117.75"/>
</g>
<!-- call f.constprop(a)\nb = 10; was inlined&#45;&gt;prog -->
<g id="edge4" class="edge">
<title>call f.constprop(a)\nb = 10; was inlined&#45;&gt;prog:e</title>
<path fill="none" stroke="black" d="M244.24,-162.74C230.72,-165.49 218.05,-168.07 209.76,-169.76"/>
<polygon fill="black" stroke="black" points="200,-171.75 208.9,-165.34 204.9,-170.75 209.8,-169.75 209.8,-169.75 209.8,-169.75 204.9,-170.75 210.7,-174.16 200,-171.75 200,-171.75"/>
</g>
</g>
</svg>
