<?xml version="1.0" encoding="UTF-8" standalone="no"?>
<!DOCTYPE svg PUBLIC "-//W3C//DTD SVG 1.1//EN"
 "http://www.w3.org/Graphics/SVG/1.1/DTD/svg11.dtd">
<!-- Generated by graphviz version 10.0.1 (0)
 -->
<!-- Pages: 1 -->
<svg width="382pt" height="194pt"
 viewBox="0.00 0.00 382.00 193.50" xmlns="http://www.w3.org/2000/svg" xmlns:xlink="http://www.w3.org/1999/xlink">
<g id="graph0" class="graph" transform="scale(1 1) rotate(0) translate(4 189.5)">
<polygon fill="white" stroke="none" points="-4,4 -4,-189.5 378,-189.5 378,4 -4,4"/>
<!-- prog -->
<g id="node1" class="node">
<title>prog</title>
<polygon fill="#ddffdd" stroke="none" points="9,-163.75 9,-180.5 199,-180.5 199,-163.75 9,-163.75"/>
<text text-anchor="start" x="11" y="-169" font-family="mono" font-size="10.00">static int f.constprop(int a) {</text>
<text text-anchor="start" x="11" y="-152.25" font-family="mono" font-size="10.00"> &#160;&#160;&#160;return a + 10;</text>
<text text-anchor="start" x="11" y="-135.5" font-family="mono" font-size="10.00">}</text>
<polygon fill="#ddffdd" stroke="none" points="9,-109.5 9,-126.25 199,-126.25 199,-109.5 9,-109.5"/>
<text text-anchor="start" x="11" y="-114.75" font-family="mono" font-size="10.00">static int g.constprop(int a) {</text>
<polygon fill="lightcyan" stroke="none" points="9,-92.75 9,-109.5 199,-109.5 199,-92.75 9,-92.75"/>
<text text-anchor="start" x="11" y="-98" font-family="mono" font-size="10.00"> &#160;&#160;&#160;return f.constprop(a);</text>
<text text-anchor="start" x="11" y="-81.25" font-family="mono" font-size="10.00">}</text>
<text text-anchor="start" x="11" y="-60.5" font-family="mono" font-size="10.00">int main(void) {</text>
<text text-anchor="start" x="11" y="-43.75" font-family="mono" font-size="10.00"> &#160;volatile int i = 42;</text>
<polygon fill="lightcyan" stroke="none" points="9,-21.75 9,-38.5 199,-38.5 199,-21.75 9,-21.75"/>
<text text-anchor="start" x="11" y="-27" font-family="mono" font-size="10.00"> &#160;return g.constprop(i);</text>
<text text-anchor="start" x="11" y="-10.25" font-family="mono" font-size="10.00">}</text>
<polygon fill="none" stroke="black" points="8,-4 8,-181.5 200,-181.5 200,-4 8,-4"/>
</g>
<!-- call g.constprop(i)\nb = 10; was inlined -->
<g id="node2" class="node">
<title>call g.constprop(i)\nb = 10; was inlined</title>
<text text-anchor="middle" x="309" y="-55" font-family="mono" font-size="10.00">call g.constprop(i)</text>
<text text-anchor="middle" x="309" y="-42.25" font-family="mono" font-size="10.00">b = 10; was inlined</text>
</g>
<!-- prog&#45;&gt;call g.constprop(i)\nb = 10; was inlined -->
<g id="edge1" class="edge">
<title>prog:e&#45;&gt;call g.constprop(i)\nb = 10; was inlined</title>
<path fill="none" stroke="black" d="M200,-29.75C200,-29.75 214.71,-32.75 233.27,-36.53"/>
<polygon fill="black" stroke="black" points="243.05,-38.52 232.35,-40.93 239.34,-37.76 233.25,-36.52 233.25,-36.52 233.25,-36.52 239.34,-37.76 234.14,-32.11 243.05,-38.52"/>
</g>
<!-- call f.constprop(a)\nb = 10; was inlined -->
<g id="node3" class="node">
<title>call f.constprop(a)\nb = 10; was inlined</title>
<text text-anchor="middle" x="309" y="-153" font-family="mono" font-size="10.00">call f.constprop(a)</text>
<text text-anchor="middle" x="309" y="-140.25" font-family="mono" font-size="10.00">b = 10; was inlined</text>
</g>
<!-- prog&#45;&gt;call f.constprop(a)\nb = 10; was inlined -->
<g id="edge3" class="edge">
<title>prog:e&#45;&gt;call f.constprop(a)\nb = 10; was inlined</title>
<path fill="none" stroke="black" d="M200,-100.75C200,-100.75 230.07,-114.39 258.47,-127.28"/>
<polygon fill="black" stroke="black" points="267.29,-131.28 256.32,-131.25 263.84,-129.72 258.18,-127.15 258.18,-127.15 258.18,-127.15 263.84,-129.72 260.04,-123.05 267.29,-131.28"/>
</g>
<!-- call g.constprop(i)\nb = 10; was inlined&#45;&gt;prog -->
<g id="edge2" class="edge">
<title>call g.constprop(i)\nb = 10; was inlined&#45;&gt;prog:e</title>
<path fill="none" stroke="black" d="M278.77,-69.61C255.53,-83.81 224.48,-102.79 209.24,-112.11"/>
<polygon fill="black" stroke="black" points="201.04,-117.11 207.23,-108.06 204.27,-115.14 209.57,-111.9 209.57,-111.9 209.57,-111.9 204.27,-115.14 211.92,-115.74 201.04,-117.11"/>
</g>
<!-- call f.constprop(a)\nb = 10; was inlined&#45;&gt;prog -->
<g id="edge4" class="edge">
<title>call f.constprop(a)\nb = 10; was inlined&#45;&gt;prog:e</title>
<path fill="none" stroke="black" d="M244.24,-162.74C231.27,-165.38 219.08,-167.86 210.79,-169.55"/>
<polygon fill="black" stroke="black" points="201.19,-171.51 210.09,-165.1 204.9,-170.75 210.99,-169.51 210.99,-169.51 210.99,-169.51 204.9,-170.75 211.89,-173.92 201.19,-171.51"/>
</g>
</g>
</svg>
