<?xml version="1.0" encoding="UTF-8" standalone="no"?>
<!DOCTYPE svg PUBLIC "-//W3C//DTD SVG 1.1//EN"
 "http://www.w3.org/Graphics/SVG/1.1/DTD/svg11.dtd">
<!-- Generated by graphviz version 7.1.0 (0)
 -->
<!-- Pages: 1 -->
<svg width="330pt" height="176pt"
 viewBox="0.00 0.00 330.00 176.00" xmlns="http://www.w3.org/2000/svg" xmlns:xlink="http://www.w3.org/1999/xlink">
<g id="graph0" class="graph" transform="scale(1 1) rotate(0) translate(4 172)">
<polygon fill="white" stroke="none" points="-4,4 -4,-172 326,-172 326,4 -4,4"/>
<!-- prog -->
<g id="node1" class="node">
<title>prog</title>
<polygon fill="#ddffdd" stroke="none" points="9.5,-148 9.5,-163 182.5,-163 182.5,-148 9.5,-148"/>
<text text-anchor="start" x="11.5" y="-153" font-family="mono" font-size="10.00">static int f(int a, int b) {</text>
<text text-anchor="start" x="11.5" y="-138" font-family="mono" font-size="10.00"> &#160;&#160;&#160;return a + b;</text>
<text text-anchor="start" x="11.5" y="-123" font-family="mono" font-size="10.00">}</text>
<polygon fill="#ddffdd" stroke="none" points="9.5,-99 9.5,-114 182.5,-114 182.5,-99 9.5,-99"/>
<text text-anchor="start" x="11.5" y="-104" font-family="mono" font-size="10.00">static int g(int a, int b) {</text>
<polygon fill="lightcyan" stroke="none" points="9.5,-84 9.5,-99 182.5,-99 182.5,-84 9.5,-84"/>
<text text-anchor="start" x="11.5" y="-89" font-family="mono" font-size="10.00"> &#160;&#160;&#160;return f(a, b);</text>
<text text-anchor="start" x="11.5" y="-74" font-family="mono" font-size="10.00">}</text>
<text text-anchor="start" x="11.5" y="-55" font-family="mono" font-size="10.00">int main(void) {</text>
<text text-anchor="start" x="11.5" y="-40" font-family="mono" font-size="10.00"> &#160;volatile int i = 42;</text>
<polygon fill="lightcyan" stroke="none" points="9.5,-20 9.5,-35 182.5,-35 182.5,-20 9.5,-20"/>
<text text-anchor="start" x="11.5" y="-25" font-family="mono" font-size="10.00"> &#160;return g(i, 10);</text>
<text text-anchor="start" x="11.5" y="-10" font-family="mono" font-size="10.00">}</text>
<polygon fill="none" stroke="black" points="8,-4 8,-164 183,-164 183,-4 8,-4"/>
</g>
<!-- call g(i, 10) -->
<g id="node2" class="node">
<title>call g(i, 10)</title>
<text text-anchor="middle" x="274.5" y="-43.5" font-family="mono" font-size="10.00">call g(i, 10)</text>
</g>
<!-- prog&#45;&gt;call g(i, 10) -->
<g id="edge1" class="edge">
<title>prog:e&#45;&gt;call g(i, 10)</title>
<path fill="none" stroke="black" d="M183.5,-27C183.5,-27 199.18,-30.31 217.46,-34.17"/>
<polygon fill="black" stroke="black" points="227.18,-36.22 216.47,-38.56 222.29,-35.19 217.4,-34.16 217.4,-34.16 217.4,-34.16 222.29,-35.19 218.33,-29.75 227.18,-36.22 227.18,-36.22"/>
</g>
<!-- call f(a, b) -->
<g id="node3" class="node">
<title>call f(a, b)</title>
<text text-anchor="middle" x="274.5" y="-134.5" font-family="mono" font-size="10.00">call f(a, b)</text>
</g>
<!-- prog&#45;&gt;call f(a, b) -->
<g id="edge3" class="edge">
<title>prog:e&#45;&gt;call f(a, b)</title>
<path fill="none" stroke="black" d="M183.5,-92C183.5,-92 206.16,-103.33 228.74,-114.62"/>
<polygon fill="black" stroke="black" points="237.67,-119.09 226.71,-118.64 233.2,-116.85 228.73,-114.61 228.73,-114.61 228.73,-114.61 233.2,-116.85 230.74,-110.59 237.67,-119.09 237.67,-119.09"/>
</g>
<!-- call g(i, 10)&#45;&gt;prog -->
<g id="edge2" class="edge">
<title>call g(i, 10)&#45;&gt;prog:e</title>
<path fill="none" stroke="black" d="M246.98,-63.97C228.11,-76.76 203.99,-93.12 191.62,-101.5"/>
<polygon fill="black" stroke="black" points="183.5,-107 189.25,-97.66 187.64,-104.19 191.78,-101.39 191.78,-101.39 191.78,-101.39 187.64,-104.19 194.3,-105.11 183.5,-107 183.5,-107"/>
</g>
<!-- call f(a, b)&#45;&gt;prog -->
<g id="edge4" class="edge">
<title>call f(a, b)&#45;&gt;prog:e</title>
<path fill="none" stroke="black" d="M230.08,-146.17C216.24,-149.09 202.19,-152.05 193.2,-153.95"/>
<polygon fill="black" stroke="black" points="183.5,-156 192.35,-149.53 188.39,-154.97 193.28,-153.93 193.28,-153.93 193.28,-153.93 188.39,-154.97 194.21,-158.34 183.5,-156 183.5,-156"/>
</g>
</g>
</svg>
