<?xml version="1.0" encoding="UTF-8" standalone="no"?>
<!DOCTYPE svg PUBLIC "-//W3C//DTD SVG 1.1//EN"
 "http://www.w3.org/Graphics/SVG/1.1/DTD/svg11.dtd">
<!-- Generated by graphviz version 7.1.0 (0)
 -->
<!-- Pages: 1 -->
<svg width="384pt" height="176pt"
 viewBox="0.00 0.00 384.00 176.00" xmlns="http://www.w3.org/2000/svg" xmlns:xlink="http://www.w3.org/1999/xlink">
<g id="graph0" class="graph" transform="scale(1 1) rotate(0) translate(4 172)">
<polygon fill="white" stroke="none" points="-4,4 -4,-172 380,-172 380,4 -4,4"/>
<!-- prog -->
<g id="node1" class="node">
<title>prog</title>
<polygon fill="#ddffdd" stroke="none" points="9.5,-148 9.5,-163 200.5,-163 200.5,-148 9.5,-148"/>
<text text-anchor="start" x="11.5" y="-153" font-family="mono" font-size="10.00">static int f.constprop(int a) {</text>
<text text-anchor="start" x="11.5" y="-138" font-family="mono" font-size="10.00"> &#160;&#160;&#160;return a + 10;</text>
<text text-anchor="start" x="11.5" y="-123" font-family="mono" font-size="10.00">}</text>
<polygon fill="#ddffdd" stroke="none" points="9.5,-99 9.5,-114 200.5,-114 200.5,-99 9.5,-99"/>
<text text-anchor="start" x="11.5" y="-104" font-family="mono" font-size="10.00">static int g.constprop(int a) {</text>
<polygon fill="lightcyan" stroke="none" points="9.5,-84 9.5,-99 200.5,-99 200.5,-84 9.5,-84"/>
<text text-anchor="start" x="11.5" y="-89" font-family="mono" font-size="10.00"> &#160;&#160;&#160;return f.constprop(a);</text>
<text text-anchor="start" x="11.5" y="-74" font-family="mono" font-size="10.00">}</text>
<text text-anchor="start" x="11.5" y="-55" font-family="mono" font-size="10.00">int main(void) {</text>
<text text-anchor="start" x="11.5" y="-40" font-family="mono" font-size="10.00"> &#160;volatile int i = 42;</text>
<polygon fill="lightcyan" stroke="none" points="9.5,-20 9.5,-35 200.5,-35 200.5,-20 9.5,-20"/>
<text text-anchor="start" x="11.5" y="-25" font-family="mono" font-size="10.00"> &#160;return g.constprop(i);</text>
<text text-anchor="start" x="11.5" y="-10" font-family="mono" font-size="10.00">}</text>
<polygon fill="none" stroke="black" points="8,-4 8,-164 201,-164 201,-4 8,-4"/>
</g>
<!-- call g.constprop(i)\nb = 10; was inlined -->
<g id="node2" class="node">
<title>call g.constprop(i)\nb = 10; was inlined</title>
<text text-anchor="middle" x="310.5" y="-49" font-family="mono" font-size="10.00">call g.constprop(i)</text>
<text text-anchor="middle" x="310.5" y="-38" font-family="mono" font-size="10.00">b = 10; was inlined</text>
</g>
<!-- prog&#45;&gt;call g.constprop(i)\nb = 10; was inlined -->
<g id="edge1" class="edge">
<title>prog:e&#45;&gt;call g.constprop(i)\nb = 10; was inlined</title>
<path fill="none" stroke="black" d="M201.5,-27C201.5,-27 216.49,-29.64 235.31,-32.95"/>
<polygon fill="black" stroke="black" points="245.12,-34.67 234.49,-37.37 240.19,-33.81 235.27,-32.94 235.27,-32.94 235.27,-32.94 240.19,-33.81 236.05,-28.51 245.12,-34.67 245.12,-34.67"/>
</g>
<!-- call f.constprop(a)\nb = 10; was inlined -->
<g id="node3" class="node">
<title>call f.constprop(a)\nb = 10; was inlined</title>
<text text-anchor="middle" x="310.5" y="-140" font-family="mono" font-size="10.00">call f.constprop(a)</text>
<text text-anchor="middle" x="310.5" y="-129" font-family="mono" font-size="10.00">b = 10; was inlined</text>
</g>
<!-- prog&#45;&gt;call f.constprop(a)\nb = 10; was inlined -->
<g id="edge3" class="edge">
<title>prog:e&#45;&gt;call f.constprop(a)\nb = 10; was inlined</title>
<path fill="none" stroke="black" d="M201.5,-92C201.5,-92 229.91,-103.84 257.58,-115.37"/>
<polygon fill="black" stroke="black" points="266.51,-119.09 255.54,-119.39 261.89,-117.16 257.27,-115.24 257.27,-115.24 257.27,-115.24 261.89,-117.16 259.01,-111.09 266.51,-119.09 266.51,-119.09"/>
</g>
<!-- call g.constprop(i)\nb = 10; was inlined&#45;&gt;prog -->
<g id="edge2" class="edge">
<title>call g.constprop(i)\nb = 10; was inlined&#45;&gt;prog:e</title>
<path fill="none" stroke="black" d="M277.68,-63.97C254.29,-77.19 224.17,-94.2 209.82,-102.3"/>
<polygon fill="black" stroke="black" points="201.5,-107 207.99,-98.16 205.85,-104.54 210.21,-102.08 210.21,-102.08 210.21,-102.08 205.85,-104.54 212.42,-106 201.5,-107 201.5,-107"/>
</g>
<!-- call f.constprop(a)\nb = 10; was inlined&#45;&gt;prog -->
<g id="edge4" class="edge">
<title>call f.constprop(a)\nb = 10; was inlined&#45;&gt;prog:e</title>
<path fill="none" stroke="black" d="M245.12,-148.33C231.75,-150.68 219.26,-152.88 211.1,-154.31"/>
<polygon fill="black" stroke="black" points="201.5,-156 210.57,-149.84 206.42,-155.13 211.35,-154.27 211.35,-154.27 211.35,-154.27 206.42,-155.13 212.13,-158.7 201.5,-156 201.5,-156"/>
</g>
</g>
</svg>
