<?xml version="1.0" encoding="UTF-8" standalone="no"?>
<!DOCTYPE svg PUBLIC "-//W3C//DTD SVG 1.1//EN"
 "http://www.w3.org/Graphics/SVG/1.1/DTD/svg11.dtd">
<!-- Generated by graphviz version 9.0.0 (0)
 -->
<!-- Pages: 1 -->
<svg width="323pt" height="357pt"
 viewBox="0.00 0.00 322.50 356.75" xmlns="http://www.w3.org/2000/svg" xmlns:xlink="http://www.w3.org/1999/xlink">
<g id="graph0" class="graph" transform="scale(1 1) rotate(0) translate(4 352.75)">
<polygon fill="white" stroke="none" points="-4,4 -4,-352.75 318.5,-352.75 318.5,4 -4,4"/>
<g id="clust1" class="cluster">
<title>clusterAfter</title>
<polygon fill="none" stroke="black" points="8,-8 8,-340.75 299,-340.75 299,-8 8,-8"/>
<text text-anchor="middle" x="153.5" y="-323.45" font-family="Times,serif" font-size="14.00">after (fixed, actual)</text>
</g>
<!-- main()  -->
<g id="node1" class="node">
<title>main() </title>
<polygon fill="none" stroke="black" points="224.88,-271 224.88,-307 291.12,-307 291.12,-271 224.88,-271"/>
<text text-anchor="middle" x="258" y="-284.32" font-family="Times,serif" font-size="14.00">main() </text>
</g>
<!-- do1()  -->
<g id="node2" class="node">
<title>do1() </title>
<polygon fill="none" stroke="black" points="188.38,-180.75 188.38,-216.75 245.62,-216.75 245.62,-180.75 188.38,-180.75"/>
<text text-anchor="middle" x="217" y="-194.07" font-family="Times,serif" font-size="14.00">do1() </text>
</g>
<!-- main() &#45;&gt;do1()  -->
<g id="edge1" class="edge">
<title>main() &#45;&gt;do1() </title>
<path fill="none" stroke="black" d="M249.9,-270.56C244.17,-258.24 236.38,-241.45 229.81,-227.32"/>
<polygon fill="black" stroke="black" points="233.11,-226.12 225.72,-218.52 226.76,-229.07 233.11,-226.12"/>
<text text-anchor="middle" x="277.75" y="-239.2" font-family="Times,serif" font-size="14.00">cb=GOOD</text>
</g>
<!-- do3()  -->
<g id="node3" class="node">
<title>do3() </title>
<polygon fill="none" stroke="black" points="142.38,-90.5 142.38,-126.5 199.62,-126.5 199.62,-90.5 142.38,-90.5"/>
<text text-anchor="middle" x="171" y="-103.83" font-family="Times,serif" font-size="14.00">do3() </text>
</g>
<!-- do1() &#45;&gt;do3()  -->
<g id="edge2" class="edge">
<title>do1() &#45;&gt;do3() </title>
<path fill="none" stroke="black" d="M210.89,-180.72C206.87,-170.19 201.22,-156.53 195,-145 193.44,-142.12 191.71,-139.17 189.91,-136.28"/>
<polygon fill="black" stroke="black" points="192.92,-134.48 184.51,-128.03 187.06,-138.31 192.92,-134.48"/>
<text text-anchor="middle" x="239.75" y="-148.95" font-family="Times,serif" font-size="14.00">cb=GOOD</text>
</g>
<!-- do3() &#45;&gt;do3()  -->
<g id="edge3" class="edge">
<title>do3() &#45;&gt;do3() </title>
<path fill="none" stroke="black" d="M199.68,-115.44C209.61,-115.51 217.62,-113.2 217.62,-108.5 217.62,-105.86 215.09,-103.97 211.1,-102.84"/>
<polygon fill="black" stroke="black" points="211.51,-99.36 201.19,-101.73 210.74,-106.32 211.51,-99.36"/>
<text text-anchor="middle" x="254.38" y="-103.83" font-family="Times,serif" font-size="14.00">cb=GOOD</text>
</g>
<!-- (*cb)() -->
<g id="node7" class="node">
<title>(*cb)()</title>
<polygon fill="none" stroke="black" points="140.88,-16.5 140.88,-52.5 201.12,-52.5 201.12,-16.5 140.88,-16.5"/>
<text text-anchor="middle" x="171" y="-29.82" font-family="Times,serif" font-size="14.00">(*cb)()</text>
</g>
<!-- do3() &#45;&gt;(*cb)() -->
<g id="edge7" class="edge">
<title>do3() &#45;&gt;(*cb)()</title>
<path fill="none" stroke="black" d="M171,-90.07C171,-82.29 171,-72.91 171,-64.14"/>
<polygon fill="black" stroke="black" points="174.5,-64.28 171,-54.28 167.5,-64.28 174.5,-64.28"/>
</g>
<!-- seemingly_unused_foo()  -->
<g id="node4" class="node">
<title>seemingly_unused_foo() </title>
<polygon fill="none" stroke="black" points="15.62,-271 15.62,-307 206.38,-307 206.38,-271 15.62,-271"/>
<text text-anchor="middle" x="111" y="-284.32" font-family="Times,serif" font-size="14.00">seemingly_unused_foo() </text>
</g>
<!-- do3.constprop()  -->
<g id="node5" class="node">
<title>do3.constprop() </title>
<polygon fill="none" stroke="black" points="18.5,-180.75 18.5,-216.75 151.5,-216.75 151.5,-180.75 18.5,-180.75"/>
<text text-anchor="middle" x="85" y="-194.07" font-family="Times,serif" font-size="14.00">do3.constprop() </text>
</g>
<!-- seemingly_unused_foo() &#45;&gt;do3.constprop()  -->
<g id="edge4" class="edge">
<title>seemingly_unused_foo() &#45;&gt;do3.constprop() </title>
<path fill="none" stroke="black" d="M105.86,-270.56C102.3,-258.48 97.48,-242.11 93.37,-228.16"/>
<polygon fill="black" stroke="black" points="96.74,-227.2 90.55,-218.6 90.02,-229.18 96.74,-227.2"/>
<text text-anchor="middle" x="130" y="-239.2" font-family="Times,serif" font-size="14.00">cb=BAD</text>
</g>
<!-- do3.constprop() &#45;&gt;do3.constprop()  -->
<g id="edge5" class="edge">
<title>do3.constprop() &#45;&gt;do3.constprop() </title>
<path fill="none" stroke="black" d="M151.94,-206.5C162.38,-205.34 169.5,-202.76 169.5,-198.75 169.5,-196.43 167.12,-194.59 163.1,-193.22"/>
<polygon fill="black" stroke="black" points="163.92,-189.82 153.43,-191.29 162.55,-196.68 163.92,-189.82"/>
</g>
<!-- L_run()  -->
<g id="node6" class="node">
<title>L_run() </title>
<polygon fill="none" stroke="black" points="45.25,-90.5 45.25,-126.5 116.75,-126.5 116.75,-90.5 45.25,-90.5"/>
<text text-anchor="middle" x="81" y="-103.83" font-family="Times,serif" font-size="14.00">L_run() </text>
</g>
<!-- do3.constprop() &#45;&gt;L_run()  -->
<g id="edge6" class="edge">
<title>do3.constprop() &#45;&gt;L_run() </title>
<path fill="none" stroke="black" d="M83.15,-180.44C82.6,-174.66 82.06,-168.18 81.75,-162.25 81.33,-154.35 81.11,-145.79 81,-137.89"/>
<polygon fill="black" stroke="black" points="84.5,-138.1 80.92,-128.13 77.5,-138.16 84.5,-138.1"/>
<text text-anchor="middle" x="137.62" y="-148.95" font-family="Times,serif" font-size="14.00">inlined cb=BAD</text>
</g>
</g>
</svg>
