<?xml version="1.0" encoding="UTF-8" standalone="no"?>
<!DOCTYPE svg PUBLIC "-//W3C//DTD SVG 1.1//EN"
 "http://www.w3.org/Graphics/SVG/1.1/DTD/svg11.dtd">
<!-- Generated by graphviz version 9.0.0 (0)
 -->
<!-- Pages: 1 -->
<svg width="880pt" height="357pt"
 viewBox="0.00 0.00 880.00 356.75" xmlns="http://www.w3.org/2000/svg" xmlns:xlink="http://www.w3.org/1999/xlink">
<g id="graph0" class="graph" transform="scale(1 1) rotate(0) translate(4 352.75)">
<polygon fill="white" stroke="none" points="-4,4 -4,-352.75 876,-352.75 876,4 -4,4"/>
<g id="clust1" class="cluster">
<title>clusterBefore</title>
<polygon fill="none" stroke="black" points="8,-8 8,-340.75 371,-340.75 371,-8 8,-8"/>
<text text-anchor="middle" x="189.5" y="-323.45" font-family="Times,serif" font-size="14.00">before</text>
</g>
<g id="clust2" class="cluster">
<title>clusterAfter</title>
<polygon fill="none" stroke="black" points="379,-8 379,-340.75 864,-340.75 864,-8 379,-8"/>
<text text-anchor="middle" x="621.5" y="-323.45" font-family="Times,serif" font-size="14.00">after (good, ideal)</text>
</g>
<!-- main() -->
<g id="node1" class="node">
<title>main()</title>
<polygon fill="none" stroke="black" points="220.12,-271 220.12,-307 281.88,-307 281.88,-271 220.12,-271"/>
<text text-anchor="middle" x="251" y="-284.32" font-family="Times,serif" font-size="14.00">main()</text>
</g>
<!-- do1(Expired) -->
<g id="node2" class="node">
<title>do1(Expired)</title>
<polygon fill="none" stroke="black" points="99.5,-180.75 99.5,-216.75 208.5,-216.75 208.5,-180.75 99.5,-180.75"/>
<text text-anchor="middle" x="154" y="-194.07" font-family="Times,serif" font-size="14.00">do1(Expired)</text>
</g>
<!-- main()&#45;&gt;do1(Expired) -->
<g id="edge1" class="edge">
<title>main()&#45;&gt;do1(Expired)</title>
<path fill="none" stroke="black" d="M231.84,-270.56C217.49,-257.51 197.65,-239.46 181.6,-224.86"/>
<polygon fill="black" stroke="black" points="184,-222.31 174.24,-218.17 179.29,-227.49 184,-222.31"/>
<text text-anchor="middle" x="290.88" y="-239.2" font-family="Times,serif" font-size="14.00">Expired={cb=GOOD}</text>
</g>
<!-- do3(punused, Expired) -->
<g id="node4" class="node">
<title>do3(punused, Expired)</title>
<polygon fill="none" stroke="black" points="64.62,-106.75 64.62,-142.75 243.38,-142.75 243.38,-106.75 64.62,-106.75"/>
<text text-anchor="middle" x="154" y="-120.08" font-family="Times,serif" font-size="14.00">do3(punused, Expired)</text>
</g>
<!-- do1(Expired)&#45;&gt;do3(punused, Expired) -->
<g id="edge3" class="edge">
<title>do1(Expired)&#45;&gt;do3(punused, Expired)</title>
<path fill="none" stroke="black" d="M154,-180.32C154,-172.54 154,-163.16 154,-154.39"/>
<polygon fill="black" stroke="black" points="157.5,-154.53 154,-144.53 150.5,-154.53 157.5,-154.53"/>
</g>
<!-- seemingly_unused_foo() -->
<g id="node3" class="node">
<title>seemingly_unused_foo()</title>
<polygon fill="none" stroke="black" points="15.88,-271 15.88,-307 202.12,-307 202.12,-271 15.88,-271"/>
<text text-anchor="middle" x="109" y="-284.32" font-family="Times,serif" font-size="14.00">seemingly_unused_foo()</text>
</g>
<!-- seemingly_unused_foo()&#45;&gt;do1(Expired) -->
<g id="edge2" class="edge">
<title>seemingly_unused_foo()&#45;&gt;do1(Expired)</title>
<path fill="none" stroke="black" d="M55.86,-270.65C37.52,-261.74 23.97,-249.7 34.75,-235.25 47.33,-218.37 67.62,-209.2 87.92,-204.31"/>
<polygon fill="black" stroke="black" points="88.57,-207.75 97.66,-202.32 87.16,-200.9 88.57,-207.75"/>
<text text-anchor="middle" x="107.12" y="-239.2" font-family="Times,serif" font-size="14.00">Expired={cb=BAD}</text>
</g>
<!-- do3(punused, Expired)&#45;&gt;do3(punused, Expired) -->
<g id="edge4" class="edge">
<title>do3(punused, Expired)&#45;&gt;do3(punused, Expired)</title>
<path fill="none" stroke="black" d="M243.68,-130.71C254.38,-129.63 261.38,-127.64 261.38,-124.75 261.38,-123.08 259.04,-121.71 255,-120.64"/>
<polygon fill="black" stroke="black" points="255.61,-117.2 245.17,-119.03 254.48,-124.1 255.61,-117.2"/>
</g>
<!-- (*cb)() -->
<g id="node5" class="node">
<title>(*cb)()</title>
<polygon fill="none" stroke="black" points="123.88,-16.5 123.88,-52.5 184.12,-52.5 184.12,-16.5 123.88,-16.5"/>
<text text-anchor="middle" x="154" y="-29.82" font-family="Times,serif" font-size="14.00">(*cb)()</text>
</g>
<!-- do3(punused, Expired)&#45;&gt;(*cb)() -->
<g id="edge5" class="edge">
<title>do3(punused, Expired)&#45;&gt;(*cb)()</title>
<path fill="none" stroke="black" d="M154,-106.31C154,-94.35 154,-78.19 154,-64.33"/>
<polygon fill="black" stroke="black" points="157.5,-64.41 154,-54.41 150.5,-64.41 157.5,-64.41"/>
</g>
<!-- main()  -->
<g id="node6" class="node">
<title>main() </title>
<polygon fill="none" stroke="black" points="662.88,-271 662.88,-307 729.12,-307 729.12,-271 662.88,-271"/>
<text text-anchor="middle" x="696" y="-284.32" font-family="Times,serif" font-size="14.00">main() </text>
</g>
<!-- do1.constprop.1()  -->
<g id="node7" class="node">
<title>do1.constprop.1() </title>
<polygon fill="none" stroke="black" points="641.75,-180.75 641.75,-216.75 788.25,-216.75 788.25,-180.75 641.75,-180.75"/>
<text text-anchor="middle" x="715" y="-194.07" font-family="Times,serif" font-size="14.00">do1.constprop.1() </text>
</g>
<!-- main() &#45;&gt;do1.constprop.1()  -->
<g id="edge6" class="edge">
<title>main() &#45;&gt;do1.constprop.1() </title>
<path fill="none" stroke="green" d="M699.75,-270.56C702.36,-258.48 705.88,-242.11 708.88,-228.16"/>
<polygon fill="green" stroke="green" points="712.25,-229.14 710.94,-218.63 705.41,-227.67 712.25,-229.14"/>
<text text-anchor="middle" x="786.88" y="-239.2" font-family="Times,serif" font-size="14.00">cb=GOOD (constprop)</text>
</g>
<!-- do3.constprop.1(punused)  -->
<g id="node10" class="node">
<title>do3.constprop.1(punused) </title>
<polygon fill="none" stroke="black" points="630.38,-106.75 630.38,-142.75 837.62,-142.75 837.62,-106.75 630.38,-106.75"/>
<text text-anchor="middle" x="734" y="-120.08" font-family="Times,serif" font-size="14.00">do3.constprop.1(punused) </text>
</g>
<!-- do1.constprop.1() &#45;&gt;do3.constprop.1(punused)  -->
<g id="edge8" class="edge">
<title>do1.constprop.1() &#45;&gt;do3.constprop.1(punused) </title>
<path fill="none" stroke="black" d="M719.6,-180.32C721.68,-172.45 724.18,-162.95 726.52,-154.09"/>
<polygon fill="black" stroke="black" points="729.89,-155.04 729.06,-144.48 723.12,-153.26 729.89,-155.04"/>
</g>
<!-- seemingly_unused_foo()  -->
<g id="node8" class="node">
<title>seemingly_unused_foo() </title>
<polygon fill="none" stroke="black" points="395.62,-271 395.62,-307 586.38,-307 586.38,-271 395.62,-271"/>
<text text-anchor="middle" x="491" y="-284.32" font-family="Times,serif" font-size="14.00">seemingly_unused_foo() </text>
</g>
<!-- do1.constprop.2()  -->
<g id="node9" class="node">
<title>do1.constprop.2() </title>
<polygon fill="none" stroke="black" points="417.75,-180.75 417.75,-216.75 564.25,-216.75 564.25,-180.75 417.75,-180.75"/>
<text text-anchor="middle" x="491" y="-194.07" font-family="Times,serif" font-size="14.00">do1.constprop.2() </text>
</g>
<!-- seemingly_unused_foo() &#45;&gt;do1.constprop.2()  -->
<g id="edge7" class="edge">
<title>seemingly_unused_foo() &#45;&gt;do1.constprop.2() </title>
<path fill="none" stroke="green" d="M491,-270.56C491,-258.6 491,-242.44 491,-228.58"/>
<polygon fill="green" stroke="green" points="494.5,-228.66 491,-218.66 487.5,-228.66 494.5,-228.66"/>
<text text-anchor="middle" x="564.12" y="-239.2" font-family="Times,serif" font-size="14.00">cb=BAD (constprop)</text>
</g>
<!-- do3.constprop.2(punused)  -->
<g id="node11" class="node">
<title>do3.constprop.2(punused) </title>
<polygon fill="none" stroke="black" points="387.38,-106.75 387.38,-142.75 594.62,-142.75 594.62,-106.75 387.38,-106.75"/>
<text text-anchor="middle" x="491" y="-120.08" font-family="Times,serif" font-size="14.00">do3.constprop.2(punused) </text>
</g>
<!-- do1.constprop.2() &#45;&gt;do3.constprop.2(punused)  -->
<g id="edge9" class="edge">
<title>do1.constprop.2() &#45;&gt;do3.constprop.2(punused) </title>
<path fill="none" stroke="black" d="M491,-180.32C491,-172.54 491,-163.16 491,-154.39"/>
<polygon fill="black" stroke="black" points="494.5,-154.53 491,-144.53 487.5,-154.53 494.5,-154.53"/>
</g>
<!-- do3.constprop.1(punused) &#45;&gt;do3.constprop.1(punused)  -->
<g id="edge10" class="edge">
<title>do3.constprop.1(punused) &#45;&gt;do3.constprop.1(punused) </title>
<path fill="none" stroke="black" d="M837.81,-130.5C848.67,-129.38 855.62,-127.46 855.62,-124.75 855.62,-123.14 853.17,-121.81 848.9,-120.76"/>
<polygon fill="black" stroke="black" points="849.72,-117.35 839.3,-119.24 848.63,-124.26 849.72,-117.35"/>
</g>
<!-- print GOOD  -->
<g id="node12" class="node">
<title>print GOOD </title>
<polygon fill="none" stroke="black" points="681.38,-16.5 681.38,-52.5 786.62,-52.5 786.62,-16.5 681.38,-16.5"/>
<text text-anchor="middle" x="734" y="-29.82" font-family="Times,serif" font-size="14.00">print GOOD </text>
</g>
<!-- do3.constprop.1(punused) &#45;&gt;print GOOD  -->
<g id="edge12" class="edge">
<title>do3.constprop.1(punused) &#45;&gt;print GOOD </title>
<path fill="none" stroke="green" d="M734,-106.31C734,-94.35 734,-78.19 734,-64.33"/>
<polygon fill="green" stroke="green" points="737.5,-64.41 734,-54.41 730.5,-64.41 737.5,-64.41"/>
<text text-anchor="middle" x="758.38" y="-74.95" font-family="Times,serif" font-size="14.00">inlined</text>
</g>
<!-- do3.constprop.2(punused) &#45;&gt;do3.constprop.2(punused)  -->
<g id="edge11" class="edge">
<title>do3.constprop.2(punused) &#45;&gt;do3.constprop.2(punused) </title>
<path fill="none" stroke="black" d="M594.81,-130.5C605.67,-129.38 612.62,-127.46 612.62,-124.75 612.62,-123.14 610.17,-121.81 605.9,-120.76"/>
<polygon fill="black" stroke="black" points="606.72,-117.35 596.3,-119.24 605.63,-124.26 606.72,-117.35"/>
</g>
<!-- print BAD  -->
<g id="node13" class="node">
<title>print BAD </title>
<polygon fill="none" stroke="black" points="445.12,-16.5 445.12,-52.5 536.88,-52.5 536.88,-16.5 445.12,-16.5"/>
<text text-anchor="middle" x="491" y="-29.82" font-family="Times,serif" font-size="14.00">print BAD </text>
</g>
<!-- do3.constprop.2(punused) &#45;&gt;print BAD  -->
<g id="edge13" class="edge">
<title>do3.constprop.2(punused) &#45;&gt;print BAD </title>
<path fill="none" stroke="green" d="M491,-106.31C491,-94.35 491,-78.19 491,-64.33"/>
<polygon fill="green" stroke="green" points="494.5,-64.41 491,-54.41 487.5,-64.41 494.5,-64.41"/>
<text text-anchor="middle" x="515.38" y="-74.95" font-family="Times,serif" font-size="14.00">inlined</text>
</g>
</g>
</svg>
