<?xml version="1.0" encoding="UTF-8" standalone="no"?>
<!DOCTYPE svg PUBLIC "-//W3C//DTD SVG 1.1//EN"
 "http://www.w3.org/Graphics/SVG/1.1/DTD/svg11.dtd">
<!-- Generated by graphviz version 12.2.1 (0)
 -->
<!-- Pages: 1 -->
<svg width="326pt" height="357pt"
 viewBox="0.00 0.00 326.00 356.75" xmlns="http://www.w3.org/2000/svg" xmlns:xlink="http://www.w3.org/1999/xlink">
<g id="graph0" class="graph" transform="scale(1 1) rotate(0) translate(4 352.75)">
<polygon fill="white" stroke="none" points="-4,4 -4,-352.75 322,-352.75 322,4 -4,4"/>
<g id="clust1" class="cluster">
<title>clusterAfter</title>
<polygon fill="none" stroke="black" points="8,-8 8,-340.75 310,-340.75 310,-8 8,-8"/>
<text text-anchor="middle" x="159" y="-323.45" font-family="Times,serif" font-size="14.00">after (bad, actual)</text>
</g>
<!-- main()  -->
<g id="node1" class="node">
<title>main() </title>
<polygon fill="none" stroke="black" points="21.88,-271 21.88,-307 88.12,-307 88.12,-271 21.88,-271"/>
<text text-anchor="middle" x="55" y="-284.32" font-family="Times,serif" font-size="14.00">main() </text>
</g>
<!-- print GOOD  -->
<g id="node2" class="node">
<title>print GOOD </title>
<polygon fill="none" stroke="black" points="16.38,-180.75 16.38,-216.75 121.62,-216.75 121.62,-180.75 16.38,-180.75"/>
<text text-anchor="middle" x="69" y="-194.07" font-family="Times,serif" font-size="14.00">print GOOD </text>
</g>
<!-- main() &#45;&gt;print GOOD  -->
<g id="edge1" class="edge">
<title>main() &#45;&gt;print GOOD </title>
<path fill="none" stroke="green" d="M41.93,-270.82C35.7,-260.47 30.53,-247.06 35.25,-235.25 36.56,-231.96 38.34,-228.8 40.4,-225.82"/>
<polygon fill="green" stroke="green" points="43.1,-228.05 46.75,-218.11 37.69,-223.61 43.1,-228.05"/>
<text text-anchor="middle" x="98.62" y="-239.2" font-family="Times,serif" font-size="14.00">cb=GOOD inlined</text>
</g>
<!-- do1.constprop()  -->
<g id="node3" class="node">
<title>do1.constprop() </title>
<polygon fill="none" stroke="black" points="139.5,-180.75 139.5,-216.75 272.5,-216.75 272.5,-180.75 139.5,-180.75"/>
<text text-anchor="middle" x="206" y="-194.07" font-family="Times,serif" font-size="14.00">do1.constprop() </text>
</g>
<!-- main() &#45;&gt;do1.constprop()  -->
<g id="edge2" class="edge">
<title>main() &#45;&gt;do1.constprop() </title>
<path fill="none" stroke="red" d="M88.49,-275.53C93.34,-273.8 98.29,-272.08 103,-270.5 129,-261.8 139.16,-267.66 162,-252.5 172.28,-245.68 181.45,-235.75 188.71,-226.34"/>
<polygon fill="red" stroke="red" points="191.38,-228.61 194.42,-218.47 185.72,-224.5 191.38,-228.61"/>
<text text-anchor="middle" x="197.49" y="-239.2" font-family="Times,serif" font-size="14.00">Bug!</text>
</g>
<!-- do3.constprop(punused)  -->
<g id="node5" class="node">
<title>do3.constprop(punused) </title>
<polygon fill="none" stroke="black" points="90.12,-106.75 90.12,-142.75 283.88,-142.75 283.88,-106.75 90.12,-106.75"/>
<text text-anchor="middle" x="187" y="-120.08" font-family="Times,serif" font-size="14.00">do3.constprop(punused) </text>
</g>
<!-- do1.constprop() &#45;&gt;do3.constprop(punused)  -->
<g id="edge4" class="edge">
<title>do1.constprop() &#45;&gt;do3.constprop(punused) </title>
<path fill="none" stroke="black" d="M201.4,-180.32C199.32,-172.45 196.82,-162.95 194.48,-154.09"/>
<polygon fill="black" stroke="black" points="197.88,-153.26 191.94,-144.48 191.11,-155.04 197.88,-153.26"/>
</g>
<!-- seemingly_unused_foo()  -->
<g id="node4" class="node">
<title>seemingly_unused_foo() </title>
<polygon fill="none" stroke="black" points="111.62,-271 111.62,-307 302.38,-307 302.38,-271 111.62,-271"/>
<text text-anchor="middle" x="207" y="-284.32" font-family="Times,serif" font-size="14.00">seemingly_unused_foo() </text>
</g>
<!-- seemingly_unused_foo() &#45;&gt;do1.constprop()  -->
<g id="edge3" class="edge">
<title>seemingly_unused_foo() &#45;&gt;do1.constprop() </title>
<path fill="none" stroke="green" d="M215.19,-270.52C219,-260.3 222.25,-247.11 220,-235.25 219.53,-232.76 218.88,-230.23 218.13,-227.72"/>
<polygon fill="green" stroke="green" points="221.49,-226.72 214.84,-218.48 214.9,-229.08 221.49,-226.72"/>
<text text-anchor="middle" x="250.74" y="-239.2" font-family="Times,serif" font-size="14.00">cb=BAD</text>
</g>
<!-- do3.constprop(punused) &#45;&gt;do3.constprop(punused)  -->
<g id="edge5" class="edge">
<title>do3.constprop(punused) &#45;&gt;do3.constprop(punused) </title>
<path fill="none" stroke="black" d="M284.22,-130.59C294.95,-129.48 301.88,-127.53 301.88,-124.75 301.88,-123.14 299.56,-121.81 295.53,-120.76"/>
<polygon fill="black" stroke="black" points="296.14,-117.32 285.71,-119.16 295.01,-124.23 296.14,-117.32"/>
</g>
<!-- print BAD  -->
<g id="node6" class="node">
<title>print BAD </title>
<polygon fill="none" stroke="black" points="141.12,-16.5 141.12,-52.5 232.88,-52.5 232.88,-16.5 141.12,-16.5"/>
<text text-anchor="middle" x="187" y="-29.82" font-family="Times,serif" font-size="14.00">print BAD </text>
</g>
<!-- do3.constprop(punused) &#45;&gt;print BAD  -->
<g id="edge6" class="edge">
<title>do3.constprop(punused) &#45;&gt;print BAD </title>
<path fill="none" stroke="green" d="M187,-106.31C187,-94.35 187,-78.19 187,-64.33"/>
<polygon fill="green" stroke="green" points="190.5,-64.41 187,-54.41 183.5,-64.41 190.5,-64.41"/>
<text text-anchor="middle" x="211.38" y="-74.95" font-family="Times,serif" font-size="14.00">inlined</text>
</g>
</g>
</svg>
