<?xml version="1.0" encoding="UTF-8" standalone="no"?>
<!DOCTYPE svg PUBLIC "-//W3C//DTD SVG 1.1//EN"
 "http://www.w3.org/Graphics/SVG/1.1/DTD/svg11.dtd">
<!-- Generated by graphviz version 7.1.0 (0)
 -->
<!-- Pages: 1 -->
<svg width="882pt" height="350pt"
 viewBox="0.00 0.00 882.00 350.00" xmlns="http://www.w3.org/2000/svg" xmlns:xlink="http://www.w3.org/1999/xlink">
<g id="graph0" class="graph" transform="scale(1 1) rotate(0) translate(4 346)">
<polygon fill="white" stroke="none" points="-4,4 -4,-346 878,-346 878,4 -4,4"/>
<g id="clust1" class="cluster">
<title>clusterBefore</title>
<polygon fill="none" stroke="black" points="8,-8 8,-334 372,-334 372,-8 8,-8"/>
<text text-anchor="middle" x="190" y="-318.8" font-family="Times,serif" font-size="14.00">before</text>
</g>
<g id="clust2" class="cluster">
<title>clusterAfter</title>
<polygon fill="none" stroke="black" points="380,-8 380,-334 866,-334 866,-8 380,-8"/>
<text text-anchor="middle" x="623" y="-318.8" font-family="Times,serif" font-size="14.00">after (good, ideal)</text>
</g>
<!-- main() -->
<g id="node1" class="node">
<title>main()</title>
<polygon fill="none" stroke="black" points="222,-266.5 222,-302.5 284,-302.5 284,-266.5 222,-266.5"/>
<text text-anchor="middle" x="253" y="-280.8" font-family="Times,serif" font-size="14.00">main()</text>
</g>
<!-- do1(Expired) -->
<g id="node2" class="node">
<title>do1(Expired)</title>
<polygon fill="none" stroke="black" points="100,-178.5 100,-214.5 210,-214.5 210,-178.5 100,-178.5"/>
<text text-anchor="middle" x="155" y="-192.8" font-family="Times,serif" font-size="14.00">do1(Expired)</text>
</g>
<!-- main()&#45;&gt;do1(Expired) -->
<g id="edge1" class="edge">
<title>main()&#45;&gt;do1(Expired)</title>
<path fill="none" stroke="black" d="M233.64,-266.51C219.14,-253.79 199.1,-236.2 182.88,-221.97"/>
<polygon fill="black" stroke="black" points="185.28,-219.42 175.46,-215.45 180.67,-224.68 185.28,-219.42"/>
<text text-anchor="middle" x="289" y="-236.8" font-family="Times,serif" font-size="14.00">Expired={cb=GOOD}</text>
</g>
<!-- do3(punused, Expired) -->
<g id="node4" class="node">
<title>do3(punused, Expired)</title>
<polygon fill="none" stroke="black" points="65.5,-104.5 65.5,-140.5 244.5,-140.5 244.5,-104.5 65.5,-104.5"/>
<text text-anchor="middle" x="155" y="-118.8" font-family="Times,serif" font-size="14.00">do3(punused, Expired)</text>
</g>
<!-- do1(Expired)&#45;&gt;do3(punused, Expired) -->
<g id="edge3" class="edge">
<title>do1(Expired)&#45;&gt;do3(punused, Expired)</title>
<path fill="none" stroke="black" d="M155,-178.8C155,-170.71 155,-160.78 155,-151.57"/>
<polygon fill="black" stroke="black" points="158.5,-151.62 155,-141.62 151.5,-151.62 158.5,-151.62"/>
</g>
<!-- seemingly_unused_foo() -->
<g id="node3" class="node">
<title>seemingly_unused_foo()</title>
<polygon fill="none" stroke="black" points="16.5,-266.5 16.5,-302.5 203.5,-302.5 203.5,-266.5 16.5,-266.5"/>
<text text-anchor="middle" x="110" y="-280.8" font-family="Times,serif" font-size="14.00">seemingly_unused_foo()</text>
</g>
<!-- seemingly_unused_foo()&#45;&gt;do1(Expired) -->
<g id="edge2" class="edge">
<title>seemingly_unused_foo()&#45;&gt;do1(Expired)</title>
<path fill="none" stroke="black" d="M55.04,-266.68C37.29,-258.31 24.57,-246.96 35,-233 47.78,-215.89 68.45,-206.68 89.06,-201.83"/>
<polygon fill="black" stroke="black" points="89.52,-205.31 98.64,-199.92 88.14,-198.45 89.52,-205.31"/>
<text text-anchor="middle" x="108.5" y="-236.8" font-family="Times,serif" font-size="14.00">Expired={cb=BAD}</text>
</g>
<!-- do3(punused, Expired)&#45;&gt;do3(punused, Expired) -->
<g id="edge4" class="edge">
<title>do3(punused, Expired)&#45;&gt;do3(punused, Expired)</title>
<path fill="none" stroke="black" d="M244.38,-128.5C255.33,-127.43 262.5,-125.43 262.5,-122.5 262.5,-120.76 259.97,-119.35 255.62,-118.27"/>
<polygon fill="black" stroke="black" points="256.3,-114.83 245.88,-116.73 255.21,-121.74 256.3,-114.83"/>
</g>
<!-- (*cb)() -->
<g id="node5" class="node">
<title>(*cb)()</title>
<polygon fill="none" stroke="black" points="124.5,-16.5 124.5,-52.5 185.5,-52.5 185.5,-16.5 124.5,-16.5"/>
<text text-anchor="middle" x="155" y="-30.8" font-family="Times,serif" font-size="14.00">(*cb)()</text>
</g>
<!-- do3(punused, Expired)&#45;&gt;(*cb)() -->
<g id="edge5" class="edge">
<title>do3(punused, Expired)&#45;&gt;(*cb)()</title>
<path fill="none" stroke="black" d="M155,-104.51C155,-92.85 155,-77.1 155,-63.59"/>
<polygon fill="black" stroke="black" points="158.5,-63.97 155,-53.97 151.5,-63.97 158.5,-63.97"/>
</g>
<!-- main()  -->
<g id="node6" class="node">
<title>main() </title>
<polygon fill="none" stroke="black" points="664.5,-266.5 664.5,-302.5 731.5,-302.5 731.5,-266.5 664.5,-266.5"/>
<text text-anchor="middle" x="698" y="-280.8" font-family="Times,serif" font-size="14.00">main() </text>
</g>
<!-- do1.constprop.1()  -->
<g id="node7" class="node">
<title>do1.constprop.1() </title>
<polygon fill="none" stroke="black" points="643.5,-178.5 643.5,-214.5 790.5,-214.5 790.5,-178.5 643.5,-178.5"/>
<text text-anchor="middle" x="717" y="-192.8" font-family="Times,serif" font-size="14.00">do1.constprop.1() </text>
</g>
<!-- main() &#45;&gt;do1.constprop.1()  -->
<g id="edge6" class="edge">
<title>main() &#45;&gt;do1.constprop.1() </title>
<path fill="none" stroke="green" d="M701.75,-266.51C704.33,-254.85 707.81,-239.1 710.79,-225.59"/>
<polygon fill="green" stroke="green" points="714.19,-226.45 712.93,-215.93 707.35,-224.94 714.19,-226.45"/>
<text text-anchor="middle" x="788" y="-236.8" font-family="Times,serif" font-size="14.00">cb=GOOD (constprop)</text>
</g>
<!-- do3.constprop.1(punused)  -->
<g id="node10" class="node">
<title>do3.constprop.1(punused) </title>
<polygon fill="none" stroke="black" points="632,-104.5 632,-140.5 840,-140.5 840,-104.5 632,-104.5"/>
<text text-anchor="middle" x="736" y="-118.8" font-family="Times,serif" font-size="14.00">do3.constprop.1(punused) </text>
</g>
<!-- do1.constprop.1() &#45;&gt;do3.constprop.1(punused)  -->
<g id="edge8" class="edge">
<title>do1.constprop.1() &#45;&gt;do3.constprop.1(punused) </title>
<path fill="none" stroke="black" d="M721.41,-178.8C723.59,-170.53 726.28,-160.33 728.75,-150.96"/>
<polygon fill="black" stroke="black" points="732.06,-152.13 731.23,-141.57 725.3,-150.35 732.06,-152.13"/>
</g>
<!-- seemingly_unused_foo()  -->
<g id="node8" class="node">
<title>seemingly_unused_foo() </title>
<polygon fill="none" stroke="black" points="396.5,-266.5 396.5,-302.5 587.5,-302.5 587.5,-266.5 396.5,-266.5"/>
<text text-anchor="middle" x="492" y="-280.8" font-family="Times,serif" font-size="14.00">seemingly_unused_foo() </text>
</g>
<!-- do1.constprop.2()  -->
<g id="node9" class="node">
<title>do1.constprop.2() </title>
<polygon fill="none" stroke="black" points="418.5,-178.5 418.5,-214.5 565.5,-214.5 565.5,-178.5 418.5,-178.5"/>
<text text-anchor="middle" x="492" y="-192.8" font-family="Times,serif" font-size="14.00">do1.constprop.2() </text>
</g>
<!-- seemingly_unused_foo() &#45;&gt;do1.constprop.2()  -->
<g id="edge7" class="edge">
<title>seemingly_unused_foo() &#45;&gt;do1.constprop.2() </title>
<path fill="none" stroke="green" d="M492,-266.51C492,-254.85 492,-239.1 492,-225.59"/>
<polygon fill="green" stroke="green" points="495.5,-225.97 492,-215.97 488.5,-225.97 495.5,-225.97"/>
<text text-anchor="middle" x="565.5" y="-236.8" font-family="Times,serif" font-size="14.00">cb=BAD (constprop)</text>
</g>
<!-- do3.constprop.2(punused)  -->
<g id="node11" class="node">
<title>do3.constprop.2(punused) </title>
<polygon fill="none" stroke="black" points="388,-104.5 388,-140.5 596,-140.5 596,-104.5 388,-104.5"/>
<text text-anchor="middle" x="492" y="-118.8" font-family="Times,serif" font-size="14.00">do3.constprop.2(punused) </text>
</g>
<!-- do1.constprop.2() &#45;&gt;do3.constprop.2(punused)  -->
<g id="edge9" class="edge">
<title>do1.constprop.2() &#45;&gt;do3.constprop.2(punused) </title>
<path fill="none" stroke="black" d="M492,-178.8C492,-170.71 492,-160.78 492,-151.57"/>
<polygon fill="black" stroke="black" points="495.5,-151.62 492,-141.62 488.5,-151.62 495.5,-151.62"/>
</g>
<!-- do3.constprop.1(punused) &#45;&gt;do3.constprop.1(punused)  -->
<g id="edge10" class="edge">
<title>do3.constprop.1(punused) &#45;&gt;do3.constprop.1(punused) </title>
<path fill="none" stroke="black" d="M839.69,-128.29C850.83,-127.18 858,-125.25 858,-122.5 858,-120.83 855.34,-119.46 850.74,-118.39"/>
<polygon fill="black" stroke="black" points="851.6,-114.98 841.18,-116.94 850.54,-121.9 851.6,-114.98"/>
</g>
<!-- print GOOD  -->
<g id="node12" class="node">
<title>print GOOD </title>
<polygon fill="none" stroke="black" points="683,-16.5 683,-52.5 789,-52.5 789,-16.5 683,-16.5"/>
<text text-anchor="middle" x="736" y="-30.8" font-family="Times,serif" font-size="14.00">print GOOD </text>
</g>
<!-- do3.constprop.1(punused) &#45;&gt;print GOOD  -->
<g id="edge12" class="edge">
<title>do3.constprop.1(punused) &#45;&gt;print GOOD </title>
<path fill="none" stroke="green" d="M736,-104.51C736,-92.85 736,-77.1 736,-63.59"/>
<polygon fill="green" stroke="green" points="739.5,-63.97 736,-53.97 732.5,-63.97 739.5,-63.97"/>
<text text-anchor="middle" x="760.5" y="-74.8" font-family="Times,serif" font-size="14.00">inlined</text>
</g>
<!-- do3.constprop.2(punused) &#45;&gt;do3.constprop.2(punused)  -->
<g id="edge11" class="edge">
<title>do3.constprop.2(punused) &#45;&gt;do3.constprop.2(punused) </title>
<path fill="none" stroke="black" d="M595.69,-128.29C606.83,-127.18 614,-125.25 614,-122.5 614,-120.83 611.34,-119.46 606.74,-118.39"/>
<polygon fill="black" stroke="black" points="607.6,-114.98 597.18,-116.94 606.54,-121.9 607.6,-114.98"/>
</g>
<!-- print BAD  -->
<g id="node13" class="node">
<title>print BAD </title>
<polygon fill="none" stroke="black" points="446,-16.5 446,-52.5 538,-52.5 538,-16.5 446,-16.5"/>
<text text-anchor="middle" x="492" y="-30.8" font-family="Times,serif" font-size="14.00">print BAD </text>
</g>
<!-- do3.constprop.2(punused) &#45;&gt;print BAD  -->
<g id="edge13" class="edge">
<title>do3.constprop.2(punused) &#45;&gt;print BAD </title>
<path fill="none" stroke="green" d="M492,-104.51C492,-92.85 492,-77.1 492,-63.59"/>
<polygon fill="green" stroke="green" points="495.5,-63.97 492,-53.97 488.5,-63.97 495.5,-63.97"/>
<text text-anchor="middle" x="516.5" y="-74.8" font-family="Times,serif" font-size="14.00">inlined</text>
</g>
</g>
</svg>
