<?xml version="1.0" encoding="UTF-8" standalone="no"?>
<!DOCTYPE svg PUBLIC "-//W3C//DTD SVG 1.1//EN"
 "http://www.w3.org/Graphics/SVG/1.1/DTD/svg11.dtd">
<!-- Generated by graphviz version 7.1.0 (0)
 -->
<!-- Pages: 1 -->
<svg width="383pt" height="350pt"
 viewBox="0.00 0.00 383.00 350.00" xmlns="http://www.w3.org/2000/svg" xmlns:xlink="http://www.w3.org/1999/xlink">
<g id="graph0" class="graph" transform="scale(1 1) rotate(0) translate(4 346)">
<polygon fill="white" stroke="none" points="-4,4 -4,-346 379,-346 379,4 -4,4"/>
<g id="clust1" class="cluster">
<title>clusterAfter</title>
<polygon fill="none" stroke="black" points="8,-8 8,-334 311,-334 311,-8 8,-8"/>
<text text-anchor="middle" x="159.5" y="-318.8" font-family="Times,serif" font-size="14.00">after (bad, actual)</text>
</g>
<!-- main()  -->
<g id="node1" class="node">
<title>main() </title>
<polygon fill="none" stroke="black" points="225.5,-266.5 225.5,-302.5 292.5,-302.5 292.5,-266.5 225.5,-266.5"/>
<text text-anchor="middle" x="259" y="-280.8" font-family="Times,serif" font-size="14.00">main() </text>
</g>
<!-- print GOOD  -->
<g id="node2" class="node">
<title>print GOOD </title>
<polygon fill="none" stroke="black" points="182,-178.5 182,-214.5 288,-214.5 288,-178.5 182,-178.5"/>
<text text-anchor="middle" x="235" y="-192.8" font-family="Times,serif" font-size="14.00">print GOOD </text>
</g>
<!-- main() &#45;&gt;print GOOD  -->
<g id="edge1" class="edge">
<title>main() &#45;&gt;print GOOD </title>
<path fill="none" stroke="green" d="M254.26,-266.51C250.97,-254.73 246.52,-238.78 242.73,-225.18"/>
<polygon fill="green" stroke="green" points="246.2,-224.6 240.14,-215.91 239.46,-226.49 246.2,-224.6"/>
<text text-anchor="middle" x="311.5" y="-236.8" font-family="Times,serif" font-size="14.00">cb=GOOD inlined</text>
</g>
<!-- do1.constprop()  -->
<g id="node3" class="node">
<title>do1.constprop() </title>
<polygon fill="none" stroke="black" points="30,-178.5 30,-214.5 164,-214.5 164,-178.5 30,-178.5"/>
<text text-anchor="middle" x="97" y="-192.8" font-family="Times,serif" font-size="14.00">do1.constprop() </text>
</g>
<!-- main() &#45;&gt;do1.constprop()  -->
<g id="edge2" class="edge">
<title>main() &#45;&gt;do1.constprop() </title>
<path fill="none" stroke="red" d="M226.99,-266.51C201.81,-253.14 166.51,-234.4 139.04,-219.82"/>
<polygon fill="red" stroke="red" points="140.75,-216.76 130.28,-215.17 137.47,-222.95 140.75,-216.76"/>
<text text-anchor="middle" x="204.5" y="-236.8" font-family="Times,serif" font-size="14.00">Bug!</text>
</g>
<!-- do3.constprop(punused)  -->
<g id="node5" class="node">
<title>do3.constprop(punused) </title>
<polygon fill="none" stroke="black" points="16,-104.5 16,-140.5 210,-140.5 210,-104.5 16,-104.5"/>
<text text-anchor="middle" x="113" y="-118.8" font-family="Times,serif" font-size="14.00">do3.constprop(punused) </text>
</g>
<!-- do1.constprop() &#45;&gt;do3.constprop(punused)  -->
<g id="edge4" class="edge">
<title>do1.constprop() &#45;&gt;do3.constprop(punused) </title>
<path fill="none" stroke="black" d="M100.71,-178.8C102.53,-170.62 104.77,-160.56 106.83,-151.26"/>
<polygon fill="black" stroke="black" points="110.23,-152.11 108.98,-141.59 103.39,-150.59 110.23,-152.11"/>
</g>
<!-- seemingly_unused_foo()  -->
<g id="node4" class="node">
<title>seemingly_unused_foo() </title>
<polygon fill="none" stroke="black" points="16.5,-266.5 16.5,-302.5 207.5,-302.5 207.5,-266.5 16.5,-266.5"/>
<text text-anchor="middle" x="112" y="-280.8" font-family="Times,serif" font-size="14.00">seemingly_unused_foo() </text>
</g>
<!-- seemingly_unused_foo() &#45;&gt;do1.constprop()  -->
<g id="edge3" class="edge">
<title>seemingly_unused_foo() &#45;&gt;do1.constprop() </title>
<path fill="none" stroke="green" d="M55.22,-266.71C47.2,-261.93 40,-255.81 35,-248 28.28,-237.5 33.91,-228.14 44.05,-220.43"/>
<polygon fill="green" stroke="green" points="45.69,-223.54 52.19,-215.17 41.89,-217.66 45.69,-223.54"/>
<text text-anchor="middle" x="65.5" y="-236.8" font-family="Times,serif" font-size="14.00">cb=BAD</text>
</g>
<!-- do3.constprop(punused) &#45;&gt;do3.constprop(punused)  -->
<g id="edge5" class="edge">
<title>do3.constprop(punused) &#45;&gt;do3.constprop(punused) </title>
<path fill="none" stroke="black" d="M209.9,-128.38C220.88,-127.28 228,-125.32 228,-122.5 228,-120.83 225.49,-119.46 221.15,-118.39"/>
<polygon fill="black" stroke="black" points="221.82,-114.95 211.4,-116.86 220.73,-121.86 221.82,-114.95"/>
</g>
<!-- print BAD  -->
<g id="node6" class="node">
<title>print BAD </title>
<polygon fill="none" stroke="black" points="67,-16.5 67,-52.5 159,-52.5 159,-16.5 67,-16.5"/>
<text text-anchor="middle" x="113" y="-30.8" font-family="Times,serif" font-size="14.00">print BAD </text>
</g>
<!-- do3.constprop(punused) &#45;&gt;print BAD  -->
<g id="edge6" class="edge">
<title>do3.constprop(punused) &#45;&gt;print BAD </title>
<path fill="none" stroke="green" d="M113,-104.51C113,-92.85 113,-77.1 113,-63.59"/>
<polygon fill="green" stroke="green" points="116.5,-63.97 113,-53.97 109.5,-63.97 116.5,-63.97"/>
<text text-anchor="middle" x="137.5" y="-74.8" font-family="Times,serif" font-size="14.00">inlined</text>
</g>
</g>
</svg>
