<?xml version="1.0" encoding="UTF-8" standalone="no"?>
<!DOCTYPE svg PUBLIC "-//W3C//DTD SVG 1.1//EN"
 "http://www.w3.org/Graphics/SVG/1.1/DTD/svg11.dtd">
<!-- Generated by graphviz version 12.2.1 (0)
 -->
<!-- Pages: 1 -->
<svg width="328pt" height="357pt"
 viewBox="0.00 0.00 328.30 356.75" xmlns="http://www.w3.org/2000/svg" xmlns:xlink="http://www.w3.org/1999/xlink">
<g id="graph0" class="graph" transform="scale(1 1) rotate(0) translate(4 352.75)">
<polygon fill="white" stroke="none" points="-4,4 -4,-352.75 324.3,-352.75 324.3,4 -4,4"/>
<g id="clust1" class="cluster">
<title>clusterAfter</title>
<polygon fill="none" stroke="black" points="8,-8 8,-340.75 299,-340.75 299,-8 8,-8"/>
<text text-anchor="middle" x="153.5" y="-323.45" font-family="Times,serif" font-size="14.00">after (fixed, actual)</text>
</g>
<!-- main()  -->
<g id="node1" class="node">
<title>main() </title>
<polygon fill="none" stroke="black" points="15.88,-271 15.88,-307 82.12,-307 82.12,-271 15.88,-271"/>
<text text-anchor="middle" x="49" y="-284.32" font-family="Times,serif" font-size="14.00">main() </text>
</g>
<!-- do1()  -->
<g id="node2" class="node">
<title>do1() </title>
<polygon fill="none" stroke="black" points="19.38,-180.75 19.38,-216.75 76.62,-216.75 76.62,-180.75 19.38,-180.75"/>
<text text-anchor="middle" x="48" y="-194.07" font-family="Times,serif" font-size="14.00">do1() </text>
</g>
<!-- main() &#45;&gt;do1()  -->
<g id="edge1" class="edge">
<title>main() &#45;&gt;do1() </title>
<path fill="none" stroke="black" d="M48.8,-270.56C48.67,-258.6 48.48,-242.44 48.33,-228.58"/>
<polygon fill="black" stroke="black" points="51.83,-228.62 48.21,-218.66 44.83,-228.7 51.83,-228.62"/>
<text text-anchor="middle" x="85.34" y="-239.2" font-family="Times,serif" font-size="14.00">cb=GOOD</text>
</g>
<!-- do3()  -->
<g id="node3" class="node">
<title>do3() </title>
<polygon fill="none" stroke="black" points="18.38,-90.5 18.38,-126.5 75.62,-126.5 75.62,-90.5 18.38,-90.5"/>
<text text-anchor="middle" x="47" y="-103.83" font-family="Times,serif" font-size="14.00">do3() </text>
</g>
<!-- do1() &#45;&gt;do3()  -->
<g id="edge2" class="edge">
<title>do1() &#45;&gt;do3() </title>
<path fill="none" stroke="black" d="M47.8,-180.31C47.67,-168.35 47.48,-152.19 47.33,-138.33"/>
<polygon fill="black" stroke="black" points="50.83,-138.37 47.21,-128.41 43.83,-138.45 50.83,-138.37"/>
<text text-anchor="middle" x="84.34" y="-148.95" font-family="Times,serif" font-size="14.00">cb=GOOD</text>
</g>
<!-- do3() &#45;&gt;do3()  -->
<g id="edge3" class="edge">
<title>do3() &#45;&gt;do3() </title>
<path fill="none" stroke="black" d="M75.68,-115.44C85.61,-115.51 93.62,-113.2 93.62,-108.5 93.62,-105.86 91.09,-103.97 87.1,-102.84"/>
<polygon fill="black" stroke="black" points="87.51,-99.36 77.19,-101.73 86.74,-106.32 87.51,-99.36"/>
<text text-anchor="middle" x="130.38" y="-103.83" font-family="Times,serif" font-size="14.00">cb=GOOD</text>
</g>
<!-- (*cb)() -->
<g id="node7" class="node">
<title>(*cb)()</title>
<polygon fill="none" stroke="black" points="16.88,-16.5 16.88,-52.5 77.12,-52.5 77.12,-16.5 16.88,-16.5"/>
<text text-anchor="middle" x="47" y="-29.82" font-family="Times,serif" font-size="14.00">(*cb)()</text>
</g>
<!-- do3() &#45;&gt;(*cb)() -->
<g id="edge7" class="edge">
<title>do3() &#45;&gt;(*cb)()</title>
<path fill="none" stroke="black" d="M47,-90.07C47,-82.29 47,-72.91 47,-64.14"/>
<polygon fill="black" stroke="black" points="50.5,-64.28 47,-54.28 43.5,-64.28 50.5,-64.28"/>
</g>
<!-- seemingly_unused_foo()  -->
<g id="node4" class="node">
<title>seemingly_unused_foo() </title>
<polygon fill="none" stroke="black" points="100.62,-271 100.62,-307 291.38,-307 291.38,-271 100.62,-271"/>
<text text-anchor="middle" x="196" y="-284.32" font-family="Times,serif" font-size="14.00">seemingly_unused_foo() </text>
</g>
<!-- do3.constprop()  -->
<g id="node5" class="node">
<title>do3.constprop() </title>
<polygon fill="none" stroke="black" points="120.5,-180.75 120.5,-216.75 253.5,-216.75 253.5,-180.75 120.5,-180.75"/>
<text text-anchor="middle" x="187" y="-194.07" font-family="Times,serif" font-size="14.00">do3.constprop() </text>
</g>
<!-- seemingly_unused_foo() &#45;&gt;do3.constprop()  -->
<g id="edge4" class="edge">
<title>seemingly_unused_foo() &#45;&gt;do3.constprop() </title>
<path fill="none" stroke="black" d="M194.22,-270.56C193,-258.6 191.35,-242.44 189.94,-228.58"/>
<polygon fill="black" stroke="black" points="193.42,-228.25 188.93,-218.65 186.46,-228.96 193.42,-228.25"/>
<text text-anchor="middle" x="222.31" y="-239.2" font-family="Times,serif" font-size="14.00">cb=BAD</text>
</g>
<!-- do3.constprop() &#45;&gt;do3.constprop()  -->
<g id="edge5" class="edge">
<title>do3.constprop() &#45;&gt;do3.constprop() </title>
<path fill="none" stroke="black" d="M253.94,-206.5C264.38,-205.34 271.5,-202.76 271.5,-198.75 271.5,-196.43 269.12,-194.59 265.1,-193.22"/>
<polygon fill="black" stroke="black" points="265.92,-189.82 255.43,-191.29 264.55,-196.68 265.92,-189.82"/>
</g>
<!-- L_run()  -->
<g id="node6" class="node">
<title>L_run() </title>
<polygon fill="none" stroke="black" points="185.25,-90.5 185.25,-126.5 256.75,-126.5 256.75,-90.5 185.25,-90.5"/>
<text text-anchor="middle" x="221" y="-103.83" font-family="Times,serif" font-size="14.00">L_run() </text>
</g>
<!-- do3.constprop() &#45;&gt;L_run()  -->
<g id="edge6" class="edge">
<title>do3.constprop() &#45;&gt;L_run() </title>
<path fill="none" stroke="black" d="M193.72,-180.31C198.42,-168.11 204.81,-151.53 210.22,-137.49"/>
<polygon fill="black" stroke="black" points="213.42,-138.9 213.75,-128.31 206.89,-136.38 213.42,-138.9"/>
<text text-anchor="middle" x="263.67" y="-148.95" font-family="Times,serif" font-size="14.00">inlined cb=BAD</text>
</g>
</g>
</svg>
