<?xml version="1.0" encoding="UTF-8" standalone="no"?>
<!DOCTYPE svg PUBLIC "-//W3C//DTD SVG 1.1//EN"
 "http://www.w3.org/Graphics/SVG/1.1/DTD/svg11.dtd">
<!-- Generated by graphviz version 9.0.0 (0)
 -->
<!-- Pages: 1 -->
<svg width="383pt" height="357pt"
 viewBox="0.00 0.00 382.75 356.75" xmlns="http://www.w3.org/2000/svg" xmlns:xlink="http://www.w3.org/1999/xlink">
<g id="graph0" class="graph" transform="scale(1 1) rotate(0) translate(4 352.75)">
<polygon fill="white" stroke="none" points="-4,4 -4,-352.75 378.75,-352.75 378.75,4 -4,4"/>
<g id="clust1" class="cluster">
<title>clusterAfter</title>
<polygon fill="none" stroke="black" points="8,-8 8,-340.75 310,-340.75 310,-8 8,-8"/>
<text text-anchor="middle" x="159" y="-323.45" font-family="Times,serif" font-size="14.00">after (bad, actual)</text>
</g>
<!-- main()  -->
<g id="node1" class="node">
<title>main() </title>
<polygon fill="none" stroke="black" points="224.88,-271 224.88,-307 291.12,-307 291.12,-271 224.88,-271"/>
<text text-anchor="middle" x="258" y="-284.32" font-family="Times,serif" font-size="14.00">main() </text>
</g>
<!-- print GOOD  -->
<g id="node2" class="node">
<title>print GOOD </title>
<polygon fill="none" stroke="black" points="181.38,-180.75 181.38,-216.75 286.62,-216.75 286.62,-180.75 181.38,-180.75"/>
<text text-anchor="middle" x="234" y="-194.07" font-family="Times,serif" font-size="14.00">print GOOD </text>
</g>
<!-- main() &#45;&gt;print GOOD  -->
<g id="edge1" class="edge">
<title>main() &#45;&gt;print GOOD </title>
<path fill="none" stroke="green" d="M253.26,-270.56C249.97,-258.48 245.52,-242.11 241.73,-228.16"/>
<polygon fill="green" stroke="green" points="245.13,-227.34 239.13,-218.61 238.38,-229.18 245.13,-227.34"/>
<text text-anchor="middle" x="311.38" y="-239.2" font-family="Times,serif" font-size="14.00">cb=GOOD inlined</text>
</g>
<!-- do1.constprop()  -->
<g id="node3" class="node">
<title>do1.constprop() </title>
<polygon fill="none" stroke="black" points="30.5,-180.75 30.5,-216.75 163.5,-216.75 163.5,-180.75 30.5,-180.75"/>
<text text-anchor="middle" x="97" y="-194.07" font-family="Times,serif" font-size="14.00">do1.constprop() </text>
</g>
<!-- main() &#45;&gt;do1.constprop()  -->
<g id="edge2" class="edge">
<title>main() &#45;&gt;do1.constprop() </title>
<path fill="none" stroke="red" d="M226.19,-270.56C201.16,-256.85 166.08,-237.61 138.78,-222.65"/>
<polygon fill="red" stroke="red" points="140.52,-219.61 130.07,-217.88 137.16,-225.75 140.52,-219.61"/>
<text text-anchor="middle" x="208.25" y="-239.2" font-family="Times,serif" font-size="14.00">Bug!</text>
</g>
<!-- do3.constprop(punused)  -->
<g id="node5" class="node">
<title>do3.constprop(punused) </title>
<polygon fill="none" stroke="black" points="16.12,-106.75 16.12,-142.75 209.88,-142.75 209.88,-106.75 16.12,-106.75"/>
<text text-anchor="middle" x="113" y="-120.08" font-family="Times,serif" font-size="14.00">do3.constprop(punused) </text>
</g>
<!-- do1.constprop() &#45;&gt;do3.constprop(punused)  -->
<g id="edge4" class="edge">
<title>do1.constprop() &#45;&gt;do3.constprop(punused) </title>
<path fill="none" stroke="black" d="M100.87,-180.32C102.62,-172.45 104.73,-162.95 106.7,-154.09"/>
<polygon fill="black" stroke="black" points="110.08,-155.02 108.83,-144.5 103.25,-153.5 110.08,-155.02"/>
</g>
<!-- seemingly_unused_foo()  -->
<g id="node4" class="node">
<title>seemingly_unused_foo() </title>
<polygon fill="none" stroke="black" points="15.62,-271 15.62,-307 206.38,-307 206.38,-271 15.62,-271"/>
<text text-anchor="middle" x="111" y="-284.32" font-family="Times,serif" font-size="14.00">seemingly_unused_foo() </text>
</g>
<!-- seemingly_unused_foo() &#45;&gt;do1.constprop()  -->
<g id="edge3" class="edge">
<title>seemingly_unused_foo() &#45;&gt;do1.constprop() </title>
<path fill="none" stroke="green" d="M54.19,-270.63C46.58,-265.93 39.77,-259.99 35,-252.5 27.99,-241.49 34.1,-231.57 44.78,-223.37"/>
<polygon fill="green" stroke="green" points="46.48,-226.44 52.9,-218.01 42.62,-220.6 46.48,-226.44"/>
<text text-anchor="middle" x="65" y="-239.2" font-family="Times,serif" font-size="14.00">cb=BAD</text>
</g>
<!-- do3.constprop(punused) &#45;&gt;do3.constprop(punused)  -->
<g id="edge5" class="edge">
<title>do3.constprop(punused) &#45;&gt;do3.constprop(punused) </title>
<path fill="none" stroke="black" d="M210.22,-130.59C220.95,-129.48 227.88,-127.53 227.88,-124.75 227.88,-123.14 225.56,-121.81 221.53,-120.76"/>
<polygon fill="black" stroke="black" points="222.14,-117.32 211.71,-119.16 221.01,-124.23 222.14,-117.32"/>
</g>
<!-- print BAD  -->
<g id="node6" class="node">
<title>print BAD </title>
<polygon fill="none" stroke="black" points="67.12,-16.5 67.12,-52.5 158.88,-52.5 158.88,-16.5 67.12,-16.5"/>
<text text-anchor="middle" x="113" y="-29.82" font-family="Times,serif" font-size="14.00">print BAD </text>
</g>
<!-- do3.constprop(punused) &#45;&gt;print BAD  -->
<g id="edge6" class="edge">
<title>do3.constprop(punused) &#45;&gt;print BAD </title>
<path fill="none" stroke="green" d="M113,-106.31C113,-94.35 113,-78.19 113,-64.33"/>
<polygon fill="green" stroke="green" points="116.5,-64.41 113,-54.41 109.5,-64.41 116.5,-64.41"/>
<text text-anchor="middle" x="137.38" y="-74.95" font-family="Times,serif" font-size="14.00">inlined</text>
</g>
</g>
</svg>
