<?xml version="1.0" encoding="UTF-8" standalone="no"?>
<!DOCTYPE svg PUBLIC "-//W3C//DTD SVG 1.1//EN"
 "http://www.w3.org/Graphics/SVG/1.1/DTD/svg11.dtd">
<!-- Generated by graphviz version 8.0.5 (0)
 -->
<!-- Pages: 1 -->
<svg width="383pt" height="357pt"
 viewBox="0.00 0.00 382.75 356.75" xmlns="http://www.w3.org/2000/svg" xmlns:xlink="http://www.w3.org/1999/xlink">
<g id="graph0" class="graph" transform="scale(1 1) rotate(0) translate(4 352.75)">
<polygon fill="white" stroke="none" points="-4,4 -4,-352.75 378.75,-352.75 378.75,4 -4,4"/>
<g id="clust1" class="cluster">
<title>clusterAfter</title>
<polygon fill="none" stroke="black" points="8,-8 8,-340.75 310,-340.75 310,-8 8,-8"/>
<text text-anchor="middle" x="159" y="-323.45" font-family="Times,serif" font-size="14.00">after (bad, actual)</text>
</g>
<!-- main()  -->
<g id="node1" class="node">
<title>main() </title>
<polygon fill="none" stroke="black" points="224.88,-271 224.88,-307 291.12,-307 291.12,-271 224.88,-271"/>
<text text-anchor="middle" x="258" y="-284.32" font-family="Times,serif" font-size="14.00">main() </text>
</g>
<!-- print GOOD  -->
<g id="node2" class="node">
<title>print GOOD </title>
<polygon fill="none" stroke="black" points="181.38,-180.75 181.38,-216.75 286.62,-216.75 286.62,-180.75 181.38,-180.75"/>
<text text-anchor="middle" x="234" y="-194.07" font-family="Times,serif" font-size="14.00">print GOOD </text>
</g>
<!-- main() &#45;&gt;print GOOD  -->
<g id="edge1" class="edge">
<title>main() &#45;&gt;print GOOD </title>
<path fill="none" stroke="green" d="M253.49,-271.4C250.09,-258.91 245.36,-241.51 241.41,-226.99"/>
<polygon fill="green" stroke="green" points="244.58,-226.31 238.58,-217.57 237.82,-228.14 244.58,-226.31"/>
<text text-anchor="middle" x="311.38" y="-239.2" font-family="Times,serif" font-size="14.00">cb=GOOD inlined</text>
</g>
<!-- do1.constprop()  -->
<g id="node3" class="node">
<title>do1.constprop() </title>
<polygon fill="none" stroke="black" points="30.5,-180.75 30.5,-216.75 163.5,-216.75 163.5,-180.75 30.5,-180.75"/>
<text text-anchor="middle" x="97" y="-194.07" font-family="Times,serif" font-size="14.00">do1.constprop() </text>
</g>
<!-- main() &#45;&gt;do1.constprop()  -->
<g id="edge2" class="edge">
<title>main() &#45;&gt;do1.constprop() </title>
<path fill="none" stroke="red" d="M227.34,-271.19C201.79,-257.19 165.21,-237.14 137.3,-221.84"/>
<polygon fill="red" stroke="red" points="139.27,-218.38 128.82,-216.64 135.91,-224.52 139.27,-218.38"/>
<text text-anchor="middle" x="208.25" y="-239.2" font-family="Times,serif" font-size="14.00">Bug!</text>
</g>
<!-- do3.constprop(punused)  -->
<g id="node5" class="node">
<title>do3.constprop(punused) </title>
<polygon fill="none" stroke="black" points="16.12,-106.75 16.12,-142.75 209.88,-142.75 209.88,-106.75 16.12,-106.75"/>
<text text-anchor="middle" x="113" y="-120.08" font-family="Times,serif" font-size="14.00">do3.constprop(punused) </text>
</g>
<!-- do1.constprop() &#45;&gt;do3.constprop(punused)  -->
<g id="edge4" class="edge">
<title>do1.constprop() &#45;&gt;do3.constprop(punused) </title>
<path fill="none" stroke="black" d="M100.71,-181.05C102.57,-172.69 104.86,-162.36 106.97,-152.9"/>
<polygon fill="black" stroke="black" points="110.56,-153.88 109.31,-143.36 103.72,-152.36 110.56,-153.88"/>
</g>
<!-- seemingly_unused_foo()  -->
<g id="node4" class="node">
<title>seemingly_unused_foo() </title>
<polygon fill="none" stroke="black" points="15.62,-271 15.62,-307 206.38,-307 206.38,-271 15.62,-271"/>
<text text-anchor="middle" x="111" y="-284.32" font-family="Times,serif" font-size="14.00">seemingly_unused_foo() </text>
</g>
<!-- seemingly_unused_foo() &#45;&gt;do1.constprop()  -->
<g id="edge3" class="edge">
<title>seemingly_unused_foo() &#45;&gt;do1.constprop() </title>
<path fill="none" stroke="green" d="M54.94,-271.09C47.03,-266.32 39.93,-260.24 35,-252.5 27.73,-241.08 34.58,-230.83 45.99,-222.46"/>
<polygon fill="green" stroke="green" points="47.44,-225.05 53.98,-216.71 43.67,-219.15 47.44,-225.05"/>
<text text-anchor="middle" x="65" y="-239.2" font-family="Times,serif" font-size="14.00">cb=BAD</text>
</g>
<!-- do3.constprop(punused) &#45;&gt;do3.constprop(punused)  -->
<g id="edge5" class="edge">
<title>do3.constprop(punused) &#45;&gt;do3.constprop(punused) </title>
<path fill="none" stroke="black" d="M209.8,-130.63C220.77,-129.53 227.88,-127.57 227.88,-124.75 227.88,-122.99 225.1,-121.56 220.34,-120.47"/>
<polygon fill="black" stroke="black" points="221.21,-116.91 210.8,-118.87 220.16,-123.83 221.21,-116.91"/>
</g>
<!-- print BAD  -->
<g id="node6" class="node">
<title>print BAD </title>
<polygon fill="none" stroke="black" points="67.12,-16.5 67.12,-52.5 158.88,-52.5 158.88,-16.5 67.12,-16.5"/>
<text text-anchor="middle" x="113" y="-29.82" font-family="Times,serif" font-size="14.00">print BAD </text>
</g>
<!-- do3.constprop(punused) &#45;&gt;print BAD  -->
<g id="edge6" class="edge">
<title>do3.constprop(punused) &#45;&gt;print BAD </title>
<path fill="none" stroke="green" d="M113,-107.15C113,-94.78 113,-77.6 113,-63.17"/>
<polygon fill="green" stroke="green" points="116.5,-63.32 113,-53.32 109.5,-63.32 116.5,-63.32"/>
<text text-anchor="middle" x="137.38" y="-74.95" font-family="Times,serif" font-size="14.00">inlined</text>
</g>
</g>
</svg>
