<?xml version="1.0" encoding="UTF-8" standalone="no"?>
<!DOCTYPE svg PUBLIC "-//W3C//DTD SVG 1.1//EN"
 "http://www.w3.org/Graphics/SVG/1.1/DTD/svg11.dtd">
<!-- Generated by graphviz version 8.1.0 (0)
 -->
<!-- Pages: 1 -->
<svg width="880pt" height="357pt"
 viewBox="0.00 0.00 880.00 356.75" xmlns="http://www.w3.org/2000/svg" xmlns:xlink="http://www.w3.org/1999/xlink">
<g id="graph0" class="graph" transform="scale(1 1) rotate(0) translate(4 352.75)">
<polygon fill="white" stroke="none" points="-4,4 -4,-352.75 876,-352.75 876,4 -4,4"/>
<g id="clust1" class="cluster">
<title>clusterBefore</title>
<polygon fill="none" stroke="black" points="8,-8 8,-340.75 371,-340.75 371,-8 8,-8"/>
<text text-anchor="middle" x="189.5" y="-323.45" font-family="Times,serif" font-size="14.00">before</text>
</g>
<g id="clust2" class="cluster">
<title>clusterAfter</title>
<polygon fill="none" stroke="black" points="379,-8 379,-340.75 864,-340.75 864,-8 379,-8"/>
<text text-anchor="middle" x="621.5" y="-323.45" font-family="Times,serif" font-size="14.00">after (good, ideal)</text>
</g>
<!-- main() -->
<g id="node1" class="node">
<title>main()</title>
<polygon fill="none" stroke="black" points="220.12,-271 220.12,-307 281.88,-307 281.88,-271 220.12,-271"/>
<text text-anchor="middle" x="251" y="-284.32" font-family="Times,serif" font-size="14.00">main()</text>
</g>
<!-- do1(Expired) -->
<g id="node2" class="node">
<title>do1(Expired)</title>
<polygon fill="none" stroke="black" points="99.5,-180.75 99.5,-216.75 208.5,-216.75 208.5,-180.75 99.5,-180.75"/>
<text text-anchor="middle" x="154" y="-194.07" font-family="Times,serif" font-size="14.00">do1(Expired)</text>
</g>
<!-- main()&#45;&gt;do1(Expired) -->
<g id="edge1" class="edge">
<title>main()&#45;&gt;do1(Expired)</title>
<path fill="none" stroke="black" d="M232.76,-271.4C217.95,-257.93 196.87,-238.75 180.25,-223.63"/>
<polygon fill="black" stroke="black" points="183.25,-221.72 173.49,-217.57 178.53,-226.89 183.25,-221.72"/>
<text text-anchor="middle" x="290.88" y="-239.2" font-family="Times,serif" font-size="14.00">Expired={cb=GOOD}</text>
</g>
<!-- do3(punused, Expired) -->
<g id="node4" class="node">
<title>do3(punused, Expired)</title>
<polygon fill="none" stroke="black" points="64.62,-106.75 64.62,-142.75 243.38,-142.75 243.38,-106.75 64.62,-106.75"/>
<text text-anchor="middle" x="154" y="-120.08" font-family="Times,serif" font-size="14.00">do3(punused, Expired)</text>
</g>
<!-- do1(Expired)&#45;&gt;do3(punused, Expired) -->
<g id="edge3" class="edge">
<title>do1(Expired)&#45;&gt;do3(punused, Expired)</title>
<path fill="none" stroke="black" d="M154,-181.05C154,-172.78 154,-162.58 154,-153.21"/>
<polygon fill="black" stroke="black" points="157.5,-153.36 154,-143.36 150.5,-153.36 157.5,-153.36"/>
</g>
<!-- seemingly_unused_foo() -->
<g id="node3" class="node">
<title>seemingly_unused_foo()</title>
<polygon fill="none" stroke="black" points="15.88,-271 15.88,-307 202.12,-307 202.12,-271 15.88,-271"/>
<text text-anchor="middle" x="109" y="-284.32" font-family="Times,serif" font-size="14.00">seemingly_unused_foo()</text>
</g>
<!-- seemingly_unused_foo()&#45;&gt;do1(Expired) -->
<g id="edge2" class="edge">
<title>seemingly_unused_foo()&#45;&gt;do1(Expired)</title>
<path fill="none" stroke="black" d="M56.83,-271.12C38,-262.16 23.79,-249.95 34.75,-235.25 47.56,-218.07 68.35,-208.87 89.01,-204.06"/>
<polygon fill="black" stroke="black" points="89.64,-207.3 98.76,-201.91 88.27,-200.43 89.64,-207.3"/>
<text text-anchor="middle" x="107.12" y="-239.2" font-family="Times,serif" font-size="14.00">Expired={cb=BAD}</text>
</g>
<!-- do3(punused, Expired)&#45;&gt;do3(punused, Expired) -->
<g id="edge4" class="edge">
<title>do3(punused, Expired)&#45;&gt;do3(punused, Expired)</title>
<path fill="none" stroke="black" d="M243.28,-130.75C254.21,-129.68 261.38,-127.68 261.38,-124.75 261.38,-122.92 258.58,-121.45 253.81,-120.35"/>
<polygon fill="black" stroke="black" points="254.69,-116.79 244.28,-118.75 253.64,-123.71 254.69,-116.79"/>
</g>
<!-- (*cb)() -->
<g id="node5" class="node">
<title>(*cb)()</title>
<polygon fill="none" stroke="black" points="123.88,-16.5 123.88,-52.5 184.12,-52.5 184.12,-16.5 123.88,-16.5"/>
<text text-anchor="middle" x="154" y="-29.82" font-family="Times,serif" font-size="14.00">(*cb)()</text>
</g>
<!-- do3(punused, Expired)&#45;&gt;(*cb)() -->
<g id="edge5" class="edge">
<title>do3(punused, Expired)&#45;&gt;(*cb)()</title>
<path fill="none" stroke="black" d="M154,-107.15C154,-94.78 154,-77.6 154,-63.17"/>
<polygon fill="black" stroke="black" points="157.5,-63.32 154,-53.32 150.5,-63.32 157.5,-63.32"/>
</g>
<!-- main()  -->
<g id="node6" class="node">
<title>main() </title>
<polygon fill="none" stroke="black" points="662.88,-271 662.88,-307 729.12,-307 729.12,-271 662.88,-271"/>
<text text-anchor="middle" x="696" y="-284.32" font-family="Times,serif" font-size="14.00">main() </text>
</g>
<!-- do1.constprop.1()  -->
<g id="node7" class="node">
<title>do1.constprop.1() </title>
<polygon fill="none" stroke="black" points="641.75,-180.75 641.75,-216.75 788.25,-216.75 788.25,-180.75 641.75,-180.75"/>
<text text-anchor="middle" x="715" y="-194.07" font-family="Times,serif" font-size="14.00">do1.constprop.1() </text>
</g>
<!-- main() &#45;&gt;do1.constprop.1()  -->
<g id="edge6" class="edge">
<title>main() &#45;&gt;do1.constprop.1() </title>
<path fill="none" stroke="green" d="M699.57,-271.4C702.26,-258.91 706.01,-241.51 709.14,-226.99"/>
<polygon fill="green" stroke="green" points="712.69,-228.09 711.38,-217.57 705.85,-226.61 712.69,-228.09"/>
<text text-anchor="middle" x="786.88" y="-239.2" font-family="Times,serif" font-size="14.00">cb=GOOD (constprop)</text>
</g>
<!-- do3.constprop.1(punused)  -->
<g id="node10" class="node">
<title>do3.constprop.1(punused) </title>
<polygon fill="none" stroke="black" points="630.38,-106.75 630.38,-142.75 837.62,-142.75 837.62,-106.75 630.38,-106.75"/>
<text text-anchor="middle" x="734" y="-120.08" font-family="Times,serif" font-size="14.00">do3.constprop.1(punused) </text>
</g>
<!-- do1.constprop.1() &#45;&gt;do3.constprop.1(punused)  -->
<g id="edge8" class="edge">
<title>do1.constprop.1() &#45;&gt;do3.constprop.1(punused) </title>
<path fill="none" stroke="black" d="M719.41,-181.05C721.61,-172.69 724.34,-162.36 726.84,-152.9"/>
<polygon fill="black" stroke="black" points="730.45,-153.92 729.62,-143.36 723.68,-152.13 730.45,-153.92"/>
</g>
<!-- seemingly_unused_foo()  -->
<g id="node8" class="node">
<title>seemingly_unused_foo() </title>
<polygon fill="none" stroke="black" points="395.62,-271 395.62,-307 586.38,-307 586.38,-271 395.62,-271"/>
<text text-anchor="middle" x="491" y="-284.32" font-family="Times,serif" font-size="14.00">seemingly_unused_foo() </text>
</g>
<!-- do1.constprop.2()  -->
<g id="node9" class="node">
<title>do1.constprop.2() </title>
<polygon fill="none" stroke="black" points="417.75,-180.75 417.75,-216.75 564.25,-216.75 564.25,-180.75 417.75,-180.75"/>
<text text-anchor="middle" x="491" y="-194.07" font-family="Times,serif" font-size="14.00">do1.constprop.2() </text>
</g>
<!-- seemingly_unused_foo() &#45;&gt;do1.constprop.2()  -->
<g id="edge7" class="edge">
<title>seemingly_unused_foo() &#45;&gt;do1.constprop.2() </title>
<path fill="none" stroke="green" d="M491,-271.4C491,-259.03 491,-241.85 491,-227.42"/>
<polygon fill="green" stroke="green" points="494.5,-227.57 491,-217.57 487.5,-227.57 494.5,-227.57"/>
<text text-anchor="middle" x="564.12" y="-239.2" font-family="Times,serif" font-size="14.00">cb=BAD (constprop)</text>
</g>
<!-- do3.constprop.2(punused)  -->
<g id="node11" class="node">
<title>do3.constprop.2(punused) </title>
<polygon fill="none" stroke="black" points="387.38,-106.75 387.38,-142.75 594.62,-142.75 594.62,-106.75 387.38,-106.75"/>
<text text-anchor="middle" x="491" y="-120.08" font-family="Times,serif" font-size="14.00">do3.constprop.2(punused) </text>
</g>
<!-- do1.constprop.2() &#45;&gt;do3.constprop.2(punused)  -->
<g id="edge9" class="edge">
<title>do1.constprop.2() &#45;&gt;do3.constprop.2(punused) </title>
<path fill="none" stroke="black" d="M491,-181.05C491,-172.78 491,-162.58 491,-153.21"/>
<polygon fill="black" stroke="black" points="494.5,-153.36 491,-143.36 487.5,-153.36 494.5,-153.36"/>
</g>
<!-- do3.constprop.1(punused) &#45;&gt;do3.constprop.1(punused)  -->
<g id="edge10" class="edge">
<title>do3.constprop.1(punused) &#45;&gt;do3.constprop.1(punused) </title>
<path fill="none" stroke="black" d="M837.37,-130.54C848.48,-129.43 855.62,-127.5 855.62,-124.75 855.62,-123.03 852.83,-121.64 848.03,-120.56"/>
<polygon fill="black" stroke="black" points="848.78,-116.98 838.37,-118.96 847.74,-123.9 848.78,-116.98"/>
</g>
<!-- print GOOD  -->
<g id="node12" class="node">
<title>print GOOD </title>
<polygon fill="none" stroke="black" points="681.38,-16.5 681.38,-52.5 786.62,-52.5 786.62,-16.5 681.38,-16.5"/>
<text text-anchor="middle" x="734" y="-29.82" font-family="Times,serif" font-size="14.00">print GOOD </text>
</g>
<!-- do3.constprop.1(punused) &#45;&gt;print GOOD  -->
<g id="edge12" class="edge">
<title>do3.constprop.1(punused) &#45;&gt;print GOOD </title>
<path fill="none" stroke="green" d="M734,-107.15C734,-94.78 734,-77.6 734,-63.17"/>
<polygon fill="green" stroke="green" points="737.5,-63.32 734,-53.32 730.5,-63.32 737.5,-63.32"/>
<text text-anchor="middle" x="758.38" y="-74.95" font-family="Times,serif" font-size="14.00">inlined</text>
</g>
<!-- do3.constprop.2(punused) &#45;&gt;do3.constprop.2(punused)  -->
<g id="edge11" class="edge">
<title>do3.constprop.2(punused) &#45;&gt;do3.constprop.2(punused) </title>
<path fill="none" stroke="black" d="M594.37,-130.54C605.48,-129.43 612.62,-127.5 612.62,-124.75 612.62,-123.03 609.83,-121.64 605.03,-120.56"/>
<polygon fill="black" stroke="black" points="605.78,-116.98 595.37,-118.96 604.74,-123.9 605.78,-116.98"/>
</g>
<!-- print BAD  -->
<g id="node13" class="node">
<title>print BAD </title>
<polygon fill="none" stroke="black" points="445.12,-16.5 445.12,-52.5 536.88,-52.5 536.88,-16.5 445.12,-16.5"/>
<text text-anchor="middle" x="491" y="-29.82" font-family="Times,serif" font-size="14.00">print BAD </text>
</g>
<!-- do3.constprop.2(punused) &#45;&gt;print BAD  -->
<g id="edge13" class="edge">
<title>do3.constprop.2(punused) &#45;&gt;print BAD </title>
<path fill="none" stroke="green" d="M491,-107.15C491,-94.78 491,-77.6 491,-63.17"/>
<polygon fill="green" stroke="green" points="494.5,-63.32 491,-53.32 487.5,-63.32 494.5,-63.32"/>
<text text-anchor="middle" x="515.38" y="-74.95" font-family="Times,serif" font-size="14.00">inlined</text>
</g>
</g>
</svg>
