<?xml version="1.0" encoding="UTF-8" standalone="no"?>
<!DOCTYPE svg PUBLIC "-//W3C//DTD SVG 1.1//EN"
 "http://www.w3.org/Graphics/SVG/1.1/DTD/svg11.dtd">
<!-- Generated by graphviz version 12.2.1 (0)
 -->
<!-- Pages: 1 -->
<svg width="880pt" height="357pt"
 viewBox="0.00 0.00 880.00 356.75" xmlns="http://www.w3.org/2000/svg" xmlns:xlink="http://www.w3.org/1999/xlink">
<g id="graph0" class="graph" transform="scale(1 1) rotate(0) translate(4 352.75)">
<polygon fill="white" stroke="none" points="-4,4 -4,-352.75 876,-352.75 876,4 -4,4"/>
<g id="clust1" class="cluster">
<title>clusterBefore</title>
<polygon fill="none" stroke="black" points="8,-8 8,-340.75 371,-340.75 371,-8 8,-8"/>
<text text-anchor="middle" x="189.5" y="-323.45" font-family="Times,serif" font-size="14.00">before</text>
</g>
<g id="clust2" class="cluster">
<title>clusterAfter</title>
<polygon fill="none" stroke="black" points="379,-8 379,-340.75 864,-340.75 864,-8 379,-8"/>
<text text-anchor="middle" x="621.5" y="-323.45" font-family="Times,serif" font-size="14.00">after (good, ideal)</text>
</g>
<!-- main() -->
<g id="node1" class="node">
<title>main()</title>
<polygon fill="none" stroke="black" points="16.12,-271 16.12,-307 77.88,-307 77.88,-271 16.12,-271"/>
<text text-anchor="middle" x="47" y="-284.32" font-family="Times,serif" font-size="14.00">main()</text>
</g>
<!-- do1(Expired) -->
<g id="node2" class="node">
<title>do1(Expired)</title>
<polygon fill="none" stroke="black" points="106.5,-180.75 106.5,-216.75 215.5,-216.75 215.5,-180.75 106.5,-180.75"/>
<text text-anchor="middle" x="161" y="-194.07" font-family="Times,serif" font-size="14.00">do1(Expired)</text>
</g>
<!-- main()&#45;&gt;do1(Expired) -->
<g id="edge1" class="edge">
<title>main()&#45;&gt;do1(Expired)</title>
<path fill="none" stroke="black" d="M34.66,-270.91C28.3,-259.82 23.36,-245.58 31.25,-235.25 39.54,-224.39 67.34,-216.04 95.09,-210.18"/>
<polygon fill="black" stroke="black" points="95.5,-213.67 104.61,-208.27 94.12,-206.81 95.5,-213.67"/>
<text text-anchor="middle" x="111.12" y="-239.2" font-family="Times,serif" font-size="14.00">Expired={cb=GOOD}</text>
</g>
<!-- do3(punused, Expired) -->
<g id="node4" class="node">
<title>do3(punused, Expired)</title>
<polygon fill="none" stroke="black" points="71.62,-106.75 71.62,-142.75 250.38,-142.75 250.38,-106.75 71.62,-106.75"/>
<text text-anchor="middle" x="161" y="-120.08" font-family="Times,serif" font-size="14.00">do3(punused, Expired)</text>
</g>
<!-- do1(Expired)&#45;&gt;do3(punused, Expired) -->
<g id="edge3" class="edge">
<title>do1(Expired)&#45;&gt;do3(punused, Expired)</title>
<path fill="none" stroke="black" d="M161,-180.32C161,-172.54 161,-163.16 161,-154.39"/>
<polygon fill="black" stroke="black" points="164.5,-154.53 161,-144.53 157.5,-154.53 164.5,-154.53"/>
</g>
<!-- seemingly_unused_foo() -->
<g id="node3" class="node">
<title>seemingly_unused_foo()</title>
<polygon fill="none" stroke="black" points="123.88,-271 123.88,-307 310.12,-307 310.12,-271 123.88,-271"/>
<text text-anchor="middle" x="217" y="-284.32" font-family="Times,serif" font-size="14.00">seemingly_unused_foo()</text>
</g>
<!-- seemingly_unused_foo()&#45;&gt;do1(Expired) -->
<g id="edge2" class="edge">
<title>seemingly_unused_foo()&#45;&gt;do1(Expired)</title>
<path fill="none" stroke="black" d="M211.56,-270.57C207.8,-259.89 202.17,-246.21 195,-235.25 192.83,-231.94 190.33,-228.66 187.69,-225.51"/>
<polygon fill="black" stroke="black" points="190.37,-223.25 181.06,-218.19 185.18,-227.95 190.37,-223.25"/>
<text text-anchor="middle" x="277.1" y="-239.2" font-family="Times,serif" font-size="14.00">Expired={cb=BAD}</text>
</g>
<!-- do3(punused, Expired)&#45;&gt;do3(punused, Expired) -->
<g id="edge4" class="edge">
<title>do3(punused, Expired)&#45;&gt;do3(punused, Expired)</title>
<path fill="none" stroke="black" d="M250.68,-130.71C261.38,-129.63 268.38,-127.64 268.38,-124.75 268.38,-123.08 266.04,-121.71 262,-120.64"/>
<polygon fill="black" stroke="black" points="262.61,-117.2 252.17,-119.03 261.48,-124.1 262.61,-117.2"/>
</g>
<!-- (*cb)() -->
<g id="node5" class="node">
<title>(*cb)()</title>
<polygon fill="none" stroke="black" points="130.88,-16.5 130.88,-52.5 191.12,-52.5 191.12,-16.5 130.88,-16.5"/>
<text text-anchor="middle" x="161" y="-29.82" font-family="Times,serif" font-size="14.00">(*cb)()</text>
</g>
<!-- do3(punused, Expired)&#45;&gt;(*cb)() -->
<g id="edge5" class="edge">
<title>do3(punused, Expired)&#45;&gt;(*cb)()</title>
<path fill="none" stroke="black" d="M161,-106.31C161,-94.35 161,-78.19 161,-64.33"/>
<polygon fill="black" stroke="black" points="164.5,-64.41 161,-54.41 157.5,-64.41 164.5,-64.41"/>
</g>
<!-- main()  -->
<g id="node6" class="node">
<title>main() </title>
<polygon fill="none" stroke="black" points="457.88,-271 457.88,-307 524.12,-307 524.12,-271 457.88,-271"/>
<text text-anchor="middle" x="491" y="-284.32" font-family="Times,serif" font-size="14.00">main() </text>
</g>
<!-- do1.constprop.1()  -->
<g id="node7" class="node">
<title>do1.constprop.1() </title>
<polygon fill="none" stroke="black" points="417.75,-180.75 417.75,-216.75 564.25,-216.75 564.25,-180.75 417.75,-180.75"/>
<text text-anchor="middle" x="491" y="-194.07" font-family="Times,serif" font-size="14.00">do1.constprop.1() </text>
</g>
<!-- main() &#45;&gt;do1.constprop.1()  -->
<g id="edge6" class="edge">
<title>main() &#45;&gt;do1.constprop.1() </title>
<path fill="none" stroke="green" d="M491,-270.56C491,-258.6 491,-242.44 491,-228.58"/>
<polygon fill="green" stroke="green" points="494.5,-228.66 491,-218.66 487.5,-228.66 494.5,-228.66"/>
<text text-anchor="middle" x="570.88" y="-239.2" font-family="Times,serif" font-size="14.00">cb=GOOD (constprop)</text>
</g>
<!-- do3.constprop.1(punused)  -->
<g id="node10" class="node">
<title>do3.constprop.1(punused) </title>
<polygon fill="none" stroke="black" points="387.38,-106.75 387.38,-142.75 594.62,-142.75 594.62,-106.75 387.38,-106.75"/>
<text text-anchor="middle" x="491" y="-120.08" font-family="Times,serif" font-size="14.00">do3.constprop.1(punused) </text>
</g>
<!-- do1.constprop.1() &#45;&gt;do3.constprop.1(punused)  -->
<g id="edge8" class="edge">
<title>do1.constprop.1() &#45;&gt;do3.constprop.1(punused) </title>
<path fill="none" stroke="black" d="M491,-180.32C491,-172.54 491,-163.16 491,-154.39"/>
<polygon fill="black" stroke="black" points="494.5,-154.53 491,-144.53 487.5,-154.53 494.5,-154.53"/>
</g>
<!-- seemingly_unused_foo()  -->
<g id="node8" class="node">
<title>seemingly_unused_foo() </title>
<polygon fill="none" stroke="black" points="614.62,-271 614.62,-307 805.38,-307 805.38,-271 614.62,-271"/>
<text text-anchor="middle" x="710" y="-284.32" font-family="Times,serif" font-size="14.00">seemingly_unused_foo() </text>
</g>
<!-- do1.constprop.2()  -->
<g id="node9" class="node">
<title>do1.constprop.2() </title>
<polygon fill="none" stroke="black" points="648.75,-180.75 648.75,-216.75 795.25,-216.75 795.25,-180.75 648.75,-180.75"/>
<text text-anchor="middle" x="722" y="-194.07" font-family="Times,serif" font-size="14.00">do1.constprop.2() </text>
</g>
<!-- seemingly_unused_foo() &#45;&gt;do1.constprop.2()  -->
<g id="edge7" class="edge">
<title>seemingly_unused_foo() &#45;&gt;do1.constprop.2() </title>
<path fill="none" stroke="green" d="M712.37,-270.56C714.01,-258.48 716.24,-242.11 718.14,-228.16"/>
<polygon fill="green" stroke="green" points="721.55,-229.03 719.43,-218.65 714.61,-228.09 721.55,-229.03"/>
<text text-anchor="middle" x="790.2" y="-239.2" font-family="Times,serif" font-size="14.00">cb=BAD (constprop)</text>
</g>
<!-- do3.constprop.2(punused)  -->
<g id="node11" class="node">
<title>do3.constprop.2(punused) </title>
<polygon fill="none" stroke="black" points="630.38,-106.75 630.38,-142.75 837.62,-142.75 837.62,-106.75 630.38,-106.75"/>
<text text-anchor="middle" x="734" y="-120.08" font-family="Times,serif" font-size="14.00">do3.constprop.2(punused) </text>
</g>
<!-- do1.constprop.2() &#45;&gt;do3.constprop.2(punused)  -->
<g id="edge9" class="edge">
<title>do1.constprop.2() &#45;&gt;do3.constprop.2(punused) </title>
<path fill="none" stroke="black" d="M724.9,-180.32C726.22,-172.45 727.8,-162.95 729.28,-154.09"/>
<polygon fill="black" stroke="black" points="732.68,-154.95 730.87,-144.51 725.78,-153.8 732.68,-154.95"/>
</g>
<!-- do3.constprop.1(punused) &#45;&gt;do3.constprop.1(punused)  -->
<g id="edge10" class="edge">
<title>do3.constprop.1(punused) &#45;&gt;do3.constprop.1(punused) </title>
<path fill="none" stroke="black" d="M594.81,-130.5C605.67,-129.38 612.62,-127.46 612.62,-124.75 612.62,-123.14 610.17,-121.81 605.9,-120.76"/>
<polygon fill="black" stroke="black" points="606.72,-117.35 596.3,-119.24 605.63,-124.26 606.72,-117.35"/>
</g>
<!-- print GOOD  -->
<g id="node12" class="node">
<title>print GOOD </title>
<polygon fill="none" stroke="black" points="438.38,-16.5 438.38,-52.5 543.62,-52.5 543.62,-16.5 438.38,-16.5"/>
<text text-anchor="middle" x="491" y="-29.82" font-family="Times,serif" font-size="14.00">print GOOD </text>
</g>
<!-- do3.constprop.1(punused) &#45;&gt;print GOOD  -->
<g id="edge12" class="edge">
<title>do3.constprop.1(punused) &#45;&gt;print GOOD </title>
<path fill="none" stroke="green" d="M491,-106.31C491,-94.35 491,-78.19 491,-64.33"/>
<polygon fill="green" stroke="green" points="494.5,-64.41 491,-54.41 487.5,-64.41 494.5,-64.41"/>
<text text-anchor="middle" x="515.38" y="-74.95" font-family="Times,serif" font-size="14.00">inlined</text>
</g>
<!-- do3.constprop.2(punused) &#45;&gt;do3.constprop.2(punused)  -->
<g id="edge11" class="edge">
<title>do3.constprop.2(punused) &#45;&gt;do3.constprop.2(punused) </title>
<path fill="none" stroke="black" d="M837.81,-130.5C848.67,-129.38 855.62,-127.46 855.62,-124.75 855.62,-123.14 853.17,-121.81 848.9,-120.76"/>
<polygon fill="black" stroke="black" points="849.72,-117.35 839.3,-119.24 848.63,-124.26 849.72,-117.35"/>
</g>
<!-- print BAD  -->
<g id="node13" class="node">
<title>print BAD </title>
<polygon fill="none" stroke="black" points="688.12,-16.5 688.12,-52.5 779.88,-52.5 779.88,-16.5 688.12,-16.5"/>
<text text-anchor="middle" x="734" y="-29.82" font-family="Times,serif" font-size="14.00">print BAD </text>
</g>
<!-- do3.constprop.2(punused) &#45;&gt;print BAD  -->
<g id="edge13" class="edge">
<title>do3.constprop.2(punused) &#45;&gt;print BAD </title>
<path fill="none" stroke="green" d="M734,-106.31C734,-94.35 734,-78.19 734,-64.33"/>
<polygon fill="green" stroke="green" points="737.5,-64.41 734,-54.41 730.5,-64.41 737.5,-64.41"/>
<text text-anchor="middle" x="758.38" y="-74.95" font-family="Times,serif" font-size="14.00">inlined</text>
</g>
</g>
</svg>
