<?xml version="1.0" encoding="UTF-8" standalone="no"?>
<!DOCTYPE svg PUBLIC "-//W3C//DTD SVG 1.1//EN"
 "http://www.w3.org/Graphics/SVG/1.1/DTD/svg11.dtd">
<!-- Generated by graphviz version 7.0.2 (0)
 -->
<!-- Pages: 1 -->
<svg width="323pt" height="350pt"
 viewBox="0.00 0.00 323.00 350.00" xmlns="http://www.w3.org/2000/svg" xmlns:xlink="http://www.w3.org/1999/xlink">
<g id="graph0" class="graph" transform="scale(1 1) rotate(0) translate(4 346)">
<polygon fill="white" stroke="none" points="-4,4 -4,-346 319,-346 319,4 -4,4"/>
<g id="clust1" class="cluster">
<title>clusterAfter</title>
<polygon fill="none" stroke="black" points="8,-8 8,-334 301,-334 301,-8 8,-8"/>
<text text-anchor="middle" x="154.5" y="-318.8" font-family="Times,serif" font-size="14.00">after (fixed, actual)</text>
</g>
<!-- main()  -->
<g id="node1" class="node">
<title>main() </title>
<polygon fill="none" stroke="black" points="225.5,-266.5 225.5,-302.5 292.5,-302.5 292.5,-266.5 225.5,-266.5"/>
<text text-anchor="middle" x="259" y="-280.8" font-family="Times,serif" font-size="14.00">main() </text>
</g>
<!-- do1()  -->
<g id="node2" class="node">
<title>do1() </title>
<polygon fill="none" stroke="black" points="190,-178.5 190,-214.5 248,-214.5 248,-178.5 190,-178.5"/>
<text text-anchor="middle" x="219" y="-192.8" font-family="Times,serif" font-size="14.00">do1() </text>
</g>
<!-- main() &#45;&gt;do1()  -->
<g id="edge1" class="edge">
<title>main() &#45;&gt;do1() </title>
<path fill="none" stroke="black" d="M251.1,-266.51C245.56,-254.61 238.05,-238.46 231.69,-224.77"/>
<polygon fill="black" stroke="black" points="234.92,-223.42 227.52,-215.83 228.57,-226.37 234.92,-223.42"/>
<text text-anchor="middle" x="278" y="-236.8" font-family="Times,serif" font-size="14.00">cb=GOOD</text>
</g>
<!-- do3()  -->
<g id="node3" class="node">
<title>do3() </title>
<polygon fill="none" stroke="black" points="143,-90.5 143,-126.5 201,-126.5 201,-90.5 143,-90.5"/>
<text text-anchor="middle" x="172" y="-104.8" font-family="Times,serif" font-size="14.00">do3() </text>
</g>
<!-- do1() &#45;&gt;do3()  -->
<g id="edge2" class="edge">
<title>do1() &#45;&gt;do3() </title>
<path fill="none" stroke="black" d="M212.69,-178.72C208.67,-168.69 203.09,-155.84 197,-145 195.28,-141.94 193.36,-138.83 191.37,-135.77"/>
<polygon fill="black" stroke="black" points="194.33,-133.89 185.79,-127.62 188.56,-137.85 194.33,-133.89"/>
<text text-anchor="middle" x="241" y="-148.8" font-family="Times,serif" font-size="14.00">cb=GOOD</text>
</g>
<!-- do3() &#45;&gt;do3()  -->
<g id="edge3" class="edge">
<title>do3() &#45;&gt;do3() </title>
<path fill="none" stroke="black" d="M200.91,-115.44C210.92,-115.51 219,-113.2 219,-108.5 219,-105.78 216.3,-103.87 212.09,-102.74"/>
<polygon fill="black" stroke="black" points="212.73,-99.29 202.42,-101.72 212,-106.25 212.73,-99.29"/>
<text text-anchor="middle" x="256" y="-104.8" font-family="Times,serif" font-size="14.00">cb=GOOD</text>
</g>
<!-- (*cb)() -->
<g id="node7" class="node">
<title>(*cb)()</title>
<polygon fill="none" stroke="black" points="141.5,-16.5 141.5,-52.5 202.5,-52.5 202.5,-16.5 141.5,-16.5"/>
<text text-anchor="middle" x="172" y="-30.8" font-family="Times,serif" font-size="14.00">(*cb)()</text>
</g>
<!-- do3() &#45;&gt;(*cb)() -->
<g id="edge7" class="edge">
<title>do3() &#45;&gt;(*cb)()</title>
<path fill="none" stroke="black" d="M172,-90.8C172,-82.71 172,-72.78 172,-63.57"/>
<polygon fill="black" stroke="black" points="175.5,-63.62 172,-53.62 168.5,-63.62 175.5,-63.62"/>
</g>
<!-- seemingly_unused_foo()  -->
<g id="node4" class="node">
<title>seemingly_unused_foo() </title>
<polygon fill="none" stroke="black" points="16.5,-266.5 16.5,-302.5 207.5,-302.5 207.5,-266.5 16.5,-266.5"/>
<text text-anchor="middle" x="112" y="-280.8" font-family="Times,serif" font-size="14.00">seemingly_unused_foo() </text>
</g>
<!-- do3.constprop()  -->
<g id="node5" class="node">
<title>do3.constprop() </title>
<polygon fill="none" stroke="black" points="18,-178.5 18,-214.5 152,-214.5 152,-178.5 18,-178.5"/>
<text text-anchor="middle" x="85" y="-192.8" font-family="Times,serif" font-size="14.00">do3.constprop() </text>
</g>
<!-- seemingly_unused_foo() &#45;&gt;do3.constprop()  -->
<g id="edge4" class="edge">
<title>seemingly_unused_foo() &#45;&gt;do3.constprop() </title>
<path fill="none" stroke="black" d="M106.67,-266.51C102.97,-254.73 97.96,-238.78 93.69,-225.18"/>
<polygon fill="black" stroke="black" points="97.11,-224.39 90.78,-215.9 90.43,-226.49 97.11,-224.39"/>
<text text-anchor="middle" x="130.5" y="-236.8" font-family="Times,serif" font-size="14.00">cb=BAD</text>
</g>
<!-- do3.constprop() &#45;&gt;do3.constprop()  -->
<g id="edge5" class="edge">
<title>do3.constprop() &#45;&gt;do3.constprop() </title>
<path fill="none" stroke="black" d="M151.99,-204.1C162.68,-202.99 170,-200.45 170,-196.5 170,-194.15 167.42,-192.31 163.09,-190.96"/>
<polygon fill="black" stroke="black" points="163.95,-187.56 153.48,-189.18 162.67,-194.44 163.95,-187.56"/>
</g>
<!-- L_run()  -->
<g id="node6" class="node">
<title>L_run() </title>
<polygon fill="none" stroke="black" points="46,-90.5 46,-126.5 118,-126.5 118,-90.5 46,-90.5"/>
<text text-anchor="middle" x="82" y="-104.8" font-family="Times,serif" font-size="14.00">L_run() </text>
</g>
<!-- do3.constprop() &#45;&gt;L_run()  -->
<g id="edge6" class="edge">
<title>do3.constprop() &#45;&gt;L_run() </title>
<path fill="none" stroke="black" d="M83.92,-178.53C83.58,-172.66 83.23,-166.05 83,-160 82.73,-152.81 82.53,-145.05 82.38,-137.82"/>
<polygon fill="black" stroke="black" points="85.88,-137.79 82.21,-127.85 78.88,-137.91 85.88,-137.79"/>
<text text-anchor="middle" x="140" y="-148.8" font-family="Times,serif" font-size="14.00">inlined cb=BAD</text>
</g>
</g>
</svg>
