<?xml version="1.0" encoding="UTF-8" standalone="no"?>
<!DOCTYPE svg PUBLIC "-//W3C//DTD SVG 1.1//EN"
 "http://www.w3.org/Graphics/SVG/1.1/DTD/svg11.dtd">
<!-- Generated by graphviz version 8.1.0 (0)
 -->
<!-- Pages: 1 -->
<svg width="323pt" height="357pt"
 viewBox="0.00 0.00 322.50 356.75" xmlns="http://www.w3.org/2000/svg" xmlns:xlink="http://www.w3.org/1999/xlink">
<g id="graph0" class="graph" transform="scale(1 1) rotate(0) translate(4 352.75)">
<polygon fill="white" stroke="none" points="-4,4 -4,-352.75 318.5,-352.75 318.5,4 -4,4"/>
<g id="clust1" class="cluster">
<title>clusterAfter</title>
<polygon fill="none" stroke="black" points="8,-8 8,-340.75 299,-340.75 299,-8 8,-8"/>
<text text-anchor="middle" x="153.5" y="-323.45" font-family="Times,serif" font-size="14.00">after (fixed, actual)</text>
</g>
<!-- main()  -->
<g id="node1" class="node">
<title>main() </title>
<polygon fill="none" stroke="black" points="224.88,-271 224.88,-307 291.12,-307 291.12,-271 224.88,-271"/>
<text text-anchor="middle" x="258" y="-284.32" font-family="Times,serif" font-size="14.00">main() </text>
</g>
<!-- do1()  -->
<g id="node2" class="node">
<title>do1() </title>
<polygon fill="none" stroke="black" points="188.38,-180.75 188.38,-216.75 245.62,-216.75 245.62,-180.75 188.38,-180.75"/>
<text text-anchor="middle" x="217" y="-194.07" font-family="Times,serif" font-size="14.00">do1() </text>
</g>
<!-- main() &#45;&gt;do1()  -->
<g id="edge1" class="edge">
<title>main() &#45;&gt;do1() </title>
<path fill="none" stroke="black" d="M250.29,-271.4C244.37,-258.66 236.08,-240.83 229.26,-226.14"/>
<polygon fill="black" stroke="black" points="232.2,-225.17 224.82,-217.57 225.86,-228.12 232.2,-225.17"/>
<text text-anchor="middle" x="277.75" y="-239.2" font-family="Times,serif" font-size="14.00">cb=GOOD</text>
</g>
<!-- do3()  -->
<g id="node3" class="node">
<title>do3() </title>
<polygon fill="none" stroke="black" points="142.38,-90.5 142.38,-126.5 199.62,-126.5 199.62,-90.5 142.38,-90.5"/>
<text text-anchor="middle" x="171" y="-103.83" font-family="Times,serif" font-size="14.00">do3() </text>
</g>
<!-- do1() &#45;&gt;do3()  -->
<g id="edge2" class="edge">
<title>do1() &#45;&gt;do3() </title>
<path fill="none" stroke="black" d="M211.07,-181.2C207.05,-170.61 201.31,-156.7 195,-145 193.3,-141.86 191.4,-138.65 189.43,-135.5"/>
<polygon fill="black" stroke="black" points="191.86,-133.83 183.43,-127.4 186.01,-137.68 191.86,-133.83"/>
<text text-anchor="middle" x="239.75" y="-148.95" font-family="Times,serif" font-size="14.00">cb=GOOD</text>
</g>
<!-- do3() &#45;&gt;do3()  -->
<g id="edge3" class="edge">
<title>do3() &#45;&gt;do3() </title>
<path fill="none" stroke="black" d="M199.22,-115.43C209.36,-115.58 217.62,-113.27 217.62,-108.5 217.62,-105.59 214.56,-103.6 209.87,-102.52"/>
<polygon fill="black" stroke="black" points="210.5,-98.97 200.22,-101.57 209.87,-105.95 210.5,-98.97"/>
<text text-anchor="middle" x="254.38" y="-103.83" font-family="Times,serif" font-size="14.00">cb=GOOD</text>
</g>
<!-- (*cb)() -->
<g id="node7" class="node">
<title>(*cb)()</title>
<polygon fill="none" stroke="black" points="140.88,-16.5 140.88,-52.5 201.12,-52.5 201.12,-16.5 140.88,-16.5"/>
<text text-anchor="middle" x="171" y="-29.82" font-family="Times,serif" font-size="14.00">(*cb)()</text>
</g>
<!-- do3() &#45;&gt;(*cb)() -->
<g id="edge7" class="edge">
<title>do3() &#45;&gt;(*cb)()</title>
<path fill="none" stroke="black" d="M171,-90.8C171,-82.53 171,-72.33 171,-62.96"/>
<polygon fill="black" stroke="black" points="174.5,-63.11 171,-53.11 167.5,-63.11 174.5,-63.11"/>
</g>
<!-- seemingly_unused_foo()  -->
<g id="node4" class="node">
<title>seemingly_unused_foo() </title>
<polygon fill="none" stroke="black" points="15.62,-271 15.62,-307 206.38,-307 206.38,-271 15.62,-271"/>
<text text-anchor="middle" x="111" y="-284.32" font-family="Times,serif" font-size="14.00">seemingly_unused_foo() </text>
</g>
<!-- do3.constprop()  -->
<g id="node5" class="node">
<title>do3.constprop() </title>
<polygon fill="none" stroke="black" points="18.5,-180.75 18.5,-216.75 151.5,-216.75 151.5,-180.75 18.5,-180.75"/>
<text text-anchor="middle" x="85" y="-194.07" font-family="Times,serif" font-size="14.00">do3.constprop() </text>
</g>
<!-- seemingly_unused_foo() &#45;&gt;do3.constprop()  -->
<g id="edge4" class="edge">
<title>seemingly_unused_foo() &#45;&gt;do3.constprop() </title>
<path fill="none" stroke="black" d="M106.11,-271.4C102.43,-258.91 97.3,-241.51 93.03,-226.99"/>
<polygon fill="black" stroke="black" points="96.14,-226.18 89.96,-217.57 89.43,-228.16 96.14,-226.18"/>
<text text-anchor="middle" x="130" y="-239.2" font-family="Times,serif" font-size="14.00">cb=BAD</text>
</g>
<!-- do3.constprop() &#45;&gt;do3.constprop()  -->
<g id="edge5" class="edge">
<title>do3.constprop() &#45;&gt;do3.constprop() </title>
<path fill="none" stroke="black" d="M151.25,-206.58C162.07,-205.46 169.5,-202.85 169.5,-198.75 169.5,-196.19 166.6,-194.21 161.78,-192.81"/>
<polygon fill="black" stroke="black" points="162.71,-189.24 152.25,-190.92 161.47,-196.13 162.71,-189.24"/>
</g>
<!-- L_run()  -->
<g id="node6" class="node">
<title>L_run() </title>
<polygon fill="none" stroke="black" points="45.25,-90.5 45.25,-126.5 116.75,-126.5 116.75,-90.5 45.25,-90.5"/>
<text text-anchor="middle" x="81" y="-103.83" font-family="Times,serif" font-size="14.00">L_run() </text>
</g>
<!-- do3.constprop() &#45;&gt;L_run()  -->
<g id="edge6" class="edge">
<title>do3.constprop() &#45;&gt;L_run() </title>
<path fill="none" stroke="black" d="M83.18,-180.8C82.62,-174.93 82.07,-168.31 81.75,-162.25 81.32,-154.04 81.09,-145.11 80.99,-136.97"/>
<polygon fill="black" stroke="black" points="84.48,-137.11 80.91,-127.14 77.48,-137.17 84.48,-137.11"/>
<text text-anchor="middle" x="137.62" y="-148.95" font-family="Times,serif" font-size="14.00">inlined cb=BAD</text>
</g>
</g>
</svg>
