<?xml version="1.0" encoding="UTF-8" standalone="no"?>
<!DOCTYPE svg PUBLIC "-//W3C//DTD SVG 1.1//EN"
 "http://www.w3.org/Graphics/SVG/1.1/DTD/svg11.dtd">
<!-- Generated by graphviz version 12.2.0 (0)
 -->
<!-- Title: G Pages: 1 -->
<svg width="205pt" height="208pt"
 viewBox="0.00 0.00 204.75 207.50" xmlns="http://www.w3.org/2000/svg" xmlns:xlink="http://www.w3.org/1999/xlink">
<g id="graph0" class="graph" transform="scale(1 1) rotate(0) translate(4 203.5)">
<title>G</title>
<polygon fill="white" stroke="none" points="-4,4 -4,-203.5 200.75,-203.5 200.75,4 -4,4"/>
<!-- libsodium.so -->
<g id="node1" class="node">
<title>libsodium.so</title>
<polygon fill="none" stroke="black" points="191.88,-199.5 4.88,-199.5 4.88,-157 191.88,-157 191.88,-199.5"/>
<text text-anchor="middle" x="98.38" y="-182.2" font-family="Times,serif" font-size="14.00">libsodium.so</text>
<text text-anchor="middle" x="98.38" y="-164.95" font-family="Times,serif" font-size="14.00">(includes crtfastmath.o)</text>
</g>
<!-- libzmq.so -->
<g id="node2" class="node">
<title>libzmq.so</title>
<polygon fill="none" stroke="black" points="196.75,-121 0,-121 0,-78.5 196.75,-78.5 196.75,-121"/>
<text text-anchor="middle" x="98.38" y="-103.7" font-family="Times,serif" font-size="14.00">libzmq.so</text>
<text text-anchor="middle" x="98.38" y="-86.45" font-family="Times,serif" font-size="14.00">(just a libsodium.so user)</text>
</g>
<!-- libsodium.so&#45;&gt;libzmq.so -->
<g id="edge1" class="edge">
<title>libsodium.so&#45;&gt;libzmq.so</title>
<path fill="none" stroke="red" d="M98.38,-156.75C98.38,-149.37 98.38,-140.87 98.38,-132.75"/>
<polygon fill="red" stroke="red" points="101.88,-132.82 98.38,-122.82 94.88,-132.82 101.88,-132.82"/>
</g>
<!-- bitcoind -->
<g id="node3" class="node">
<title>bitcoind</title>
<polygon fill="none" stroke="black" points="151.38,-42.5 45.38,-42.5 45.38,0 151.38,0 151.38,-42.5"/>
<text text-anchor="middle" x="98.38" y="-25.2" font-family="Times,serif" font-size="14.00">bitcoind</text>
<text text-anchor="middle" x="98.38" y="-7.95" font-family="Times,serif" font-size="14.00">(failed tests)</text>
</g>
<!-- libzmq.so&#45;&gt;bitcoind -->
<g id="edge2" class="edge">
<title>libzmq.so&#45;&gt;bitcoind</title>
<path fill="none" stroke="red" d="M98.38,-78.25C98.38,-70.87 98.38,-62.37 98.38,-54.25"/>
<polygon fill="red" stroke="red" points="101.88,-54.32 98.38,-44.32 94.88,-54.32 101.88,-54.32"/>
</g>
</g>
</svg>
