<?xml version="1.0" encoding="UTF-8" standalone="no"?>
<!DOCTYPE svg PUBLIC "-//W3C//DTD SVG 1.1//EN"
 "http://www.w3.org/Graphics/SVG/1.1/DTD/svg11.dtd">
<!-- Generated by graphviz version 12.1.1 (0)
 -->
<!-- Title: G Pages: 1 -->
<svg width="429pt" height="242pt"
 viewBox="0.00 0.00 429.25 242.00" xmlns="http://www.w3.org/2000/svg" xmlns:xlink="http://www.w3.org/1999/xlink">
<g id="graph0" class="graph" transform="scale(1 1) rotate(0) translate(4 238)">
<title>G</title>
<polygon fill="white" stroke="none" points="-4,4 -4,-238 425.25,-238 425.25,4 -4,4"/>
<!-- libfoo.so -->
<g id="node1" class="node">
<title>libfoo.so</title>
<polygon fill="none" stroke="black" points="208,-234 0,-234 0,-191.5 208,-191.5 208,-234"/>
<text text-anchor="middle" x="104" y="-216.7" font-family="Times,serif" font-size="14.00">libfoo.so (&#45;Ofast)</text>
<text text-anchor="middle" x="104" y="-199.45" font-family="Times,serif" font-size="14.00">(before gcc&#45;13 or clang&#45;19)</text>
</g>
<!-- libbar.so -->
<g id="node2" class="node">
<title>libbar.so</title>
<polygon fill="none" stroke="red" points="162.25,-138.25 45.75,-138.25 45.75,-95.75 162.25,-95.75 162.25,-138.25"/>
<text text-anchor="middle" x="104" y="-120.95" font-family="Times,serif" font-size="14.00">libbar.so (&#45;O2)</text>
<text text-anchor="middle" x="104" y="-103.7" font-family="Times,serif" font-size="14.00">has FP code</text>
</g>
<!-- libfoo.so&#45;&gt;libbar.so -->
<g id="edge1" class="edge">
<title>libfoo.so&#45;&gt;libbar.so</title>
<path fill="none" stroke="red" d="M104,-191.41C104,-179.33 104,-163.74 104,-150.05"/>
<polygon fill="red" stroke="red" points="107.5,-150.14 104,-140.14 100.5,-150.14 107.5,-150.14"/>
<text text-anchor="middle" x="152.75" y="-160.2" font-family="Times,serif" font-size="14.00">lib breaks bin</text>
</g>
<!-- bin -->
<g id="node3" class="node">
<title>bin</title>
<polygon fill="none" stroke="red" points="155.12,-42.5 52.88,-42.5 52.88,0 155.12,0 155.12,-42.5"/>
<text text-anchor="middle" x="104" y="-25.2" font-family="Times,serif" font-size="14.00">bin (&#45;O2)</text>
<text text-anchor="middle" x="104" y="-7.95" font-family="Times,serif" font-size="14.00">has FP code</text>
</g>
<!-- libbar.so&#45;&gt;bin -->
<g id="edge2" class="edge">
<title>libbar.so&#45;&gt;bin</title>
<path fill="none" stroke="red" d="M104,-95.66C104,-83.58 104,-67.99 104,-54.3"/>
<polygon fill="red" stroke="red" points="107.5,-54.39 104,-44.39 100.5,-54.39 107.5,-54.39"/>
<text text-anchor="middle" x="152.75" y="-64.45" font-family="Times,serif" font-size="14.00">lib breaks bin</text>
</g>
<!-- libfoo.so  -->
<g id="node4" class="node">
<title>libfoo.so </title>
<polygon fill="none" stroke="red" points="341.88,-234 226.12,-234 226.12,-191.5 341.88,-191.5 341.88,-234"/>
<text text-anchor="middle" x="284" y="-216.7" font-family="Times,serif" font-size="14.00">libfoo.so (&#45;O2)</text>
<text text-anchor="middle" x="284" y="-199.45" font-family="Times,serif" font-size="14.00">has FP code</text>
</g>
<!-- libbar.so  -->
<g id="node5" class="node">
<title>libbar.so </title>
<polygon fill="none" stroke="red" points="342.25,-138.25 225.75,-138.25 225.75,-95.75 342.25,-95.75 342.25,-138.25"/>
<text text-anchor="middle" x="284" y="-120.95" font-family="Times,serif" font-size="14.00">libbar.so (&#45;O2)</text>
<text text-anchor="middle" x="284" y="-103.7" font-family="Times,serif" font-size="14.00">has FP code</text>
</g>
<!-- libfoo.so &#45;&gt;libbar.so  -->
<g id="edge3" class="edge">
<title>libfoo.so &#45;&gt;libbar.so </title>
<path fill="none" stroke="red" d="M284,-191.41C284,-179.33 284,-163.74 284,-150.05"/>
<polygon fill="red" stroke="red" points="287.5,-150.14 284,-140.14 280.5,-150.14 287.5,-150.14"/>
<text text-anchor="middle" x="352.62" y="-160.2" font-family="Times,serif" font-size="14.00">lib is broken by bin</text>
</g>
<!-- bin  -->
<g id="node6" class="node">
<title>bin </title>
<polygon fill="none" stroke="black" points="346,-42.5 222,-42.5 222,0 346,0 346,-42.5"/>
<text text-anchor="middle" x="284" y="-25.2" font-family="Times,serif" font-size="14.00">bin (&#45;Ofast)</text>
<text text-anchor="middle" x="284" y="-7.95" font-family="Times,serif" font-size="14.00">has no FP code</text>
</g>
<!-- libbar.so &#45;&gt;bin  -->
<g id="edge4" class="edge">
<title>libbar.so &#45;&gt;bin </title>
<path fill="none" stroke="red" d="M284,-95.66C284,-83.58 284,-67.99 284,-54.3"/>
<polygon fill="red" stroke="red" points="287.5,-54.39 284,-44.39 280.5,-54.39 287.5,-54.39"/>
<text text-anchor="middle" x="352.62" y="-64.45" font-family="Times,serif" font-size="14.00">lib is broken by bin</text>
</g>
</g>
</svg>
