<?xml version="1.0" encoding="UTF-8" standalone="no"?>
<!DOCTYPE svg PUBLIC "-//W3C//DTD SVG 1.1//EN"
 "http://www.w3.org/Graphics/SVG/1.1/DTD/svg11.dtd">
<!-- Generated by graphviz version 12.2.0 (0)
 -->
<!-- Title: G Pages: 1 -->
<svg width="319pt" height="146pt"
 viewBox="0.00 0.00 318.50 146.25" xmlns="http://www.w3.org/2000/svg" xmlns:xlink="http://www.w3.org/1999/xlink">
<g id="graph0" class="graph" transform="scale(1 1) rotate(0) translate(4 142.25)">
<title>G</title>
<polygon fill="white" stroke="none" points="-4,4 -4,-142.25 314.5,-142.25 314.5,4 -4,4"/>
<!-- libfast.so -->
<g id="node1" class="node">
<title>libfast.so</title>
<polygon fill="none" stroke="black" points="139,-138.25 0,-138.25 0,-95.75 139,-95.75 139,-138.25"/>
<text text-anchor="middle" x="69.5" y="-120.95" font-family="Times,serif" font-size="14.00">libfast.so (&#45;Ofast)</text>
<text text-anchor="middle" x="69.5" y="-103.7" font-family="Times,serif" font-size="14.00">no code!</text>
</g>
<!-- a -->
<g id="node2" class="node">
<title>a</title>
<polygon fill="none" stroke="red" points="120.62,-42.5 18.38,-42.5 18.38,0 120.62,0 120.62,-42.5"/>
<text text-anchor="middle" x="69.5" y="-25.2" font-family="Times,serif" font-size="14.00">a (&#45;O2)</text>
<text text-anchor="middle" x="69.5" y="-7.95" font-family="Times,serif" font-size="14.00">has FP code</text>
</g>
<!-- libfast.so&#45;&gt;a -->
<g id="edge1" class="edge">
<title>libfast.so&#45;&gt;a</title>
<path fill="none" stroke="red" d="M69.5,-95.66C69.5,-83.58 69.5,-67.99 69.5,-54.3"/>
<polygon fill="red" stroke="red" points="73,-54.39 69.5,-44.39 66,-54.39 73,-54.39"/>
<text text-anchor="middle" x="118.25" y="-64.45" font-family="Times,serif" font-size="14.00">lib breaks bin</text>
</g>
<!-- no deps -->
<!-- a  -->
<g id="node4" class="node">
<title>a </title>
<polygon fill="none" stroke="green" points="310.5,-42.5 138.5,-42.5 138.5,0 310.5,0 310.5,-42.5"/>
<text text-anchor="middle" x="224.5" y="-25.2" font-family="Times,serif" font-size="14.00">a (&#45;O2)</text>
<text text-anchor="middle" x="224.5" y="-7.95" font-family="Times,serif" font-size="14.00">has the same FP code</text>
</g>
<!-- no deps&#45;&gt;a  -->
</g>
</svg>
