<?xml version="1.0" encoding="UTF-8" standalone="no"?>
<!DOCTYPE svg PUBLIC "-//W3C//DTD SVG 1.1//EN"
 "http://www.w3.org/Graphics/SVG/1.1/DTD/svg11.dtd">
<!-- Generated by graphviz version 7.0.2 (0)
 -->
<!-- Title: b.c.130t.dom2 Pages: 1 -->
<svg width="562pt" height="1074pt"
 viewBox="0.00 0.00 562.00 1074.00" xmlns="http://www.w3.org/2000/svg" xmlns:xlink="http://www.w3.org/1999/xlink">
<g id="graph0" class="graph" transform="scale(1 1) rotate(0) translate(4 1070)">
<title>b.c.130t.dom2</title>
<polygon fill="white" stroke="none" points="-4,4 -4,-1070 558,-1070 558,4 -4,4"/>
<g id="clust1" class="cluster">
<title>cluster_build_filter</title>
<polygon fill="none" stroke="black" stroke-dasharray="5,2" points="8,-8 8,-1058 546,-1058 546,-8 8,-8"/>
<text text-anchor="middle" x="277" y="-1042.8" font-family="Times,serif" font-size="14.00">build_filter ()</text>
</g>
<!-- fn_11_basic_block_0 -->
<g id="node1" class="node">
<title>fn_11_basic_block_0</title>
<polygon fill="white" stroke="black" points="218,-1027 156.33,-1009 218,-991 279.67,-1009 218,-1027"/>
<polyline fill="none" stroke="black" points="167.85,-1012.36 167.85,-1005.64"/>
<polyline fill="none" stroke="black" points="206.48,-994.36 229.52,-994.36"/>
<polyline fill="none" stroke="black" points="268.15,-1005.64 268.15,-1012.36"/>
<polyline fill="none" stroke="black" points="229.52,-1023.64 206.48,-1023.64"/>
<text text-anchor="middle" x="218" y="-1005.3" font-family="Times,serif" font-size="14.00">ENTRY</text>
</g>
<!-- fn_11_basic_block_1 -->
<g id="node2" class="node">
<title>fn_11_basic_block_1</title>
<polygon fill="white" stroke="black" points="221,-52 174.25,-34 221,-16 267.75,-34 221,-52"/>
<polyline fill="none" stroke="black" points="185.44,-38.31 185.44,-29.69"/>
<polyline fill="none" stroke="black" points="209.8,-20.31 232.2,-20.31"/>
<polyline fill="none" stroke="black" points="256.56,-29.69 256.56,-38.31"/>
<polyline fill="none" stroke="black" points="232.2,-47.69 209.8,-47.69"/>
<text text-anchor="middle" x="221" y="-30.3" font-family="Times,serif" font-size="14.00">EXIT</text>
</g>
<!-- fn_11_basic_block_0&#45;&gt;fn_11_basic_block_1 -->
<!-- fn_11_basic_block_2 -->
<g id="node3" class="node">
<title>fn_11_basic_block_2</title>
<polygon fill="lightgrey" stroke="black" points="105,-687.5 105,-939.5 331,-939.5 331,-687.5 105,-687.5"/>
<text text-anchor="start" x="113" y="-924.3" font-family="Times,serif" font-size="14.00">COUNT:1073741824&lt;bb 2&gt;:</text>
<polyline fill="none" stroke="black" points="105,-916.5 331,-916.5"/>
<text text-anchor="start" x="113" y="-901.3" font-family="Times,serif" font-size="14.00">ph ={v} 0;</text>
<polyline fill="none" stroke="black" points="105,-893.5 331,-893.5"/>
<text text-anchor="start" x="113" y="-878.3" font-family="Times,serif" font-size="14.00">vf ={v} 1.0e+0;</text>
<polyline fill="none" stroke="black" points="105,-870.5 331,-870.5"/>
<text text-anchor="start" x="113" y="-855.3" font-family="Times,serif" font-size="14.00">factor_11 ={v} vf;</text>
<polyline fill="none" stroke="black" points="105,-847.5 331,-847.5"/>
<text text-anchor="start" x="113" y="-832.3" font-family="Times,serif" font-size="14.00">ph.4_1 ={v} ph;</text>
<polyline fill="none" stroke="black" points="105,-824.5 331,-824.5"/>
<text text-anchor="start" x="113" y="-809.3" font-family="Times,serif" font-size="14.00">_2 = (double) ph.4_1;</text>
<polyline fill="none" stroke="black" points="105,-801.5 331,-801.5"/>
<text text-anchor="start" x="113" y="-786.3" font-family="Times,serif" font-size="14.00">_3 = &#45;_2;</text>
<polyline fill="none" stroke="black" points="105,-778.5 331,-778.5"/>
<text text-anchor="start" x="113" y="-763.3" font-family="Times,serif" font-size="14.00">x_12 = _3 * factor_11;</text>
<polyline fill="none" stroke="black" points="105,-755.5 331,-755.5"/>
<text text-anchor="start" x="113" y="-740.3" font-family="Times,serif" font-size="14.00">if (x_12 == 0.0)</text>
<text text-anchor="start" x="113" y="-725.3" font-family="Times,serif" font-size="14.00"> &#160;goto &lt;bb 6&gt;; [50.00%]</text>
<text text-anchor="start" x="113" y="-710.3" font-family="Times,serif" font-size="14.00">else</text>
<text text-anchor="start" x="113" y="-695.3" font-family="Times,serif" font-size="14.00"> &#160;goto &lt;bb 3&gt;; [50.00%]</text>
</g>
<!-- fn_11_basic_block_0&#45;&gt;fn_11_basic_block_2 -->
<g id="edge1" class="edge">
<title>fn_11_basic_block_0:s&#45;&gt;fn_11_basic_block_2:n</title>
<path fill="none" stroke="black" stroke-width="2" d="M218,-991C218,-972.58 218,-965.39 218,-951.18"/>
<polygon fill="black" stroke="black" stroke-width="2" points="221.5,-953.03 218,-943.03 214.5,-953.03 221.5,-953.03"/>
<text text-anchor="middle" x="244" y="-961.8" font-family="Times,serif" font-size="14.00">[100%]</text>
</g>
<!-- fn_11_basic_block_3 -->
<g id="node4" class="node">
<title>fn_11_basic_block_3</title>
<polygon fill="lightgrey" stroke="black" points="109.5,-429.5 109.5,-635.5 326.5,-635.5 326.5,-429.5 109.5,-429.5"/>
<text text-anchor="start" x="117.5" y="-620.3" font-family="Times,serif" font-size="14.00">COUNT:633507680&lt;bb 3&gt;:</text>
<polyline fill="none" stroke="black" points="109.5,-612.5 326.5,-612.5"/>
<text text-anchor="start" x="117.5" y="-597.3" font-family="Times,serif" font-size="14.00">_4 = 1.0e+0 / x_12;</text>
<polyline fill="none" stroke="black" points="109.5,-589.5 326.5,-589.5"/>
<text text-anchor="start" x="117.5" y="-574.3" font-family="Times,serif" font-size="14.00">*y_13(D) = _4;</text>
<polyline fill="none" stroke="black" points="109.5,-566.5 326.5,-566.5"/>
<text text-anchor="start" x="117.5" y="-551.3" font-family="Times,serif" font-size="14.00">_5 = x_12 * 2.0e+0;</text>
<polyline fill="none" stroke="black" points="109.5,-543.5 326.5,-543.5"/>
<text text-anchor="start" x="117.5" y="-528.3" font-family="Times,serif" font-size="14.00">w_16 = _5 / factor_11;</text>
<polyline fill="none" stroke="black" points="109.5,-520.5 326.5,-520.5"/>
<text text-anchor="start" x="117.5" y="-505.3" font-family="Times,serif" font-size="14.00">omww_17 = 1.0e+0 &#45; w_16;</text>
<polyline fill="none" stroke="black" points="109.5,-497.5 326.5,-497.5"/>
<text text-anchor="start" x="117.5" y="-482.3" font-family="Times,serif" font-size="14.00">if (omww_17 &gt; 0.0)</text>
<text text-anchor="start" x="117.5" y="-467.3" font-family="Times,serif" font-size="14.00"> &#160;goto &lt;bb 5&gt;; [100.00%]</text>
<text text-anchor="start" x="117.5" y="-452.3" font-family="Times,serif" font-size="14.00">else</text>
<text text-anchor="start" x="117.5" y="-437.3" font-family="Times,serif" font-size="14.00"> &#160;goto &lt;bb 4&gt;; [0.00%]</text>
</g>
<!-- fn_11_basic_block_2&#45;&gt;fn_11_basic_block_3 -->
<g id="edge3" class="edge">
<title>fn_11_basic_block_2:s&#45;&gt;fn_11_basic_block_3:n</title>
<path fill="none" stroke="darkorange" stroke-width="2" d="M218,-687C218,-668.58 218,-661.39 218,-647.18"/>
<polygon fill="darkorange" stroke="darkorange" stroke-width="2" points="221.5,-649.03 218,-639.03 214.5,-649.03 221.5,-649.03"/>
<text text-anchor="middle" x="239.5" y="-657.8" font-family="Times,serif" font-size="14.00">[50%]</text>
</g>
<!-- fn_11_basic_block_6 -->
<g id="node7" class="node">
<title>fn_11_basic_block_6</title>
<polygon fill="lightgrey" stroke="black" points="288,-224.5 288,-377.5 538,-377.5 538,-224.5 288,-224.5"/>
<text text-anchor="start" x="296" y="-362.3" font-family="Times,serif" font-size="14.00">COUNT:440234144&lt;bb 6&gt;:</text>
<polyline fill="none" stroke="black" points="288,-354.5 538,-354.5"/>
<text text-anchor="start" x="296" y="-339.3" font-family="Times,serif" font-size="14.00"># cstore_14 = PHI &lt;1.0e+0(2)&gt;</text>
<polyline fill="none" stroke="black" points="288,-331.5 538,-331.5"/>
<text text-anchor="start" x="296" y="-316.3" font-family="Times,serif" font-size="14.00">*y_13(D) = cstore_14;</text>
<polyline fill="none" stroke="black" points="288,-308.5 538,-308.5"/>
<text text-anchor="start" x="296" y="-293.3" font-family="Times,serif" font-size="14.00">_20 = x_12 * 2.0e+0;</text>
<polyline fill="none" stroke="black" points="288,-285.5 538,-285.5"/>
<text text-anchor="start" x="296" y="-270.3" font-family="Times,serif" font-size="14.00">w_21 = _20 / factor_11;</text>
<polyline fill="none" stroke="black" points="288,-262.5 538,-262.5"/>
<text text-anchor="start" x="296" y="-247.3" font-family="Times,serif" font-size="14.00">omww_22 = 1.0e+0 &#45; w_21;</text>
<text text-anchor="start" x="296" y="-232.3" font-family="Times,serif" font-size="14.00">goto &lt;bb 5&gt;; [100.00%]</text>
</g>
<!-- fn_11_basic_block_2&#45;&gt;fn_11_basic_block_6 -->
<g id="edge2" class="edge">
<title>fn_11_basic_block_2:s&#45;&gt;fn_11_basic_block_6:n</title>
<path fill="none" stroke="forestgreen" stroke-width="2" d="M218,-687C218,-664.63 244.4,-677.72 265,-669 297.04,-655.44 313.24,-662.32 336,-636 411.74,-548.39 413,-500.79 413,-389.35"/>
<polygon fill="forestgreen" stroke="forestgreen" stroke-width="2" points="416.5,-391.03 413,-381.03 409.5,-391.03 416.5,-391.03"/>
<text text-anchor="middle" x="433.5" y="-528.8" font-family="Times,serif" font-size="14.00">[50%]</text>
</g>
<!-- fn_11_basic_block_4 -->
<g id="node5" class="node">
<title>fn_11_basic_block_4</title>
<polygon fill="lightgrey" stroke="black" points="36.5,-283 36.5,-319 181.5,-319 181.5,-283 36.5,-283"/>
<text text-anchor="start" x="44.5" y="-297.3" font-family="Times,serif" font-size="14.00">COUNT:0&lt;bb 4&gt;:</text>
</g>
<!-- fn_11_basic_block_3&#45;&gt;fn_11_basic_block_4 -->
<g id="edge5" class="edge">
<title>fn_11_basic_block_3:s&#45;&gt;fn_11_basic_block_4:n</title>
<path fill="none" stroke="darkorange" stroke-width="2" d="M218,-429C218,-409.91 193.92,-422.91 179,-411 142.32,-381.71 113.89,-372.48 109.57,-331.47"/>
<polygon fill="darkorange" stroke="darkorange" stroke-width="2" points="113.14,-332.84 109.15,-323.02 106.15,-333.18 113.14,-332.84"/>
<text text-anchor="middle" x="196" y="-399.8" font-family="Times,serif" font-size="14.00">[0%]</text>
</g>
<!-- fn_11_basic_block_5 -->
<g id="node6" class="node">
<title>fn_11_basic_block_5</title>
<polygon fill="lightgrey" stroke="black" points="36.5,-103.5 36.5,-172.5 405.5,-172.5 405.5,-103.5 36.5,-103.5"/>
<text text-anchor="start" x="44.5" y="-157.3" font-family="Times,serif" font-size="14.00">COUNT:1073741824&lt;bb 5&gt;:</text>
<polyline fill="none" stroke="black" points="36.5,-149.5 405.5,-149.5"/>
<text text-anchor="start" x="44.5" y="-134.3" font-family="Times,serif" font-size="14.00"># iftmp.5_6 = PHI &lt;omww_17(3), 0.0(4), 0.0(6)&gt;</text>
<polyline fill="none" stroke="black" points="36.5,-126.5 405.5,-126.5"/>
<text text-anchor="start" x="44.5" y="-111.3" font-family="Times,serif" font-size="14.00">return iftmp.5_6;</text>
</g>
<!-- fn_11_basic_block_3&#45;&gt;fn_11_basic_block_5 -->
<g id="edge4" class="edge">
<title>fn_11_basic_block_3:s&#45;&gt;fn_11_basic_block_5:n</title>
<path fill="none" stroke="forestgreen" stroke-width="2" d="M218,-429C218,-319.1 220.8,-288.83 220.99,-184.38"/>
<polygon fill="forestgreen" stroke="forestgreen" stroke-width="2" points="224.49,-186.03 221,-176.03 217.49,-186.02 224.49,-186.03"/>
<text text-anchor="middle" x="246" y="-297.3" font-family="Times,serif" font-size="14.00">[100%]</text>
</g>
<!-- fn_11_basic_block_4&#45;&gt;fn_11_basic_block_5 -->
<g id="edge6" class="edge">
<title>fn_11_basic_block_4:s&#45;&gt;fn_11_basic_block_5:n</title>
<path fill="none" stroke="black" stroke-width="2" d="M109,-282C109,-235.42 124.53,-219.98 161,-191 178.54,-177.06 206.7,-191.93 217.03,-183.76"/>
<polygon fill="black" stroke="black" stroke-width="2" points="219.78,-186.43 219.95,-175.84 213.21,-184.01 219.78,-186.43"/>
<text text-anchor="middle" x="187" y="-194.8" font-family="Times,serif" font-size="14.00">[100%]</text>
</g>
<!-- fn_11_basic_block_5&#45;&gt;fn_11_basic_block_1 -->
<g id="edge7" class="edge">
<title>fn_11_basic_block_5:s&#45;&gt;fn_11_basic_block_1:n</title>
<path fill="none" stroke="black" stroke-width="2" d="M221,-103C221,-84.58 221,-77.39 221,-63.18"/>
<polygon fill="black" stroke="black" stroke-width="2" points="224.5,-65.03 221,-55.03 217.5,-65.03 224.5,-65.03"/>
<text text-anchor="middle" x="247" y="-73.8" font-family="Times,serif" font-size="14.00">[100%]</text>
</g>
<!-- fn_11_basic_block_6&#45;&gt;fn_11_basic_block_5 -->
<g id="edge8" class="edge">
<title>fn_11_basic_block_6:s&#45;&gt;fn_11_basic_block_5:n</title>
<path fill="none" stroke="black" stroke-width="2" d="M413,-224C413,-139.85 238.58,-249.99 222.23,-184.05"/>
<polygon fill="black" stroke="black" stroke-width="2" points="225.92,-185.56 221.33,-176.01 218.96,-186.33 225.92,-185.56"/>
<text text-anchor="middle" x="433" y="-194.8" font-family="Times,serif" font-size="14.00">[100%]</text>
</g>
</g>
</svg>
