<?xml version="1.0" encoding="UTF-8" standalone="no"?>
<!DOCTYPE svg PUBLIC "-//W3C//DTD SVG 1.1//EN"
 "http://www.w3.org/Graphics/SVG/1.1/DTD/svg11.dtd">
<!-- Generated by graphviz version 12.1.1 (0)
 -->
<!-- Title: b.c.130t.dom2 Pages: 1 -->
<svg width="559pt" height="1160pt"
 viewBox="0.00 0.00 559.00 1159.50" xmlns="http://www.w3.org/2000/svg" xmlns:xlink="http://www.w3.org/1999/xlink">
<g id="graph0" class="graph" transform="scale(1 1) rotate(0) translate(4 1155.5)">
<title>b.c.130t.dom2</title>
<polygon fill="white" stroke="none" points="-4,4 -4,-1155.5 555,-1155.5 555,4 -4,4"/>
<g id="clust1" class="cluster">
<title>cluster_build_filter</title>
<polygon fill="none" stroke="black" stroke-dasharray="5,2" points="8,-8 8,-1143.5 543,-1143.5 543,-8 8,-8"/>
<text text-anchor="middle" x="275.5" y="-1126.2" font-family="Times,serif" font-size="14.00">build_filter ()</text>
</g>
<!-- fn_11_basic_block_0 -->
<g id="node1" class="node">
<title>fn_11_basic_block_0</title>
<polygon fill="white" stroke="black" points="216,-1110.25 150.28,-1092.25 216,-1074.25 281.72,-1092.25 216,-1110.25"/>
<polyline fill="none" stroke="black" points="161.85,-1095.42 161.85,-1089.08"/>
<polyline fill="none" stroke="black" points="204.43,-1077.42 227.57,-1077.42"/>
<polyline fill="none" stroke="black" points="270.15,-1089.08 270.15,-1095.42"/>
<polyline fill="none" stroke="black" points="227.57,-1107.08 204.43,-1107.08"/>
<text text-anchor="middle" x="216" y="-1087.58" font-family="Times,serif" font-size="14.00">ENTRY</text>
</g>
<!-- fn_11_basic_block_1 -->
<g id="node2" class="node">
<title>fn_11_basic_block_1</title>
<polygon fill="white" stroke="black" points="220,-52 169.9,-34 220,-16 270.1,-34 220,-52"/>
<polyline fill="none" stroke="black" points="181.2,-38.06 181.2,-29.94"/>
<polyline fill="none" stroke="black" points="208.71,-20.06 231.29,-20.06"/>
<polyline fill="none" stroke="black" points="258.8,-29.94 258.8,-38.06"/>
<polyline fill="none" stroke="black" points="231.29,-47.94 208.71,-47.94"/>
<text text-anchor="middle" x="220" y="-29.32" font-family="Times,serif" font-size="14.00">EXIT</text>
</g>
<!-- fn_11_basic_block_0&#45;&gt;fn_11_basic_block_1 -->
<!-- fn_11_basic_block_2 -->
<g id="node3" class="node">
<title>fn_11_basic_block_2</title>
<polygon fill="lightgrey" stroke="black" points="103.38,-741.5 103.38,-1020.5 328.62,-1020.5 328.62,-741.5 103.38,-741.5"/>
<text text-anchor="start" x="111.38" y="-1003.2" font-family="Times,serif" font-size="14.00">COUNT:1073741824&lt;bb 2&gt;:</text>
<polyline fill="none" stroke="black" points="103.38,-995.25 328.62,-995.25"/>
<text text-anchor="start" x="111.38" y="-977.95" font-family="Times,serif" font-size="14.00">ph ={v} 0;</text>
<polyline fill="none" stroke="black" points="103.38,-970 328.62,-970"/>
<text text-anchor="start" x="111.38" y="-952.7" font-family="Times,serif" font-size="14.00">vf ={v} 1.0e+0;</text>
<polyline fill="none" stroke="black" points="103.38,-944.75 328.62,-944.75"/>
<text text-anchor="start" x="111.38" y="-927.45" font-family="Times,serif" font-size="14.00">factor_11 ={v} vf;</text>
<polyline fill="none" stroke="black" points="103.38,-919.5 328.62,-919.5"/>
<text text-anchor="start" x="111.38" y="-902.2" font-family="Times,serif" font-size="14.00">ph.4_1 ={v} ph;</text>
<polyline fill="none" stroke="black" points="103.38,-894.25 328.62,-894.25"/>
<text text-anchor="start" x="111.38" y="-876.95" font-family="Times,serif" font-size="14.00">_2 = (double) ph.4_1;</text>
<polyline fill="none" stroke="black" points="103.38,-869 328.62,-869"/>
<text text-anchor="start" x="111.38" y="-851.7" font-family="Times,serif" font-size="14.00">_3 = &#45;_2;</text>
<polyline fill="none" stroke="black" points="103.38,-843.75 328.62,-843.75"/>
<text text-anchor="start" x="111.38" y="-826.45" font-family="Times,serif" font-size="14.00">x_12 = _3 * factor_11;</text>
<polyline fill="none" stroke="black" points="103.38,-818.5 328.62,-818.5"/>
<text text-anchor="start" x="111.38" y="-801.2" font-family="Times,serif" font-size="14.00">if (x_12 == 0.0)</text>
<text text-anchor="start" x="111.38" y="-783.95" font-family="Times,serif" font-size="14.00"> &#160;goto &lt;bb 6&gt;; [50.00%]</text>
<text text-anchor="start" x="111.38" y="-766.7" font-family="Times,serif" font-size="14.00">else</text>
<text text-anchor="start" x="111.38" y="-749.45" font-family="Times,serif" font-size="14.00"> &#160;goto &lt;bb 3&gt;; [50.00%]</text>
</g>
<!-- fn_11_basic_block_0&#45;&gt;fn_11_basic_block_2 -->
<g id="edge1" class="edge">
<title>fn_11_basic_block_0:s&#45;&gt;fn_11_basic_block_2:n</title>
<path fill="none" stroke="black" stroke-width="2" d="M216,-1074.25C216,-1054.84 216,-1047.37 216,-1032.24"/>
<polygon fill="black" stroke="black" stroke-width="2" points="219.5,-1034.03 216,-1024.03 212.5,-1034.03 219.5,-1034.03"/>
<text text-anchor="middle" x="241.5" y="-1042.95" font-family="Times,serif" font-size="14.00">[100%]</text>
</g>
<!-- fn_11_basic_block_3 -->
<g id="node4" class="node">
<title>fn_11_basic_block_3</title>
<polygon fill="lightgrey" stroke="black" points="107.88,-458.75 107.88,-687.25 324.12,-687.25 324.12,-458.75 107.88,-458.75"/>
<text text-anchor="start" x="115.88" y="-669.95" font-family="Times,serif" font-size="14.00">COUNT:633507680&lt;bb 3&gt;:</text>
<polyline fill="none" stroke="black" points="107.88,-662 324.12,-662"/>
<text text-anchor="start" x="115.88" y="-644.7" font-family="Times,serif" font-size="14.00">_4 = 1.0e+0 / x_12;</text>
<polyline fill="none" stroke="black" points="107.88,-636.75 324.12,-636.75"/>
<text text-anchor="start" x="115.88" y="-619.45" font-family="Times,serif" font-size="14.00">*y_13(D) = _4;</text>
<polyline fill="none" stroke="black" points="107.88,-611.5 324.12,-611.5"/>
<text text-anchor="start" x="115.88" y="-594.2" font-family="Times,serif" font-size="14.00">_5 = x_12 * 2.0e+0;</text>
<polyline fill="none" stroke="black" points="107.88,-586.25 324.12,-586.25"/>
<text text-anchor="start" x="115.88" y="-568.95" font-family="Times,serif" font-size="14.00">w_16 = _5 / factor_11;</text>
<polyline fill="none" stroke="black" points="107.88,-561 324.12,-561"/>
<text text-anchor="start" x="115.88" y="-543.7" font-family="Times,serif" font-size="14.00">omww_17 = 1.0e+0 &#45; w_16;</text>
<polyline fill="none" stroke="black" points="107.88,-535.75 324.12,-535.75"/>
<text text-anchor="start" x="115.88" y="-518.45" font-family="Times,serif" font-size="14.00">if (omww_17 &gt; 0.0)</text>
<text text-anchor="start" x="115.88" y="-501.2" font-family="Times,serif" font-size="14.00"> &#160;goto &lt;bb 5&gt;; [100.00%]</text>
<text text-anchor="start" x="115.88" y="-483.95" font-family="Times,serif" font-size="14.00">else</text>
<text text-anchor="start" x="115.88" y="-466.7" font-family="Times,serif" font-size="14.00"> &#160;goto &lt;bb 4&gt;; [0.00%]</text>
</g>
<!-- fn_11_basic_block_2&#45;&gt;fn_11_basic_block_3 -->
<g id="edge3" class="edge">
<title>fn_11_basic_block_2:s&#45;&gt;fn_11_basic_block_3:n</title>
<path fill="none" stroke="darkorange" stroke-width="2" d="M216,-741C216,-721.59 216,-714.12 216,-698.99"/>
<polygon fill="darkorange" stroke="darkorange" stroke-width="2" points="219.5,-700.78 216,-690.78 212.5,-700.78 219.5,-700.78"/>
<text text-anchor="middle" x="237" y="-709.7" font-family="Times,serif" font-size="14.00">[50%]</text>
</g>
<!-- fn_11_basic_block_6 -->
<g id="node7" class="node">
<title>fn_11_basic_block_6</title>
<polygon fill="lightgrey" stroke="black" points="285.38,-235.75 285.38,-404.5 534.62,-404.5 534.62,-235.75 285.38,-235.75"/>
<text text-anchor="start" x="293.38" y="-387.2" font-family="Times,serif" font-size="14.00">COUNT:440234144&lt;bb 6&gt;:</text>
<polyline fill="none" stroke="black" points="285.38,-379.25 534.62,-379.25"/>
<text text-anchor="start" x="293.38" y="-361.95" font-family="Times,serif" font-size="14.00"># cstore_14 = PHI &lt;1.0e+0(2)&gt;</text>
<polyline fill="none" stroke="black" points="285.38,-354 534.62,-354"/>
<text text-anchor="start" x="293.38" y="-336.7" font-family="Times,serif" font-size="14.00">*y_13(D) = cstore_14;</text>
<polyline fill="none" stroke="black" points="285.38,-328.75 534.62,-328.75"/>
<text text-anchor="start" x="293.38" y="-311.45" font-family="Times,serif" font-size="14.00">_20 = x_12 * 2.0e+0;</text>
<polyline fill="none" stroke="black" points="285.38,-303.5 534.62,-303.5"/>
<text text-anchor="start" x="293.38" y="-286.2" font-family="Times,serif" font-size="14.00">w_21 = _20 / factor_11;</text>
<polyline fill="none" stroke="black" points="285.38,-278.25 534.62,-278.25"/>
<text text-anchor="start" x="293.38" y="-260.95" font-family="Times,serif" font-size="14.00">omww_22 = 1.0e+0 &#45; w_21;</text>
<text text-anchor="start" x="293.38" y="-243.7" font-family="Times,serif" font-size="14.00">goto &lt;bb 5&gt;; [100.00%]</text>
</g>
<!-- fn_11_basic_block_2&#45;&gt;fn_11_basic_block_6 -->
<g id="edge2" class="edge">
<title>fn_11_basic_block_2:s&#45;&gt;fn_11_basic_block_6:n</title>
<path fill="none" stroke="forestgreen" stroke-width="2" d="M216,-741C216,-719.05 241.93,-731.89 262,-723 294.21,-708.73 310.63,-714.97 333,-687.75 413.27,-590.08 410.26,-538.33 410.01,-416.25"/>
<polygon fill="forestgreen" stroke="forestgreen" stroke-width="2" points="413.51,-418.02 410,-408.03 406.51,-418.03 413.51,-418.02"/>
<text text-anchor="middle" x="431.06" y="-568.33" font-family="Times,serif" font-size="14.00">[50%]</text>
</g>
<!-- fn_11_basic_block_4 -->
<g id="node5" class="node">
<title>fn_11_basic_block_4</title>
<polygon fill="lightgrey" stroke="black" points="35.88,-302.12 35.88,-338.12 180.12,-338.12 180.12,-302.12 35.88,-302.12"/>
<text text-anchor="start" x="43.88" y="-315.82" font-family="Times,serif" font-size="14.00">COUNT:0&lt;bb 4&gt;:</text>
</g>
<!-- fn_11_basic_block_3&#45;&gt;fn_11_basic_block_4 -->
<g id="edge5" class="edge">
<title>fn_11_basic_block_3:s&#45;&gt;fn_11_basic_block_4:n</title>
<path fill="none" stroke="darkorange" stroke-width="2" d="M216,-458.25C216,-439.56 192.25,-452.34 178,-440.25 139.42,-407.5 112.28,-395.57 108.46,-350.6"/>
<polygon fill="darkorange" stroke="darkorange" stroke-width="2" points="112.02,-352 108.12,-342.15 105.03,-352.28 112.02,-352"/>
<text text-anchor="middle" x="194.5" y="-426.95" font-family="Times,serif" font-size="14.00">[0%]</text>
</g>
<!-- fn_11_basic_block_5 -->
<g id="node6" class="node">
<title>fn_11_basic_block_5</title>
<polygon fill="lightgrey" stroke="black" points="35.75,-105.75 35.75,-181.5 404.25,-181.5 404.25,-105.75 35.75,-105.75"/>
<text text-anchor="start" x="43.75" y="-164.2" font-family="Times,serif" font-size="14.00">COUNT:1073741824&lt;bb 5&gt;:</text>
<polyline fill="none" stroke="black" points="35.75,-156.25 404.25,-156.25"/>
<text text-anchor="start" x="43.75" y="-138.95" font-family="Times,serif" font-size="14.00"># iftmp.5_6 = PHI &lt;omww_17(3), 0.0(4), 0.0(6)&gt;</text>
<polyline fill="none" stroke="black" points="35.75,-131 404.25,-131"/>
<text text-anchor="start" x="43.75" y="-113.7" font-family="Times,serif" font-size="14.00">return iftmp.5_6;</text>
</g>
<!-- fn_11_basic_block_3&#45;&gt;fn_11_basic_block_5 -->
<g id="edge4" class="edge">
<title>fn_11_basic_block_3:s&#45;&gt;fn_11_basic_block_5:n</title>
<path fill="none" stroke="forestgreen" stroke-width="2" d="M216,-458.25C216,-339.3 219.75,-306.8 219.99,-193.25"/>
<polygon fill="forestgreen" stroke="forestgreen" stroke-width="2" points="223.49,-195.03 220,-185.03 216.49,-195.02 223.49,-195.03"/>
<text text-anchor="middle" x="245.2" y="-315.45" font-family="Times,serif" font-size="14.00">[100%]</text>
</g>
<!-- fn_11_basic_block_4&#45;&gt;fn_11_basic_block_5 -->
<g id="edge6" class="edge">
<title>fn_11_basic_block_4:s&#45;&gt;fn_11_basic_block_5:n</title>
<path fill="none" stroke="black" stroke-width="2" d="M108,-301.12C108,-250.59 121.14,-232.31 160,-200 177.23,-185.68 205.58,-200.78 216,-192.72"/>
<polygon fill="black" stroke="black" stroke-width="2" points="218.72,-195.43 218.94,-184.84 212.16,-192.98 218.72,-195.43"/>
<text text-anchor="middle" x="185.5" y="-203.95" font-family="Times,serif" font-size="14.00">[100%]</text>
</g>
<!-- fn_11_basic_block_5&#45;&gt;fn_11_basic_block_1 -->
<g id="edge7" class="edge">
<title>fn_11_basic_block_5:s&#45;&gt;fn_11_basic_block_1:n</title>
<path fill="none" stroke="black" stroke-width="2" d="M220,-105.25C220,-85.84 220,-78.37 220,-63.24"/>
<polygon fill="black" stroke="black" stroke-width="2" points="223.5,-65.03 220,-55.03 216.5,-65.03 223.5,-65.03"/>
<text text-anchor="middle" x="245.5" y="-73.95" font-family="Times,serif" font-size="14.00">[100%]</text>
</g>
<!-- fn_11_basic_block_6&#45;&gt;fn_11_basic_block_5 -->
<g id="edge8" class="edge">
<title>fn_11_basic_block_6:s&#45;&gt;fn_11_basic_block_5:n</title>
<path fill="none" stroke="black" stroke-width="2" d="M410,-235.25C410,-151.83 238.1,-258.27 221.31,-193.39"/>
<polygon fill="black" stroke="black" stroke-width="2" points="224.97,-194.54 220.35,-185.01 218.02,-195.34 224.97,-194.54"/>
<text text-anchor="middle" x="430.18" y="-203.95" font-family="Times,serif" font-size="14.00">[100%]</text>
</g>
</g>
</svg>
