<?xml version="1.0" encoding="UTF-8" standalone="no"?>
<!DOCTYPE svg PUBLIC "-//W3C//DTD SVG 1.1//EN"
 "http://www.w3.org/Graphics/SVG/1.1/DTD/svg11.dtd">
<!-- Generated by graphviz version 9.0.0 (0)
 -->
<!-- Title: b.c.015t.cfg Pages: 1 -->
<svg width="378pt" height="1060pt"
 viewBox="0.00 0.00 378.29 1059.75" xmlns="http://www.w3.org/2000/svg" xmlns:xlink="http://www.w3.org/1999/xlink">
<g id="graph0" class="graph" transform="scale(1 1) rotate(0) translate(4 1055.75)">
<title>b.c.015t.cfg</title>
<polygon fill="white" stroke="none" points="-4,4 -4,-1055.75 374.29,-1055.75 374.29,4 -4,4"/>
<g id="clust1" class="cluster">
<title>cluster_build_filter</title>
<polygon fill="none" stroke="black" stroke-dasharray="5,2" points="24.29,-8 24.29,-1043.75 362.29,-1043.75 362.29,-8 24.29,-8"/>
<text text-anchor="middle" x="193.29" y="-1026.45" font-family="Times,serif" font-size="14.00">build_filter ()</text>
</g>
<!-- fn_11_basic_block_0 -->
<g id="node1" class="node">
<title>fn_11_basic_block_0</title>
<polygon fill="white" stroke="black" points="136.29,-1010.5 70.57,-992.5 136.29,-974.5 202.02,-992.5 136.29,-1010.5"/>
<polyline fill="none" stroke="black" points="82.14,-995.67 82.14,-989.33"/>
<polyline fill="none" stroke="black" points="124.72,-977.67 147.87,-977.67"/>
<polyline fill="none" stroke="black" points="190.44,-989.33 190.44,-995.67"/>
<polyline fill="none" stroke="black" points="147.87,-1007.33 124.72,-1007.33"/>
<text text-anchor="middle" x="136.29" y="-987.83" font-family="Times,serif" font-size="14.00">ENTRY</text>
</g>
<!-- fn_11_basic_block_1 -->
<g id="node2" class="node">
<title>fn_11_basic_block_1</title>
<polygon fill="white" stroke="black" points="129.29,-52 79.19,-34 129.29,-16 179.39,-34 129.29,-52"/>
<polyline fill="none" stroke="black" points="90.49,-38.06 90.49,-29.94"/>
<polyline fill="none" stroke="black" points="118,-20.06 140.59,-20.06"/>
<polyline fill="none" stroke="black" points="168.1,-29.94 168.1,-38.06"/>
<polyline fill="none" stroke="black" points="140.59,-47.94 118,-47.94"/>
<text text-anchor="middle" x="129.29" y="-29.32" font-family="Times,serif" font-size="14.00">EXIT</text>
</g>
<!-- fn_11_basic_block_0&#45;&gt;fn_11_basic_block_1 -->
<!-- fn_11_basic_block_2 -->
<g id="node3" class="node">
<title>fn_11_basic_block_2</title>
<polygon fill="lightgrey" stroke="black" points="52.54,-659 52.54,-938 220.04,-938 220.04,-659 52.54,-659"/>
<text text-anchor="start" x="60.54" y="-920.7" font-family="Times,serif" font-size="14.00">&lt;bb 2&gt;:</text>
<polyline fill="none" stroke="black" points="52.54,-912.75 220.04,-912.75"/>
<text text-anchor="start" x="60.54" y="-895.45" font-family="Times,serif" font-size="14.00">ph = 0;</text>
<polyline fill="none" stroke="black" points="52.54,-887.5 220.04,-887.5"/>
<text text-anchor="start" x="60.54" y="-870.2" font-family="Times,serif" font-size="14.00">vf = 1.0e+0;</text>
<polyline fill="none" stroke="black" points="52.54,-862.25 220.04,-862.25"/>
<text text-anchor="start" x="60.54" y="-844.95" font-family="Times,serif" font-size="14.00">factor = vf;</text>
<polyline fill="none" stroke="black" points="52.54,-837 220.04,-837"/>
<text text-anchor="start" x="60.54" y="-819.7" font-family="Times,serif" font-size="14.00">ph.4_1 = ph;</text>
<polyline fill="none" stroke="black" points="52.54,-811.75 220.04,-811.75"/>
<text text-anchor="start" x="60.54" y="-794.45" font-family="Times,serif" font-size="14.00">_2 = (double) ph.4_1;</text>
<polyline fill="none" stroke="black" points="52.54,-786.5 220.04,-786.5"/>
<text text-anchor="start" x="60.54" y="-769.2" font-family="Times,serif" font-size="14.00">_3 = &#45;_2;</text>
<polyline fill="none" stroke="black" points="52.54,-761.25 220.04,-761.25"/>
<text text-anchor="start" x="60.54" y="-743.95" font-family="Times,serif" font-size="14.00">x = factor * _3;</text>
<polyline fill="none" stroke="black" points="52.54,-736 220.04,-736"/>
<text text-anchor="start" x="60.54" y="-718.7" font-family="Times,serif" font-size="14.00">if (x == 0.0)</text>
<text text-anchor="start" x="60.54" y="-701.45" font-family="Times,serif" font-size="14.00"> &#160;goto &lt;bb 3&gt;; [INV]</text>
<text text-anchor="start" x="60.54" y="-684.2" font-family="Times,serif" font-size="14.00">else</text>
<text text-anchor="start" x="60.54" y="-666.95" font-family="Times,serif" font-size="14.00"> &#160;goto &lt;bb 4&gt;; [INV]</text>
</g>
<!-- fn_11_basic_block_0&#45;&gt;fn_11_basic_block_2 -->
<g id="edge1" class="edge">
<title>fn_11_basic_block_0:s&#45;&gt;fn_11_basic_block_2:n</title>
<path fill="none" stroke="black" stroke-width="2" d="M136.29,-974.5C136.29,-963.12 136.29,-957.82 136.29,-949.95"/>
<polygon fill="black" stroke="black" stroke-width="2" points="139.79,-951.53 136.29,-941.53 132.79,-951.53 139.79,-951.53"/>
</g>
<!-- fn_11_basic_block_3 -->
<g id="node4" class="node">
<title>fn_11_basic_block_3</title>
<polygon fill="lightgrey" stroke="black" points="52.29,-550.25 52.29,-618 206.29,-618 206.29,-550.25 52.29,-550.25"/>
<text text-anchor="start" x="60.29" y="-600.7" font-family="Times,serif" font-size="14.00">&lt;bb 3&gt;:</text>
<polyline fill="none" stroke="black" points="52.29,-592.75 206.29,-592.75"/>
<text text-anchor="start" x="60.29" y="-575.45" font-family="Times,serif" font-size="14.00">*y = 1.0e+0;</text>
<text text-anchor="start" x="60.29" y="-558.2" font-family="Times,serif" font-size="14.00">goto &lt;bb 5&gt;; [INV]</text>
</g>
<!-- fn_11_basic_block_2&#45;&gt;fn_11_basic_block_3 -->
<g id="edge2" class="edge">
<title>fn_11_basic_block_2:s&#45;&gt;fn_11_basic_block_3:n</title>
<path fill="none" stroke="forestgreen" stroke-width="2" d="M136.29,-658.5C136.29,-645.31 132.44,-639.8 130.45,-630.57"/>
<polygon fill="forestgreen" stroke="forestgreen" stroke-width="2" points="134.08,-631.73 129.6,-622.14 127.12,-632.44 134.08,-631.73"/>
</g>
<!-- fn_11_basic_block_4 -->
<g id="node5" class="node">
<title>fn_11_basic_block_4</title>
<polygon fill="lightgrey" stroke="black" points="223.92,-546.25 223.92,-622 354.67,-622 354.67,-546.25 223.92,-546.25"/>
<text text-anchor="start" x="231.92" y="-604.7" font-family="Times,serif" font-size="14.00">&lt;bb 4&gt;:</text>
<polyline fill="none" stroke="black" points="223.92,-596.75 354.67,-596.75"/>
<text text-anchor="start" x="231.92" y="-579.45" font-family="Times,serif" font-size="14.00">_4 = 1.0e+0 / x;</text>
<polyline fill="none" stroke="black" points="223.92,-571.5 354.67,-571.5"/>
<text text-anchor="start" x="231.92" y="-554.2" font-family="Times,serif" font-size="14.00">*y = _4;</text>
</g>
<!-- fn_11_basic_block_2&#45;&gt;fn_11_basic_block_4 -->
<g id="edge3" class="edge">
<title>fn_11_basic_block_2:s&#45;&gt;fn_11_basic_block_4:n</title>
<path fill="none" stroke="darkorange" stroke-width="2" d="M136.29,-658.5C136.29,-593.01 270.77,-680.07 287.57,-633.65"/>
<polygon fill="darkorange" stroke="darkorange" stroke-width="2" points="290.77,-635.91 288.83,-625.49 283.85,-634.84 290.77,-635.91"/>
</g>
<!-- fn_11_basic_block_5 -->
<g id="node6" class="node">
<title>fn_11_basic_block_5</title>
<polygon fill="lightgrey" stroke="black" points="121.04,-331.25 121.04,-509.25 285.54,-509.25 285.54,-331.25 121.04,-331.25"/>
<text text-anchor="start" x="129.04" y="-491.95" font-family="Times,serif" font-size="14.00">&lt;bb 5&gt;:</text>
<polyline fill="none" stroke="black" points="121.04,-484 285.54,-484"/>
<text text-anchor="start" x="129.04" y="-466.7" font-family="Times,serif" font-size="14.00">_5 = x * 2.0e+0;</text>
<polyline fill="none" stroke="black" points="121.04,-458.75 285.54,-458.75"/>
<text text-anchor="start" x="129.04" y="-441.45" font-family="Times,serif" font-size="14.00">w = _5 / factor;</text>
<polyline fill="none" stroke="black" points="121.04,-433.5 285.54,-433.5"/>
<text text-anchor="start" x="129.04" y="-416.2" font-family="Times,serif" font-size="14.00">omww = 1.0e+0 &#45; w;</text>
<polyline fill="none" stroke="black" points="121.04,-408.25 285.54,-408.25"/>
<text text-anchor="start" x="129.04" y="-390.95" font-family="Times,serif" font-size="14.00">if (omww &gt; 0.0)</text>
<text text-anchor="start" x="129.04" y="-373.7" font-family="Times,serif" font-size="14.00"> &#160;goto &lt;bb 6&gt;; [INV]</text>
<text text-anchor="start" x="129.04" y="-356.45" font-family="Times,serif" font-size="14.00">else</text>
<text text-anchor="start" x="129.04" y="-339.2" font-family="Times,serif" font-size="14.00"> &#160;goto &lt;bb 7&gt;; [INV]</text>
</g>
<!-- fn_11_basic_block_3&#45;&gt;fn_11_basic_block_5 -->
<g id="edge4" class="edge">
<title>fn_11_basic_block_3:s&#45;&gt;fn_11_basic_block_5:n</title>
<path fill="none" stroke="black" stroke-width="2" d="M129.29,-549.12C129.29,-516.53 185.95,-539.35 200.11,-520.61"/>
<polygon fill="black" stroke="black" stroke-width="2" points="202.99,-523.24 202.44,-512.66 196.27,-521.27 202.99,-523.24"/>
</g>
<!-- fn_11_basic_block_4&#45;&gt;fn_11_basic_block_5 -->
<g id="edge5" class="edge">
<title>fn_11_basic_block_4:s&#45;&gt;fn_11_basic_block_5:n</title>
<path fill="none" stroke="black" stroke-width="2" d="M289.29,-545.75C289.29,-509.01 221.67,-541.7 206.35,-520.69"/>
<polygon fill="black" stroke="black" stroke-width="2" points="210.17,-521.35 204.11,-512.67 203.43,-523.24 210.17,-521.35"/>
</g>
<!-- fn_11_basic_block_6 -->
<g id="node7" class="node">
<title>fn_11_basic_block_6</title>
<polygon fill="lightgrey" stroke="black" points="52.29,-226.5 52.29,-294.25 206.29,-294.25 206.29,-226.5 52.29,-226.5"/>
<text text-anchor="start" x="60.29" y="-276.95" font-family="Times,serif" font-size="14.00">&lt;bb 6&gt;:</text>
<polyline fill="none" stroke="black" points="52.29,-269 206.29,-269"/>
<text text-anchor="start" x="60.29" y="-251.7" font-family="Times,serif" font-size="14.00">iftmp.5 = omww;</text>
<text text-anchor="start" x="60.29" y="-234.45" font-family="Times,serif" font-size="14.00">goto &lt;bb 8&gt;; [INV]</text>
</g>
<!-- fn_11_basic_block_5&#45;&gt;fn_11_basic_block_6 -->
<g id="edge6" class="edge">
<title>fn_11_basic_block_5:s&#45;&gt;fn_11_basic_block_6:n</title>
<path fill="none" stroke="forestgreen" stroke-width="2" d="M203.29,-330.75C203.29,-298.75 146.64,-323.19 132.47,-305.3"/>
<polygon fill="forestgreen" stroke="forestgreen" stroke-width="2" points="136.4,-306.21 130.17,-297.65 129.7,-308.23 136.4,-306.21"/>
</g>
<!-- fn_11_basic_block_7 -->
<g id="node8" class="node">
<title>fn_11_basic_block_7</title>
<polygon fill="lightgrey" stroke="black" points="224.42,-235.12 224.42,-285.62 340.17,-285.62 340.17,-235.12 224.42,-235.12"/>
<text text-anchor="start" x="232.42" y="-268.32" font-family="Times,serif" font-size="14.00">&lt;bb 7&gt;:</text>
<polyline fill="none" stroke="black" points="224.42,-260.38 340.17,-260.38"/>
<text text-anchor="start" x="232.42" y="-243.07" font-family="Times,serif" font-size="14.00">iftmp.5 = 0.0;</text>
</g>
<!-- fn_11_basic_block_5&#45;&gt;fn_11_basic_block_7 -->
<g id="edge7" class="edge">
<title>fn_11_basic_block_5:s&#45;&gt;fn_11_basic_block_7:n</title>
<path fill="none" stroke="darkorange" stroke-width="2" d="M203.29,-330.75C203.29,-295.04 265.41,-319.43 279.48,-297.34"/>
<polygon fill="darkorange" stroke="darkorange" stroke-width="2" points="282.45,-299.86 281.54,-289.31 275.67,-298.12 282.45,-299.86"/>
</g>
<!-- fn_11_basic_block_8 -->
<g id="node9" class="node">
<title>fn_11_basic_block_8</title>
<polygon fill="lightgrey" stroke="black" points="68.42,-88.5 68.42,-189.5 190.17,-189.5 190.17,-88.5 68.42,-88.5"/>
<text text-anchor="start" x="76.42" y="-172.2" font-family="Times,serif" font-size="14.00">&lt;bb 8&gt;:</text>
<polyline fill="none" stroke="black" points="68.42,-164.25 190.17,-164.25"/>
<text text-anchor="start" x="76.42" y="-146.95" font-family="Times,serif" font-size="14.00">ffm = iftmp.5;</text>
<polyline fill="none" stroke="black" points="68.42,-139 190.17,-139"/>
<text text-anchor="start" x="76.42" y="-121.7" font-family="Times,serif" font-size="14.00">D.3203 = ffm;</text>
<polyline fill="none" stroke="black" points="68.42,-113.75 190.17,-113.75"/>
<text text-anchor="start" x="76.42" y="-96.45" font-family="Times,serif" font-size="14.00">return D.3203;</text>
</g>
<!-- fn_11_basic_block_6&#45;&gt;fn_11_basic_block_8 -->
<g id="edge8" class="edge">
<title>fn_11_basic_block_6:s&#45;&gt;fn_11_basic_block_8:n</title>
<path fill="none" stroke="black" stroke-width="2" d="M129.29,-226C129.29,-214.62 129.29,-209.32 129.29,-201.45"/>
<polygon fill="black" stroke="black" stroke-width="2" points="132.79,-203.03 129.29,-193.03 125.79,-203.03 132.79,-203.03"/>
</g>
<!-- fn_11_basic_block_7&#45;&gt;fn_11_basic_block_8 -->
<g id="edge9" class="edge">
<title>fn_11_basic_block_7:s&#45;&gt;fn_11_basic_block_8:n</title>
<path fill="none" stroke="black" stroke-width="2" d="M282.29,-234.38C282.29,-167.86 147.26,-249.64 130.91,-201.09"/>
<polygon fill="black" stroke="black" stroke-width="2" points="134.63,-202.39 129.73,-193 127.71,-203.4 134.63,-202.39"/>
</g>
<!-- fn_11_basic_block_8&#45;&gt;fn_11_basic_block_1 -->
<g id="edge10" class="edge">
<title>fn_11_basic_block_8:s&#45;&gt;fn_11_basic_block_1:n</title>
<path fill="none" stroke="black" stroke-width="2" d="M129.29,-88C129.29,-76.62 129.29,-71.32 129.29,-63.45"/>
<polygon fill="black" stroke="black" stroke-width="2" points="132.79,-65.03 129.29,-55.03 125.79,-65.03 132.79,-65.03"/>
</g>
</g>
</svg>
