<?xml version="1.0" encoding="UTF-8" standalone="no"?>
<!DOCTYPE svg PUBLIC "-//W3C//DTD SVG 1.1//EN"
 "http://www.w3.org/Graphics/SVG/1.1/DTD/svg11.dtd">
<!-- Generated by graphviz version 8.1.0 (0)
 -->
<!-- Title: b.c.254t.optimized Pages: 1 -->
<svg width="451pt" height="1052pt"
 viewBox="0.00 0.00 451.00 1052.00" xmlns="http://www.w3.org/2000/svg" xmlns:xlink="http://www.w3.org/1999/xlink">
<g id="graph0" class="graph" transform="scale(1 1) rotate(0) translate(4 1048)">
<title>b.c.254t.optimized</title>
<polygon fill="white" stroke="none" points="-4,4 -4,-1048 447,-1048 447,4 -4,4"/>
<g id="clust1" class="cluster">
<title>cluster_build_filter</title>
<polygon fill="none" stroke="black" stroke-dasharray="5,2" points="8,-8 8,-1036 412,-1036 412,-8 8,-8"/>
<text text-anchor="middle" x="210" y="-1018.7" font-family="Times,serif" font-size="14.00">build_filter ()</text>
</g>
<!-- fn_11_basic_block_0 -->
<g id="node1" class="node">
<title>fn_11_basic_block_0</title>
<polygon fill="white" stroke="black" points="235,-1002.75 169.28,-984.75 235,-966.75 300.72,-984.75 235,-1002.75"/>
<polyline fill="none" stroke="black" points="180.85,-987.92 180.85,-981.58"/>
<polyline fill="none" stroke="black" points="223.43,-969.92 246.57,-969.92"/>
<polyline fill="none" stroke="black" points="289.15,-981.58 289.15,-987.92"/>
<polyline fill="none" stroke="black" points="246.57,-999.58 223.43,-999.58"/>
<text text-anchor="middle" x="235" y="-980.08" font-family="Times,serif" font-size="14.00">ENTRY</text>
</g>
<!-- fn_11_basic_block_1 -->
<g id="node2" class="node">
<title>fn_11_basic_block_1</title>
<polygon fill="white" stroke="black" points="220,-52 169.9,-34 220,-16 270.1,-34 220,-52"/>
<polyline fill="none" stroke="black" points="181.2,-38.06 181.2,-29.94"/>
<polyline fill="none" stroke="black" points="208.71,-20.06 231.29,-20.06"/>
<polyline fill="none" stroke="black" points="258.8,-29.94 258.8,-38.06"/>
<polyline fill="none" stroke="black" points="231.29,-47.94 208.71,-47.94"/>
<text text-anchor="middle" x="220" y="-29.32" font-family="Times,serif" font-size="14.00">EXIT</text>
</g>
<!-- fn_11_basic_block_0&#45;&gt;fn_11_basic_block_1 -->
<!-- fn_11_basic_block_2 -->
<g id="node3" class="node">
<title>fn_11_basic_block_2</title>
<polygon fill="lightgrey" stroke="black" points="122.38,-634 122.38,-913 347.62,-913 347.62,-634 122.38,-634"/>
<text text-anchor="start" x="130.38" y="-895.7" font-family="Times,serif" font-size="14.00">COUNT:1073741824&lt;bb 2&gt;:</text>
<polyline fill="none" stroke="black" points="122.38,-887.75 347.62,-887.75"/>
<text text-anchor="start" x="130.38" y="-870.45" font-family="Times,serif" font-size="14.00">ph ={v} 0;</text>
<polyline fill="none" stroke="black" points="122.38,-862.5 347.62,-862.5"/>
<text text-anchor="start" x="130.38" y="-845.2" font-family="Times,serif" font-size="14.00">vf ={v} 1.0e+0;</text>
<polyline fill="none" stroke="black" points="122.38,-837.25 347.62,-837.25"/>
<text text-anchor="start" x="130.38" y="-819.95" font-family="Times,serif" font-size="14.00">factor_11 ={v} vf;</text>
<polyline fill="none" stroke="black" points="122.38,-812 347.62,-812"/>
<text text-anchor="start" x="130.38" y="-794.7" font-family="Times,serif" font-size="14.00">ph.4_1 ={v} ph;</text>
<polyline fill="none" stroke="black" points="122.38,-786.75 347.62,-786.75"/>
<text text-anchor="start" x="130.38" y="-769.45" font-family="Times,serif" font-size="14.00">_2 = (double) ph.4_1;</text>
<polyline fill="none" stroke="black" points="122.38,-761.5 347.62,-761.5"/>
<text text-anchor="start" x="130.38" y="-744.2" font-family="Times,serif" font-size="14.00">_3 = &#45;_2;</text>
<polyline fill="none" stroke="black" points="122.38,-736.25 347.62,-736.25"/>
<text text-anchor="start" x="130.38" y="-718.95" font-family="Times,serif" font-size="14.00">x_12 = _3 * factor_11;</text>
<polyline fill="none" stroke="black" points="122.38,-711 347.62,-711"/>
<text text-anchor="start" x="130.38" y="-693.7" font-family="Times,serif" font-size="14.00">if (x_12 == 0.0)</text>
<text text-anchor="start" x="130.38" y="-676.45" font-family="Times,serif" font-size="14.00"> &#160;goto &lt;bb 5&gt;; [50.00%]</text>
<text text-anchor="start" x="130.38" y="-659.2" font-family="Times,serif" font-size="14.00">else</text>
<text text-anchor="start" x="130.38" y="-641.95" font-family="Times,serif" font-size="14.00"> &#160;goto &lt;bb 3&gt;; [50.00%]</text>
</g>
<!-- fn_11_basic_block_0&#45;&gt;fn_11_basic_block_2 -->
<g id="edge1" class="edge">
<title>fn_11_basic_block_0:s&#45;&gt;fn_11_basic_block_2:n</title>
<path fill="none" stroke="black" stroke-width="2" d="M235,-966.75C235,-947.15 235,-939.72 235,-924.31"/>
<polygon fill="black" stroke="black" stroke-width="2" points="238.5,-926.5 235,-916.5 231.5,-926.5 238.5,-926.5"/>
<text text-anchor="middle" x="260.5" y="-935.45" font-family="Times,serif" font-size="14.00">[100%]</text>
</g>
<!-- fn_11_basic_block_3 -->
<g id="node4" class="node">
<title>fn_11_basic_block_3</title>
<polygon fill="lightgrey" stroke="black" points="126.88,-376.5 126.88,-579.75 343.12,-579.75 343.12,-376.5 126.88,-376.5"/>
<text text-anchor="start" x="134.88" y="-562.45" font-family="Times,serif" font-size="14.00">COUNT:633507680&lt;bb 3&gt;:</text>
<polyline fill="none" stroke="black" points="126.88,-554.5 343.12,-554.5"/>
<text text-anchor="start" x="134.88" y="-537.2" font-family="Times,serif" font-size="14.00">_4 = 1.0e+0 / x_12;</text>
<polyline fill="none" stroke="black" points="126.88,-529.25 343.12,-529.25"/>
<text text-anchor="start" x="134.88" y="-511.95" font-family="Times,serif" font-size="14.00">_5 = x_12 * 2.0e+0;</text>
<polyline fill="none" stroke="black" points="126.88,-504 343.12,-504"/>
<text text-anchor="start" x="134.88" y="-486.7" font-family="Times,serif" font-size="14.00">w_16 = _5 / factor_11;</text>
<polyline fill="none" stroke="black" points="126.88,-478.75 343.12,-478.75"/>
<text text-anchor="start" x="134.88" y="-461.45" font-family="Times,serif" font-size="14.00">omww_17 = 1.0e+0 &#45; w_16;</text>
<polyline fill="none" stroke="black" points="126.88,-453.5 343.12,-453.5"/>
<text text-anchor="start" x="134.88" y="-436.2" font-family="Times,serif" font-size="14.00">if (omww_17 &gt; 0.0)</text>
<text text-anchor="start" x="134.88" y="-418.95" font-family="Times,serif" font-size="14.00"> &#160;goto &lt;bb 4&gt;; [100.00%]</text>
<text text-anchor="start" x="134.88" y="-401.7" font-family="Times,serif" font-size="14.00">else</text>
<text text-anchor="start" x="134.88" y="-384.45" font-family="Times,serif" font-size="14.00"> &#160;goto &lt;bb 5&gt;; [0.00%]</text>
</g>
<!-- fn_11_basic_block_2&#45;&gt;fn_11_basic_block_3 -->
<g id="edge3" class="edge">
<title>fn_11_basic_block_2:s&#45;&gt;fn_11_basic_block_3:n</title>
<path fill="none" stroke="darkorange" stroke-width="2" d="M235,-633.5C235,-613.9 235,-606.47 235,-591.06"/>
<polygon fill="darkorange" stroke="darkorange" stroke-width="2" points="238.5,-593.25 235,-583.25 231.5,-593.25 238.5,-593.25"/>
<text text-anchor="middle" x="256" y="-602.2" font-family="Times,serif" font-size="14.00">[50%]</text>
</g>
<!-- fn_11_basic_block_5 -->
<g id="node6" class="node">
<title>fn_11_basic_block_5</title>
<polygon fill="lightgrey" stroke="black" points="35.75,-105.75 35.75,-232 404.25,-232 404.25,-105.75 35.75,-105.75"/>
<text text-anchor="start" x="43.75" y="-214.7" font-family="Times,serif" font-size="14.00">COUNT:1073741824&lt;bb 5&gt;:</text>
<polyline fill="none" stroke="black" points="35.75,-206.75 404.25,-206.75"/>
<text text-anchor="start" x="43.75" y="-189.45" font-family="Times,serif" font-size="14.00"># iftmp.5_6 = PHI &lt;omww_17(4), 0.0(3), 0.0(2)&gt;</text>
<polyline fill="none" stroke="black" points="35.75,-181.5 404.25,-181.5"/>
<text text-anchor="start" x="43.75" y="-164.2" font-family="Times,serif" font-size="14.00"># _20 = PHI &lt;_4(4), _4(3), 1.0e+0(2)&gt;</text>
<polyline fill="none" stroke="black" points="35.75,-156.25 404.25,-156.25"/>
<text text-anchor="start" x="43.75" y="-138.95" font-family="Times,serif" font-size="14.00">*y_13(D) = _20;</text>
<polyline fill="none" stroke="black" points="35.75,-131 404.25,-131"/>
<text text-anchor="start" x="43.75" y="-113.7" font-family="Times,serif" font-size="14.00">return iftmp.5_6;</text>
</g>
<!-- fn_11_basic_block_2&#45;&gt;fn_11_basic_block_5 -->
<g id="edge2" class="edge">
<title>fn_11_basic_block_2:s&#45;&gt;fn_11_basic_block_5:n</title>
<path fill="none" stroke="forestgreen" stroke-width="2" d="M235,-633.5C235,-611.55 260.93,-624.39 281,-615.5 313.21,-601.23 332.63,-609.68 352,-580.25 424.05,-470.8 435.36,-396.93 366,-285.75 347.14,-255.52 327.51,-262.61 294,-250.5 266.4,-240.52 231.02,-259.77 222.11,-242.98"/>
<polygon fill="forestgreen" stroke="forestgreen" stroke-width="2" points="225.4,-243.61 220,-234.5 218.54,-244.99 225.4,-243.61"/>
<text text-anchor="middle" x="422" y="-344.7" font-family="Times,serif" font-size="14.00">[50%]</text>
</g>
<!-- fn_11_basic_block_4 -->
<g id="node5" class="node">
<title>fn_11_basic_block_4</title>
<polygon fill="lightgrey" stroke="black" points="98.88,-286.25 98.88,-322.25 315.12,-322.25 315.12,-286.25 98.88,-286.25"/>
<text text-anchor="start" x="106.88" y="-299.95" font-family="Times,serif" font-size="14.00">COUNT:633507680&lt;bb 4&gt;:</text>
</g>
<!-- fn_11_basic_block_3&#45;&gt;fn_11_basic_block_4 -->
<g id="edge4" class="edge">
<title>fn_11_basic_block_3:s&#45;&gt;fn_11_basic_block_4:n</title>
<path fill="none" stroke="forestgreen" stroke-width="2" d="M235,-376C235,-353.44 215.07,-350.08 208.84,-333.51"/>
<polygon fill="forestgreen" stroke="forestgreen" stroke-width="2" points="212.13,-334.02 207,-324.75 205.23,-335.2 212.13,-334.02"/>
<text text-anchor="middle" x="253.5" y="-344.7" font-family="Times,serif" font-size="14.00">[100%]</text>
</g>
<!-- fn_11_basic_block_3&#45;&gt;fn_11_basic_block_5 -->
<g id="edge5" class="edge">
<title>fn_11_basic_block_3:s&#45;&gt;fn_11_basic_block_5:n</title>
<path fill="none" stroke="darkorange" stroke-width="2" d="M235,-376C235,-353.22 263.39,-369.61 283,-358 314.77,-339.19 341.44,-318.29 324,-285.75 310.64,-260.81 296.31,-263.14 271,-250.5 253.86,-241.94 231.65,-250.86 223.34,-242.67"/>
<polygon fill="darkorange" stroke="darkorange" stroke-width="2" points="226.44,-242.91 220,-234.5 219.79,-245.09 226.44,-242.91"/>
<text text-anchor="middle" x="345.5" y="-299.57" font-family="Times,serif" font-size="14.00">[0%]</text>
</g>
<!-- fn_11_basic_block_4&#45;&gt;fn_11_basic_block_5 -->
<g id="edge6" class="edge">
<title>fn_11_basic_block_4:s&#45;&gt;fn_11_basic_block_5:n</title>
<path fill="none" stroke="black" stroke-width="2" d="M207,-285.75C207,-265.39 216.08,-258.88 219.07,-243.06"/>
<polygon fill="black" stroke="black" stroke-width="2" points="222.6,-245.77 220,-235.5 215.63,-245.15 222.6,-245.77"/>
<text text-anchor="middle" x="241.5" y="-254.45" font-family="Times,serif" font-size="14.00">[100%]</text>
</g>
<!-- fn_11_basic_block_5&#45;&gt;fn_11_basic_block_1 -->
<g id="edge7" class="edge">
<title>fn_11_basic_block_5:s&#45;&gt;fn_11_basic_block_1:n</title>
<path fill="none" stroke="black" stroke-width="2" d="M220,-105.25C220,-85.65 220,-78.22 220,-62.81"/>
<polygon fill="black" stroke="black" stroke-width="2" points="223.5,-65 220,-55 216.5,-65 223.5,-65"/>
<text text-anchor="middle" x="245.5" y="-73.95" font-family="Times,serif" font-size="14.00">[100%]</text>
</g>
</g>
</svg>
