<?xml version="1.0" encoding="UTF-8" standalone="no"?>
<!DOCTYPE svg PUBLIC "-//W3C//DTD SVG 1.1//EN"
 "http://www.w3.org/Graphics/SVG/1.1/DTD/svg11.dtd">
<!-- Generated by graphviz version 8.1.0 (0)
 -->
<!-- Title: b.c.015t.cfg Pages: 1 -->
<svg width="378pt" height="1060pt"
 viewBox="0.00 0.00 378.29 1059.75" xmlns="http://www.w3.org/2000/svg" xmlns:xlink="http://www.w3.org/1999/xlink">
<g id="graph0" class="graph" transform="scale(1 1) rotate(0) translate(4 1055.75)">
<title>b.c.015t.cfg</title>
<polygon fill="white" stroke="none" points="-4,4 -4,-1055.75 374.29,-1055.75 374.29,4 -4,4"/>
<g id="clust1" class="cluster">
<title>cluster_build_filter</title>
<polygon fill="none" stroke="black" stroke-dasharray="5,2" points="24.29,-8 24.29,-1043.75 362.29,-1043.75 362.29,-8 24.29,-8"/>
<text text-anchor="middle" x="193.29" y="-1026.45" font-family="Times,serif" font-size="14.00">build_filter ()</text>
</g>
<!-- fn_11_basic_block_0 -->
<g id="node1" class="node">
<title>fn_11_basic_block_0</title>
<polygon fill="white" stroke="black" points="136.29,-1010.5 70.57,-992.5 136.29,-974.5 202.02,-992.5 136.29,-1010.5"/>
<polyline fill="none" stroke="black" points="82.14,-995.67 82.14,-989.33"/>
<polyline fill="none" stroke="black" points="124.72,-977.67 147.87,-977.67"/>
<polyline fill="none" stroke="black" points="190.44,-989.33 190.44,-995.67"/>
<polyline fill="none" stroke="black" points="147.87,-1007.33 124.72,-1007.33"/>
<text text-anchor="middle" x="136.29" y="-987.83" font-family="Times,serif" font-size="14.00">ENTRY</text>
</g>
<!-- fn_11_basic_block_1 -->
<g id="node2" class="node">
<title>fn_11_basic_block_1</title>
<polygon fill="white" stroke="black" points="129.29,-52 79.19,-34 129.29,-16 179.39,-34 129.29,-52"/>
<polyline fill="none" stroke="black" points="90.49,-38.06 90.49,-29.94"/>
<polyline fill="none" stroke="black" points="118,-20.06 140.59,-20.06"/>
<polyline fill="none" stroke="black" points="168.1,-29.94 168.1,-38.06"/>
<polyline fill="none" stroke="black" points="140.59,-47.94 118,-47.94"/>
<text text-anchor="middle" x="129.29" y="-29.32" font-family="Times,serif" font-size="14.00">EXIT</text>
</g>
<!-- fn_11_basic_block_0&#45;&gt;fn_11_basic_block_1 -->
<!-- fn_11_basic_block_2 -->
<g id="node3" class="node">
<title>fn_11_basic_block_2</title>
<polygon fill="lightgrey" stroke="black" points="52.54,-659 52.54,-938 220.04,-938 220.04,-659 52.54,-659"/>
<text text-anchor="start" x="60.54" y="-920.7" font-family="Times,serif" font-size="14.00">&lt;bb 2&gt;:</text>
<polyline fill="none" stroke="black" points="52.54,-912.75 220.04,-912.75"/>
<text text-anchor="start" x="60.54" y="-895.45" font-family="Times,serif" font-size="14.00">ph = 0;</text>
<polyline fill="none" stroke="black" points="52.54,-887.5 220.04,-887.5"/>
<text text-anchor="start" x="60.54" y="-870.2" font-family="Times,serif" font-size="14.00">vf = 1.0e+0;</text>
<polyline fill="none" stroke="black" points="52.54,-862.25 220.04,-862.25"/>
<text text-anchor="start" x="60.54" y="-844.95" font-family="Times,serif" font-size="14.00">factor = vf;</text>
<polyline fill="none" stroke="black" points="52.54,-837 220.04,-837"/>
<text text-anchor="start" x="60.54" y="-819.7" font-family="Times,serif" font-size="14.00">ph.4_1 = ph;</text>
<polyline fill="none" stroke="black" points="52.54,-811.75 220.04,-811.75"/>
<text text-anchor="start" x="60.54" y="-794.45" font-family="Times,serif" font-size="14.00">_2 = (double) ph.4_1;</text>
<polyline fill="none" stroke="black" points="52.54,-786.5 220.04,-786.5"/>
<text text-anchor="start" x="60.54" y="-769.2" font-family="Times,serif" font-size="14.00">_3 = &#45;_2;</text>
<polyline fill="none" stroke="black" points="52.54,-761.25 220.04,-761.25"/>
<text text-anchor="start" x="60.54" y="-743.95" font-family="Times,serif" font-size="14.00">x = factor * _3;</text>
<polyline fill="none" stroke="black" points="52.54,-736 220.04,-736"/>
<text text-anchor="start" x="60.54" y="-718.7" font-family="Times,serif" font-size="14.00">if (x == 0.0)</text>
<text text-anchor="start" x="60.54" y="-701.45" font-family="Times,serif" font-size="14.00"> &#160;goto &lt;bb 3&gt;; [INV]</text>
<text text-anchor="start" x="60.54" y="-684.2" font-family="Times,serif" font-size="14.00">else</text>
<text text-anchor="start" x="60.54" y="-666.95" font-family="Times,serif" font-size="14.00"> &#160;goto &lt;bb 4&gt;; [INV]</text>
</g>
<!-- fn_11_basic_block_0&#45;&gt;fn_11_basic_block_2 -->
<g id="edge1" class="edge">
<title>fn_11_basic_block_0:s&#45;&gt;fn_11_basic_block_2:n</title>
<path fill="none" stroke="black" stroke-width="2" d="M136.29,-974.5C136.29,-962.88 136.29,-957.58 136.29,-949.42"/>
<polygon fill="black" stroke="black" stroke-width="2" points="139.79,-951.5 136.29,-941.5 132.79,-951.5 139.79,-951.5"/>
</g>
<!-- fn_11_basic_block_3 -->
<g id="node4" class="node">
<title>fn_11_basic_block_3</title>
<polygon fill="lightgrey" stroke="black" points="52.29,-550.25 52.29,-618 206.29,-618 206.29,-550.25 52.29,-550.25"/>
<text text-anchor="start" x="60.29" y="-600.7" font-family="Times,serif" font-size="14.00">&lt;bb 3&gt;:</text>
<polyline fill="none" stroke="black" points="52.29,-592.75 206.29,-592.75"/>
<text text-anchor="start" x="60.29" y="-575.45" font-family="Times,serif" font-size="14.00">*y = 1.0e+0;</text>
<text text-anchor="start" x="60.29" y="-558.2" font-family="Times,serif" font-size="14.00">goto &lt;bb 5&gt;; [INV]</text>
</g>
<!-- fn_11_basic_block_2&#45;&gt;fn_11_basic_block_3 -->
<g id="edge2" class="edge">
<title>fn_11_basic_block_2:s&#45;&gt;fn_11_basic_block_3:n</title>
<path fill="none" stroke="forestgreen" stroke-width="2" d="M136.29,-658.5C136.29,-645.03 132.27,-639.57 130.33,-629.98"/>
<polygon fill="forestgreen" stroke="forestgreen" stroke-width="2" points="133.72,-631.75 129.29,-622.12 126.76,-632.41 133.72,-631.75"/>
</g>
<!-- fn_11_basic_block_4 -->
<g id="node5" class="node">
<title>fn_11_basic_block_4</title>
<polygon fill="lightgrey" stroke="black" points="223.92,-546.25 223.92,-622 354.67,-622 354.67,-546.25 223.92,-546.25"/>
<text text-anchor="start" x="231.92" y="-604.7" font-family="Times,serif" font-size="14.00">&lt;bb 4&gt;:</text>
<polyline fill="none" stroke="black" points="223.92,-596.75 354.67,-596.75"/>
<text text-anchor="start" x="231.92" y="-579.45" font-family="Times,serif" font-size="14.00">_4 = 1.0e+0 / x;</text>
<polyline fill="none" stroke="black" points="223.92,-571.5 354.67,-571.5"/>
<text text-anchor="start" x="231.92" y="-554.2" font-family="Times,serif" font-size="14.00">*y = _4;</text>
</g>
<!-- fn_11_basic_block_2&#45;&gt;fn_11_basic_block_4 -->
<g id="edge3" class="edge">
<title>fn_11_basic_block_2:s&#45;&gt;fn_11_basic_block_4:n</title>
<path fill="none" stroke="darkorange" stroke-width="2" d="M136.29,-658.5C136.29,-592.87 271.33,-680.43 287.68,-633.36"/>
<polygon fill="darkorange" stroke="darkorange" stroke-width="2" points="291.28,-634.91 289.29,-624.5 284.36,-633.88 291.28,-634.91"/>
</g>
<!-- fn_11_basic_block_5 -->
<g id="node6" class="node">
<title>fn_11_basic_block_5</title>
<polygon fill="lightgrey" stroke="black" points="121.04,-331.25 121.04,-509.25 285.54,-509.25 285.54,-331.25 121.04,-331.25"/>
<text text-anchor="start" x="129.04" y="-491.95" font-family="Times,serif" font-size="14.00">&lt;bb 5&gt;:</text>
<polyline fill="none" stroke="black" points="121.04,-484 285.54,-484"/>
<text text-anchor="start" x="129.04" y="-466.7" font-family="Times,serif" font-size="14.00">_5 = x * 2.0e+0;</text>
<polyline fill="none" stroke="black" points="121.04,-458.75 285.54,-458.75"/>
<text text-anchor="start" x="129.04" y="-441.45" font-family="Times,serif" font-size="14.00">w = _5 / factor;</text>
<polyline fill="none" stroke="black" points="121.04,-433.5 285.54,-433.5"/>
<text text-anchor="start" x="129.04" y="-416.2" font-family="Times,serif" font-size="14.00">omww = 1.0e+0 &#45; w;</text>
<polyline fill="none" stroke="black" points="121.04,-408.25 285.54,-408.25"/>
<text text-anchor="start" x="129.04" y="-390.95" font-family="Times,serif" font-size="14.00">if (omww &gt; 0.0)</text>
<text text-anchor="start" x="129.04" y="-373.7" font-family="Times,serif" font-size="14.00"> &#160;goto &lt;bb 6&gt;; [INV]</text>
<text text-anchor="start" x="129.04" y="-356.45" font-family="Times,serif" font-size="14.00">else</text>
<text text-anchor="start" x="129.04" y="-339.2" font-family="Times,serif" font-size="14.00"> &#160;goto &lt;bb 7&gt;; [INV]</text>
</g>
<!-- fn_11_basic_block_3&#45;&gt;fn_11_basic_block_5 -->
<g id="edge4" class="edge">
<title>fn_11_basic_block_3:s&#45;&gt;fn_11_basic_block_5:n</title>
<path fill="none" stroke="black" stroke-width="2" d="M129.29,-549.12C129.29,-516.24 186.97,-539.76 200.48,-520.1"/>
<polygon fill="black" stroke="black" stroke-width="2" points="204.05,-522.32 203.29,-511.75 197.29,-520.48 204.05,-522.32"/>
</g>
<!-- fn_11_basic_block_4&#45;&gt;fn_11_basic_block_5 -->
<g id="edge5" class="edge">
<title>fn_11_basic_block_4:s&#45;&gt;fn_11_basic_block_5:n</title>
<path fill="none" stroke="black" stroke-width="2" d="M289.29,-545.75C289.29,-508.68 220.48,-542.28 205.96,-520.12"/>
<polygon fill="black" stroke="black" stroke-width="2" points="209.17,-520.56 203.29,-511.75 202.4,-522.31 209.17,-520.56"/>
</g>
<!-- fn_11_basic_block_6 -->
<g id="node7" class="node">
<title>fn_11_basic_block_6</title>
<polygon fill="lightgrey" stroke="black" points="52.29,-226.5 52.29,-294.25 206.29,-294.25 206.29,-226.5 52.29,-226.5"/>
<text text-anchor="start" x="60.29" y="-276.95" font-family="Times,serif" font-size="14.00">&lt;bb 6&gt;:</text>
<polyline fill="none" stroke="black" points="52.29,-269 206.29,-269"/>
<text text-anchor="start" x="60.29" y="-251.7" font-family="Times,serif" font-size="14.00">iftmp.5 = omww;</text>
<text text-anchor="start" x="60.29" y="-234.45" font-family="Times,serif" font-size="14.00">goto &lt;bb 8&gt;; [INV]</text>
</g>
<!-- fn_11_basic_block_5&#45;&gt;fn_11_basic_block_6 -->
<g id="edge6" class="edge">
<title>fn_11_basic_block_5:s&#45;&gt;fn_11_basic_block_6:n</title>
<path fill="none" stroke="forestgreen" stroke-width="2" d="M203.29,-330.75C203.29,-298.6 146.13,-323.41 132.29,-305.06"/>
<polygon fill="forestgreen" stroke="forestgreen" stroke-width="2" points="135.44,-305.38 129.29,-296.75 128.72,-307.33 135.44,-305.38"/>
</g>
<!-- fn_11_basic_block_7 -->
<g id="node8" class="node">
<title>fn_11_basic_block_7</title>
<polygon fill="lightgrey" stroke="black" points="224.42,-235.12 224.42,-285.62 340.17,-285.62 340.17,-235.12 224.42,-235.12"/>
<text text-anchor="start" x="232.42" y="-268.32" font-family="Times,serif" font-size="14.00">&lt;bb 7&gt;:</text>
<polyline fill="none" stroke="black" points="224.42,-260.38 340.17,-260.38"/>
<text text-anchor="start" x="232.42" y="-243.07" font-family="Times,serif" font-size="14.00">iftmp.5 = 0.0;</text>
</g>
<!-- fn_11_basic_block_5&#45;&gt;fn_11_basic_block_7 -->
<g id="edge7" class="edge">
<title>fn_11_basic_block_5:s&#45;&gt;fn_11_basic_block_7:n</title>
<path fill="none" stroke="darkorange" stroke-width="2" d="M203.29,-330.75C203.29,-294.88 265.96,-319.65 279.66,-297.05"/>
<polygon fill="darkorange" stroke="darkorange" stroke-width="2" points="283.3,-298.92 282.29,-288.38 276.5,-297.25 283.3,-298.92"/>
</g>
<!-- fn_11_basic_block_8 -->
<g id="node9" class="node">
<title>fn_11_basic_block_8</title>
<polygon fill="lightgrey" stroke="black" points="68.42,-88.5 68.42,-189.5 190.17,-189.5 190.17,-88.5 68.42,-88.5"/>
<text text-anchor="start" x="76.42" y="-172.2" font-family="Times,serif" font-size="14.00">&lt;bb 8&gt;:</text>
<polyline fill="none" stroke="black" points="68.42,-164.25 190.17,-164.25"/>
<text text-anchor="start" x="76.42" y="-146.95" font-family="Times,serif" font-size="14.00">ffm = iftmp.5;</text>
<polyline fill="none" stroke="black" points="68.42,-139 190.17,-139"/>
<text text-anchor="start" x="76.42" y="-121.7" font-family="Times,serif" font-size="14.00">D.3203 = ffm;</text>
<polyline fill="none" stroke="black" points="68.42,-113.75 190.17,-113.75"/>
<text text-anchor="start" x="76.42" y="-96.45" font-family="Times,serif" font-size="14.00">return D.3203;</text>
</g>
<!-- fn_11_basic_block_6&#45;&gt;fn_11_basic_block_8 -->
<g id="edge8" class="edge">
<title>fn_11_basic_block_6:s&#45;&gt;fn_11_basic_block_8:n</title>
<path fill="none" stroke="black" stroke-width="2" d="M129.29,-226C129.29,-214.38 129.29,-209.08 129.29,-200.92"/>
<polygon fill="black" stroke="black" stroke-width="2" points="132.79,-203 129.29,-193 125.79,-203 132.79,-203"/>
</g>
<!-- fn_11_basic_block_7&#45;&gt;fn_11_basic_block_8 -->
<g id="edge9" class="edge">
<title>fn_11_basic_block_7:s&#45;&gt;fn_11_basic_block_8:n</title>
<path fill="none" stroke="black" stroke-width="2" d="M282.29,-234.38C282.29,-167.72 146.7,-249.99 130.81,-200.78"/>
<polygon fill="black" stroke="black" stroke-width="2" points="134.15,-201.42 129.29,-192 127.22,-202.39 134.15,-201.42"/>
</g>
<!-- fn_11_basic_block_8&#45;&gt;fn_11_basic_block_1 -->
<g id="edge10" class="edge">
<title>fn_11_basic_block_8:s&#45;&gt;fn_11_basic_block_1:n</title>
<path fill="none" stroke="black" stroke-width="2" d="M129.29,-88C129.29,-76.38 129.29,-71.08 129.29,-62.92"/>
<polygon fill="black" stroke="black" stroke-width="2" points="132.79,-65 129.29,-55 125.79,-65 132.79,-65"/>
</g>
</g>
</svg>
