<?xml version="1.0" encoding="UTF-8" standalone="no"?>
<!DOCTYPE svg PUBLIC "-//W3C//DTD SVG 1.1//EN"
 "http://www.w3.org/Graphics/SVG/1.1/DTD/svg11.dtd">
<!-- Generated by graphviz version 9.0.0 (0)
 -->
<!-- Title: b.c.128t.sra Pages: 1 -->
<svg width="393pt" height="1132pt"
 viewBox="0.00 0.00 393.00 1131.50" xmlns="http://www.w3.org/2000/svg" xmlns:xlink="http://www.w3.org/1999/xlink">
<g id="graph0" class="graph" transform="scale(1 1) rotate(0) translate(4 1127.5)">
<title>b.c.128t.sra</title>
<polygon fill="white" stroke="none" points="-4,4 -4,-1127.5 389,-1127.5 389,4 -4,4"/>
<g id="clust1" class="cluster">
<title>cluster_build_filter</title>
<polygon fill="none" stroke="black" stroke-dasharray="5,2" points="8,-8 8,-1115.5 377,-1115.5 377,-8 8,-8"/>
<text text-anchor="middle" x="192.5" y="-1098.2" font-family="Times,serif" font-size="14.00">build_filter ()</text>
</g>
<!-- fn_11_basic_block_0 -->
<g id="node1" class="node">
<title>fn_11_basic_block_0</title>
<polygon fill="white" stroke="black" points="183,-1082.25 117.28,-1064.25 183,-1046.25 248.72,-1064.25 183,-1082.25"/>
<polyline fill="none" stroke="black" points="128.85,-1067.42 128.85,-1061.08"/>
<polyline fill="none" stroke="black" points="171.43,-1049.42 194.57,-1049.42"/>
<polyline fill="none" stroke="black" points="237.15,-1061.08 237.15,-1067.42"/>
<polyline fill="none" stroke="black" points="194.57,-1079.08 171.43,-1079.08"/>
<text text-anchor="middle" x="183" y="-1059.58" font-family="Times,serif" font-size="14.00">ENTRY</text>
</g>
<!-- fn_11_basic_block_1 -->
<g id="node2" class="node">
<title>fn_11_basic_block_1</title>
<polygon fill="white" stroke="black" points="195,-52 144.9,-34 195,-16 245.1,-34 195,-52"/>
<polyline fill="none" stroke="black" points="156.2,-38.06 156.2,-29.94"/>
<polyline fill="none" stroke="black" points="183.71,-20.06 206.29,-20.06"/>
<polyline fill="none" stroke="black" points="233.8,-29.94 233.8,-38.06"/>
<polyline fill="none" stroke="black" points="206.29,-47.94 183.71,-47.94"/>
<text text-anchor="middle" x="195" y="-29.32" font-family="Times,serif" font-size="14.00">EXIT</text>
</g>
<!-- fn_11_basic_block_0&#45;&gt;fn_11_basic_block_1 -->
<!-- fn_11_basic_block_2 -->
<g id="node3" class="node">
<title>fn_11_basic_block_2</title>
<polygon fill="lightgrey" stroke="black" points="70.38,-713.5 70.38,-992.5 295.62,-992.5 295.62,-713.5 70.38,-713.5"/>
<text text-anchor="start" x="78.38" y="-975.2" font-family="Times,serif" font-size="14.00">COUNT:1073741824&lt;bb 2&gt;:</text>
<polyline fill="none" stroke="black" points="70.38,-967.25 295.62,-967.25"/>
<text text-anchor="start" x="78.38" y="-949.95" font-family="Times,serif" font-size="14.00">ph ={v} 0;</text>
<polyline fill="none" stroke="black" points="70.38,-942 295.62,-942"/>
<text text-anchor="start" x="78.38" y="-924.7" font-family="Times,serif" font-size="14.00">vf ={v} 1.0e+0;</text>
<polyline fill="none" stroke="black" points="70.38,-916.75 295.62,-916.75"/>
<text text-anchor="start" x="78.38" y="-899.45" font-family="Times,serif" font-size="14.00">factor_11 ={v} vf;</text>
<polyline fill="none" stroke="black" points="70.38,-891.5 295.62,-891.5"/>
<text text-anchor="start" x="78.38" y="-874.2" font-family="Times,serif" font-size="14.00">ph.4_1 ={v} ph;</text>
<polyline fill="none" stroke="black" points="70.38,-866.25 295.62,-866.25"/>
<text text-anchor="start" x="78.38" y="-848.95" font-family="Times,serif" font-size="14.00">_2 = (double) ph.4_1;</text>
<polyline fill="none" stroke="black" points="70.38,-841 295.62,-841"/>
<text text-anchor="start" x="78.38" y="-823.7" font-family="Times,serif" font-size="14.00">_3 = &#45;_2;</text>
<polyline fill="none" stroke="black" points="70.38,-815.75 295.62,-815.75"/>
<text text-anchor="start" x="78.38" y="-798.45" font-family="Times,serif" font-size="14.00">x_12 = _3 * factor_11;</text>
<polyline fill="none" stroke="black" points="70.38,-790.5 295.62,-790.5"/>
<text text-anchor="start" x="78.38" y="-773.2" font-family="Times,serif" font-size="14.00">if (x_12 == 0.0)</text>
<text text-anchor="start" x="78.38" y="-755.95" font-family="Times,serif" font-size="14.00"> &#160;goto &lt;bb 4&gt;; [50.00%]</text>
<text text-anchor="start" x="78.38" y="-738.7" font-family="Times,serif" font-size="14.00">else</text>
<text text-anchor="start" x="78.38" y="-721.45" font-family="Times,serif" font-size="14.00"> &#160;goto &lt;bb 3&gt;; [50.00%]</text>
</g>
<!-- fn_11_basic_block_0&#45;&gt;fn_11_basic_block_2 -->
<g id="edge1" class="edge">
<title>fn_11_basic_block_0:s&#45;&gt;fn_11_basic_block_2:n</title>
<path fill="none" stroke="black" stroke-width="2" d="M183,-1046.25C183,-1026.84 183,-1019.37 183,-1004.24"/>
<polygon fill="black" stroke="black" stroke-width="2" points="186.5,-1006.03 183,-996.03 179.5,-1006.03 186.5,-1006.03"/>
<text text-anchor="middle" x="208.5" y="-1014.95" font-family="Times,serif" font-size="14.00">[100%]</text>
</g>
<!-- fn_11_basic_block_3 -->
<g id="node4" class="node">
<title>fn_11_basic_block_3</title>
<polygon fill="lightgrey" stroke="black" points="74.88,-608.75 74.88,-659.25 291.12,-659.25 291.12,-608.75 74.88,-608.75"/>
<text text-anchor="start" x="82.88" y="-641.95" font-family="Times,serif" font-size="14.00">COUNT:536870913&lt;bb 3&gt;:</text>
<polyline fill="none" stroke="black" points="74.88,-634 291.12,-634"/>
<text text-anchor="start" x="82.88" y="-616.7" font-family="Times,serif" font-size="14.00">_4 = 1.0e+0 / x_12;</text>
</g>
<!-- fn_11_basic_block_2&#45;&gt;fn_11_basic_block_3 -->
<g id="edge3" class="edge">
<title>fn_11_basic_block_2:s&#45;&gt;fn_11_basic_block_3:n</title>
<path fill="none" stroke="darkorange" stroke-width="2" d="M183,-713C183,-693.59 183,-686.12 183,-670.99"/>
<polygon fill="darkorange" stroke="darkorange" stroke-width="2" points="186.5,-672.78 183,-662.78 179.5,-672.78 186.5,-672.78"/>
<text text-anchor="middle" x="204" y="-681.7" font-family="Times,serif" font-size="14.00">[50%]</text>
</g>
<!-- fn_11_basic_block_4 -->
<g id="node5" class="node">
<title>fn_11_basic_block_4</title>
<polygon fill="lightgrey" stroke="black" points="36.25,-326 36.25,-554.5 329.75,-554.5 329.75,-326 36.25,-326"/>
<text text-anchor="start" x="44.25" y="-537.2" font-family="Times,serif" font-size="14.00">COUNT:1073741824&lt;bb 4&gt;:</text>
<polyline fill="none" stroke="black" points="36.25,-529.25 329.75,-529.25"/>
<text text-anchor="start" x="44.25" y="-511.95" font-family="Times,serif" font-size="14.00"># cstore_18 = PHI &lt;1.0e+0(2), _4(3)&gt;</text>
<polyline fill="none" stroke="black" points="36.25,-504 329.75,-504"/>
<text text-anchor="start" x="44.25" y="-486.7" font-family="Times,serif" font-size="14.00">*y_13(D) = cstore_18;</text>
<polyline fill="none" stroke="black" points="36.25,-478.75 329.75,-478.75"/>
<text text-anchor="start" x="44.25" y="-461.45" font-family="Times,serif" font-size="14.00">_5 = x_12 * 2.0e+0;</text>
<polyline fill="none" stroke="black" points="36.25,-453.5 329.75,-453.5"/>
<text text-anchor="start" x="44.25" y="-436.2" font-family="Times,serif" font-size="14.00">w_16 = _5 / factor_11;</text>
<polyline fill="none" stroke="black" points="36.25,-428.25 329.75,-428.25"/>
<text text-anchor="start" x="44.25" y="-410.95" font-family="Times,serif" font-size="14.00">omww_17 = 1.0e+0 &#45; w_16;</text>
<polyline fill="none" stroke="black" points="36.25,-403 329.75,-403"/>
<text text-anchor="start" x="44.25" y="-385.7" font-family="Times,serif" font-size="14.00">if (omww_17 &gt; 0.0)</text>
<text text-anchor="start" x="44.25" y="-368.45" font-family="Times,serif" font-size="14.00"> &#160;goto &lt;bb 6&gt;; [59.00%]</text>
<text text-anchor="start" x="44.25" y="-351.2" font-family="Times,serif" font-size="14.00">else</text>
<text text-anchor="start" x="44.25" y="-333.95" font-family="Times,serif" font-size="14.00"> &#160;goto &lt;bb 5&gt;; [41.00%]</text>
</g>
<!-- fn_11_basic_block_2&#45;&gt;fn_11_basic_block_4 -->
<g id="edge2" class="edge">
<title>fn_11_basic_block_2:s&#45;&gt;fn_11_basic_block_4:n</title>
<path fill="none" stroke="forestgreen" stroke-width="2" d="M183,-713C183,-691.05 208.93,-703.89 229,-695 261.21,-680.73 281.44,-689.69 300,-659.75 312.06,-640.3 311.51,-628.03 300,-608.25 284.06,-580.85 266.99,-585.83 238,-573 219.26,-564.71 195.46,-574.53 186.57,-565.85"/>
<polygon fill="forestgreen" stroke="forestgreen" stroke-width="2" points="190.39,-566.28 183.94,-557.88 183.74,-568.47 190.39,-566.28"/>
<text text-anchor="middle" x="329" y="-629.33" font-family="Times,serif" font-size="14.00">[50%]</text>
</g>
<!-- fn_11_basic_block_3&#45;&gt;fn_11_basic_block_4 -->
<g id="edge4" class="edge">
<title>fn_11_basic_block_3:s&#45;&gt;fn_11_basic_block_4:n</title>
<path fill="none" stroke="black" stroke-width="2" d="M183,-608.25C183,-588.84 183,-581.37 183,-566.24"/>
<polygon fill="black" stroke="black" stroke-width="2" points="186.5,-568.03 183,-558.03 179.5,-568.03 186.5,-568.03"/>
<text text-anchor="middle" x="208.5" y="-576.95" font-family="Times,serif" font-size="14.00">[100%]</text>
</g>
<!-- fn_11_basic_block_5 -->
<g id="node6" class="node">
<title>fn_11_basic_block_5</title>
<polygon fill="lightgrey" stroke="black" points="74.88,-235.75 74.88,-271.75 291.12,-271.75 291.12,-235.75 74.88,-235.75"/>
<text text-anchor="start" x="82.88" y="-249.45" font-family="Times,serif" font-size="14.00">COUNT:440234144&lt;bb 5&gt;:</text>
</g>
<!-- fn_11_basic_block_4&#45;&gt;fn_11_basic_block_5 -->
<g id="edge6" class="edge">
<title>fn_11_basic_block_4:s&#45;&gt;fn_11_basic_block_5:n</title>
<path fill="none" stroke="darkorange" stroke-width="2" d="M183,-325.5C183,-306.09 183,-298.62 183,-283.49"/>
<polygon fill="darkorange" stroke="darkorange" stroke-width="2" points="186.5,-285.28 183,-275.28 179.5,-285.28 186.5,-285.28"/>
<text text-anchor="middle" x="204" y="-294.2" font-family="Times,serif" font-size="14.00">[41%]</text>
</g>
<!-- fn_11_basic_block_6 -->
<g id="node7" class="node">
<title>fn_11_basic_block_6</title>
<polygon fill="lightgrey" stroke="black" points="36.25,-105.75 36.25,-181.5 353.75,-181.5 353.75,-105.75 36.25,-105.75"/>
<text text-anchor="start" x="44.25" y="-164.2" font-family="Times,serif" font-size="14.00">COUNT:1073741824&lt;bb 6&gt;:</text>
<polyline fill="none" stroke="black" points="36.25,-156.25 353.75,-156.25"/>
<text text-anchor="start" x="44.25" y="-138.95" font-family="Times,serif" font-size="14.00"># iftmp.5_6 = PHI &lt;omww_17(4), 0.0(5)&gt;</text>
<polyline fill="none" stroke="black" points="36.25,-131 353.75,-131"/>
<text text-anchor="start" x="44.25" y="-113.7" font-family="Times,serif" font-size="14.00">return iftmp.5_6;</text>
</g>
<!-- fn_11_basic_block_4&#45;&gt;fn_11_basic_block_6 -->
<g id="edge5" class="edge">
<title>fn_11_basic_block_4:s&#45;&gt;fn_11_basic_block_6:n</title>
<path fill="none" stroke="forestgreen" stroke-width="2" d="M183,-325.5C183,-303.55 208.93,-316.39 229,-307.5 261.21,-293.23 281.44,-302.19 300,-272.25 308.67,-258.27 307.77,-249.74 300,-235.25 286.64,-210.31 272.35,-212.56 247,-200 229.88,-191.52 207.77,-200.23 198.92,-192.79"/>
<polygon fill="forestgreen" stroke="forestgreen" stroke-width="2" points="202.74,-193.05 196.03,-184.85 196.16,-195.44 202.74,-193.05"/>
<text text-anchor="middle" x="327" y="-249.07" font-family="Times,serif" font-size="14.00">[59%]</text>
</g>
<!-- fn_11_basic_block_5&#45;&gt;fn_11_basic_block_6 -->
<g id="edge7" class="edge">
<title>fn_11_basic_block_5:s&#45;&gt;fn_11_basic_block_6:n</title>
<path fill="none" stroke="black" stroke-width="2" d="M183,-235.25C183,-215.35 191.07,-208.59 193.98,-193.41"/>
<polygon fill="black" stroke="black" stroke-width="2" points="197.32,-195.29 194.73,-185.01 190.35,-194.66 197.32,-195.29"/>
<text text-anchor="middle" x="217.5" y="-203.95" font-family="Times,serif" font-size="14.00">[100%]</text>
</g>
<!-- fn_11_basic_block_6&#45;&gt;fn_11_basic_block_1 -->
<g id="edge8" class="edge">
<title>fn_11_basic_block_6:s&#45;&gt;fn_11_basic_block_1:n</title>
<path fill="none" stroke="black" stroke-width="2" d="M195,-105.25C195,-85.84 195,-78.37 195,-63.24"/>
<polygon fill="black" stroke="black" stroke-width="2" points="198.5,-65.03 195,-55.03 191.5,-65.03 198.5,-65.03"/>
<text text-anchor="middle" x="220.5" y="-73.95" font-family="Times,serif" font-size="14.00">[100%]</text>
</g>
</g>
</svg>
