<?xml version="1.0" encoding="UTF-8" standalone="no"?>
<!DOCTYPE svg PUBLIC "-//W3C//DTD SVG 1.1//EN"
 "http://www.w3.org/Graphics/SVG/1.1/DTD/svg11.dtd">
<!-- Generated by graphviz version 7.0.2 (0)
 -->
<!-- Title: b.c.254t.optimized Pages: 1 -->
<svg width="452pt" height="980pt"
 viewBox="0.00 0.00 452.00 980.00" xmlns="http://www.w3.org/2000/svg" xmlns:xlink="http://www.w3.org/1999/xlink">
<g id="graph0" class="graph" transform="scale(1 1) rotate(0) translate(4 976)">
<title>b.c.254t.optimized</title>
<polygon fill="white" stroke="none" points="-4,4 -4,-976 448,-976 448,4 -4,4"/>
<g id="clust1" class="cluster">
<title>cluster_build_filter</title>
<polygon fill="none" stroke="black" stroke-dasharray="5,2" points="8,-8 8,-964 414,-964 414,-8 8,-8"/>
<text text-anchor="middle" x="211" y="-948.8" font-family="Times,serif" font-size="14.00">build_filter ()</text>
</g>
<!-- fn_11_basic_block_0 -->
<g id="node1" class="node">
<title>fn_11_basic_block_0</title>
<polygon fill="white" stroke="black" points="235,-933 173.33,-915 235,-897 296.67,-915 235,-933"/>
<polyline fill="none" stroke="black" points="184.85,-918.36 184.85,-911.64"/>
<polyline fill="none" stroke="black" points="223.48,-900.36 246.52,-900.36"/>
<polyline fill="none" stroke="black" points="285.15,-911.64 285.15,-918.36"/>
<polyline fill="none" stroke="black" points="246.52,-929.64 223.48,-929.64"/>
<text text-anchor="middle" x="235" y="-911.3" font-family="Times,serif" font-size="14.00">ENTRY</text>
</g>
<!-- fn_11_basic_block_1 -->
<g id="node2" class="node">
<title>fn_11_basic_block_1</title>
<polygon fill="white" stroke="black" points="221,-52 174.25,-34 221,-16 267.75,-34 221,-52"/>
<polyline fill="none" stroke="black" points="185.44,-38.31 185.44,-29.69"/>
<polyline fill="none" stroke="black" points="209.8,-20.31 232.2,-20.31"/>
<polyline fill="none" stroke="black" points="256.56,-29.69 256.56,-38.31"/>
<polyline fill="none" stroke="black" points="232.2,-47.69 209.8,-47.69"/>
<text text-anchor="middle" x="221" y="-30.3" font-family="Times,serif" font-size="14.00">EXIT</text>
</g>
<!-- fn_11_basic_block_0&#45;&gt;fn_11_basic_block_1 -->
<!-- fn_11_basic_block_2 -->
<g id="node3" class="node">
<title>fn_11_basic_block_2</title>
<polygon fill="lightgrey" stroke="black" points="122,-593.5 122,-845.5 348,-845.5 348,-593.5 122,-593.5"/>
<text text-anchor="start" x="130" y="-830.3" font-family="Times,serif" font-size="14.00">COUNT:1073741824&lt;bb 2&gt;:</text>
<polyline fill="none" stroke="black" points="122,-822.5 348,-822.5"/>
<text text-anchor="start" x="130" y="-807.3" font-family="Times,serif" font-size="14.00">ph ={v} 0;</text>
<polyline fill="none" stroke="black" points="122,-799.5 348,-799.5"/>
<text text-anchor="start" x="130" y="-784.3" font-family="Times,serif" font-size="14.00">vf ={v} 1.0e+0;</text>
<polyline fill="none" stroke="black" points="122,-776.5 348,-776.5"/>
<text text-anchor="start" x="130" y="-761.3" font-family="Times,serif" font-size="14.00">factor_11 ={v} vf;</text>
<polyline fill="none" stroke="black" points="122,-753.5 348,-753.5"/>
<text text-anchor="start" x="130" y="-738.3" font-family="Times,serif" font-size="14.00">ph.4_1 ={v} ph;</text>
<polyline fill="none" stroke="black" points="122,-730.5 348,-730.5"/>
<text text-anchor="start" x="130" y="-715.3" font-family="Times,serif" font-size="14.00">_2 = (double) ph.4_1;</text>
<polyline fill="none" stroke="black" points="122,-707.5 348,-707.5"/>
<text text-anchor="start" x="130" y="-692.3" font-family="Times,serif" font-size="14.00">_3 = &#45;_2;</text>
<polyline fill="none" stroke="black" points="122,-684.5 348,-684.5"/>
<text text-anchor="start" x="130" y="-669.3" font-family="Times,serif" font-size="14.00">x_12 = _3 * factor_11;</text>
<polyline fill="none" stroke="black" points="122,-661.5 348,-661.5"/>
<text text-anchor="start" x="130" y="-646.3" font-family="Times,serif" font-size="14.00">if (x_12 == 0.0)</text>
<text text-anchor="start" x="130" y="-631.3" font-family="Times,serif" font-size="14.00"> &#160;goto &lt;bb 5&gt;; [50.00%]</text>
<text text-anchor="start" x="130" y="-616.3" font-family="Times,serif" font-size="14.00">else</text>
<text text-anchor="start" x="130" y="-601.3" font-family="Times,serif" font-size="14.00"> &#160;goto &lt;bb 3&gt;; [50.00%]</text>
</g>
<!-- fn_11_basic_block_0&#45;&gt;fn_11_basic_block_2 -->
<g id="edge1" class="edge">
<title>fn_11_basic_block_0:s&#45;&gt;fn_11_basic_block_2:n</title>
<path fill="none" stroke="black" stroke-width="2" d="M235,-897C235,-878.58 235,-871.39 235,-857.18"/>
<polygon fill="black" stroke="black" stroke-width="2" points="238.5,-859.03 235,-849.03 231.5,-859.03 238.5,-859.03"/>
<text text-anchor="middle" x="261" y="-867.8" font-family="Times,serif" font-size="14.00">[100%]</text>
</g>
<!-- fn_11_basic_block_3 -->
<g id="node4" class="node">
<title>fn_11_basic_block_3</title>
<polygon fill="lightgrey" stroke="black" points="126.5,-358.5 126.5,-541.5 343.5,-541.5 343.5,-358.5 126.5,-358.5"/>
<text text-anchor="start" x="134.5" y="-526.3" font-family="Times,serif" font-size="14.00">COUNT:633507680&lt;bb 3&gt;:</text>
<polyline fill="none" stroke="black" points="126.5,-518.5 343.5,-518.5"/>
<text text-anchor="start" x="134.5" y="-503.3" font-family="Times,serif" font-size="14.00">_4 = 1.0e+0 / x_12;</text>
<polyline fill="none" stroke="black" points="126.5,-495.5 343.5,-495.5"/>
<text text-anchor="start" x="134.5" y="-480.3" font-family="Times,serif" font-size="14.00">_5 = x_12 * 2.0e+0;</text>
<polyline fill="none" stroke="black" points="126.5,-472.5 343.5,-472.5"/>
<text text-anchor="start" x="134.5" y="-457.3" font-family="Times,serif" font-size="14.00">w_16 = _5 / factor_11;</text>
<polyline fill="none" stroke="black" points="126.5,-449.5 343.5,-449.5"/>
<text text-anchor="start" x="134.5" y="-434.3" font-family="Times,serif" font-size="14.00">omww_17 = 1.0e+0 &#45; w_16;</text>
<polyline fill="none" stroke="black" points="126.5,-426.5 343.5,-426.5"/>
<text text-anchor="start" x="134.5" y="-411.3" font-family="Times,serif" font-size="14.00">if (omww_17 &gt; 0.0)</text>
<text text-anchor="start" x="134.5" y="-396.3" font-family="Times,serif" font-size="14.00"> &#160;goto &lt;bb 4&gt;; [100.00%]</text>
<text text-anchor="start" x="134.5" y="-381.3" font-family="Times,serif" font-size="14.00">else</text>
<text text-anchor="start" x="134.5" y="-366.3" font-family="Times,serif" font-size="14.00"> &#160;goto &lt;bb 5&gt;; [0.00%]</text>
</g>
<!-- fn_11_basic_block_2&#45;&gt;fn_11_basic_block_3 -->
<g id="edge3" class="edge">
<title>fn_11_basic_block_2:s&#45;&gt;fn_11_basic_block_3:n</title>
<path fill="none" stroke="darkorange" stroke-width="2" d="M235,-593C235,-574.58 235,-567.39 235,-553.18"/>
<polygon fill="darkorange" stroke="darkorange" stroke-width="2" points="238.5,-555.03 235,-545.03 231.5,-555.03 238.5,-555.03"/>
<text text-anchor="middle" x="256.5" y="-563.8" font-family="Times,serif" font-size="14.00">[50%]</text>
</g>
<!-- fn_11_basic_block_5 -->
<g id="node6" class="node">
<title>fn_11_basic_block_5</title>
<polygon fill="lightgrey" stroke="black" points="36.5,-103.5 36.5,-218.5 405.5,-218.5 405.5,-103.5 36.5,-103.5"/>
<text text-anchor="start" x="44.5" y="-203.3" font-family="Times,serif" font-size="14.00">COUNT:1073741824&lt;bb 5&gt;:</text>
<polyline fill="none" stroke="black" points="36.5,-195.5 405.5,-195.5"/>
<text text-anchor="start" x="44.5" y="-180.3" font-family="Times,serif" font-size="14.00"># iftmp.5_6 = PHI &lt;omww_17(4), 0.0(3), 0.0(2)&gt;</text>
<polyline fill="none" stroke="black" points="36.5,-172.5 405.5,-172.5"/>
<text text-anchor="start" x="44.5" y="-157.3" font-family="Times,serif" font-size="14.00"># _20 = PHI &lt;_4(4), _4(3), 1.0e+0(2)&gt;</text>
<polyline fill="none" stroke="black" points="36.5,-149.5 405.5,-149.5"/>
<text text-anchor="start" x="44.5" y="-134.3" font-family="Times,serif" font-size="14.00">*y_13(D) = _20;</text>
<polyline fill="none" stroke="black" points="36.5,-126.5 405.5,-126.5"/>
<text text-anchor="start" x="44.5" y="-111.3" font-family="Times,serif" font-size="14.00">return iftmp.5_6;</text>
</g>
<!-- fn_11_basic_block_2&#45;&gt;fn_11_basic_block_5 -->
<g id="edge2" class="edge">
<title>fn_11_basic_block_2:s&#45;&gt;fn_11_basic_block_5:n</title>
<path fill="none" stroke="forestgreen" stroke-width="2" d="M235,-593C235,-570.63 261.4,-583.72 282,-575 314.04,-561.44 333.36,-570.72 353,-542 421.34,-442.06 433.65,-371.73 368,-270 348.69,-240.08 328.67,-248.59 295,-237 267.5,-227.53 232.61,-246.04 223.35,-229.95"/>
<polygon fill="forestgreen" stroke="forestgreen" stroke-width="2" points="227.15,-231 221.63,-221.96 220.31,-232.47 227.15,-231"/>
<text text-anchor="middle" x="422.5" y="-328.8" font-family="Times,serif" font-size="14.00">[50%]</text>
</g>
<!-- fn_11_basic_block_4 -->
<g id="node5" class="node">
<title>fn_11_basic_block_4</title>
<polygon fill="lightgrey" stroke="black" points="98.5,-270.5 98.5,-306.5 315.5,-306.5 315.5,-270.5 98.5,-270.5"/>
<text text-anchor="start" x="106.5" y="-284.8" font-family="Times,serif" font-size="14.00">COUNT:633507680&lt;bb 4&gt;:</text>
</g>
<!-- fn_11_basic_block_3&#45;&gt;fn_11_basic_block_4 -->
<g id="edge4" class="edge">
<title>fn_11_basic_block_3:s&#45;&gt;fn_11_basic_block_4:n</title>
<path fill="none" stroke="forestgreen" stroke-width="2" d="M235,-358C235,-336.59 215.8,-333.4 209.2,-318.25"/>
<polygon fill="forestgreen" stroke="forestgreen" stroke-width="2" points="212.93,-319.11 207.58,-309.97 206.06,-320.46 212.93,-319.11"/>
<text text-anchor="middle" x="254" y="-328.8" font-family="Times,serif" font-size="14.00">[100%]</text>
</g>
<!-- fn_11_basic_block_3&#45;&gt;fn_11_basic_block_5 -->
<g id="edge5" class="edge">
<title>fn_11_basic_block_3:s&#45;&gt;fn_11_basic_block_5:n</title>
<path fill="none" stroke="darkorange" stroke-width="2" d="M235,-358C235,-334.8 263.81,-351.42 284,-340 304.36,-328.48 314.9,-328.1 325,-307 332.1,-292.17 332.92,-284.41 325,-270 311.81,-246.01 297.65,-248.89 273,-237 255.79,-228.7 233.73,-237.31 224.91,-229.81"/>
<polygon fill="darkorange" stroke="darkorange" stroke-width="2" points="228.72,-230.06 222.03,-221.85 222.13,-232.44 228.72,-230.06"/>
<text text-anchor="middle" x="347" y="-284.8" font-family="Times,serif" font-size="14.00">[0%]</text>
</g>
<!-- fn_11_basic_block_4&#45;&gt;fn_11_basic_block_5 -->
<g id="edge6" class="edge">
<title>fn_11_basic_block_4:s&#45;&gt;fn_11_basic_block_5:n</title>
<path fill="none" stroke="black" stroke-width="2" d="M207,-270C207,-250.9 216.24,-244.69 219.71,-230.42"/>
<polygon fill="black" stroke="black" stroke-width="2" points="223.01,-232.34 220.66,-222.01 216.06,-231.55 223.01,-232.34"/>
<text text-anchor="middle" x="243" y="-240.8" font-family="Times,serif" font-size="14.00">[100%]</text>
</g>
<!-- fn_11_basic_block_5&#45;&gt;fn_11_basic_block_1 -->
<g id="edge7" class="edge">
<title>fn_11_basic_block_5:s&#45;&gt;fn_11_basic_block_1:n</title>
<path fill="none" stroke="black" stroke-width="2" d="M221,-103C221,-84.58 221,-77.39 221,-63.18"/>
<polygon fill="black" stroke="black" stroke-width="2" points="224.5,-65.03 221,-55.03 217.5,-65.03 224.5,-65.03"/>
<text text-anchor="middle" x="247" y="-73.8" font-family="Times,serif" font-size="14.00">[100%]</text>
</g>
</g>
</svg>
