<?xml version="1.0" encoding="UTF-8" standalone="no"?>
<!DOCTYPE svg PUBLIC "-//W3C//DTD SVG 1.1//EN"
 "http://www.w3.org/Graphics/SVG/1.1/DTD/svg11.dtd">
<!-- Generated by graphviz version 7.0.2 (0)
 -->
<!-- Title: b.c.128t.sra Pages: 1 -->
<svg width="395pt" height="1055pt"
 viewBox="0.00 0.00 395.00 1055.00" xmlns="http://www.w3.org/2000/svg" xmlns:xlink="http://www.w3.org/1999/xlink">
<g id="graph0" class="graph" transform="scale(1 1) rotate(0) translate(4 1051)">
<title>b.c.128t.sra</title>
<polygon fill="white" stroke="none" points="-4,4 -4,-1051 391,-1051 391,4 -4,4"/>
<g id="clust1" class="cluster">
<title>cluster_build_filter</title>
<polygon fill="none" stroke="black" stroke-dasharray="5,2" points="8,-8 8,-1039 379,-1039 379,-8 8,-8"/>
<text text-anchor="middle" x="193.5" y="-1023.8" font-family="Times,serif" font-size="14.00">build_filter ()</text>
</g>
<!-- fn_11_basic_block_0 -->
<g id="node1" class="node">
<title>fn_11_basic_block_0</title>
<polygon fill="white" stroke="black" points="183,-1008 121.33,-990 183,-972 244.67,-990 183,-1008"/>
<polyline fill="none" stroke="black" points="132.85,-993.36 132.85,-986.64"/>
<polyline fill="none" stroke="black" points="171.48,-975.36 194.52,-975.36"/>
<polyline fill="none" stroke="black" points="233.15,-986.64 233.15,-993.36"/>
<polyline fill="none" stroke="black" points="194.52,-1004.64 171.48,-1004.64"/>
<text text-anchor="middle" x="183" y="-986.3" font-family="Times,serif" font-size="14.00">ENTRY</text>
</g>
<!-- fn_11_basic_block_1 -->
<g id="node2" class="node">
<title>fn_11_basic_block_1</title>
<polygon fill="white" stroke="black" points="195,-52 148.25,-34 195,-16 241.75,-34 195,-52"/>
<polyline fill="none" stroke="black" points="159.44,-38.31 159.44,-29.69"/>
<polyline fill="none" stroke="black" points="183.8,-20.31 206.2,-20.31"/>
<polyline fill="none" stroke="black" points="230.56,-29.69 230.56,-38.31"/>
<polyline fill="none" stroke="black" points="206.2,-47.69 183.8,-47.69"/>
<text text-anchor="middle" x="195" y="-30.3" font-family="Times,serif" font-size="14.00">EXIT</text>
</g>
<!-- fn_11_basic_block_0&#45;&gt;fn_11_basic_block_1 -->
<!-- fn_11_basic_block_2 -->
<g id="node3" class="node">
<title>fn_11_basic_block_2</title>
<polygon fill="lightgrey" stroke="black" points="70,-668.5 70,-920.5 296,-920.5 296,-668.5 70,-668.5"/>
<text text-anchor="start" x="78" y="-905.3" font-family="Times,serif" font-size="14.00">COUNT:1073741824&lt;bb 2&gt;:</text>
<polyline fill="none" stroke="black" points="70,-897.5 296,-897.5"/>
<text text-anchor="start" x="78" y="-882.3" font-family="Times,serif" font-size="14.00">ph ={v} 0;</text>
<polyline fill="none" stroke="black" points="70,-874.5 296,-874.5"/>
<text text-anchor="start" x="78" y="-859.3" font-family="Times,serif" font-size="14.00">vf ={v} 1.0e+0;</text>
<polyline fill="none" stroke="black" points="70,-851.5 296,-851.5"/>
<text text-anchor="start" x="78" y="-836.3" font-family="Times,serif" font-size="14.00">factor_11 ={v} vf;</text>
<polyline fill="none" stroke="black" points="70,-828.5 296,-828.5"/>
<text text-anchor="start" x="78" y="-813.3" font-family="Times,serif" font-size="14.00">ph.4_1 ={v} ph;</text>
<polyline fill="none" stroke="black" points="70,-805.5 296,-805.5"/>
<text text-anchor="start" x="78" y="-790.3" font-family="Times,serif" font-size="14.00">_2 = (double) ph.4_1;</text>
<polyline fill="none" stroke="black" points="70,-782.5 296,-782.5"/>
<text text-anchor="start" x="78" y="-767.3" font-family="Times,serif" font-size="14.00">_3 = &#45;_2;</text>
<polyline fill="none" stroke="black" points="70,-759.5 296,-759.5"/>
<text text-anchor="start" x="78" y="-744.3" font-family="Times,serif" font-size="14.00">x_12 = _3 * factor_11;</text>
<polyline fill="none" stroke="black" points="70,-736.5 296,-736.5"/>
<text text-anchor="start" x="78" y="-721.3" font-family="Times,serif" font-size="14.00">if (x_12 == 0.0)</text>
<text text-anchor="start" x="78" y="-706.3" font-family="Times,serif" font-size="14.00"> &#160;goto &lt;bb 4&gt;; [50.00%]</text>
<text text-anchor="start" x="78" y="-691.3" font-family="Times,serif" font-size="14.00">else</text>
<text text-anchor="start" x="78" y="-676.3" font-family="Times,serif" font-size="14.00"> &#160;goto &lt;bb 3&gt;; [50.00%]</text>
</g>
<!-- fn_11_basic_block_0&#45;&gt;fn_11_basic_block_2 -->
<g id="edge1" class="edge">
<title>fn_11_basic_block_0:s&#45;&gt;fn_11_basic_block_2:n</title>
<path fill="none" stroke="black" stroke-width="2" d="M183,-972C183,-953.58 183,-946.39 183,-932.18"/>
<polygon fill="black" stroke="black" stroke-width="2" points="186.5,-934.03 183,-924.03 179.5,-934.03 186.5,-934.03"/>
<text text-anchor="middle" x="209" y="-942.8" font-family="Times,serif" font-size="14.00">[100%]</text>
</g>
<!-- fn_11_basic_block_3 -->
<g id="node4" class="node">
<title>fn_11_basic_block_3</title>
<polygon fill="lightgrey" stroke="black" points="74.5,-570.5 74.5,-616.5 291.5,-616.5 291.5,-570.5 74.5,-570.5"/>
<text text-anchor="start" x="82.5" y="-601.3" font-family="Times,serif" font-size="14.00">COUNT:536870913&lt;bb 3&gt;:</text>
<polyline fill="none" stroke="black" points="74.5,-593.5 291.5,-593.5"/>
<text text-anchor="start" x="82.5" y="-578.3" font-family="Times,serif" font-size="14.00">_4 = 1.0e+0 / x_12;</text>
</g>
<!-- fn_11_basic_block_2&#45;&gt;fn_11_basic_block_3 -->
<g id="edge3" class="edge">
<title>fn_11_basic_block_2:s&#45;&gt;fn_11_basic_block_3:n</title>
<path fill="none" stroke="darkorange" stroke-width="2" d="M183,-668C183,-649.58 183,-642.39 183,-628.18"/>
<polygon fill="darkorange" stroke="darkorange" stroke-width="2" points="186.5,-630.03 183,-620.03 179.5,-630.03 186.5,-630.03"/>
<text text-anchor="middle" x="204.5" y="-638.8" font-family="Times,serif" font-size="14.00">[50%]</text>
</g>
<!-- fn_11_basic_block_4 -->
<g id="node5" class="node">
<title>fn_11_basic_block_4</title>
<polygon fill="lightgrey" stroke="black" points="36,-312.5 36,-518.5 330,-518.5 330,-312.5 36,-312.5"/>
<text text-anchor="start" x="44" y="-503.3" font-family="Times,serif" font-size="14.00">COUNT:1073741824&lt;bb 4&gt;:</text>
<polyline fill="none" stroke="black" points="36,-495.5 330,-495.5"/>
<text text-anchor="start" x="44" y="-480.3" font-family="Times,serif" font-size="14.00"># cstore_18 = PHI &lt;1.0e+0(2), _4(3)&gt;</text>
<polyline fill="none" stroke="black" points="36,-472.5 330,-472.5"/>
<text text-anchor="start" x="44" y="-457.3" font-family="Times,serif" font-size="14.00">*y_13(D) = cstore_18;</text>
<polyline fill="none" stroke="black" points="36,-449.5 330,-449.5"/>
<text text-anchor="start" x="44" y="-434.3" font-family="Times,serif" font-size="14.00">_5 = x_12 * 2.0e+0;</text>
<polyline fill="none" stroke="black" points="36,-426.5 330,-426.5"/>
<text text-anchor="start" x="44" y="-411.3" font-family="Times,serif" font-size="14.00">w_16 = _5 / factor_11;</text>
<polyline fill="none" stroke="black" points="36,-403.5 330,-403.5"/>
<text text-anchor="start" x="44" y="-388.3" font-family="Times,serif" font-size="14.00">omww_17 = 1.0e+0 &#45; w_16;</text>
<polyline fill="none" stroke="black" points="36,-380.5 330,-380.5"/>
<text text-anchor="start" x="44" y="-365.3" font-family="Times,serif" font-size="14.00">if (omww_17 &gt; 0.0)</text>
<text text-anchor="start" x="44" y="-350.3" font-family="Times,serif" font-size="14.00"> &#160;goto &lt;bb 6&gt;; [59.00%]</text>
<text text-anchor="start" x="44" y="-335.3" font-family="Times,serif" font-size="14.00">else</text>
<text text-anchor="start" x="44" y="-320.3" font-family="Times,serif" font-size="14.00"> &#160;goto &lt;bb 5&gt;; [41.00%]</text>
</g>
<!-- fn_11_basic_block_2&#45;&gt;fn_11_basic_block_4 -->
<g id="edge2" class="edge">
<title>fn_11_basic_block_2:s&#45;&gt;fn_11_basic_block_4:n</title>
<path fill="none" stroke="forestgreen" stroke-width="2" d="M183,-668C183,-645.63 209.4,-658.72 230,-650 262.04,-636.44 282.29,-646.34 301,-617 312.23,-599.39 311.75,-587.91 301,-570 284.93,-543.24 267.75,-549.16 239,-537 219.62,-528.81 195.17,-539.07 186.36,-529.77"/>
<polygon fill="forestgreen" stroke="forestgreen" stroke-width="2" points="190.22,-530.4 183.9,-521.89 183.53,-532.48 190.22,-530.4"/>
<text text-anchor="middle" x="330.5" y="-589.8" font-family="Times,serif" font-size="14.00">[50%]</text>
</g>
<!-- fn_11_basic_block_3&#45;&gt;fn_11_basic_block_4 -->
<g id="edge4" class="edge">
<title>fn_11_basic_block_3:s&#45;&gt;fn_11_basic_block_4:n</title>
<path fill="none" stroke="black" stroke-width="2" d="M183,-570C183,-551.58 183,-544.39 183,-530.18"/>
<polygon fill="black" stroke="black" stroke-width="2" points="186.5,-532.03 183,-522.03 179.5,-532.03 186.5,-532.03"/>
<text text-anchor="middle" x="209" y="-540.8" font-family="Times,serif" font-size="14.00">[100%]</text>
</g>
<!-- fn_11_basic_block_5 -->
<g id="node6" class="node">
<title>fn_11_basic_block_5</title>
<polygon fill="lightgrey" stroke="black" points="74.5,-224.5 74.5,-260.5 291.5,-260.5 291.5,-224.5 74.5,-224.5"/>
<text text-anchor="start" x="82.5" y="-238.8" font-family="Times,serif" font-size="14.00">COUNT:440234144&lt;bb 5&gt;:</text>
</g>
<!-- fn_11_basic_block_4&#45;&gt;fn_11_basic_block_5 -->
<g id="edge6" class="edge">
<title>fn_11_basic_block_4:s&#45;&gt;fn_11_basic_block_5:n</title>
<path fill="none" stroke="darkorange" stroke-width="2" d="M183,-312C183,-293.58 183,-286.39 183,-272.18"/>
<polygon fill="darkorange" stroke="darkorange" stroke-width="2" points="186.5,-274.03 183,-264.03 179.5,-274.03 186.5,-274.03"/>
<text text-anchor="middle" x="204.5" y="-282.8" font-family="Times,serif" font-size="14.00">[41%]</text>
</g>
<!-- fn_11_basic_block_6 -->
<g id="node7" class="node">
<title>fn_11_basic_block_6</title>
<polygon fill="lightgrey" stroke="black" points="36,-103.5 36,-172.5 354,-172.5 354,-103.5 36,-103.5"/>
<text text-anchor="start" x="44" y="-157.3" font-family="Times,serif" font-size="14.00">COUNT:1073741824&lt;bb 6&gt;:</text>
<polyline fill="none" stroke="black" points="36,-149.5 354,-149.5"/>
<text text-anchor="start" x="44" y="-134.3" font-family="Times,serif" font-size="14.00"># iftmp.5_6 = PHI &lt;omww_17(4), 0.0(5)&gt;</text>
<polyline fill="none" stroke="black" points="36,-126.5 354,-126.5"/>
<text text-anchor="start" x="44" y="-111.3" font-family="Times,serif" font-size="14.00">return iftmp.5_6;</text>
</g>
<!-- fn_11_basic_block_4&#45;&gt;fn_11_basic_block_6 -->
<g id="edge5" class="edge">
<title>fn_11_basic_block_4:s&#45;&gt;fn_11_basic_block_6:n</title>
<path fill="none" stroke="forestgreen" stroke-width="2" d="M183,-312C183,-289.63 209.4,-302.72 230,-294 262.04,-280.44 282.29,-290.34 301,-261 309.84,-247.14 309.04,-238.34 301,-224 287.24,-199.47 272.44,-203 247,-191 229.72,-182.85 207.7,-191.37 198.9,-183.83"/>
<polygon fill="forestgreen" stroke="forestgreen" stroke-width="2" points="202.7,-184.07 196.02,-175.85 196.12,-186.44 202.7,-184.07"/>
<text text-anchor="middle" x="328.5" y="-238.8" font-family="Times,serif" font-size="14.00">[59%]</text>
</g>
<!-- fn_11_basic_block_5&#45;&gt;fn_11_basic_block_6 -->
<g id="edge7" class="edge">
<title>fn_11_basic_block_5:s&#45;&gt;fn_11_basic_block_6:n</title>
<path fill="none" stroke="black" stroke-width="2" d="M183,-224C183,-205.08 190.92,-198.61 193.89,-184.36"/>
<polygon fill="black" stroke="black" stroke-width="2" points="197.22,-186.31 194.71,-176.01 190.25,-185.63 197.22,-186.31"/>
<text text-anchor="middle" x="217" y="-194.8" font-family="Times,serif" font-size="14.00">[100%]</text>
</g>
<!-- fn_11_basic_block_6&#45;&gt;fn_11_basic_block_1 -->
<g id="edge8" class="edge">
<title>fn_11_basic_block_6:s&#45;&gt;fn_11_basic_block_1:n</title>
<path fill="none" stroke="black" stroke-width="2" d="M195,-103C195,-84.58 195,-77.39 195,-63.18"/>
<polygon fill="black" stroke="black" stroke-width="2" points="198.5,-65.03 195,-55.03 191.5,-65.03 198.5,-65.03"/>
<text text-anchor="middle" x="221" y="-73.8" font-family="Times,serif" font-size="14.00">[100%]</text>
</g>
</g>
</svg>
