<?xml version="1.0" encoding="UTF-8" standalone="no"?>
<!DOCTYPE svg PUBLIC "-//W3C//DTD SVG 1.1//EN"
 "http://www.w3.org/Graphics/SVG/1.1/DTD/svg11.dtd">
<!-- Generated by graphviz version 7.0.2 (0)
 -->
<!-- Title: b.c.015t.cfg Pages: 1 -->
<svg width="378pt" height="990pt"
 viewBox="0.00 0.00 377.87 990.00" xmlns="http://www.w3.org/2000/svg" xmlns:xlink="http://www.w3.org/1999/xlink">
<g id="graph0" class="graph" transform="scale(1 1) rotate(0) translate(4 986)">
<title>b.c.015t.cfg</title>
<polygon fill="white" stroke="none" points="-4,4 -4,-986 373.87,-986 373.87,4 -4,4"/>
<g id="clust1" class="cluster">
<title>cluster_build_filter</title>
<polygon fill="none" stroke="black" stroke-dasharray="5,2" points="20.87,-8 20.87,-974 361.87,-974 361.87,-8 20.87,-8"/>
<text text-anchor="middle" x="191.37" y="-958.8" font-family="Times,serif" font-size="14.00">build_filter ()</text>
</g>
<!-- fn_11_basic_block_0 -->
<g id="node1" class="node">
<title>fn_11_basic_block_0</title>
<polygon fill="white" stroke="black" points="132.87,-943 71.2,-925 132.87,-907 194.53,-925 132.87,-943"/>
<polyline fill="none" stroke="black" points="82.72,-928.36 82.72,-921.64"/>
<polyline fill="none" stroke="black" points="121.35,-910.36 144.39,-910.36"/>
<polyline fill="none" stroke="black" points="183.01,-921.64 183.01,-928.36"/>
<polyline fill="none" stroke="black" points="144.39,-939.64 121.35,-939.64"/>
<text text-anchor="middle" x="132.87" y="-921.3" font-family="Times,serif" font-size="14.00">ENTRY</text>
</g>
<!-- fn_11_basic_block_1 -->
<g id="node2" class="node">
<title>fn_11_basic_block_1</title>
<polygon fill="white" stroke="black" points="126.87,-52 80.11,-34 126.87,-16 173.62,-34 126.87,-52"/>
<polyline fill="none" stroke="black" points="91.31,-38.31 91.31,-29.69"/>
<polyline fill="none" stroke="black" points="115.67,-20.31 138.07,-20.31"/>
<polyline fill="none" stroke="black" points="162.42,-29.69 162.42,-38.31"/>
<polyline fill="none" stroke="black" points="138.07,-47.69 115.67,-47.69"/>
<text text-anchor="middle" x="126.87" y="-30.3" font-family="Times,serif" font-size="14.00">EXIT</text>
</g>
<!-- fn_11_basic_block_0&#45;&gt;fn_11_basic_block_1 -->
<!-- fn_11_basic_block_2 -->
<g id="node3" class="node">
<title>fn_11_basic_block_2</title>
<polygon fill="lightgrey" stroke="black" points="48.87,-618.5 48.87,-870.5 216.87,-870.5 216.87,-618.5 48.87,-618.5"/>
<text text-anchor="start" x="56.87" y="-855.3" font-family="Times,serif" font-size="14.00">&lt;bb 2&gt;:</text>
<polyline fill="none" stroke="black" points="48.87,-847.5 216.87,-847.5"/>
<text text-anchor="start" x="56.87" y="-832.3" font-family="Times,serif" font-size="14.00">ph = 0;</text>
<polyline fill="none" stroke="black" points="48.87,-824.5 216.87,-824.5"/>
<text text-anchor="start" x="56.87" y="-809.3" font-family="Times,serif" font-size="14.00">vf = 1.0e+0;</text>
<polyline fill="none" stroke="black" points="48.87,-801.5 216.87,-801.5"/>
<text text-anchor="start" x="56.87" y="-786.3" font-family="Times,serif" font-size="14.00">factor = vf;</text>
<polyline fill="none" stroke="black" points="48.87,-778.5 216.87,-778.5"/>
<text text-anchor="start" x="56.87" y="-763.3" font-family="Times,serif" font-size="14.00">ph.4_1 = ph;</text>
<polyline fill="none" stroke="black" points="48.87,-755.5 216.87,-755.5"/>
<text text-anchor="start" x="56.87" y="-740.3" font-family="Times,serif" font-size="14.00">_2 = (double) ph.4_1;</text>
<polyline fill="none" stroke="black" points="48.87,-732.5 216.87,-732.5"/>
<text text-anchor="start" x="56.87" y="-717.3" font-family="Times,serif" font-size="14.00">_3 = &#45;_2;</text>
<polyline fill="none" stroke="black" points="48.87,-709.5 216.87,-709.5"/>
<text text-anchor="start" x="56.87" y="-694.3" font-family="Times,serif" font-size="14.00">x = factor * _3;</text>
<polyline fill="none" stroke="black" points="48.87,-686.5 216.87,-686.5"/>
<text text-anchor="start" x="56.87" y="-671.3" font-family="Times,serif" font-size="14.00">if (x == 0.0)</text>
<text text-anchor="start" x="56.87" y="-656.3" font-family="Times,serif" font-size="14.00"> &#160;goto &lt;bb 3&gt;; [INV]</text>
<text text-anchor="start" x="56.87" y="-641.3" font-family="Times,serif" font-size="14.00">else</text>
<text text-anchor="start" x="56.87" y="-626.3" font-family="Times,serif" font-size="14.00"> &#160;goto &lt;bb 4&gt;; [INV]</text>
</g>
<!-- fn_11_basic_block_0&#45;&gt;fn_11_basic_block_2 -->
<g id="edge1" class="edge">
<title>fn_11_basic_block_0:s&#45;&gt;fn_11_basic_block_2:n</title>
<path fill="none" stroke="black" stroke-width="2" d="M132.87,-907C132.87,-895.62 132.87,-890.32 132.87,-882.45"/>
<polygon fill="black" stroke="black" stroke-width="2" points="136.37,-884.03 132.87,-874.03 129.37,-884.03 136.37,-884.03"/>
</g>
<!-- fn_11_basic_block_3 -->
<g id="node4" class="node">
<title>fn_11_basic_block_3</title>
<polygon fill="lightgrey" stroke="black" points="49.37,-516.5 49.37,-577.5 204.37,-577.5 204.37,-516.5 49.37,-516.5"/>
<text text-anchor="start" x="57.37" y="-562.3" font-family="Times,serif" font-size="14.00">&lt;bb 3&gt;:</text>
<polyline fill="none" stroke="black" points="49.37,-554.5 204.37,-554.5"/>
<text text-anchor="start" x="57.37" y="-539.3" font-family="Times,serif" font-size="14.00">*y = 1.0e+0;</text>
<text text-anchor="start" x="57.37" y="-524.3" font-family="Times,serif" font-size="14.00">goto &lt;bb 5&gt;; [INV]</text>
</g>
<!-- fn_11_basic_block_2&#45;&gt;fn_11_basic_block_3 -->
<g id="edge2" class="edge">
<title>fn_11_basic_block_2:s&#45;&gt;fn_11_basic_block_3:n</title>
<path fill="none" stroke="forestgreen" stroke-width="2" d="M132.87,-618C132.87,-604.98 129.56,-599.47 127.86,-590.32"/>
<polygon fill="forestgreen" stroke="forestgreen" stroke-width="2" points="131.49,-591.67 127.13,-582.02 124.52,-592.28 131.49,-591.67"/>
</g>
<!-- fn_11_basic_block_4 -->
<g id="node5" class="node">
<title>fn_11_basic_block_4</title>
<polygon fill="lightgrey" stroke="black" points="222.37,-512.5 222.37,-581.5 353.37,-581.5 353.37,-512.5 222.37,-512.5"/>
<text text-anchor="start" x="230.37" y="-566.3" font-family="Times,serif" font-size="14.00">&lt;bb 4&gt;:</text>
<polyline fill="none" stroke="black" points="222.37,-558.5 353.37,-558.5"/>
<text text-anchor="start" x="230.37" y="-543.3" font-family="Times,serif" font-size="14.00">_4 = 1.0e+0 / x;</text>
<polyline fill="none" stroke="black" points="222.37,-535.5 353.37,-535.5"/>
<text text-anchor="start" x="230.37" y="-520.3" font-family="Times,serif" font-size="14.00">*y = _4;</text>
</g>
<!-- fn_11_basic_block_2&#45;&gt;fn_11_basic_block_4 -->
<g id="edge3" class="edge">
<title>fn_11_basic_block_2:s&#45;&gt;fn_11_basic_block_4:n</title>
<path fill="none" stroke="darkorange" stroke-width="2" d="M132.87,-618C132.87,-551.7 269.1,-640.23 286.13,-593.28"/>
<polygon fill="darkorange" stroke="darkorange" stroke-width="2" points="289.34,-595.41 287.4,-584.99 282.42,-594.34 289.34,-595.41"/>
</g>
<!-- fn_11_basic_block_5 -->
<g id="node6" class="node">
<title>fn_11_basic_block_5</title>
<polygon fill="lightgrey" stroke="black" points="118.37,-315.5 118.37,-475.5 283.37,-475.5 283.37,-315.5 118.37,-315.5"/>
<text text-anchor="start" x="126.37" y="-460.3" font-family="Times,serif" font-size="14.00">&lt;bb 5&gt;:</text>
<polyline fill="none" stroke="black" points="118.37,-452.5 283.37,-452.5"/>
<text text-anchor="start" x="126.37" y="-437.3" font-family="Times,serif" font-size="14.00">_5 = x * 2.0e+0;</text>
<polyline fill="none" stroke="black" points="118.37,-429.5 283.37,-429.5"/>
<text text-anchor="start" x="126.37" y="-414.3" font-family="Times,serif" font-size="14.00">w = _5 / factor;</text>
<polyline fill="none" stroke="black" points="118.37,-406.5 283.37,-406.5"/>
<text text-anchor="start" x="126.37" y="-391.3" font-family="Times,serif" font-size="14.00">omww = 1.0e+0 &#45; w;</text>
<polyline fill="none" stroke="black" points="118.37,-383.5 283.37,-383.5"/>
<text text-anchor="start" x="126.37" y="-368.3" font-family="Times,serif" font-size="14.00">if (omww &gt; 0.0)</text>
<text text-anchor="start" x="126.37" y="-353.3" font-family="Times,serif" font-size="14.00"> &#160;goto &lt;bb 6&gt;; [INV]</text>
<text text-anchor="start" x="126.37" y="-338.3" font-family="Times,serif" font-size="14.00">else</text>
<text text-anchor="start" x="126.37" y="-323.3" font-family="Times,serif" font-size="14.00"> &#160;goto &lt;bb 7&gt;; [INV]</text>
</g>
<!-- fn_11_basic_block_3&#45;&gt;fn_11_basic_block_5 -->
<g id="edge4" class="edge">
<title>fn_11_basic_block_3:s&#45;&gt;fn_11_basic_block_5:n</title>
<path fill="none" stroke="black" stroke-width="2" d="M126.87,-515C126.87,-482.47 183.52,-505.47 197.69,-486.82"/>
<polygon fill="black" stroke="black" stroke-width="2" points="200.55,-489.49 200.01,-478.9 193.84,-487.51 200.55,-489.49"/>
</g>
<!-- fn_11_basic_block_4&#45;&gt;fn_11_basic_block_5 -->
<g id="edge5" class="edge">
<title>fn_11_basic_block_4:s&#45;&gt;fn_11_basic_block_5:n</title>
<path fill="none" stroke="black" stroke-width="2" d="M287.87,-512C287.87,-474.89 219.46,-508.19 203.96,-487.03"/>
<polygon fill="black" stroke="black" stroke-width="2" points="207.76,-487.6 201.68,-478.91 201.02,-489.49 207.76,-487.6"/>
</g>
<!-- fn_11_basic_block_6 -->
<g id="node7" class="node">
<title>fn_11_basic_block_6</title>
<polygon fill="lightgrey" stroke="black" points="49.37,-217.5 49.37,-278.5 204.37,-278.5 204.37,-217.5 49.37,-217.5"/>
<text text-anchor="start" x="57.37" y="-263.3" font-family="Times,serif" font-size="14.00">&lt;bb 6&gt;:</text>
<polyline fill="none" stroke="black" points="49.37,-255.5 204.37,-255.5"/>
<text text-anchor="start" x="57.37" y="-240.3" font-family="Times,serif" font-size="14.00">iftmp.5 = omww;</text>
<text text-anchor="start" x="57.37" y="-225.3" font-family="Times,serif" font-size="14.00">goto &lt;bb 8&gt;; [INV]</text>
</g>
<!-- fn_11_basic_block_5&#45;&gt;fn_11_basic_block_6 -->
<g id="edge6" class="edge">
<title>fn_11_basic_block_5:s&#45;&gt;fn_11_basic_block_6:n</title>
<path fill="none" stroke="forestgreen" stroke-width="2" d="M200.87,-315C200.87,-283 144.21,-307.44 130.05,-289.55"/>
<polygon fill="forestgreen" stroke="forestgreen" stroke-width="2" points="133.98,-290.46 127.74,-281.9 127.28,-292.48 133.98,-290.46"/>
</g>
<!-- fn_11_basic_block_7 -->
<g id="node8" class="node">
<title>fn_11_basic_block_7</title>
<polygon fill="lightgrey" stroke="black" points="222.87,-225 222.87,-271 338.87,-271 338.87,-225 222.87,-225"/>
<text text-anchor="start" x="230.87" y="-255.8" font-family="Times,serif" font-size="14.00">&lt;bb 7&gt;:</text>
<polyline fill="none" stroke="black" points="222.87,-248 338.87,-248"/>
<text text-anchor="start" x="230.87" y="-232.8" font-family="Times,serif" font-size="14.00">iftmp.5 = 0.0;</text>
</g>
<!-- fn_11_basic_block_5&#45;&gt;fn_11_basic_block_7 -->
<g id="edge7" class="edge">
<title>fn_11_basic_block_5:s&#45;&gt;fn_11_basic_block_7:n</title>
<path fill="none" stroke="darkorange" stroke-width="2" d="M200.87,-315C200.87,-279.21 263.77,-304.82 278.02,-282.94"/>
<polygon fill="darkorange" stroke="darkorange" stroke-width="2" points="280.97,-285.49 280.1,-274.93 274.2,-283.73 280.97,-285.49"/>
</g>
<!-- fn_11_basic_block_8 -->
<g id="node9" class="node">
<title>fn_11_basic_block_8</title>
<polygon fill="lightgrey" stroke="black" points="65.87,-88.5 65.87,-180.5 187.87,-180.5 187.87,-88.5 65.87,-88.5"/>
<text text-anchor="start" x="73.87" y="-165.3" font-family="Times,serif" font-size="14.00">&lt;bb 8&gt;:</text>
<polyline fill="none" stroke="black" points="65.87,-157.5 187.87,-157.5"/>
<text text-anchor="start" x="73.87" y="-142.3" font-family="Times,serif" font-size="14.00">ffm = iftmp.5;</text>
<polyline fill="none" stroke="black" points="65.87,-134.5 187.87,-134.5"/>
<text text-anchor="start" x="73.87" y="-119.3" font-family="Times,serif" font-size="14.00">D.3203 = ffm;</text>
<polyline fill="none" stroke="black" points="65.87,-111.5 187.87,-111.5"/>
<text text-anchor="start" x="73.87" y="-96.3" font-family="Times,serif" font-size="14.00">return D.3203;</text>
</g>
<!-- fn_11_basic_block_6&#45;&gt;fn_11_basic_block_8 -->
<g id="edge8" class="edge">
<title>fn_11_basic_block_6:s&#45;&gt;fn_11_basic_block_8:n</title>
<path fill="none" stroke="black" stroke-width="2" d="M126.87,-217C126.87,-205.62 126.87,-200.32 126.87,-192.45"/>
<polygon fill="black" stroke="black" stroke-width="2" points="130.37,-194.03 126.87,-184.03 123.37,-194.03 130.37,-194.03"/>
</g>
<!-- fn_11_basic_block_7&#45;&gt;fn_11_basic_block_8 -->
<g id="edge9" class="edge">
<title>fn_11_basic_block_7:s&#45;&gt;fn_11_basic_block_8:n</title>
<path fill="none" stroke="black" stroke-width="2" d="M280.87,-224C280.87,-157.24 144.95,-240.68 128.49,-192.11"/>
<polygon fill="black" stroke="black" stroke-width="2" points="132.21,-193.38 127.3,-184 125.29,-194.4 132.21,-193.38"/>
</g>
<!-- fn_11_basic_block_8&#45;&gt;fn_11_basic_block_1 -->
<g id="edge10" class="edge">
<title>fn_11_basic_block_8:s&#45;&gt;fn_11_basic_block_1:n</title>
<path fill="none" stroke="black" stroke-width="2" d="M126.87,-88C126.87,-76.62 126.87,-71.32 126.87,-63.45"/>
<polygon fill="black" stroke="black" stroke-width="2" points="130.37,-65.03 126.87,-55.03 123.37,-65.03 130.37,-65.03"/>
</g>
</g>
</svg>
