<?xml version="1.0" encoding="UTF-8" standalone="no"?>
<!DOCTYPE svg PUBLIC "-//W3C//DTD SVG 1.1//EN"
 "http://www.w3.org/Graphics/SVG/1.1/DTD/svg11.dtd">
<!-- Generated by graphviz version 5.0.1 (0)
 -->
<!-- Pages: 1 -->
<svg width="737pt" height="461pt"
 viewBox="0.00 0.00 737.00 461.00" xmlns="http://www.w3.org/2000/svg" xmlns:xlink="http://www.w3.org/1999/xlink">
<g id="graph0" class="graph" transform="scale(1 1) rotate(0) translate(4 457)">
<polygon fill="white" stroke="none" points="-4,4 -4,-457 733,-457 733,4 -4,4"/>
<!-- prog -->
<g id="node1" class="node">
<title>prog</title>
<text text-anchor="start" x="106.5" y="-437.5" font-family="mono" font-size="10.00">Disassembly of section .text:</text>
<text text-anchor="start" x="106.5" y="-422.5" font-family="mono" font-size="10.00"> &#160;&#160;&#160;&#160;&#160;&#160;&#160;...</text>
<text text-anchor="start" x="106.5" y="-407.5" font-family="mono" font-size="10.00">0000000000401126 &lt;lib_g&gt;:</text>
<polygon fill="#ddffdd" stroke="none" points="104.5,-387.5 104.5,-402.5 619.5,-402.5 619.5,-387.5 104.5,-387.5"/>
<text text-anchor="start" x="106.5" y="-392.5" font-family="mono" font-size="10.00"> &#160;401126: &#160;&#160;&#160;&#160;&#160;&#160;8b 05 04 2f 00 00 &#160;&#160;&#160;&#160;&#160;&#160;mov &#160;&#160;&#160;0x2f04(%rip),%eax &#160;&#160;&#160;&#160;&#160;&#160;&#160;# 404030 &lt;g&gt;</text>
<text text-anchor="start" x="106.5" y="-377.5" font-family="mono" font-size="10.00"> &#160;40112c: &#160;&#160;&#160;&#160;&#160;&#160;c3 &#160;&#160;&#160;&#160;&#160;&#160;&#160;&#160;&#160;&#160;&#160;&#160;&#160;&#160;&#160;&#160;&#160;&#160;&#160;&#160;&#160;ret</text>
<text text-anchor="start" x="106.5" y="-358.5" font-family="mono" font-size="10.00">000000000040112d &lt;main&gt;:</text>
<text text-anchor="start" x="106.5" y="-343.5" font-family="mono" font-size="10.00"> &#160;40112d: &#160;&#160;&#160;&#160;&#160;&#160;48 83 ec 08 &#160;&#160;&#160;&#160;&#160;&#160;&#160;&#160;&#160;&#160;&#160;&#160;sub &#160;&#160;&#160;$0x8,%rsp</text>
<text text-anchor="start" x="106.5" y="-328.5" font-family="mono" font-size="10.00"> &#160;401131: &#160;&#160;&#160;&#160;&#160;&#160;e8 f0 ff ff ff &#160;&#160;&#160;&#160;&#160;&#160;&#160;&#160;&#160;call &#160;&#160;401126 &lt;lib_g&gt;</text>
<text text-anchor="start" x="106.5" y="-313.5" font-family="mono" font-size="10.00"> &#160;401136: &#160;&#160;&#160;&#160;&#160;&#160;89 c2 &#160;&#160;&#160;&#160;&#160;&#160;&#160;&#160;&#160;&#160;&#160;&#160;&#160;&#160;&#160;&#160;&#160;&#160;mov &#160;&#160;&#160;%eax,%edx</text>
<polygon fill="#ddffdd" stroke="none" points="104.5,-293.5 104.5,-308.5 619.5,-308.5 619.5,-293.5 104.5,-293.5"/>
<text text-anchor="start" x="106.5" y="-298.5" font-family="mono" font-size="10.00"> &#160;401138: &#160;&#160;&#160;&#160;&#160;&#160;8b 35 f2 2e 00 00 &#160;&#160;&#160;&#160;&#160;&#160;mov &#160;&#160;&#160;0x2ef2(%rip),%esi &#160;&#160;&#160;&#160;&#160;&#160;&#160;# 404030 &lt;g&gt;</text>
<text text-anchor="start" x="106.5" y="-283.5" font-family="mono" font-size="10.00"> &#160;40113e: &#160;&#160;&#160;&#160;&#160;&#160;bf 08 20 40 00 &#160;&#160;&#160;&#160;&#160;&#160;&#160;&#160;&#160;mov &#160;&#160;&#160;$0x402008,%edi</text>
<text text-anchor="start" x="106.5" y="-268.5" font-family="mono" font-size="10.00"> &#160;401143: &#160;&#160;&#160;&#160;&#160;&#160;b8 00 00 00 00 &#160;&#160;&#160;&#160;&#160;&#160;&#160;&#160;&#160;mov &#160;&#160;&#160;$0x0,%eax</text>
<text text-anchor="start" x="106.5" y="-253.5" font-family="mono" font-size="10.00"> &#160;401148: &#160;&#160;&#160;&#160;&#160;&#160;e8 e3 fe ff ff &#160;&#160;&#160;&#160;&#160;&#160;&#160;&#160;&#160;call &#160;&#160;401030 &lt;printf@plt&gt;</text>
<polygon fill="lightcyan" stroke="none" points="104.5,-233.5 104.5,-248.5 619.5,-248.5 619.5,-233.5 104.5,-233.5"/>
<text text-anchor="start" x="106.5" y="-238.5" font-family="mono" font-size="10.00"> &#160;40114d: &#160;&#160;&#160;&#160;&#160;&#160;c7 05 d9 2e 00 00 4e &#160;&#160;&#160;movl &#160;&#160;$0xbc614e,0x2ed9(%rip) &#160;&#160;# 404030 &lt;g&gt;</text>
<text text-anchor="start" x="106.5" y="-223.5" font-family="mono" font-size="10.00"> &#160;401154: &#160;&#160;&#160;&#160;&#160;&#160;61 bc 00</text>
<text text-anchor="start" x="106.5" y="-208.5" font-family="mono" font-size="10.00"> &#160;401157: &#160;&#160;&#160;&#160;&#160;&#160;e8 ca ff ff ff &#160;&#160;&#160;&#160;&#160;&#160;&#160;&#160;&#160;call &#160;&#160;401126 &lt;lib_g&gt;</text>
<text text-anchor="start" x="106.5" y="-193.5" font-family="mono" font-size="10.00"> &#160;40115c: &#160;&#160;&#160;&#160;&#160;&#160;89 c2 &#160;&#160;&#160;&#160;&#160;&#160;&#160;&#160;&#160;&#160;&#160;&#160;&#160;&#160;&#160;&#160;&#160;&#160;mov &#160;&#160;&#160;%eax,%edx</text>
<polygon fill="#ddffdd" stroke="none" points="104.5,-173.5 104.5,-188.5 619.5,-188.5 619.5,-173.5 104.5,-173.5"/>
<text text-anchor="start" x="106.5" y="-178.5" font-family="mono" font-size="10.00"> &#160;40115e: &#160;&#160;&#160;&#160;&#160;&#160;8b 35 cc 2e 00 00 &#160;&#160;&#160;&#160;&#160;&#160;mov &#160;&#160;&#160;0x2ecc(%rip),%esi &#160;&#160;&#160;&#160;&#160;&#160;&#160;# 404030 &lt;g&gt;</text>
<text text-anchor="start" x="106.5" y="-163.5" font-family="mono" font-size="10.00"> &#160;401164: &#160;&#160;&#160;&#160;&#160;&#160;bf 28 20 40 00 &#160;&#160;&#160;&#160;&#160;&#160;&#160;&#160;&#160;mov &#160;&#160;&#160;$0x402028,%edi</text>
<text text-anchor="start" x="106.5" y="-148.5" font-family="mono" font-size="10.00"> &#160;401169: &#160;&#160;&#160;&#160;&#160;&#160;b8 00 00 00 00 &#160;&#160;&#160;&#160;&#160;&#160;&#160;&#160;&#160;mov &#160;&#160;&#160;$0x0,%eax</text>
<text text-anchor="start" x="106.5" y="-133.5" font-family="mono" font-size="10.00"> &#160;40116e: &#160;&#160;&#160;&#160;&#160;&#160;e8 bd fe ff ff &#160;&#160;&#160;&#160;&#160;&#160;&#160;&#160;&#160;call &#160;&#160;401030 &lt;printf@plt&gt;</text>
<text text-anchor="start" x="106.5" y="-118.5" font-family="mono" font-size="10.00"> &#160;401173: &#160;&#160;&#160;&#160;&#160;&#160;b8 00 00 00 00 &#160;&#160;&#160;&#160;&#160;&#160;&#160;&#160;&#160;mov &#160;&#160;&#160;$0x0,%eax</text>
<text text-anchor="start" x="106.5" y="-103.5" font-family="mono" font-size="10.00"> &#160;401178: &#160;&#160;&#160;&#160;&#160;&#160;48 83 c4 08 &#160;&#160;&#160;&#160;&#160;&#160;&#160;&#160;&#160;&#160;&#160;&#160;add &#160;&#160;&#160;$0x8,%rsp</text>
<text text-anchor="start" x="106.5" y="-88.5" font-family="mono" font-size="10.00"> &#160;40117c: &#160;&#160;&#160;&#160;&#160;&#160;c3 &#160;&#160;&#160;&#160;&#160;&#160;&#160;&#160;&#160;&#160;&#160;&#160;&#160;&#160;&#160;&#160;&#160;&#160;&#160;&#160;&#160;ret</text>
<text text-anchor="start" x="106.5" y="-69.5" font-family="mono" font-size="10.00">Disassembly of section .data:</text>
<text text-anchor="start" x="106.5" y="-54.5" font-family="mono" font-size="10.00"> &#160;&#160;&#160;&#160;&#160;&#160;&#160;...</text>
<text text-anchor="start" x="106.5" y="-39.5" font-family="mono" font-size="10.00">0000000000404030 &lt;g&gt;:</text>
<polygon fill="#aaccaa" stroke="none" points="104.5,-19.5 104.5,-34.5 619.5,-34.5 619.5,-19.5 104.5,-19.5"/>
<text text-anchor="start" x="106.5" y="-24.5" font-family="mono" font-size="10.00"> &#160;404030: &#160;&#160;&#160;&#160;&#160;&#160;2a 00 &#160;&#160;&#160;&#160;&#160;&#160;&#160;&#160;&#160;&#160;&#160;&#160;&#160;&#160;&#160;&#160;&#160;&#160;&#160;&#160;&#160;&#160;&#160;&#160;&#160;&#160;&#160;&#160;&#160;&#160;&#160;&#160;&#160;&#160;&#160;&#160;&#160;&#160;&#160;&#160;&#160;&#160;&#160;&#160;&#160;&#160;&#160;&#160;&#160;&#160;# int g = 42;</text>
<text text-anchor="start" x="106.5" y="-9.5" font-family="mono" font-size="10.00"> &#160;&#160;&#160;&#160;&#160;&#160;&#160;...</text>
<polygon fill="none" stroke="black" points="103,-4 103,-449 620,-449 620,-4 103,-4"/>
</g>
<!-- read g -->
<g id="node2" class="node">
<title>read g</title>
<text text-anchor="middle" x="696.5" y="-301" font-family="mono" font-size="10.00" fill="green">read g</text>
</g>
<!-- prog&#45;&gt;read g -->
<g id="edge1" class="edge">
<title>prog:e&#45;&gt;read g</title>
<path fill="none" stroke="green" d="M620.5,-26.5C620.5,-26.5 664,-256.5 664,-256.5 664,-256.5 670.56,-266.28 677.68,-276.92"/>
<polygon fill="green" stroke="green" points="683.41,-285.46 674.11,-279.66 680.63,-281.31 677.84,-277.16 677.84,-277.16 677.84,-277.16 680.63,-281.31 681.58,-274.65 683.41,-285.46 683.41,-285.46"/>
</g>
<!-- read g  -->
<g id="node3" class="node">
<title>read g </title>
<text text-anchor="middle" x="696.5" y="-227" font-family="mono" font-size="10.00" fill="green">read g </text>
</g>
<!-- prog&#45;&gt;read g  -->
<g id="edge3" class="edge">
<title>prog:e&#45;&gt;read g </title>
<path fill="none" stroke="green" d="M620.5,-26.5C620.5,-26.5 664.8,-146.41 685.31,-201.91"/>
<polygon fill="green" stroke="green" points="688.84,-211.49 681.16,-203.66 687.11,-206.79 685.38,-202.1 685.38,-202.1 685.38,-202.1 687.11,-206.79 689.6,-200.55 688.84,-211.49 688.84,-211.49"/>
</g>
<!-- read g &#160; -->
<g id="node4" class="node">
<title>read g &#160;</title>
<text text-anchor="middle" x="696.5" y="-101" font-family="mono" font-size="10.00" fill="green">read g &#160;</text>
</g>
<!-- prog&#45;&gt;read g &#160; -->
<g id="edge7" class="edge">
<title>prog:e&#45;&gt;read g &#160;</title>
<path fill="none" stroke="green" d="M620.5,-26.5C620.5,-26.5 648.79,-55.54 670.62,-77.96"/>
<polygon fill="green" stroke="green" points="677.73,-85.25 667.53,-81.23 674.24,-81.67 670.75,-78.09 670.75,-78.09 670.75,-78.09 674.24,-81.67 673.97,-74.95 677.73,-85.25 677.73,-85.25"/>
</g>
<!-- write g -->
<g id="node5" class="node">
<title>write g</title>
<text text-anchor="middle" x="29.5" y="-132" font-family="mono" font-size="10.00" fill="darkcyan">write g</text>
</g>
<!-- prog&#45;&gt;write g -->
<g id="edge5" class="edge">
<title>prog:w&#45;&gt;write g</title>
<path fill="none" stroke="darkcyan" d="M103.5,-241.5C103.5,-241.5 70.26,-192.77 48.64,-161.08"/>
<polygon fill="darkcyan" stroke="darkcyan" points="42.88,-152.65 52.24,-158.38 45.7,-156.78 48.52,-160.91 48.52,-160.91 48.52,-160.91 45.7,-156.78 44.8,-163.45 42.88,-152.65 42.88,-152.65"/>
</g>
<!-- read g&#45;&gt;prog -->
<g id="edge2" class="edge">
<title>read g&#45;&gt;prog:e</title>
<path fill="none" stroke="green" d="M680.68,-321.68C664.29,-341.78 638.63,-373.26 626.83,-387.74"/>
<polygon fill="green" stroke="green" points="620.5,-395.5 623.33,-384.91 623.66,-391.62 626.82,-387.75 626.82,-387.75 626.82,-387.75 623.66,-391.62 630.31,-390.59 620.5,-395.5 620.5,-395.5"/>
</g>
<!-- read g &#45;&gt;prog -->
<g id="edge4" class="edge">
<title>read g &#45;&gt;prog:e</title>
<path fill="none" stroke="green" d="M676.57,-247.67C660.78,-262.83 639.1,-283.64 627.89,-294.41"/>
<polygon fill="green" stroke="green" points="620.5,-301.5 624.6,-291.33 624.11,-298.04 627.71,-294.57 627.71,-294.57 627.71,-294.57 624.11,-298.04 630.83,-297.82 620.5,-301.5 620.5,-301.5"/>
</g>
<!-- read g &#160;&#45;&gt;prog -->
<g id="edge8" class="edge">
<title>read g &#160;&#45;&gt;prog:e</title>
<path fill="none" stroke="green" d="M677.73,-121.75C661.79,-138.11 639.2,-161.31 627.75,-173.06"/>
<polygon fill="green" stroke="green" points="620.5,-180.5 624.25,-170.2 623.99,-176.92 627.48,-173.34 627.48,-173.34 627.48,-173.34 623.99,-176.92 630.7,-176.48 620.5,-180.5 620.5,-180.5"/>
</g>
<!-- write g&#45;&gt;prog -->
<g id="edge6" class="edge">
<title>write g&#45;&gt;prog:w</title>
<path fill="none" stroke="darkcyan" d="M42.88,-116.18C58.91,-92.47 86.17,-52.14 97.88,-34.82"/>
<polygon fill="darkcyan" stroke="darkcyan" points="103.5,-26.5 101.63,-37.3 100.7,-30.64 97.9,-34.78 97.9,-34.78 97.9,-34.78 100.7,-30.64 94.17,-32.26 103.5,-26.5 103.5,-26.5"/>
</g>
</g>
</svg>
