<?xml version="1.0" encoding="UTF-8" standalone="no"?>
<!DOCTYPE svg PUBLIC "-//W3C//DTD SVG 1.1//EN"
 "http://www.w3.org/Graphics/SVG/1.1/DTD/svg11.dtd">
<!-- Generated by graphviz version 8.0.5 (0)
 -->
<!-- Pages: 1 -->
<svg width="854pt" height="700pt"
 viewBox="0.00 0.00 854.00 700.00" xmlns="http://www.w3.org/2000/svg" xmlns:xlink="http://www.w3.org/1999/xlink">
<g id="graph0" class="graph" transform="scale(1 1) rotate(0) translate(4 696)">
<polygon fill="white" stroke="none" points="-4,4 -4,-696 850,-696 850,4 -4,4"/>
<!-- prog -->
<g id="node1" class="node">
<title>prog</title>
<text text-anchor="start" x="141" y="-675.5" font-family="mono" font-size="10.00">Disassembly of section .text:</text>
<text text-anchor="start" x="141" y="-658.75" font-family="mono" font-size="10.00">00000000000010f9 &lt;lib_g&gt;:</text>
<polygon fill="#ffeeff" stroke="none" points="139,-636.75 139,-653.5 701,-653.5 701,-636.75 139,-636.75"/>
<text text-anchor="start" x="141" y="-642" font-family="mono" font-size="10.00"> &#160;&#160;&#160;10f9: &#160;&#160;&#160;&#160;&#160;&#160;48 8b 05 e8 2e 00 00 &#160;&#160;&#160;mov &#160;&#160;&#160;0x2ee8(%rip),%rax &#160;&#160;&#160;&#160;&#160;&#160;&#160;# 3fe8 &lt;g@@Base&#45;0x38&gt;</text>
<polygon fill="#ddffdd" stroke="none" points="139,-620 139,-636.75 701,-636.75 701,-620 139,-620"/>
<text text-anchor="start" x="141" y="-625.25" font-family="mono" font-size="10.00"> &#160;&#160;&#160;1100: &#160;&#160;&#160;&#160;&#160;&#160;8b 00 &#160;&#160;&#160;&#160;&#160;&#160;&#160;&#160;&#160;&#160;&#160;&#160;&#160;&#160;&#160;&#160;&#160;&#160;mov &#160;&#160;&#160;(%rax),%eax</text>
<text text-anchor="start" x="141" y="-608.5" font-family="mono" font-size="10.00"> &#160;&#160;&#160;1102: &#160;&#160;&#160;&#160;&#160;&#160;c3 &#160;&#160;&#160;&#160;&#160;&#160;&#160;&#160;&#160;&#160;&#160;&#160;&#160;&#160;&#160;&#160;&#160;&#160;&#160;&#160;&#160;ret</text>
<text text-anchor="start" x="141" y="-587.75" font-family="mono" font-size="10.00">Disassembly of section .got:</text>
<text text-anchor="start" x="141" y="-567" font-family="mono" font-size="10.00">0000000000003fd8 &lt;.got&gt;:</text>
<text text-anchor="start" x="141" y="-550.25" font-family="mono" font-size="10.00"> &#160;&#160;&#160;&#160;&#160;&#160;&#160;...</text>
<polygon fill="#ffddff" stroke="none" points="139,-528.25 139,-545 701,-545 701,-528.25 139,-528.25"/>
<text text-anchor="start" x="141" y="-533.5" font-family="mono" font-size="10.00"> &#160;&#160;&#160;&#160;&#160;&#160;&#160;&#160;&#160;&#160;&#160;&#160;&#160;&#160;&#160;&#160;&#160;&#160;&#160;&#160;&#160;&#160;&#160;3fe8: R_X86_64_GLOB_DAT g@@Base</text>
<text text-anchor="start" x="141" y="-516.75" font-family="mono" font-size="10.00">Disassembly of section .data:</text>
<text text-anchor="start" x="141" y="-500" font-family="mono" font-size="10.00"> &#160;&#160;&#160;&#160;&#160;&#160;&#160;...</text>
<text text-anchor="start" x="141" y="-483.25" font-family="mono" font-size="10.00">0000000000004020 &lt;g&gt;:</text>
<polygon fill="#aaccaa" stroke="none" points="139,-461.25 139,-478 701,-478 701,-461.25 139,-461.25"/>
<text text-anchor="start" x="141" y="-466.5" font-family="mono" font-size="10.00"> &#160;&#160;&#160;4020: &#160;&#160;&#160;&#160;&#160;&#160;2a 00 &#160;&#160;&#160;&#160;&#160;&#160;&#160;&#160;&#160;&#160;&#160;&#160;&#160;&#160;&#160;&#160;&#160;&#160;&#160;&#160;&#160;&#160;&#160;&#160;&#160;&#160;&#160;&#160;&#160;&#160;&#160;&#160;&#160;&#160;&#160;&#160;&#160;&#160;&#160;&#160;&#160;&#160;&#160;&#160;&#160;&#160;&#160;&#160;&#160;&#160;# int g = 42; </text>
<text text-anchor="start" x="141" y="-449.75" font-family="mono" font-size="10.00"> &#160;&#160;&#160;&#160;&#160;&#160;&#160;...</text>
<text text-anchor="start" x="141" y="-433" font-family="mono" font-size="10.00">Disassembly of section .text:</text>
<text text-anchor="start" x="141" y="-416.25" font-family="mono" font-size="10.00">0000000000401136 &lt;main&gt;:</text>
<text text-anchor="start" x="141" y="-399.5" font-family="mono" font-size="10.00"> &#160;401136: &#160;&#160;&#160;&#160;&#160;&#160;48 83 ec 08 &#160;&#160;&#160;&#160;&#160;&#160;&#160;&#160;&#160;&#160;&#160;&#160;sub &#160;&#160;&#160;$0x8,%rsp</text>
<text text-anchor="start" x="141" y="-382.75" font-family="mono" font-size="10.00"> &#160;40113a: &#160;&#160;&#160;&#160;&#160;&#160;e8 f1 fe ff ff &#160;&#160;&#160;&#160;&#160;&#160;&#160;&#160;&#160;call &#160;&#160;401030 &lt;lib_g@plt&gt;</text>
<text text-anchor="start" x="141" y="-366" font-family="mono" font-size="10.00"> &#160;40113f: &#160;&#160;&#160;&#160;&#160;&#160;89 c2 &#160;&#160;&#160;&#160;&#160;&#160;&#160;&#160;&#160;&#160;&#160;&#160;&#160;&#160;&#160;&#160;&#160;&#160;mov &#160;&#160;&#160;%eax,%edx</text>
<polygon fill="#ddffdd" stroke="none" points="139,-344 139,-360.75 701,-360.75 701,-344 139,-344"/>
<text text-anchor="start" x="141" y="-349.25" font-family="mono" font-size="10.00"> &#160;401141: &#160;&#160;&#160;&#160;&#160;&#160;8b 35 f1 2e 00 00 &#160;&#160;&#160;&#160;&#160;&#160;mov &#160;&#160;&#160;0x2ef1(%rip),%esi &#160;&#160;&#160;&#160;&#160;&#160;&#160;# 404038 &lt;g@@Base&gt;</text>
<text text-anchor="start" x="141" y="-332.5" font-family="mono" font-size="10.00"> &#160;401147: &#160;&#160;&#160;&#160;&#160;&#160;bf 08 20 40 00 &#160;&#160;&#160;&#160;&#160;&#160;&#160;&#160;&#160;mov &#160;&#160;&#160;$0x402008,%edi</text>
<text text-anchor="start" x="141" y="-315.75" font-family="mono" font-size="10.00"> &#160;40114c: &#160;&#160;&#160;&#160;&#160;&#160;b8 00 00 00 00 &#160;&#160;&#160;&#160;&#160;&#160;&#160;&#160;&#160;mov &#160;&#160;&#160;$0x0,%eax</text>
<text text-anchor="start" x="141" y="-299" font-family="mono" font-size="10.00"> &#160;401151: &#160;&#160;&#160;&#160;&#160;&#160;e8 ea fe ff ff &#160;&#160;&#160;&#160;&#160;&#160;&#160;&#160;&#160;call &#160;&#160;401040 &lt;printf@plt&gt;</text>
<polygon fill="lightcyan" stroke="none" points="139,-277 139,-293.75 701,-293.75 701,-277 139,-277"/>
<text text-anchor="start" x="141" y="-282.25" font-family="mono" font-size="10.00"> &#160;401156: &#160;&#160;&#160;&#160;&#160;&#160;c7 05 d8 2e 00 00 4e &#160;&#160;&#160;movl &#160;&#160;$0xbc614e,0x2ed8(%rip) &#160;&#160;# 404038 &lt;g@@Base&gt;</text>
<text text-anchor="start" x="141" y="-265.5" font-family="mono" font-size="10.00"> &#160;40115d: &#160;&#160;&#160;&#160;&#160;&#160;61 bc 00</text>
<text text-anchor="start" x="141" y="-248.75" font-family="mono" font-size="10.00"> &#160;401160: &#160;&#160;&#160;&#160;&#160;&#160;e8 cb fe ff ff &#160;&#160;&#160;&#160;&#160;&#160;&#160;&#160;&#160;call &#160;&#160;401030 &lt;lib_g@plt&gt;</text>
<text text-anchor="start" x="141" y="-232" font-family="mono" font-size="10.00"> &#160;401165: &#160;&#160;&#160;&#160;&#160;&#160;89 c2 &#160;&#160;&#160;&#160;&#160;&#160;&#160;&#160;&#160;&#160;&#160;&#160;&#160;&#160;&#160;&#160;&#160;&#160;mov &#160;&#160;&#160;%eax,%edx</text>
<polygon fill="#ddffdd" stroke="none" points="139,-210 139,-226.75 701,-226.75 701,-210 139,-210"/>
<text text-anchor="start" x="141" y="-215.25" font-family="mono" font-size="10.00"> &#160;401167: &#160;&#160;&#160;&#160;&#160;&#160;8b 35 cb 2e 00 00 &#160;&#160;&#160;&#160;&#160;&#160;mov &#160;&#160;&#160;0x2ecb(%rip),%esi &#160;&#160;&#160;&#160;&#160;&#160;&#160;# 404038 &lt;g@@Base&gt;</text>
<text text-anchor="start" x="141" y="-198.5" font-family="mono" font-size="10.00"> &#160;40116d: &#160;&#160;&#160;&#160;&#160;&#160;bf 28 20 40 00 &#160;&#160;&#160;&#160;&#160;&#160;&#160;&#160;&#160;mov &#160;&#160;&#160;$0x402028,%edi</text>
<text text-anchor="start" x="141" y="-181.75" font-family="mono" font-size="10.00"> &#160;401172: &#160;&#160;&#160;&#160;&#160;&#160;b8 00 00 00 00 &#160;&#160;&#160;&#160;&#160;&#160;&#160;&#160;&#160;mov &#160;&#160;&#160;$0x0,%eax</text>
<text text-anchor="start" x="141" y="-165" font-family="mono" font-size="10.00"> &#160;401177: &#160;&#160;&#160;&#160;&#160;&#160;e8 c4 fe ff ff &#160;&#160;&#160;&#160;&#160;&#160;&#160;&#160;&#160;call &#160;&#160;401040 &lt;printf@plt&gt;</text>
<text text-anchor="start" x="141" y="-148.25" font-family="mono" font-size="10.00"> &#160;40117c: &#160;&#160;&#160;&#160;&#160;&#160;b8 00 00 00 00 &#160;&#160;&#160;&#160;&#160;&#160;&#160;&#160;&#160;mov &#160;&#160;&#160;$0x0,%eax</text>
<text text-anchor="start" x="141" y="-131.5" font-family="mono" font-size="10.00"> &#160;401181: &#160;&#160;&#160;&#160;&#160;&#160;48 83 c4 08 &#160;&#160;&#160;&#160;&#160;&#160;&#160;&#160;&#160;&#160;&#160;&#160;add &#160;&#160;&#160;$0x8,%rsp</text>
<text text-anchor="start" x="141" y="-114.75" font-family="mono" font-size="10.00"> &#160;401185: &#160;&#160;&#160;&#160;&#160;&#160;c3 &#160;&#160;&#160;&#160;&#160;&#160;&#160;&#160;&#160;&#160;&#160;&#160;&#160;&#160;&#160;&#160;&#160;&#160;&#160;&#160;&#160;ret</text>
<text text-anchor="start" x="141" y="-98" font-family="mono" font-size="10.00">...</text>
<text text-anchor="start" x="141" y="-81.25" font-family="mono" font-size="10.00">Disassembly of section .bss:</text>
<text text-anchor="start" x="141" y="-60.5" font-family="mono" font-size="10.00">0000000000404038 &lt;g&gt;:</text>
<polygon fill="#aaaacc" stroke="none" points="139,-38.5 139,-55.25 701,-55.25 701,-38.5 139,-38.5"/>
<text text-anchor="start" x="141" y="-43.75" font-family="mono" font-size="10.00"> &#160;404038: &#160;&#160;&#160;&#160;&#160;&#160;00 00 &#160;&#160;&#160;&#160;&#160;&#160;&#160;&#160;&#160;&#160;&#160;&#160;&#160;&#160;&#160;&#160;&#160;&#160;&#160;&#160;&#160;&#160;&#160;&#160;&#160;&#160;&#160;&#160;&#160;&#160;&#160;&#160;&#160;&#160;&#160;&#160;&#160;&#160;&#160;&#160;&#160;&#160;&#160;&#160;&#160;&#160;&#160;&#160;&#160;&#160;# extern int g;</text>
<polygon fill="#aaaacc" stroke="none" points="139,-21.75 139,-38.5 701,-38.5 701,-21.75 139,-21.75"/>
<text text-anchor="start" x="141" y="-27" font-family="mono" font-size="10.00"> &#160;&#160;&#160;&#160;&#160;&#160;&#160;&#160;&#160;&#160;&#160;&#160;&#160;&#160;&#160;&#160;&#160;&#160;&#160;&#160;&#160;&#160;&#160;404038: R_X86_64_COPY &#160;&#160;g@@Base</text>
<text text-anchor="start" x="141" y="-10.25" font-family="mono" font-size="10.00"> &#160;&#160;&#160;&#160;&#160;&#160;&#160;...</text>
<polygon fill="none" stroke="black" points="138,-4 138,-688 702,-688 702,-4 138,-4"/>
</g>
<!-- read g -->
<g id="node2" class="node">
<title>read g</title>
<text text-anchor="middle" x="796" y="-455.88" font-family="mono" font-size="10.00" fill="green">read g</text>
</g>
<!-- prog&#45;&gt;read g -->
<g id="edge3" class="edge">
<title>prog:e&#45;&gt;read g</title>
<path fill="none" stroke="green" d="M702,-47C702,-47 746,-338 746,-338 746,-338 769.71,-396.56 784.15,-432.2"/>
<polygon fill="green" stroke="green" points="787.77,-441.15 779.85,-433.57 785.89,-436.51 784.02,-431.88 784.02,-431.88 784.02,-431.88 785.89,-436.51 788.19,-430.19 787.77,-441.15 787.77,-441.15"/>
</g>
<!-- read g address -->
<g id="node3" class="node">
<title>read g address</title>
<text text-anchor="middle" x="796" y="-587.88" font-family="mono" font-size="10.00" fill="#ff00ff">read g address</text>
</g>
<!-- prog&#45;&gt;read g address -->
<g id="edge1" class="edge">
<title>prog:e&#45;&gt;read g address</title>
<path fill="none" stroke="#ff00ff" d="M702,-537C702,-537 730.23,-553.39 755.59,-568.12"/>
<polygon fill="#ff00ff" stroke="#ff00ff" points="764.03,-573.02 753.12,-571.89 759.71,-570.51 755.38,-568 755.38,-568 755.38,-568 759.71,-570.51 757.64,-564.11 764.03,-573.02 764.03,-573.02"/>
</g>
<!-- read g  -->
<g id="node4" class="node">
<title>read g </title>
<text text-anchor="middle" x="796" y="-307.88" font-family="mono" font-size="10.00" fill="green">read g </text>
</g>
<!-- prog&#45;&gt;read g  -->
<g id="edge5" class="edge">
<title>prog:e&#45;&gt;read g </title>
<path fill="none" stroke="green" d="M702,-47C702,-47 746,-237 746,-237 746,-237 763.64,-263.64 777.75,-284.96"/>
<polygon fill="green" stroke="green" points="783.14,-293.09 773.87,-287.23 780.38,-288.92 777.62,-284.75 777.62,-284.75 777.62,-284.75 780.38,-288.92 781.37,-282.26 783.14,-293.09 783.14,-293.09"/>
</g>
<!-- read g &#160; -->
<g id="node5" class="node">
<title>read g &#160;</title>
<text text-anchor="middle" x="796" y="-129.88" font-family="mono" font-size="10.00" fill="green">read g &#160;</text>
</g>
<!-- prog&#45;&gt;read g &#160; -->
<g id="edge9" class="edge">
<title>prog:e&#45;&gt;read g &#160;</title>
<path fill="none" stroke="green" d="M702,-47C702,-47 741.18,-83.23 768.67,-108.66"/>
<polygon fill="green" stroke="green" points="775.73,-115.18 765.33,-111.7 772.06,-111.79 768.39,-108.39 768.39,-108.39 768.39,-108.39 772.06,-111.79 771.44,-105.09 775.73,-115.18 775.73,-115.18"/>
</g>
<!-- write g -->
<g id="node6" class="node">
<title>write g</title>
<text text-anchor="middle" x="796" y="-206.88" font-family="mono" font-size="10.00" fill="darkcyan">write g</text>
</g>
<!-- prog&#45;&gt;write g -->
<g id="edge7" class="edge">
<title>prog:e&#45;&gt;write g</title>
<path fill="none" stroke="darkcyan" d="M702,-285C702,-285 738,-255.97 765.2,-234.03"/>
<polygon fill="darkcyan" stroke="darkcyan" points="772.96,-227.77 768,-237.55 769.07,-230.91 765.18,-234.05 765.18,-234.05 765.18,-234.05 769.07,-230.91 762.35,-230.55 772.96,-227.77 772.96,-227.77"/>
</g>
<!-- copy g -->
<g id="node7" class="node">
<title>copy g</title>
<text text-anchor="middle" x="47" y="-255.88" font-family="mono" font-size="10.00" fill="blue">copy g</text>
</g>
<!-- prog&#45;&gt;copy g -->
<g id="edge11" class="edge">
<title>prog:w&#45;&gt;copy g</title>
<path fill="none" stroke="blue" d="M138,-470C138,-470 94,-292 94,-292 94,-292 88.22,-287.85 80.76,-282.5"/>
<polygon fill="blue" stroke="blue" points="72.88,-276.85 83.63,-279.02 76.95,-279.77 81.01,-282.68 81.01,-282.68 81.01,-282.68 76.95,-279.77 78.39,-286.34 72.88,-276.85 72.88,-276.85"/>
</g>
<!-- set g address -->
<g id="node8" class="node">
<title>set g address</title>
<text text-anchor="middle" x="47" y="-315.88" font-family="mono" font-size="10.00" fill="#ff00ff">set g address</text>
</g>
<!-- prog&#45;&gt;set g address -->
<g id="edge13" class="edge">
<title>prog:w&#45;&gt;set g address</title>
<path fill="none" stroke="#ff00ff" d="M138,-47C138,-47 94,-286 94,-286 94,-286 88.22,-290.15 80.76,-295.5"/>
<polygon fill="#ff00ff" stroke="#ff00ff" points="72.88,-301.15 78.39,-291.66 76.95,-298.23 81.01,-295.32 81.01,-295.32 81.01,-295.32 76.95,-298.23 83.63,-298.98 72.88,-301.15 72.88,-301.15"/>
</g>
<!-- read g&#45;&gt;prog -->
<g id="edge4" class="edge">
<title>read g&#45;&gt;prog:e</title>
<path fill="none" stroke="green" d="M785.22,-476.77C765.45,-512.7 721.35,-592.83 706.78,-619.32"/>
<polygon fill="green" stroke="green" points="702,-628 702.88,-617.07 704.41,-623.62 706.82,-619.24 706.82,-619.24 706.82,-619.24 704.41,-623.62 710.76,-621.41 702,-628 702,-628"/>
</g>
<!-- read g address&#45;&gt;prog -->
<g id="edge2" class="edge">
<title>read g address&#45;&gt;prog:e</title>
<path fill="none" stroke="#ff00ff" d="M764.03,-608.98C745.22,-619.9 722.58,-633.05 710.53,-640.05"/>
<polygon fill="#ff00ff" stroke="#ff00ff" points="702,-645 708.39,-636.09 706.32,-642.49 710.65,-639.98 710.65,-639.98 710.65,-639.98 706.32,-642.49 712.91,-643.87 702,-645 702,-645"/>
</g>
<!-- read g &#45;&gt;prog -->
<g id="edge6" class="edge">
<title>read g &#45;&gt;prog:e</title>
<path fill="none" stroke="green" d="M767.1,-323.3C748.05,-331.7 724.02,-342.29 711.14,-347.97"/>
<polygon fill="green" stroke="green" points="702,-352 709.33,-343.85 706.58,-349.98 711.15,-347.97 711.15,-347.97 711.15,-347.97 706.58,-349.98 712.97,-352.08 702,-352 702,-352"/>
</g>
<!-- read g &#160;&#45;&gt;prog -->
<g id="edge10" class="edge">
<title>read g &#160;&#45;&gt;prog:e</title>
<path fill="none" stroke="green" d="M775.73,-150.61C755.09,-169.48 723.39,-198.45 709.25,-211.38"/>
<polygon fill="green" stroke="green" points="702,-218 706.35,-207.93 705.69,-214.63 709.38,-211.25 709.38,-211.25 709.38,-211.25 705.69,-214.63 712.42,-214.58 702,-218 702,-218"/>
</g>
<!-- write g&#45;&gt;prog -->
<g id="edge8" class="edge">
<title>write g&#45;&gt;prog:e</title>
<path fill="none" stroke="darkcyan" d="M777.59,-192.23C763.5,-177.86 746,-160 746,-160 746,-160 716.11,-83.23 705.6,-56.25"/>
<polygon fill="darkcyan" stroke="darkcyan" points="702,-47 709.82,-54.69 703.81,-51.66 705.63,-56.32 705.63,-56.32 705.63,-56.32 703.81,-51.66 701.44,-57.95 702,-47 702,-47"/>
</g>
<!-- copy g&#45;&gt;prog -->
<g id="edge12" class="edge">
<title>copy g&#45;&gt;prog:w</title>
<path fill="none" stroke="blue" d="M55.52,-241.29C73.85,-198.1 120.37,-88.53 134.12,-56.15"/>
<polygon fill="blue" stroke="blue" points="138,-47 138.23,-57.96 136.05,-51.6 134.09,-56.2 134.09,-56.2 134.09,-56.2 136.05,-51.6 129.95,-54.45 138,-47 138,-47"/>
</g>
<!-- set g address&#45;&gt;prog -->
<g id="edge14" class="edge">
<title>set g address&#45;&gt;prog:w</title>
<path fill="none" stroke="#ff00ff" d="M55.37,-336.84C73.67,-381.18 120.72,-495.15 134.29,-528.01"/>
<polygon fill="#ff00ff" stroke="#ff00ff" points="138,-537 130.02,-529.47 136.09,-532.38 134.18,-527.76 134.18,-527.76 134.18,-527.76 136.09,-532.38 138.34,-526.04 138,-537 138,-537"/>
</g>
</g>
</svg>
