<?xml version="1.0" encoding="UTF-8" standalone="no"?>
<!DOCTYPE svg PUBLIC "-//W3C//DTD SVG 1.1//EN"
 "http://www.w3.org/Graphics/SVG/1.1/DTD/svg11.dtd">
<!-- Generated by graphviz version 12.2.0 (0)
 -->
<!-- Pages: 1 -->
<svg width="802pt" height="650pt"
 viewBox="0.00 0.00 802.00 649.75" xmlns="http://www.w3.org/2000/svg" xmlns:xlink="http://www.w3.org/1999/xlink">
<g id="graph0" class="graph" transform="scale(1 1) rotate(0) translate(4 645.75)">
<polygon fill="white" stroke="none" points="-4,4 -4,-645.75 798,-645.75 798,4 -4,4"/>
<!-- prog -->
<g id="node1" class="node">
<title>prog</title>
<text text-anchor="start" x="101" y="-625.25" font-family="mono" font-size="10.00">Disassembly of section .text:</text>
<text text-anchor="start" x="101" y="-608.5" font-family="mono" font-size="10.00">00000000000010f9 &lt;lib_g&gt;:</text>
<text text-anchor="start" x="101" y="-591.75" font-family="mono" font-size="10.00"> &#160;&#160;&#160;10f9: &#160;&#160;&#160;&#160;&#160;&#160;48 8d 05 20 2f 00 00 &#160;&#160;&#160;lea &#160;&#160;&#160;0x2f20(%rip),%rax &#160;&#160;&#160;&#160;&#160;&#160;&#160;# 4020 &lt;g&gt;</text>
<polygon fill="#ddffdd" stroke="none" points="99,-569.75 99,-586.5 643,-586.5 643,-569.75 99,-569.75"/>
<text text-anchor="start" x="101" y="-575" font-family="mono" font-size="10.00"> &#160;&#160;&#160;1100: &#160;&#160;&#160;&#160;&#160;&#160;8b 00 &#160;&#160;&#160;&#160;&#160;&#160;&#160;&#160;&#160;&#160;&#160;&#160;&#160;&#160;&#160;&#160;&#160;&#160;mov &#160;&#160;&#160;(%rax),%eax</text>
<text text-anchor="start" x="101" y="-558.25" font-family="mono" font-size="10.00"> &#160;&#160;&#160;1102: &#160;&#160;&#160;&#160;&#160;&#160;c3 &#160;&#160;&#160;&#160;&#160;&#160;&#160;&#160;&#160;&#160;&#160;&#160;&#160;&#160;&#160;&#160;&#160;&#160;&#160;&#160;&#160;ret</text>
<text text-anchor="start" x="101" y="-537.5" font-family="mono" font-size="10.00">Disassembly of section .data:</text>
<text text-anchor="start" x="101" y="-520.75" font-family="mono" font-size="10.00"> &#160;&#160;&#160;&#160;&#160;&#160;&#160;...</text>
<text text-anchor="start" x="101" y="-504" font-family="mono" font-size="10.00">0000000000004020 &lt;g&gt;:</text>
<polygon fill="#aaccaa" stroke="none" points="99,-482 99,-498.75 643,-498.75 643,-482 99,-482"/>
<text text-anchor="start" x="101" y="-487.25" font-family="mono" font-size="10.00"> &#160;&#160;&#160;4020: &#160;&#160;&#160;&#160;&#160;&#160;2a 00 &#160;&#160;&#160;&#160;&#160;&#160;&#160;&#160;&#160;&#160;&#160;&#160;&#160;&#160;&#160;&#160;&#160;&#160;&#160;&#160;&#160;&#160;&#160;&#160;&#160;&#160;&#160;&#160;&#160;&#160;&#160;&#160;&#160;&#160;&#160;&#160;&#160;&#160;&#160;&#160;&#160;&#160;&#160;&#160;&#160;&#160;&#160;&#160;&#160;&#160;# int g = 42;</text>
<text text-anchor="start" x="101" y="-470.5" font-family="mono" font-size="10.00"> &#160;&#160;&#160;&#160;&#160;&#160;&#160;...</text>
<text text-anchor="start" x="101" y="-449.75" font-family="mono" font-size="10.00">Disassembly of section .text:</text>
<text text-anchor="start" x="101" y="-433" font-family="mono" font-size="10.00"> &#160;&#160;&#160;&#160;&#160;&#160;&#160;...</text>
<text text-anchor="start" x="101" y="-416.25" font-family="mono" font-size="10.00">0000000000401136 &lt;main&gt;:</text>
<text text-anchor="start" x="101" y="-399.5" font-family="mono" font-size="10.00"> &#160;401136: &#160;&#160;&#160;&#160;&#160;&#160;48 83 ec 08 &#160;&#160;&#160;&#160;&#160;&#160;&#160;&#160;&#160;&#160;&#160;&#160;sub &#160;&#160;&#160;$0x8,%rsp</text>
<text text-anchor="start" x="101" y="-382.75" font-family="mono" font-size="10.00"> &#160;40113a: &#160;&#160;&#160;&#160;&#160;&#160;e8 f1 fe ff ff &#160;&#160;&#160;&#160;&#160;&#160;&#160;&#160;&#160;call &#160;&#160;401030 &lt;lib_g@plt&gt;</text>
<text text-anchor="start" x="101" y="-366" font-family="mono" font-size="10.00"> &#160;40113f: &#160;&#160;&#160;&#160;&#160;&#160;89 c2 &#160;&#160;&#160;&#160;&#160;&#160;&#160;&#160;&#160;&#160;&#160;&#160;&#160;&#160;&#160;&#160;&#160;&#160;mov &#160;&#160;&#160;%eax,%edx</text>
<polygon fill="#ddffdd" stroke="none" points="99,-344 99,-360.75 643,-360.75 643,-344 99,-344"/>
<text text-anchor="start" x="101" y="-349.25" font-family="mono" font-size="10.00"> &#160;401141: &#160;&#160;&#160;&#160;&#160;&#160;8b 35 f1 2e 00 00 &#160;&#160;&#160;&#160;&#160;&#160;mov &#160;&#160;&#160;0x2ef1(%rip),%esi &#160;&#160;&#160;&#160;&#160;&#160;&#160;# 404038 &lt;g@@Base&gt;</text>
<text text-anchor="start" x="101" y="-332.5" font-family="mono" font-size="10.00"> &#160;401147: &#160;&#160;&#160;&#160;&#160;&#160;bf 08 20 40 00 &#160;&#160;&#160;&#160;&#160;&#160;&#160;&#160;&#160;mov &#160;&#160;&#160;$0x402008,%edi</text>
<text text-anchor="start" x="101" y="-315.75" font-family="mono" font-size="10.00"> &#160;40114c: &#160;&#160;&#160;&#160;&#160;&#160;b8 00 00 00 00 &#160;&#160;&#160;&#160;&#160;&#160;&#160;&#160;&#160;mov &#160;&#160;&#160;$0x0,%eax</text>
<text text-anchor="start" x="101" y="-299" font-family="mono" font-size="10.00"> &#160;401151: &#160;&#160;&#160;&#160;&#160;&#160;e8 ea fe ff ff &#160;&#160;&#160;&#160;&#160;&#160;&#160;&#160;&#160;call &#160;&#160;401040 &lt;printf@plt&gt;</text>
<polygon fill="lightcyan" stroke="none" points="99,-277 99,-293.75 643,-293.75 643,-277 99,-277"/>
<text text-anchor="start" x="101" y="-282.25" font-family="mono" font-size="10.00"> &#160;401156: &#160;&#160;&#160;&#160;&#160;&#160;c7 05 d8 2e 00 00 4e &#160;&#160;&#160;movl &#160;&#160;$0xbc614e,0x2ed8(%rip) &#160;&#160;# 404038 &lt;g@@Base&gt;</text>
<text text-anchor="start" x="101" y="-265.5" font-family="mono" font-size="10.00"> &#160;40115d: &#160;&#160;&#160;&#160;&#160;&#160;61 bc 00</text>
<text text-anchor="start" x="101" y="-248.75" font-family="mono" font-size="10.00"> &#160;401160: &#160;&#160;&#160;&#160;&#160;&#160;e8 cb fe ff ff &#160;&#160;&#160;&#160;&#160;&#160;&#160;&#160;&#160;call &#160;&#160;401030 &lt;lib_g@plt&gt;</text>
<text text-anchor="start" x="101" y="-232" font-family="mono" font-size="10.00"> &#160;401165: &#160;&#160;&#160;&#160;&#160;&#160;89 c2 &#160;&#160;&#160;&#160;&#160;&#160;&#160;&#160;&#160;&#160;&#160;&#160;&#160;&#160;&#160;&#160;&#160;&#160;mov &#160;&#160;&#160;%eax,%edx</text>
<polygon fill="#ddffdd" stroke="none" points="99,-210 99,-226.75 643,-226.75 643,-210 99,-210"/>
<text text-anchor="start" x="101" y="-215.25" font-family="mono" font-size="10.00"> &#160;401167: &#160;&#160;&#160;&#160;&#160;&#160;8b 35 cb 2e 00 00 &#160;&#160;&#160;&#160;&#160;&#160;mov &#160;&#160;&#160;0x2ecb(%rip),%esi &#160;&#160;&#160;&#160;&#160;&#160;&#160;# 404038 &lt;g@@Base&gt;</text>
<text text-anchor="start" x="101" y="-198.5" font-family="mono" font-size="10.00"> &#160;40116d: &#160;&#160;&#160;&#160;&#160;&#160;bf 28 20 40 00 &#160;&#160;&#160;&#160;&#160;&#160;&#160;&#160;&#160;mov &#160;&#160;&#160;$0x402028,%edi</text>
<text text-anchor="start" x="101" y="-181.75" font-family="mono" font-size="10.00"> &#160;401172: &#160;&#160;&#160;&#160;&#160;&#160;b8 00 00 00 00 &#160;&#160;&#160;&#160;&#160;&#160;&#160;&#160;&#160;mov &#160;&#160;&#160;$0x0,%eax</text>
<text text-anchor="start" x="101" y="-165" font-family="mono" font-size="10.00"> &#160;401177: &#160;&#160;&#160;&#160;&#160;&#160;e8 c4 fe ff ff &#160;&#160;&#160;&#160;&#160;&#160;&#160;&#160;&#160;call &#160;&#160;401040 &lt;printf@plt&gt;</text>
<text text-anchor="start" x="101" y="-148.25" font-family="mono" font-size="10.00"> &#160;40117c: &#160;&#160;&#160;&#160;&#160;&#160;b8 00 00 00 00 &#160;&#160;&#160;&#160;&#160;&#160;&#160;&#160;&#160;mov &#160;&#160;&#160;$0x0,%eax</text>
<text text-anchor="start" x="101" y="-131.5" font-family="mono" font-size="10.00"> &#160;401181: &#160;&#160;&#160;&#160;&#160;&#160;48 83 c4 08 &#160;&#160;&#160;&#160;&#160;&#160;&#160;&#160;&#160;&#160;&#160;&#160;add &#160;&#160;&#160;$0x8,%rsp</text>
<text text-anchor="start" x="101" y="-114.75" font-family="mono" font-size="10.00"> &#160;401185: &#160;&#160;&#160;&#160;&#160;&#160;c3 &#160;&#160;&#160;&#160;&#160;&#160;&#160;&#160;&#160;&#160;&#160;&#160;&#160;&#160;&#160;&#160;&#160;&#160;&#160;&#160;&#160;ret</text>
<text text-anchor="start" x="101" y="-98" font-family="mono" font-size="10.00">...</text>
<text text-anchor="start" x="101" y="-81.25" font-family="mono" font-size="10.00">Disassembly of section .bss:</text>
<text text-anchor="start" x="101" y="-60.5" font-family="mono" font-size="10.00">0000000000404038 &lt;g&gt;:</text>
<polygon fill="#aaaacc" stroke="none" points="99,-38.5 99,-55.25 643,-55.25 643,-38.5 99,-38.5"/>
<text text-anchor="start" x="101" y="-43.75" font-family="mono" font-size="10.00"> &#160;404038: &#160;&#160;&#160;&#160;&#160;&#160;00 00 &#160;&#160;&#160;&#160;&#160;&#160;&#160;&#160;&#160;&#160;&#160;&#160;&#160;&#160;&#160;&#160;&#160;&#160;&#160;&#160;&#160;&#160;&#160;&#160;&#160;&#160;&#160;&#160;&#160;&#160;&#160;&#160;&#160;&#160;&#160;&#160;&#160;&#160;&#160;&#160;&#160;&#160;&#160;&#160;&#160;&#160;&#160;&#160;&#160;&#160;# extern int g;</text>
<polygon fill="#aaaacc" stroke="none" points="99,-21.75 99,-38.5 643,-38.5 643,-21.75 99,-21.75"/>
<text text-anchor="start" x="101" y="-27" font-family="mono" font-size="10.00"> &#160;&#160;&#160;&#160;&#160;&#160;&#160;&#160;&#160;&#160;&#160;&#160;&#160;&#160;&#160;&#160;&#160;&#160;&#160;&#160;&#160;&#160;&#160;404038: R_X86_64_COPY &#160;&#160;g@@Base</text>
<text text-anchor="start" x="101" y="-10.25" font-family="mono" font-size="10.00"> &#160;&#160;&#160;&#160;&#160;&#160;&#160;...</text>
<polygon fill="none" stroke="black" points="98,-4 98,-637.75 644,-637.75 644,-4 98,-4"/>
</g>
<!-- read g -->
<g id="node2" class="node">
<title>read g</title>
<text text-anchor="middle" x="741" y="-530.75" font-family="mono" font-size="10.00" fill="red">read g (STALE!)</text>
</g>
<!-- prog&#45;&gt;read g -->
<g id="edge1" class="edge">
<title>prog:e&#45;&gt;read g</title>
<path fill="none" stroke="red" d="M644,-490.38C644,-490.38 666.93,-500.77 690.38,-511.39"/>
<polygon fill="red" stroke="red" points="699.29,-515.43 688.32,-515.4 695.84,-513.87 690.18,-511.3 690.18,-511.3 690.18,-511.3 695.84,-513.87 692.04,-507.2 699.29,-515.43"/>
</g>
<!-- read g  -->
<g id="node3" class="node">
<title>read g </title>
<text text-anchor="middle" x="741" y="-320.75" font-family="mono" font-size="10.00" fill="green">read g </text>
</g>
<!-- prog&#45;&gt;read g  -->
<g id="edge3" class="edge">
<title>prog:e&#45;&gt;read g </title>
<path fill="none" stroke="green" d="M644,-46.88C644,-46.88 688,-241.88 688,-241.88 688,-241.88 707.64,-272.84 722.78,-296.72"/>
<polygon fill="green" stroke="green" points="728.06,-305.05 718.91,-299.02 726.04,-301.86 722.71,-296.61 722.71,-296.61 722.71,-296.61 726.04,-301.86 726.51,-294.2 728.06,-305.05"/>
</g>
<!-- read g &#160; -->
<g id="node4" class="node">
<title>read g &#160;</title>
<text text-anchor="middle" x="741" y="-129.75" font-family="mono" font-size="10.00" fill="green">read g &#160;</text>
</g>
<!-- prog&#45;&gt;read g &#160; -->
<g id="edge7" class="edge">
<title>prog:e&#45;&gt;read g &#160;</title>
<path fill="none" stroke="green" d="M644,-46.88C644,-46.88 683.75,-82.49 712.1,-107.88"/>
<polygon fill="green" stroke="green" points="719.2,-114.24 708.75,-110.92 716.38,-111.72 711.75,-107.57 711.75,-107.57 711.75,-107.57 716.38,-111.72 714.76,-104.22 719.2,-114.24"/>
</g>
<!-- write g -->
<g id="node5" class="node">
<title>write g</title>
<text text-anchor="middle" x="741" y="-211.75" font-family="mono" font-size="10.00" fill="darkcyan">write g</text>
</g>
<!-- prog&#45;&gt;write g -->
<g id="edge5" class="edge">
<title>prog:e&#45;&gt;write g</title>
<path fill="none" stroke="darkcyan" d="M644,-285.38C644,-285.38 679.08,-259.61 706.83,-239.24"/>
<polygon fill="darkcyan" stroke="darkcyan" points="714.54,-233.57 709.15,-243.11 711.5,-235.81 706.48,-239.49 706.48,-239.49 706.48,-239.49 711.5,-235.81 703.82,-235.86 714.54,-233.57"/>
</g>
<!-- copy g -->
<g id="node6" class="node">
<title>copy g</title>
<text text-anchor="middle" x="27" y="-265.75" font-family="mono" font-size="10.00" fill="blue">copy g</text>
</g>
<!-- prog&#45;&gt;copy g -->
<g id="edge9" class="edge">
<title>prog:w&#45;&gt;copy g</title>
<path fill="none" stroke="blue" d="M98,-490.38C98,-490.38 55.83,-356.94 36.95,-297.2"/>
<polygon fill="blue" stroke="blue" points="33.98,-287.79 41.28,-295.97 35.12,-291.39 36.99,-297.32 36.99,-297.32 36.99,-297.32 35.12,-291.39 32.7,-298.68 33.98,-287.79"/>
</g>
<!-- read g&#45;&gt;prog -->
<g id="edge2" class="edge">
<title>read g&#45;&gt;prog:e</title>
<path fill="none" stroke="red" d="M700.95,-551.87C683.93,-559.72 665.34,-568.29 654.18,-573.43"/>
<polygon fill="red" stroke="red" points="645.11,-577.61 652.3,-569.34 648.54,-576.03 654.19,-573.43 654.19,-573.43 654.19,-573.43 648.54,-576.03 656.07,-577.52 645.11,-577.61"/>
</g>
<!-- read g &#45;&gt;prog -->
<g id="edge4" class="edge">
<title>read g &#45;&gt;prog:e</title>
<path fill="none" stroke="green" d="M712.23,-332.12C692.96,-337.84 668.37,-345.14 654.59,-349.23"/>
<polygon fill="green" stroke="green" points="645.17,-352.03 653.47,-344.87 648.79,-350.95 654.75,-349.18 654.75,-349.18 654.75,-349.18 648.79,-350.95 656.04,-353.5 645.17,-352.03"/>
</g>
<!-- read g &#160;&#45;&gt;prog -->
<g id="edge8" class="edge">
<title>read g &#160;&#45;&gt;prog:e</title>
<path fill="none" stroke="green" d="M720.11,-150.59C699.02,-169.37 666.75,-198.11 651.94,-211.31"/>
<polygon fill="green" stroke="green" points="644.91,-217.56 649.38,-207.55 647.73,-215.05 652.38,-210.91 652.38,-210.91 652.38,-210.91 647.73,-215.05 655.37,-214.27 644.91,-217.56"/>
</g>
<!-- write g&#45;&gt;prog -->
<g id="edge6" class="edge">
<title>write g&#45;&gt;prog:e</title>
<path fill="none" stroke="darkcyan" d="M723.26,-197.17C708.06,-181.09 688,-159.88 688,-159.88 688,-159.88 658.95,-85.28 648.06,-57.3"/>
<polygon fill="darkcyan" stroke="darkcyan" points="644.44,-48.01 652.26,-55.7 645.81,-51.53 648.07,-57.33 648.07,-57.33 648.07,-57.33 645.81,-51.53 643.88,-58.96 644.44,-48.01"/>
</g>
<!-- copy g&#45;&gt;prog -->
<g id="edge10" class="edge">
<title>copy g&#45;&gt;prog:w</title>
<path fill="none" stroke="blue" d="M33.61,-251.08C47.56,-206.84 83.5,-92.88 94.65,-57.51"/>
<polygon fill="blue" stroke="blue" points="97.63,-48.04 98.92,-58.93 96.5,-51.64 94.63,-57.57 94.63,-57.57 94.63,-57.57 96.5,-51.64 90.33,-56.22 97.63,-48.04"/>
</g>
</g>
</svg>
