<?xml version="1.0" encoding="UTF-8" standalone="no"?>
<!DOCTYPE svg PUBLIC "-//W3C//DTD SVG 1.1//EN"
 "http://www.w3.org/Graphics/SVG/1.1/DTD/svg11.dtd">
<!-- Generated by graphviz version 8.1.0 (0)
 -->
<!-- Pages: 1 -->
<svg width="734pt" height="512pt"
 viewBox="0.00 0.00 734.00 511.75" xmlns="http://www.w3.org/2000/svg" xmlns:xlink="http://www.w3.org/1999/xlink">
<g id="graph0" class="graph" transform="scale(1 1) rotate(0) translate(4 507.75)">
<polygon fill="white" stroke="none" points="-4,4 -4,-507.75 730,-507.75 730,4 -4,4"/>
<!-- prog -->
<g id="node1" class="node">
<title>prog</title>
<text text-anchor="start" x="105" y="-487.25" font-family="mono" font-size="10.00">Disassembly of section .text:</text>
<text text-anchor="start" x="105" y="-470.5" font-family="mono" font-size="10.00"> &#160;&#160;&#160;&#160;&#160;&#160;&#160;...</text>
<text text-anchor="start" x="105" y="-453.75" font-family="mono" font-size="10.00">0000000000401126 &lt;lib_g&gt;:</text>
<polygon fill="#ddffdd" stroke="none" points="103,-431.75 103,-448.5 617,-448.5 617,-431.75 103,-431.75"/>
<text text-anchor="start" x="105" y="-437" font-family="mono" font-size="10.00"> &#160;401126: &#160;&#160;&#160;&#160;&#160;&#160;8b 05 04 2f 00 00 &#160;&#160;&#160;&#160;&#160;&#160;mov &#160;&#160;&#160;0x2f04(%rip),%eax &#160;&#160;&#160;&#160;&#160;&#160;&#160;# 404030 &lt;g&gt;</text>
<text text-anchor="start" x="105" y="-420.25" font-family="mono" font-size="10.00"> &#160;40112c: &#160;&#160;&#160;&#160;&#160;&#160;c3 &#160;&#160;&#160;&#160;&#160;&#160;&#160;&#160;&#160;&#160;&#160;&#160;&#160;&#160;&#160;&#160;&#160;&#160;&#160;&#160;&#160;ret</text>
<text text-anchor="start" x="105" y="-399.5" font-family="mono" font-size="10.00">000000000040112d &lt;main&gt;:</text>
<text text-anchor="start" x="105" y="-382.75" font-family="mono" font-size="10.00"> &#160;40112d: &#160;&#160;&#160;&#160;&#160;&#160;48 83 ec 08 &#160;&#160;&#160;&#160;&#160;&#160;&#160;&#160;&#160;&#160;&#160;&#160;sub &#160;&#160;&#160;$0x8,%rsp</text>
<text text-anchor="start" x="105" y="-366" font-family="mono" font-size="10.00"> &#160;401131: &#160;&#160;&#160;&#160;&#160;&#160;e8 f0 ff ff ff &#160;&#160;&#160;&#160;&#160;&#160;&#160;&#160;&#160;call &#160;&#160;401126 &lt;lib_g&gt;</text>
<text text-anchor="start" x="105" y="-349.25" font-family="mono" font-size="10.00"> &#160;401136: &#160;&#160;&#160;&#160;&#160;&#160;89 c2 &#160;&#160;&#160;&#160;&#160;&#160;&#160;&#160;&#160;&#160;&#160;&#160;&#160;&#160;&#160;&#160;&#160;&#160;mov &#160;&#160;&#160;%eax,%edx</text>
<polygon fill="#ddffdd" stroke="none" points="103,-327.25 103,-344 617,-344 617,-327.25 103,-327.25"/>
<text text-anchor="start" x="105" y="-332.5" font-family="mono" font-size="10.00"> &#160;401138: &#160;&#160;&#160;&#160;&#160;&#160;8b 35 f2 2e 00 00 &#160;&#160;&#160;&#160;&#160;&#160;mov &#160;&#160;&#160;0x2ef2(%rip),%esi &#160;&#160;&#160;&#160;&#160;&#160;&#160;# 404030 &lt;g&gt;</text>
<text text-anchor="start" x="105" y="-315.75" font-family="mono" font-size="10.00"> &#160;40113e: &#160;&#160;&#160;&#160;&#160;&#160;bf 08 20 40 00 &#160;&#160;&#160;&#160;&#160;&#160;&#160;&#160;&#160;mov &#160;&#160;&#160;$0x402008,%edi</text>
<text text-anchor="start" x="105" y="-299" font-family="mono" font-size="10.00"> &#160;401143: &#160;&#160;&#160;&#160;&#160;&#160;b8 00 00 00 00 &#160;&#160;&#160;&#160;&#160;&#160;&#160;&#160;&#160;mov &#160;&#160;&#160;$0x0,%eax</text>
<text text-anchor="start" x="105" y="-282.25" font-family="mono" font-size="10.00"> &#160;401148: &#160;&#160;&#160;&#160;&#160;&#160;e8 e3 fe ff ff &#160;&#160;&#160;&#160;&#160;&#160;&#160;&#160;&#160;call &#160;&#160;401030 &lt;printf@plt&gt;</text>
<polygon fill="lightcyan" stroke="none" points="103,-260.25 103,-277 617,-277 617,-260.25 103,-260.25"/>
<text text-anchor="start" x="105" y="-265.5" font-family="mono" font-size="10.00"> &#160;40114d: &#160;&#160;&#160;&#160;&#160;&#160;c7 05 d9 2e 00 00 4e &#160;&#160;&#160;movl &#160;&#160;$0xbc614e,0x2ed9(%rip) &#160;&#160;# 404030 &lt;g&gt;</text>
<text text-anchor="start" x="105" y="-248.75" font-family="mono" font-size="10.00"> &#160;401154: &#160;&#160;&#160;&#160;&#160;&#160;61 bc 00</text>
<text text-anchor="start" x="105" y="-232" font-family="mono" font-size="10.00"> &#160;401157: &#160;&#160;&#160;&#160;&#160;&#160;e8 ca ff ff ff &#160;&#160;&#160;&#160;&#160;&#160;&#160;&#160;&#160;call &#160;&#160;401126 &lt;lib_g&gt;</text>
<text text-anchor="start" x="105" y="-215.25" font-family="mono" font-size="10.00"> &#160;40115c: &#160;&#160;&#160;&#160;&#160;&#160;89 c2 &#160;&#160;&#160;&#160;&#160;&#160;&#160;&#160;&#160;&#160;&#160;&#160;&#160;&#160;&#160;&#160;&#160;&#160;mov &#160;&#160;&#160;%eax,%edx</text>
<polygon fill="#ddffdd" stroke="none" points="103,-193.25 103,-210 617,-210 617,-193.25 103,-193.25"/>
<text text-anchor="start" x="105" y="-198.5" font-family="mono" font-size="10.00"> &#160;40115e: &#160;&#160;&#160;&#160;&#160;&#160;8b 35 cc 2e 00 00 &#160;&#160;&#160;&#160;&#160;&#160;mov &#160;&#160;&#160;0x2ecc(%rip),%esi &#160;&#160;&#160;&#160;&#160;&#160;&#160;# 404030 &lt;g&gt;</text>
<text text-anchor="start" x="105" y="-181.75" font-family="mono" font-size="10.00"> &#160;401164: &#160;&#160;&#160;&#160;&#160;&#160;bf 28 20 40 00 &#160;&#160;&#160;&#160;&#160;&#160;&#160;&#160;&#160;mov &#160;&#160;&#160;$0x402028,%edi</text>
<text text-anchor="start" x="105" y="-165" font-family="mono" font-size="10.00"> &#160;401169: &#160;&#160;&#160;&#160;&#160;&#160;b8 00 00 00 00 &#160;&#160;&#160;&#160;&#160;&#160;&#160;&#160;&#160;mov &#160;&#160;&#160;$0x0,%eax</text>
<text text-anchor="start" x="105" y="-148.25" font-family="mono" font-size="10.00"> &#160;40116e: &#160;&#160;&#160;&#160;&#160;&#160;e8 bd fe ff ff &#160;&#160;&#160;&#160;&#160;&#160;&#160;&#160;&#160;call &#160;&#160;401030 &lt;printf@plt&gt;</text>
<text text-anchor="start" x="105" y="-131.5" font-family="mono" font-size="10.00"> &#160;401173: &#160;&#160;&#160;&#160;&#160;&#160;b8 00 00 00 00 &#160;&#160;&#160;&#160;&#160;&#160;&#160;&#160;&#160;mov &#160;&#160;&#160;$0x0,%eax</text>
<text text-anchor="start" x="105" y="-114.75" font-family="mono" font-size="10.00"> &#160;401178: &#160;&#160;&#160;&#160;&#160;&#160;48 83 c4 08 &#160;&#160;&#160;&#160;&#160;&#160;&#160;&#160;&#160;&#160;&#160;&#160;add &#160;&#160;&#160;$0x8,%rsp</text>
<text text-anchor="start" x="105" y="-98" font-family="mono" font-size="10.00"> &#160;40117c: &#160;&#160;&#160;&#160;&#160;&#160;c3 &#160;&#160;&#160;&#160;&#160;&#160;&#160;&#160;&#160;&#160;&#160;&#160;&#160;&#160;&#160;&#160;&#160;&#160;&#160;&#160;&#160;ret</text>
<text text-anchor="start" x="105" y="-77.25" font-family="mono" font-size="10.00">Disassembly of section .data:</text>
<text text-anchor="start" x="105" y="-60.5" font-family="mono" font-size="10.00"> &#160;&#160;&#160;&#160;&#160;&#160;&#160;...</text>
<text text-anchor="start" x="105" y="-43.75" font-family="mono" font-size="10.00">0000000000404030 &lt;g&gt;:</text>
<polygon fill="#aaccaa" stroke="none" points="103,-21.75 103,-38.5 617,-38.5 617,-21.75 103,-21.75"/>
<text text-anchor="start" x="105" y="-27" font-family="mono" font-size="10.00"> &#160;404030: &#160;&#160;&#160;&#160;&#160;&#160;2a 00 &#160;&#160;&#160;&#160;&#160;&#160;&#160;&#160;&#160;&#160;&#160;&#160;&#160;&#160;&#160;&#160;&#160;&#160;&#160;&#160;&#160;&#160;&#160;&#160;&#160;&#160;&#160;&#160;&#160;&#160;&#160;&#160;&#160;&#160;&#160;&#160;&#160;&#160;&#160;&#160;&#160;&#160;&#160;&#160;&#160;&#160;&#160;&#160;&#160;&#160;# int g = 42;</text>
<text text-anchor="start" x="105" y="-10.25" font-family="mono" font-size="10.00"> &#160;&#160;&#160;&#160;&#160;&#160;&#160;...</text>
<polygon fill="none" stroke="black" points="102,-4 102,-499.75 618,-499.75 618,-4 102,-4"/>
</g>
<!-- read g -->
<g id="node2" class="node">
<title>read g</title>
<text text-anchor="middle" x="694" y="-328.75" font-family="mono" font-size="10.00" fill="green">read g</text>
</g>
<!-- prog&#45;&gt;read g -->
<g id="edge1" class="edge">
<title>prog:e&#45;&gt;read g</title>
<path fill="none" stroke="green" d="M618,-29.88C618,-29.88 662,-279.88 662,-279.88 662,-279.88 669.65,-292.7 677.35,-305.62"/>
<polygon fill="green" stroke="green" points="682.33,-313.98 673.35,-307.69 679.77,-309.68 677.21,-305.39 677.21,-305.39 677.21,-305.39 679.77,-309.68 681.08,-303.09 682.33,-313.98 682.33,-313.98"/>
</g>
<!-- read g  -->
<g id="node3" class="node">
<title>read g </title>
<text text-anchor="middle" x="694" y="-249.75" font-family="mono" font-size="10.00" fill="green">read g </text>
</g>
<!-- prog&#45;&gt;read g  -->
<g id="edge3" class="edge">
<title>prog:e&#45;&gt;read g </title>
<path fill="none" stroke="green" d="M618,-29.88C618,-29.88 663.94,-166.46 683.91,-225.84"/>
<polygon fill="green" stroke="green" points="686.99,-235 679.54,-226.96 685.4,-230.26 683.8,-225.52 683.8,-225.52 683.8,-225.52 685.4,-230.26 688.07,-224.09 686.99,-235 686.99,-235"/>
</g>
<!-- read g &#160; -->
<g id="node4" class="node">
<title>read g &#160;</title>
<text text-anchor="middle" x="694" y="-112.75" font-family="mono" font-size="10.00" fill="green">read g &#160;</text>
</g>
<!-- prog&#45;&gt;read g &#160; -->
<g id="edge7" class="edge">
<title>prog:e&#45;&gt;read g &#160;</title>
<path fill="none" stroke="green" d="M618,-29.88C618,-29.88 648.79,-65.18 670.92,-90.55"/>
<polygon fill="green" stroke="green" points="677.46,-98.06 667.5,-93.48 674.17,-94.29 670.89,-90.52 670.89,-90.52 670.89,-90.52 674.17,-94.29 674.28,-87.56 677.46,-98.06 677.46,-98.06"/>
</g>
<!-- write g -->
<g id="node5" class="node">
<title>write g</title>
<text text-anchor="middle" x="29" y="-146.75" font-family="mono" font-size="10.00" fill="darkcyan">write g</text>
</g>
<!-- prog&#45;&gt;write g -->
<g id="edge5" class="edge">
<title>prog:w&#45;&gt;write g</title>
<path fill="none" stroke="darkcyan" d="M102,-268.88C102,-268.88 67.04,-211.1 45.84,-176.06"/>
<polygon fill="darkcyan" stroke="darkcyan" points="40.78,-167.69 49.81,-173.92 43.37,-171.97 45.96,-176.25 45.96,-176.25 45.96,-176.25 43.37,-171.97 42.11,-178.58 40.78,-167.69 40.78,-167.69"/>
</g>
<!-- read g&#45;&gt;prog -->
<g id="edge2" class="edge">
<title>read g&#45;&gt;prog:e</title>
<path fill="none" stroke="green" d="M680.62,-349.71C664.14,-373.43 635.69,-414.4 623.65,-431.74"/>
<polygon fill="green" stroke="green" points="618,-439.88 620.01,-429.09 620.85,-435.77 623.7,-431.66 623.7,-431.66 623.7,-431.66 620.85,-435.77 627.4,-434.23 618,-439.88 618,-439.88"/>
</g>
<!-- read g &#45;&gt;prog -->
<g id="edge4" class="edge">
<title>read g &#45;&gt;prog:e</title>
<path fill="none" stroke="green" d="M677.09,-270.48C660.75,-288.56 636.12,-315.82 624.5,-328.68"/>
<polygon fill="green" stroke="green" points="618,-335.88 621.37,-325.44 621.35,-332.17 624.7,-328.46 624.7,-328.46 624.7,-328.46 621.35,-332.17 628.04,-331.47 618,-335.88 618,-335.88"/>
</g>
<!-- read g &#160;&#45;&gt;prog -->
<g id="edge8" class="edge">
<title>read g &#160;&#45;&gt;prog:e</title>
<path fill="none" stroke="green" d="M677.46,-133.69C661.16,-152.39 636.3,-180.89 624.57,-194.34"/>
<polygon fill="green" stroke="green" points="618,-201.88 621.18,-191.38 621.29,-198.11 624.57,-194.34 624.57,-194.34 624.57,-194.34 621.29,-198.11 627.96,-197.3 618,-201.88 618,-201.88"/>
</g>
<!-- write g&#45;&gt;prog -->
<g id="edge6" class="edge">
<title>write g&#45;&gt;prog:w</title>
<path fill="none" stroke="darkcyan" d="M40.78,-131.91C56.55,-105.63 85.3,-57.71 96.92,-38.34"/>
<polygon fill="darkcyan" stroke="darkcyan" points="102,-29.88 100.71,-40.77 99.43,-34.16 96.85,-38.45 96.85,-38.45 96.85,-38.45 99.43,-34.16 93,-36.13 102,-29.88 102,-29.88"/>
</g>
</g>
</svg>
