<?xml version="1.0" encoding="UTF-8" standalone="no"?>
<!DOCTYPE svg PUBLIC "-//W3C//DTD SVG 1.1//EN"
 "http://www.w3.org/Graphics/SVG/1.1/DTD/svg11.dtd">
<!-- Generated by graphviz version 7.1.0 (0)
 -->
<!-- Pages: 1 -->
<svg width="575pt" height="168pt"
 viewBox="0.00 0.00 575.00 168.00" xmlns="http://www.w3.org/2000/svg" xmlns:xlink="http://www.w3.org/1999/xlink">
<g id="graph0" class="graph" transform="scale(1 1) rotate(0) translate(4 164)">
<polygon fill="white" stroke="none" points="-4,4 -4,-164 571,-164 571,4 -4,4"/>
<!-- prog -->
<g id="node1" class="node">
<title>prog</title>
<text text-anchor="start" x="106.5" y="-145" font-family="mono" font-size="10.00">/* lib.c */</text>
<polygon fill="#aaccaa" stroke="none" points="104.5,-125 104.5,-140 457.5,-140 457.5,-125 104.5,-125"/>
<text text-anchor="start" x="106.5" y="-130" font-family="mono" font-size="10.00">int g = 42;</text>
<text text-anchor="start" x="106.5" y="-115" font-family="mono" font-size="10.00"> </text>
<polygon fill="#ddffdd" stroke="none" points="104.5,-95 104.5,-110 457.5,-110 457.5,-95 104.5,-95"/>
<text text-anchor="start" x="106.5" y="-100" font-family="mono" font-size="10.00">int lib_g(void) { return g; }</text>
<text text-anchor="start" x="106.5" y="-85" font-family="mono" font-size="10.00">/* prog.c */</text>
<text text-anchor="start" x="106.5" y="-70" font-family="mono" font-size="10.00">int main() {</text>
<polygon fill="#ddffdd" stroke="none" points="104.5,-50 104.5,-65 457.5,-65 457.5,-50 104.5,-50"/>
<text text-anchor="start" x="106.5" y="-55" font-family="mono" font-size="10.00"> &#160;&#160;&#160;printf(&quot;before: main.g=%i; lib_g()=%i\n&quot;, g, lib_g());</text>
<polygon fill="lightcyan" stroke="none" points="104.5,-35 104.5,-50 457.5,-50 457.5,-35 104.5,-35"/>
<text text-anchor="start" x="106.5" y="-40" font-family="mono" font-size="10.00"> &#160;&#160;&#160;g = 12345678;</text>
<polygon fill="#ddffdd" stroke="none" points="104.5,-20 104.5,-35 457.5,-35 457.5,-20 104.5,-20"/>
<text text-anchor="start" x="106.5" y="-25" font-family="mono" font-size="10.00"> &#160;&#160;&#160;printf(&quot;before: main.g=%i; lib_g()=%i\n&quot;, g, lib_g());</text>
<text text-anchor="start" x="106.5" y="-10" font-family="mono" font-size="10.00">}</text>
<polygon fill="black" stroke="black" points="103.5,-95 103.5,-95 458.5,-95 458.5,-95 103.5,-95"/>
<polygon fill="none" stroke="black" points="103,-4 103,-156 458,-156 458,-4 103,-4"/>
</g>
<!-- read g -->
<g id="node2" class="node">
<title>read g</title>
<text text-anchor="middle" x="534.5" y="-131.5" font-family="mono" font-size="10.00" fill="green">read g</text>
</g>
<!-- prog&#45;&gt;read g -->
<g id="edge1" class="edge">
<title>prog:e&#45;&gt;read g</title>
<path fill="none" stroke="green" d="M458.5,-133C458.5,-133 478.44,-133.27 497.75,-133.52"/>
<polygon fill="green" stroke="green" points="507.69,-133.66 497.63,-138.02 502.69,-133.59 497.69,-133.52 497.69,-133.52 497.69,-133.52 502.69,-133.59 497.75,-129.02 507.69,-133.66 507.69,-133.66"/>
</g>
<!-- read g  -->
<g id="node3" class="node">
<title>read g </title>
<text text-anchor="middle" x="534.5" y="-77.5" font-family="mono" font-size="10.00" fill="green">read g </text>
</g>
<!-- prog&#45;&gt;read g  -->
<g id="edge3" class="edge">
<title>prog:e&#45;&gt;read g </title>
<path fill="none" stroke="green" d="M458.5,-133C458.5,-133 480.01,-117.8 500,-103.68"/>
<polygon fill="green" stroke="green" points="508.11,-97.94 502.54,-107.39 504.03,-100.83 499.94,-103.71 499.94,-103.71 499.94,-103.71 504.03,-100.83 497.34,-100.04 508.11,-97.94 508.11,-97.94"/>
</g>
<!-- read g &#160; -->
<g id="node4" class="node">
<title>read g &#160;</title>
<text text-anchor="middle" x="534.5" y="-23.5" font-family="mono" font-size="10.00" fill="green">read g &#160;</text>
</g>
<!-- prog&#45;&gt;read g &#160; -->
<g id="edge7" class="edge">
<title>prog:e&#45;&gt;read g &#160;</title>
<path fill="none" stroke="green" d="M458.5,-133C458.5,-133 502,-53 502,-53 502,-53 503.2,-51.97 505.14,-50.31"/>
<polygon fill="green" stroke="green" points="512.66,-43.86 508,-53.78 508.87,-47.11 505.07,-50.37 505.07,-50.37 505.07,-50.37 508.87,-47.11 502.14,-46.95 512.66,-43.86 512.66,-43.86"/>
</g>
<!-- write g -->
<g id="node5" class="node">
<title>write g</title>
<text text-anchor="middle" x="29.5" y="-84.5" font-family="mono" font-size="10.00" fill="darkcyan">write g</text>
</g>
<!-- prog&#45;&gt;write g -->
<g id="edge5" class="edge">
<title>prog:w&#45;&gt;write g</title>
<path fill="none" stroke="darkcyan" d="M103.5,-42C103.5,-42 85.4,-53.16 67.22,-64.36"/>
<polygon fill="darkcyan" stroke="darkcyan" points="58.93,-69.47 65.08,-60.39 63.19,-66.85 67.45,-64.23 67.45,-64.23 67.45,-64.23 63.19,-66.85 69.81,-68.06 58.93,-69.47 58.93,-69.47"/>
</g>
<!-- read g&#45;&gt;prog -->
<g id="edge2" class="edge">
<title>read g&#45;&gt;prog:e</title>
<path fill="none" stroke="green" d="M507.69,-123.33C493.79,-117.59 477.51,-110.86 467.61,-106.76"/>
<polygon fill="green" stroke="green" points="458.5,-103 469.46,-102.66 463.12,-104.91 467.74,-106.82 467.74,-106.82 467.74,-106.82 463.12,-104.91 466.02,-110.98 458.5,-103 458.5,-103"/>
</g>
<!-- read g &#45;&gt;prog -->
<g id="edge4" class="edge">
<title>read g &#45;&gt;prog:e</title>
<path fill="none" stroke="green" d="M505.15,-71.3C492.04,-67.28 477.34,-62.78 468.01,-59.92"/>
<polygon fill="green" stroke="green" points="458.5,-57 469.38,-55.63 463.28,-58.47 468.06,-59.93 468.06,-59.93 468.06,-59.93 463.28,-58.47 466.74,-64.23 458.5,-57 458.5,-57"/>
</g>
<!-- read g &#160;&#45;&gt;prog -->
<g id="edge8" class="edge">
<title>read g &#160;&#45;&gt;prog:e</title>
<path fill="none" stroke="green" d="M502.13,-26.42C489.93,-26.58 476.83,-26.76 468.21,-26.87"/>
<polygon fill="green" stroke="green" points="458.5,-27 468.44,-22.37 463.5,-26.93 468.5,-26.87 468.5,-26.87 468.5,-26.87 463.5,-26.93 468.56,-31.37 458.5,-27 458.5,-27"/>
</g>
<!-- write g&#45;&gt;prog -->
<g id="edge6" class="edge">
<title>write g&#45;&gt;prog:w</title>
<path fill="none" stroke="darkcyan" d="M58.93,-104.92C71.9,-113.09 86.31,-122.16 95.13,-127.73"/>
<polygon fill="darkcyan" stroke="darkcyan" points="103.5,-133 92.64,-131.48 99.27,-130.33 95.04,-127.67 95.04,-127.67 95.04,-127.67 99.27,-130.33 97.44,-123.86 103.5,-133 103.5,-133"/>
</g>
</g>
</svg>
