<?xml version="1.0" encoding="UTF-8" standalone="no"?>
<!DOCTYPE svg PUBLIC "-//W3C//DTD SVG 1.1//EN"
 "http://www.w3.org/Graphics/SVG/1.1/DTD/svg11.dtd">
<!-- Generated by graphviz version 5.0.0 (0)
 -->
<!-- Pages: 1 -->
<svg width="857pt" height="630pt"
 viewBox="0.00 0.00 857.00 630.00" xmlns="http://www.w3.org/2000/svg" xmlns:xlink="http://www.w3.org/1999/xlink">
<g id="graph0" class="graph" transform="scale(1 1) rotate(0) translate(4 626)">
<polygon fill="white" stroke="transparent" points="-4,4 -4,-626 853,-626 853,4 -4,4"/>
<!-- prog -->
<g id="node1" class="node">
<title>prog</title>
<text text-anchor="start" x="142.5" y="-607" font-family="mono" font-size="10.00">Disassembly of section .text:</text>
<text text-anchor="start" x="142.5" y="-592" font-family="mono" font-size="10.00">00000000000010f9 &lt;lib_g&gt;:</text>
<polygon fill="#ffeeff" stroke="transparent" points="140.5,-572 140.5,-587 703.5,-587 703.5,-572 140.5,-572"/>
<text text-anchor="start" x="142.5" y="-577" font-family="mono" font-size="10.00"> &#160;&#160;&#160;10f9: &#160;&#160;&#160;&#160;&#160;&#160;48 8b 05 e8 2e 00 00 &#160;&#160;&#160;mov &#160;&#160;&#160;0x2ee8(%rip),%rax &#160;&#160;&#160;&#160;&#160;&#160;&#160;# 3fe8 &lt;g@@Base&#45;0x38&gt;</text>
<polygon fill="#ddffdd" stroke="transparent" points="140.5,-557 140.5,-572 703.5,-572 703.5,-557 140.5,-557"/>
<text text-anchor="start" x="142.5" y="-562" font-family="mono" font-size="10.00"> &#160;&#160;&#160;1100: &#160;&#160;&#160;&#160;&#160;&#160;8b 00 &#160;&#160;&#160;&#160;&#160;&#160;&#160;&#160;&#160;&#160;&#160;&#160;&#160;&#160;&#160;&#160;&#160;&#160;mov &#160;&#160;&#160;(%rax),%eax</text>
<text text-anchor="start" x="142.5" y="-547" font-family="mono" font-size="10.00"> &#160;&#160;&#160;1102: &#160;&#160;&#160;&#160;&#160;&#160;c3 &#160;&#160;&#160;&#160;&#160;&#160;&#160;&#160;&#160;&#160;&#160;&#160;&#160;&#160;&#160;&#160;&#160;&#160;&#160;&#160;&#160;ret</text>
<text text-anchor="start" x="142.5" y="-528" font-family="mono" font-size="10.00">Disassembly of section .got:</text>
<text text-anchor="start" x="142.5" y="-509" font-family="mono" font-size="10.00">0000000000003fd8 &lt;.got&gt;:</text>
<text text-anchor="start" x="142.5" y="-494" font-family="mono" font-size="10.00"> &#160;&#160;&#160;&#160;&#160;&#160;&#160;...</text>
<polygon fill="#ffddff" stroke="transparent" points="140.5,-474 140.5,-489 703.5,-489 703.5,-474 140.5,-474"/>
<text text-anchor="start" x="142.5" y="-479" font-family="mono" font-size="10.00"> &#160;&#160;&#160;&#160;&#160;&#160;&#160;&#160;&#160;&#160;&#160;&#160;&#160;&#160;&#160;&#160;&#160;&#160;&#160;&#160;&#160;&#160;&#160;3fe8: R_X86_64_GLOB_DAT g@@Base</text>
<text text-anchor="start" x="142.5" y="-464" font-family="mono" font-size="10.00">Disassembly of section .data:</text>
<text text-anchor="start" x="142.5" y="-449" font-family="mono" font-size="10.00"> &#160;&#160;&#160;&#160;&#160;&#160;&#160;...</text>
<text text-anchor="start" x="142.5" y="-434" font-family="mono" font-size="10.00">0000000000004020 &lt;g&gt;:</text>
<polygon fill="#aaccaa" stroke="transparent" points="140.5,-414 140.5,-429 703.5,-429 703.5,-414 140.5,-414"/>
<text text-anchor="start" x="142.5" y="-419" font-family="mono" font-size="10.00"> &#160;&#160;&#160;4020: &#160;&#160;&#160;&#160;&#160;&#160;2a 00 &#160;&#160;&#160;&#160;&#160;&#160;&#160;&#160;&#160;&#160;&#160;&#160;&#160;&#160;&#160;&#160;&#160;&#160;&#160;&#160;&#160;&#160;&#160;&#160;&#160;&#160;&#160;&#160;&#160;&#160;&#160;&#160;&#160;&#160;&#160;&#160;&#160;&#160;&#160;&#160;&#160;&#160;&#160;&#160;&#160;&#160;&#160;&#160;&#160;&#160;# int g = 42; </text>
<text text-anchor="start" x="142.5" y="-404" font-family="mono" font-size="10.00"> &#160;&#160;&#160;&#160;&#160;&#160;&#160;...</text>
<text text-anchor="start" x="142.5" y="-389" font-family="mono" font-size="10.00">Disassembly of section .text:</text>
<text text-anchor="start" x="142.5" y="-374" font-family="mono" font-size="10.00">0000000000401136 &lt;main&gt;:</text>
<text text-anchor="start" x="142.5" y="-359" font-family="mono" font-size="10.00"> &#160;401136: &#160;&#160;&#160;&#160;&#160;&#160;48 83 ec 08 &#160;&#160;&#160;&#160;&#160;&#160;&#160;&#160;&#160;&#160;&#160;&#160;sub &#160;&#160;&#160;$0x8,%rsp</text>
<text text-anchor="start" x="142.5" y="-344" font-family="mono" font-size="10.00"> &#160;40113a: &#160;&#160;&#160;&#160;&#160;&#160;e8 f1 fe ff ff &#160;&#160;&#160;&#160;&#160;&#160;&#160;&#160;&#160;call &#160;&#160;401030 &lt;lib_g@plt&gt;</text>
<text text-anchor="start" x="142.5" y="-329" font-family="mono" font-size="10.00"> &#160;40113f: &#160;&#160;&#160;&#160;&#160;&#160;89 c2 &#160;&#160;&#160;&#160;&#160;&#160;&#160;&#160;&#160;&#160;&#160;&#160;&#160;&#160;&#160;&#160;&#160;&#160;mov &#160;&#160;&#160;%eax,%edx</text>
<polygon fill="#ddffdd" stroke="transparent" points="140.5,-309 140.5,-324 703.5,-324 703.5,-309 140.5,-309"/>
<text text-anchor="start" x="142.5" y="-314" font-family="mono" font-size="10.00"> &#160;401141: &#160;&#160;&#160;&#160;&#160;&#160;8b 35 f1 2e 00 00 &#160;&#160;&#160;&#160;&#160;&#160;mov &#160;&#160;&#160;0x2ef1(%rip),%esi &#160;&#160;&#160;&#160;&#160;&#160;&#160;# 404038 &lt;g@@Base&gt;</text>
<text text-anchor="start" x="142.5" y="-299" font-family="mono" font-size="10.00"> &#160;401147: &#160;&#160;&#160;&#160;&#160;&#160;bf 08 20 40 00 &#160;&#160;&#160;&#160;&#160;&#160;&#160;&#160;&#160;mov &#160;&#160;&#160;$0x402008,%edi</text>
<text text-anchor="start" x="142.5" y="-284" font-family="mono" font-size="10.00"> &#160;40114c: &#160;&#160;&#160;&#160;&#160;&#160;b8 00 00 00 00 &#160;&#160;&#160;&#160;&#160;&#160;&#160;&#160;&#160;mov &#160;&#160;&#160;$0x0,%eax</text>
<text text-anchor="start" x="142.5" y="-269" font-family="mono" font-size="10.00"> &#160;401151: &#160;&#160;&#160;&#160;&#160;&#160;e8 ea fe ff ff &#160;&#160;&#160;&#160;&#160;&#160;&#160;&#160;&#160;call &#160;&#160;401040 &lt;printf@plt&gt;</text>
<polygon fill="lightcyan" stroke="transparent" points="140.5,-249 140.5,-264 703.5,-264 703.5,-249 140.5,-249"/>
<text text-anchor="start" x="142.5" y="-254" font-family="mono" font-size="10.00"> &#160;401156: &#160;&#160;&#160;&#160;&#160;&#160;c7 05 d8 2e 00 00 4e &#160;&#160;&#160;movl &#160;&#160;$0xbc614e,0x2ed8(%rip) &#160;&#160;# 404038 &lt;g@@Base&gt;</text>
<text text-anchor="start" x="142.5" y="-239" font-family="mono" font-size="10.00"> &#160;40115d: &#160;&#160;&#160;&#160;&#160;&#160;61 bc 00</text>
<text text-anchor="start" x="142.5" y="-224" font-family="mono" font-size="10.00"> &#160;401160: &#160;&#160;&#160;&#160;&#160;&#160;e8 cb fe ff ff &#160;&#160;&#160;&#160;&#160;&#160;&#160;&#160;&#160;call &#160;&#160;401030 &lt;lib_g@plt&gt;</text>
<text text-anchor="start" x="142.5" y="-209" font-family="mono" font-size="10.00"> &#160;401165: &#160;&#160;&#160;&#160;&#160;&#160;89 c2 &#160;&#160;&#160;&#160;&#160;&#160;&#160;&#160;&#160;&#160;&#160;&#160;&#160;&#160;&#160;&#160;&#160;&#160;mov &#160;&#160;&#160;%eax,%edx</text>
<polygon fill="#ddffdd" stroke="transparent" points="140.5,-189 140.5,-204 703.5,-204 703.5,-189 140.5,-189"/>
<text text-anchor="start" x="142.5" y="-194" font-family="mono" font-size="10.00"> &#160;401167: &#160;&#160;&#160;&#160;&#160;&#160;8b 35 cb 2e 00 00 &#160;&#160;&#160;&#160;&#160;&#160;mov &#160;&#160;&#160;0x2ecb(%rip),%esi &#160;&#160;&#160;&#160;&#160;&#160;&#160;# 404038 &lt;g@@Base&gt;</text>
<text text-anchor="start" x="142.5" y="-179" font-family="mono" font-size="10.00"> &#160;40116d: &#160;&#160;&#160;&#160;&#160;&#160;bf 28 20 40 00 &#160;&#160;&#160;&#160;&#160;&#160;&#160;&#160;&#160;mov &#160;&#160;&#160;$0x402028,%edi</text>
<text text-anchor="start" x="142.5" y="-164" font-family="mono" font-size="10.00"> &#160;401172: &#160;&#160;&#160;&#160;&#160;&#160;b8 00 00 00 00 &#160;&#160;&#160;&#160;&#160;&#160;&#160;&#160;&#160;mov &#160;&#160;&#160;$0x0,%eax</text>
<text text-anchor="start" x="142.5" y="-149" font-family="mono" font-size="10.00"> &#160;401177: &#160;&#160;&#160;&#160;&#160;&#160;e8 c4 fe ff ff &#160;&#160;&#160;&#160;&#160;&#160;&#160;&#160;&#160;call &#160;&#160;401040 &lt;printf@plt&gt;</text>
<text text-anchor="start" x="142.5" y="-134" font-family="mono" font-size="10.00"> &#160;40117c: &#160;&#160;&#160;&#160;&#160;&#160;b8 00 00 00 00 &#160;&#160;&#160;&#160;&#160;&#160;&#160;&#160;&#160;mov &#160;&#160;&#160;$0x0,%eax</text>
<text text-anchor="start" x="142.5" y="-119" font-family="mono" font-size="10.00"> &#160;401181: &#160;&#160;&#160;&#160;&#160;&#160;48 83 c4 08 &#160;&#160;&#160;&#160;&#160;&#160;&#160;&#160;&#160;&#160;&#160;&#160;add &#160;&#160;&#160;$0x8,%rsp</text>
<text text-anchor="start" x="142.5" y="-104" font-family="mono" font-size="10.00"> &#160;401185: &#160;&#160;&#160;&#160;&#160;&#160;c3 &#160;&#160;&#160;&#160;&#160;&#160;&#160;&#160;&#160;&#160;&#160;&#160;&#160;&#160;&#160;&#160;&#160;&#160;&#160;&#160;&#160;ret</text>
<text text-anchor="start" x="142.5" y="-89" font-family="mono" font-size="10.00">...</text>
<text text-anchor="start" x="142.5" y="-74" font-family="mono" font-size="10.00">Disassembly of section .bss:</text>
<text text-anchor="start" x="142.5" y="-55" font-family="mono" font-size="10.00">0000000000404038 &lt;g&gt;:</text>
<polygon fill="#aaaacc" stroke="transparent" points="140.5,-35 140.5,-50 703.5,-50 703.5,-35 140.5,-35"/>
<text text-anchor="start" x="142.5" y="-40" font-family="mono" font-size="10.00"> &#160;404038: &#160;&#160;&#160;&#160;&#160;&#160;00 00 &#160;&#160;&#160;&#160;&#160;&#160;&#160;&#160;&#160;&#160;&#160;&#160;&#160;&#160;&#160;&#160;&#160;&#160;&#160;&#160;&#160;&#160;&#160;&#160;&#160;&#160;&#160;&#160;&#160;&#160;&#160;&#160;&#160;&#160;&#160;&#160;&#160;&#160;&#160;&#160;&#160;&#160;&#160;&#160;&#160;&#160;&#160;&#160;&#160;&#160;# extern int g;</text>
<polygon fill="#aaaacc" stroke="transparent" points="140.5,-20 140.5,-35 703.5,-35 703.5,-20 140.5,-20"/>
<text text-anchor="start" x="142.5" y="-25" font-family="mono" font-size="10.00"> &#160;&#160;&#160;&#160;&#160;&#160;&#160;&#160;&#160;&#160;&#160;&#160;&#160;&#160;&#160;&#160;&#160;&#160;&#160;&#160;&#160;&#160;&#160;404038: R_X86_64_COPY &#160;&#160;g@@Base</text>
<text text-anchor="start" x="142.5" y="-10" font-family="mono" font-size="10.00"> &#160;&#160;&#160;&#160;&#160;&#160;&#160;...</text>
<polygon fill="none" stroke="black" points="139,-4 139,-618 704,-618 704,-4 139,-4"/>
</g>
<!-- read g -->
<g id="node2" class="node">
<title>read g</title>
<text text-anchor="middle" x="798.5" y="-406.5" font-family="mono" font-size="10.00" fill="green">read g</text>
</g>
<!-- prog&#45;&gt;read g -->
<g id="edge3" class="edge">
<title>prog:e&#45;&gt;read g</title>
<path fill="none" stroke="green" d="M704.5,-42C704.5,-42 748,-309 748,-309 748,-309 769.28,-351.98 783.93,-381.59"/>
<polygon fill="green" stroke="green" points="788.42,-390.66 779.95,-383.69 786.2,-386.18 783.98,-381.7 783.98,-381.7 783.98,-381.7 786.2,-386.18 788.02,-379.7 788.42,-390.66 788.42,-390.66"/>
</g>
<!-- read g address -->
<g id="node3" class="node">
<title>read g address</title>
<text text-anchor="middle" x="798.5" y="-528.5" font-family="mono" font-size="10.00" fill="#ff00ff">read g address</text>
</g>
<!-- prog&#45;&gt;read g address -->
<g id="edge1" class="edge">
<title>prog:e&#45;&gt;read g address</title>
<path fill="none" stroke="#ff00ff" d="M704.5,-482C704.5,-482 729.77,-495.32 753.97,-508.06"/>
<polygon fill="#ff00ff" stroke="#ff00ff" points="763.13,-512.89 752.19,-512.21 758.71,-510.56 754.29,-508.23 754.29,-508.23 754.29,-508.23 758.71,-510.56 756.38,-504.25 763.13,-512.89 763.13,-512.89"/>
</g>
<!-- read g  -->
<g id="node4" class="node">
<title>read g </title>
<text text-anchor="middle" x="798.5" y="-279.5" font-family="mono" font-size="10.00" fill="green">read g </text>
</g>
<!-- prog&#45;&gt;read g  -->
<g id="edge5" class="edge">
<title>prog:e&#45;&gt;read g </title>
<path fill="none" stroke="green" d="M704.5,-42C704.5,-42 748,-218 748,-218 748,-218 763.37,-237.87 776.98,-255.47"/>
<polygon fill="green" stroke="green" points="783.45,-263.83 773.77,-258.67 780.39,-259.88 777.33,-255.92 777.33,-255.92 777.33,-255.92 780.39,-259.88 780.89,-253.17 783.45,-263.83 783.45,-263.83"/>
</g>
<!-- read g &#160; -->
<g id="node5" class="node">
<title>read g &#160;</title>
<text text-anchor="middle" x="798.5" y="-116.5" font-family="mono" font-size="10.00" fill="green">read g &#160;</text>
</g>
<!-- prog&#45;&gt;read g &#160; -->
<g id="edge9" class="edge">
<title>prog:e&#45;&gt;read g &#160;</title>
<path fill="none" stroke="green" d="M704.5,-42C704.5,-42 740.5,-71.81 767.7,-94.33"/>
<polygon fill="green" stroke="green" points="775.46,-100.75 764.89,-97.84 771.61,-97.56 767.76,-94.37 767.76,-94.37 767.76,-94.37 771.61,-97.56 770.63,-90.91 775.46,-100.75 775.46,-100.75"/>
</g>
<!-- write g -->
<g id="node6" class="node">
<title>write g</title>
<text text-anchor="middle" x="798.5" y="-188.5" font-family="mono" font-size="10.00" fill="darkcyan">write g</text>
</g>
<!-- prog&#45;&gt;write g -->
<g id="edge7" class="edge">
<title>prog:e&#45;&gt;write g</title>
<path fill="none" stroke="darkcyan" d="M704.5,-256C704.5,-256 736.72,-233.48 763.24,-214.95"/>
<polygon fill="darkcyan" stroke="darkcyan" points="771.59,-209.11 765.98,-218.52 767.5,-211.97 763.4,-214.83 763.4,-214.83 763.4,-214.83 767.5,-211.97 760.82,-211.15 771.59,-209.11 771.59,-209.11"/>
</g>
<!-- copy g -->
<g id="node7" class="node">
<title>copy g</title>
<text text-anchor="middle" x="47.5" y="-229.5" font-family="mono" font-size="10.00" fill="blue">copy g</text>
</g>
<!-- prog&#45;&gt;copy g -->
<g id="edge11" class="edge">
<title>prog:w&#45;&gt;copy g</title>
<path fill="none" stroke="blue" d="M139.5,-422C139.5,-422 95,-262 95,-262 95,-262 89.98,-258.76 83.24,-254.42"/>
<polygon fill="blue" stroke="blue" points="74.74,-248.93 85.58,-250.57 78.94,-251.64 83.14,-254.35 83.14,-254.35 83.14,-254.35 78.94,-251.64 80.7,-258.13 74.74,-248.93 74.74,-248.93"/>
</g>
<!-- set g address -->
<g id="node8" class="node">
<title>set g address</title>
<text text-anchor="middle" x="47.5" y="-286.5" font-family="mono" font-size="10.00" fill="#ff00ff">set g address</text>
</g>
<!-- prog&#45;&gt;set g address -->
<g id="edge13" class="edge">
<title>prog:w&#45;&gt;set g address</title>
<path fill="none" stroke="#ff00ff" d="M139.5,-42C139.5,-42 95,-259 95,-259 95,-259 90.94,-261.62 85.22,-265.31"/>
<polygon fill="#ff00ff" stroke="#ff00ff" points="76.62,-270.86 82.59,-261.65 80.82,-268.15 85.02,-265.44 85.02,-265.44 85.02,-265.44 80.82,-268.15 87.46,-269.22 76.62,-270.86 76.62,-270.86"/>
</g>
<!-- read g&#45;&gt;prog -->
<g id="edge4" class="edge">
<title>read g&#45;&gt;prog:e</title>
<path fill="none" stroke="green" d="M786.65,-427.2C766.62,-460.8 724.54,-531.38 709.76,-556.17"/>
<polygon fill="green" stroke="green" points="704.5,-565 705.76,-554.11 707.06,-560.71 709.62,-556.41 709.62,-556.41 709.62,-556.41 707.06,-560.71 713.49,-558.71 704.5,-565 704.5,-565"/>
</g>
<!-- read g address&#45;&gt;prog -->
<g id="edge2" class="edge">
<title>read g address&#45;&gt;prog:e</title>
<path fill="none" stroke="#ff00ff" d="M763.13,-549.11C745.33,-558.48 724.99,-569.21 713.55,-575.23"/>
<polygon fill="#ff00ff" stroke="#ff00ff" points="704.5,-580 711.25,-571.36 708.92,-577.67 713.35,-575.34 713.35,-575.34 713.35,-575.34 708.92,-577.67 715.44,-579.32 704.5,-580 704.5,-580"/>
</g>
<!-- read g &#45;&gt;prog -->
<g id="edge6" class="edge">
<title>read g &#45;&gt;prog:e</title>
<path fill="none" stroke="green" d="M768.84,-292.79C750.05,-299.86 726.69,-308.65 713.92,-313.46"/>
<polygon fill="green" stroke="green" points="704.5,-317 712.27,-309.27 709.18,-315.24 713.86,-313.48 713.86,-313.48 713.86,-313.48 709.18,-315.24 715.44,-317.69 704.5,-317 704.5,-317"/>
</g>
<!-- read g &#160;&#45;&gt;prog -->
<g id="edge10" class="edge">
<title>read g &#160;&#45;&gt;prog:e</title>
<path fill="none" stroke="green" d="M775.46,-137.25C755.26,-153.97 726.46,-177.82 712.59,-189.31"/>
<polygon fill="green" stroke="green" points="704.5,-196 709.33,-186.16 708.35,-192.81 712.2,-189.62 712.2,-189.62 712.2,-189.62 708.35,-192.81 715.07,-193.09 704.5,-196 704.5,-196"/>
</g>
<!-- write g&#45;&gt;prog -->
<g id="edge8" class="edge">
<title>write g&#45;&gt;prog:e</title>
<path fill="none" stroke="darkcyan" d="M777.65,-172.96C763.88,-160.44 748,-146 748,-146 748,-146 719.01,-76.68 708.36,-51.23"/>
<polygon fill="darkcyan" stroke="darkcyan" points="704.5,-42 712.51,-49.49 706.43,-46.61 708.36,-51.23 708.36,-51.23 708.36,-51.23 706.43,-46.61 704.21,-52.96 704.5,-42 704.5,-42"/>
</g>
<!-- copy g&#45;&gt;prog -->
<g id="edge12" class="edge">
<title>copy g&#45;&gt;prog:w</title>
<path fill="none" stroke="blue" d="M57.23,-213.78C76.27,-174.03 120.97,-80.7 135.12,-51.14"/>
<polygon fill="blue" stroke="blue" points="139.5,-42 139.24,-52.96 137.34,-46.51 135.18,-51.02 135.18,-51.02 135.18,-51.02 137.34,-46.51 131.12,-49.08 139.5,-42 139.5,-42"/>
</g>
<!-- set g address&#45;&gt;prog -->
<g id="edge14" class="edge">
<title>set g address&#45;&gt;prog:w</title>
<path fill="none" stroke="#ff00ff" d="M57.06,-307.16C76,-347.32 120.88,-442.51 135.1,-472.67"/>
<polygon fill="#ff00ff" stroke="#ff00ff" points="139.5,-482 131.16,-474.87 137.37,-477.48 135.24,-472.95 135.24,-472.95 135.24,-472.95 137.37,-477.48 139.31,-471.04 139.5,-482 139.5,-482"/>
</g>
</g>
</svg>
