<?xml version="1.0" encoding="UTF-8" standalone="no"?>
<!DOCTYPE svg PUBLIC "-//W3C//DTD SVG 1.1//EN"
 "http://www.w3.org/Graphics/SVG/1.1/DTD/svg11.dtd">
<!-- Generated by graphviz version 7.0.2 (0)
 -->
<!-- Pages: 1 -->
<svg width="857pt" height="630pt"
 viewBox="0.00 0.00 857.00 630.00" xmlns="http://www.w3.org/2000/svg" xmlns:xlink="http://www.w3.org/1999/xlink">
<g id="graph0" class="graph" transform="scale(1 1) rotate(0) translate(4 626)">
<polygon fill="white" stroke="none" points="-4,4 -4,-626 853,-626 853,4 -4,4"/>
<!-- prog -->
<g id="node1" class="node">
<title>prog</title>
<text text-anchor="start" x="142.5" y="-607" font-family="mono" font-size="10.00">Disassembly of section .text:</text>
<text text-anchor="start" x="142.5" y="-592" font-family="mono" font-size="10.00">00000000000010f9 &lt;lib_g&gt;:</text>
<polygon fill="#ffeeff" stroke="none" points="140.5,-572 140.5,-587 703.5,-587 703.5,-572 140.5,-572"/>
<text text-anchor="start" x="142.5" y="-577" font-family="mono" font-size="10.00"> &#160;&#160;&#160;10f9: &#160;&#160;&#160;&#160;&#160;&#160;48 8b 05 e8 2e 00 00 &#160;&#160;&#160;mov &#160;&#160;&#160;0x2ee8(%rip),%rax &#160;&#160;&#160;&#160;&#160;&#160;&#160;# 3fe8 &lt;g@@Base&#45;0x38&gt;</text>
<polygon fill="#ddffdd" stroke="none" points="140.5,-557 140.5,-572 703.5,-572 703.5,-557 140.5,-557"/>
<text text-anchor="start" x="142.5" y="-562" font-family="mono" font-size="10.00"> &#160;&#160;&#160;1100: &#160;&#160;&#160;&#160;&#160;&#160;8b 00 &#160;&#160;&#160;&#160;&#160;&#160;&#160;&#160;&#160;&#160;&#160;&#160;&#160;&#160;&#160;&#160;&#160;&#160;mov &#160;&#160;&#160;(%rax),%eax</text>
<text text-anchor="start" x="142.5" y="-547" font-family="mono" font-size="10.00"> &#160;&#160;&#160;1102: &#160;&#160;&#160;&#160;&#160;&#160;c3 &#160;&#160;&#160;&#160;&#160;&#160;&#160;&#160;&#160;&#160;&#160;&#160;&#160;&#160;&#160;&#160;&#160;&#160;&#160;&#160;&#160;ret</text>
<text text-anchor="start" x="142.5" y="-528" font-family="mono" font-size="10.00">Disassembly of section .got:</text>
<text text-anchor="start" x="142.5" y="-509" font-family="mono" font-size="10.00">0000000000003fd8 &lt;.got&gt;:</text>
<text text-anchor="start" x="142.5" y="-494" font-family="mono" font-size="10.00"> &#160;&#160;&#160;&#160;&#160;&#160;&#160;...</text>
<polygon fill="#ffddff" stroke="none" points="140.5,-474 140.5,-489 703.5,-489 703.5,-474 140.5,-474"/>
<text text-anchor="start" x="142.5" y="-479" font-family="mono" font-size="10.00"> &#160;&#160;&#160;&#160;&#160;&#160;&#160;&#160;&#160;&#160;&#160;&#160;&#160;&#160;&#160;&#160;&#160;&#160;&#160;&#160;&#160;&#160;&#160;3fe8: R_X86_64_GLOB_DAT g@@Base</text>
<text text-anchor="start" x="142.5" y="-464" font-family="mono" font-size="10.00">Disassembly of section .data:</text>
<text text-anchor="start" x="142.5" y="-449" font-family="mono" font-size="10.00"> &#160;&#160;&#160;&#160;&#160;&#160;&#160;...</text>
<text text-anchor="start" x="142.5" y="-434" font-family="mono" font-size="10.00">0000000000004020 &lt;g&gt;:</text>
<polygon fill="#aaccaa" stroke="none" points="140.5,-414 140.5,-429 703.5,-429 703.5,-414 140.5,-414"/>
<text text-anchor="start" x="142.5" y="-419" font-family="mono" font-size="10.00"> &#160;&#160;&#160;4020: &#160;&#160;&#160;&#160;&#160;&#160;2a 00 &#160;&#160;&#160;&#160;&#160;&#160;&#160;&#160;&#160;&#160;&#160;&#160;&#160;&#160;&#160;&#160;&#160;&#160;&#160;&#160;&#160;&#160;&#160;&#160;&#160;&#160;&#160;&#160;&#160;&#160;&#160;&#160;&#160;&#160;&#160;&#160;&#160;&#160;&#160;&#160;&#160;&#160;&#160;&#160;&#160;&#160;&#160;&#160;&#160;&#160;# int g = 42; </text>
<text text-anchor="start" x="142.5" y="-404" font-family="mono" font-size="10.00"> &#160;&#160;&#160;&#160;&#160;&#160;&#160;...</text>
<text text-anchor="start" x="142.5" y="-389" font-family="mono" font-size="10.00">Disassembly of section .text:</text>
<text text-anchor="start" x="142.5" y="-374" font-family="mono" font-size="10.00">0000000000401136 &lt;main&gt;:</text>
<text text-anchor="start" x="142.5" y="-359" font-family="mono" font-size="10.00"> &#160;401136: &#160;&#160;&#160;&#160;&#160;&#160;48 83 ec 08 &#160;&#160;&#160;&#160;&#160;&#160;&#160;&#160;&#160;&#160;&#160;&#160;sub &#160;&#160;&#160;$0x8,%rsp</text>
<text text-anchor="start" x="142.5" y="-344" font-family="mono" font-size="10.00"> &#160;40113a: &#160;&#160;&#160;&#160;&#160;&#160;e8 f1 fe ff ff &#160;&#160;&#160;&#160;&#160;&#160;&#160;&#160;&#160;call &#160;&#160;401030 &lt;lib_g@plt&gt;</text>
<text text-anchor="start" x="142.5" y="-329" font-family="mono" font-size="10.00"> &#160;40113f: &#160;&#160;&#160;&#160;&#160;&#160;89 c2 &#160;&#160;&#160;&#160;&#160;&#160;&#160;&#160;&#160;&#160;&#160;&#160;&#160;&#160;&#160;&#160;&#160;&#160;mov &#160;&#160;&#160;%eax,%edx</text>
<polygon fill="#ddffdd" stroke="none" points="140.5,-309 140.5,-324 703.5,-324 703.5,-309 140.5,-309"/>
<text text-anchor="start" x="142.5" y="-314" font-family="mono" font-size="10.00"> &#160;401141: &#160;&#160;&#160;&#160;&#160;&#160;8b 35 f1 2e 00 00 &#160;&#160;&#160;&#160;&#160;&#160;mov &#160;&#160;&#160;0x2ef1(%rip),%esi &#160;&#160;&#160;&#160;&#160;&#160;&#160;# 404038 &lt;g@@Base&gt;</text>
<text text-anchor="start" x="142.5" y="-299" font-family="mono" font-size="10.00"> &#160;401147: &#160;&#160;&#160;&#160;&#160;&#160;bf 08 20 40 00 &#160;&#160;&#160;&#160;&#160;&#160;&#160;&#160;&#160;mov &#160;&#160;&#160;$0x402008,%edi</text>
<text text-anchor="start" x="142.5" y="-284" font-family="mono" font-size="10.00"> &#160;40114c: &#160;&#160;&#160;&#160;&#160;&#160;b8 00 00 00 00 &#160;&#160;&#160;&#160;&#160;&#160;&#160;&#160;&#160;mov &#160;&#160;&#160;$0x0,%eax</text>
<text text-anchor="start" x="142.5" y="-269" font-family="mono" font-size="10.00"> &#160;401151: &#160;&#160;&#160;&#160;&#160;&#160;e8 ea fe ff ff &#160;&#160;&#160;&#160;&#160;&#160;&#160;&#160;&#160;call &#160;&#160;401040 &lt;printf@plt&gt;</text>
<polygon fill="lightcyan" stroke="none" points="140.5,-249 140.5,-264 703.5,-264 703.5,-249 140.5,-249"/>
<text text-anchor="start" x="142.5" y="-254" font-family="mono" font-size="10.00"> &#160;401156: &#160;&#160;&#160;&#160;&#160;&#160;c7 05 d8 2e 00 00 4e &#160;&#160;&#160;movl &#160;&#160;$0xbc614e,0x2ed8(%rip) &#160;&#160;# 404038 &lt;g@@Base&gt;</text>
<text text-anchor="start" x="142.5" y="-239" font-family="mono" font-size="10.00"> &#160;40115d: &#160;&#160;&#160;&#160;&#160;&#160;61 bc 00</text>
<text text-anchor="start" x="142.5" y="-224" font-family="mono" font-size="10.00"> &#160;401160: &#160;&#160;&#160;&#160;&#160;&#160;e8 cb fe ff ff &#160;&#160;&#160;&#160;&#160;&#160;&#160;&#160;&#160;call &#160;&#160;401030 &lt;lib_g@plt&gt;</text>
<text text-anchor="start" x="142.5" y="-209" font-family="mono" font-size="10.00"> &#160;401165: &#160;&#160;&#160;&#160;&#160;&#160;89 c2 &#160;&#160;&#160;&#160;&#160;&#160;&#160;&#160;&#160;&#160;&#160;&#160;&#160;&#160;&#160;&#160;&#160;&#160;mov &#160;&#160;&#160;%eax,%edx</text>
<polygon fill="#ddffdd" stroke="none" points="140.5,-189 140.5,-204 703.5,-204 703.5,-189 140.5,-189"/>
<text text-anchor="start" x="142.5" y="-194" font-family="mono" font-size="10.00"> &#160;401167: &#160;&#160;&#160;&#160;&#160;&#160;8b 35 cb 2e 00 00 &#160;&#160;&#160;&#160;&#160;&#160;mov &#160;&#160;&#160;0x2ecb(%rip),%esi &#160;&#160;&#160;&#160;&#160;&#160;&#160;# 404038 &lt;g@@Base&gt;</text>
<text text-anchor="start" x="142.5" y="-179" font-family="mono" font-size="10.00"> &#160;40116d: &#160;&#160;&#160;&#160;&#160;&#160;bf 28 20 40 00 &#160;&#160;&#160;&#160;&#160;&#160;&#160;&#160;&#160;mov &#160;&#160;&#160;$0x402028,%edi</text>
<text text-anchor="start" x="142.5" y="-164" font-family="mono" font-size="10.00"> &#160;401172: &#160;&#160;&#160;&#160;&#160;&#160;b8 00 00 00 00 &#160;&#160;&#160;&#160;&#160;&#160;&#160;&#160;&#160;mov &#160;&#160;&#160;$0x0,%eax</text>
<text text-anchor="start" x="142.5" y="-149" font-family="mono" font-size="10.00"> &#160;401177: &#160;&#160;&#160;&#160;&#160;&#160;e8 c4 fe ff ff &#160;&#160;&#160;&#160;&#160;&#160;&#160;&#160;&#160;call &#160;&#160;401040 &lt;printf@plt&gt;</text>
<text text-anchor="start" x="142.5" y="-134" font-family="mono" font-size="10.00"> &#160;40117c: &#160;&#160;&#160;&#160;&#160;&#160;b8 00 00 00 00 &#160;&#160;&#160;&#160;&#160;&#160;&#160;&#160;&#160;mov &#160;&#160;&#160;$0x0,%eax</text>
<text text-anchor="start" x="142.5" y="-119" font-family="mono" font-size="10.00"> &#160;401181: &#160;&#160;&#160;&#160;&#160;&#160;48 83 c4 08 &#160;&#160;&#160;&#160;&#160;&#160;&#160;&#160;&#160;&#160;&#160;&#160;add &#160;&#160;&#160;$0x8,%rsp</text>
<text text-anchor="start" x="142.5" y="-104" font-family="mono" font-size="10.00"> &#160;401185: &#160;&#160;&#160;&#160;&#160;&#160;c3 &#160;&#160;&#160;&#160;&#160;&#160;&#160;&#160;&#160;&#160;&#160;&#160;&#160;&#160;&#160;&#160;&#160;&#160;&#160;&#160;&#160;ret</text>
<text text-anchor="start" x="142.5" y="-89" font-family="mono" font-size="10.00">...</text>
<text text-anchor="start" x="142.5" y="-74" font-family="mono" font-size="10.00">Disassembly of section .bss:</text>
<text text-anchor="start" x="142.5" y="-55" font-family="mono" font-size="10.00">0000000000404038 &lt;g&gt;:</text>
<polygon fill="#aaaacc" stroke="none" points="140.5,-35 140.5,-50 703.5,-50 703.5,-35 140.5,-35"/>
<text text-anchor="start" x="142.5" y="-40" font-family="mono" font-size="10.00"> &#160;404038: &#160;&#160;&#160;&#160;&#160;&#160;00 00 &#160;&#160;&#160;&#160;&#160;&#160;&#160;&#160;&#160;&#160;&#160;&#160;&#160;&#160;&#160;&#160;&#160;&#160;&#160;&#160;&#160;&#160;&#160;&#160;&#160;&#160;&#160;&#160;&#160;&#160;&#160;&#160;&#160;&#160;&#160;&#160;&#160;&#160;&#160;&#160;&#160;&#160;&#160;&#160;&#160;&#160;&#160;&#160;&#160;&#160;# extern int g;</text>
<polygon fill="#aaaacc" stroke="none" points="140.5,-20 140.5,-35 703.5,-35 703.5,-20 140.5,-20"/>
<text text-anchor="start" x="142.5" y="-25" font-family="mono" font-size="10.00"> &#160;&#160;&#160;&#160;&#160;&#160;&#160;&#160;&#160;&#160;&#160;&#160;&#160;&#160;&#160;&#160;&#160;&#160;&#160;&#160;&#160;&#160;&#160;404038: R_X86_64_COPY &#160;&#160;g@@Base</text>
<text text-anchor="start" x="142.5" y="-10" font-family="mono" font-size="10.00"> &#160;&#160;&#160;&#160;&#160;&#160;&#160;...</text>
<polygon fill="none" stroke="black" points="139,-4 139,-618 704,-618 704,-4 139,-4"/>
</g>
<!-- read g -->
<g id="node2" class="node">
<title>read g</title>
<text text-anchor="middle" x="798.5" y="-406.5" font-family="mono" font-size="10.00" fill="green">read g</text>
</g>
<!-- prog&#45;&gt;read g -->
<g id="edge3" class="edge">
<title>prog:e&#45;&gt;read g</title>
<path fill="none" stroke="green" d="M704.5,-42C704.5,-42 748,-309 748,-309 748,-309 769.69,-352.82 784.36,-382.45"/>
<polygon fill="green" stroke="green" points="788.65,-391.12 780.18,-384.16 786.43,-386.64 784.21,-382.16 784.21,-382.16 784.21,-382.16 786.43,-386.64 788.25,-380.16 788.65,-391.12 788.65,-391.12"/>
</g>
<!-- read g address -->
<g id="node3" class="node">
<title>read g address</title>
<text text-anchor="middle" x="798.5" y="-528.5" font-family="mono" font-size="10.00" fill="#ff00ff">read g address</text>
</g>
<!-- prog&#45;&gt;read g address -->
<g id="edge1" class="edge">
<title>prog:e&#45;&gt;read g address</title>
<path fill="none" stroke="#ff00ff" d="M704.5,-482C704.5,-482 730.39,-495.64 754.85,-508.53"/>
<polygon fill="#ff00ff" stroke="#ff00ff" points="763.4,-513.03 752.45,-512.35 758.97,-510.7 754.55,-508.37 754.55,-508.37 754.55,-508.37 758.97,-510.7 756.65,-504.39 763.4,-513.03 763.4,-513.03"/>
</g>
<!-- read g  -->
<g id="node4" class="node">
<title>read g </title>
<text text-anchor="middle" x="798.5" y="-279.5" font-family="mono" font-size="10.00" fill="green">read g </text>
</g>
<!-- prog&#45;&gt;read g  -->
<g id="edge5" class="edge">
<title>prog:e&#45;&gt;read g </title>
<path fill="none" stroke="green" d="M704.5,-42C704.5,-42 748,-218 748,-218 748,-218 763.84,-238.48 777.6,-256.27"/>
<polygon fill="green" stroke="green" points="783.71,-264.17 774.03,-259.02 780.65,-260.22 777.59,-256.26 777.59,-256.26 777.59,-256.26 780.65,-260.22 781.15,-253.51 783.71,-264.17 783.71,-264.17"/>
</g>
<!-- read g &#160; -->
<g id="node5" class="node">
<title>read g &#160;</title>
<text text-anchor="middle" x="798.5" y="-116.5" font-family="mono" font-size="10.00" fill="green">read g &#160;</text>
</g>
<!-- prog&#45;&gt;read g &#160; -->
<g id="edge9" class="edge">
<title>prog:e&#45;&gt;read g &#160;</title>
<path fill="none" stroke="green" d="M704.5,-42C704.5,-42 741.23,-72.41 768.52,-95.01"/>
<polygon fill="green" stroke="green" points="775.93,-101.14 765.36,-98.23 772.08,-97.95 768.23,-94.76 768.23,-94.76 768.23,-94.76 772.08,-97.95 771.1,-91.3 775.93,-101.14 775.93,-101.14"/>
</g>
<!-- write g -->
<g id="node6" class="node">
<title>write g</title>
<text text-anchor="middle" x="798.5" y="-188.5" font-family="mono" font-size="10.00" fill="darkcyan">write g</text>
</g>
<!-- prog&#45;&gt;write g -->
<g id="edge7" class="edge">
<title>prog:e&#45;&gt;write g</title>
<path fill="none" stroke="darkcyan" d="M704.5,-256C704.5,-256 737.39,-233.01 764.06,-214.37"/>
<polygon fill="darkcyan" stroke="darkcyan" points="772.09,-208.76 766.47,-218.18 767.99,-211.63 763.89,-214.49 763.89,-214.49 763.89,-214.49 767.99,-211.63 761.31,-210.8 772.09,-208.76 772.09,-208.76"/>
</g>
<!-- copy g -->
<g id="node7" class="node">
<title>copy g</title>
<text text-anchor="middle" x="47.5" y="-229.5" font-family="mono" font-size="10.00" fill="blue">copy g</text>
</g>
<!-- prog&#45;&gt;copy g -->
<g id="edge11" class="edge">
<title>prog:w&#45;&gt;copy g</title>
<path fill="none" stroke="blue" d="M139.5,-422C139.5,-422 95,-262 95,-262 95,-262 89.67,-258.56 82.62,-254.01"/>
<polygon fill="blue" stroke="blue" points="74.47,-248.75 85.31,-250.39 78.67,-251.46 82.87,-254.18 82.87,-254.18 82.87,-254.18 78.67,-251.46 80.43,-257.96 74.47,-248.75 74.47,-248.75"/>
</g>
<!-- set g address -->
<g id="node8" class="node">
<title>set g address</title>
<text text-anchor="middle" x="47.5" y="-286.5" font-family="mono" font-size="10.00" fill="#ff00ff">set g address</text>
</g>
<!-- prog&#45;&gt;set g address -->
<g id="edge13" class="edge">
<title>prog:w&#45;&gt;set g address</title>
<path fill="none" stroke="#ff00ff" d="M139.5,-42C139.5,-42 95,-259 95,-259 95,-259 90.68,-261.79 84.67,-265.66"/>
<polygon fill="#ff00ff" stroke="#ff00ff" points="76.35,-271.03 82.32,-261.83 80.56,-268.32 84.76,-265.61 84.76,-265.61 84.76,-265.61 80.56,-268.32 87.2,-269.39 76.35,-271.03 76.35,-271.03"/>
</g>
<!-- read g&#45;&gt;prog -->
<g id="edge4" class="edge">
<title>read g&#45;&gt;prog:e</title>
<path fill="none" stroke="green" d="M786.83,-426.9C766.79,-460.51 724.23,-531.91 709.58,-556.48"/>
<polygon fill="green" stroke="green" points="704.5,-565 705.76,-554.11 707.06,-560.71 709.62,-556.41 709.62,-556.41 709.62,-556.41 707.06,-560.71 713.49,-558.71 704.5,-565 704.5,-565"/>
</g>
<!-- read g address&#45;&gt;prog -->
<g id="edge2" class="edge">
<title>read g address&#45;&gt;prog:e</title>
<path fill="none" stroke="#ff00ff" d="M763.4,-548.97C745.36,-558.47 724.63,-569.39 713.2,-575.41"/>
<polygon fill="#ff00ff" stroke="#ff00ff" points="704.5,-580 711.25,-571.36 708.92,-577.67 713.35,-575.34 713.35,-575.34 713.35,-575.34 708.92,-577.67 715.44,-579.32 704.5,-580 704.5,-580"/>
</g>
<!-- read g &#45;&gt;prog -->
<g id="edge6" class="edge">
<title>read g &#45;&gt;prog:e</title>
<path fill="none" stroke="green" d="M769.09,-292.69C750.08,-299.85 726.28,-308.8 713.54,-313.6"/>
<polygon fill="green" stroke="green" points="704.5,-317 712.27,-309.27 709.18,-315.24 713.86,-313.48 713.86,-313.48 713.86,-313.48 709.18,-315.24 715.44,-317.69 704.5,-317 704.5,-317"/>
</g>
<!-- read g &#160;&#45;&gt;prog -->
<g id="edge10" class="edge">
<title>read g &#160;&#45;&gt;prog:e</title>
<path fill="none" stroke="green" d="M775.93,-136.86C755.33,-153.92 725.45,-178.66 711.8,-189.96"/>
<polygon fill="green" stroke="green" points="704.5,-196 709.33,-186.16 708.35,-192.81 712.2,-189.62 712.2,-189.62 712.2,-189.62 708.35,-192.81 715.07,-193.09 704.5,-196 704.5,-196"/>
</g>
<!-- write g&#45;&gt;prog -->
<g id="edge8" class="edge">
<title>write g&#45;&gt;prog:e</title>
<path fill="none" stroke="darkcyan" d="M777.94,-173.21C764.1,-160.64 748,-146 748,-146 748,-146 718.73,-76.02 708.21,-50.87"/>
<polygon fill="darkcyan" stroke="darkcyan" points="704.5,-42 712.51,-49.49 706.43,-46.61 708.36,-51.23 708.36,-51.23 708.36,-51.23 706.43,-46.61 704.21,-52.96 704.5,-42 704.5,-42"/>
</g>
<!-- copy g&#45;&gt;prog -->
<g id="edge12" class="edge">
<title>copy g&#45;&gt;prog:w</title>
<path fill="none" stroke="blue" d="M57.06,-214.13C76.09,-174.4 121.3,-80 135.3,-50.77"/>
<polygon fill="blue" stroke="blue" points="139.5,-42 139.24,-52.96 137.34,-46.51 135.18,-51.02 135.18,-51.02 135.18,-51.02 137.34,-46.51 131.12,-49.08 139.5,-42 139.5,-42"/>
</g>
<!-- set g address&#45;&gt;prog -->
<g id="edge14" class="edge">
<title>set g address&#45;&gt;prog:w</title>
<path fill="none" stroke="#ff00ff" d="M56.9,-306.81C75.82,-346.94 121.22,-443.23 135.28,-473.05"/>
<polygon fill="#ff00ff" stroke="#ff00ff" points="139.5,-482 131.16,-474.87 137.37,-477.48 135.24,-472.95 135.24,-472.95 135.24,-472.95 137.37,-477.48 139.31,-471.04 139.5,-482 139.5,-482"/>
</g>
</g>
</svg>
