<?xml version="1.0" encoding="UTF-8" standalone="no"?>
<!DOCTYPE svg PUBLIC "-//W3C//DTD SVG 1.1//EN"
 "http://www.w3.org/Graphics/SVG/1.1/DTD/svg11.dtd">
<!-- Generated by graphviz version 12.2.0 (0)
 -->
<!-- Pages: 1 -->
<svg width="734pt" height="512pt"
 viewBox="0.00 0.00 734.00 511.75" xmlns="http://www.w3.org/2000/svg" xmlns:xlink="http://www.w3.org/1999/xlink">
<g id="graph0" class="graph" transform="scale(1 1) rotate(0) translate(4 507.75)">
<polygon fill="white" stroke="none" points="-4,4 -4,-507.75 730,-507.75 730,4 -4,4"/>
<!-- prog -->
<g id="node1" class="node">
<title>prog</title>
<text text-anchor="start" x="105" y="-487.25" font-family="mono" font-size="10.00">Disassembly of section .text:</text>
<text text-anchor="start" x="105" y="-470.5" font-family="mono" font-size="10.00"> &#160;&#160;&#160;&#160;&#160;&#160;&#160;...</text>
<text text-anchor="start" x="105" y="-453.75" font-family="mono" font-size="10.00">0000000000401126 &lt;lib_g&gt;:</text>
<polygon fill="#ddffdd" stroke="none" points="103,-431.75 103,-448.5 617,-448.5 617,-431.75 103,-431.75"/>
<text text-anchor="start" x="105" y="-437" font-family="mono" font-size="10.00"> &#160;401126: &#160;&#160;&#160;&#160;&#160;&#160;8b 05 04 2f 00 00 &#160;&#160;&#160;&#160;&#160;&#160;mov &#160;&#160;&#160;0x2f04(%rip),%eax &#160;&#160;&#160;&#160;&#160;&#160;&#160;# 404030 &lt;g&gt;</text>
<text text-anchor="start" x="105" y="-420.25" font-family="mono" font-size="10.00"> &#160;40112c: &#160;&#160;&#160;&#160;&#160;&#160;c3 &#160;&#160;&#160;&#160;&#160;&#160;&#160;&#160;&#160;&#160;&#160;&#160;&#160;&#160;&#160;&#160;&#160;&#160;&#160;&#160;&#160;ret</text>
<text text-anchor="start" x="105" y="-399.5" font-family="mono" font-size="10.00">000000000040112d &lt;main&gt;:</text>
<text text-anchor="start" x="105" y="-382.75" font-family="mono" font-size="10.00"> &#160;40112d: &#160;&#160;&#160;&#160;&#160;&#160;48 83 ec 08 &#160;&#160;&#160;&#160;&#160;&#160;&#160;&#160;&#160;&#160;&#160;&#160;sub &#160;&#160;&#160;$0x8,%rsp</text>
<text text-anchor="start" x="105" y="-366" font-family="mono" font-size="10.00"> &#160;401131: &#160;&#160;&#160;&#160;&#160;&#160;e8 f0 ff ff ff &#160;&#160;&#160;&#160;&#160;&#160;&#160;&#160;&#160;call &#160;&#160;401126 &lt;lib_g&gt;</text>
<text text-anchor="start" x="105" y="-349.25" font-family="mono" font-size="10.00"> &#160;401136: &#160;&#160;&#160;&#160;&#160;&#160;89 c2 &#160;&#160;&#160;&#160;&#160;&#160;&#160;&#160;&#160;&#160;&#160;&#160;&#160;&#160;&#160;&#160;&#160;&#160;mov &#160;&#160;&#160;%eax,%edx</text>
<polygon fill="#ddffdd" stroke="none" points="103,-327.25 103,-344 617,-344 617,-327.25 103,-327.25"/>
<text text-anchor="start" x="105" y="-332.5" font-family="mono" font-size="10.00"> &#160;401138: &#160;&#160;&#160;&#160;&#160;&#160;8b 35 f2 2e 00 00 &#160;&#160;&#160;&#160;&#160;&#160;mov &#160;&#160;&#160;0x2ef2(%rip),%esi &#160;&#160;&#160;&#160;&#160;&#160;&#160;# 404030 &lt;g&gt;</text>
<text text-anchor="start" x="105" y="-315.75" font-family="mono" font-size="10.00"> &#160;40113e: &#160;&#160;&#160;&#160;&#160;&#160;bf 08 20 40 00 &#160;&#160;&#160;&#160;&#160;&#160;&#160;&#160;&#160;mov &#160;&#160;&#160;$0x402008,%edi</text>
<text text-anchor="start" x="105" y="-299" font-family="mono" font-size="10.00"> &#160;401143: &#160;&#160;&#160;&#160;&#160;&#160;b8 00 00 00 00 &#160;&#160;&#160;&#160;&#160;&#160;&#160;&#160;&#160;mov &#160;&#160;&#160;$0x0,%eax</text>
<text text-anchor="start" x="105" y="-282.25" font-family="mono" font-size="10.00"> &#160;401148: &#160;&#160;&#160;&#160;&#160;&#160;e8 e3 fe ff ff &#160;&#160;&#160;&#160;&#160;&#160;&#160;&#160;&#160;call &#160;&#160;401030 &lt;printf@plt&gt;</text>
<polygon fill="lightcyan" stroke="none" points="103,-260.25 103,-277 617,-277 617,-260.25 103,-260.25"/>
<text text-anchor="start" x="105" y="-265.5" font-family="mono" font-size="10.00"> &#160;40114d: &#160;&#160;&#160;&#160;&#160;&#160;c7 05 d9 2e 00 00 4e &#160;&#160;&#160;movl &#160;&#160;$0xbc614e,0x2ed9(%rip) &#160;&#160;# 404030 &lt;g&gt;</text>
<text text-anchor="start" x="105" y="-248.75" font-family="mono" font-size="10.00"> &#160;401154: &#160;&#160;&#160;&#160;&#160;&#160;61 bc 00</text>
<text text-anchor="start" x="105" y="-232" font-family="mono" font-size="10.00"> &#160;401157: &#160;&#160;&#160;&#160;&#160;&#160;e8 ca ff ff ff &#160;&#160;&#160;&#160;&#160;&#160;&#160;&#160;&#160;call &#160;&#160;401126 &lt;lib_g&gt;</text>
<text text-anchor="start" x="105" y="-215.25" font-family="mono" font-size="10.00"> &#160;40115c: &#160;&#160;&#160;&#160;&#160;&#160;89 c2 &#160;&#160;&#160;&#160;&#160;&#160;&#160;&#160;&#160;&#160;&#160;&#160;&#160;&#160;&#160;&#160;&#160;&#160;mov &#160;&#160;&#160;%eax,%edx</text>
<polygon fill="#ddffdd" stroke="none" points="103,-193.25 103,-210 617,-210 617,-193.25 103,-193.25"/>
<text text-anchor="start" x="105" y="-198.5" font-family="mono" font-size="10.00"> &#160;40115e: &#160;&#160;&#160;&#160;&#160;&#160;8b 35 cc 2e 00 00 &#160;&#160;&#160;&#160;&#160;&#160;mov &#160;&#160;&#160;0x2ecc(%rip),%esi &#160;&#160;&#160;&#160;&#160;&#160;&#160;# 404030 &lt;g&gt;</text>
<text text-anchor="start" x="105" y="-181.75" font-family="mono" font-size="10.00"> &#160;401164: &#160;&#160;&#160;&#160;&#160;&#160;bf 28 20 40 00 &#160;&#160;&#160;&#160;&#160;&#160;&#160;&#160;&#160;mov &#160;&#160;&#160;$0x402028,%edi</text>
<text text-anchor="start" x="105" y="-165" font-family="mono" font-size="10.00"> &#160;401169: &#160;&#160;&#160;&#160;&#160;&#160;b8 00 00 00 00 &#160;&#160;&#160;&#160;&#160;&#160;&#160;&#160;&#160;mov &#160;&#160;&#160;$0x0,%eax</text>
<text text-anchor="start" x="105" y="-148.25" font-family="mono" font-size="10.00"> &#160;40116e: &#160;&#160;&#160;&#160;&#160;&#160;e8 bd fe ff ff &#160;&#160;&#160;&#160;&#160;&#160;&#160;&#160;&#160;call &#160;&#160;401030 &lt;printf@plt&gt;</text>
<text text-anchor="start" x="105" y="-131.5" font-family="mono" font-size="10.00"> &#160;401173: &#160;&#160;&#160;&#160;&#160;&#160;b8 00 00 00 00 &#160;&#160;&#160;&#160;&#160;&#160;&#160;&#160;&#160;mov &#160;&#160;&#160;$0x0,%eax</text>
<text text-anchor="start" x="105" y="-114.75" font-family="mono" font-size="10.00"> &#160;401178: &#160;&#160;&#160;&#160;&#160;&#160;48 83 c4 08 &#160;&#160;&#160;&#160;&#160;&#160;&#160;&#160;&#160;&#160;&#160;&#160;add &#160;&#160;&#160;$0x8,%rsp</text>
<text text-anchor="start" x="105" y="-98" font-family="mono" font-size="10.00"> &#160;40117c: &#160;&#160;&#160;&#160;&#160;&#160;c3 &#160;&#160;&#160;&#160;&#160;&#160;&#160;&#160;&#160;&#160;&#160;&#160;&#160;&#160;&#160;&#160;&#160;&#160;&#160;&#160;&#160;ret</text>
<text text-anchor="start" x="105" y="-77.25" font-family="mono" font-size="10.00">Disassembly of section .data:</text>
<text text-anchor="start" x="105" y="-60.5" font-family="mono" font-size="10.00"> &#160;&#160;&#160;&#160;&#160;&#160;&#160;...</text>
<text text-anchor="start" x="105" y="-43.75" font-family="mono" font-size="10.00">0000000000404030 &lt;g&gt;:</text>
<polygon fill="#aaccaa" stroke="none" points="103,-21.75 103,-38.5 617,-38.5 617,-21.75 103,-21.75"/>
<text text-anchor="start" x="105" y="-27" font-family="mono" font-size="10.00"> &#160;404030: &#160;&#160;&#160;&#160;&#160;&#160;2a 00 &#160;&#160;&#160;&#160;&#160;&#160;&#160;&#160;&#160;&#160;&#160;&#160;&#160;&#160;&#160;&#160;&#160;&#160;&#160;&#160;&#160;&#160;&#160;&#160;&#160;&#160;&#160;&#160;&#160;&#160;&#160;&#160;&#160;&#160;&#160;&#160;&#160;&#160;&#160;&#160;&#160;&#160;&#160;&#160;&#160;&#160;&#160;&#160;&#160;&#160;# int g = 42;</text>
<text text-anchor="start" x="105" y="-10.25" font-family="mono" font-size="10.00"> &#160;&#160;&#160;&#160;&#160;&#160;&#160;...</text>
<polygon fill="none" stroke="black" points="102,-4 102,-499.75 618,-499.75 618,-4 102,-4"/>
</g>
<!-- read g -->
<g id="node2" class="node">
<title>read g</title>
<text text-anchor="middle" x="694" y="-328.75" font-family="mono" font-size="10.00" fill="green">read g</text>
</g>
<!-- prog&#45;&gt;read g -->
<g id="edge1" class="edge">
<title>prog:e&#45;&gt;read g</title>
<path fill="none" stroke="green" d="M618,-30.12C618,-30.12 662,-279.88 662,-279.88 662,-279.88 669.22,-291.98 676.69,-304.51"/>
<polygon fill="green" stroke="green" points="681.71,-312.93 672.72,-306.65 679.77,-309.68 676.59,-304.34 676.59,-304.34 676.59,-304.34 679.77,-309.68 680.45,-302.04 681.71,-312.93"/>
</g>
<!-- read g  -->
<g id="node3" class="node">
<title>read g </title>
<text text-anchor="middle" x="694" y="-249.75" font-family="mono" font-size="10.00" fill="green">read g </text>
</g>
<!-- prog&#45;&gt;read g  -->
<g id="edge3" class="edge">
<title>prog:e&#45;&gt;read g </title>
<path fill="none" stroke="green" d="M618,-30.12C618,-30.12 663.37,-164.87 683.53,-224.76"/>
<polygon fill="green" stroke="green" points="686.6,-233.87 679.14,-225.83 685.39,-230.28 683.41,-224.39 683.41,-224.39 683.41,-224.39 685.39,-230.28 687.67,-222.96 686.6,-233.87"/>
</g>
<!-- read g &#160; -->
<g id="node4" class="node">
<title>read g &#160;</title>
<text text-anchor="middle" x="694" y="-113.75" font-family="mono" font-size="10.00" fill="green">read g &#160;</text>
</g>
<!-- prog&#45;&gt;read g &#160; -->
<g id="edge7" class="edge">
<title>prog:e&#45;&gt;read g &#160;</title>
<path fill="none" stroke="green" d="M618,-30.12C618,-30.12 648.26,-65.13 670.34,-90.67"/>
<polygon fill="green" stroke="green" points="676.66,-97.98 666.72,-93.36 674.19,-95.12 670.12,-90.41 670.12,-90.41 670.12,-90.41 674.19,-95.12 673.53,-87.47 676.66,-97.98"/>
</g>
<!-- write g -->
<g id="node5" class="node">
<title>write g</title>
<text text-anchor="middle" x="29" y="-146.75" font-family="mono" font-size="10.00" fill="darkcyan">write g</text>
</g>
<!-- prog&#45;&gt;write g -->
<g id="edge5" class="edge">
<title>prog:w&#45;&gt;write g</title>
<path fill="none" stroke="darkcyan" d="M102,-268.62C102,-268.62 67.63,-211.94 46.38,-176.9"/>
<polygon fill="darkcyan" stroke="darkcyan" points="41.41,-168.69 50.44,-174.91 43.37,-171.93 46.6,-177.25 46.6,-177.25 46.6,-177.25 43.37,-171.93 42.75,-179.58 41.41,-168.69"/>
</g>
<!-- read g&#45;&gt;prog -->
<g id="edge2" class="edge">
<title>read g&#45;&gt;prog:e</title>
<path fill="none" stroke="green" d="M680.62,-349.75C664.39,-373.17 636.55,-413.35 624.21,-431.17"/>
<polygon fill="green" stroke="green" points="618.69,-439.12 620.69,-428.34 620.85,-436.02 624.39,-430.9 624.39,-430.9 624.39,-430.9 620.85,-436.02 628.09,-433.47 618.69,-439.12"/>
</g>
<!-- read g &#45;&gt;prog -->
<g id="edge4" class="edge">
<title>read g &#45;&gt;prog:e</title>
<path fill="none" stroke="green" d="M676.73,-270.83C660.7,-288.51 636.96,-314.71 625.18,-327.71"/>
<polygon fill="green" stroke="green" points="618.82,-334.72 622.2,-324.29 621.36,-331.92 625.53,-327.31 625.53,-327.31 625.53,-327.31 621.36,-331.92 628.87,-330.33 618.82,-334.72"/>
</g>
<!-- read g &#160;&#45;&gt;prog -->
<g id="edge8" class="edge">
<title>read g &#160;&#45;&gt;prog:e</title>
<path fill="none" stroke="green" d="M677.09,-134.85C661.1,-152.92 637.15,-179.98 625.25,-193.43"/>
<polygon fill="green" stroke="green" points="618.81,-200.71 622.06,-190.24 621.31,-197.88 625.43,-193.22 625.43,-193.22 625.43,-193.22 621.31,-197.88 628.8,-196.21 618.81,-200.71"/>
</g>
<!-- write g&#45;&gt;prog -->
<g id="edge6" class="edge">
<title>write g&#45;&gt;prog:w</title>
<path fill="none" stroke="darkcyan" d="M40.78,-131.95C56.31,-106.11 84.44,-59.33 96.39,-39.46"/>
<polygon fill="darkcyan" stroke="darkcyan" points="101.37,-31.17 100.08,-42.06 99.42,-34.41 96.22,-39.74 96.22,-39.74 96.22,-39.74 99.42,-34.41 92.36,-37.42 101.37,-31.17"/>
</g>
</g>
</svg>
