<?xml version="1.0" encoding="UTF-8" standalone="no"?>
<!DOCTYPE svg PUBLIC "-//W3C//DTD SVG 1.1//EN"
 "http://www.w3.org/Graphics/SVG/1.1/DTD/svg11.dtd">
<!-- Generated by graphviz version 7.1.0 (0)
 -->
<!-- Pages: 1 -->
<svg width="804pt" height="585pt"
 viewBox="0.00 0.00 804.00 585.00" xmlns="http://www.w3.org/2000/svg" xmlns:xlink="http://www.w3.org/1999/xlink">
<g id="graph0" class="graph" transform="scale(1 1) rotate(0) translate(4 581)">
<polygon fill="white" stroke="none" points="-4,4 -4,-581 800,-581 800,4 -4,4"/>
<!-- prog -->
<g id="node1" class="node">
<title>prog</title>
<text text-anchor="start" x="101.5" y="-561.5" font-family="mono" font-size="10.00">Disassembly of section .text:</text>
<text text-anchor="start" x="101.5" y="-546.5" font-family="mono" font-size="10.00">00000000000010f9 &lt;lib_g&gt;:</text>
<text text-anchor="start" x="101.5" y="-531.5" font-family="mono" font-size="10.00"> &#160;&#160;&#160;10f9: &#160;&#160;&#160;&#160;&#160;&#160;48 8d 05 20 2f 00 00 &#160;&#160;&#160;lea &#160;&#160;&#160;0x2f20(%rip),%rax &#160;&#160;&#160;&#160;&#160;&#160;&#160;# 4020 &lt;g&gt;</text>
<polygon fill="#ddffdd" stroke="none" points="99.5,-511.5 99.5,-526.5 644.5,-526.5 644.5,-511.5 99.5,-511.5"/>
<text text-anchor="start" x="101.5" y="-516.5" font-family="mono" font-size="10.00"> &#160;&#160;&#160;1100: &#160;&#160;&#160;&#160;&#160;&#160;8b 00 &#160;&#160;&#160;&#160;&#160;&#160;&#160;&#160;&#160;&#160;&#160;&#160;&#160;&#160;&#160;&#160;&#160;&#160;mov &#160;&#160;&#160;(%rax),%eax</text>
<text text-anchor="start" x="101.5" y="-501.5" font-family="mono" font-size="10.00"> &#160;&#160;&#160;1102: &#160;&#160;&#160;&#160;&#160;&#160;c3 &#160;&#160;&#160;&#160;&#160;&#160;&#160;&#160;&#160;&#160;&#160;&#160;&#160;&#160;&#160;&#160;&#160;&#160;&#160;&#160;&#160;ret</text>
<text text-anchor="start" x="101.5" y="-482.5" font-family="mono" font-size="10.00">Disassembly of section .data:</text>
<text text-anchor="start" x="101.5" y="-467.5" font-family="mono" font-size="10.00"> &#160;&#160;&#160;&#160;&#160;&#160;&#160;...</text>
<text text-anchor="start" x="101.5" y="-452.5" font-family="mono" font-size="10.00">0000000000004020 &lt;g&gt;:</text>
<polygon fill="#aaccaa" stroke="none" points="99.5,-432.5 99.5,-447.5 644.5,-447.5 644.5,-432.5 99.5,-432.5"/>
<text text-anchor="start" x="101.5" y="-437.5" font-family="mono" font-size="10.00"> &#160;&#160;&#160;4020: &#160;&#160;&#160;&#160;&#160;&#160;2a 00 &#160;&#160;&#160;&#160;&#160;&#160;&#160;&#160;&#160;&#160;&#160;&#160;&#160;&#160;&#160;&#160;&#160;&#160;&#160;&#160;&#160;&#160;&#160;&#160;&#160;&#160;&#160;&#160;&#160;&#160;&#160;&#160;&#160;&#160;&#160;&#160;&#160;&#160;&#160;&#160;&#160;&#160;&#160;&#160;&#160;&#160;&#160;&#160;&#160;&#160;# int g = 42;</text>
<text text-anchor="start" x="101.5" y="-422.5" font-family="mono" font-size="10.00"> &#160;&#160;&#160;&#160;&#160;&#160;&#160;...</text>
<text text-anchor="start" x="101.5" y="-403.5" font-family="mono" font-size="10.00">Disassembly of section .text:</text>
<text text-anchor="start" x="101.5" y="-388.5" font-family="mono" font-size="10.00"> &#160;&#160;&#160;&#160;&#160;&#160;&#160;...</text>
<text text-anchor="start" x="101.5" y="-373.5" font-family="mono" font-size="10.00">0000000000401136 &lt;main&gt;:</text>
<text text-anchor="start" x="101.5" y="-358.5" font-family="mono" font-size="10.00"> &#160;401136: &#160;&#160;&#160;&#160;&#160;&#160;48 83 ec 08 &#160;&#160;&#160;&#160;&#160;&#160;&#160;&#160;&#160;&#160;&#160;&#160;sub &#160;&#160;&#160;$0x8,%rsp</text>
<text text-anchor="start" x="101.5" y="-343.5" font-family="mono" font-size="10.00"> &#160;40113a: &#160;&#160;&#160;&#160;&#160;&#160;e8 f1 fe ff ff &#160;&#160;&#160;&#160;&#160;&#160;&#160;&#160;&#160;call &#160;&#160;401030 &lt;lib_g@plt&gt;</text>
<text text-anchor="start" x="101.5" y="-328.5" font-family="mono" font-size="10.00"> &#160;40113f: &#160;&#160;&#160;&#160;&#160;&#160;89 c2 &#160;&#160;&#160;&#160;&#160;&#160;&#160;&#160;&#160;&#160;&#160;&#160;&#160;&#160;&#160;&#160;&#160;&#160;mov &#160;&#160;&#160;%eax,%edx</text>
<polygon fill="#ddffdd" stroke="none" points="99.5,-308.5 99.5,-323.5 644.5,-323.5 644.5,-308.5 99.5,-308.5"/>
<text text-anchor="start" x="101.5" y="-313.5" font-family="mono" font-size="10.00"> &#160;401141: &#160;&#160;&#160;&#160;&#160;&#160;8b 35 f1 2e 00 00 &#160;&#160;&#160;&#160;&#160;&#160;mov &#160;&#160;&#160;0x2ef1(%rip),%esi &#160;&#160;&#160;&#160;&#160;&#160;&#160;# 404038 &lt;g@@Base&gt;</text>
<text text-anchor="start" x="101.5" y="-298.5" font-family="mono" font-size="10.00"> &#160;401147: &#160;&#160;&#160;&#160;&#160;&#160;bf 08 20 40 00 &#160;&#160;&#160;&#160;&#160;&#160;&#160;&#160;&#160;mov &#160;&#160;&#160;$0x402008,%edi</text>
<text text-anchor="start" x="101.5" y="-283.5" font-family="mono" font-size="10.00"> &#160;40114c: &#160;&#160;&#160;&#160;&#160;&#160;b8 00 00 00 00 &#160;&#160;&#160;&#160;&#160;&#160;&#160;&#160;&#160;mov &#160;&#160;&#160;$0x0,%eax</text>
<text text-anchor="start" x="101.5" y="-268.5" font-family="mono" font-size="10.00"> &#160;401151: &#160;&#160;&#160;&#160;&#160;&#160;e8 ea fe ff ff &#160;&#160;&#160;&#160;&#160;&#160;&#160;&#160;&#160;call &#160;&#160;401040 &lt;printf@plt&gt;</text>
<polygon fill="lightcyan" stroke="none" points="99.5,-248.5 99.5,-263.5 644.5,-263.5 644.5,-248.5 99.5,-248.5"/>
<text text-anchor="start" x="101.5" y="-253.5" font-family="mono" font-size="10.00"> &#160;401156: &#160;&#160;&#160;&#160;&#160;&#160;c7 05 d8 2e 00 00 4e &#160;&#160;&#160;movl &#160;&#160;$0xbc614e,0x2ed8(%rip) &#160;&#160;# 404038 &lt;g@@Base&gt;</text>
<text text-anchor="start" x="101.5" y="-238.5" font-family="mono" font-size="10.00"> &#160;40115d: &#160;&#160;&#160;&#160;&#160;&#160;61 bc 00</text>
<text text-anchor="start" x="101.5" y="-223.5" font-family="mono" font-size="10.00"> &#160;401160: &#160;&#160;&#160;&#160;&#160;&#160;e8 cb fe ff ff &#160;&#160;&#160;&#160;&#160;&#160;&#160;&#160;&#160;call &#160;&#160;401030 &lt;lib_g@plt&gt;</text>
<text text-anchor="start" x="101.5" y="-208.5" font-family="mono" font-size="10.00"> &#160;401165: &#160;&#160;&#160;&#160;&#160;&#160;89 c2 &#160;&#160;&#160;&#160;&#160;&#160;&#160;&#160;&#160;&#160;&#160;&#160;&#160;&#160;&#160;&#160;&#160;&#160;mov &#160;&#160;&#160;%eax,%edx</text>
<polygon fill="#ddffdd" stroke="none" points="99.5,-188.5 99.5,-203.5 644.5,-203.5 644.5,-188.5 99.5,-188.5"/>
<text text-anchor="start" x="101.5" y="-193.5" font-family="mono" font-size="10.00"> &#160;401167: &#160;&#160;&#160;&#160;&#160;&#160;8b 35 cb 2e 00 00 &#160;&#160;&#160;&#160;&#160;&#160;mov &#160;&#160;&#160;0x2ecb(%rip),%esi &#160;&#160;&#160;&#160;&#160;&#160;&#160;# 404038 &lt;g@@Base&gt;</text>
<text text-anchor="start" x="101.5" y="-178.5" font-family="mono" font-size="10.00"> &#160;40116d: &#160;&#160;&#160;&#160;&#160;&#160;bf 28 20 40 00 &#160;&#160;&#160;&#160;&#160;&#160;&#160;&#160;&#160;mov &#160;&#160;&#160;$0x402028,%edi</text>
<text text-anchor="start" x="101.5" y="-163.5" font-family="mono" font-size="10.00"> &#160;401172: &#160;&#160;&#160;&#160;&#160;&#160;b8 00 00 00 00 &#160;&#160;&#160;&#160;&#160;&#160;&#160;&#160;&#160;mov &#160;&#160;&#160;$0x0,%eax</text>
<text text-anchor="start" x="101.5" y="-148.5" font-family="mono" font-size="10.00"> &#160;401177: &#160;&#160;&#160;&#160;&#160;&#160;e8 c4 fe ff ff &#160;&#160;&#160;&#160;&#160;&#160;&#160;&#160;&#160;call &#160;&#160;401040 &lt;printf@plt&gt;</text>
<text text-anchor="start" x="101.5" y="-133.5" font-family="mono" font-size="10.00"> &#160;40117c: &#160;&#160;&#160;&#160;&#160;&#160;b8 00 00 00 00 &#160;&#160;&#160;&#160;&#160;&#160;&#160;&#160;&#160;mov &#160;&#160;&#160;$0x0,%eax</text>
<text text-anchor="start" x="101.5" y="-118.5" font-family="mono" font-size="10.00"> &#160;401181: &#160;&#160;&#160;&#160;&#160;&#160;48 83 c4 08 &#160;&#160;&#160;&#160;&#160;&#160;&#160;&#160;&#160;&#160;&#160;&#160;add &#160;&#160;&#160;$0x8,%rsp</text>
<text text-anchor="start" x="101.5" y="-103.5" font-family="mono" font-size="10.00"> &#160;401185: &#160;&#160;&#160;&#160;&#160;&#160;c3 &#160;&#160;&#160;&#160;&#160;&#160;&#160;&#160;&#160;&#160;&#160;&#160;&#160;&#160;&#160;&#160;&#160;&#160;&#160;&#160;&#160;ret</text>
<text text-anchor="start" x="101.5" y="-88.5" font-family="mono" font-size="10.00">...</text>
<text text-anchor="start" x="101.5" y="-73.5" font-family="mono" font-size="10.00">Disassembly of section .bss:</text>
<text text-anchor="start" x="101.5" y="-54.5" font-family="mono" font-size="10.00">0000000000404038 &lt;g&gt;:</text>
<polygon fill="#aaaacc" stroke="none" points="99.5,-34.5 99.5,-49.5 644.5,-49.5 644.5,-34.5 99.5,-34.5"/>
<text text-anchor="start" x="101.5" y="-39.5" font-family="mono" font-size="10.00"> &#160;404038: &#160;&#160;&#160;&#160;&#160;&#160;00 00 &#160;&#160;&#160;&#160;&#160;&#160;&#160;&#160;&#160;&#160;&#160;&#160;&#160;&#160;&#160;&#160;&#160;&#160;&#160;&#160;&#160;&#160;&#160;&#160;&#160;&#160;&#160;&#160;&#160;&#160;&#160;&#160;&#160;&#160;&#160;&#160;&#160;&#160;&#160;&#160;&#160;&#160;&#160;&#160;&#160;&#160;&#160;&#160;&#160;&#160;# extern int g;</text>
<polygon fill="#aaaacc" stroke="none" points="99.5,-19.5 99.5,-34.5 644.5,-34.5 644.5,-19.5 99.5,-19.5"/>
<text text-anchor="start" x="101.5" y="-24.5" font-family="mono" font-size="10.00"> &#160;&#160;&#160;&#160;&#160;&#160;&#160;&#160;&#160;&#160;&#160;&#160;&#160;&#160;&#160;&#160;&#160;&#160;&#160;&#160;&#160;&#160;&#160;404038: R_X86_64_COPY &#160;&#160;g@@Base</text>
<text text-anchor="start" x="101.5" y="-9.5" font-family="mono" font-size="10.00"> &#160;&#160;&#160;&#160;&#160;&#160;&#160;...</text>
<polygon fill="none" stroke="black" points="98,-4 98,-573 645,-573 645,-4 98,-4"/>
</g>
<!-- read g -->
<g id="node2" class="node">
<title>read g</title>
<text text-anchor="middle" x="742.5" y="-477" font-family="mono" font-size="10.00" fill="red">read g (STALE!)</text>
</g>
<!-- prog&#45;&gt;read g -->
<g id="edge1" class="edge">
<title>prog:e&#45;&gt;read g</title>
<path fill="none" stroke="red" d="M645.5,-440.5C645.5,-440.5 666.12,-448.88 688.25,-457.87"/>
<polygon fill="red" stroke="red" points="697.43,-461.6 686.48,-462 692.8,-459.72 688.17,-457.83 688.17,-457.83 688.17,-457.83 692.8,-459.72 689.86,-453.67 697.43,-461.6 697.43,-461.6"/>
</g>
<!-- read g  -->
<g id="node3" class="node">
<title>read g </title>
<text text-anchor="middle" x="742.5" y="-291" font-family="mono" font-size="10.00" fill="green">read g </text>
</g>
<!-- prog&#45;&gt;read g  -->
<g id="edge3" class="edge">
<title>prog:e&#45;&gt;read g </title>
<path fill="none" stroke="green" d="M645.5,-41.5C645.5,-41.5 689,-221.5 689,-221.5 689,-221.5 707.69,-247.13 722.76,-267.8"/>
<polygon fill="green" stroke="green" points="728.52,-275.7 718.99,-270.27 725.58,-271.66 722.63,-267.62 722.63,-267.62 722.63,-267.62 725.58,-271.66 726.27,-264.97 728.52,-275.7 728.52,-275.7"/>
</g>
<!-- read g &#160; -->
<g id="node4" class="node">
<title>read g &#160;</title>
<text text-anchor="middle" x="742.5" y="-116" font-family="mono" font-size="10.00" fill="green">read g &#160;</text>
</g>
<!-- prog&#45;&gt;read g &#160; -->
<g id="edge7" class="edge">
<title>prog:e&#45;&gt;read g &#160;</title>
<path fill="none" stroke="green" d="M645.5,-41.5C645.5,-41.5 683.41,-71.91 711.59,-94.51"/>
<polygon fill="green" stroke="green" points="719.23,-100.64 708.62,-97.89 715.33,-97.51 711.43,-94.38 711.43,-94.38 711.43,-94.38 715.33,-97.51 714.25,-90.87 719.23,-100.64 719.23,-100.64"/>
</g>
<!-- write g -->
<g id="node5" class="node">
<title>write g</title>
<text text-anchor="middle" x="742.5" y="-192" font-family="mono" font-size="10.00" fill="darkcyan">write g</text>
</g>
<!-- prog&#45;&gt;write g -->
<g id="edge5" class="edge">
<title>prog:e&#45;&gt;write g</title>
<path fill="none" stroke="darkcyan" d="M645.5,-255.5C645.5,-255.5 677.86,-234.94 705,-217.69"/>
<polygon fill="darkcyan" stroke="darkcyan" points="713.22,-212.47 707.19,-221.63 709,-215.15 704.78,-217.84 704.78,-217.84 704.78,-217.84 709,-215.15 702.36,-214.04 713.22,-212.47 713.22,-212.47"/>
</g>
<!-- copy g -->
<g id="node6" class="node">
<title>copy g</title>
<text text-anchor="middle" x="27" y="-239" font-family="mono" font-size="10.00" fill="blue">copy g</text>
</g>
<!-- prog&#45;&gt;copy g -->
<g id="edge9" class="edge">
<title>prog:w&#45;&gt;copy g</title>
<path fill="none" stroke="blue" d="M98.5,-440.5C98.5,-440.5 56.86,-322.95 37.58,-268.54"/>
<polygon fill="blue" stroke="blue" points="34.26,-259.16 41.84,-267.08 35.93,-263.87 37.6,-268.59 37.6,-268.59 37.6,-268.59 35.93,-263.87 33.35,-270.09 34.26,-259.16 34.26,-259.16"/>
</g>
<!-- read g&#45;&gt;prog -->
<g id="edge2" class="edge">
<title>read g&#45;&gt;prog:e</title>
<path fill="none" stroke="red" d="M698.55,-497.39C681.98,-504.3 664.59,-511.54 654.42,-515.79"/>
<polygon fill="red" stroke="red" points="645.5,-519.5 653,-511.5 650.12,-517.58 654.73,-515.65 654.73,-515.65 654.73,-515.65 650.12,-517.58 656.46,-519.81 645.5,-519.5 645.5,-519.5"/>
</g>
<!-- read g &#45;&gt;prog -->
<g id="edge4" class="edge">
<title>read g &#45;&gt;prog:e</title>
<path fill="none" stroke="green" d="M713.22,-300.28C693.53,-304.99 668.48,-310.99 655.04,-314.21"/>
<polygon fill="green" stroke="green" points="645.5,-316.5 654.18,-309.79 650.36,-315.34 655.22,-314.17 655.22,-314.17 655.22,-314.17 650.36,-315.34 656.27,-318.55 645.5,-316.5 645.5,-316.5"/>
</g>
<!-- read g &#160;&#45;&gt;prog -->
<g id="edge8" class="edge">
<title>read g &#160;&#45;&gt;prog:e</title>
<path fill="none" stroke="green" d="M719.23,-136.36C697.96,-153.42 667.12,-178.16 653.03,-189.46"/>
<polygon fill="green" stroke="green" points="645.5,-195.5 650.49,-185.73 649.4,-192.37 653.3,-189.24 653.3,-189.24 653.3,-189.24 649.4,-192.37 656.12,-192.75 645.5,-195.5 645.5,-195.5"/>
</g>
<!-- write g&#45;&gt;prog -->
<g id="edge6" class="edge">
<title>write g&#45;&gt;prog:e</title>
<path fill="none" stroke="darkcyan" d="M722.25,-176.53C707.27,-162.55 689,-145.5 689,-145.5 689,-145.5 659.73,-75.52 649.21,-50.37"/>
<polygon fill="darkcyan" stroke="darkcyan" points="645.5,-41.5 653.51,-48.99 647.43,-46.11 649.36,-50.73 649.36,-50.73 649.36,-50.73 647.43,-46.11 645.21,-52.46 645.5,-41.5 645.5,-41.5"/>
</g>
<!-- copy g&#45;&gt;prog -->
<g id="edge10" class="edge">
<title>copy g&#45;&gt;prog:w</title>
<path fill="none" stroke="blue" d="M34.26,-223.75C48.75,-182.64 84.21,-82.04 95.2,-50.86"/>
<polygon fill="blue" stroke="blue" points="98.5,-41.5 99.42,-52.43 96.84,-46.22 95.18,-50.93 95.18,-50.93 95.18,-50.93 96.84,-46.22 90.93,-49.44 98.5,-41.5 98.5,-41.5"/>
</g>
</g>
</svg>
