<?xml version="1.0" encoding="UTF-8" standalone="no"?>
<!DOCTYPE svg PUBLIC "-//W3C//DTD SVG 1.1//EN"
 "http://www.w3.org/Graphics/SVG/1.1/DTD/svg11.dtd">
<!-- Generated by graphviz version 8.1.0 (0)
 -->
<!-- Pages: 1 -->
<svg width="802pt" height="650pt"
 viewBox="0.00 0.00 802.00 649.75" xmlns="http://www.w3.org/2000/svg" xmlns:xlink="http://www.w3.org/1999/xlink">
<g id="graph0" class="graph" transform="scale(1 1) rotate(0) translate(4 645.75)">
<polygon fill="white" stroke="none" points="-4,4 -4,-645.75 798,-645.75 798,4 -4,4"/>
<!-- prog -->
<g id="node1" class="node">
<title>prog</title>
<text text-anchor="start" x="101" y="-625.25" font-family="mono" font-size="10.00">Disassembly of section .text:</text>
<text text-anchor="start" x="101" y="-608.5" font-family="mono" font-size="10.00">00000000000010f9 &lt;lib_g&gt;:</text>
<text text-anchor="start" x="101" y="-591.75" font-family="mono" font-size="10.00"> &#160;&#160;&#160;10f9: &#160;&#160;&#160;&#160;&#160;&#160;48 8d 05 20 2f 00 00 &#160;&#160;&#160;lea &#160;&#160;&#160;0x2f20(%rip),%rax &#160;&#160;&#160;&#160;&#160;&#160;&#160;# 4020 &lt;g&gt;</text>
<polygon fill="#ddffdd" stroke="none" points="99,-569.75 99,-586.5 643,-586.5 643,-569.75 99,-569.75"/>
<text text-anchor="start" x="101" y="-575" font-family="mono" font-size="10.00"> &#160;&#160;&#160;1100: &#160;&#160;&#160;&#160;&#160;&#160;8b 00 &#160;&#160;&#160;&#160;&#160;&#160;&#160;&#160;&#160;&#160;&#160;&#160;&#160;&#160;&#160;&#160;&#160;&#160;mov &#160;&#160;&#160;(%rax),%eax</text>
<text text-anchor="start" x="101" y="-558.25" font-family="mono" font-size="10.00"> &#160;&#160;&#160;1102: &#160;&#160;&#160;&#160;&#160;&#160;c3 &#160;&#160;&#160;&#160;&#160;&#160;&#160;&#160;&#160;&#160;&#160;&#160;&#160;&#160;&#160;&#160;&#160;&#160;&#160;&#160;&#160;ret</text>
<text text-anchor="start" x="101" y="-537.5" font-family="mono" font-size="10.00">Disassembly of section .data:</text>
<text text-anchor="start" x="101" y="-520.75" font-family="mono" font-size="10.00"> &#160;&#160;&#160;&#160;&#160;&#160;&#160;...</text>
<text text-anchor="start" x="101" y="-504" font-family="mono" font-size="10.00">0000000000004020 &lt;g&gt;:</text>
<polygon fill="#aaccaa" stroke="none" points="99,-482 99,-498.75 643,-498.75 643,-482 99,-482"/>
<text text-anchor="start" x="101" y="-487.25" font-family="mono" font-size="10.00"> &#160;&#160;&#160;4020: &#160;&#160;&#160;&#160;&#160;&#160;2a 00 &#160;&#160;&#160;&#160;&#160;&#160;&#160;&#160;&#160;&#160;&#160;&#160;&#160;&#160;&#160;&#160;&#160;&#160;&#160;&#160;&#160;&#160;&#160;&#160;&#160;&#160;&#160;&#160;&#160;&#160;&#160;&#160;&#160;&#160;&#160;&#160;&#160;&#160;&#160;&#160;&#160;&#160;&#160;&#160;&#160;&#160;&#160;&#160;&#160;&#160;# int g = 42;</text>
<text text-anchor="start" x="101" y="-470.5" font-family="mono" font-size="10.00"> &#160;&#160;&#160;&#160;&#160;&#160;&#160;...</text>
<text text-anchor="start" x="101" y="-449.75" font-family="mono" font-size="10.00">Disassembly of section .text:</text>
<text text-anchor="start" x="101" y="-433" font-family="mono" font-size="10.00"> &#160;&#160;&#160;&#160;&#160;&#160;&#160;...</text>
<text text-anchor="start" x="101" y="-416.25" font-family="mono" font-size="10.00">0000000000401136 &lt;main&gt;:</text>
<text text-anchor="start" x="101" y="-399.5" font-family="mono" font-size="10.00"> &#160;401136: &#160;&#160;&#160;&#160;&#160;&#160;48 83 ec 08 &#160;&#160;&#160;&#160;&#160;&#160;&#160;&#160;&#160;&#160;&#160;&#160;sub &#160;&#160;&#160;$0x8,%rsp</text>
<text text-anchor="start" x="101" y="-382.75" font-family="mono" font-size="10.00"> &#160;40113a: &#160;&#160;&#160;&#160;&#160;&#160;e8 f1 fe ff ff &#160;&#160;&#160;&#160;&#160;&#160;&#160;&#160;&#160;call &#160;&#160;401030 &lt;lib_g@plt&gt;</text>
<text text-anchor="start" x="101" y="-366" font-family="mono" font-size="10.00"> &#160;40113f: &#160;&#160;&#160;&#160;&#160;&#160;89 c2 &#160;&#160;&#160;&#160;&#160;&#160;&#160;&#160;&#160;&#160;&#160;&#160;&#160;&#160;&#160;&#160;&#160;&#160;mov &#160;&#160;&#160;%eax,%edx</text>
<polygon fill="#ddffdd" stroke="none" points="99,-344 99,-360.75 643,-360.75 643,-344 99,-344"/>
<text text-anchor="start" x="101" y="-349.25" font-family="mono" font-size="10.00"> &#160;401141: &#160;&#160;&#160;&#160;&#160;&#160;8b 35 f1 2e 00 00 &#160;&#160;&#160;&#160;&#160;&#160;mov &#160;&#160;&#160;0x2ef1(%rip),%esi &#160;&#160;&#160;&#160;&#160;&#160;&#160;# 404038 &lt;g@@Base&gt;</text>
<text text-anchor="start" x="101" y="-332.5" font-family="mono" font-size="10.00"> &#160;401147: &#160;&#160;&#160;&#160;&#160;&#160;bf 08 20 40 00 &#160;&#160;&#160;&#160;&#160;&#160;&#160;&#160;&#160;mov &#160;&#160;&#160;$0x402008,%edi</text>
<text text-anchor="start" x="101" y="-315.75" font-family="mono" font-size="10.00"> &#160;40114c: &#160;&#160;&#160;&#160;&#160;&#160;b8 00 00 00 00 &#160;&#160;&#160;&#160;&#160;&#160;&#160;&#160;&#160;mov &#160;&#160;&#160;$0x0,%eax</text>
<text text-anchor="start" x="101" y="-299" font-family="mono" font-size="10.00"> &#160;401151: &#160;&#160;&#160;&#160;&#160;&#160;e8 ea fe ff ff &#160;&#160;&#160;&#160;&#160;&#160;&#160;&#160;&#160;call &#160;&#160;401040 &lt;printf@plt&gt;</text>
<polygon fill="lightcyan" stroke="none" points="99,-277 99,-293.75 643,-293.75 643,-277 99,-277"/>
<text text-anchor="start" x="101" y="-282.25" font-family="mono" font-size="10.00"> &#160;401156: &#160;&#160;&#160;&#160;&#160;&#160;c7 05 d8 2e 00 00 4e &#160;&#160;&#160;movl &#160;&#160;$0xbc614e,0x2ed8(%rip) &#160;&#160;# 404038 &lt;g@@Base&gt;</text>
<text text-anchor="start" x="101" y="-265.5" font-family="mono" font-size="10.00"> &#160;40115d: &#160;&#160;&#160;&#160;&#160;&#160;61 bc 00</text>
<text text-anchor="start" x="101" y="-248.75" font-family="mono" font-size="10.00"> &#160;401160: &#160;&#160;&#160;&#160;&#160;&#160;e8 cb fe ff ff &#160;&#160;&#160;&#160;&#160;&#160;&#160;&#160;&#160;call &#160;&#160;401030 &lt;lib_g@plt&gt;</text>
<text text-anchor="start" x="101" y="-232" font-family="mono" font-size="10.00"> &#160;401165: &#160;&#160;&#160;&#160;&#160;&#160;89 c2 &#160;&#160;&#160;&#160;&#160;&#160;&#160;&#160;&#160;&#160;&#160;&#160;&#160;&#160;&#160;&#160;&#160;&#160;mov &#160;&#160;&#160;%eax,%edx</text>
<polygon fill="#ddffdd" stroke="none" points="99,-210 99,-226.75 643,-226.75 643,-210 99,-210"/>
<text text-anchor="start" x="101" y="-215.25" font-family="mono" font-size="10.00"> &#160;401167: &#160;&#160;&#160;&#160;&#160;&#160;8b 35 cb 2e 00 00 &#160;&#160;&#160;&#160;&#160;&#160;mov &#160;&#160;&#160;0x2ecb(%rip),%esi &#160;&#160;&#160;&#160;&#160;&#160;&#160;# 404038 &lt;g@@Base&gt;</text>
<text text-anchor="start" x="101" y="-198.5" font-family="mono" font-size="10.00"> &#160;40116d: &#160;&#160;&#160;&#160;&#160;&#160;bf 28 20 40 00 &#160;&#160;&#160;&#160;&#160;&#160;&#160;&#160;&#160;mov &#160;&#160;&#160;$0x402028,%edi</text>
<text text-anchor="start" x="101" y="-181.75" font-family="mono" font-size="10.00"> &#160;401172: &#160;&#160;&#160;&#160;&#160;&#160;b8 00 00 00 00 &#160;&#160;&#160;&#160;&#160;&#160;&#160;&#160;&#160;mov &#160;&#160;&#160;$0x0,%eax</text>
<text text-anchor="start" x="101" y="-165" font-family="mono" font-size="10.00"> &#160;401177: &#160;&#160;&#160;&#160;&#160;&#160;e8 c4 fe ff ff &#160;&#160;&#160;&#160;&#160;&#160;&#160;&#160;&#160;call &#160;&#160;401040 &lt;printf@plt&gt;</text>
<text text-anchor="start" x="101" y="-148.25" font-family="mono" font-size="10.00"> &#160;40117c: &#160;&#160;&#160;&#160;&#160;&#160;b8 00 00 00 00 &#160;&#160;&#160;&#160;&#160;&#160;&#160;&#160;&#160;mov &#160;&#160;&#160;$0x0,%eax</text>
<text text-anchor="start" x="101" y="-131.5" font-family="mono" font-size="10.00"> &#160;401181: &#160;&#160;&#160;&#160;&#160;&#160;48 83 c4 08 &#160;&#160;&#160;&#160;&#160;&#160;&#160;&#160;&#160;&#160;&#160;&#160;add &#160;&#160;&#160;$0x8,%rsp</text>
<text text-anchor="start" x="101" y="-114.75" font-family="mono" font-size="10.00"> &#160;401185: &#160;&#160;&#160;&#160;&#160;&#160;c3 &#160;&#160;&#160;&#160;&#160;&#160;&#160;&#160;&#160;&#160;&#160;&#160;&#160;&#160;&#160;&#160;&#160;&#160;&#160;&#160;&#160;ret</text>
<text text-anchor="start" x="101" y="-98" font-family="mono" font-size="10.00">...</text>
<text text-anchor="start" x="101" y="-81.25" font-family="mono" font-size="10.00">Disassembly of section .bss:</text>
<text text-anchor="start" x="101" y="-60.5" font-family="mono" font-size="10.00">0000000000404038 &lt;g&gt;:</text>
<polygon fill="#aaaacc" stroke="none" points="99,-38.5 99,-55.25 643,-55.25 643,-38.5 99,-38.5"/>
<text text-anchor="start" x="101" y="-43.75" font-family="mono" font-size="10.00"> &#160;404038: &#160;&#160;&#160;&#160;&#160;&#160;00 00 &#160;&#160;&#160;&#160;&#160;&#160;&#160;&#160;&#160;&#160;&#160;&#160;&#160;&#160;&#160;&#160;&#160;&#160;&#160;&#160;&#160;&#160;&#160;&#160;&#160;&#160;&#160;&#160;&#160;&#160;&#160;&#160;&#160;&#160;&#160;&#160;&#160;&#160;&#160;&#160;&#160;&#160;&#160;&#160;&#160;&#160;&#160;&#160;&#160;&#160;# extern int g;</text>
<polygon fill="#aaaacc" stroke="none" points="99,-21.75 99,-38.5 643,-38.5 643,-21.75 99,-21.75"/>
<text text-anchor="start" x="101" y="-27" font-family="mono" font-size="10.00"> &#160;&#160;&#160;&#160;&#160;&#160;&#160;&#160;&#160;&#160;&#160;&#160;&#160;&#160;&#160;&#160;&#160;&#160;&#160;&#160;&#160;&#160;&#160;404038: R_X86_64_COPY &#160;&#160;g@@Base</text>
<text text-anchor="start" x="101" y="-10.25" font-family="mono" font-size="10.00"> &#160;&#160;&#160;&#160;&#160;&#160;&#160;...</text>
<polygon fill="none" stroke="black" points="98,-4 98,-637.75 644,-637.75 644,-4 98,-4"/>
</g>
<!-- read g -->
<g id="node2" class="node">
<title>read g</title>
<text text-anchor="middle" x="741" y="-530.75" font-family="mono" font-size="10.00" fill="red">read g (STALE!)</text>
</g>
<!-- prog&#45;&gt;read g -->
<g id="edge1" class="edge">
<title>prog:e&#45;&gt;read g</title>
<path fill="none" stroke="red" d="M644,-490.88C644,-490.88 667.22,-501.28 690.83,-511.85"/>
<polygon fill="red" stroke="red" points="699.84,-515.89 688.88,-515.91 695.28,-513.84 690.72,-511.8 690.72,-511.8 690.72,-511.8 695.28,-513.84 692.56,-507.69 699.84,-515.89 699.84,-515.89"/>
</g>
<!-- read g  -->
<g id="node3" class="node">
<title>read g </title>
<text text-anchor="middle" x="741" y="-321.75" font-family="mono" font-size="10.00" fill="green">read g </text>
</g>
<!-- prog&#45;&gt;read g  -->
<g id="edge3" class="edge">
<title>prog:e&#45;&gt;read g </title>
<path fill="none" stroke="green" d="M644,-46.88C644,-46.88 688,-241.88 688,-241.88 688,-241.88 708.57,-274.71 723.84,-299.08"/>
<polygon fill="green" stroke="green" points="728.97,-307.27 719.85,-301.19 726.32,-303.04 723.66,-298.8 723.66,-298.8 723.66,-298.8 726.32,-303.04 727.48,-296.41 728.97,-307.27 728.97,-307.27"/>
</g>
<!-- read g &#160; -->
<g id="node4" class="node">
<title>read g &#160;</title>
<text text-anchor="middle" x="741" y="-129.75" font-family="mono" font-size="10.00" fill="green">read g &#160;</text>
</g>
<!-- prog&#45;&gt;read g &#160; -->
<g id="edge7" class="edge">
<title>prog:e&#45;&gt;read g &#160;</title>
<path fill="none" stroke="green" d="M644,-46.88C644,-46.88 684.44,-83.1 712.83,-108.53"/>
<polygon fill="green" stroke="green" points="720.11,-115.06 709.66,-111.73 716.38,-111.72 712.66,-108.38 712.66,-108.38 712.66,-108.38 716.38,-111.72 715.66,-105.03 720.11,-115.06 720.11,-115.06"/>
</g>
<!-- write g -->
<g id="node5" class="node">
<title>write g</title>
<text text-anchor="middle" x="741" y="-211.75" font-family="mono" font-size="10.00" fill="darkcyan">write g</text>
</g>
<!-- prog&#45;&gt;write g -->
<g id="edge5" class="edge">
<title>prog:e&#45;&gt;write g</title>
<path fill="none" stroke="darkcyan" d="M644,-284.88C644,-284.88 679.69,-258.85 707.55,-238.54"/>
<polygon fill="darkcyan" stroke="darkcyan" points="715.53,-232.72 710.1,-242.25 711.49,-235.67 707.45,-238.61 707.45,-238.61 707.45,-238.61 711.49,-235.67 704.8,-234.98 715.53,-232.72 715.53,-232.72"/>
</g>
<!-- copy g -->
<g id="node6" class="node">
<title>copy g</title>
<text text-anchor="middle" x="27" y="-265.75" font-family="mono" font-size="10.00" fill="blue">copy g</text>
</g>
<!-- prog&#45;&gt;copy g -->
<g id="edge9" class="edge">
<title>prog:w&#45;&gt;copy g</title>
<path fill="none" stroke="blue" d="M98,-490.88C98,-490.88 55.3,-355.47 36.6,-296.16"/>
<polygon fill="blue" stroke="blue" points="33.61,-286.67 40.91,-294.85 35.11,-291.44 36.62,-296.2 36.62,-296.2 36.62,-296.2 35.11,-291.44 32.33,-297.56 33.61,-286.67 33.61,-286.67"/>
</g>
<!-- read g&#45;&gt;prog -->
<g id="edge2" class="edge">
<title>read g&#45;&gt;prog:e</title>
<path fill="none" stroke="red" d="M700.95,-551.77C683.3,-559.86 663.98,-568.72 652.99,-573.76"/>
<polygon fill="red" stroke="red" points="644,-577.88 651.22,-569.62 648.55,-575.79 653.09,-573.71 653.09,-573.71 653.09,-573.71 648.55,-575.79 654.97,-577.8 644,-577.88 644,-577.88"/>
</g>
<!-- read g &#45;&gt;prog -->
<g id="edge4" class="edge">
<title>read g &#45;&gt;prog:e</title>
<path fill="none" stroke="green" d="M712.23,-332.97C692.3,-338.79 666.66,-346.26 653.2,-350.19"/>
<polygon fill="green" stroke="green" points="644,-352.88 652.34,-345.75 648.8,-351.47 653.6,-350.07 653.6,-350.07 653.6,-350.07 648.8,-351.47 654.86,-354.39 644,-352.88 644,-352.88"/>
</g>
<!-- read g &#160;&#45;&gt;prog -->
<g id="edge8" class="edge">
<title>read g &#160;&#45;&gt;prog:e</title>
<path fill="none" stroke="green" d="M720.11,-150.49C698.8,-169.35 666.08,-198.33 651.48,-211.25"/>
<polygon fill="green" stroke="green" points="644,-217.88 648.5,-207.88 647.74,-214.56 651.49,-211.25 651.49,-211.25 651.49,-211.25 647.74,-214.56 654.47,-214.62 644,-217.88 644,-217.88"/>
</g>
<!-- write g&#45;&gt;prog -->
<g id="edge6" class="edge">
<title>write g&#45;&gt;prog:e</title>
<path fill="none" stroke="darkcyan" d="M723.26,-197.17C708.06,-181.09 688,-159.88 688,-159.88 688,-159.88 658.11,-83.11 647.6,-56.12"/>
<polygon fill="darkcyan" stroke="darkcyan" points="644,-46.88 651.82,-54.56 645.81,-51.53 647.63,-56.19 647.63,-56.19 647.63,-56.19 645.81,-51.53 643.44,-57.83 644,-46.88 644,-46.88"/>
</g>
<!-- copy g&#45;&gt;prog -->
<g id="edge10" class="edge">
<title>copy g&#45;&gt;prog:w</title>
<path fill="none" stroke="blue" d="M33.61,-251.08C47.76,-206.22 84.5,-89.68 95.1,-56.07"/>
<polygon fill="blue" stroke="blue" points="98,-46.88 99.28,-57.77 96.5,-51.64 94.99,-56.41 94.99,-56.41 94.99,-56.41 96.5,-51.64 90.7,-55.06 98,-46.88 98,-46.88"/>
</g>
</g>
</svg>
