<?xml version="1.0" encoding="UTF-8" standalone="no"?>
<!DOCTYPE svg PUBLIC "-//W3C//DTD SVG 1.1//EN"
 "http://www.w3.org/Graphics/SVG/1.1/DTD/svg11.dtd">
<!-- Generated by graphviz version 9.0.0 (0)
 -->
<!-- Pages: 1 -->
<svg width="734pt" height="512pt"
 viewBox="0.00 0.00 734.00 511.75" xmlns="http://www.w3.org/2000/svg" xmlns:xlink="http://www.w3.org/1999/xlink">
<g id="graph0" class="graph" transform="scale(1 1) rotate(0) translate(4 507.75)">
<polygon fill="white" stroke="none" points="-4,4 -4,-507.75 730,-507.75 730,4 -4,4"/>
<!-- prog -->
<g id="node1" class="node">
<title>prog</title>
<text text-anchor="start" x="105" y="-487.25" font-family="mono" font-size="10.00">Disassembly of section .text:</text>
<text text-anchor="start" x="105" y="-470.5" font-family="mono" font-size="10.00"> &#160;&#160;&#160;&#160;&#160;&#160;&#160;...</text>
<text text-anchor="start" x="105" y="-453.75" font-family="mono" font-size="10.00">0000000000401126 &lt;lib_g&gt;:</text>
<polygon fill="#ddffdd" stroke="none" points="103,-431.75 103,-448.5 617,-448.5 617,-431.75 103,-431.75"/>
<text text-anchor="start" x="105" y="-437" font-family="mono" font-size="10.00"> &#160;401126: &#160;&#160;&#160;&#160;&#160;&#160;8b 05 04 2f 00 00 &#160;&#160;&#160;&#160;&#160;&#160;mov &#160;&#160;&#160;0x2f04(%rip),%eax &#160;&#160;&#160;&#160;&#160;&#160;&#160;# 404030 &lt;g&gt;</text>
<text text-anchor="start" x="105" y="-420.25" font-family="mono" font-size="10.00"> &#160;40112c: &#160;&#160;&#160;&#160;&#160;&#160;c3 &#160;&#160;&#160;&#160;&#160;&#160;&#160;&#160;&#160;&#160;&#160;&#160;&#160;&#160;&#160;&#160;&#160;&#160;&#160;&#160;&#160;ret</text>
<text text-anchor="start" x="105" y="-399.5" font-family="mono" font-size="10.00">000000000040112d &lt;main&gt;:</text>
<text text-anchor="start" x="105" y="-382.75" font-family="mono" font-size="10.00"> &#160;40112d: &#160;&#160;&#160;&#160;&#160;&#160;48 83 ec 08 &#160;&#160;&#160;&#160;&#160;&#160;&#160;&#160;&#160;&#160;&#160;&#160;sub &#160;&#160;&#160;$0x8,%rsp</text>
<text text-anchor="start" x="105" y="-366" font-family="mono" font-size="10.00"> &#160;401131: &#160;&#160;&#160;&#160;&#160;&#160;e8 f0 ff ff ff &#160;&#160;&#160;&#160;&#160;&#160;&#160;&#160;&#160;call &#160;&#160;401126 &lt;lib_g&gt;</text>
<text text-anchor="start" x="105" y="-349.25" font-family="mono" font-size="10.00"> &#160;401136: &#160;&#160;&#160;&#160;&#160;&#160;89 c2 &#160;&#160;&#160;&#160;&#160;&#160;&#160;&#160;&#160;&#160;&#160;&#160;&#160;&#160;&#160;&#160;&#160;&#160;mov &#160;&#160;&#160;%eax,%edx</text>
<polygon fill="#ddffdd" stroke="none" points="103,-327.25 103,-344 617,-344 617,-327.25 103,-327.25"/>
<text text-anchor="start" x="105" y="-332.5" font-family="mono" font-size="10.00"> &#160;401138: &#160;&#160;&#160;&#160;&#160;&#160;8b 35 f2 2e 00 00 &#160;&#160;&#160;&#160;&#160;&#160;mov &#160;&#160;&#160;0x2ef2(%rip),%esi &#160;&#160;&#160;&#160;&#160;&#160;&#160;# 404030 &lt;g&gt;</text>
<text text-anchor="start" x="105" y="-315.75" font-family="mono" font-size="10.00"> &#160;40113e: &#160;&#160;&#160;&#160;&#160;&#160;bf 08 20 40 00 &#160;&#160;&#160;&#160;&#160;&#160;&#160;&#160;&#160;mov &#160;&#160;&#160;$0x402008,%edi</text>
<text text-anchor="start" x="105" y="-299" font-family="mono" font-size="10.00"> &#160;401143: &#160;&#160;&#160;&#160;&#160;&#160;b8 00 00 00 00 &#160;&#160;&#160;&#160;&#160;&#160;&#160;&#160;&#160;mov &#160;&#160;&#160;$0x0,%eax</text>
<text text-anchor="start" x="105" y="-282.25" font-family="mono" font-size="10.00"> &#160;401148: &#160;&#160;&#160;&#160;&#160;&#160;e8 e3 fe ff ff &#160;&#160;&#160;&#160;&#160;&#160;&#160;&#160;&#160;call &#160;&#160;401030 &lt;printf@plt&gt;</text>
<polygon fill="lightcyan" stroke="none" points="103,-260.25 103,-277 617,-277 617,-260.25 103,-260.25"/>
<text text-anchor="start" x="105" y="-265.5" font-family="mono" font-size="10.00"> &#160;40114d: &#160;&#160;&#160;&#160;&#160;&#160;c7 05 d9 2e 00 00 4e &#160;&#160;&#160;movl &#160;&#160;$0xbc614e,0x2ed9(%rip) &#160;&#160;# 404030 &lt;g&gt;</text>
<text text-anchor="start" x="105" y="-248.75" font-family="mono" font-size="10.00"> &#160;401154: &#160;&#160;&#160;&#160;&#160;&#160;61 bc 00</text>
<text text-anchor="start" x="105" y="-232" font-family="mono" font-size="10.00"> &#160;401157: &#160;&#160;&#160;&#160;&#160;&#160;e8 ca ff ff ff &#160;&#160;&#160;&#160;&#160;&#160;&#160;&#160;&#160;call &#160;&#160;401126 &lt;lib_g&gt;</text>
<text text-anchor="start" x="105" y="-215.25" font-family="mono" font-size="10.00"> &#160;40115c: &#160;&#160;&#160;&#160;&#160;&#160;89 c2 &#160;&#160;&#160;&#160;&#160;&#160;&#160;&#160;&#160;&#160;&#160;&#160;&#160;&#160;&#160;&#160;&#160;&#160;mov &#160;&#160;&#160;%eax,%edx</text>
<polygon fill="#ddffdd" stroke="none" points="103,-193.25 103,-210 617,-210 617,-193.25 103,-193.25"/>
<text text-anchor="start" x="105" y="-198.5" font-family="mono" font-size="10.00"> &#160;40115e: &#160;&#160;&#160;&#160;&#160;&#160;8b 35 cc 2e 00 00 &#160;&#160;&#160;&#160;&#160;&#160;mov &#160;&#160;&#160;0x2ecc(%rip),%esi &#160;&#160;&#160;&#160;&#160;&#160;&#160;# 404030 &lt;g&gt;</text>
<text text-anchor="start" x="105" y="-181.75" font-family="mono" font-size="10.00"> &#160;401164: &#160;&#160;&#160;&#160;&#160;&#160;bf 28 20 40 00 &#160;&#160;&#160;&#160;&#160;&#160;&#160;&#160;&#160;mov &#160;&#160;&#160;$0x402028,%edi</text>
<text text-anchor="start" x="105" y="-165" font-family="mono" font-size="10.00"> &#160;401169: &#160;&#160;&#160;&#160;&#160;&#160;b8 00 00 00 00 &#160;&#160;&#160;&#160;&#160;&#160;&#160;&#160;&#160;mov &#160;&#160;&#160;$0x0,%eax</text>
<text text-anchor="start" x="105" y="-148.25" font-family="mono" font-size="10.00"> &#160;40116e: &#160;&#160;&#160;&#160;&#160;&#160;e8 bd fe ff ff &#160;&#160;&#160;&#160;&#160;&#160;&#160;&#160;&#160;call &#160;&#160;401030 &lt;printf@plt&gt;</text>
<text text-anchor="start" x="105" y="-131.5" font-family="mono" font-size="10.00"> &#160;401173: &#160;&#160;&#160;&#160;&#160;&#160;b8 00 00 00 00 &#160;&#160;&#160;&#160;&#160;&#160;&#160;&#160;&#160;mov &#160;&#160;&#160;$0x0,%eax</text>
<text text-anchor="start" x="105" y="-114.75" font-family="mono" font-size="10.00"> &#160;401178: &#160;&#160;&#160;&#160;&#160;&#160;48 83 c4 08 &#160;&#160;&#160;&#160;&#160;&#160;&#160;&#160;&#160;&#160;&#160;&#160;add &#160;&#160;&#160;$0x8,%rsp</text>
<text text-anchor="start" x="105" y="-98" font-family="mono" font-size="10.00"> &#160;40117c: &#160;&#160;&#160;&#160;&#160;&#160;c3 &#160;&#160;&#160;&#160;&#160;&#160;&#160;&#160;&#160;&#160;&#160;&#160;&#160;&#160;&#160;&#160;&#160;&#160;&#160;&#160;&#160;ret</text>
<text text-anchor="start" x="105" y="-77.25" font-family="mono" font-size="10.00">Disassembly of section .data:</text>
<text text-anchor="start" x="105" y="-60.5" font-family="mono" font-size="10.00"> &#160;&#160;&#160;&#160;&#160;&#160;&#160;...</text>
<text text-anchor="start" x="105" y="-43.75" font-family="mono" font-size="10.00">0000000000404030 &lt;g&gt;:</text>
<polygon fill="#aaccaa" stroke="none" points="103,-21.75 103,-38.5 617,-38.5 617,-21.75 103,-21.75"/>
<text text-anchor="start" x="105" y="-27" font-family="mono" font-size="10.00"> &#160;404030: &#160;&#160;&#160;&#160;&#160;&#160;2a 00 &#160;&#160;&#160;&#160;&#160;&#160;&#160;&#160;&#160;&#160;&#160;&#160;&#160;&#160;&#160;&#160;&#160;&#160;&#160;&#160;&#160;&#160;&#160;&#160;&#160;&#160;&#160;&#160;&#160;&#160;&#160;&#160;&#160;&#160;&#160;&#160;&#160;&#160;&#160;&#160;&#160;&#160;&#160;&#160;&#160;&#160;&#160;&#160;&#160;&#160;# int g = 42;</text>
<text text-anchor="start" x="105" y="-10.25" font-family="mono" font-size="10.00"> &#160;&#160;&#160;&#160;&#160;&#160;&#160;...</text>
<polygon fill="none" stroke="black" points="102,-4 102,-499.75 618,-499.75 618,-4 102,-4"/>
</g>
<!-- read g -->
<g id="node2" class="node">
<title>read g</title>
<text text-anchor="middle" x="694" y="-328.75" font-family="mono" font-size="10.00" fill="green">read g</text>
</g>
<!-- prog&#45;&gt;read g -->
<g id="edge1" class="edge">
<title>prog:e&#45;&gt;read g</title>
<path fill="none" stroke="green" d="M618,-29.88C618,-29.88 662,-279.88 662,-279.88 662,-279.88 669.22,-291.98 676.69,-304.51"/>
<polygon fill="green" stroke="green" points="681.71,-312.93 672.72,-306.65 679.77,-309.68 676.59,-304.34 676.59,-304.34 676.59,-304.34 679.77,-309.68 680.45,-302.04 681.71,-312.93"/>
</g>
<!-- read g  -->
<g id="node3" class="node">
<title>read g </title>
<text text-anchor="middle" x="694" y="-249.75" font-family="mono" font-size="10.00" fill="green">read g </text>
</g>
<!-- prog&#45;&gt;read g  -->
<g id="edge3" class="edge">
<title>prog:e&#45;&gt;read g </title>
<path fill="none" stroke="green" d="M618,-29.88C618,-29.88 663.37,-164.77 683.53,-224.73"/>
<polygon fill="green" stroke="green" points="686.6,-233.85 679.15,-225.8 685.4,-230.26 683.41,-224.37 683.41,-224.37 683.41,-224.37 685.4,-230.26 687.68,-222.94 686.6,-233.85"/>
</g>
<!-- read g &#160; -->
<g id="node4" class="node">
<title>read g &#160;</title>
<text text-anchor="middle" x="694" y="-112.75" font-family="mono" font-size="10.00" fill="green">read g &#160;</text>
</g>
<!-- prog&#45;&gt;read g &#160; -->
<g id="edge7" class="edge">
<title>prog:e&#45;&gt;read g &#160;</title>
<path fill="none" stroke="green" d="M618,-29.88C618,-29.88 648.26,-64.58 670.34,-89.89"/>
<polygon fill="green" stroke="green" points="676.66,-97.14 666.69,-92.56 674.17,-94.29 670.09,-89.6 670.09,-89.6 670.09,-89.6 674.17,-94.29 673.48,-86.64 676.66,-97.14"/>
</g>
<!-- write g -->
<g id="node5" class="node">
<title>write g</title>
<text text-anchor="middle" x="29" y="-146.75" font-family="mono" font-size="10.00" fill="darkcyan">write g</text>
</g>
<!-- prog&#45;&gt;write g -->
<g id="edge5" class="edge">
<title>prog:w&#45;&gt;write g</title>
<path fill="none" stroke="darkcyan" d="M102,-268.88C102,-268.88 67.63,-212.07 46.38,-176.95"/>
<polygon fill="darkcyan" stroke="darkcyan" points="41.41,-168.73 50.44,-174.96 43.37,-171.97 46.59,-177.29 46.59,-177.29 46.59,-177.29 43.37,-171.97 42.74,-179.62 41.41,-168.73"/>
</g>
<!-- read g&#45;&gt;prog -->
<g id="edge2" class="edge">
<title>read g&#45;&gt;prog:e</title>
<path fill="none" stroke="green" d="M680.62,-349.71C664.47,-372.95 636.84,-412.75 624.4,-430.66"/>
<polygon fill="green" stroke="green" points="618.69,-438.87 620.7,-428.09 620.85,-435.77 624.4,-430.66 624.4,-430.66 624.4,-430.66 620.85,-435.77 628.1,-433.23 618.69,-438.87"/>
</g>
<!-- read g &#45;&gt;prog -->
<g id="edge4" class="edge">
<title>read g &#45;&gt;prog:e</title>
<path fill="none" stroke="green" d="M677.09,-270.48C661.1,-288.18 637.15,-314.68 625.25,-327.85"/>
<polygon fill="green" stroke="green" points="618.82,-334.97 622.18,-324.53 621.35,-332.17 625.52,-327.55 625.52,-327.55 625.52,-327.55 621.35,-332.17 628.86,-330.57 618.82,-334.97"/>
</g>
<!-- read g &#160;&#45;&gt;prog -->
<g id="edge8" class="edge">
<title>read g &#160;&#45;&gt;prog:e</title>
<path fill="none" stroke="green" d="M677.46,-133.69C661.5,-152 637.34,-179.7 625.33,-193.47"/>
<polygon fill="green" stroke="green" points="618.8,-200.96 621.98,-190.46 621.29,-198.11 625.37,-193.42 625.37,-193.42 625.37,-193.42 621.29,-198.11 628.76,-196.38 618.8,-200.96"/>
</g>
<!-- write g&#45;&gt;prog -->
<g id="edge6" class="edge">
<title>write g&#45;&gt;prog:w</title>
<path fill="none" stroke="darkcyan" d="M40.78,-131.91C56.31,-106.02 84.44,-59.14 96.39,-39.23"/>
<polygon fill="darkcyan" stroke="darkcyan" points="101.37,-30.92 100.09,-41.81 99.43,-34.16 96.23,-39.49 96.23,-39.49 96.23,-39.49 99.43,-34.16 92.37,-37.18 101.37,-30.92"/>
</g>
</g>
</svg>
