<?xml version="1.0" encoding="UTF-8" standalone="no"?>
<!DOCTYPE svg PUBLIC "-//W3C//DTD SVG 1.1//EN"
 "http://www.w3.org/Graphics/SVG/1.1/DTD/svg11.dtd">
<!-- Generated by graphviz version 12.1.1 (0)
 -->
<!-- Pages: 1 -->
<svg width="572pt" height="186pt"
 viewBox="0.00 0.00 572.00 185.50" xmlns="http://www.w3.org/2000/svg" xmlns:xlink="http://www.w3.org/1999/xlink">
<g id="graph0" class="graph" transform="scale(1 1) rotate(0) translate(4 181.5)">
<polygon fill="white" stroke="none" points="-4,4 -4,-181.5 568,-181.5 568,4 -4,4"/>
<!-- prog -->
<g id="node1" class="node">
<title>prog</title>
<text text-anchor="start" x="105" y="-161" font-family="mono" font-size="10.00">/* lib.c */</text>
<polygon fill="#aaccaa" stroke="none" points="103,-139 103,-155.75 455,-155.75 455,-139 103,-139"/>
<text text-anchor="start" x="105" y="-144.25" font-family="mono" font-size="10.00">int g = 42;</text>
<text text-anchor="start" x="105" y="-127.5" font-family="mono" font-size="10.00"> </text>
<polygon fill="#ddffdd" stroke="none" points="103,-105.5 103,-122.25 455,-122.25 455,-105.5 103,-105.5"/>
<text text-anchor="start" x="105" y="-110.75" font-family="mono" font-size="10.00">int lib_g(void) { return g; }</text>
<text text-anchor="start" x="105" y="-94" font-family="mono" font-size="10.00">/* prog.c */</text>
<text text-anchor="start" x="105" y="-77.25" font-family="mono" font-size="10.00">int main() {</text>
<polygon fill="#ddffdd" stroke="none" points="103,-55.25 103,-72 455,-72 455,-55.25 103,-55.25"/>
<text text-anchor="start" x="105" y="-60.5" font-family="mono" font-size="10.00"> &#160;&#160;&#160;printf(&quot;before: main.g=%i; lib_g()=%i\n&quot;, g, lib_g());</text>
<polygon fill="lightcyan" stroke="none" points="103,-38.5 103,-55.25 455,-55.25 455,-38.5 103,-38.5"/>
<text text-anchor="start" x="105" y="-43.75" font-family="mono" font-size="10.00"> &#160;&#160;&#160;g = 12345678;</text>
<polygon fill="#ddffdd" stroke="none" points="103,-21.75 103,-38.5 455,-38.5 455,-21.75 103,-21.75"/>
<text text-anchor="start" x="105" y="-27" font-family="mono" font-size="10.00"> &#160;&#160;&#160;printf(&quot;before: main.g=%i; lib_g()=%i\n&quot;, g, lib_g());</text>
<text text-anchor="start" x="105" y="-10.25" font-family="mono" font-size="10.00">}</text>
<polygon fill="black" stroke="black" points="102,-105.5 102,-105.5 456,-105.5 456,-105.5 102,-105.5"/>
<polygon fill="none" stroke="black" points="102,-4 102,-173.5 456,-173.5 456,-4 102,-4"/>
</g>
<!-- read g -->
<g id="node2" class="node">
<title>read g</title>
<text text-anchor="middle" x="532" y="-139.62" font-family="mono" font-size="10.00" fill="green">read g</text>
</g>
<!-- prog&#45;&gt;read g -->
<g id="edge1" class="edge">
<title>prog:e&#45;&gt;read g</title>
<path fill="none" stroke="green" d="M456,-147.38C456,-147.38 475.21,-146.19 494.19,-145.02"/>
<polygon fill="green" stroke="green" points="503.97,-144.42 494.27,-149.52 500.2,-144.65 493.99,-145.03 493.99,-145.03 493.99,-145.03 500.2,-144.65 493.72,-140.54 503.97,-144.42"/>
</g>
<!-- read g  -->
<g id="node3" class="node">
<title>read g </title>
<text text-anchor="middle" x="532" y="-84.62" font-family="mono" font-size="10.00" fill="green">read g </text>
</g>
<!-- prog&#45;&gt;read g  -->
<g id="edge3" class="edge">
<title>prog:e&#45;&gt;read g </title>
<path fill="none" stroke="green" d="M456,-147.38C456,-147.38 479.28,-128.87 499.9,-112.48"/>
<polygon fill="green" stroke="green" points="507.54,-106.4 502.52,-116.14 504.58,-108.75 499.72,-112.62 499.72,-112.62 499.72,-112.62 504.58,-108.75 496.92,-109.1 507.54,-106.4"/>
</g>
<!-- read g &#160; -->
<g id="node4" class="node">
<title>read g &#160;</title>
<text text-anchor="middle" x="532" y="-28.62" font-family="mono" font-size="10.00" fill="green">read g &#160;</text>
</g>
<!-- prog&#45;&gt;read g &#160; -->
<g id="edge7" class="edge">
<title>prog:e&#45;&gt;read g &#160;</title>
<path fill="none" stroke="green" d="M456,-147.38C456,-147.38 500,-60.75 500,-60.75 500,-60.75 501.56,-59.29 503.97,-57.03"/>
<polygon fill="green" stroke="green" points="511.01,-50.45 506.78,-60.57 508.25,-53.04 503.7,-57.28 503.7,-57.28 503.7,-57.28 508.25,-53.04 500.63,-54 511.01,-50.45"/>
</g>
<!-- write g -->
<g id="node5" class="node">
<title>write g</title>
<text text-anchor="middle" x="29" y="-93.62" font-family="mono" font-size="10.00" fill="darkcyan">write g</text>
</g>
<!-- prog&#45;&gt;write g -->
<g id="edge5" class="edge">
<title>prog:w&#45;&gt;write g</title>
<path fill="none" stroke="darkcyan" d="M102,-46.88C102,-46.88 83.18,-59.91 64.78,-72.66"/>
<polygon fill="darkcyan" stroke="darkcyan" points="56.59,-78.33 62.25,-68.94 59.7,-76.18 64.81,-72.64 64.81,-72.64 64.81,-72.64 59.7,-76.18 67.37,-76.34 56.59,-78.33"/>
</g>
<!-- read g&#45;&gt;prog -->
<g id="edge2" class="edge">
<title>read g&#45;&gt;prog:e</title>
<path fill="none" stroke="green" d="M505.19,-132.81C491.8,-127.66 476.2,-121.65 466.22,-117.81"/>
<polygon fill="green" stroke="green" points="457.14,-114.31 468.09,-113.71 460.67,-115.67 466.47,-117.91 466.47,-117.91 466.47,-117.91 460.67,-115.67 464.85,-122.11 457.14,-114.31"/>
</g>
<!-- read g &#45;&gt;prog -->
<g id="edge4" class="edge">
<title>read g &#45;&gt;prog:e</title>
<path fill="none" stroke="green" d="M503.07,-78.77C490.25,-74.64 475.82,-70 466.35,-66.96"/>
<polygon fill="green" stroke="green" points="457.16,-64 468.06,-62.78 460.76,-65.16 466.68,-67.06 466.68,-67.06 466.68,-67.06 460.76,-65.16 465.3,-71.34 457.16,-64"/>
</g>
<!-- read g &#160;&#45;&gt;prog -->
<g id="edge8" class="edge">
<title>read g &#160;&#45;&gt;prog:e</title>
<path fill="none" stroke="green" d="M500.06,-31.08C488.28,-30.82 475.6,-30.55 466.89,-30.36"/>
<polygon fill="green" stroke="green" points="457.22,-30.15 467.31,-25.87 461,-30.23 467.22,-30.37 467.22,-30.37 467.22,-30.37 461,-30.23 467.12,-34.87 457.22,-30.15"/>
</g>
<!-- write g&#45;&gt;prog -->
<g id="edge6" class="edge">
<title>write g&#45;&gt;prog:w</title>
<path fill="none" stroke="darkcyan" d="M55.59,-114.74C68.68,-123.95 83.79,-134.57 93.12,-141.13"/>
<polygon fill="darkcyan" stroke="darkcyan" points="101,-146.67 90.23,-144.6 97.91,-144.5 92.82,-140.92 92.82,-140.92 92.82,-140.92 97.91,-144.5 95.41,-137.24 101,-146.67"/>
</g>
</g>
</svg>
