<?xml version="1.0" encoding="UTF-8" standalone="no"?>
<!DOCTYPE svg PUBLIC "-//W3C//DTD SVG 1.1//EN"
 "http://www.w3.org/Graphics/SVG/1.1/DTD/svg11.dtd">
<!-- Generated by graphviz version 10.0.1 (0)
 -->
<!-- Pages: 1 -->
<svg width="572pt" height="186pt"
 viewBox="0.00 0.00 572.00 185.50" xmlns="http://www.w3.org/2000/svg" xmlns:xlink="http://www.w3.org/1999/xlink">
<g id="graph0" class="graph" transform="scale(1 1) rotate(0) translate(4 181.5)">
<polygon fill="white" stroke="none" points="-4,4 -4,-181.5 568,-181.5 568,4 -4,4"/>
<!-- prog -->
<g id="node1" class="node">
<title>prog</title>
<text text-anchor="start" x="105" y="-161" font-family="mono" font-size="10.00">/* lib.c */</text>
<polygon fill="#aaccaa" stroke="none" points="103,-139 103,-155.75 455,-155.75 455,-139 103,-139"/>
<text text-anchor="start" x="105" y="-144.25" font-family="mono" font-size="10.00">int g = 42;</text>
<text text-anchor="start" x="105" y="-127.5" font-family="mono" font-size="10.00"> </text>
<polygon fill="#ddffdd" stroke="none" points="103,-105.5 103,-122.25 455,-122.25 455,-105.5 103,-105.5"/>
<text text-anchor="start" x="105" y="-110.75" font-family="mono" font-size="10.00">int lib_g(void) { return g; }</text>
<text text-anchor="start" x="105" y="-94" font-family="mono" font-size="10.00">/* prog.c */</text>
<text text-anchor="start" x="105" y="-77.25" font-family="mono" font-size="10.00">int main() {</text>
<polygon fill="#ddffdd" stroke="none" points="103,-55.25 103,-72 455,-72 455,-55.25 103,-55.25"/>
<text text-anchor="start" x="105" y="-60.5" font-family="mono" font-size="10.00"> &#160;&#160;&#160;printf(&quot;before: main.g=%i; lib_g()=%i\n&quot;, g, lib_g());</text>
<polygon fill="lightcyan" stroke="none" points="103,-38.5 103,-55.25 455,-55.25 455,-38.5 103,-38.5"/>
<text text-anchor="start" x="105" y="-43.75" font-family="mono" font-size="10.00"> &#160;&#160;&#160;g = 12345678;</text>
<polygon fill="#ddffdd" stroke="none" points="103,-21.75 103,-38.5 455,-38.5 455,-21.75 103,-21.75"/>
<text text-anchor="start" x="105" y="-27" font-family="mono" font-size="10.00"> &#160;&#160;&#160;printf(&quot;before: main.g=%i; lib_g()=%i\n&quot;, g, lib_g());</text>
<text text-anchor="start" x="105" y="-10.25" font-family="mono" font-size="10.00">}</text>
<polygon fill="black" stroke="black" points="102,-105.5 102,-105.5 456,-105.5 456,-105.5 102,-105.5"/>
<polygon fill="none" stroke="black" points="102,-4 102,-173.5 456,-173.5 456,-4 102,-4"/>
</g>
<!-- read g -->
<g id="node2" class="node">
<title>read g</title>
<text text-anchor="middle" x="532" y="-139.62" font-family="mono" font-size="10.00" fill="green">read g</text>
</g>
<!-- prog&#45;&gt;read g -->
<g id="edge1" class="edge">
<title>prog:e&#45;&gt;read g</title>
<path fill="none" stroke="green" d="M456,-147.75C456,-147.75 475.21,-146.47 494.19,-145.2"/>
<polygon fill="green" stroke="green" points="503.97,-144.55 494.3,-149.71 500.2,-144.8 494,-145.22 494,-145.22 494,-145.22 500.2,-144.8 493.7,-140.73 503.97,-144.55"/>
</g>
<!-- read g  -->
<g id="node3" class="node">
<title>read g </title>
<text text-anchor="middle" x="532" y="-84.62" font-family="mono" font-size="10.00" fill="green">read g </text>
</g>
<!-- prog&#45;&gt;read g  -->
<g id="edge3" class="edge">
<title>prog:e&#45;&gt;read g </title>
<path fill="none" stroke="green" d="M456,-147.75C456,-147.75 479.57,-128.9 500.28,-112.33"/>
<polygon fill="green" stroke="green" points="507.95,-106.19 502.95,-115.95 505,-108.55 500.14,-112.44 500.14,-112.44 500.14,-112.44 505,-108.55 497.33,-108.92 507.95,-106.19"/>
</g>
<!-- read g &#160; -->
<g id="node4" class="node">
<title>read g &#160;</title>
<text text-anchor="middle" x="532" y="-28.62" font-family="mono" font-size="10.00" fill="green">read g &#160;</text>
</g>
<!-- prog&#45;&gt;read g &#160; -->
<g id="edge7" class="edge">
<title>prog:e&#45;&gt;read g &#160;</title>
<path fill="none" stroke="green" d="M456,-147.75C456,-147.75 500,-60.75 500,-60.75 500,-60.75 501.56,-59.29 503.97,-57.03"/>
<polygon fill="green" stroke="green" points="511.01,-50.45 506.78,-60.57 508.25,-53.04 503.7,-57.28 503.7,-57.28 503.7,-57.28 508.25,-53.04 500.63,-54 511.01,-50.45"/>
</g>
<!-- write g -->
<g id="node5" class="node">
<title>write g</title>
<text text-anchor="middle" x="29" y="-93.62" font-family="mono" font-size="10.00" fill="darkcyan">write g</text>
</g>
<!-- prog&#45;&gt;write g -->
<g id="edge5" class="edge">
<title>prog:w&#45;&gt;write g</title>
<path fill="none" stroke="darkcyan" d="M102,-46.75C102,-46.75 83.18,-59.82 64.78,-72.6"/>
<polygon fill="darkcyan" stroke="darkcyan" points="56.59,-78.29 62.23,-68.89 59.69,-76.13 64.8,-72.58 64.8,-72.58 64.8,-72.58 59.69,-76.13 67.37,-76.28 56.59,-78.29"/>
</g>
<!-- read g&#45;&gt;prog -->
<g id="edge2" class="edge">
<title>read g&#45;&gt;prog:e</title>
<path fill="none" stroke="green" d="M505.19,-132.77C491.8,-127.59 476.2,-121.56 466.22,-117.7"/>
<polygon fill="green" stroke="green" points="457.14,-114.19 468.09,-113.6 460.66,-115.55 466.46,-117.8 466.46,-117.8 466.46,-117.8 460.66,-115.55 464.84,-121.99 457.14,-114.19"/>
</g>
<!-- read g &#45;&gt;prog -->
<g id="edge4" class="edge">
<title>read g &#45;&gt;prog:e</title>
<path fill="none" stroke="green" d="M503.07,-78.81C490.25,-74.71 475.82,-70.09 466.35,-67.06"/>
<polygon fill="green" stroke="green" points="457.16,-64.12 468.06,-62.88 460.76,-65.27 466.68,-67.17 466.68,-67.17 466.68,-67.17 460.76,-65.27 465.31,-71.46 457.16,-64.12"/>
</g>
<!-- read g &#160;&#45;&gt;prog -->
<g id="edge8" class="edge">
<title>read g &#160;&#45;&gt;prog:e</title>
<path fill="none" stroke="green" d="M500.06,-30.92C488.28,-30.61 475.6,-30.27 466.89,-30.04"/>
<polygon fill="green" stroke="green" points="457.22,-29.78 467.33,-25.55 461,-29.88 467.21,-30.05 467.21,-30.05 467.21,-30.05 461,-29.88 467.09,-34.55 457.22,-29.78"/>
</g>
<!-- write g&#45;&gt;prog -->
<g id="edge6" class="edge">
<title>write g&#45;&gt;prog:w</title>
<path fill="none" stroke="darkcyan" d="M55.18,-114.59C68.32,-123.89 83.58,-134.7 93.01,-141.38"/>
<polygon fill="darkcyan" stroke="darkcyan" points="101.01,-147.05 90.24,-144.94 97.92,-144.86 92.85,-141.27 92.85,-141.27 92.85,-141.27 97.92,-144.86 95.45,-137.59 101.01,-147.05"/>
</g>
</g>
</svg>
