<?xml version="1.0" encoding="UTF-8" standalone="no"?>
<!DOCTYPE svg PUBLIC "-//W3C//DTD SVG 1.1//EN"
 "http://www.w3.org/Graphics/SVG/1.1/DTD/svg11.dtd">
<!-- Generated by graphviz version 8.1.0 (0)
 -->
<!-- Pages: 1 -->
<svg width="572pt" height="186pt"
 viewBox="0.00 0.00 572.00 185.50" xmlns="http://www.w3.org/2000/svg" xmlns:xlink="http://www.w3.org/1999/xlink">
<g id="graph0" class="graph" transform="scale(1 1) rotate(0) translate(4 181.5)">
<polygon fill="white" stroke="none" points="-4,4 -4,-181.5 568,-181.5 568,4 -4,4"/>
<!-- prog -->
<g id="node1" class="node">
<title>prog</title>
<text text-anchor="start" x="105" y="-161" font-family="mono" font-size="10.00">/* lib.c */</text>
<polygon fill="#aaccaa" stroke="none" points="103,-139 103,-155.75 455,-155.75 455,-139 103,-139"/>
<text text-anchor="start" x="105" y="-144.25" font-family="mono" font-size="10.00">int g = 42;</text>
<text text-anchor="start" x="105" y="-127.5" font-family="mono" font-size="10.00"> </text>
<polygon fill="#ddffdd" stroke="none" points="103,-105.5 103,-122.25 455,-122.25 455,-105.5 103,-105.5"/>
<text text-anchor="start" x="105" y="-110.75" font-family="mono" font-size="10.00">int lib_g(void) { return g; }</text>
<text text-anchor="start" x="105" y="-94" font-family="mono" font-size="10.00">/* prog.c */</text>
<text text-anchor="start" x="105" y="-77.25" font-family="mono" font-size="10.00">int main() {</text>
<polygon fill="#ddffdd" stroke="none" points="103,-55.25 103,-72 455,-72 455,-55.25 103,-55.25"/>
<text text-anchor="start" x="105" y="-60.5" font-family="mono" font-size="10.00"> &#160;&#160;&#160;printf(&quot;before: main.g=%i; lib_g()=%i\n&quot;, g, lib_g());</text>
<polygon fill="lightcyan" stroke="none" points="103,-38.5 103,-55.25 455,-55.25 455,-38.5 103,-38.5"/>
<text text-anchor="start" x="105" y="-43.75" font-family="mono" font-size="10.00"> &#160;&#160;&#160;g = 12345678;</text>
<polygon fill="#ddffdd" stroke="none" points="103,-21.75 103,-38.5 455,-38.5 455,-21.75 103,-21.75"/>
<text text-anchor="start" x="105" y="-27" font-family="mono" font-size="10.00"> &#160;&#160;&#160;printf(&quot;before: main.g=%i; lib_g()=%i\n&quot;, g, lib_g());</text>
<text text-anchor="start" x="105" y="-10.25" font-family="mono" font-size="10.00">}</text>
<polygon fill="black" stroke="black" points="102,-105.5 102,-105.5 456,-105.5 456,-105.5 102,-105.5"/>
<polygon fill="none" stroke="black" points="102,-4 102,-173.5 456,-173.5 456,-4 102,-4"/>
</g>
<!-- read g -->
<g id="node2" class="node">
<title>read g</title>
<text text-anchor="middle" x="532" y="-139.62" font-family="mono" font-size="10.00" fill="green">read g</text>
</g>
<!-- prog&#45;&gt;read g -->
<g id="edge1" class="edge">
<title>prog:e&#45;&gt;read g</title>
<path fill="none" stroke="green" d="M456,-147.75C456,-147.75 475.94,-146.42 495.25,-145.13"/>
<polygon fill="green" stroke="green" points="505.19,-144.47 495.51,-149.63 500.2,-144.8 495.21,-145.14 495.21,-145.14 495.21,-145.14 500.2,-144.8 494.91,-140.65 505.19,-144.47 505.19,-144.47"/>
</g>
<!-- read g  -->
<g id="node3" class="node">
<title>read g </title>
<text text-anchor="middle" x="532" y="-84.62" font-family="mono" font-size="10.00" fill="green">read g </text>
</g>
<!-- prog&#45;&gt;read g  -->
<g id="edge3" class="edge">
<title>prog:e&#45;&gt;read g </title>
<path fill="none" stroke="green" d="M456,-147.75C456,-147.75 480.2,-128.39 501.11,-111.66"/>
<polygon fill="green" stroke="green" points="508.9,-105.43 503.91,-115.19 505,-108.55 501.09,-111.67 501.09,-111.67 501.09,-111.67 505,-108.55 498.28,-108.16 508.9,-105.43 508.9,-105.43"/>
</g>
<!-- read g &#160; -->
<g id="node4" class="node">
<title>read g &#160;</title>
<text text-anchor="middle" x="532" y="-28.62" font-family="mono" font-size="10.00" fill="green">read g &#160;</text>
</g>
<!-- prog&#45;&gt;read g &#160; -->
<g id="edge7" class="edge">
<title>prog:e&#45;&gt;read g &#160;</title>
<path fill="none" stroke="green" d="M456,-147.75C456,-147.75 500,-60.75 500,-60.75 500,-60.75 501.95,-58.93 504.86,-56.2"/>
<polygon fill="green" stroke="green" points="511.9,-49.62 507.67,-59.74 508.25,-53.04 504.59,-56.45 504.59,-56.45 504.59,-56.45 508.25,-53.04 501.52,-53.17 511.9,-49.62 511.9,-49.62"/>
</g>
<!-- write g -->
<g id="node5" class="node">
<title>write g</title>
<text text-anchor="middle" x="29" y="-93.62" font-family="mono" font-size="10.00" fill="darkcyan">write g</text>
</g>
<!-- prog&#45;&gt;write g -->
<g id="edge5" class="edge">
<title>prog:w&#45;&gt;write g</title>
<path fill="none" stroke="darkcyan" d="M102,-46.75C102,-46.75 82.49,-60.3 63.77,-73.3"/>
<polygon fill="darkcyan" stroke="darkcyan" points="55.59,-78.98 61.23,-69.58 59.69,-76.13 63.8,-73.28 63.8,-73.28 63.8,-73.28 59.69,-76.13 66.37,-76.97 55.59,-78.98 55.59,-78.98"/>
</g>
<!-- read g&#45;&gt;prog -->
<g id="edge2" class="edge">
<title>read g&#45;&gt;prog:e</title>
<path fill="none" stroke="green" d="M505.19,-132.77C491.29,-127.4 475.01,-121.1 465.11,-117.27"/>
<polygon fill="green" stroke="green" points="456,-113.75 466.95,-113.16 460.66,-115.55 465.33,-117.36 465.33,-117.36 465.33,-117.36 460.66,-115.55 463.7,-121.55 456,-113.75 456,-113.75"/>
</g>
<!-- read g &#45;&gt;prog -->
<g id="edge4" class="edge">
<title>read g &#45;&gt;prog:e</title>
<path fill="none" stroke="green" d="M503.07,-78.81C489.75,-74.55 474.69,-69.73 465.27,-66.72"/>
<polygon fill="green" stroke="green" points="456,-63.75 466.9,-62.51 460.76,-65.27 465.52,-66.8 465.52,-66.8 465.52,-66.8 460.76,-65.27 464.15,-71.08 456,-63.75 456,-63.75"/>
</g>
<!-- read g &#160;&#45;&gt;prog -->
<g id="edge8" class="edge">
<title>read g &#160;&#45;&gt;prog:e</title>
<path fill="none" stroke="green" d="M500.06,-30.92C487.79,-30.6 474.56,-30.24 465.83,-30.01"/>
<polygon fill="green" stroke="green" points="456,-29.75 466.12,-25.52 461,-29.88 466,-30.02 466,-30.02 466,-30.02 461,-29.88 465.88,-34.52 456,-29.75 456,-29.75"/>
</g>
<!-- write g&#45;&gt;prog -->
<g id="edge6" class="edge">
<title>write g&#45;&gt;prog:w</title>
<path fill="none" stroke="darkcyan" d="M55.18,-114.59C68.81,-124.24 84.71,-135.5 94.04,-142.11"/>
<polygon fill="darkcyan" stroke="darkcyan" points="102,-147.75 91.24,-145.64 97.92,-144.86 93.84,-141.97 93.84,-141.97 93.84,-141.97 97.92,-144.86 96.44,-138.3 102,-147.75 102,-147.75"/>
</g>
</g>
</svg>
