<?xml version="1.0" encoding="UTF-8" standalone="no"?>
<!DOCTYPE svg PUBLIC "-//W3C//DTD SVG 1.1//EN"
 "http://www.w3.org/Graphics/SVG/1.1/DTD/svg11.dtd">
<!-- Generated by graphviz version 7.1.0 (0)
 -->
<!-- Pages: 1 -->
<svg width="737pt" height="461pt"
 viewBox="0.00 0.00 737.00 461.00" xmlns="http://www.w3.org/2000/svg" xmlns:xlink="http://www.w3.org/1999/xlink">
<g id="graph0" class="graph" transform="scale(1 1) rotate(0) translate(4 457)">
<polygon fill="white" stroke="none" points="-4,4 -4,-457 733,-457 733,4 -4,4"/>
<!-- prog -->
<g id="node1" class="node">
<title>prog</title>
<text text-anchor="start" x="106.5" y="-437.5" font-family="mono" font-size="10.00">Disassembly of section .text:</text>
<text text-anchor="start" x="106.5" y="-422.5" font-family="mono" font-size="10.00"> &#160;&#160;&#160;&#160;&#160;&#160;&#160;...</text>
<text text-anchor="start" x="106.5" y="-407.5" font-family="mono" font-size="10.00">0000000000401126 &lt;lib_g&gt;:</text>
<polygon fill="#ddffdd" stroke="none" points="104.5,-387.5 104.5,-402.5 619.5,-402.5 619.5,-387.5 104.5,-387.5"/>
<text text-anchor="start" x="106.5" y="-392.5" font-family="mono" font-size="10.00"> &#160;401126: &#160;&#160;&#160;&#160;&#160;&#160;8b 05 04 2f 00 00 &#160;&#160;&#160;&#160;&#160;&#160;mov &#160;&#160;&#160;0x2f04(%rip),%eax &#160;&#160;&#160;&#160;&#160;&#160;&#160;# 404030 &lt;g&gt;</text>
<text text-anchor="start" x="106.5" y="-377.5" font-family="mono" font-size="10.00"> &#160;40112c: &#160;&#160;&#160;&#160;&#160;&#160;c3 &#160;&#160;&#160;&#160;&#160;&#160;&#160;&#160;&#160;&#160;&#160;&#160;&#160;&#160;&#160;&#160;&#160;&#160;&#160;&#160;&#160;ret</text>
<text text-anchor="start" x="106.5" y="-358.5" font-family="mono" font-size="10.00">000000000040112d &lt;main&gt;:</text>
<text text-anchor="start" x="106.5" y="-343.5" font-family="mono" font-size="10.00"> &#160;40112d: &#160;&#160;&#160;&#160;&#160;&#160;48 83 ec 08 &#160;&#160;&#160;&#160;&#160;&#160;&#160;&#160;&#160;&#160;&#160;&#160;sub &#160;&#160;&#160;$0x8,%rsp</text>
<text text-anchor="start" x="106.5" y="-328.5" font-family="mono" font-size="10.00"> &#160;401131: &#160;&#160;&#160;&#160;&#160;&#160;e8 f0 ff ff ff &#160;&#160;&#160;&#160;&#160;&#160;&#160;&#160;&#160;call &#160;&#160;401126 &lt;lib_g&gt;</text>
<text text-anchor="start" x="106.5" y="-313.5" font-family="mono" font-size="10.00"> &#160;401136: &#160;&#160;&#160;&#160;&#160;&#160;89 c2 &#160;&#160;&#160;&#160;&#160;&#160;&#160;&#160;&#160;&#160;&#160;&#160;&#160;&#160;&#160;&#160;&#160;&#160;mov &#160;&#160;&#160;%eax,%edx</text>
<polygon fill="#ddffdd" stroke="none" points="104.5,-293.5 104.5,-308.5 619.5,-308.5 619.5,-293.5 104.5,-293.5"/>
<text text-anchor="start" x="106.5" y="-298.5" font-family="mono" font-size="10.00"> &#160;401138: &#160;&#160;&#160;&#160;&#160;&#160;8b 35 f2 2e 00 00 &#160;&#160;&#160;&#160;&#160;&#160;mov &#160;&#160;&#160;0x2ef2(%rip),%esi &#160;&#160;&#160;&#160;&#160;&#160;&#160;# 404030 &lt;g&gt;</text>
<text text-anchor="start" x="106.5" y="-283.5" font-family="mono" font-size="10.00"> &#160;40113e: &#160;&#160;&#160;&#160;&#160;&#160;bf 08 20 40 00 &#160;&#160;&#160;&#160;&#160;&#160;&#160;&#160;&#160;mov &#160;&#160;&#160;$0x402008,%edi</text>
<text text-anchor="start" x="106.5" y="-268.5" font-family="mono" font-size="10.00"> &#160;401143: &#160;&#160;&#160;&#160;&#160;&#160;b8 00 00 00 00 &#160;&#160;&#160;&#160;&#160;&#160;&#160;&#160;&#160;mov &#160;&#160;&#160;$0x0,%eax</text>
<text text-anchor="start" x="106.5" y="-253.5" font-family="mono" font-size="10.00"> &#160;401148: &#160;&#160;&#160;&#160;&#160;&#160;e8 e3 fe ff ff &#160;&#160;&#160;&#160;&#160;&#160;&#160;&#160;&#160;call &#160;&#160;401030 &lt;printf@plt&gt;</text>
<polygon fill="lightcyan" stroke="none" points="104.5,-233.5 104.5,-248.5 619.5,-248.5 619.5,-233.5 104.5,-233.5"/>
<text text-anchor="start" x="106.5" y="-238.5" font-family="mono" font-size="10.00"> &#160;40114d: &#160;&#160;&#160;&#160;&#160;&#160;c7 05 d9 2e 00 00 4e &#160;&#160;&#160;movl &#160;&#160;$0xbc614e,0x2ed9(%rip) &#160;&#160;# 404030 &lt;g&gt;</text>
<text text-anchor="start" x="106.5" y="-223.5" font-family="mono" font-size="10.00"> &#160;401154: &#160;&#160;&#160;&#160;&#160;&#160;61 bc 00</text>
<text text-anchor="start" x="106.5" y="-208.5" font-family="mono" font-size="10.00"> &#160;401157: &#160;&#160;&#160;&#160;&#160;&#160;e8 ca ff ff ff &#160;&#160;&#160;&#160;&#160;&#160;&#160;&#160;&#160;call &#160;&#160;401126 &lt;lib_g&gt;</text>
<text text-anchor="start" x="106.5" y="-193.5" font-family="mono" font-size="10.00"> &#160;40115c: &#160;&#160;&#160;&#160;&#160;&#160;89 c2 &#160;&#160;&#160;&#160;&#160;&#160;&#160;&#160;&#160;&#160;&#160;&#160;&#160;&#160;&#160;&#160;&#160;&#160;mov &#160;&#160;&#160;%eax,%edx</text>
<polygon fill="#ddffdd" stroke="none" points="104.5,-173.5 104.5,-188.5 619.5,-188.5 619.5,-173.5 104.5,-173.5"/>
<text text-anchor="start" x="106.5" y="-178.5" font-family="mono" font-size="10.00"> &#160;40115e: &#160;&#160;&#160;&#160;&#160;&#160;8b 35 cc 2e 00 00 &#160;&#160;&#160;&#160;&#160;&#160;mov &#160;&#160;&#160;0x2ecc(%rip),%esi &#160;&#160;&#160;&#160;&#160;&#160;&#160;# 404030 &lt;g&gt;</text>
<text text-anchor="start" x="106.5" y="-163.5" font-family="mono" font-size="10.00"> &#160;401164: &#160;&#160;&#160;&#160;&#160;&#160;bf 28 20 40 00 &#160;&#160;&#160;&#160;&#160;&#160;&#160;&#160;&#160;mov &#160;&#160;&#160;$0x402028,%edi</text>
<text text-anchor="start" x="106.5" y="-148.5" font-family="mono" font-size="10.00"> &#160;401169: &#160;&#160;&#160;&#160;&#160;&#160;b8 00 00 00 00 &#160;&#160;&#160;&#160;&#160;&#160;&#160;&#160;&#160;mov &#160;&#160;&#160;$0x0,%eax</text>
<text text-anchor="start" x="106.5" y="-133.5" font-family="mono" font-size="10.00"> &#160;40116e: &#160;&#160;&#160;&#160;&#160;&#160;e8 bd fe ff ff &#160;&#160;&#160;&#160;&#160;&#160;&#160;&#160;&#160;call &#160;&#160;401030 &lt;printf@plt&gt;</text>
<text text-anchor="start" x="106.5" y="-118.5" font-family="mono" font-size="10.00"> &#160;401173: &#160;&#160;&#160;&#160;&#160;&#160;b8 00 00 00 00 &#160;&#160;&#160;&#160;&#160;&#160;&#160;&#160;&#160;mov &#160;&#160;&#160;$0x0,%eax</text>
<text text-anchor="start" x="106.5" y="-103.5" font-family="mono" font-size="10.00"> &#160;401178: &#160;&#160;&#160;&#160;&#160;&#160;48 83 c4 08 &#160;&#160;&#160;&#160;&#160;&#160;&#160;&#160;&#160;&#160;&#160;&#160;add &#160;&#160;&#160;$0x8,%rsp</text>
<text text-anchor="start" x="106.5" y="-88.5" font-family="mono" font-size="10.00"> &#160;40117c: &#160;&#160;&#160;&#160;&#160;&#160;c3 &#160;&#160;&#160;&#160;&#160;&#160;&#160;&#160;&#160;&#160;&#160;&#160;&#160;&#160;&#160;&#160;&#160;&#160;&#160;&#160;&#160;ret</text>
<text text-anchor="start" x="106.5" y="-69.5" font-family="mono" font-size="10.00">Disassembly of section .data:</text>
<text text-anchor="start" x="106.5" y="-54.5" font-family="mono" font-size="10.00"> &#160;&#160;&#160;&#160;&#160;&#160;&#160;...</text>
<text text-anchor="start" x="106.5" y="-39.5" font-family="mono" font-size="10.00">0000000000404030 &lt;g&gt;:</text>
<polygon fill="#aaccaa" stroke="none" points="104.5,-19.5 104.5,-34.5 619.5,-34.5 619.5,-19.5 104.5,-19.5"/>
<text text-anchor="start" x="106.5" y="-24.5" font-family="mono" font-size="10.00"> &#160;404030: &#160;&#160;&#160;&#160;&#160;&#160;2a 00 &#160;&#160;&#160;&#160;&#160;&#160;&#160;&#160;&#160;&#160;&#160;&#160;&#160;&#160;&#160;&#160;&#160;&#160;&#160;&#160;&#160;&#160;&#160;&#160;&#160;&#160;&#160;&#160;&#160;&#160;&#160;&#160;&#160;&#160;&#160;&#160;&#160;&#160;&#160;&#160;&#160;&#160;&#160;&#160;&#160;&#160;&#160;&#160;&#160;&#160;# int g = 42;</text>
<text text-anchor="start" x="106.5" y="-9.5" font-family="mono" font-size="10.00"> &#160;&#160;&#160;&#160;&#160;&#160;&#160;...</text>
<polygon fill="none" stroke="black" points="103,-4 103,-449 620,-449 620,-4 103,-4"/>
</g>
<!-- read g -->
<g id="node2" class="node">
<title>read g</title>
<text text-anchor="middle" x="696.5" y="-301" font-family="mono" font-size="10.00" fill="green">read g</text>
</g>
<!-- prog&#45;&gt;read g -->
<g id="edge1" class="edge">
<title>prog:e&#45;&gt;read g</title>
<path fill="none" stroke="green" d="M620.5,-26.5C620.5,-26.5 664,-256.5 664,-256.5 664,-256.5 670.78,-266.61 678.04,-277.45"/>
<polygon fill="green" stroke="green" points="683.59,-285.73 674.29,-279.93 680.81,-281.58 678.02,-277.42 678.02,-277.42 678.02,-277.42 680.81,-281.58 681.76,-274.92 683.59,-285.73 683.59,-285.73"/>
</g>
<!-- read g  -->
<g id="node3" class="node">
<title>read g </title>
<text text-anchor="middle" x="696.5" y="-227" font-family="mono" font-size="10.00" fill="green">read g </text>
</g>
<!-- prog&#45;&gt;read g  -->
<g id="edge3" class="edge">
<title>prog:e&#45;&gt;read g </title>
<path fill="none" stroke="green" d="M620.5,-26.5C620.5,-26.5 665.2,-147.49 685.58,-202.66"/>
<polygon fill="green" stroke="green" points="688.98,-211.84 681.29,-204.02 687.24,-207.15 685.51,-202.46 685.51,-202.46 685.51,-202.46 687.24,-207.15 689.73,-200.9 688.98,-211.84 688.98,-211.84"/>
</g>
<!-- read g &#160; -->
<g id="node4" class="node">
<title>read g &#160;</title>
<text text-anchor="middle" x="696.5" y="-101" font-family="mono" font-size="10.00" fill="green">read g &#160;</text>
</g>
<!-- prog&#45;&gt;read g &#160; -->
<g id="edge7" class="edge">
<title>prog:e&#45;&gt;read g &#160;</title>
<path fill="none" stroke="green" d="M620.5,-26.5C620.5,-26.5 649.36,-56.13 671.28,-78.63"/>
<polygon fill="green" stroke="green" points="678.1,-85.64 667.9,-81.62 674.62,-82.06 671.13,-78.48 671.13,-78.48 671.13,-78.48 674.62,-82.06 674.35,-75.34 678.1,-85.64 678.1,-85.64"/>
</g>
<!-- write g -->
<g id="node5" class="node">
<title>write g</title>
<text text-anchor="middle" x="29.5" y="-132" font-family="mono" font-size="10.00" fill="darkcyan">write g</text>
</g>
<!-- prog&#45;&gt;write g -->
<g id="edge5" class="edge">
<title>prog:w&#45;&gt;write g</title>
<path fill="none" stroke="darkcyan" d="M103.5,-241.5C103.5,-241.5 69.62,-191.83 48.02,-160.18"/>
<polygon fill="darkcyan" stroke="darkcyan" points="42.55,-152.17 51.91,-157.89 45.37,-156.3 48.19,-160.43 48.19,-160.43 48.19,-160.43 45.37,-156.3 44.47,-162.97 42.55,-152.17 42.55,-152.17"/>
</g>
<!-- read g&#45;&gt;prog -->
<g id="edge2" class="edge">
<title>read g&#45;&gt;prog:e</title>
<path fill="none" stroke="green" d="M681.04,-321.24C664.52,-341.5 638.27,-373.7 626.53,-388.11"/>
<polygon fill="green" stroke="green" points="620.5,-395.5 623.33,-384.91 623.66,-391.62 626.82,-387.75 626.82,-387.75 626.82,-387.75 623.66,-391.62 630.31,-390.59 620.5,-395.5 620.5,-395.5"/>
</g>
<!-- read g &#45;&gt;prog -->
<g id="edge4" class="edge">
<title>read g &#45;&gt;prog:e</title>
<path fill="none" stroke="green" d="M676.96,-247.3C661,-262.62 638.81,-283.92 627.6,-294.69"/>
<polygon fill="green" stroke="green" points="620.5,-301.5 624.6,-291.33 624.11,-298.04 627.71,-294.57 627.71,-294.57 627.71,-294.57 624.11,-298.04 630.83,-297.82 620.5,-301.5 620.5,-301.5"/>
</g>
<!-- read g &#160;&#45;&gt;prog -->
<g id="edge8" class="edge">
<title>read g &#160;&#45;&gt;prog:e</title>
<path fill="none" stroke="green" d="M678.1,-121.36C662.01,-137.89 638.89,-161.62 627.45,-173.36"/>
<polygon fill="green" stroke="green" points="620.5,-180.5 624.25,-170.2 623.99,-176.92 627.48,-173.34 627.48,-173.34 627.48,-173.34 623.99,-176.92 630.7,-176.48 620.5,-180.5 620.5,-180.5"/>
</g>
<!-- write g&#45;&gt;prog -->
<g id="edge6" class="edge">
<title>write g&#45;&gt;prog:w</title>
<path fill="none" stroke="darkcyan" d="M42.55,-116.67C58.59,-92.94 86.28,-51.98 98,-34.63"/>
<polygon fill="darkcyan" stroke="darkcyan" points="103.5,-26.5 101.63,-37.3 100.7,-30.64 97.9,-34.78 97.9,-34.78 97.9,-34.78 100.7,-30.64 94.17,-32.26 103.5,-26.5 103.5,-26.5"/>
</g>
</g>
</svg>
