<?xml version="1.0" encoding="UTF-8" standalone="no"?>
<!DOCTYPE svg PUBLIC "-//W3C//DTD SVG 1.1//EN"
 "http://www.w3.org/Graphics/SVG/1.1/DTD/svg11.dtd">
<!-- Generated by graphviz version 12.2.1 (0)
 -->
<!-- Pages: 1 -->
<svg width="854pt" height="700pt"
 viewBox="0.00 0.00 854.00 700.00" xmlns="http://www.w3.org/2000/svg" xmlns:xlink="http://www.w3.org/1999/xlink">
<g id="graph0" class="graph" transform="scale(1 1) rotate(0) translate(4 696)">
<polygon fill="white" stroke="none" points="-4,4 -4,-696 850,-696 850,4 -4,4"/>
<!-- prog -->
<g id="node1" class="node">
<title>prog</title>
<text text-anchor="start" x="141" y="-675.5" font-family="mono" font-size="10.00">Disassembly of section .text:</text>
<text text-anchor="start" x="141" y="-658.75" font-family="mono" font-size="10.00">00000000000010f9 &lt;lib_g&gt;:</text>
<polygon fill="#ffeeff" stroke="none" points="139,-636.75 139,-653.5 701,-653.5 701,-636.75 139,-636.75"/>
<text text-anchor="start" x="141" y="-642" font-family="mono" font-size="10.00"> &#160;&#160;&#160;10f9: &#160;&#160;&#160;&#160;&#160;&#160;48 8b 05 e8 2e 00 00 &#160;&#160;&#160;mov &#160;&#160;&#160;0x2ee8(%rip),%rax &#160;&#160;&#160;&#160;&#160;&#160;&#160;# 3fe8 &lt;g@@Base&#45;0x38&gt;</text>
<polygon fill="#ddffdd" stroke="none" points="139,-620 139,-636.75 701,-636.75 701,-620 139,-620"/>
<text text-anchor="start" x="141" y="-625.25" font-family="mono" font-size="10.00"> &#160;&#160;&#160;1100: &#160;&#160;&#160;&#160;&#160;&#160;8b 00 &#160;&#160;&#160;&#160;&#160;&#160;&#160;&#160;&#160;&#160;&#160;&#160;&#160;&#160;&#160;&#160;&#160;&#160;mov &#160;&#160;&#160;(%rax),%eax</text>
<text text-anchor="start" x="141" y="-608.5" font-family="mono" font-size="10.00"> &#160;&#160;&#160;1102: &#160;&#160;&#160;&#160;&#160;&#160;c3 &#160;&#160;&#160;&#160;&#160;&#160;&#160;&#160;&#160;&#160;&#160;&#160;&#160;&#160;&#160;&#160;&#160;&#160;&#160;&#160;&#160;ret</text>
<text text-anchor="start" x="141" y="-587.75" font-family="mono" font-size="10.00">Disassembly of section .got:</text>
<text text-anchor="start" x="141" y="-567" font-family="mono" font-size="10.00">0000000000003fd8 &lt;.got&gt;:</text>
<text text-anchor="start" x="141" y="-550.25" font-family="mono" font-size="10.00"> &#160;&#160;&#160;&#160;&#160;&#160;&#160;...</text>
<polygon fill="#ffddff" stroke="none" points="139,-528.25 139,-545 701,-545 701,-528.25 139,-528.25"/>
<text text-anchor="start" x="141" y="-533.5" font-family="mono" font-size="10.00"> &#160;&#160;&#160;&#160;&#160;&#160;&#160;&#160;&#160;&#160;&#160;&#160;&#160;&#160;&#160;&#160;&#160;&#160;&#160;&#160;&#160;&#160;&#160;3fe8: R_X86_64_GLOB_DAT g@@Base</text>
<text text-anchor="start" x="141" y="-516.75" font-family="mono" font-size="10.00">Disassembly of section .data:</text>
<text text-anchor="start" x="141" y="-500" font-family="mono" font-size="10.00"> &#160;&#160;&#160;&#160;&#160;&#160;&#160;...</text>
<text text-anchor="start" x="141" y="-483.25" font-family="mono" font-size="10.00">0000000000004020 &lt;g&gt;:</text>
<polygon fill="#aaccaa" stroke="none" points="139,-461.25 139,-478 701,-478 701,-461.25 139,-461.25"/>
<text text-anchor="start" x="141" y="-466.5" font-family="mono" font-size="10.00"> &#160;&#160;&#160;4020: &#160;&#160;&#160;&#160;&#160;&#160;2a 00 &#160;&#160;&#160;&#160;&#160;&#160;&#160;&#160;&#160;&#160;&#160;&#160;&#160;&#160;&#160;&#160;&#160;&#160;&#160;&#160;&#160;&#160;&#160;&#160;&#160;&#160;&#160;&#160;&#160;&#160;&#160;&#160;&#160;&#160;&#160;&#160;&#160;&#160;&#160;&#160;&#160;&#160;&#160;&#160;&#160;&#160;&#160;&#160;&#160;&#160;# int g = 42; </text>
<text text-anchor="start" x="141" y="-449.75" font-family="mono" font-size="10.00"> &#160;&#160;&#160;&#160;&#160;&#160;&#160;...</text>
<text text-anchor="start" x="141" y="-433" font-family="mono" font-size="10.00">Disassembly of section .text:</text>
<text text-anchor="start" x="141" y="-416.25" font-family="mono" font-size="10.00">0000000000401136 &lt;main&gt;:</text>
<text text-anchor="start" x="141" y="-399.5" font-family="mono" font-size="10.00"> &#160;401136: &#160;&#160;&#160;&#160;&#160;&#160;48 83 ec 08 &#160;&#160;&#160;&#160;&#160;&#160;&#160;&#160;&#160;&#160;&#160;&#160;sub &#160;&#160;&#160;$0x8,%rsp</text>
<text text-anchor="start" x="141" y="-382.75" font-family="mono" font-size="10.00"> &#160;40113a: &#160;&#160;&#160;&#160;&#160;&#160;e8 f1 fe ff ff &#160;&#160;&#160;&#160;&#160;&#160;&#160;&#160;&#160;call &#160;&#160;401030 &lt;lib_g@plt&gt;</text>
<text text-anchor="start" x="141" y="-366" font-family="mono" font-size="10.00"> &#160;40113f: &#160;&#160;&#160;&#160;&#160;&#160;89 c2 &#160;&#160;&#160;&#160;&#160;&#160;&#160;&#160;&#160;&#160;&#160;&#160;&#160;&#160;&#160;&#160;&#160;&#160;mov &#160;&#160;&#160;%eax,%edx</text>
<polygon fill="#ddffdd" stroke="none" points="139,-344 139,-360.75 701,-360.75 701,-344 139,-344"/>
<text text-anchor="start" x="141" y="-349.25" font-family="mono" font-size="10.00"> &#160;401141: &#160;&#160;&#160;&#160;&#160;&#160;8b 35 f1 2e 00 00 &#160;&#160;&#160;&#160;&#160;&#160;mov &#160;&#160;&#160;0x2ef1(%rip),%esi &#160;&#160;&#160;&#160;&#160;&#160;&#160;# 404038 &lt;g@@Base&gt;</text>
<text text-anchor="start" x="141" y="-332.5" font-family="mono" font-size="10.00"> &#160;401147: &#160;&#160;&#160;&#160;&#160;&#160;bf 08 20 40 00 &#160;&#160;&#160;&#160;&#160;&#160;&#160;&#160;&#160;mov &#160;&#160;&#160;$0x402008,%edi</text>
<text text-anchor="start" x="141" y="-315.75" font-family="mono" font-size="10.00"> &#160;40114c: &#160;&#160;&#160;&#160;&#160;&#160;b8 00 00 00 00 &#160;&#160;&#160;&#160;&#160;&#160;&#160;&#160;&#160;mov &#160;&#160;&#160;$0x0,%eax</text>
<text text-anchor="start" x="141" y="-299" font-family="mono" font-size="10.00"> &#160;401151: &#160;&#160;&#160;&#160;&#160;&#160;e8 ea fe ff ff &#160;&#160;&#160;&#160;&#160;&#160;&#160;&#160;&#160;call &#160;&#160;401040 &lt;printf@plt&gt;</text>
<polygon fill="lightcyan" stroke="none" points="139,-277 139,-293.75 701,-293.75 701,-277 139,-277"/>
<text text-anchor="start" x="141" y="-282.25" font-family="mono" font-size="10.00"> &#160;401156: &#160;&#160;&#160;&#160;&#160;&#160;c7 05 d8 2e 00 00 4e &#160;&#160;&#160;movl &#160;&#160;$0xbc614e,0x2ed8(%rip) &#160;&#160;# 404038 &lt;g@@Base&gt;</text>
<text text-anchor="start" x="141" y="-265.5" font-family="mono" font-size="10.00"> &#160;40115d: &#160;&#160;&#160;&#160;&#160;&#160;61 bc 00</text>
<text text-anchor="start" x="141" y="-248.75" font-family="mono" font-size="10.00"> &#160;401160: &#160;&#160;&#160;&#160;&#160;&#160;e8 cb fe ff ff &#160;&#160;&#160;&#160;&#160;&#160;&#160;&#160;&#160;call &#160;&#160;401030 &lt;lib_g@plt&gt;</text>
<text text-anchor="start" x="141" y="-232" font-family="mono" font-size="10.00"> &#160;401165: &#160;&#160;&#160;&#160;&#160;&#160;89 c2 &#160;&#160;&#160;&#160;&#160;&#160;&#160;&#160;&#160;&#160;&#160;&#160;&#160;&#160;&#160;&#160;&#160;&#160;mov &#160;&#160;&#160;%eax,%edx</text>
<polygon fill="#ddffdd" stroke="none" points="139,-210 139,-226.75 701,-226.75 701,-210 139,-210"/>
<text text-anchor="start" x="141" y="-215.25" font-family="mono" font-size="10.00"> &#160;401167: &#160;&#160;&#160;&#160;&#160;&#160;8b 35 cb 2e 00 00 &#160;&#160;&#160;&#160;&#160;&#160;mov &#160;&#160;&#160;0x2ecb(%rip),%esi &#160;&#160;&#160;&#160;&#160;&#160;&#160;# 404038 &lt;g@@Base&gt;</text>
<text text-anchor="start" x="141" y="-198.5" font-family="mono" font-size="10.00"> &#160;40116d: &#160;&#160;&#160;&#160;&#160;&#160;bf 28 20 40 00 &#160;&#160;&#160;&#160;&#160;&#160;&#160;&#160;&#160;mov &#160;&#160;&#160;$0x402028,%edi</text>
<text text-anchor="start" x="141" y="-181.75" font-family="mono" font-size="10.00"> &#160;401172: &#160;&#160;&#160;&#160;&#160;&#160;b8 00 00 00 00 &#160;&#160;&#160;&#160;&#160;&#160;&#160;&#160;&#160;mov &#160;&#160;&#160;$0x0,%eax</text>
<text text-anchor="start" x="141" y="-165" font-family="mono" font-size="10.00"> &#160;401177: &#160;&#160;&#160;&#160;&#160;&#160;e8 c4 fe ff ff &#160;&#160;&#160;&#160;&#160;&#160;&#160;&#160;&#160;call &#160;&#160;401040 &lt;printf@plt&gt;</text>
<text text-anchor="start" x="141" y="-148.25" font-family="mono" font-size="10.00"> &#160;40117c: &#160;&#160;&#160;&#160;&#160;&#160;b8 00 00 00 00 &#160;&#160;&#160;&#160;&#160;&#160;&#160;&#160;&#160;mov &#160;&#160;&#160;$0x0,%eax</text>
<text text-anchor="start" x="141" y="-131.5" font-family="mono" font-size="10.00"> &#160;401181: &#160;&#160;&#160;&#160;&#160;&#160;48 83 c4 08 &#160;&#160;&#160;&#160;&#160;&#160;&#160;&#160;&#160;&#160;&#160;&#160;add &#160;&#160;&#160;$0x8,%rsp</text>
<text text-anchor="start" x="141" y="-114.75" font-family="mono" font-size="10.00"> &#160;401185: &#160;&#160;&#160;&#160;&#160;&#160;c3 &#160;&#160;&#160;&#160;&#160;&#160;&#160;&#160;&#160;&#160;&#160;&#160;&#160;&#160;&#160;&#160;&#160;&#160;&#160;&#160;&#160;ret</text>
<text text-anchor="start" x="141" y="-98" font-family="mono" font-size="10.00">...</text>
<text text-anchor="start" x="141" y="-81.25" font-family="mono" font-size="10.00">Disassembly of section .bss:</text>
<text text-anchor="start" x="141" y="-60.5" font-family="mono" font-size="10.00">0000000000404038 &lt;g&gt;:</text>
<polygon fill="#aaaacc" stroke="none" points="139,-38.5 139,-55.25 701,-55.25 701,-38.5 139,-38.5"/>
<text text-anchor="start" x="141" y="-43.75" font-family="mono" font-size="10.00"> &#160;404038: &#160;&#160;&#160;&#160;&#160;&#160;00 00 &#160;&#160;&#160;&#160;&#160;&#160;&#160;&#160;&#160;&#160;&#160;&#160;&#160;&#160;&#160;&#160;&#160;&#160;&#160;&#160;&#160;&#160;&#160;&#160;&#160;&#160;&#160;&#160;&#160;&#160;&#160;&#160;&#160;&#160;&#160;&#160;&#160;&#160;&#160;&#160;&#160;&#160;&#160;&#160;&#160;&#160;&#160;&#160;&#160;&#160;# extern int g;</text>
<polygon fill="#aaaacc" stroke="none" points="139,-21.75 139,-38.5 701,-38.5 701,-21.75 139,-21.75"/>
<text text-anchor="start" x="141" y="-27" font-family="mono" font-size="10.00"> &#160;&#160;&#160;&#160;&#160;&#160;&#160;&#160;&#160;&#160;&#160;&#160;&#160;&#160;&#160;&#160;&#160;&#160;&#160;&#160;&#160;&#160;&#160;404038: R_X86_64_COPY &#160;&#160;g@@Base</text>
<text text-anchor="start" x="141" y="-10.25" font-family="mono" font-size="10.00"> &#160;&#160;&#160;&#160;&#160;&#160;&#160;...</text>
<polygon fill="none" stroke="black" points="138,-4 138,-688 702,-688 702,-4 138,-4"/>
</g>
<!-- read g -->
<g id="node2" class="node">
<title>read g</title>
<text text-anchor="middle" x="796" y="-454.88" font-family="mono" font-size="10.00" fill="green">read g</text>
</g>
<!-- prog&#45;&gt;read g -->
<g id="edge3" class="edge">
<title>prog:e&#45;&gt;read g</title>
<path fill="none" stroke="green" d="M702,-46.88C702,-46.88 746,-338 746,-338 746,-338 768.99,-394.31 783.48,-429.78"/>
<polygon fill="green" stroke="green" points="787.2,-438.91 779.26,-431.35 785.77,-435.41 783.42,-429.65 783.42,-429.65 783.42,-429.65 785.77,-435.41 787.59,-427.95 787.2,-438.91"/>
</g>
<!-- read g address -->
<g id="node3" class="node">
<title>read g address</title>
<text text-anchor="middle" x="796" y="-586.88" font-family="mono" font-size="10.00" fill="#ff00ff">read g address</text>
</g>
<!-- prog&#45;&gt;read g address -->
<g id="edge1" class="edge">
<title>prog:e&#45;&gt;read g address</title>
<path fill="none" stroke="#ff00ff" d="M702,-536.62C702,-536.62 729.33,-552.31 754.36,-566.67"/>
<polygon fill="#ff00ff" stroke="#ff00ff" points="762.72,-571.47 751.8,-570.4 759.44,-569.59 754.04,-566.49 754.04,-566.49 754.04,-566.49 759.44,-569.59 756.28,-562.59 762.72,-571.47"/>
</g>
<!-- read g  -->
<g id="node4" class="node">
<title>read g </title>
<text text-anchor="middle" x="796" y="-307.88" font-family="mono" font-size="10.00" fill="green">read g </text>
</g>
<!-- prog&#45;&gt;read g  -->
<g id="edge5" class="edge">
<title>prog:e&#45;&gt;read g </title>
<path fill="none" stroke="green" d="M702,-46.88C702,-46.88 746,-237 746,-237 746,-237 763.02,-262.71 777,-283.82"/>
<polygon fill="green" stroke="green" points="782.47,-292.07 773.19,-286.22 780.38,-288.92 776.94,-283.73 776.94,-283.73 776.94,-283.73 780.38,-288.92 780.7,-281.25 782.47,-292.07"/>
</g>
<!-- read g &#160; -->
<g id="node5" class="node">
<title>read g &#160;</title>
<text text-anchor="middle" x="796" y="-129.88" font-family="mono" font-size="10.00" fill="green">read g &#160;</text>
</g>
<!-- prog&#45;&gt;read g &#160; -->
<g id="edge9" class="edge">
<title>prog:e&#45;&gt;read g &#160;</title>
<path fill="none" stroke="green" d="M702,-46.88C702,-46.88 740.18,-82.23 767.62,-107.64"/>
<polygon fill="green" stroke="green" points="774.84,-114.33 764.44,-110.83 772.06,-111.76 767.5,-107.53 767.5,-107.53 767.5,-107.53 772.06,-111.76 770.56,-104.23 774.84,-114.33"/>
</g>
<!-- write g -->
<g id="node6" class="node">
<title>write g</title>
<text text-anchor="middle" x="796" y="-206.88" font-family="mono" font-size="10.00" fill="darkcyan">write g</text>
</g>
<!-- prog&#45;&gt;write g -->
<g id="edge7" class="edge">
<title>prog:e&#45;&gt;write g</title>
<path fill="none" stroke="darkcyan" d="M702,-285.38C702,-285.38 737.39,-256.7 764.5,-234.72"/>
<polygon fill="darkcyan" stroke="darkcyan" points="772.01,-228.63 767.08,-238.42 769.08,-231.01 764.24,-234.93 764.24,-234.93 764.24,-234.93 769.08,-231.01 761.41,-231.43 772.01,-228.63"/>
</g>
<!-- copy g -->
<g id="node7" class="node">
<title>copy g</title>
<text text-anchor="middle" x="47" y="-254.88" font-family="mono" font-size="10.00" fill="blue">copy g</text>
</g>
<!-- prog&#45;&gt;copy g -->
<g id="edge11" class="edge">
<title>prog:w&#45;&gt;copy g</title>
<path fill="none" stroke="blue" d="M138,-469.62C138,-469.62 94,-291 94,-291 94,-291 88.69,-287.19 81.68,-282.16"/>
<polygon fill="blue" stroke="blue" points="73.87,-276.56 84.62,-278.74 76.95,-278.77 82,-282.39 82,-282.39 82,-282.39 76.95,-278.77 79.38,-286.05 73.87,-276.56"/>
</g>
<!-- set g address -->
<g id="node8" class="node">
<title>set g address</title>
<text text-anchor="middle" x="47" y="-314.88" font-family="mono" font-size="10.00" fill="#ff00ff">set g address</text>
</g>
<!-- prog&#45;&gt;set g address -->
<g id="edge13" class="edge">
<title>prog:w&#45;&gt;set g address</title>
<path fill="none" stroke="#ff00ff" d="M138,-46.88C138,-46.88 94,-285 94,-285 94,-285 88.69,-288.81 81.68,-293.84"/>
<polygon fill="#ff00ff" stroke="#ff00ff" points="73.87,-299.44 79.38,-289.95 76.95,-297.23 82,-293.61 82,-293.61 82,-293.61 76.95,-297.23 84.62,-297.26 73.87,-299.44"/>
</g>
<!-- read g&#45;&gt;prog -->
<g id="edge4" class="edge">
<title>read g&#45;&gt;prog:e</title>
<path fill="none" stroke="green" d="M785.22,-475.91C765.64,-511.79 722.18,-591.4 707.2,-618.85"/>
<polygon fill="green" stroke="green" points="702.58,-627.31 703.43,-616.37 704.4,-623.99 707.38,-618.53 707.38,-618.53 707.38,-618.53 704.4,-623.99 711.32,-620.68 702.58,-627.31"/>
</g>
<!-- read g address&#45;&gt;prog -->
<g id="edge2" class="edge">
<title>read g address&#45;&gt;prog:e</title>
<path fill="none" stroke="#ff00ff" d="M764.81,-607.9C746.35,-618.84 723.97,-632.1 711.52,-639.48"/>
<polygon fill="#ff00ff" stroke="#ff00ff" points="703.05,-644.5 709.36,-635.53 706.3,-642.58 711.65,-639.4 711.65,-639.4 711.65,-639.4 706.3,-642.58 713.95,-643.28 703.05,-644.5"/>
</g>
<!-- read g &#45;&gt;prog -->
<g id="edge6" class="edge">
<title>read g &#45;&gt;prog:e</title>
<path fill="none" stroke="green" d="M767.1,-323.41C748.48,-331.7 725.1,-342.1 712.03,-347.91"/>
<polygon fill="green" stroke="green" points="703.11,-351.88 710.42,-343.7 706.57,-350.34 712.25,-347.81 712.25,-347.81 712.25,-347.81 706.57,-350.34 714.08,-351.93 703.11,-351.88"/>
</g>
<!-- read g &#160;&#45;&gt;prog -->
<g id="edge10" class="edge">
<title>read g &#160;&#45;&gt;prog:e</title>
<path fill="none" stroke="green" d="M775.73,-150.69C755.51,-169.25 724.69,-197.54 710.14,-210.9"/>
<polygon fill="green" stroke="green" points="702.9,-217.55 707.22,-207.47 705.68,-214.99 710.26,-210.79 710.26,-210.79 710.26,-210.79 705.68,-214.99 713.31,-214.1 702.9,-217.55"/>
</g>
<!-- write g&#45;&gt;prog -->
<g id="edge8" class="edge">
<title>write g&#45;&gt;prog:e</title>
<path fill="none" stroke="darkcyan" d="M777.59,-192.23C763.5,-177.86 746,-160 746,-160 746,-160 716.95,-85.32 706.06,-57.31"/>
<polygon fill="darkcyan" stroke="darkcyan" points="702.44,-48.01 710.26,-55.7 703.81,-51.53 706.07,-57.33 706.07,-57.33 706.07,-57.33 703.81,-51.53 701.87,-58.96 702.44,-48.01"/>
</g>
<!-- copy g&#45;&gt;prog -->
<g id="edge12" class="edge">
<title>copy g&#45;&gt;prog:w</title>
<path fill="none" stroke="blue" d="M55.52,-240.36C73.68,-197.75 119.51,-90.24 133.73,-56.89"/>
<polygon fill="blue" stroke="blue" points="137.52,-48 137.74,-58.96 136.04,-51.47 133.6,-57.19 133.6,-57.19 133.6,-57.19 136.04,-51.47 129.46,-55.43 137.52,-48"/>
</g>
<!-- set g address&#45;&gt;prog -->
<g id="edge14" class="edge">
<title>set g address&#45;&gt;prog:w</title>
<path fill="none" stroke="#ff00ff" d="M55.37,-335.89C73.5,-379.95 119.86,-492.56 133.91,-526.68"/>
<polygon fill="#ff00ff" stroke="#ff00ff" points="137.54,-535.5 129.57,-527.96 136.1,-532 133.73,-526.25 133.73,-526.25 133.73,-526.25 136.1,-532 137.89,-524.54 137.54,-535.5"/>
</g>
</g>
</svg>
