<?xml version="1.0" encoding="UTF-8" standalone="no"?>
<!DOCTYPE svg PUBLIC "-//W3C//DTD SVG 1.1//EN"
 "http://www.w3.org/Graphics/SVG/1.1/DTD/svg11.dtd">
<!-- Generated by graphviz version 8.0.5 (0)
 -->
<!-- Pages: 1 -->
<svg width="386pt" height="221pt"
 viewBox="0.00 0.00 386.12 221.25" xmlns="http://www.w3.org/2000/svg" xmlns:xlink="http://www.w3.org/1999/xlink">
<g id="graph0" class="graph" transform="scale(1 1) rotate(0) translate(4 217.25)">
<polygon fill="white" stroke="none" points="-4,4 -4,-217.25 382.12,-217.25 382.12,4 -4,4"/>
<!-- foo -->
<g id="node1" class="node">
<title>foo</title>
<polygon fill="none" stroke="black" points="129.38,-97.25 129.38,-139.75 230.88,-139.75 230.88,-97.25 129.38,-97.25"/>
<text text-anchor="middle" x="180.12" y="-122.45" font-family="Times,serif" font-size="14.00">foo</text>
<text text-anchor="middle" x="180.12" y="-105.2" font-family="Times,serif" font-size="14.00">CFLAGS=&#45;g</text>
</g>
<!-- a.o -->
<g id="node2" class="node">
<title>a.o</title>
<polygon fill="none" stroke="black" points="0,-0.5 0,-60.25 108.25,-60.25 108.25,-0.5 0,-0.5"/>
<text text-anchor="middle" x="54.12" y="-42.95" font-family="Times,serif" font-size="14.00">a.o</text>
<text text-anchor="middle" x="54.12" y="-25.7" font-family="Times,serif" font-size="14.00">CFLAGS=&#45;g</text>
<text text-anchor="middle" x="54.12" y="-8.45" font-family="Times,serif" font-size="14.00">(propagated)</text>
</g>
<!-- foo&#45;&gt;a.o -->
<g id="edge3" class="edge">
<title>foo&#45;&gt;a.o</title>
<path fill="none" stroke="black" d="M150.58,-97.31C137.09,-88.08 120.7,-76.88 105.29,-66.35"/>
<polygon fill="black" stroke="black" points="107.6,-63 97.36,-60.25 103.65,-68.78 107.6,-63"/>
</g>
<!-- b.o -->
<g id="node3" class="node">
<title>b.o</title>
<polygon fill="none" stroke="black" points="126,-0.5 126,-60.25 234.25,-60.25 234.25,-0.5 126,-0.5"/>
<text text-anchor="middle" x="180.12" y="-42.95" font-family="Times,serif" font-size="14.00">b.o</text>
<text text-anchor="middle" x="180.12" y="-25.7" font-family="Times,serif" font-size="14.00">CFLAGS=&#45;g</text>
<text text-anchor="middle" x="180.12" y="-8.45" font-family="Times,serif" font-size="14.00">(propagated)</text>
</g>
<!-- foo&#45;&gt;b.o -->
<g id="edge4" class="edge">
<title>foo&#45;&gt;b.o</title>
<path fill="none" stroke="black" d="M180.12,-97.52C180.12,-89.61 180.12,-80.22 180.12,-71.04"/>
<polygon fill="black" stroke="black" points="183.63,-71.05 180.12,-61.05 176.63,-71.05 183.63,-71.05"/>
</g>
<!-- all -->
<g id="node4" class="node">
<title>all</title>
<polygon fill="none" stroke="black" points="202.12,-176.75 202.12,-212.75 256.12,-212.75 256.12,-176.75 202.12,-176.75"/>
<text text-anchor="middle" x="228.75" y="-190.07" font-family="Times,serif" font-size="14.00">all</text>
</g>
<!-- all&#45;&gt;foo -->
<g id="edge1" class="edge">
<title>all&#45;&gt;foo</title>
<path fill="none" stroke="black" d="M218.01,-176.9C212.54,-168.62 205.8,-158.4 199.52,-148.89"/>
<polygon fill="black" stroke="black" points="201.89,-147.13 193.46,-140.71 196.05,-150.99 201.89,-147.13"/>
</g>
<!-- bar -->
<g id="node5" class="node">
<title>bar</title>
<polygon fill="none" stroke="black" points="252.12,-100.5 252.12,-136.5 306.12,-136.5 306.12,-100.5 252.12,-100.5"/>
<text text-anchor="middle" x="279.12" y="-113.83" font-family="Times,serif" font-size="14.00">bar</text>
</g>
<!-- all&#45;&gt;bar -->
<g id="edge2" class="edge">
<title>all&#45;&gt;bar</title>
<path fill="none" stroke="black" d="M240.47,-176.9C246.74,-167.6 254.65,-155.84 261.68,-145.4"/>
<polygon fill="black" stroke="black" points="265.14,-147.53 267.82,-137.28 259.34,-143.62 265.14,-147.53"/>
</g>
<!-- c.o -->
<g id="node6" class="node">
<title>c.o</title>
<polygon fill="none" stroke="black" points="252.12,-12.38 252.12,-48.38 306.12,-48.38 306.12,-12.38 252.12,-12.38"/>
<text text-anchor="middle" x="278.75" y="-25.7" font-family="Times,serif" font-size="14.00">c.o</text>
</g>
<!-- bar&#45;&gt;c.o -->
<g id="edge5" class="edge">
<title>bar&#45;&gt;c.o</title>
<path fill="none" stroke="black" d="M279.12,-100.89C279.12,-89.06 279.12,-72.86 279.12,-59.08"/>
<polygon fill="black" stroke="black" points="282.63,-59.22 279.12,-49.22 275.63,-59.22 282.63,-59.22"/>
</g>
<!-- d.o -->
<g id="node7" class="node">
<title>d.o</title>
<polygon fill="none" stroke="black" points="324.12,-12.38 324.12,-48.38 378.12,-48.38 378.12,-12.38 324.12,-12.38"/>
<text text-anchor="middle" x="351" y="-25.7" font-family="Times,serif" font-size="14.00">d.o</text>
</g>
<!-- bar&#45;&gt;d.o -->
<g id="edge6" class="edge">
<title>bar&#45;&gt;d.o</title>
<path fill="none" stroke="black" d="M293.01,-100.89C303.5,-88.35 318.08,-70.9 330.01,-56.63"/>
<polygon fill="black" stroke="black" points="333.31,-59.14 337.04,-49.22 327.94,-54.65 333.31,-59.14"/>
</g>
</g>
</svg>
