<?xml version="1.0" encoding="UTF-8" standalone="no"?>
<!DOCTYPE svg PUBLIC "-//W3C//DTD SVG 1.1//EN"
 "http://www.w3.org/Graphics/SVG/1.1/DTD/svg11.dtd">
<!-- Generated by graphviz version 10.0.1 (0)
 -->
<!-- Pages: 1 -->
<svg width="386pt" height="221pt"
 viewBox="0.00 0.00 386.12 221.25" xmlns="http://www.w3.org/2000/svg" xmlns:xlink="http://www.w3.org/1999/xlink">
<g id="graph0" class="graph" transform="scale(1 1) rotate(0) translate(4 217.25)">
<polygon fill="white" stroke="none" points="-4,4 -4,-217.25 382.12,-217.25 382.12,4 -4,4"/>
<!-- foo -->
<g id="node1" class="node">
<title>foo</title>
<polygon fill="none" stroke="black" points="129.38,-97.25 129.38,-139.75 230.88,-139.75 230.88,-97.25 129.38,-97.25"/>
<text text-anchor="middle" x="180.12" y="-122.45" font-family="Times,serif" font-size="14.00">foo</text>
<text text-anchor="middle" x="180.12" y="-105.2" font-family="Times,serif" font-size="14.00">CFLAGS=&#45;g</text>
</g>
<!-- a.o -->
<g id="node2" class="node">
<title>a.o</title>
<polygon fill="none" stroke="black" points="0,-0.5 0,-60.25 108.25,-60.25 108.25,-0.5 0,-0.5"/>
<text text-anchor="middle" x="54.12" y="-42.95" font-family="Times,serif" font-size="14.00">a.o</text>
<text text-anchor="middle" x="54.12" y="-25.7" font-family="Times,serif" font-size="14.00">CFLAGS=&#45;g</text>
<text text-anchor="middle" x="54.12" y="-8.45" font-family="Times,serif" font-size="14.00">(propagated)</text>
</g>
<!-- foo&#45;&gt;a.o -->
<g id="edge3" class="edge">
<title>foo&#45;&gt;a.o</title>
<path fill="none" stroke="black" d="M149.94,-96.87C136.8,-87.89 121.01,-77.1 106.08,-66.89"/>
<polygon fill="black" stroke="black" points="108.4,-64.24 98.17,-61.48 104.45,-70.02 108.4,-64.24"/>
</g>
<!-- b.o -->
<g id="node3" class="node">
<title>b.o</title>
<polygon fill="none" stroke="black" points="126,-0.5 126,-60.25 234.25,-60.25 234.25,-0.5 126,-0.5"/>
<text text-anchor="middle" x="180.12" y="-42.95" font-family="Times,serif" font-size="14.00">b.o</text>
<text text-anchor="middle" x="180.12" y="-25.7" font-family="Times,serif" font-size="14.00">CFLAGS=&#45;g</text>
<text text-anchor="middle" x="180.12" y="-8.45" font-family="Times,serif" font-size="14.00">(propagated)</text>
</g>
<!-- foo&#45;&gt;b.o -->
<g id="edge4" class="edge">
<title>foo&#45;&gt;b.o</title>
<path fill="none" stroke="black" d="M180.12,-97.09C180.12,-89.48 180.12,-80.55 180.12,-71.77"/>
<polygon fill="black" stroke="black" points="183.63,-71.95 180.13,-61.95 176.63,-71.95 183.63,-71.95"/>
</g>
<!-- all -->
<g id="node4" class="node">
<title>all</title>
<polygon fill="none" stroke="black" points="202.12,-176.75 202.12,-212.75 256.12,-212.75 256.12,-176.75 202.12,-176.75"/>
<text text-anchor="middle" x="228.75" y="-190.07" font-family="Times,serif" font-size="14.00">all</text>
</g>
<!-- all&#45;&gt;foo -->
<g id="edge1" class="edge">
<title>all&#45;&gt;foo</title>
<path fill="none" stroke="black" d="M217.76,-176.53C212.49,-168.54 206.06,-158.8 200.02,-149.65"/>
<polygon fill="black" stroke="black" points="202.96,-147.74 194.53,-141.32 197.11,-151.6 202.96,-147.74"/>
</g>
<!-- bar -->
<g id="node5" class="node">
<title>bar</title>
<polygon fill="none" stroke="black" points="252.12,-100.5 252.12,-136.5 306.12,-136.5 306.12,-100.5 252.12,-100.5"/>
<text text-anchor="middle" x="279.12" y="-113.83" font-family="Times,serif" font-size="14.00">bar</text>
</g>
<!-- all&#45;&gt;bar -->
<g id="edge2" class="edge">
<title>all&#45;&gt;bar</title>
<path fill="none" stroke="black" d="M240.72,-176.53C246.8,-167.5 254.38,-156.25 261.19,-146.13"/>
<polygon fill="black" stroke="black" points="263.89,-148.39 266.57,-138.14 258.08,-144.48 263.89,-148.39"/>
</g>
<!-- c.o -->
<g id="node6" class="node">
<title>c.o</title>
<polygon fill="none" stroke="black" points="252.12,-12.38 252.12,-48.38 306.12,-48.38 306.12,-12.38 252.12,-12.38"/>
<text text-anchor="middle" x="278.75" y="-25.7" font-family="Times,serif" font-size="14.00">c.o</text>
</g>
<!-- bar&#45;&gt;c.o -->
<g id="edge5" class="edge">
<title>bar&#45;&gt;c.o</title>
<path fill="none" stroke="black" d="M279.12,-100.07C279.12,-88.63 279.12,-73.4 279.12,-60.18"/>
<polygon fill="black" stroke="black" points="282.63,-60.29 279.13,-50.29 275.63,-60.29 282.63,-60.29"/>
</g>
<!-- d.o -->
<g id="node7" class="node">
<title>d.o</title>
<polygon fill="none" stroke="black" points="324.12,-12.38 324.12,-48.38 378.12,-48.38 378.12,-12.38 324.12,-12.38"/>
<text text-anchor="middle" x="351" y="-25.7" font-family="Times,serif" font-size="14.00">d.o</text>
</g>
<!-- bar&#45;&gt;d.o -->
<g id="edge6" class="edge">
<title>bar&#45;&gt;d.o</title>
<path fill="none" stroke="black" d="M293.7,-100.07C303.94,-87.81 317.83,-71.2 329.38,-57.38"/>
<polygon fill="black" stroke="black" points="331.88,-59.86 335.61,-49.94 326.51,-55.37 331.88,-59.86"/>
</g>
</g>
</svg>
