<?xml version="1.0" encoding="UTF-8" standalone="no"?>
<!DOCTYPE svg PUBLIC "-//W3C//DTD SVG 1.1//EN"
 "http://www.w3.org/Graphics/SVG/1.1/DTD/svg11.dtd">
<!-- Generated by graphviz version 12.2.0 (0)
 -->
<!-- Pages: 1 -->
<svg width="290pt" height="198pt"
 viewBox="0.00 0.00 290.00 197.50" xmlns="http://www.w3.org/2000/svg" xmlns:xlink="http://www.w3.org/1999/xlink">
<g id="graph0" class="graph" transform="scale(1 1) rotate(0) translate(4 193.5)">
<polygon fill="white" stroke="none" points="-4,4 -4,-193.5 286,-193.5 286,4 -4,4"/>
<!-- foo -->
<g id="node1" class="node">
<title>foo</title>
<polygon fill="none" stroke="black" points="42.25,-73.5 42.25,-116 143.75,-116 143.75,-73.5 42.25,-73.5"/>
<text text-anchor="middle" x="93" y="-98.7" font-family="Times,serif" font-size="14.00">foo</text>
<text text-anchor="middle" x="93" y="-81.45" font-family="Times,serif" font-size="14.00">CFLAGS=&#45;g</text>
</g>
<!-- a.o -->
<g id="node4" class="node">
<title>a.o</title>
<polygon fill="none" stroke="black" points="0,-0.5 0,-36.5 54,-36.5 54,-0.5 0,-0.5"/>
<text text-anchor="middle" x="27" y="-13.82" font-family="Times,serif" font-size="14.00">a.o</text>
</g>
<!-- foo&#45;&gt;a.o -->
<g id="edge3" class="edge">
<title>foo&#45;&gt;a.o</title>
<path fill="none" stroke="black" d="M74.62,-73.07C66.87,-64.35 57.78,-54.12 49.62,-44.95"/>
<polygon fill="black" stroke="black" points="52.44,-42.85 43.18,-37.7 47.2,-47.5 52.44,-42.85"/>
</g>
<!-- b.o -->
<g id="node5" class="node">
<title>b.o</title>
<polygon fill="none" stroke="black" points="72,-0.5 72,-36.5 126,-36.5 126,-0.5 72,-0.5"/>
<text text-anchor="middle" x="98.88" y="-13.82" font-family="Times,serif" font-size="14.00">b.o</text>
</g>
<!-- foo&#45;&gt;b.o -->
<g id="edge4" class="edge">
<title>foo&#45;&gt;b.o</title>
<path fill="none" stroke="black" d="M94.67,-73.07C95.3,-65.25 96.03,-56.22 96.71,-47.82"/>
<polygon fill="black" stroke="black" points="100.18,-48.32 97.5,-38.08 93.2,-47.76 100.18,-48.32"/>
</g>
<!-- all -->
<g id="node2" class="node">
<title>all</title>
<polygon fill="none" stroke="black" points="114,-153 114,-189 168,-189 168,-153 114,-153"/>
<text text-anchor="middle" x="140.62" y="-166.32" font-family="Times,serif" font-size="14.00">all</text>
</g>
<!-- all&#45;&gt;foo -->
<g id="edge1" class="edge">
<title>all&#45;&gt;foo</title>
<path fill="none" stroke="black" d="M129.87,-152.78C124.7,-144.79 118.41,-135.05 112.49,-125.9"/>
<polygon fill="black" stroke="black" points="115.48,-124.08 107.11,-117.58 109.6,-127.88 115.48,-124.08"/>
</g>
<!-- bar -->
<g id="node3" class="node">
<title>bar</title>
<polygon fill="none" stroke="black" points="162,-76.75 162,-112.75 216,-112.75 216,-76.75 162,-76.75"/>
<text text-anchor="middle" x="189" y="-90.08" font-family="Times,serif" font-size="14.00">bar</text>
</g>
<!-- all&#45;&gt;bar -->
<g id="edge2" class="edge">
<title>all&#45;&gt;bar</title>
<path fill="none" stroke="black" d="M152.13,-152.78C157.91,-143.85 165.09,-132.73 171.58,-122.69"/>
<polygon fill="black" stroke="black" points="174.45,-124.7 176.94,-114.41 168.57,-120.9 174.45,-124.7"/>
</g>
<!-- c.o -->
<g id="node6" class="node">
<title>c.o</title>
<polygon fill="none" stroke="black" points="156,-0.5 156,-36.5 210,-36.5 210,-0.5 156,-0.5"/>
<text text-anchor="middle" x="182.62" y="-13.82" font-family="Times,serif" font-size="14.00">c.o</text>
</g>
<!-- bar&#45;&gt;c.o -->
<g id="edge5" class="edge">
<title>bar&#45;&gt;c.o</title>
<path fill="none" stroke="black" d="M187.61,-76.53C186.93,-68.16 186.1,-57.86 185.33,-48.34"/>
<polygon fill="black" stroke="black" points="188.82,-48.08 184.53,-38.39 181.84,-48.64 188.82,-48.08"/>
</g>
<!-- d.o -->
<g id="node7" class="node">
<title>d.o</title>
<polygon fill="none" stroke="black" points="228,-0.5 228,-36.5 282,-36.5 282,-0.5 228,-0.5"/>
<text text-anchor="middle" x="254.88" y="-13.82" font-family="Times,serif" font-size="14.00">d.o</text>
</g>
<!-- bar&#45;&gt;d.o -->
<g id="edge6" class="edge">
<title>bar&#45;&gt;d.o</title>
<path fill="none" stroke="black" d="M204.31,-76.53C212.58,-67.22 222.95,-55.55 232.16,-45.19"/>
<polygon fill="black" stroke="black" points="234.51,-47.82 238.54,-38.02 229.28,-43.16 234.51,-47.82"/>
</g>
</g>
</svg>
