<?xml version="1.0" encoding="UTF-8" standalone="no"?>
<!DOCTYPE svg PUBLIC "-//W3C//DTD SVG 1.1//EN"
 "http://www.w3.org/Graphics/SVG/1.1/DTD/svg11.dtd">
<!-- Generated by graphviz version 8.1.0 (0)
 -->
<!-- Pages: 1 -->
<svg width="290pt" height="198pt"
 viewBox="0.00 0.00 290.00 197.50" xmlns="http://www.w3.org/2000/svg" xmlns:xlink="http://www.w3.org/1999/xlink">
<g id="graph0" class="graph" transform="scale(1 1) rotate(0) translate(4 193.5)">
<polygon fill="white" stroke="none" points="-4,4 -4,-193.5 286,-193.5 286,4 -4,4"/>
<!-- foo -->
<g id="node1" class="node">
<title>foo</title>
<polygon fill="none" stroke="black" points="42.25,-73.5 42.25,-116 143.75,-116 143.75,-73.5 42.25,-73.5"/>
<text text-anchor="middle" x="93" y="-98.7" font-family="Times,serif" font-size="14.00">foo</text>
<text text-anchor="middle" x="93" y="-81.45" font-family="Times,serif" font-size="14.00">CFLAGS=&#45;g</text>
</g>
<!-- a.o -->
<g id="node4" class="node">
<title>a.o</title>
<polygon fill="none" stroke="black" points="0,-0.5 0,-36.5 54,-36.5 54,-0.5 0,-0.5"/>
<text text-anchor="middle" x="27" y="-13.82" font-family="Times,serif" font-size="14.00">a.o</text>
</g>
<!-- foo&#45;&gt;a.o -->
<g id="edge3" class="edge">
<title>foo&#45;&gt;a.o</title>
<path fill="none" stroke="black" d="M75.31,-73.85C67.28,-64.82 57.69,-54.03 49.18,-44.46"/>
<polygon fill="black" stroke="black" points="52.31,-42.58 43.05,-37.43 47.08,-47.23 52.31,-42.58"/>
</g>
<!-- b.o -->
<g id="node5" class="node">
<title>b.o</title>
<polygon fill="none" stroke="black" points="72,-0.5 72,-36.5 126,-36.5 126,-0.5 72,-0.5"/>
<text text-anchor="middle" x="98.88" y="-13.82" font-family="Times,serif" font-size="14.00">b.o</text>
</g>
<!-- foo&#45;&gt;b.o -->
<g id="edge4" class="edge">
<title>foo&#45;&gt;b.o</title>
<path fill="none" stroke="black" d="M94.61,-73.85C95.26,-65.73 96.04,-56.19 96.75,-47.39"/>
<polygon fill="black" stroke="black" points="100.32,-47.68 97.63,-37.43 93.34,-47.12 100.32,-47.68"/>
</g>
<!-- all -->
<g id="node2" class="node">
<title>all</title>
<polygon fill="none" stroke="black" points="114,-153 114,-189 168,-189 168,-153 114,-153"/>
<text text-anchor="middle" x="140.62" y="-166.32" font-family="Times,serif" font-size="14.00">all</text>
</g>
<!-- all&#45;&gt;foo -->
<g id="edge1" class="edge">
<title>all&#45;&gt;foo</title>
<path fill="none" stroke="black" d="M130.11,-153.15C124.76,-144.87 118.15,-134.65 112,-125.14"/>
<polygon fill="black" stroke="black" points="114.44,-123.46 106.07,-116.96 108.56,-127.26 114.44,-123.46"/>
</g>
<!-- bar -->
<g id="node3" class="node">
<title>bar</title>
<polygon fill="none" stroke="black" points="162,-76.75 162,-112.75 216,-112.75 216,-76.75 162,-76.75"/>
<text text-anchor="middle" x="189" y="-90.08" font-family="Times,serif" font-size="14.00">bar</text>
</g>
<!-- all&#45;&gt;bar -->
<g id="edge2" class="edge">
<title>all&#45;&gt;bar</title>
<path fill="none" stroke="black" d="M151.89,-153.15C157.91,-143.85 165.5,-132.09 172.26,-121.65"/>
<polygon fill="black" stroke="black" points="175.66,-123.83 178.15,-113.53 169.78,-120.03 175.66,-123.83"/>
</g>
<!-- c.o -->
<g id="node6" class="node">
<title>c.o</title>
<polygon fill="none" stroke="black" points="156,-0.5 156,-36.5 210,-36.5 210,-0.5 156,-0.5"/>
<text text-anchor="middle" x="182.62" y="-13.82" font-family="Times,serif" font-size="14.00">c.o</text>
</g>
<!-- bar&#45;&gt;c.o -->
<g id="edge5" class="edge">
<title>bar&#45;&gt;c.o</title>
<path fill="none" stroke="black" d="M187.64,-76.9C186.93,-68.07 186.03,-57.04 185.22,-47.01"/>
<polygon fill="black" stroke="black" points="188.65,-46.97 184.36,-37.28 181.67,-47.53 188.65,-46.97"/>
</g>
<!-- d.o -->
<g id="node7" class="node">
<title>d.o</title>
<polygon fill="none" stroke="black" points="228,-0.5 228,-36.5 282,-36.5 282,-0.5 228,-0.5"/>
<text text-anchor="middle" x="254.88" y="-13.82" font-family="Times,serif" font-size="14.00">d.o</text>
</g>
<!-- bar&#45;&gt;d.o -->
<g id="edge6" class="edge">
<title>bar&#45;&gt;d.o</title>
<path fill="none" stroke="black" d="M203.98,-76.9C212.5,-67.31 223.34,-55.12 232.83,-44.44"/>
<polygon fill="black" stroke="black" points="235.06,-47.08 239.08,-37.28 229.82,-42.43 235.06,-47.08"/>
</g>
</g>
</svg>
