<?xml version="1.0" encoding="UTF-8" standalone="no"?>
<!DOCTYPE svg PUBLIC "-//W3C//DTD SVG 1.1//EN"
 "http://www.w3.org/Graphics/SVG/1.1/DTD/svg11.dtd">
<!-- Generated by graphviz version 12.2.1 (0)
 -->
<!-- Pages: 1 -->
<svg width="680pt" height="221pt"
 viewBox="0.00 0.00 680.25 221.25" xmlns="http://www.w3.org/2000/svg" xmlns:xlink="http://www.w3.org/1999/xlink">
<g id="graph0" class="graph" transform="scale(1 1) rotate(0) translate(4 217.25)">
<polygon fill="white" stroke="none" points="-4,4 -4,-217.25 676.25,-217.25 676.25,4 -4,4"/>
<!-- foo -->
<g id="node1" class="node">
<title>foo</title>
<polygon fill="none" stroke="black" points="205,-97.25 205,-139.75 323.75,-139.75 323.75,-97.25 205,-97.25"/>
<text text-anchor="middle" x="264.38" y="-122.45" font-family="Times,serif" font-size="14.00">foo</text>
<text text-anchor="middle" x="264.38" y="-105.2" font-family="Times,serif" font-size="14.00">CFLAGS=&#45;ffoo</text>
</g>
<!-- a.o -->
<g id="node3" class="node">
<title>a.o</title>
<polygon fill="none" stroke="black" points="0,-0.5 0,-60.25 118.75,-60.25 118.75,-0.5 0,-0.5"/>
<text text-anchor="middle" x="59.38" y="-42.95" font-family="Times,serif" font-size="14.00">a.o</text>
<text text-anchor="middle" x="59.38" y="-25.7" font-family="Times,serif" font-size="14.00">CFLAGS=&#45;ffoo</text>
<text text-anchor="middle" x="59.38" y="-8.45" font-family="Times,serif" font-size="14.00">(propagated)</text>
</g>
<!-- foo&#45;&gt;a.o -->
<g id="edge3" class="edge">
<title>foo&#45;&gt;a.o</title>
<path fill="none" stroke="black" d="M214.6,-96.83C191.26,-87.11 162.84,-75.25 129.65,-61.28"/>
<polygon fill="black" stroke="black" points="131.17,-58.12 120.6,-57.46 128.45,-64.57 131.17,-58.12"/>
</g>
<!-- b.o -->
<g id="node4" class="node">
<title>b.o</title>
<polygon fill="none" stroke="black" points="137,-0.5 137,-60.25 255.75,-60.25 255.75,-0.5 137,-0.5"/>
<text text-anchor="middle" x="196.38" y="-42.95" font-family="Times,serif" font-size="14.00">b.o</text>
<text text-anchor="middle" x="196.38" y="-25.7" font-family="Times,serif" font-size="14.00">CFLAGS=&#45;ffoo</text>
<text text-anchor="middle" x="196.38" y="-8.45" font-family="Times,serif" font-size="14.00">(propagated)</text>
</g>
<!-- foo&#45;&gt;b.o -->
<g id="edge4" class="edge">
<title>foo&#45;&gt;b.o</title>
<path fill="none" stroke="black" d="M248.26,-97.09C241.71,-88.8 233.93,-78.94 226.41,-69.41"/>
<polygon fill="black" stroke="black" points="229.2,-67.31 220.26,-61.63 223.71,-71.64 229.2,-67.31"/>
</g>
<!-- shared.o -->
<g id="node7" class="node">
<title>shared.o</title>
<polygon fill="none" stroke="red" points="274,-0.5 274,-60.25 392.75,-60.25 392.75,-0.5 274,-0.5"/>
<text text-anchor="middle" x="333.38" y="-42.95" font-family="Times,serif" font-size="14.00">shared.o</text>
<text text-anchor="middle" x="333.38" y="-25.7" font-family="Times,serif" font-size="14.00">CFLAGS=&#45;ffoo</text>
<text text-anchor="middle" x="333.38" y="-8.45" font-family="Times,serif" font-size="14.00">(propagated)</text>
</g>
<!-- foo&#45;&gt;shared.o -->
<g id="edge5" class="edge">
<title>foo&#45;&gt;shared.o</title>
<path fill="none" stroke="red" d="M280.73,-97.09C287.37,-88.8 295.27,-78.94 302.9,-69.41"/>
<polygon fill="red" stroke="red" points="305.62,-71.61 309.14,-61.62 300.16,-67.24 305.62,-71.61"/>
</g>
<!-- bar -->
<g id="node2" class="node">
<title>bar</title>
<polygon fill="none" stroke="black" points="375.5,-97.25 375.5,-139.75 497.25,-139.75 497.25,-97.25 375.5,-97.25"/>
<text text-anchor="middle" x="436.38" y="-122.45" font-family="Times,serif" font-size="14.00">bar</text>
<text text-anchor="middle" x="436.38" y="-105.2" font-family="Times,serif" font-size="14.00">CFLAGS=&#45;fbar</text>
</g>
<!-- c.o -->
<g id="node5" class="node">
<title>c.o</title>
<polygon fill="none" stroke="black" points="410.5,-0.5 410.5,-60.25 532.25,-60.25 532.25,-0.5 410.5,-0.5"/>
<text text-anchor="middle" x="471.38" y="-42.95" font-family="Times,serif" font-size="14.00">c.o</text>
<text text-anchor="middle" x="471.38" y="-25.7" font-family="Times,serif" font-size="14.00">CFLAGS=&#45;fbar</text>
<text text-anchor="middle" x="471.38" y="-8.45" font-family="Times,serif" font-size="14.00">(propagated)</text>
</g>
<!-- bar&#45;&gt;c.o -->
<g id="edge6" class="edge">
<title>bar&#45;&gt;c.o</title>
<path fill="none" stroke="black" d="M444.67,-97.09C447.87,-89.22 451.64,-79.95 455.32,-70.89"/>
<polygon fill="black" stroke="black" points="458.47,-72.42 458.99,-61.84 451.99,-69.79 458.47,-72.42"/>
</g>
<!-- d.o -->
<g id="node6" class="node">
<title>d.o</title>
<polygon fill="none" stroke="black" points="550.5,-0.5 550.5,-60.25 672.25,-60.25 672.25,-0.5 550.5,-0.5"/>
<text text-anchor="middle" x="611.38" y="-42.95" font-family="Times,serif" font-size="14.00">d.o</text>
<text text-anchor="middle" x="611.38" y="-25.7" font-family="Times,serif" font-size="14.00">CFLAGS=&#45;fbar</text>
<text text-anchor="middle" x="611.38" y="-8.45" font-family="Times,serif" font-size="14.00">(propagated)</text>
</g>
<!-- bar&#45;&gt;d.o -->
<g id="edge7" class="edge">
<title>bar&#45;&gt;d.o</title>
<path fill="none" stroke="black" d="M478.29,-96.87C497.32,-87.51 520.34,-76.18 541.85,-65.59"/>
<polygon fill="black" stroke="black" points="543.15,-68.85 550.57,-61.3 540.06,-62.57 543.15,-68.85"/>
</g>
<!-- bar&#45;&gt;shared.o -->
<g id="edge8" class="edge">
<title>bar&#45;&gt;shared.o</title>
<path fill="none" stroke="black" d="M411.7,-96.87C401.26,-88.14 388.78,-77.7 376.88,-67.76"/>
<polygon fill="black" stroke="black" points="379.44,-65.33 369.52,-61.6 374.95,-70.7 379.44,-65.33"/>
</g>
<!-- all -->
<g id="node8" class="node">
<title>all</title>
<polygon fill="none" stroke="black" points="306.38,-176.75 306.38,-212.75 360.38,-212.75 360.38,-176.75 306.38,-176.75"/>
<text text-anchor="middle" x="333" y="-190.07" font-family="Times,serif" font-size="14.00">all</text>
</g>
<!-- all&#45;&gt;foo -->
<g id="edge1" class="edge">
<title>all&#45;&gt;foo</title>
<path fill="none" stroke="black" d="M317.37,-176.53C309.63,-168.2 300.12,-157.97 291.31,-148.48"/>
<polygon fill="black" stroke="black" points="293.88,-146.11 284.51,-141.17 288.75,-150.88 293.88,-146.11"/>
</g>
<!-- all&#45;&gt;bar -->
<g id="edge2" class="edge">
<title>all&#45;&gt;bar</title>
<path fill="none" stroke="black" d="M357.52,-176.34C369.7,-167.57 384.75,-156.72 398.42,-146.86"/>
<polygon fill="black" stroke="black" points="400.32,-149.8 406.39,-141.12 396.23,-144.12 400.32,-149.8"/>
</g>
</g>
</svg>
