<?xml version="1.0" encoding="UTF-8" standalone="no"?>
<!DOCTYPE svg PUBLIC "-//W3C//DTD SVG 1.1//EN"
 "http://www.w3.org/Graphics/SVG/1.1/DTD/svg11.dtd">
<!-- Generated by graphviz version 9.0.0 (0)
 -->
<!-- Pages: 1 -->
<svg width="745pt" height="221pt"
 viewBox="0.00 0.00 745.25 221.25" xmlns="http://www.w3.org/2000/svg" xmlns:xlink="http://www.w3.org/1999/xlink">
<g id="graph0" class="graph" transform="scale(1 1) rotate(0) translate(4 217.25)">
<polygon fill="white" stroke="none" points="-4,4 -4,-217.25 741.25,-217.25 741.25,4 -4,4"/>
<!-- foo -->
<g id="node1" class="node">
<title>foo</title>
<polygon fill="none" stroke="black" points="229,-97.25 229,-139.75 347.75,-139.75 347.75,-97.25 229,-97.25"/>
<text text-anchor="middle" x="288.38" y="-122.45" font-family="Times,serif" font-size="14.00">foo</text>
<text text-anchor="middle" x="288.38" y="-105.2" font-family="Times,serif" font-size="14.00">CFLAGS=&#45;ffoo</text>
</g>
<!-- a.o -->
<g id="node3" class="node">
<title>a.o</title>
<polygon fill="none" stroke="black" points="0,-0.5 0,-60.25 118.75,-60.25 118.75,-0.5 0,-0.5"/>
<text text-anchor="middle" x="59.38" y="-42.95" font-family="Times,serif" font-size="14.00">a.o</text>
<text text-anchor="middle" x="59.38" y="-25.7" font-family="Times,serif" font-size="14.00">CFLAGS=&#45;ffoo</text>
<text text-anchor="middle" x="59.38" y="-8.45" font-family="Times,serif" font-size="14.00">(propagated)</text>
</g>
<!-- foo&#45;&gt;a.o -->
<g id="edge3" class="edge">
<title>foo&#45;&gt;a.o</title>
<path fill="none" stroke="black" d="M228.79,-97.34C201.02,-87.73 167.39,-75.75 129.41,-61.08"/>
<polygon fill="black" stroke="black" points="131.12,-57.99 120.53,-57.63 128.58,-64.51 131.12,-57.99"/>
</g>
<!-- b.o -->
<g id="node4" class="node">
<title>b.o</title>
<polygon fill="none" stroke="black" points="137,-0.5 137,-60.25 255.75,-60.25 255.75,-0.5 137,-0.5"/>
<text text-anchor="middle" x="196.38" y="-42.95" font-family="Times,serif" font-size="14.00">b.o</text>
<text text-anchor="middle" x="196.38" y="-25.7" font-family="Times,serif" font-size="14.00">CFLAGS=&#45;ffoo</text>
<text text-anchor="middle" x="196.38" y="-8.45" font-family="Times,serif" font-size="14.00">(propagated)</text>
</g>
<!-- foo&#45;&gt;b.o -->
<g id="edge4" class="edge">
<title>foo&#45;&gt;b.o</title>
<path fill="none" stroke="black" d="M266.57,-97.09C257.35,-88.45 246.31,-78.12 235.75,-68.23"/>
<polygon fill="black" stroke="black" points="238.22,-65.75 228.53,-61.47 233.44,-70.86 238.22,-65.75"/>
</g>
<!-- shared.o -->
<g id="node7" class="node">
<title>shared.o</title>
<polygon fill="none" stroke="red" points="273.38,-0.5 273.38,-60.25 457.38,-60.25 457.38,-0.5 273.38,-0.5"/>
<text text-anchor="middle" x="365.38" y="-42.95" font-family="Times,serif" font-size="14.00">shared.o</text>
<text text-anchor="middle" x="365.38" y="-25.7" font-family="Times,serif" font-size="14.00">CFLAGS=&#45;ffoo or &#45;fbar?</text>
<text text-anchor="middle" x="365.38" y="-8.45" font-family="Times,serif" font-size="14.00">(propagated)</text>
</g>
<!-- foo&#45;&gt;shared.o -->
<g id="edge5" class="edge">
<title>foo&#45;&gt;shared.o</title>
<path fill="none" stroke="red" d="M306.62,-97.09C314.19,-88.63 323.22,-78.53 331.9,-68.82"/>
<polygon fill="red" stroke="red" points="334.33,-71.36 338.38,-61.57 329.11,-66.69 334.33,-71.36"/>
</g>
<!-- bar -->
<g id="node2" class="node">
<title>bar</title>
<polygon fill="none" stroke="black" points="380.5,-97.25 380.5,-139.75 502.25,-139.75 502.25,-97.25 380.5,-97.25"/>
<text text-anchor="middle" x="441.38" y="-122.45" font-family="Times,serif" font-size="14.00">bar</text>
<text text-anchor="middle" x="441.38" y="-105.2" font-family="Times,serif" font-size="14.00">CFLAGS=&#45;fbar</text>
</g>
<!-- c.o -->
<g id="node5" class="node">
<title>c.o</title>
<polygon fill="none" stroke="black" points="475.5,-0.5 475.5,-60.25 597.25,-60.25 597.25,-0.5 475.5,-0.5"/>
<text text-anchor="middle" x="536.38" y="-42.95" font-family="Times,serif" font-size="14.00">c.o</text>
<text text-anchor="middle" x="536.38" y="-25.7" font-family="Times,serif" font-size="14.00">CFLAGS=&#45;fbar</text>
<text text-anchor="middle" x="536.38" y="-8.45" font-family="Times,serif" font-size="14.00">(propagated)</text>
</g>
<!-- bar&#45;&gt;c.o -->
<g id="edge6" class="edge">
<title>bar&#45;&gt;c.o</title>
<path fill="none" stroke="black" d="M463.89,-97.09C473.51,-88.37 485.04,-77.92 496.04,-67.94"/>
<polygon fill="black" stroke="black" points="498.14,-70.77 503.19,-61.46 493.44,-65.58 498.14,-70.77"/>
</g>
<!-- d.o -->
<g id="node6" class="node">
<title>d.o</title>
<polygon fill="none" stroke="black" points="615.5,-0.5 615.5,-60.25 737.25,-60.25 737.25,-0.5 615.5,-0.5"/>
<text text-anchor="middle" x="676.38" y="-42.95" font-family="Times,serif" font-size="14.00">d.o</text>
<text text-anchor="middle" x="676.38" y="-25.7" font-family="Times,serif" font-size="14.00">CFLAGS=&#45;fbar</text>
<text text-anchor="middle" x="676.38" y="-8.45" font-family="Times,serif" font-size="14.00">(propagated)</text>
</g>
<!-- bar&#45;&gt;d.o -->
<g id="edge7" class="edge">
<title>bar&#45;&gt;d.o</title>
<path fill="none" stroke="black" d="M502.45,-97.56C531.15,-87.95 565.99,-75.92 604.58,-61.36"/>
<polygon fill="black" stroke="black" points="605.49,-64.76 613.59,-57.93 603,-58.22 605.49,-64.76"/>
</g>
<!-- bar&#45;&gt;shared.o -->
<g id="edge8" class="edge">
<title>bar&#45;&gt;shared.o</title>
<path fill="none" stroke="red" d="M423.36,-97.09C415.9,-88.63 406.99,-78.53 398.42,-68.82"/>
<polygon fill="red" stroke="red" points="401.26,-66.76 392.02,-61.57 396.02,-71.39 401.26,-66.76"/>
</g>
<!-- all -->
<g id="node8" class="node">
<title>all</title>
<polygon fill="none" stroke="black" points="330.38,-176.75 330.38,-212.75 384.38,-212.75 384.38,-176.75 330.38,-176.75"/>
<text text-anchor="middle" x="357" y="-190.07" font-family="Times,serif" font-size="14.00">all</text>
</g>
<!-- all&#45;&gt;foo -->
<g id="edge1" class="edge">
<title>all&#45;&gt;foo</title>
<path fill="none" stroke="black" d="M341.37,-176.53C333.63,-168.2 324.12,-157.97 315.31,-148.48"/>
<polygon fill="black" stroke="black" points="317.88,-146.11 308.51,-141.17 312.75,-150.88 317.88,-146.11"/>
</g>
<!-- all&#45;&gt;bar -->
<g id="edge2" class="edge">
<title>all&#45;&gt;bar</title>
<path fill="none" stroke="black" d="M376.86,-176.53C386.57,-167.94 398.57,-157.34 409.57,-147.62"/>
<polygon fill="black" stroke="black" points="411.81,-150.31 416.98,-141.06 407.17,-145.06 411.81,-150.31"/>
</g>
</g>
</svg>
