<?xml version="1.0" encoding="UTF-8" standalone="no"?>
<!DOCTYPE svg PUBLIC "-//W3C//DTD SVG 1.1//EN"
 "http://www.w3.org/Graphics/SVG/1.1/DTD/svg11.dtd">
<!-- Generated by graphviz version 12.2.1 (0)
 -->
<!-- Pages: 1 -->
<svg width="708pt" height="198pt"
 viewBox="0.00 0.00 708.25 197.50" xmlns="http://www.w3.org/2000/svg" xmlns:xlink="http://www.w3.org/1999/xlink">
<g id="graph0" class="graph" transform="scale(1 1) rotate(0) translate(4 193.5)">
<polygon fill="white" stroke="none" points="-4,4 -4,-193.5 704.25,-193.5 704.25,4 -4,4"/>
<!-- a.o -->
<g id="node1" class="node">
<title>a.o</title>
<polygon fill="none" stroke="black" points="0,-0.5 0,-43 118.75,-43 118.75,-0.5 0,-0.5"/>
<text text-anchor="middle" x="59.38" y="-25.7" font-family="Times,serif" font-size="14.00">a.o</text>
<text text-anchor="middle" x="59.38" y="-8.45" font-family="Times,serif" font-size="14.00">CFLAGS=&#45;ffoo</text>
</g>
<!-- b.o -->
<g id="node2" class="node">
<title>b.o</title>
<polygon fill="none" stroke="black" points="137,-0.5 137,-43 255.75,-43 255.75,-0.5 137,-0.5"/>
<text text-anchor="middle" x="196.38" y="-25.7" font-family="Times,serif" font-size="14.00">b.o</text>
<text text-anchor="middle" x="196.38" y="-8.45" font-family="Times,serif" font-size="14.00">CFLAGS=&#45;ffoo</text>
</g>
<!-- c.o -->
<g id="node3" class="node">
<title>c.o</title>
<polygon fill="none" stroke="black" points="438.5,-0.5 438.5,-43 560.25,-43 560.25,-0.5 438.5,-0.5"/>
<text text-anchor="middle" x="499.38" y="-25.7" font-family="Times,serif" font-size="14.00">c.o</text>
<text text-anchor="middle" x="499.38" y="-8.45" font-family="Times,serif" font-size="14.00">CFLAGS=&#45;fbar</text>
</g>
<!-- d.o -->
<g id="node4" class="node">
<title>d.o</title>
<polygon fill="none" stroke="black" points="578.5,-0.5 578.5,-43 700.25,-43 700.25,-0.5 578.5,-0.5"/>
<text text-anchor="middle" x="639.38" y="-25.7" font-family="Times,serif" font-size="14.00">d.o</text>
<text text-anchor="middle" x="639.38" y="-8.45" font-family="Times,serif" font-size="14.00">CFLAGS=&#45;fbar</text>
</g>
<!-- shared.o -->
<g id="node5" class="node">
<title>shared.o</title>
<polygon fill="none" stroke="green" points="274.12,-0.5 274.12,-43 420.62,-43 420.62,-0.5 274.12,-0.5"/>
<text text-anchor="middle" x="347.38" y="-25.7" font-family="Times,serif" font-size="14.00">shared.o</text>
<text text-anchor="middle" x="347.38" y="-8.45" font-family="Times,serif" font-size="14.00">CFLAGS=&#45;fshared</text>
</g>
<!-- all -->
<g id="node6" class="node">
<title>all</title>
<polygon fill="none" stroke="black" points="300.38,-153 300.38,-189 354.38,-189 354.38,-153 300.38,-153"/>
<text text-anchor="middle" x="327" y="-166.32" font-family="Times,serif" font-size="14.00">all</text>
</g>
<!-- foo -->
<g id="node7" class="node">
<title>foo</title>
<polygon fill="none" stroke="black" points="264.38,-80 264.38,-116 318.38,-116 318.38,-80 264.38,-80"/>
<text text-anchor="middle" x="291.25" y="-93.33" font-family="Times,serif" font-size="14.00">foo</text>
</g>
<!-- all&#45;&gt;foo -->
<g id="edge1" class="edge">
<title>all&#45;&gt;foo</title>
<path fill="none" stroke="black" d="M318.66,-152.81C314.59,-144.79 309.65,-135.05 305.1,-126.07"/>
<polygon fill="black" stroke="black" points="308.34,-124.71 300.69,-117.38 302.09,-127.88 308.34,-124.71"/>
</g>
<!-- bar -->
<g id="node8" class="node">
<title>bar</title>
<polygon fill="none" stroke="black" points="375.38,-80 375.38,-116 429.38,-116 429.38,-80 375.38,-80"/>
<text text-anchor="middle" x="402.38" y="-93.33" font-family="Times,serif" font-size="14.00">bar</text>
</g>
<!-- all&#45;&gt;bar -->
<g id="edge2" class="edge">
<title>all&#45;&gt;bar</title>
<path fill="none" stroke="black" d="M345.53,-152.81C354.68,-144.16 365.93,-133.5 376.01,-123.96"/>
<polygon fill="black" stroke="black" points="378.17,-126.73 383.03,-117.32 373.36,-121.65 378.17,-126.73"/>
</g>
<!-- foo&#45;&gt;a.o -->
<g id="edge3" class="edge">
<title>foo&#45;&gt;a.o</title>
<path fill="none" stroke="black" d="M264.31,-88.34C231.62,-77.88 175.39,-59.88 130.09,-45.38"/>
<polygon fill="black" stroke="black" points="131.16,-42.05 120.57,-42.34 129.03,-48.72 131.16,-42.05"/>
</g>
<!-- foo&#45;&gt;b.o -->
<g id="edge4" class="edge">
<title>foo&#45;&gt;b.o</title>
<path fill="none" stroke="black" d="M269.34,-79.78C258.14,-71.02 244.25,-60.17 231.61,-50.29"/>
<polygon fill="black" stroke="black" points="233.91,-47.64 223.87,-44.24 229.6,-53.16 233.91,-47.64"/>
</g>
<!-- foo&#45;&gt;shared.o -->
<g id="edge5" class="edge">
<title>foo&#45;&gt;shared.o</title>
<path fill="none" stroke="green" d="M304.36,-79.78C310.52,-71.62 318.05,-61.63 325.08,-52.32"/>
<polygon fill="green" stroke="green" points="327.73,-54.61 330.96,-44.52 322.14,-50.39 327.73,-54.61"/>
</g>
<!-- bar&#45;&gt;c.o -->
<g id="edge6" class="edge">
<title>bar&#45;&gt;c.o</title>
<path fill="none" stroke="black" d="M424.87,-79.78C436.31,-71.02 450.49,-60.17 463.4,-50.29"/>
<polygon fill="black" stroke="black" points="465.5,-53.09 471.31,-44.23 461.25,-47.53 465.5,-53.09"/>
</g>
<!-- bar&#45;&gt;d.o -->
<g id="edge7" class="edge">
<title>bar&#45;&gt;d.o</title>
<path fill="none" stroke="black" d="M429.56,-88.48C462.88,-78.04 520.64,-59.95 567.13,-45.38"/>
<polygon fill="black" stroke="black" points="568.13,-48.74 576.63,-42.41 566.04,-42.06 568.13,-48.74"/>
</g>
<!-- bar&#45;&gt;shared.o -->
<g id="edge8" class="edge">
<title>bar&#45;&gt;shared.o</title>
<path fill="none" stroke="green" d="M389.62,-79.78C383.57,-71.62 376.18,-61.63 369.28,-52.32"/>
<polygon fill="green" stroke="green" points="372.27,-50.48 363.51,-44.53 366.65,-54.64 372.27,-50.48"/>
</g>
</g>
</svg>
