<?xml version="1.0" encoding="UTF-8" standalone="no"?>
<!DOCTYPE svg PUBLIC "-//W3C//DTD SVG 1.1//EN"
 "http://www.w3.org/Graphics/SVG/1.1/DTD/svg11.dtd">
<!-- Generated by graphviz version 8.1.0 (0)
 -->
<!-- Pages: 1 -->
<svg width="708pt" height="198pt"
 viewBox="0.00 0.00 708.25 197.50" xmlns="http://www.w3.org/2000/svg" xmlns:xlink="http://www.w3.org/1999/xlink">
<g id="graph0" class="graph" transform="scale(1 1) rotate(0) translate(4 193.5)">
<polygon fill="white" stroke="none" points="-4,4 -4,-193.5 704.25,-193.5 704.25,4 -4,4"/>
<!-- a.o -->
<g id="node1" class="node">
<title>a.o</title>
<polygon fill="none" stroke="black" points="0,-0.5 0,-43 118.75,-43 118.75,-0.5 0,-0.5"/>
<text text-anchor="middle" x="59.38" y="-25.7" font-family="Times,serif" font-size="14.00">a.o</text>
<text text-anchor="middle" x="59.38" y="-8.45" font-family="Times,serif" font-size="14.00">CFLAGS=&#45;ffoo</text>
</g>
<!-- b.o -->
<g id="node2" class="node">
<title>b.o</title>
<polygon fill="none" stroke="black" points="137,-0.5 137,-43 255.75,-43 255.75,-0.5 137,-0.5"/>
<text text-anchor="middle" x="196.38" y="-25.7" font-family="Times,serif" font-size="14.00">b.o</text>
<text text-anchor="middle" x="196.38" y="-8.45" font-family="Times,serif" font-size="14.00">CFLAGS=&#45;ffoo</text>
</g>
<!-- c.o -->
<g id="node3" class="node">
<title>c.o</title>
<polygon fill="none" stroke="black" points="438.5,-0.5 438.5,-43 560.25,-43 560.25,-0.5 438.5,-0.5"/>
<text text-anchor="middle" x="499.38" y="-25.7" font-family="Times,serif" font-size="14.00">c.o</text>
<text text-anchor="middle" x="499.38" y="-8.45" font-family="Times,serif" font-size="14.00">CFLAGS=&#45;fbar</text>
</g>
<!-- d.o -->
<g id="node4" class="node">
<title>d.o</title>
<polygon fill="none" stroke="black" points="578.5,-0.5 578.5,-43 700.25,-43 700.25,-0.5 578.5,-0.5"/>
<text text-anchor="middle" x="639.38" y="-25.7" font-family="Times,serif" font-size="14.00">d.o</text>
<text text-anchor="middle" x="639.38" y="-8.45" font-family="Times,serif" font-size="14.00">CFLAGS=&#45;fbar</text>
</g>
<!-- shared.o -->
<g id="node5" class="node">
<title>shared.o</title>
<polygon fill="none" stroke="green" points="274.12,-0.5 274.12,-43 420.62,-43 420.62,-0.5 274.12,-0.5"/>
<text text-anchor="middle" x="347.38" y="-25.7" font-family="Times,serif" font-size="14.00">shared.o</text>
<text text-anchor="middle" x="347.38" y="-8.45" font-family="Times,serif" font-size="14.00">CFLAGS=&#45;fshared</text>
</g>
<!-- all -->
<g id="node6" class="node">
<title>all</title>
<polygon fill="none" stroke="black" points="300.38,-153 300.38,-189 354.38,-189 354.38,-153 300.38,-153"/>
<text text-anchor="middle" x="327" y="-166.32" font-family="Times,serif" font-size="14.00">all</text>
</g>
<!-- foo -->
<g id="node7" class="node">
<title>foo</title>
<polygon fill="none" stroke="black" points="264.38,-80 264.38,-116 318.38,-116 318.38,-80 264.38,-80"/>
<text text-anchor="middle" x="291.25" y="-93.33" font-family="Times,serif" font-size="14.00">foo</text>
</g>
<!-- all&#45;&gt;foo -->
<g id="edge1" class="edge">
<title>all&#45;&gt;foo</title>
<path fill="none" stroke="black" d="M318.84,-153.17C314.63,-144.86 309.45,-134.64 304.72,-125.33"/>
<polygon fill="black" stroke="black" points="307.49,-124.04 299.85,-116.71 301.25,-127.21 307.49,-124.04"/>
</g>
<!-- bar -->
<g id="node8" class="node">
<title>bar</title>
<polygon fill="none" stroke="black" points="375.38,-80 375.38,-116 429.38,-116 429.38,-80 375.38,-80"/>
<text text-anchor="middle" x="402.38" y="-93.33" font-family="Times,serif" font-size="14.00">bar</text>
</g>
<!-- all&#45;&gt;bar -->
<g id="edge2" class="edge">
<title>all&#45;&gt;bar</title>
<path fill="none" stroke="black" d="M345.15,-153.17C354.51,-144.31 366.17,-133.27 376.52,-123.47"/>
<polygon fill="black" stroke="black" points="378.61,-126.37 383.47,-116.95 373.8,-121.28 378.61,-126.37"/>
</g>
<!-- foo&#45;&gt;a.o -->
<g id="edge3" class="edge">
<title>foo&#45;&gt;a.o</title>
<path fill="none" stroke="black" d="M264.76,-88.48C231.86,-77.95 174.6,-59.63 128.89,-45"/>
<polygon fill="black" stroke="black" points="130.03,-41.37 119.43,-41.65 127.89,-48.03 130.03,-41.37"/>
</g>
<!-- foo&#45;&gt;b.o -->
<g id="edge4" class="edge">
<title>foo&#45;&gt;b.o</title>
<path fill="none" stroke="black" d="M269.82,-80.15C258.23,-71.1 243.68,-59.72 230.58,-49.49"/>
<polygon fill="black" stroke="black" points="233.27,-46.36 223.24,-42.96 228.96,-51.88 233.27,-46.36"/>
</g>
<!-- foo&#45;&gt;shared.o -->
<g id="edge5" class="edge">
<title>foo&#45;&gt;shared.o</title>
<path fill="none" stroke="green" d="M304.08,-80.15C310.46,-71.7 318.36,-61.23 325.66,-51.55"/>
<polygon fill="green" stroke="green" points="328.9,-54.06 332.13,-43.96 323.31,-49.84 328.9,-54.06"/>
</g>
<!-- bar&#45;&gt;c.o -->
<g id="edge6" class="edge">
<title>bar&#45;&gt;c.o</title>
<path fill="none" stroke="black" d="M424.39,-80.15C436.22,-71.1 451.08,-59.72 464.45,-49.49"/>
<polygon fill="black" stroke="black" points="466.15,-51.82 471.97,-42.96 461.9,-46.26 466.15,-51.82"/>
</g>
<!-- bar&#45;&gt;d.o -->
<g id="edge7" class="edge">
<title>bar&#45;&gt;d.o</title>
<path fill="none" stroke="black" d="M429.1,-88.63C462.64,-78.12 521.45,-59.69 568.36,-45"/>
<polygon fill="black" stroke="black" points="569.29,-48.06 577.79,-41.73 567.2,-41.38 569.29,-48.06"/>
</g>
<!-- bar&#45;&gt;shared.o -->
<g id="edge8" class="edge">
<title>bar&#45;&gt;shared.o</title>
<path fill="none" stroke="green" d="M389.89,-80.15C383.63,-71.7 375.88,-61.23 368.71,-51.55"/>
<polygon fill="green" stroke="green" points="371.11,-49.92 362.35,-43.96 365.49,-54.08 371.11,-49.92"/>
</g>
</g>
</svg>
