<?xml version="1.0" encoding="UTF-8" standalone="no"?>
<!DOCTYPE svg PUBLIC "-//W3C//DTD SVG 1.1//EN"
 "http://www.w3.org/Graphics/SVG/1.1/DTD/svg11.dtd">
<!-- Generated by graphviz version 8.0.5 (0)
 -->
<!-- Pages: 1 -->
<svg width="680pt" height="221pt"
 viewBox="0.00 0.00 680.25 221.25" xmlns="http://www.w3.org/2000/svg" xmlns:xlink="http://www.w3.org/1999/xlink">
<g id="graph0" class="graph" transform="scale(1 1) rotate(0) translate(4 217.25)">
<polygon fill="white" stroke="none" points="-4,4 -4,-217.25 676.25,-217.25 676.25,4 -4,4"/>
<!-- foo -->
<g id="node1" class="node">
<title>foo</title>
<polygon fill="none" stroke="black" points="205,-97.25 205,-139.75 323.75,-139.75 323.75,-97.25 205,-97.25"/>
<text text-anchor="middle" x="264.38" y="-122.45" font-family="Times,serif" font-size="14.00">foo</text>
<text text-anchor="middle" x="264.38" y="-105.2" font-family="Times,serif" font-size="14.00">CFLAGS=&#45;ffoo</text>
</g>
<!-- a.o -->
<g id="node3" class="node">
<title>a.o</title>
<polygon fill="none" stroke="black" points="0,-0.5 0,-60.25 118.75,-60.25 118.75,-0.5 0,-0.5"/>
<text text-anchor="middle" x="59.38" y="-42.95" font-family="Times,serif" font-size="14.00">a.o</text>
<text text-anchor="middle" x="59.38" y="-25.7" font-family="Times,serif" font-size="14.00">CFLAGS=&#45;ffoo</text>
<text text-anchor="middle" x="59.38" y="-8.45" font-family="Times,serif" font-size="14.00">(propagated)</text>
</g>
<!-- foo&#45;&gt;a.o -->
<g id="edge3" class="edge">
<title>foo&#45;&gt;a.o</title>
<path fill="none" stroke="black" d="M215.87,-97.36C192.13,-87.48 162.92,-75.29 128.35,-60.73"/>
<polygon fill="black" stroke="black" points="130.03,-57.22 119.46,-56.56 127.31,-63.67 130.03,-57.22"/>
</g>
<!-- b.o -->
<g id="node4" class="node">
<title>b.o</title>
<polygon fill="none" stroke="black" points="137,-0.5 137,-60.25 255.75,-60.25 255.75,-0.5 137,-0.5"/>
<text text-anchor="middle" x="196.38" y="-42.95" font-family="Times,serif" font-size="14.00">b.o</text>
<text text-anchor="middle" x="196.38" y="-25.7" font-family="Times,serif" font-size="14.00">CFLAGS=&#45;ffoo</text>
<text text-anchor="middle" x="196.38" y="-8.45" font-family="Times,serif" font-size="14.00">(propagated)</text>
</g>
<!-- foo&#45;&gt;b.o -->
<g id="edge4" class="edge">
<title>foo&#45;&gt;b.o</title>
<path fill="none" stroke="black" d="M248.6,-97.52C241.81,-88.92 233.63,-78.56 225.78,-68.62"/>
<polygon fill="black" stroke="black" points="227.96,-66.73 219.02,-61.05 222.47,-71.07 227.96,-66.73"/>
</g>
<!-- shared.o -->
<g id="node7" class="node">
<title>shared.o</title>
<polygon fill="none" stroke="red" points="274,-0.5 274,-60.25 392.75,-60.25 392.75,-0.5 274,-0.5"/>
<text text-anchor="middle" x="333.38" y="-42.95" font-family="Times,serif" font-size="14.00">shared.o</text>
<text text-anchor="middle" x="333.38" y="-25.7" font-family="Times,serif" font-size="14.00">CFLAGS=&#45;ffoo</text>
<text text-anchor="middle" x="333.38" y="-8.45" font-family="Times,serif" font-size="14.00">(propagated)</text>
</g>
<!-- foo&#45;&gt;shared.o -->
<g id="edge5" class="edge">
<title>foo&#45;&gt;shared.o</title>
<path fill="none" stroke="red" d="M280.38,-97.52C287.28,-88.92 295.57,-78.56 303.53,-68.62"/>
<polygon fill="red" stroke="red" points="306.88,-71.05 310.4,-61.05 301.41,-66.67 306.88,-71.05"/>
</g>
<!-- bar -->
<g id="node2" class="node">
<title>bar</title>
<polygon fill="none" stroke="black" points="375.5,-97.25 375.5,-139.75 497.25,-139.75 497.25,-97.25 375.5,-97.25"/>
<text text-anchor="middle" x="436.38" y="-122.45" font-family="Times,serif" font-size="14.00">bar</text>
<text text-anchor="middle" x="436.38" y="-105.2" font-family="Times,serif" font-size="14.00">CFLAGS=&#45;fbar</text>
</g>
<!-- c.o -->
<g id="node5" class="node">
<title>c.o</title>
<polygon fill="none" stroke="black" points="410.5,-0.5 410.5,-60.25 532.25,-60.25 532.25,-0.5 410.5,-0.5"/>
<text text-anchor="middle" x="471.38" y="-42.95" font-family="Times,serif" font-size="14.00">c.o</text>
<text text-anchor="middle" x="471.38" y="-25.7" font-family="Times,serif" font-size="14.00">CFLAGS=&#45;fbar</text>
<text text-anchor="middle" x="471.38" y="-8.45" font-family="Times,serif" font-size="14.00">(propagated)</text>
</g>
<!-- bar&#45;&gt;c.o -->
<g id="edge6" class="edge">
<title>bar&#45;&gt;c.o</title>
<path fill="none" stroke="black" d="M444.49,-97.52C447.81,-89.35 451.78,-79.6 455.63,-70.13"/>
<polygon fill="black" stroke="black" points="459.2,-71.64 459.72,-61.05 452.71,-69 459.2,-71.64"/>
</g>
<!-- d.o -->
<g id="node6" class="node">
<title>d.o</title>
<polygon fill="none" stroke="black" points="550.5,-0.5 550.5,-60.25 672.25,-60.25 672.25,-0.5 550.5,-0.5"/>
<text text-anchor="middle" x="611.38" y="-42.95" font-family="Times,serif" font-size="14.00">d.o</text>
<text text-anchor="middle" x="611.38" y="-25.7" font-family="Times,serif" font-size="14.00">CFLAGS=&#45;fbar</text>
<text text-anchor="middle" x="611.38" y="-8.45" font-family="Times,serif" font-size="14.00">(propagated)</text>
</g>
<!-- bar&#45;&gt;d.o -->
<g id="edge7" class="edge">
<title>bar&#45;&gt;d.o</title>
<path fill="none" stroke="black" d="M477.4,-97.31C496.94,-87.69 520.83,-75.94 543,-65.03"/>
<polygon fill="black" stroke="black" points="544.28,-67.8 551.71,-60.25 541.19,-61.52 544.28,-67.8"/>
</g>
<!-- bar&#45;&gt;shared.o -->
<g id="edge8" class="edge">
<title>bar&#45;&gt;shared.o</title>
<path fill="none" stroke="black" d="M412.23,-97.31C401.5,-88.34 388.55,-77.51 376.26,-67.24"/>
<polygon fill="black" stroke="black" points="378.82,-63.98 368.9,-60.25 374.33,-69.35 378.82,-63.98"/>
</g>
<!-- all -->
<g id="node8" class="node">
<title>all</title>
<polygon fill="none" stroke="black" points="306.38,-176.75 306.38,-212.75 360.38,-212.75 360.38,-176.75 306.38,-176.75"/>
<text text-anchor="middle" x="333" y="-190.07" font-family="Times,serif" font-size="14.00">all</text>
</g>
<!-- all&#45;&gt;foo -->
<g id="edge1" class="edge">
<title>all&#45;&gt;foo</title>
<path fill="none" stroke="black" d="M317.72,-176.9C309.7,-168.28 299.73,-157.55 290.59,-147.71"/>
<polygon fill="black" stroke="black" points="293.53,-145.66 284.16,-140.71 288.4,-150.42 293.53,-145.66"/>
</g>
<!-- all&#45;&gt;bar -->
<g id="edge2" class="edge">
<title>all&#45;&gt;bar</title>
<path fill="none" stroke="black" d="M356.75,-176.9C369.43,-167.76 385.39,-156.25 399.69,-145.94"/>
<polygon fill="black" stroke="black" points="401.27,-148.4 407.33,-139.71 397.18,-142.72 401.27,-148.4"/>
</g>
</g>
</svg>
