<?xml version="1.0" encoding="UTF-8" standalone="no"?>
<!DOCTYPE svg PUBLIC "-//W3C//DTD SVG 1.1//EN"
 "http://www.w3.org/Graphics/SVG/1.1/DTD/svg11.dtd">
<!-- Generated by graphviz version 8.0.5 (0)
 -->
<!-- Pages: 1 -->
<svg width="374pt" height="198pt"
 viewBox="0.00 0.00 374.00 197.50" xmlns="http://www.w3.org/2000/svg" xmlns:xlink="http://www.w3.org/1999/xlink">
<g id="graph0" class="graph" transform="scale(1 1) rotate(0) translate(4 193.5)">
<polygon fill="white" stroke="none" points="-4,4 -4,-193.5 370,-193.5 370,4 -4,4"/>
<!-- foo -->
<g id="node1" class="node">
<title>foo</title>
<polygon fill="none" stroke="black" points="54.62,-73.5 54.62,-116 173.38,-116 173.38,-73.5 54.62,-73.5"/>
<text text-anchor="middle" x="114" y="-98.7" font-family="Times,serif" font-size="14.00">foo</text>
<text text-anchor="middle" x="114" y="-81.45" font-family="Times,serif" font-size="14.00">CFLAGS=&#45;ffoo</text>
</g>
<!-- a.o -->
<g id="node4" class="node">
<title>a.o</title>
<polygon fill="none" stroke="black" points="0,-0.5 0,-36.5 54,-36.5 54,-0.5 0,-0.5"/>
<text text-anchor="middle" x="27" y="-13.82" font-family="Times,serif" font-size="14.00">a.o</text>
</g>
<!-- foo&#45;&gt;a.o -->
<g id="edge3" class="edge">
<title>foo&#45;&gt;a.o</title>
<path fill="none" stroke="black" d="M90.69,-73.85C79.67,-64.45 66.43,-53.15 54.89,-43.3"/>
<polygon fill="black" stroke="black" points="57.72,-40.26 47.84,-36.43 53.17,-45.58 57.72,-40.26"/>
</g>
<!-- b.o -->
<g id="node5" class="node">
<title>b.o</title>
<polygon fill="none" stroke="black" points="72,-0.5 72,-36.5 126,-36.5 126,-0.5 72,-0.5"/>
<text text-anchor="middle" x="98.88" y="-13.82" font-family="Times,serif" font-size="14.00">b.o</text>
</g>
<!-- foo&#45;&gt;b.o -->
<g id="edge4" class="edge">
<title>foo&#45;&gt;b.o</title>
<path fill="none" stroke="black" d="M109.98,-73.85C108.32,-65.64 106.37,-55.98 104.57,-47.09"/>
<polygon fill="black" stroke="black" points="107.83,-46.54 102.42,-37.43 100.97,-47.92 107.83,-46.54"/>
</g>
<!-- shared.o -->
<g id="node6" class="node">
<title>shared.o</title>
<polygon fill="none" stroke="black" points="144.25,-0.5 144.25,-36.5 221.75,-36.5 221.75,-0.5 144.25,-0.5"/>
<text text-anchor="middle" x="183" y="-13.82" font-family="Times,serif" font-size="14.00">shared.o</text>
</g>
<!-- foo&#45;&gt;shared.o -->
<g id="edge5" class="edge">
<title>foo&#45;&gt;shared.o</title>
<path fill="none" stroke="black" d="M132.49,-73.85C140.89,-64.82 150.91,-54.03 159.81,-44.46"/>
<polygon fill="black" stroke="black" points="162.02,-47.14 166.27,-37.43 156.9,-42.37 162.02,-47.14"/>
</g>
<!-- bar -->
<g id="node2" class="node">
<title>bar</title>
<polygon fill="none" stroke="black" points="198.12,-73.5 198.12,-116 319.88,-116 319.88,-73.5 198.12,-73.5"/>
<text text-anchor="middle" x="259" y="-98.7" font-family="Times,serif" font-size="14.00">bar</text>
<text text-anchor="middle" x="259" y="-81.45" font-family="Times,serif" font-size="14.00">CFLAGS=&#45;fbar</text>
</g>
<!-- bar&#45;&gt;shared.o -->
<g id="edge8" class="edge">
<title>bar&#45;&gt;shared.o</title>
<path fill="none" stroke="black" d="M238.63,-73.85C229.2,-64.63 217.9,-53.59 207.95,-43.88"/>
<polygon fill="black" stroke="black" points="210.93,-41.91 201.33,-37.43 206.04,-46.92 210.93,-41.91"/>
</g>
<!-- c.o -->
<g id="node7" class="node">
<title>c.o</title>
<polygon fill="none" stroke="black" points="240,-0.5 240,-36.5 294,-36.5 294,-0.5 240,-0.5"/>
<text text-anchor="middle" x="266.62" y="-13.82" font-family="Times,serif" font-size="14.00">c.o</text>
</g>
<!-- bar&#45;&gt;c.o -->
<g id="edge6" class="edge">
<title>bar&#45;&gt;c.o</title>
<path fill="none" stroke="black" d="M261.14,-73.85C262.03,-65.64 263.07,-55.98 264.03,-47.09"/>
<polygon fill="black" stroke="black" points="267.58,-47.75 265.18,-37.43 260.62,-47 267.58,-47.75"/>
</g>
<!-- d.o -->
<g id="node8" class="node">
<title>d.o</title>
<polygon fill="none" stroke="black" points="312,-0.5 312,-36.5 366,-36.5 366,-0.5 312,-0.5"/>
<text text-anchor="middle" x="338.88" y="-13.82" font-family="Times,serif" font-size="14.00">d.o</text>
</g>
<!-- bar&#45;&gt;d.o -->
<g id="edge7" class="edge">
<title>bar&#45;&gt;d.o</title>
<path fill="none" stroke="black" d="M280.44,-73.85C290.37,-64.63 302.27,-53.59 312.74,-43.88"/>
<polygon fill="black" stroke="black" points="314.81,-46.8 319.76,-37.43 310.05,-41.67 314.81,-46.8"/>
</g>
<!-- all -->
<g id="node3" class="node">
<title>all</title>
<polygon fill="none" stroke="black" points="156,-153 156,-189 210,-189 210,-153 156,-153"/>
<text text-anchor="middle" x="182.62" y="-166.32" font-family="Times,serif" font-size="14.00">all</text>
</g>
<!-- all&#45;&gt;foo -->
<g id="edge1" class="edge">
<title>all&#45;&gt;foo</title>
<path fill="none" stroke="black" d="M167.34,-153.15C159.33,-144.53 149.36,-133.8 140.21,-123.96"/>
<polygon fill="black" stroke="black" points="143.16,-121.91 133.78,-116.96 138.03,-126.67 143.16,-121.91"/>
</g>
<!-- all&#45;&gt;bar -->
<g id="edge2" class="edge">
<title>all&#45;&gt;bar</title>
<path fill="none" stroke="black" d="M200.25,-153.15C209.25,-144.35 220.5,-133.37 230.73,-123.37"/>
<polygon fill="black" stroke="black" points="232.6,-126.46 237.31,-116.96 227.71,-121.45 232.6,-126.46"/>
</g>
</g>
</svg>
