<?xml version="1.0" encoding="UTF-8" standalone="no"?>
<!DOCTYPE svg PUBLIC "-//W3C//DTD SVG 1.1//EN"
 "http://www.w3.org/Graphics/SVG/1.1/DTD/svg11.dtd">
<!-- Generated by graphviz version 12.1.1 (0)
 -->
<!-- Pages: 1 -->
<svg width="683pt" height="221pt"
 viewBox="0.00 0.00 683.25 221.25" xmlns="http://www.w3.org/2000/svg" xmlns:xlink="http://www.w3.org/1999/xlink">
<g id="graph0" class="graph" transform="scale(1 1) rotate(0) translate(4 217.25)">
<polygon fill="white" stroke="none" points="-4,4 -4,-217.25 679.25,-217.25 679.25,4 -4,4"/>
<!-- foo -->
<g id="node1" class="node">
<title>foo</title>
<polygon fill="none" stroke="black" points="206,-97.25 206,-139.75 324.75,-139.75 324.75,-97.25 206,-97.25"/>
<text text-anchor="middle" x="265.38" y="-122.45" font-family="Times,serif" font-size="14.00">foo</text>
<text text-anchor="middle" x="265.38" y="-105.2" font-family="Times,serif" font-size="14.00">CFLAGS=&#45;ffoo</text>
</g>
<!-- a.o -->
<g id="node3" class="node">
<title>a.o</title>
<polygon fill="none" stroke="black" points="0,-0.5 0,-60.25 118.75,-60.25 118.75,-0.5 0,-0.5"/>
<text text-anchor="middle" x="59.38" y="-42.95" font-family="Times,serif" font-size="14.00">a.o</text>
<text text-anchor="middle" x="59.38" y="-25.7" font-family="Times,serif" font-size="14.00">CFLAGS=&#45;ffoo</text>
<text text-anchor="middle" x="59.38" y="-8.45" font-family="Times,serif" font-size="14.00">(propagated)</text>
</g>
<!-- foo&#45;&gt;a.o -->
<g id="edge3" class="edge">
<title>foo&#45;&gt;a.o</title>
<path fill="none" stroke="black" d="M215.22,-96.86C191.71,-87.15 163.07,-75.29 129.71,-61.3"/>
<polygon fill="black" stroke="black" points="131.17,-58.12 120.59,-57.47 128.46,-64.57 131.17,-58.12"/>
</g>
<!-- b.o -->
<g id="node4" class="node">
<title>b.o</title>
<polygon fill="none" stroke="black" points="137,-0.5 137,-60.25 255.75,-60.25 255.75,-0.5 137,-0.5"/>
<text text-anchor="middle" x="196.38" y="-42.95" font-family="Times,serif" font-size="14.00">b.o</text>
<text text-anchor="middle" x="196.38" y="-25.7" font-family="Times,serif" font-size="14.00">CFLAGS=&#45;ffoo</text>
<text text-anchor="middle" x="196.38" y="-8.45" font-family="Times,serif" font-size="14.00">(propagated)</text>
</g>
<!-- foo&#45;&gt;b.o -->
<g id="edge4" class="edge">
<title>foo&#45;&gt;b.o</title>
<path fill="none" stroke="black" d="M249.02,-97.09C242.38,-88.8 234.48,-78.94 226.85,-69.41"/>
<polygon fill="black" stroke="black" points="229.59,-67.24 220.61,-61.62 224.13,-71.61 229.59,-67.24"/>
</g>
<!-- shared.o -->
<g id="node7" class="node">
<title>shared.o</title>
<polygon fill="none" stroke="red" points="273.5,-0.5 273.5,-60.25 395.25,-60.25 395.25,-0.5 273.5,-0.5"/>
<text text-anchor="middle" x="334.38" y="-42.95" font-family="Times,serif" font-size="14.00">shared.o</text>
<text text-anchor="middle" x="334.38" y="-25.7" font-family="Times,serif" font-size="14.00">CFLAGS=&#45;fbar</text>
<text text-anchor="middle" x="334.38" y="-8.45" font-family="Times,serif" font-size="14.00">(propagated)</text>
</g>
<!-- foo&#45;&gt;shared.o -->
<g id="edge5" class="edge">
<title>foo&#45;&gt;shared.o</title>
<path fill="none" stroke="black" d="M281.73,-97.09C288.37,-88.8 296.27,-78.94 303.9,-69.41"/>
<polygon fill="black" stroke="black" points="306.62,-71.61 310.14,-61.62 301.16,-67.24 306.62,-71.61"/>
</g>
<!-- bar -->
<g id="node2" class="node">
<title>bar</title>
<polygon fill="none" stroke="black" points="342.5,-97.25 342.5,-139.75 464.25,-139.75 464.25,-97.25 342.5,-97.25"/>
<text text-anchor="middle" x="403.38" y="-122.45" font-family="Times,serif" font-size="14.00">bar</text>
<text text-anchor="middle" x="403.38" y="-105.2" font-family="Times,serif" font-size="14.00">CFLAGS=&#45;fbar</text>
</g>
<!-- c.o -->
<g id="node5" class="node">
<title>c.o</title>
<polygon fill="none" stroke="black" points="413.5,-0.5 413.5,-60.25 535.25,-60.25 535.25,-0.5 413.5,-0.5"/>
<text text-anchor="middle" x="474.38" y="-42.95" font-family="Times,serif" font-size="14.00">c.o</text>
<text text-anchor="middle" x="474.38" y="-25.7" font-family="Times,serif" font-size="14.00">CFLAGS=&#45;fbar</text>
<text text-anchor="middle" x="474.38" y="-8.45" font-family="Times,serif" font-size="14.00">(propagated)</text>
</g>
<!-- bar&#45;&gt;c.o -->
<g id="edge6" class="edge">
<title>bar&#45;&gt;c.o</title>
<path fill="none" stroke="black" d="M420.2,-97.09C427.11,-88.71 435.33,-78.73 443.26,-69.11"/>
<polygon fill="black" stroke="black" points="445.79,-71.55 449.45,-61.61 440.39,-67.1 445.79,-71.55"/>
</g>
<!-- d.o -->
<g id="node6" class="node">
<title>d.o</title>
<polygon fill="none" stroke="black" points="553.5,-0.5 553.5,-60.25 675.25,-60.25 675.25,-0.5 553.5,-0.5"/>
<text text-anchor="middle" x="614.38" y="-42.95" font-family="Times,serif" font-size="14.00">d.o</text>
<text text-anchor="middle" x="614.38" y="-25.7" font-family="Times,serif" font-size="14.00">CFLAGS=&#45;fbar</text>
<text text-anchor="middle" x="614.38" y="-8.45" font-family="Times,serif" font-size="14.00">(propagated)</text>
</g>
<!-- bar&#45;&gt;d.o -->
<g id="edge7" class="edge">
<title>bar&#45;&gt;d.o</title>
<path fill="none" stroke="black" d="M455.35,-96.79C479.5,-87.12 508.84,-75.31 542.67,-61.43"/>
<polygon fill="black" stroke="black" points="543.99,-64.67 551.91,-57.64 541.33,-58.2 543.99,-64.67"/>
</g>
<!-- bar&#45;&gt;shared.o -->
<g id="edge8" class="edge">
<title>bar&#45;&gt;shared.o</title>
<path fill="none" stroke="red" d="M387.02,-97.09C380.38,-88.8 372.48,-78.94 364.85,-69.41"/>
<polygon fill="red" stroke="red" points="367.59,-67.24 358.61,-61.62 362.13,-71.61 367.59,-67.24"/>
</g>
<!-- all -->
<g id="node8" class="node">
<title>all</title>
<polygon fill="none" stroke="black" points="307.38,-176.75 307.38,-212.75 361.38,-212.75 361.38,-176.75 307.38,-176.75"/>
<text text-anchor="middle" x="334" y="-190.07" font-family="Times,serif" font-size="14.00">all</text>
</g>
<!-- all&#45;&gt;foo -->
<g id="edge1" class="edge">
<title>all&#45;&gt;foo</title>
<path fill="none" stroke="black" d="M318.37,-176.53C310.63,-168.2 301.12,-157.97 292.31,-148.48"/>
<polygon fill="black" stroke="black" points="294.88,-146.11 285.51,-141.17 289.75,-150.88 294.88,-146.11"/>
</g>
<!-- all&#45;&gt;bar -->
<g id="edge2" class="edge">
<title>all&#45;&gt;bar</title>
<path fill="none" stroke="black" d="M350.38,-176.53C358.12,-168.2 367.63,-157.97 376.44,-148.48"/>
<polygon fill="black" stroke="black" points="379,-150.88 383.24,-141.17 373.87,-146.11 379,-150.88"/>
</g>
</g>
</svg>
