<?xml version="1.0" encoding="UTF-8" standalone="no"?>
<!DOCTYPE svg PUBLIC "-//W3C//DTD SVG 1.1//EN"
 "http://www.w3.org/Graphics/SVG/1.1/DTD/svg11.dtd">
<!-- Generated by graphviz version 8.0.5 (0)
 -->
<!-- Pages: 1 -->
<svg width="683pt" height="221pt"
 viewBox="0.00 0.00 683.25 221.25" xmlns="http://www.w3.org/2000/svg" xmlns:xlink="http://www.w3.org/1999/xlink">
<g id="graph0" class="graph" transform="scale(1 1) rotate(0) translate(4 217.25)">
<polygon fill="white" stroke="none" points="-4,4 -4,-217.25 679.25,-217.25 679.25,4 -4,4"/>
<!-- foo -->
<g id="node1" class="node">
<title>foo</title>
<polygon fill="none" stroke="black" points="206,-97.25 206,-139.75 324.75,-139.75 324.75,-97.25 206,-97.25"/>
<text text-anchor="middle" x="265.38" y="-122.45" font-family="Times,serif" font-size="14.00">foo</text>
<text text-anchor="middle" x="265.38" y="-105.2" font-family="Times,serif" font-size="14.00">CFLAGS=&#45;ffoo</text>
</g>
<!-- a.o -->
<g id="node3" class="node">
<title>a.o</title>
<polygon fill="none" stroke="black" points="0,-0.5 0,-60.25 118.75,-60.25 118.75,-0.5 0,-0.5"/>
<text text-anchor="middle" x="59.38" y="-42.95" font-family="Times,serif" font-size="14.00">a.o</text>
<text text-anchor="middle" x="59.38" y="-25.7" font-family="Times,serif" font-size="14.00">CFLAGS=&#45;ffoo</text>
<text text-anchor="middle" x="59.38" y="-8.45" font-family="Times,serif" font-size="14.00">(propagated)</text>
</g>
<!-- foo&#45;&gt;a.o -->
<g id="edge3" class="edge">
<title>foo&#45;&gt;a.o</title>
<path fill="none" stroke="black" d="M216.18,-97.26C192.32,-87.41 163.01,-75.26 128.37,-60.73"/>
<polygon fill="black" stroke="black" points="130.03,-57.22 119.45,-56.57 127.32,-63.67 130.03,-57.22"/>
</g>
<!-- b.o -->
<g id="node4" class="node">
<title>b.o</title>
<polygon fill="none" stroke="black" points="137,-0.5 137,-60.25 255.75,-60.25 255.75,-0.5 137,-0.5"/>
<text text-anchor="middle" x="196.38" y="-42.95" font-family="Times,serif" font-size="14.00">b.o</text>
<text text-anchor="middle" x="196.38" y="-25.7" font-family="Times,serif" font-size="14.00">CFLAGS=&#45;ffoo</text>
<text text-anchor="middle" x="196.38" y="-8.45" font-family="Times,serif" font-size="14.00">(propagated)</text>
</g>
<!-- foo&#45;&gt;b.o -->
<g id="edge4" class="edge">
<title>foo&#45;&gt;b.o</title>
<path fill="none" stroke="black" d="M249.37,-97.52C242.47,-88.92 234.18,-78.56 226.22,-68.62"/>
<polygon fill="black" stroke="black" points="228.34,-66.67 219.35,-61.05 222.87,-71.05 228.34,-66.67"/>
</g>
<!-- shared.o -->
<g id="node7" class="node">
<title>shared.o</title>
<polygon fill="none" stroke="red" points="273.5,-0.5 273.5,-60.25 395.25,-60.25 395.25,-0.5 273.5,-0.5"/>
<text text-anchor="middle" x="334.38" y="-42.95" font-family="Times,serif" font-size="14.00">shared.o</text>
<text text-anchor="middle" x="334.38" y="-25.7" font-family="Times,serif" font-size="14.00">CFLAGS=&#45;fbar</text>
<text text-anchor="middle" x="334.38" y="-8.45" font-family="Times,serif" font-size="14.00">(propagated)</text>
</g>
<!-- foo&#45;&gt;shared.o -->
<g id="edge5" class="edge">
<title>foo&#45;&gt;shared.o</title>
<path fill="none" stroke="black" d="M281.38,-97.52C288.28,-88.92 296.57,-78.56 304.53,-68.62"/>
<polygon fill="black" stroke="black" points="307.88,-71.05 311.4,-61.05 302.41,-66.67 307.88,-71.05"/>
</g>
<!-- bar -->
<g id="node2" class="node">
<title>bar</title>
<polygon fill="none" stroke="black" points="342.5,-97.25 342.5,-139.75 464.25,-139.75 464.25,-97.25 342.5,-97.25"/>
<text text-anchor="middle" x="403.38" y="-122.45" font-family="Times,serif" font-size="14.00">bar</text>
<text text-anchor="middle" x="403.38" y="-105.2" font-family="Times,serif" font-size="14.00">CFLAGS=&#45;fbar</text>
</g>
<!-- c.o -->
<g id="node5" class="node">
<title>c.o</title>
<polygon fill="none" stroke="black" points="413.5,-0.5 413.5,-60.25 535.25,-60.25 535.25,-0.5 413.5,-0.5"/>
<text text-anchor="middle" x="474.38" y="-42.95" font-family="Times,serif" font-size="14.00">c.o</text>
<text text-anchor="middle" x="474.38" y="-25.7" font-family="Times,serif" font-size="14.00">CFLAGS=&#45;fbar</text>
<text text-anchor="middle" x="474.38" y="-8.45" font-family="Times,serif" font-size="14.00">(propagated)</text>
</g>
<!-- bar&#45;&gt;c.o -->
<g id="edge6" class="edge">
<title>bar&#45;&gt;c.o</title>
<path fill="none" stroke="black" d="M419.84,-97.52C427.01,-88.83 435.65,-78.35 443.92,-68.32"/>
<polygon fill="black" stroke="black" points="447.07,-71 450.73,-61.05 441.67,-66.54 447.07,-71"/>
</g>
<!-- d.o -->
<g id="node6" class="node">
<title>d.o</title>
<polygon fill="none" stroke="black" points="553.5,-0.5 553.5,-60.25 675.25,-60.25 675.25,-0.5 553.5,-0.5"/>
<text text-anchor="middle" x="614.38" y="-42.95" font-family="Times,serif" font-size="14.00">d.o</text>
<text text-anchor="middle" x="614.38" y="-25.7" font-family="Times,serif" font-size="14.00">CFLAGS=&#45;fbar</text>
<text text-anchor="middle" x="614.38" y="-8.45" font-family="Times,serif" font-size="14.00">(propagated)</text>
</g>
<!-- bar&#45;&gt;d.o -->
<g id="edge7" class="edge">
<title>bar&#45;&gt;d.o</title>
<path fill="none" stroke="black" d="M454.02,-97.32C478.6,-87.49 508.76,-75.34 543.71,-61.01"/>
<polygon fill="black" stroke="black" points="544.77,-63.94 552.69,-56.9 542.11,-57.47 544.77,-63.94"/>
</g>
<!-- bar&#45;&gt;shared.o -->
<g id="edge8" class="edge">
<title>bar&#45;&gt;shared.o</title>
<path fill="none" stroke="red" d="M387.37,-97.52C380.47,-88.92 372.18,-78.56 364.22,-68.62"/>
<polygon fill="red" stroke="red" points="366.34,-66.67 357.35,-61.05 360.87,-71.05 366.34,-66.67"/>
</g>
<!-- all -->
<g id="node8" class="node">
<title>all</title>
<polygon fill="none" stroke="black" points="307.38,-176.75 307.38,-212.75 361.38,-212.75 361.38,-176.75 307.38,-176.75"/>
<text text-anchor="middle" x="334" y="-190.07" font-family="Times,serif" font-size="14.00">all</text>
</g>
<!-- all&#45;&gt;foo -->
<g id="edge1" class="edge">
<title>all&#45;&gt;foo</title>
<path fill="none" stroke="black" d="M318.72,-176.9C310.7,-168.28 300.73,-157.55 291.59,-147.71"/>
<polygon fill="black" stroke="black" points="294.53,-145.66 285.16,-140.71 289.4,-150.42 294.53,-145.66"/>
</g>
<!-- all&#45;&gt;bar -->
<g id="edge2" class="edge">
<title>all&#45;&gt;bar</title>
<path fill="none" stroke="black" d="M350.03,-176.9C358.05,-168.28 368.02,-157.55 377.16,-147.71"/>
<polygon fill="black" stroke="black" points="379.35,-150.42 383.59,-140.71 374.22,-145.66 379.35,-150.42"/>
</g>
</g>
</svg>
