<?xml version="1.0" encoding="UTF-8" standalone="no"?>
<!DOCTYPE svg PUBLIC "-//W3C//DTD SVG 1.1//EN"
 "http://www.w3.org/Graphics/SVG/1.1/DTD/svg11.dtd">
<!-- Generated by graphviz version 12.1.1 (0)
 -->
<!-- Pages: 1 -->
<svg width="374pt" height="198pt"
 viewBox="0.00 0.00 374.00 197.50" xmlns="http://www.w3.org/2000/svg" xmlns:xlink="http://www.w3.org/1999/xlink">
<g id="graph0" class="graph" transform="scale(1 1) rotate(0) translate(4 193.5)">
<polygon fill="white" stroke="none" points="-4,4 -4,-193.5 370,-193.5 370,4 -4,4"/>
<!-- foo -->
<g id="node1" class="node">
<title>foo</title>
<polygon fill="none" stroke="black" points="54.62,-73.5 54.62,-116 173.38,-116 173.38,-73.5 54.62,-73.5"/>
<text text-anchor="middle" x="114" y="-98.7" font-family="Times,serif" font-size="14.00">foo</text>
<text text-anchor="middle" x="114" y="-81.45" font-family="Times,serif" font-size="14.00">CFLAGS=&#45;ffoo</text>
</g>
<!-- a.o -->
<g id="node4" class="node">
<title>a.o</title>
<polygon fill="none" stroke="black" points="0,-0.5 0,-36.5 54,-36.5 54,-0.5 0,-0.5"/>
<text text-anchor="middle" x="27" y="-13.82" font-family="Times,serif" font-size="14.00">a.o</text>
</g>
<!-- foo&#45;&gt;a.o -->
<g id="edge3" class="edge">
<title>foo&#45;&gt;a.o</title>
<path fill="none" stroke="black" d="M89.77,-73.07C79.21,-64.06 66.76,-53.44 55.75,-44.03"/>
<polygon fill="black" stroke="black" points="58.31,-41.62 48.43,-37.79 53.77,-46.95 58.31,-41.62"/>
</g>
<!-- b.o -->
<g id="node5" class="node">
<title>b.o</title>
<polygon fill="none" stroke="black" points="72,-0.5 72,-36.5 126,-36.5 126,-0.5 72,-0.5"/>
<text text-anchor="middle" x="98.88" y="-13.82" font-family="Times,serif" font-size="14.00">b.o</text>
</g>
<!-- foo&#45;&gt;b.o -->
<g id="edge4" class="edge">
<title>foo&#45;&gt;b.o</title>
<path fill="none" stroke="black" d="M109.82,-73.07C108.24,-65.25 106.42,-56.22 104.72,-47.82"/>
<polygon fill="black" stroke="black" points="108.16,-47.16 102.75,-38.05 101.3,-48.55 108.16,-47.16"/>
</g>
<!-- shared.o -->
<g id="node6" class="node">
<title>shared.o</title>
<polygon fill="none" stroke="black" points="144.25,-0.5 144.25,-36.5 221.75,-36.5 221.75,-0.5 144.25,-0.5"/>
<text text-anchor="middle" x="183" y="-13.82" font-family="Times,serif" font-size="14.00">shared.o</text>
</g>
<!-- foo&#45;&gt;shared.o -->
<g id="edge5" class="edge">
<title>foo&#45;&gt;shared.o</title>
<path fill="none" stroke="black" d="M133.22,-73.07C141.32,-64.35 150.83,-54.12 159.35,-44.95"/>
<polygon fill="black" stroke="black" points="161.87,-47.38 166.11,-37.68 156.74,-42.62 161.87,-47.38"/>
</g>
<!-- bar -->
<g id="node2" class="node">
<title>bar</title>
<polygon fill="none" stroke="black" points="198.12,-73.5 198.12,-116 319.88,-116 319.88,-73.5 198.12,-73.5"/>
<text text-anchor="middle" x="259" y="-98.7" font-family="Times,serif" font-size="14.00">bar</text>
<text text-anchor="middle" x="259" y="-81.45" font-family="Times,serif" font-size="14.00">CFLAGS=&#45;fbar</text>
</g>
<!-- bar&#45;&gt;shared.o -->
<g id="edge8" class="edge">
<title>bar&#45;&gt;shared.o</title>
<path fill="none" stroke="black" d="M237.83,-73.07C228.79,-64.24 218.17,-53.86 208.69,-44.59"/>
<polygon fill="black" stroke="black" points="211.4,-42.35 201.8,-37.87 206.51,-47.36 211.4,-42.35"/>
</g>
<!-- c.o -->
<g id="node7" class="node">
<title>c.o</title>
<polygon fill="none" stroke="black" points="240,-0.5 240,-36.5 294,-36.5 294,-0.5 240,-0.5"/>
<text text-anchor="middle" x="266.62" y="-13.82" font-family="Times,serif" font-size="14.00">c.o</text>
</g>
<!-- bar&#45;&gt;c.o -->
<g id="edge6" class="edge">
<title>bar&#45;&gt;c.o</title>
<path fill="none" stroke="black" d="M261.23,-73.07C262.07,-65.25 263.04,-56.22 263.95,-47.82"/>
<polygon fill="black" stroke="black" points="267.41,-48.39 265,-38.07 260.45,-47.64 267.41,-48.39"/>
</g>
<!-- d.o -->
<g id="node8" class="node">
<title>d.o</title>
<polygon fill="none" stroke="black" points="312,-0.5 312,-36.5 366,-36.5 366,-0.5 312,-0.5"/>
<text text-anchor="middle" x="338.88" y="-13.82" font-family="Times,serif" font-size="14.00">d.o</text>
</g>
<!-- bar&#45;&gt;d.o -->
<g id="edge7" class="edge">
<title>bar&#45;&gt;d.o</title>
<path fill="none" stroke="black" d="M281.28,-73.07C290.8,-64.24 301.98,-53.86 311.96,-44.59"/>
<polygon fill="black" stroke="black" points="314.29,-47.21 319.24,-37.84 309.53,-42.08 314.29,-47.21"/>
</g>
<!-- all -->
<g id="node3" class="node">
<title>all</title>
<polygon fill="none" stroke="black" points="156,-153 156,-189 210,-189 210,-153 156,-153"/>
<text text-anchor="middle" x="182.62" y="-166.32" font-family="Times,serif" font-size="14.00">all</text>
</g>
<!-- all&#45;&gt;foo -->
<g id="edge1" class="edge">
<title>all&#45;&gt;foo</title>
<path fill="none" stroke="black" d="M167,-152.78C159.25,-144.45 149.75,-134.22 140.93,-124.73"/>
<polygon fill="black" stroke="black" points="143.51,-122.36 134.14,-117.42 138.38,-127.13 143.51,-122.36"/>
</g>
<!-- all&#45;&gt;bar -->
<g id="edge2" class="edge">
<title>all&#45;&gt;bar</title>
<path fill="none" stroke="black" d="M200.63,-152.78C209.33,-144.28 220.05,-133.8 229.93,-124.15"/>
<polygon fill="black" stroke="black" points="232.17,-126.86 236.87,-117.37 227.27,-121.85 232.17,-126.86"/>
</g>
</g>
</svg>
