<?xml version="1.0" encoding="UTF-8" standalone="no"?>
<!DOCTYPE svg PUBLIC "-//W3C//DTD SVG 1.1//EN"
 "http://www.w3.org/Graphics/SVG/1.1/DTD/svg11.dtd">
<!-- Generated by graphviz version 8.1.0 (0)
 -->
<!-- Pages: 1 -->
<svg width="745pt" height="221pt"
 viewBox="0.00 0.00 745.25 221.25" xmlns="http://www.w3.org/2000/svg" xmlns:xlink="http://www.w3.org/1999/xlink">
<g id="graph0" class="graph" transform="scale(1 1) rotate(0) translate(4 217.25)">
<polygon fill="white" stroke="none" points="-4,4 -4,-217.25 741.25,-217.25 741.25,4 -4,4"/>
<!-- foo -->
<g id="node1" class="node">
<title>foo</title>
<polygon fill="none" stroke="black" points="229,-97.25 229,-139.75 347.75,-139.75 347.75,-97.25 229,-97.25"/>
<text text-anchor="middle" x="288.38" y="-122.45" font-family="Times,serif" font-size="14.00">foo</text>
<text text-anchor="middle" x="288.38" y="-105.2" font-family="Times,serif" font-size="14.00">CFLAGS=&#45;ffoo</text>
</g>
<!-- a.o -->
<g id="node3" class="node">
<title>a.o</title>
<polygon fill="none" stroke="black" points="0,-0.5 0,-60.25 118.75,-60.25 118.75,-0.5 0,-0.5"/>
<text text-anchor="middle" x="59.38" y="-42.95" font-family="Times,serif" font-size="14.00">a.o</text>
<text text-anchor="middle" x="59.38" y="-25.7" font-family="Times,serif" font-size="14.00">CFLAGS=&#45;ffoo</text>
<text text-anchor="middle" x="59.38" y="-8.45" font-family="Times,serif" font-size="14.00">(propagated)</text>
</g>
<!-- foo&#45;&gt;a.o -->
<g id="edge3" class="edge">
<title>foo&#45;&gt;a.o</title>
<path fill="none" stroke="black" d="M229.16,-97.47C201.22,-87.8 167.26,-75.71 128.66,-60.78"/>
<polygon fill="black" stroke="black" points="130.34,-57.29 119.75,-56.93 127.8,-63.81 130.34,-57.29"/>
</g>
<!-- b.o -->
<g id="node4" class="node">
<title>b.o</title>
<polygon fill="none" stroke="black" points="137,-0.5 137,-60.25 255.75,-60.25 255.75,-0.5 137,-0.5"/>
<text text-anchor="middle" x="196.38" y="-42.95" font-family="Times,serif" font-size="14.00">b.o</text>
<text text-anchor="middle" x="196.38" y="-25.7" font-family="Times,serif" font-size="14.00">CFLAGS=&#45;ffoo</text>
<text text-anchor="middle" x="196.38" y="-8.45" font-family="Times,serif" font-size="14.00">(propagated)</text>
</g>
<!-- foo&#45;&gt;b.o -->
<g id="edge4" class="edge">
<title>foo&#45;&gt;b.o</title>
<path fill="none" stroke="black" d="M267.04,-97.52C257.47,-88.57 245.88,-77.72 234.88,-67.42"/>
<polygon fill="black" stroke="black" points="237.7,-65.33 228.01,-61.05 232.92,-70.44 237.7,-65.33"/>
</g>
<!-- shared.o -->
<g id="node7" class="node">
<title>shared.o</title>
<polygon fill="none" stroke="red" points="273.38,-0.5 273.38,-60.25 457.38,-60.25 457.38,-0.5 273.38,-0.5"/>
<text text-anchor="middle" x="365.38" y="-42.95" font-family="Times,serif" font-size="14.00">shared.o</text>
<text text-anchor="middle" x="365.38" y="-25.7" font-family="Times,serif" font-size="14.00">CFLAGS=&#45;ffoo or &#45;fbar?</text>
<text text-anchor="middle" x="365.38" y="-8.45" font-family="Times,serif" font-size="14.00">(propagated)</text>
</g>
<!-- foo&#45;&gt;shared.o -->
<g id="edge5" class="edge">
<title>foo&#45;&gt;shared.o</title>
<path fill="none" stroke="red" d="M306.23,-97.52C314.09,-88.74 323.57,-78.14 332.61,-68.02"/>
<polygon fill="red" stroke="red" points="334.68,-70.84 338.74,-61.05 329.46,-66.18 334.68,-70.84"/>
</g>
<!-- bar -->
<g id="node2" class="node">
<title>bar</title>
<polygon fill="none" stroke="black" points="380.5,-97.25 380.5,-139.75 502.25,-139.75 502.25,-97.25 380.5,-97.25"/>
<text text-anchor="middle" x="441.38" y="-122.45" font-family="Times,serif" font-size="14.00">bar</text>
<text text-anchor="middle" x="441.38" y="-105.2" font-family="Times,serif" font-size="14.00">CFLAGS=&#45;fbar</text>
</g>
<!-- c.o -->
<g id="node5" class="node">
<title>c.o</title>
<polygon fill="none" stroke="black" points="475.5,-0.5 475.5,-60.25 597.25,-60.25 597.25,-0.5 475.5,-0.5"/>
<text text-anchor="middle" x="536.38" y="-42.95" font-family="Times,serif" font-size="14.00">c.o</text>
<text text-anchor="middle" x="536.38" y="-25.7" font-family="Times,serif" font-size="14.00">CFLAGS=&#45;fbar</text>
<text text-anchor="middle" x="536.38" y="-8.45" font-family="Times,serif" font-size="14.00">(propagated)</text>
</g>
<!-- bar&#45;&gt;c.o -->
<g id="edge6" class="edge">
<title>bar&#45;&gt;c.o</title>
<path fill="none" stroke="black" d="M463.41,-97.52C473.29,-88.57 485.26,-77.72 496.62,-67.42"/>
<polygon fill="black" stroke="black" points="498.68,-70.36 503.74,-61.05 493.98,-65.18 498.68,-70.36"/>
</g>
<!-- d.o -->
<g id="node6" class="node">
<title>d.o</title>
<polygon fill="none" stroke="black" points="615.5,-0.5 615.5,-60.25 737.25,-60.25 737.25,-0.5 615.5,-0.5"/>
<text text-anchor="middle" x="676.38" y="-42.95" font-family="Times,serif" font-size="14.00">d.o</text>
<text text-anchor="middle" x="676.38" y="-25.7" font-family="Times,serif" font-size="14.00">CFLAGS=&#45;fbar</text>
<text text-anchor="middle" x="676.38" y="-8.45" font-family="Times,serif" font-size="14.00">(propagated)</text>
</g>
<!-- bar&#45;&gt;d.o -->
<g id="edge7" class="edge">
<title>bar&#45;&gt;d.o</title>
<path fill="none" stroke="black" d="M502.06,-97.69C530.94,-88.02 566.12,-75.88 605.63,-60.95"/>
<polygon fill="black" stroke="black" points="606.67,-63.92 614.77,-57.1 604.18,-57.38 606.67,-63.92"/>
</g>
<!-- bar&#45;&gt;shared.o -->
<g id="edge8" class="edge">
<title>bar&#45;&gt;shared.o</title>
<path fill="none" stroke="red" d="M423.75,-97.52C416,-88.74 406.64,-78.14 397.71,-68.02"/>
<polygon fill="red" stroke="red" points="400.92,-66.24 391.68,-61.05 395.67,-70.87 400.92,-66.24"/>
</g>
<!-- all -->
<g id="node8" class="node">
<title>all</title>
<polygon fill="none" stroke="black" points="330.38,-176.75 330.38,-212.75 384.38,-212.75 384.38,-176.75 330.38,-176.75"/>
<text text-anchor="middle" x="357" y="-190.07" font-family="Times,serif" font-size="14.00">all</text>
</g>
<!-- all&#45;&gt;foo -->
<g id="edge1" class="edge">
<title>all&#45;&gt;foo</title>
<path fill="none" stroke="black" d="M341.72,-176.9C333.7,-168.28 323.73,-157.55 314.59,-147.71"/>
<polygon fill="black" stroke="black" points="317.53,-145.66 308.16,-140.71 312.4,-150.42 317.53,-145.66"/>
</g>
<!-- all&#45;&gt;bar -->
<g id="edge2" class="edge">
<title>all&#45;&gt;bar</title>
<path fill="none" stroke="black" d="M376.44,-176.9C386.49,-168.02 399.06,-156.9 410.46,-146.82"/>
<polygon fill="black" stroke="black" points="412.33,-149.96 417.51,-140.71 407.7,-144.71 412.33,-149.96"/>
</g>
</g>
</svg>
