<?xml version="1.0" encoding="UTF-8" standalone="no"?>
<!DOCTYPE svg PUBLIC "-//W3C//DTD SVG 1.1//EN"
 "http://www.w3.org/Graphics/SVG/1.1/DTD/svg11.dtd">
<!-- Generated by graphviz version 12.2.1 (0)
 -->
<!-- Pages: 1 -->
<svg width="726pt" height="423pt"
 viewBox="0.00 0.00 725.86 423.00" xmlns="http://www.w3.org/2000/svg" xmlns:xlink="http://www.w3.org/1999/xlink">
<g id="graph0" class="graph" transform="scale(1 1) rotate(0) translate(4 419)">
<polygon fill="white" stroke="none" points="-4,4 -4,-419 721.86,-419 721.86,4 -4,4"/>
<!-- a.o -->
<g id="node1" class="node">
<title>a.o</title>
<polygon fill="none" stroke="black" points="0,-226 0,-268.5 118.75,-268.5 118.75,-226 0,-226"/>
<text text-anchor="middle" x="59.38" y="-251.2" font-family="Times,serif" font-size="14.00">a.o</text>
<text text-anchor="middle" x="59.38" y="-233.95" font-family="Times,serif" font-size="14.00">CFLAGS=&#45;ffoo</text>
</g>
<!-- b.o -->
<g id="node2" class="node">
<title>b.o</title>
<polygon fill="none" stroke="black" points="137,-226 137,-268.5 255.75,-268.5 255.75,-226 137,-226"/>
<text text-anchor="middle" x="196.38" y="-251.2" font-family="Times,serif" font-size="14.00">b.o</text>
<text text-anchor="middle" x="196.38" y="-233.95" font-family="Times,serif" font-size="14.00">CFLAGS=&#45;ffoo</text>
</g>
<!-- c.o -->
<g id="node3" class="node">
<title>c.o</title>
<polygon fill="none" stroke="black" points="438.5,-226 438.5,-268.5 560.25,-268.5 560.25,-226 438.5,-226"/>
<text text-anchor="middle" x="499.38" y="-251.2" font-family="Times,serif" font-size="14.00">c.o</text>
<text text-anchor="middle" x="499.38" y="-233.95" font-family="Times,serif" font-size="14.00">CFLAGS=&#45;fbar</text>
</g>
<!-- d.o -->
<g id="node4" class="node">
<title>d.o</title>
<polygon fill="none" stroke="black" points="578.5,-226 578.5,-268.5 700.25,-268.5 700.25,-226 578.5,-226"/>
<text text-anchor="middle" x="639.38" y="-251.2" font-family="Times,serif" font-size="14.00">d.o</text>
<text text-anchor="middle" x="639.38" y="-233.95" font-family="Times,serif" font-size="14.00">CFLAGS=&#45;fbar</text>
</g>
<!-- shared.o -->
<g id="node5" class="node">
<title>shared.o</title>
<polygon fill="none" stroke="black" points="274.12,-226 274.12,-268.5 420.62,-268.5 420.62,-226 274.12,-226"/>
<text text-anchor="middle" x="347.38" y="-251.2" font-family="Times,serif" font-size="14.00">shared.o</text>
<text text-anchor="middle" x="347.38" y="-233.95" font-family="Times,serif" font-size="14.00">CFLAGS=&#45;fshared</text>
</g>
<!-- gen.h -->
<g id="node11" class="node">
<title>gen.h</title>
<polygon fill="none" stroke="black" points="482.5,-153 482.5,-189 538.25,-189 538.25,-153 482.5,-153"/>
<text text-anchor="middle" x="510.38" y="-166.32" font-family="Times,serif" font-size="14.00">gen.h</text>
</g>
<!-- shared.o&#45;&gt;gen.h -->
<g id="edge10" class="edge">
<title>shared.o&#45;&gt;gen.h</title>
<path fill="none" stroke="red" d="M392.78,-225.57C417.61,-214.26 448.05,-200.39 471.74,-189.6"/>
<polygon fill="red" stroke="red" points="473.07,-192.84 480.72,-185.51 470.17,-186.47 473.07,-192.84"/>
</g>
<!-- gen.o -->
<g id="node6" class="node">
<title>gen.o</title>
<polygon fill="none" stroke="red" points="432.12,-0.5 432.12,-43 644.62,-43 644.62,-0.5 432.12,-0.5"/>
<text text-anchor="middle" x="538.38" y="-25.7" font-family="Times,serif" font-size="14.00">gen.o</text>
<text text-anchor="middle" x="538.38" y="-8.45" font-family="Times,serif" font-size="14.00">CFLAGS=&#45;fshared or none?</text>
</g>
<!-- all -->
<g id="node7" class="node">
<title>all</title>
<polygon fill="none" stroke="black" points="472.38,-378.5 472.38,-414.5 526.38,-414.5 526.38,-378.5 472.38,-378.5"/>
<text text-anchor="middle" x="499" y="-391.82" font-family="Times,serif" font-size="14.00">all</text>
</g>
<!-- foo -->
<g id="node8" class="node">
<title>foo</title>
<polygon fill="none" stroke="black" points="245.38,-305.5 245.38,-341.5 299.38,-341.5 299.38,-305.5 245.38,-305.5"/>
<text text-anchor="middle" x="272.25" y="-318.82" font-family="Times,serif" font-size="14.00">foo</text>
</g>
<!-- all&#45;&gt;foo -->
<g id="edge1" class="edge">
<title>all&#45;&gt;foo</title>
<path fill="none" stroke="black" d="M471.99,-386.94C431.77,-374.36 356.55,-350.83 310.81,-336.52"/>
<polygon fill="black" stroke="black" points="311.89,-333.19 301.3,-333.55 309.8,-339.87 311.89,-333.19"/>
</g>
<!-- bar -->
<g id="node9" class="node">
<title>bar</title>
<polygon fill="none" stroke="black" points="472.38,-305.5 472.38,-341.5 526.38,-341.5 526.38,-305.5 472.38,-305.5"/>
<text text-anchor="middle" x="499.38" y="-318.82" font-family="Times,serif" font-size="14.00">bar</text>
</g>
<!-- all&#45;&gt;bar -->
<g id="edge2" class="edge">
<title>all&#45;&gt;bar</title>
<path fill="none" stroke="black" d="M499.38,-378.31C499.38,-370.73 499.38,-361.6 499.38,-353.04"/>
<polygon fill="black" stroke="black" points="502.88,-353.04 499.38,-343.04 495.88,-353.04 502.88,-353.04"/>
</g>
<!-- gen -->
<g id="node10" class="node">
<title>gen</title>
<polygon fill="none" stroke="black" points="511.38,-80 511.38,-116 565.38,-116 565.38,-80 511.38,-80"/>
<text text-anchor="middle" x="538" y="-93.33" font-family="Times,serif" font-size="14.00">gen</text>
</g>
<!-- all&#45;&gt;gen -->
<g id="edge9" class="edge">
<title>all&#45;&gt;gen</title>
<path fill="none" stroke="red" d="M526.87,-388.43C574.2,-374.61 669.8,-339.04 709.38,-269 748.13,-200.41 637.49,-140.79 576.16,-114.02"/>
<polygon fill="red" stroke="red" points="577.65,-110.86 567.08,-110.16 574.91,-117.29 577.65,-110.86"/>
</g>
<!-- foo&#45;&gt;a.o -->
<g id="edge3" class="edge">
<title>foo&#45;&gt;a.o</title>
<path fill="none" stroke="black" d="M244.97,-312.95C215.94,-302.83 168.96,-286.45 129.53,-272.71"/>
<polygon fill="black" stroke="black" points="130.92,-269.48 120.33,-269.5 128.62,-276.09 130.92,-269.48"/>
</g>
<!-- foo&#45;&gt;b.o -->
<g id="edge4" class="edge">
<title>foo&#45;&gt;b.o</title>
<path fill="none" stroke="black" d="M254.75,-305.28C246.05,-296.78 235.32,-286.3 225.45,-276.65"/>
<polygon fill="black" stroke="black" points="228.1,-274.35 218.5,-269.87 223.21,-279.36 228.1,-274.35"/>
</g>
<!-- foo&#45;&gt;shared.o -->
<g id="edge5" class="edge">
<title>foo&#45;&gt;shared.o</title>
<path fill="none" stroke="black" d="M289.77,-305.28C298.36,-296.78 308.94,-286.3 318.68,-276.65"/>
<polygon fill="black" stroke="black" points="320.89,-279.4 325.53,-269.87 315.96,-274.42 320.89,-279.4"/>
</g>
<!-- bar&#45;&gt;c.o -->
<g id="edge6" class="edge">
<title>bar&#45;&gt;c.o</title>
<path fill="none" stroke="black" d="M499.38,-305.28C499.38,-297.8 499.38,-288.79 499.38,-280.16"/>
<polygon fill="black" stroke="black" points="502.88,-280.32 499.38,-270.32 495.88,-280.32 502.88,-280.32"/>
</g>
<!-- bar&#45;&gt;d.o -->
<g id="edge7" class="edge">
<title>bar&#45;&gt;d.o</title>
<path fill="none" stroke="black" d="M526.7,-308.01C544.84,-298.39 569.15,-285.49 590.55,-274.14"/>
<polygon fill="black" stroke="black" points="591.93,-277.37 599.13,-269.6 588.65,-271.19 591.93,-277.37"/>
</g>
<!-- bar&#45;&gt;shared.o -->
<g id="edge8" class="edge">
<title>bar&#45;&gt;shared.o</title>
<path fill="none" stroke="black" d="M472.2,-309.23C452.18,-299.44 424.31,-285.83 399.98,-273.95"/>
<polygon fill="black" stroke="black" points="401.69,-270.89 391.17,-269.64 398.62,-277.18 401.69,-270.89"/>
</g>
<!-- gen&#45;&gt;gen.o -->
<g id="edge12" class="edge">
<title>gen&#45;&gt;gen.o</title>
<path fill="none" stroke="red" d="M538.38,-79.78C538.38,-72.3 538.38,-63.29 538.38,-54.66"/>
<polygon fill="red" stroke="red" points="541.88,-54.82 538.38,-44.82 534.88,-54.82 541.88,-54.82"/>
</g>
<!-- gen.h&#45;&gt;gen -->
<g id="edge11" class="edge">
<title>gen.h&#45;&gt;gen</title>
<path fill="none" stroke="red" d="M517.15,-152.81C520.25,-144.96 523.99,-135.47 527.47,-126.66"/>
<polygon fill="red" stroke="red" points="530.69,-128.02 531.1,-117.44 524.18,-125.46 530.69,-128.02"/>
</g>
</g>
</svg>
