<?xml version="1.0" encoding="UTF-8" standalone="no"?>
<!DOCTYPE svg PUBLIC "-//W3C//DTD SVG 1.1//EN"
 "http://www.w3.org/Graphics/SVG/1.1/DTD/svg11.dtd">
<!-- Generated by graphviz version 8.0.5 (0)
 -->
<!-- Pages: 1 -->
<svg width="726pt" height="423pt"
 viewBox="0.00 0.00 725.85 423.00" xmlns="http://www.w3.org/2000/svg" xmlns:xlink="http://www.w3.org/1999/xlink">
<g id="graph0" class="graph" transform="scale(1 1) rotate(0) translate(4 419)">
<polygon fill="white" stroke="none" points="-4,4 -4,-419 721.85,-419 721.85,4 -4,4"/>
<!-- a.o -->
<g id="node1" class="node">
<title>a.o</title>
<polygon fill="none" stroke="black" points="0,-226 0,-268.5 118.75,-268.5 118.75,-226 0,-226"/>
<text text-anchor="middle" x="59.38" y="-251.2" font-family="Times,serif" font-size="14.00">a.o</text>
<text text-anchor="middle" x="59.38" y="-233.95" font-family="Times,serif" font-size="14.00">CFLAGS=&#45;ffoo</text>
</g>
<!-- b.o -->
<g id="node2" class="node">
<title>b.o</title>
<polygon fill="none" stroke="black" points="137,-226 137,-268.5 255.75,-268.5 255.75,-226 137,-226"/>
<text text-anchor="middle" x="196.38" y="-251.2" font-family="Times,serif" font-size="14.00">b.o</text>
<text text-anchor="middle" x="196.38" y="-233.95" font-family="Times,serif" font-size="14.00">CFLAGS=&#45;ffoo</text>
</g>
<!-- c.o -->
<g id="node3" class="node">
<title>c.o</title>
<polygon fill="none" stroke="black" points="438.5,-226 438.5,-268.5 560.25,-268.5 560.25,-226 438.5,-226"/>
<text text-anchor="middle" x="499.38" y="-251.2" font-family="Times,serif" font-size="14.00">c.o</text>
<text text-anchor="middle" x="499.38" y="-233.95" font-family="Times,serif" font-size="14.00">CFLAGS=&#45;fbar</text>
</g>
<!-- d.o -->
<g id="node4" class="node">
<title>d.o</title>
<polygon fill="none" stroke="black" points="578.5,-226 578.5,-268.5 700.25,-268.5 700.25,-226 578.5,-226"/>
<text text-anchor="middle" x="639.38" y="-251.2" font-family="Times,serif" font-size="14.00">d.o</text>
<text text-anchor="middle" x="639.38" y="-233.95" font-family="Times,serif" font-size="14.00">CFLAGS=&#45;fbar</text>
</g>
<!-- shared.o -->
<g id="node5" class="node">
<title>shared.o</title>
<polygon fill="none" stroke="black" points="274.12,-226 274.12,-268.5 420.62,-268.5 420.62,-226 274.12,-226"/>
<text text-anchor="middle" x="347.38" y="-251.2" font-family="Times,serif" font-size="14.00">shared.o</text>
<text text-anchor="middle" x="347.38" y="-233.95" font-family="Times,serif" font-size="14.00">CFLAGS=&#45;fshared</text>
</g>
<!-- gen.h -->
<g id="node11" class="node">
<title>gen.h</title>
<polygon fill="none" stroke="black" points="482.5,-153 482.5,-189 538.25,-189 538.25,-153 482.5,-153"/>
<text text-anchor="middle" x="510.38" y="-166.32" font-family="Times,serif" font-size="14.00">gen.h</text>
</g>
<!-- shared.o&#45;&gt;gen.h -->
<g id="edge10" class="edge">
<title>shared.o&#45;&gt;gen.h</title>
<path fill="none" stroke="red" d="M391.49,-226.16C416.89,-214.58 448.49,-200.19 472.73,-189.15"/>
<polygon fill="red" stroke="red" points="473.97,-191.97 481.62,-184.64 471.07,-185.6 473.97,-191.97"/>
</g>
<!-- gen.o -->
<g id="node6" class="node">
<title>gen.o</title>
<polygon fill="none" stroke="red" points="432.12,-0.5 432.12,-43 644.62,-43 644.62,-0.5 432.12,-0.5"/>
<text text-anchor="middle" x="538.38" y="-25.7" font-family="Times,serif" font-size="14.00">gen.o</text>
<text text-anchor="middle" x="538.38" y="-8.45" font-family="Times,serif" font-size="14.00">CFLAGS=&#45;fshared or none?</text>
</g>
<!-- all -->
<g id="node7" class="node">
<title>all</title>
<polygon fill="none" stroke="black" points="472.38,-378.5 472.38,-414.5 526.38,-414.5 526.38,-378.5 472.38,-378.5"/>
<text text-anchor="middle" x="499" y="-391.82" font-family="Times,serif" font-size="14.00">all</text>
</g>
<!-- foo -->
<g id="node8" class="node">
<title>foo</title>
<polygon fill="none" stroke="black" points="245.38,-305.5 245.38,-341.5 299.38,-341.5 299.38,-305.5 245.38,-305.5"/>
<text text-anchor="middle" x="272.25" y="-318.82" font-family="Times,serif" font-size="14.00">foo</text>
</g>
<!-- all&#45;&gt;foo -->
<g id="edge1" class="edge">
<title>all&#45;&gt;foo</title>
<path fill="none" stroke="black" d="M472.44,-387.08C432,-374.43 355.44,-350.48 309.66,-336.16"/>
<polygon fill="black" stroke="black" points="310.86,-332.56 300.27,-332.91 308.77,-339.24 310.86,-332.56"/>
</g>
<!-- bar -->
<g id="node9" class="node">
<title>bar</title>
<polygon fill="none" stroke="black" points="472.38,-305.5 472.38,-341.5 526.38,-341.5 526.38,-305.5 472.38,-305.5"/>
<text text-anchor="middle" x="499.38" y="-318.82" font-family="Times,serif" font-size="14.00">bar</text>
</g>
<!-- all&#45;&gt;bar -->
<g id="edge2" class="edge">
<title>all&#45;&gt;bar</title>
<path fill="none" stroke="black" d="M499.38,-378.67C499.38,-370.72 499.38,-361.01 499.38,-352.02"/>
<polygon fill="black" stroke="black" points="502.88,-352.21 499.38,-342.21 495.88,-352.21 502.88,-352.21"/>
</g>
<!-- gen -->
<g id="node10" class="node">
<title>gen</title>
<polygon fill="none" stroke="black" points="511.38,-80 511.38,-116 565.38,-116 565.38,-80 511.38,-80"/>
<text text-anchor="middle" x="538" y="-93.33" font-family="Times,serif" font-size="14.00">gen</text>
</g>
<!-- all&#45;&gt;gen -->
<g id="edge9" class="edge">
<title>all&#45;&gt;gen</title>
<path fill="none" stroke="red" d="M526.12,-388.65C573.19,-374.98 669.59,-339.41 709.38,-269 748.31,-200.09 636.47,-140.24 575.32,-113.66"/>
<polygon fill="red" stroke="red" points="576.83,-110.07 566.26,-109.38 574.09,-116.51 576.83,-110.07"/>
</g>
<!-- foo&#45;&gt;a.o -->
<g id="edge3" class="edge">
<title>foo&#45;&gt;a.o</title>
<path fill="none" stroke="black" d="M245.4,-313.1C215.95,-302.83 167.64,-285.99 127.64,-272.05"/>
<polygon fill="black" stroke="black" points="128.99,-268.46 118.4,-268.48 126.69,-275.07 128.99,-268.46"/>
</g>
<!-- foo&#45;&gt;b.o -->
<g id="edge4" class="edge">
<title>foo&#45;&gt;b.o</title>
<path fill="none" stroke="black" d="M255.13,-305.65C246.13,-296.85 234.88,-285.87 224.64,-275.87"/>
<polygon fill="black" stroke="black" points="227.66,-273.95 218.07,-269.46 222.77,-278.96 227.66,-273.95"/>
</g>
<!-- foo&#45;&gt;shared.o -->
<g id="edge5" class="edge">
<title>foo&#45;&gt;shared.o</title>
<path fill="none" stroke="black" d="M289.39,-305.65C298.19,-296.94 309.16,-286.08 319.18,-276.16"/>
<polygon fill="black" stroke="black" points="321.31,-278.99 325.96,-269.46 316.39,-274.01 321.31,-278.99"/>
</g>
<!-- bar&#45;&gt;c.o -->
<g id="edge6" class="edge">
<title>bar&#45;&gt;c.o</title>
<path fill="none" stroke="black" d="M499.38,-305.65C499.38,-297.89 499.38,-288.42 499.38,-279.43"/>
<polygon fill="black" stroke="black" points="502.88,-279.46 499.38,-269.46 495.88,-279.46 502.88,-279.46"/>
</g>
<!-- bar&#45;&gt;d.o -->
<g id="edge7" class="edge">
<title>bar&#45;&gt;d.o</title>
<path fill="none" stroke="black" d="M526.37,-308.18C544.92,-298.35 570.05,-285.02 591.9,-273.43"/>
<polygon fill="black" stroke="black" points="593.16,-276.19 600.35,-268.42 589.88,-270.01 593.16,-276.19"/>
</g>
<!-- bar&#45;&gt;shared.o -->
<g id="edge8" class="edge">
<title>bar&#45;&gt;shared.o</title>
<path fill="none" stroke="black" d="M472.55,-309.4C452.09,-299.4 423.28,-285.33 398.47,-273.21"/>
<polygon fill="black" stroke="black" points="400.34,-269.74 389.82,-268.5 397.27,-276.03 400.34,-269.74"/>
</g>
<!-- gen&#45;&gt;gen.o -->
<g id="edge12" class="edge">
<title>gen&#45;&gt;gen.o</title>
<path fill="none" stroke="red" d="M538.38,-80.15C538.38,-72.39 538.38,-62.92 538.38,-53.93"/>
<polygon fill="red" stroke="red" points="541.88,-53.96 538.38,-43.96 534.88,-53.96 541.88,-53.96"/>
</g>
<!-- gen.h&#45;&gt;gen -->
<g id="edge11" class="edge">
<title>gen.h&#45;&gt;gen</title>
<path fill="none" stroke="red" d="M517.01,-153.17C520.22,-145.04 524.15,-135.08 527.76,-125.92"/>
<polygon fill="red" stroke="red" points="531.37,-127.29 531.79,-116.71 524.86,-124.72 531.37,-127.29"/>
</g>
</g>
</svg>
