<?xml version="1.0" encoding="UTF-8" standalone="no"?>
<!DOCTYPE svg PUBLIC "-//W3C//DTD SVG 1.1//EN"
 "http://www.w3.org/Graphics/SVG/1.1/DTD/svg11.dtd">
<!-- Generated by graphviz version 8.1.0 (0)
 -->
<!-- Pages: 1 -->
<svg width="382pt" height="204pt"
 viewBox="0.00 0.00 382.38 204.00" xmlns="http://www.w3.org/2000/svg" xmlns:xlink="http://www.w3.org/1999/xlink">
<g id="graph0" class="graph" transform="scale(1 1) rotate(0) translate(4 200)">
<polygon fill="white" stroke="none" points="-4,4 -4,-200 378.38,-200 378.38,4 -4,4"/>
<!-- libefivar.so -->
<g id="node1" class="node">
<title>libefivar.so</title>
<polygon fill="none" stroke="black" points="0,-80 0,-122.5 93.25,-122.5 93.25,-80 0,-80"/>
<text text-anchor="middle" x="46.62" y="-105.2" font-family="Times,serif" font-size="14.00">libefivar.so</text>
<text text-anchor="middle" x="46.62" y="-87.95" font-family="Times,serif" font-size="14.00">LIBS=dl</text>
</g>
<!-- efisecdb -->
<g id="node2" class="node">
<title>efisecdb</title>
<polygon fill="none" stroke="black" points="110.88,-80 110.88,-122.5 284.38,-122.5 284.38,-80 110.88,-80"/>
<text text-anchor="middle" x="197.62" y="-105.2" font-family="Times,serif" font-size="14.00">efisecdb</text>
<text text-anchor="middle" x="197.62" y="-87.95" font-family="Times,serif" font-size="14.00">LIBS=&#39;efivar efisec dl&#39;</text>
</g>
<!-- libefisec.so -->
<g id="node3" class="node">
<title>libefisec.so</title>
<polygon fill="none" stroke="red" points="134.88,-0.5 134.88,-43 374.38,-43 374.38,-0.5 134.88,-0.5"/>
<text text-anchor="middle" x="254.62" y="-25.7" font-family="Times,serif" font-size="14.00">libefisec.so</text>
<text text-anchor="middle" x="254.62" y="-8.45" font-family="Times,serif" font-size="14.00">LIBS=&#39;efivar efisec dl&#39; or none?</text>
</g>
<!-- efisecdb&#45;&gt;libefisec.so -->
<g id="edge4" class="edge">
<title>efisecdb&#45;&gt;libefisec.so</title>
<path fill="none" stroke="red" d="M212.3,-80.29C218.7,-71.59 226.33,-61.22 233.33,-51.7"/>
<polygon fill="red" stroke="red" points="236.69,-54.04 239.8,-43.91 231.05,-49.89 236.69,-54.04"/>
</g>
<!-- all -->
<g id="node4" class="node">
<title>all</title>
<polygon fill="none" stroke="black" points="170.62,-159.5 170.62,-195.5 224.62,-195.5 224.62,-159.5 170.62,-159.5"/>
<text text-anchor="middle" x="197.25" y="-172.82" font-family="Times,serif" font-size="14.00">all</text>
</g>
<!-- all&#45;&gt;libefivar.so -->
<g id="edge1" class="edge">
<title>all&#45;&gt;libefivar.so</title>
<path fill="none" stroke="black" d="M170.63,-163.23C150.35,-153.25 121.97,-139.3 97.48,-127.26"/>
<polygon fill="black" stroke="black" points="99.13,-123.68 88.61,-122.4 96.04,-129.96 99.13,-123.68"/>
</g>
<!-- all&#45;&gt;efisecdb -->
<g id="edge3" class="edge">
<title>all&#45;&gt;efisecdb</title>
<path fill="none" stroke="black" d="M197.62,-159.65C197.62,-151.89 197.62,-142.42 197.62,-133.43"/>
<polygon fill="black" stroke="black" points="201.13,-133.46 197.62,-123.46 194.13,-133.46 201.13,-133.46"/>
</g>
<!-- all&#45;&gt;libefisec.so -->
<g id="edge2" class="edge">
<title>all&#45;&gt;libefisec.so</title>
<path fill="none" stroke="red" d="M224.56,-169.71C247.44,-162.36 278.84,-148.17 293.62,-123 306.97,-100.28 293.76,-72.14 279.2,-51.47"/>
<polygon fill="red" stroke="red" points="281.53,-49.73 272.74,-43.82 275.92,-53.93 281.53,-49.73"/>
</g>
</g>
</svg>
