<?xml version="1.0" encoding="UTF-8" standalone="no"?>
<!DOCTYPE svg PUBLIC "-//W3C//DTD SVG 1.1//EN"
 "http://www.w3.org/Graphics/SVG/1.1/DTD/svg11.dtd">
<!-- Generated by graphviz version 10.0.1 (0)
 -->
<!-- Pages: 1 -->
<svg width="382pt" height="204pt"
 viewBox="0.00 0.00 382.38 204.00" xmlns="http://www.w3.org/2000/svg" xmlns:xlink="http://www.w3.org/1999/xlink">
<g id="graph0" class="graph" transform="scale(1 1) rotate(0) translate(4 200)">
<polygon fill="white" stroke="none" points="-4,4 -4,-200 378.38,-200 378.38,4 -4,4"/>
<!-- libefivar.so -->
<g id="node1" class="node">
<title>libefivar.so</title>
<polygon fill="none" stroke="black" points="0,-80 0,-122.5 93.25,-122.5 93.25,-80 0,-80"/>
<text text-anchor="middle" x="46.62" y="-105.2" font-family="Times,serif" font-size="14.00">libefivar.so</text>
<text text-anchor="middle" x="46.62" y="-87.95" font-family="Times,serif" font-size="14.00">LIBS=dl</text>
</g>
<!-- efisecdb -->
<g id="node2" class="node">
<title>efisecdb</title>
<polygon fill="none" stroke="black" points="110.88,-80 110.88,-122.5 284.38,-122.5 284.38,-80 110.88,-80"/>
<text text-anchor="middle" x="197.62" y="-105.2" font-family="Times,serif" font-size="14.00">efisecdb</text>
<text text-anchor="middle" x="197.62" y="-87.95" font-family="Times,serif" font-size="14.00">LIBS=&#39;efivar efisec dl&#39;</text>
</g>
<!-- libefisec.so -->
<g id="node3" class="node">
<title>libefisec.so</title>
<polygon fill="none" stroke="red" points="134.88,-0.5 134.88,-43 374.38,-43 374.38,-0.5 134.88,-0.5"/>
<text text-anchor="middle" x="254.62" y="-25.7" font-family="Times,serif" font-size="14.00">libefisec.so</text>
<text text-anchor="middle" x="254.62" y="-8.45" font-family="Times,serif" font-size="14.00">LIBS=&#39;efivar efisec dl&#39; or none?</text>
</g>
<!-- efisecdb&#45;&gt;libefisec.so -->
<g id="edge4" class="edge">
<title>efisecdb&#45;&gt;libefisec.so</title>
<path fill="none" stroke="red" d="M212.6,-79.89C218.77,-71.5 226.04,-61.62 232.78,-52.45"/>
<polygon fill="red" stroke="red" points="235.55,-54.59 238.65,-44.46 229.91,-50.45 235.55,-54.59"/>
</g>
<!-- all -->
<g id="node4" class="node">
<title>all</title>
<polygon fill="none" stroke="black" points="170.62,-159.5 170.62,-195.5 224.62,-195.5 224.62,-159.5 170.62,-159.5"/>
<text text-anchor="middle" x="197.25" y="-172.82" font-family="Times,serif" font-size="14.00">all</text>
</g>
<!-- all&#45;&gt;libefivar.so -->
<g id="edge1" class="edge">
<title>all&#45;&gt;libefivar.so</title>
<path fill="none" stroke="black" d="M170.28,-163.05C150.35,-153.25 122.74,-139.68 98.66,-127.84"/>
<polygon fill="black" stroke="black" points="100.47,-124.82 89.95,-123.55 97.38,-131.11 100.47,-124.82"/>
</g>
<!-- all&#45;&gt;efisecdb -->
<g id="edge3" class="edge">
<title>all&#45;&gt;efisecdb</title>
<path fill="none" stroke="black" d="M197.62,-159.28C197.62,-151.8 197.62,-142.79 197.62,-134.16"/>
<polygon fill="black" stroke="black" points="201.13,-134.32 197.63,-124.32 194.13,-134.32 201.13,-134.32"/>
</g>
<!-- all&#45;&gt;libefisec.so -->
<g id="edge2" class="edge">
<title>all&#45;&gt;libefisec.so</title>
<path fill="none" stroke="red" d="M225.01,-169.57C247.84,-162.18 278.93,-148.01 293.62,-123 306.77,-100.62 294.15,-72.99 279.86,-52.41"/>
<polygon fill="red" stroke="red" points="282.71,-50.38 273.94,-44.43 277.09,-54.54 282.71,-50.38"/>
</g>
</g>
</svg>
