<?xml version="1.0" encoding="UTF-8" standalone="no"?>
<!DOCTYPE svg PUBLIC "-//W3C//DTD SVG 1.1//EN"
 "http://www.w3.org/Graphics/SVG/1.1/DTD/svg11.dtd">
<!-- Generated by graphviz version 12.1.0 (0)
 -->
<!-- Title: G Pages: 1 -->
<svg width="627pt" height="404pt"
 viewBox="0.00 0.00 627.00 404.00" xmlns="http://www.w3.org/2000/svg" xmlns:xlink="http://www.w3.org/1999/xlink">
<g id="graph0" class="graph" transform="scale(1 1) rotate(0) translate(4 400)">
<title>G</title>
<polygon fill="white" stroke="none" points="-4,4 -4,-400 623,-400 623,4 -4,4"/>
<!-- sxdx80lmk4zkhb51f4x5dgqvxgmx55wl&#45;gcc&#45;11.3.0 -->
<g id="node1" class="node">
<title>sxdx80lmk4zkhb51f4x5dgqvxgmx55wl&#45;gcc&#45;11.3.0</title>
<polygon fill="lightgrey" stroke="black" points="456.25,-36 366.75,-36 366.75,0 456.25,0 456.25,-36"/>
<text text-anchor="middle" x="411.5" y="-13.32" font-family="Times,serif" font-size="14.00">gcc&#45;11.3.0</text>
</g>
<!-- ayfr5l52xkqqjn3n4h9jfacgnchz1z7s&#45;glibc&#45;2.35&#45;224 -->
<g id="node2" class="node">
<title>ayfr5l52xkqqjn3n4h9jfacgnchz1z7s&#45;glibc&#45;2.35&#45;224</title>
<polygon fill="lightgrey" stroke="black" points="428.5,-252 310.5,-252 310.5,-216 428.5,-216 428.5,-252"/>
<text text-anchor="middle" x="369.5" y="-229.32" font-family="Times,serif" font-size="14.00">glibc&#45;2.35&#45;224</text>
</g>
<!-- ayfr5l52xkqqjn3n4h9jfacgnchz1z7s&#45;glibc&#45;2.35&#45;224&#45;&gt;sxdx80lmk4zkhb51f4x5dgqvxgmx55wl&#45;gcc&#45;11.3.0 -->
<g id="edge1" class="edge">
<title>ayfr5l52xkqqjn3n4h9jfacgnchz1z7s&#45;glibc&#45;2.35&#45;224&#45;&gt;sxdx80lmk4zkhb51f4x5dgqvxgmx55wl&#45;gcc&#45;11.3.0</title>
<path fill="none" stroke="black" d="M369.89,-215.77C370.93,-185.97 374.72,-123.09 388.5,-72 390.8,-63.48 394.23,-54.55 397.75,-46.51"/>
<polygon fill="black" stroke="black" points="400.86,-48.12 401.87,-37.58 394.51,-45.19 400.86,-48.12"/>
</g>
<!-- mmmjp0xcmr0dm307jv1l34hvi95z6d8s&#45;glibc&#45;2.35&#45;224&#45;dev -->
<g id="node3" class="node">
<title>mmmjp0xcmr0dm307jv1l34hvi95z6d8s&#45;glibc&#45;2.35&#45;224&#45;dev</title>
<polygon fill="lightgrey" stroke="black" points="291.5,-108 143.5,-108 143.5,-72 291.5,-72 291.5,-108"/>
<text text-anchor="middle" x="217.5" y="-85.33" font-family="Times,serif" font-size="14.00">glibc&#45;2.35&#45;224&#45;dev</text>
</g>
<!-- ayfr5l52xkqqjn3n4h9jfacgnchz1z7s&#45;glibc&#45;2.35&#45;224&#45;&gt;mmmjp0xcmr0dm307jv1l34hvi95z6d8s&#45;glibc&#45;2.35&#45;224&#45;dev -->
<g id="edge7" class="edge">
<title>ayfr5l52xkqqjn3n4h9jfacgnchz1z7s&#45;glibc&#45;2.35&#45;224&#45;&gt;mmmjp0xcmr0dm307jv1l34hvi95z6d8s&#45;glibc&#45;2.35&#45;224&#45;dev</title>
<path fill="none" stroke="black" d="M310.44,-223.73C262.88,-214.91 201.55,-200.03 186.5,-180 172.61,-161.51 183.51,-136.3 196.06,-117.43"/>
<polygon fill="black" stroke="black" points="198.8,-119.62 201.77,-109.45 193.11,-115.55 198.8,-119.62"/>
</g>
<!-- wprxx5zkkk13hpj6k1v6qadjylh3vq9m&#45;gcc&#45;11.3.0&#45;lib -->
<g id="node4" class="node">
<title>wprxx5zkkk13hpj6k1v6qadjylh3vq9m&#45;gcc&#45;11.3.0&#45;lib</title>
<polygon fill="lightgrey" stroke="black" points="509.5,-108 397.5,-108 397.5,-72 509.5,-72 509.5,-108"/>
<text text-anchor="middle" x="453.5" y="-85.33" font-family="Times,serif" font-size="14.00">gcc&#45;11.3.0&#45;lib</text>
</g>
<!-- ayfr5l52xkqqjn3n4h9jfacgnchz1z7s&#45;glibc&#45;2.35&#45;224&#45;&gt;wprxx5zkkk13hpj6k1v6qadjylh3vq9m&#45;gcc&#45;11.3.0&#45;lib -->
<g id="edge11" class="edge">
<title>ayfr5l52xkqqjn3n4h9jfacgnchz1z7s&#45;glibc&#45;2.35&#45;224&#45;&gt;wprxx5zkkk13hpj6k1v6qadjylh3vq9m&#45;gcc&#45;11.3.0&#45;lib</title>
<path fill="none" stroke="magenta" d="M379.8,-215.59C394.24,-191.18 420.62,-146.58 437.59,-117.89"/>
<polygon fill="magenta" stroke="magenta" points="440.53,-119.8 442.61,-109.41 434.5,-116.24 440.53,-119.8"/>
</g>
<!-- zaflwh2nwzj1f0wngd7hqm3nvlf3yhsx&#45;zlib&#45;1.2.13 -->
<g id="node5" class="node">
<title>zaflwh2nwzj1f0wngd7hqm3nvlf3yhsx&#45;zlib&#45;1.2.13</title>
<polygon fill="lightgrey" stroke="black" points="619,-108 528,-108 528,-72 619,-72 619,-108"/>
<text text-anchor="middle" x="573.5" y="-85.33" font-family="Times,serif" font-size="14.00">zlib&#45;1.2.13</text>
</g>
<!-- ayfr5l52xkqqjn3n4h9jfacgnchz1z7s&#45;glibc&#45;2.35&#45;224&#45;&gt;zaflwh2nwzj1f0wngd7hqm3nvlf3yhsx&#45;zlib&#45;1.2.13 -->
<g id="edge12" class="edge">
<title>ayfr5l52xkqqjn3n4h9jfacgnchz1z7s&#45;glibc&#45;2.35&#45;224&#45;&gt;zaflwh2nwzj1f0wngd7hqm3nvlf3yhsx&#45;zlib&#45;1.2.13</title>
<path fill="none" stroke="burlywood" d="M394.51,-215.59C430.86,-190.29 498.38,-143.29 539.3,-114.8"/>
<polygon fill="burlywood" stroke="burlywood" points="541.15,-117.78 547.36,-109.2 537.15,-112.04 541.15,-117.78"/>
</g>
<!-- s7ip867mrpnnjlppbnxlcsq10gv13x2x&#45;glibc&#45;2.35&#45;224&#45;bin -->
<g id="node9" class="node">
<title>s7ip867mrpnnjlppbnxlcsq10gv13x2x&#45;glibc&#45;2.35&#45;224&#45;bin</title>
<polygon fill="lightgrey" stroke="black" points="341,-180 196,-180 196,-144 341,-144 341,-180"/>
<text text-anchor="middle" x="268.5" y="-157.32" font-family="Times,serif" font-size="14.00">glibc&#45;2.35&#45;224&#45;bin</text>
</g>
<!-- ayfr5l52xkqqjn3n4h9jfacgnchz1z7s&#45;glibc&#45;2.35&#45;224&#45;&gt;s7ip867mrpnnjlppbnxlcsq10gv13x2x&#45;glibc&#45;2.35&#45;224&#45;bin -->
<g id="edge10" class="edge">
<title>ayfr5l52xkqqjn3n4h9jfacgnchz1z7s&#45;glibc&#45;2.35&#45;224&#45;&gt;s7ip867mrpnnjlppbnxlcsq10gv13x2x&#45;glibc&#45;2.35&#45;224&#45;bin</title>
<path fill="none" stroke="blue" d="M344.27,-215.52C331.65,-206.76 316.18,-196.04 302.52,-186.58"/>
<polygon fill="blue" stroke="blue" points="304.86,-183.94 294.65,-181.12 300.87,-189.7 304.86,-183.94"/>
</g>
<!-- mmmjp0xcmr0dm307jv1l34hvi95z6d8s&#45;glibc&#45;2.35&#45;224&#45;dev&#45;&gt;sxdx80lmk4zkhb51f4x5dgqvxgmx55wl&#45;gcc&#45;11.3.0 -->
<g id="edge2" class="edge">
<title>mmmjp0xcmr0dm307jv1l34hvi95z6d8s&#45;glibc&#45;2.35&#45;224&#45;dev&#45;&gt;sxdx80lmk4zkhb51f4x5dgqvxgmx55wl&#45;gcc&#45;11.3.0</title>
<path fill="none" stroke="red" d="M265.95,-71.52C293.22,-61.68 327.38,-49.35 355.76,-39.11"/>
<polygon fill="red" stroke="red" points="356.68,-42.5 364.9,-35.81 354.31,-35.92 356.68,-42.5"/>
</g>
<!-- wprxx5zkkk13hpj6k1v6qadjylh3vq9m&#45;gcc&#45;11.3.0&#45;lib&#45;&gt;sxdx80lmk4zkhb51f4x5dgqvxgmx55wl&#45;gcc&#45;11.3.0 -->
<g id="edge3" class="edge">
<title>wprxx5zkkk13hpj6k1v6qadjylh3vq9m&#45;gcc&#45;11.3.0&#45;lib&#45;&gt;sxdx80lmk4zkhb51f4x5dgqvxgmx55wl&#45;gcc&#45;11.3.0</title>
<path fill="none" stroke="green" d="M443.12,-71.7C438.44,-63.9 432.81,-54.51 427.6,-45.83"/>
<polygon fill="green" stroke="green" points="430.69,-44.18 422.54,-37.4 424.69,-47.78 430.69,-44.18"/>
</g>
<!-- zaflwh2nwzj1f0wngd7hqm3nvlf3yhsx&#45;zlib&#45;1.2.13&#45;&gt;sxdx80lmk4zkhb51f4x5dgqvxgmx55wl&#45;gcc&#45;11.3.0 -->
<g id="edge4" class="edge">
<title>zaflwh2nwzj1f0wngd7hqm3nvlf3yhsx&#45;zlib&#45;1.2.13&#45;&gt;sxdx80lmk4zkhb51f4x5dgqvxgmx55wl&#45;gcc&#45;11.3.0</title>
<path fill="none" stroke="blue" d="M533.04,-71.52C511.6,-62.25 485.05,-50.78 462.25,-40.93"/>
<polygon fill="blue" stroke="blue" points="463.68,-37.74 453.12,-36.98 460.91,-44.16 463.68,-37.74"/>
</g>
<!-- 6fid553s8qb5vgwq8namz4dcmjpklvr1&#45;libidn2&#45;2.3.2 -->
<g id="node6" class="node">
<title>6fid553s8qb5vgwq8namz4dcmjpklvr1&#45;libidn2&#45;2.3.2</title>
<polygon fill="lightgrey" stroke="black" points="422.5,-324 316.5,-324 316.5,-288 422.5,-288 422.5,-324"/>
<text text-anchor="middle" x="369.5" y="-301.32" font-family="Times,serif" font-size="14.00">libidn2&#45;2.3.2</text>
</g>
<!-- 6fid553s8qb5vgwq8namz4dcmjpklvr1&#45;libidn2&#45;2.3.2&#45;&gt;ayfr5l52xkqqjn3n4h9jfacgnchz1z7s&#45;glibc&#45;2.35&#45;224 -->
<g id="edge5" class="edge">
<title>6fid553s8qb5vgwq8namz4dcmjpklvr1&#45;libidn2&#45;2.3.2&#45;&gt;ayfr5l52xkqqjn3n4h9jfacgnchz1z7s&#45;glibc&#45;2.35&#45;224</title>
<path fill="none" stroke="magenta" d="M369.5,-287.7C369.5,-280.41 369.5,-271.73 369.5,-263.54"/>
<polygon fill="magenta" stroke="magenta" points="373,-263.62 369.5,-253.62 366,-263.62 373,-263.62"/>
</g>
<!-- crj2i8d82fff4hk94nlxmyzi1ir2z0cz&#45;libunistring&#45;1.0 -->
<g id="node7" class="node">
<title>crj2i8d82fff4hk94nlxmyzi1ir2z0cz&#45;libunistring&#45;1.0</title>
<polygon fill="lightgrey" stroke="black" points="432.62,-396 306.38,-396 306.38,-360 432.62,-360 432.62,-396"/>
<text text-anchor="middle" x="369.5" y="-373.32" font-family="Times,serif" font-size="14.00">libunistring&#45;1.0</text>
</g>
<!-- crj2i8d82fff4hk94nlxmyzi1ir2z0cz&#45;libunistring&#45;1.0&#45;&gt;6fid553s8qb5vgwq8namz4dcmjpklvr1&#45;libidn2&#45;2.3.2 -->
<g id="edge6" class="edge">
<title>crj2i8d82fff4hk94nlxmyzi1ir2z0cz&#45;libunistring&#45;1.0&#45;&gt;6fid553s8qb5vgwq8namz4dcmjpklvr1&#45;libidn2&#45;2.3.2</title>
<path fill="none" stroke="burlywood" d="M369.5,-359.7C369.5,-352.41 369.5,-343.73 369.5,-335.54"/>
<polygon fill="burlywood" stroke="burlywood" points="373,-335.62 369.5,-325.62 366,-335.62 373,-335.62"/>
</g>
<!-- mb6pgv5w5ki64k5s2m83dqvg8i2b239n&#45;linux&#45;headers&#45;6.0 -->
<g id="node8" class="node">
<title>mb6pgv5w5ki64k5s2m83dqvg8i2b239n&#45;linux&#45;headers&#45;6.0</title>
<polygon fill="lightgrey" stroke="black" points="139,-180 0,-180 0,-144 139,-144 139,-180"/>
<text text-anchor="middle" x="69.5" y="-157.32" font-family="Times,serif" font-size="14.00">linux&#45;headers&#45;6.0</text>
</g>
<!-- mb6pgv5w5ki64k5s2m83dqvg8i2b239n&#45;linux&#45;headers&#45;6.0&#45;&gt;mmmjp0xcmr0dm307jv1l34hvi95z6d8s&#45;glibc&#45;2.35&#45;224&#45;dev -->
<g id="edge8" class="edge">
<title>mb6pgv5w5ki64k5s2m83dqvg8i2b239n&#45;linux&#45;headers&#45;6.0&#45;&gt;mmmjp0xcmr0dm307jv1l34hvi95z6d8s&#45;glibc&#45;2.35&#45;224&#45;dev</title>
<path fill="none" stroke="red" d="M106.46,-143.52C125.87,-134.34 149.86,-122.99 170.57,-113.2"/>
<polygon fill="red" stroke="red" points="171.84,-116.47 179.38,-109.03 168.85,-110.14 171.84,-116.47"/>
</g>
<!-- s7ip867mrpnnjlppbnxlcsq10gv13x2x&#45;glibc&#45;2.35&#45;224&#45;bin&#45;&gt;mmmjp0xcmr0dm307jv1l34hvi95z6d8s&#45;glibc&#45;2.35&#45;224&#45;dev -->
<g id="edge9" class="edge">
<title>s7ip867mrpnnjlppbnxlcsq10gv13x2x&#45;glibc&#45;2.35&#45;224&#45;bin&#45;&gt;mmmjp0xcmr0dm307jv1l34hvi95z6d8s&#45;glibc&#45;2.35&#45;224&#45;dev</title>
<path fill="none" stroke="green" d="M255.89,-143.7C250.09,-135.73 243.07,-126.1 236.64,-117.26"/>
<polygon fill="green" stroke="green" points="239.57,-115.35 230.85,-109.33 233.91,-119.47 239.57,-115.35"/>
</g>
</g>
</svg>
