<?xml version="1.0" encoding="UTF-8" standalone="no"?>
<!DOCTYPE svg PUBLIC "-//W3C//DTD SVG 1.1//EN"
 "http://www.w3.org/Graphics/SVG/1.1/DTD/svg11.dtd">
<!-- Generated by graphviz version 7.0.2 (0)
 -->
<!-- Title: G Pages: 1 -->
<svg width="630pt" height="404pt"
 viewBox="0.00 0.00 630.00 404.00" xmlns="http://www.w3.org/2000/svg" xmlns:xlink="http://www.w3.org/1999/xlink">
<g id="graph0" class="graph" transform="scale(1 1) rotate(0) translate(4 400)">
<title>G</title>
<polygon fill="white" stroke="none" points="-4,4 -4,-400 626,-400 626,4 -4,4"/>
<!-- sxdx80lmk4zkhb51f4x5dgqvxgmx55wl&#45;gcc&#45;11.3.0 -->
<g id="node1" class="node">
<title>sxdx80lmk4zkhb51f4x5dgqvxgmx55wl&#45;gcc&#45;11.3.0</title>
<polygon fill="lightgrey" stroke="black" points="457,-36 367,-36 367,0 457,0 457,-36"/>
<text text-anchor="middle" x="412" y="-14.3" font-family="Times,serif" font-size="14.00">gcc&#45;11.3.0</text>
</g>
<!-- ayfr5l52xkqqjn3n4h9jfacgnchz1z7s&#45;glibc&#45;2.35&#45;224 -->
<g id="node2" class="node">
<title>ayfr5l52xkqqjn3n4h9jfacgnchz1z7s&#45;glibc&#45;2.35&#45;224</title>
<polygon fill="lightgrey" stroke="black" points="429.5,-252 310.5,-252 310.5,-216 429.5,-216 429.5,-252"/>
<text text-anchor="middle" x="370" y="-230.3" font-family="Times,serif" font-size="14.00">glibc&#45;2.35&#45;224</text>
</g>
<!-- ayfr5l52xkqqjn3n4h9jfacgnchz1z7s&#45;glibc&#45;2.35&#45;224&#45;&gt;sxdx80lmk4zkhb51f4x5dgqvxgmx55wl&#45;gcc&#45;11.3.0 -->
<g id="edge1" class="edge">
<title>ayfr5l52xkqqjn3n4h9jfacgnchz1z7s&#45;glibc&#45;2.35&#45;224&#45;&gt;sxdx80lmk4zkhb51f4x5dgqvxgmx55wl&#45;gcc&#45;11.3.0</title>
<path fill="none" stroke="black" d="M370.62,-215.79C372.02,-186.02 376.46,-123.19 390,-72 392.24,-63.52 395.54,-54.61 398.91,-46.57"/>
<polygon fill="black" stroke="black" points="402.01,-48.2 402.84,-37.64 395.6,-45.38 402.01,-48.2"/>
</g>
<!-- mmmjp0xcmr0dm307jv1l34hvi95z6d8s&#45;glibc&#45;2.35&#45;224&#45;dev -->
<g id="node3" class="node">
<title>mmmjp0xcmr0dm307jv1l34hvi95z6d8s&#45;glibc&#45;2.35&#45;224&#45;dev</title>
<polygon fill="lightgrey" stroke="black" points="292.5,-108 143.5,-108 143.5,-72 292.5,-72 292.5,-108"/>
<text text-anchor="middle" x="218" y="-86.3" font-family="Times,serif" font-size="14.00">glibc&#45;2.35&#45;224&#45;dev</text>
</g>
<!-- ayfr5l52xkqqjn3n4h9jfacgnchz1z7s&#45;glibc&#45;2.35&#45;224&#45;&gt;mmmjp0xcmr0dm307jv1l34hvi95z6d8s&#45;glibc&#45;2.35&#45;224&#45;dev -->
<g id="edge7" class="edge">
<title>ayfr5l52xkqqjn3n4h9jfacgnchz1z7s&#45;glibc&#45;2.35&#45;224&#45;&gt;mmmjp0xcmr0dm307jv1l34hvi95z6d8s&#45;glibc&#45;2.35&#45;224&#45;dev</title>
<path fill="none" stroke="black" d="M310.47,-223.64C262.98,-214.82 202,-199.96 187,-180 173.11,-161.51 184.01,-136.3 196.56,-117.43"/>
<polygon fill="black" stroke="black" points="199.3,-119.62 202.27,-109.45 193.61,-115.55 199.3,-119.62"/>
</g>
<!-- wprxx5zkkk13hpj6k1v6qadjylh3vq9m&#45;gcc&#45;11.3.0&#45;lib -->
<g id="node4" class="node">
<title>wprxx5zkkk13hpj6k1v6qadjylh3vq9m&#45;gcc&#45;11.3.0&#45;lib</title>
<polygon fill="lightgrey" stroke="black" points="511.5,-108 398.5,-108 398.5,-72 511.5,-72 511.5,-108"/>
<text text-anchor="middle" x="455" y="-86.3" font-family="Times,serif" font-size="14.00">gcc&#45;11.3.0&#45;lib</text>
</g>
<!-- ayfr5l52xkqqjn3n4h9jfacgnchz1z7s&#45;glibc&#45;2.35&#45;224&#45;&gt;wprxx5zkkk13hpj6k1v6qadjylh3vq9m&#45;gcc&#45;11.3.0&#45;lib -->
<g id="edge11" class="edge">
<title>ayfr5l52xkqqjn3n4h9jfacgnchz1z7s&#45;glibc&#45;2.35&#45;224&#45;&gt;wprxx5zkkk13hpj6k1v6qadjylh3vq9m&#45;gcc&#45;11.3.0&#45;lib</title>
<path fill="none" stroke="magenta" d="M380.42,-215.59C395.03,-191.18 421.73,-146.58 438.9,-117.89"/>
<polygon fill="magenta" stroke="magenta" points="441.85,-119.79 443.98,-109.41 435.84,-116.19 441.85,-119.79"/>
</g>
<!-- zaflwh2nwzj1f0wngd7hqm3nvlf3yhsx&#45;zlib&#45;1.2.13 -->
<g id="node5" class="node">
<title>zaflwh2nwzj1f0wngd7hqm3nvlf3yhsx&#45;zlib&#45;1.2.13</title>
<polygon fill="lightgrey" stroke="black" points="622,-108 530,-108 530,-72 622,-72 622,-108"/>
<text text-anchor="middle" x="576" y="-86.3" font-family="Times,serif" font-size="14.00">zlib&#45;1.2.13</text>
</g>
<!-- ayfr5l52xkqqjn3n4h9jfacgnchz1z7s&#45;glibc&#45;2.35&#45;224&#45;&gt;zaflwh2nwzj1f0wngd7hqm3nvlf3yhsx&#45;zlib&#45;1.2.13 -->
<g id="edge12" class="edge">
<title>ayfr5l52xkqqjn3n4h9jfacgnchz1z7s&#45;glibc&#45;2.35&#45;224&#45;&gt;zaflwh2nwzj1f0wngd7hqm3nvlf3yhsx&#45;zlib&#45;1.2.13</title>
<path fill="none" stroke="burlywood" d="M395.26,-215.59C431.96,-190.29 500.15,-143.29 541.47,-114.8"/>
<polygon fill="burlywood" stroke="burlywood" points="543.36,-117.75 549.61,-109.19 539.39,-111.98 543.36,-117.75"/>
</g>
<!-- s7ip867mrpnnjlppbnxlcsq10gv13x2x&#45;glibc&#45;2.35&#45;224&#45;bin -->
<g id="node9" class="node">
<title>s7ip867mrpnnjlppbnxlcsq10gv13x2x&#45;glibc&#45;2.35&#45;224&#45;bin</title>
<polygon fill="lightgrey" stroke="black" points="342,-180 196,-180 196,-144 342,-144 342,-180"/>
<text text-anchor="middle" x="269" y="-158.3" font-family="Times,serif" font-size="14.00">glibc&#45;2.35&#45;224&#45;bin</text>
</g>
<!-- ayfr5l52xkqqjn3n4h9jfacgnchz1z7s&#45;glibc&#45;2.35&#45;224&#45;&gt;s7ip867mrpnnjlppbnxlcsq10gv13x2x&#45;glibc&#45;2.35&#45;224&#45;bin -->
<g id="edge10" class="edge">
<title>ayfr5l52xkqqjn3n4h9jfacgnchz1z7s&#45;glibc&#45;2.35&#45;224&#45;&gt;s7ip867mrpnnjlppbnxlcsq10gv13x2x&#45;glibc&#45;2.35&#45;224&#45;bin</title>
<path fill="none" stroke="blue" d="M344.77,-215.52C332.15,-206.76 316.68,-196.04 303.02,-186.58"/>
<polygon fill="blue" stroke="blue" points="305.36,-183.94 295.15,-181.12 301.37,-189.7 305.36,-183.94"/>
</g>
<!-- mmmjp0xcmr0dm307jv1l34hvi95z6d8s&#45;glibc&#45;2.35&#45;224&#45;dev&#45;&gt;sxdx80lmk4zkhb51f4x5dgqvxgmx55wl&#45;gcc&#45;11.3.0 -->
<g id="edge2" class="edge">
<title>mmmjp0xcmr0dm307jv1l34hvi95z6d8s&#45;glibc&#45;2.35&#45;224&#45;dev&#45;&gt;sxdx80lmk4zkhb51f4x5dgqvxgmx55wl&#45;gcc&#45;11.3.0</title>
<path fill="none" stroke="red" d="M266.45,-71.52C293.72,-61.68 327.88,-49.35 356.26,-39.11"/>
<polygon fill="red" stroke="red" points="357.18,-42.5 365.4,-35.81 354.81,-35.92 357.18,-42.5"/>
</g>
<!-- wprxx5zkkk13hpj6k1v6qadjylh3vq9m&#45;gcc&#45;11.3.0&#45;lib&#45;&gt;sxdx80lmk4zkhb51f4x5dgqvxgmx55wl&#45;gcc&#45;11.3.0 -->
<g id="edge3" class="edge">
<title>wprxx5zkkk13hpj6k1v6qadjylh3vq9m&#45;gcc&#45;11.3.0&#45;lib&#45;&gt;sxdx80lmk4zkhb51f4x5dgqvxgmx55wl&#45;gcc&#45;11.3.0</title>
<path fill="none" stroke="green" d="M444.37,-71.7C439.58,-63.9 433.81,-54.51 428.48,-45.83"/>
<polygon fill="green" stroke="green" points="431.52,-44.08 423.3,-37.39 425.55,-47.75 431.52,-44.08"/>
</g>
<!-- zaflwh2nwzj1f0wngd7hqm3nvlf3yhsx&#45;zlib&#45;1.2.13&#45;&gt;sxdx80lmk4zkhb51f4x5dgqvxgmx55wl&#45;gcc&#45;11.3.0 -->
<g id="edge4" class="edge">
<title>zaflwh2nwzj1f0wngd7hqm3nvlf3yhsx&#45;zlib&#45;1.2.13&#45;&gt;sxdx80lmk4zkhb51f4x5dgqvxgmx55wl&#45;gcc&#45;11.3.0</title>
<path fill="none" stroke="blue" d="M535.04,-71.52C513.24,-62.21 486.22,-50.68 463.06,-40.79"/>
<polygon fill="blue" stroke="blue" points="464.69,-37.68 454.11,-36.98 461.94,-44.12 464.69,-37.68"/>
</g>
<!-- 6fid553s8qb5vgwq8namz4dcmjpklvr1&#45;libidn2&#45;2.3.2 -->
<g id="node6" class="node">
<title>6fid553s8qb5vgwq8namz4dcmjpklvr1&#45;libidn2&#45;2.3.2</title>
<polygon fill="lightgrey" stroke="black" points="423.5,-324 316.5,-324 316.5,-288 423.5,-288 423.5,-324"/>
<text text-anchor="middle" x="370" y="-302.3" font-family="Times,serif" font-size="14.00">libidn2&#45;2.3.2</text>
</g>
<!-- 6fid553s8qb5vgwq8namz4dcmjpklvr1&#45;libidn2&#45;2.3.2&#45;&gt;ayfr5l52xkqqjn3n4h9jfacgnchz1z7s&#45;glibc&#45;2.35&#45;224 -->
<g id="edge5" class="edge">
<title>6fid553s8qb5vgwq8namz4dcmjpklvr1&#45;libidn2&#45;2.3.2&#45;&gt;ayfr5l52xkqqjn3n4h9jfacgnchz1z7s&#45;glibc&#45;2.35&#45;224</title>
<path fill="none" stroke="magenta" d="M370,-287.7C370,-280.41 370,-271.73 370,-263.54"/>
<polygon fill="magenta" stroke="magenta" points="373.5,-263.62 370,-253.62 366.5,-263.62 373.5,-263.62"/>
</g>
<!-- crj2i8d82fff4hk94nlxmyzi1ir2z0cz&#45;libunistring&#45;1.0 -->
<g id="node7" class="node">
<title>crj2i8d82fff4hk94nlxmyzi1ir2z0cz&#45;libunistring&#45;1.0</title>
<polygon fill="lightgrey" stroke="black" points="433.5,-396 306.5,-396 306.5,-360 433.5,-360 433.5,-396"/>
<text text-anchor="middle" x="370" y="-374.3" font-family="Times,serif" font-size="14.00">libunistring&#45;1.0</text>
</g>
<!-- crj2i8d82fff4hk94nlxmyzi1ir2z0cz&#45;libunistring&#45;1.0&#45;&gt;6fid553s8qb5vgwq8namz4dcmjpklvr1&#45;libidn2&#45;2.3.2 -->
<g id="edge6" class="edge">
<title>crj2i8d82fff4hk94nlxmyzi1ir2z0cz&#45;libunistring&#45;1.0&#45;&gt;6fid553s8qb5vgwq8namz4dcmjpklvr1&#45;libidn2&#45;2.3.2</title>
<path fill="none" stroke="burlywood" d="M370,-359.7C370,-352.41 370,-343.73 370,-335.54"/>
<polygon fill="burlywood" stroke="burlywood" points="373.5,-335.62 370,-325.62 366.5,-335.62 373.5,-335.62"/>
</g>
<!-- mb6pgv5w5ki64k5s2m83dqvg8i2b239n&#45;linux&#45;headers&#45;6.0 -->
<g id="node8" class="node">
<title>mb6pgv5w5ki64k5s2m83dqvg8i2b239n&#45;linux&#45;headers&#45;6.0</title>
<polygon fill="lightgrey" stroke="black" points="140,-180 0,-180 0,-144 140,-144 140,-180"/>
<text text-anchor="middle" x="70" y="-158.3" font-family="Times,serif" font-size="14.00">linux&#45;headers&#45;6.0</text>
</g>
<!-- mb6pgv5w5ki64k5s2m83dqvg8i2b239n&#45;linux&#45;headers&#45;6.0&#45;&gt;mmmjp0xcmr0dm307jv1l34hvi95z6d8s&#45;glibc&#45;2.35&#45;224&#45;dev -->
<g id="edge8" class="edge">
<title>mb6pgv5w5ki64k5s2m83dqvg8i2b239n&#45;linux&#45;headers&#45;6.0&#45;&gt;mmmjp0xcmr0dm307jv1l34hvi95z6d8s&#45;glibc&#45;2.35&#45;224&#45;dev</title>
<path fill="none" stroke="red" d="M106.96,-143.52C126.37,-134.34 150.36,-122.99 171.07,-113.2"/>
<polygon fill="red" stroke="red" points="172.34,-116.47 179.88,-109.03 169.35,-110.14 172.34,-116.47"/>
</g>
<!-- s7ip867mrpnnjlppbnxlcsq10gv13x2x&#45;glibc&#45;2.35&#45;224&#45;bin&#45;&gt;mmmjp0xcmr0dm307jv1l34hvi95z6d8s&#45;glibc&#45;2.35&#45;224&#45;dev -->
<g id="edge9" class="edge">
<title>s7ip867mrpnnjlppbnxlcsq10gv13x2x&#45;glibc&#45;2.35&#45;224&#45;bin&#45;&gt;mmmjp0xcmr0dm307jv1l34hvi95z6d8s&#45;glibc&#45;2.35&#45;224&#45;dev</title>
<path fill="none" stroke="green" d="M256.39,-143.7C250.59,-135.73 243.57,-126.1 237.14,-117.26"/>
<polygon fill="green" stroke="green" points="240.07,-115.35 231.35,-109.33 234.41,-119.47 240.07,-115.35"/>
</g>
</g>
</svg>
