<?xml version="1.0" encoding="UTF-8" standalone="no"?>
<!DOCTYPE svg PUBLIC "-//W3C//DTD SVG 1.1//EN"
 "http://www.w3.org/Graphics/SVG/1.1/DTD/svg11.dtd">
<!-- Generated by graphviz version 8.1.0 (0)
 -->
<!-- Title: G Pages: 1 -->
<svg width="627pt" height="404pt"
 viewBox="0.00 0.00 627.00 404.00" xmlns="http://www.w3.org/2000/svg" xmlns:xlink="http://www.w3.org/1999/xlink">
<g id="graph0" class="graph" transform="scale(1 1) rotate(0) translate(4 400)">
<title>G</title>
<polygon fill="white" stroke="none" points="-4,4 -4,-400 623,-400 623,4 -4,4"/>
<!-- sxdx80lmk4zkhb51f4x5dgqvxgmx55wl&#45;gcc&#45;11.3.0 -->
<g id="node1" class="node">
<title>sxdx80lmk4zkhb51f4x5dgqvxgmx55wl&#45;gcc&#45;11.3.0</title>
<polygon fill="lightgrey" stroke="black" points="456.25,-36 366.75,-36 366.75,0 456.25,0 456.25,-36"/>
<text text-anchor="middle" x="411.5" y="-13.32" font-family="Times,serif" font-size="14.00">gcc&#45;11.3.0</text>
</g>
<!-- ayfr5l52xkqqjn3n4h9jfacgnchz1z7s&#45;glibc&#45;2.35&#45;224 -->
<g id="node2" class="node">
<title>ayfr5l52xkqqjn3n4h9jfacgnchz1z7s&#45;glibc&#45;2.35&#45;224</title>
<polygon fill="lightgrey" stroke="black" points="428.5,-252 310.5,-252 310.5,-216 428.5,-216 428.5,-252"/>
<text text-anchor="middle" x="369.5" y="-229.32" font-family="Times,serif" font-size="14.00">glibc&#45;2.35&#45;224</text>
</g>
<!-- ayfr5l52xkqqjn3n4h9jfacgnchz1z7s&#45;glibc&#45;2.35&#45;224&#45;&gt;sxdx80lmk4zkhb51f4x5dgqvxgmx55wl&#45;gcc&#45;11.3.0 -->
<g id="edge1" class="edge">
<title>ayfr5l52xkqqjn3n4h9jfacgnchz1z7s&#45;glibc&#45;2.35&#45;224&#45;&gt;sxdx80lmk4zkhb51f4x5dgqvxgmx55wl&#45;gcc&#45;11.3.0</title>
<path fill="none" stroke="black" d="M369.89,-215.77C370.93,-185.97 374.72,-123.09 388.5,-72 390.85,-63.28 394.39,-54.15 397.99,-45.96"/>
<polygon fill="black" stroke="black" points="401.49,-47.75 402.51,-37.2 395.13,-44.81 401.49,-47.75"/>
</g>
<!-- mmmjp0xcmr0dm307jv1l34hvi95z6d8s&#45;glibc&#45;2.35&#45;224&#45;dev -->
<g id="node3" class="node">
<title>mmmjp0xcmr0dm307jv1l34hvi95z6d8s&#45;glibc&#45;2.35&#45;224&#45;dev</title>
<polygon fill="lightgrey" stroke="black" points="291.5,-108 143.5,-108 143.5,-72 291.5,-72 291.5,-108"/>
<text text-anchor="middle" x="217.5" y="-85.33" font-family="Times,serif" font-size="14.00">glibc&#45;2.35&#45;224&#45;dev</text>
</g>
<!-- ayfr5l52xkqqjn3n4h9jfacgnchz1z7s&#45;glibc&#45;2.35&#45;224&#45;&gt;mmmjp0xcmr0dm307jv1l34hvi95z6d8s&#45;glibc&#45;2.35&#45;224&#45;dev -->
<g id="edge7" class="edge">
<title>ayfr5l52xkqqjn3n4h9jfacgnchz1z7s&#45;glibc&#45;2.35&#45;224&#45;&gt;mmmjp0xcmr0dm307jv1l34hvi95z6d8s&#45;glibc&#45;2.35&#45;224&#45;dev</title>
<path fill="none" stroke="black" d="M310.44,-223.73C262.88,-214.91 201.55,-200.03 186.5,-180 172.48,-161.34 183.71,-135.84 196.4,-116.92"/>
<polygon fill="black" stroke="black" points="199.66,-119.38 202.65,-109.21 193.98,-115.3 199.66,-119.38"/>
</g>
<!-- wprxx5zkkk13hpj6k1v6qadjylh3vq9m&#45;gcc&#45;11.3.0&#45;lib -->
<g id="node4" class="node">
<title>wprxx5zkkk13hpj6k1v6qadjylh3vq9m&#45;gcc&#45;11.3.0&#45;lib</title>
<polygon fill="lightgrey" stroke="black" points="509.5,-108 397.5,-108 397.5,-72 509.5,-72 509.5,-108"/>
<text text-anchor="middle" x="453.5" y="-85.33" font-family="Times,serif" font-size="14.00">gcc&#45;11.3.0&#45;lib</text>
</g>
<!-- ayfr5l52xkqqjn3n4h9jfacgnchz1z7s&#45;glibc&#45;2.35&#45;224&#45;&gt;wprxx5zkkk13hpj6k1v6qadjylh3vq9m&#45;gcc&#45;11.3.0&#45;lib -->
<g id="edge11" class="edge">
<title>ayfr5l52xkqqjn3n4h9jfacgnchz1z7s&#45;glibc&#45;2.35&#45;224&#45;&gt;wprxx5zkkk13hpj6k1v6qadjylh3vq9m&#45;gcc&#45;11.3.0&#45;lib</title>
<path fill="none" stroke="magenta" d="M379.8,-215.59C394.3,-191.08 420.85,-146.19 437.81,-117.52"/>
<polygon fill="magenta" stroke="magenta" points="441.3,-119.5 443.38,-109.11 435.27,-115.94 441.3,-119.5"/>
</g>
<!-- zaflwh2nwzj1f0wngd7hqm3nvlf3yhsx&#45;zlib&#45;1.2.13 -->
<g id="node5" class="node">
<title>zaflwh2nwzj1f0wngd7hqm3nvlf3yhsx&#45;zlib&#45;1.2.13</title>
<polygon fill="lightgrey" stroke="black" points="619,-108 528,-108 528,-72 619,-72 619,-108"/>
<text text-anchor="middle" x="573.5" y="-85.33" font-family="Times,serif" font-size="14.00">zlib&#45;1.2.13</text>
</g>
<!-- ayfr5l52xkqqjn3n4h9jfacgnchz1z7s&#45;glibc&#45;2.35&#45;224&#45;&gt;zaflwh2nwzj1f0wngd7hqm3nvlf3yhsx&#45;zlib&#45;1.2.13 -->
<g id="edge12" class="edge">
<title>ayfr5l52xkqqjn3n4h9jfacgnchz1z7s&#45;glibc&#45;2.35&#45;224&#45;&gt;zaflwh2nwzj1f0wngd7hqm3nvlf3yhsx&#45;zlib&#45;1.2.13</title>
<path fill="none" stroke="burlywood" d="M394.51,-215.59C431.01,-190.18 498.96,-142.89 539.82,-114.44"/>
<polygon fill="burlywood" stroke="burlywood" points="541.39,-116.92 547.6,-108.33 537.39,-111.17 541.39,-116.92"/>
</g>
<!-- s7ip867mrpnnjlppbnxlcsq10gv13x2x&#45;glibc&#45;2.35&#45;224&#45;bin -->
<g id="node9" class="node">
<title>s7ip867mrpnnjlppbnxlcsq10gv13x2x&#45;glibc&#45;2.35&#45;224&#45;bin</title>
<polygon fill="lightgrey" stroke="black" points="341,-180 196,-180 196,-144 341,-144 341,-180"/>
<text text-anchor="middle" x="268.5" y="-157.32" font-family="Times,serif" font-size="14.00">glibc&#45;2.35&#45;224&#45;bin</text>
</g>
<!-- ayfr5l52xkqqjn3n4h9jfacgnchz1z7s&#45;glibc&#45;2.35&#45;224&#45;&gt;s7ip867mrpnnjlppbnxlcsq10gv13x2x&#45;glibc&#45;2.35&#45;224&#45;bin -->
<g id="edge10" class="edge">
<title>ayfr5l52xkqqjn3n4h9jfacgnchz1z7s&#45;glibc&#45;2.35&#45;224&#45;&gt;s7ip867mrpnnjlppbnxlcsq10gv13x2x&#45;glibc&#45;2.35&#45;224&#45;bin</title>
<path fill="none" stroke="blue" d="M344.27,-215.52C331.52,-206.68 315.88,-195.84 302.12,-186.3"/>
<polygon fill="blue" stroke="blue" points="304.62,-183.08 294.4,-180.26 300.63,-188.83 304.62,-183.08"/>
</g>
<!-- mmmjp0xcmr0dm307jv1l34hvi95z6d8s&#45;glibc&#45;2.35&#45;224&#45;dev&#45;&gt;sxdx80lmk4zkhb51f4x5dgqvxgmx55wl&#45;gcc&#45;11.3.0 -->
<g id="edge2" class="edge">
<title>mmmjp0xcmr0dm307jv1l34hvi95z6d8s&#45;glibc&#45;2.35&#45;224&#45;dev&#45;&gt;sxdx80lmk4zkhb51f4x5dgqvxgmx55wl&#45;gcc&#45;11.3.0</title>
<path fill="none" stroke="red" d="M265.95,-71.52C293.34,-61.63 327.69,-49.24 356.13,-38.98"/>
<polygon fill="red" stroke="red" points="357.11,-41.99 365.32,-35.3 354.73,-35.4 357.11,-41.99"/>
</g>
<!-- wprxx5zkkk13hpj6k1v6qadjylh3vq9m&#45;gcc&#45;11.3.0&#45;lib&#45;&gt;sxdx80lmk4zkhb51f4x5dgqvxgmx55wl&#45;gcc&#45;11.3.0 -->
<g id="edge3" class="edge">
<title>wprxx5zkkk13hpj6k1v6qadjylh3vq9m&#45;gcc&#45;11.3.0&#45;lib&#45;&gt;sxdx80lmk4zkhb51f4x5dgqvxgmx55wl&#45;gcc&#45;11.3.0</title>
<path fill="none" stroke="green" d="M443.12,-71.7C438.34,-63.73 432.56,-54.1 427.26,-45.26"/>
<polygon fill="green" stroke="green" points="429.91,-43.88 421.76,-37.1 423.91,-47.48 429.91,-43.88"/>
</g>
<!-- zaflwh2nwzj1f0wngd7hqm3nvlf3yhsx&#45;zlib&#45;1.2.13&#45;&gt;sxdx80lmk4zkhb51f4x5dgqvxgmx55wl&#45;gcc&#45;11.3.0 -->
<g id="edge4" class="edge">
<title>zaflwh2nwzj1f0wngd7hqm3nvlf3yhsx&#45;zlib&#45;1.2.13&#45;&gt;sxdx80lmk4zkhb51f4x5dgqvxgmx55wl&#45;gcc&#45;11.3.0</title>
<path fill="none" stroke="blue" d="M533.04,-71.52C511.4,-62.17 484.57,-50.57 461.63,-40.66"/>
<polygon fill="blue" stroke="blue" points="463.29,-37.14 452.73,-36.38 460.52,-43.56 463.29,-37.14"/>
</g>
<!-- 6fid553s8qb5vgwq8namz4dcmjpklvr1&#45;libidn2&#45;2.3.2 -->
<g id="node6" class="node">
<title>6fid553s8qb5vgwq8namz4dcmjpklvr1&#45;libidn2&#45;2.3.2</title>
<polygon fill="lightgrey" stroke="black" points="422.5,-324 316.5,-324 316.5,-288 422.5,-288 422.5,-324"/>
<text text-anchor="middle" x="369.5" y="-301.32" font-family="Times,serif" font-size="14.00">libidn2&#45;2.3.2</text>
</g>
<!-- 6fid553s8qb5vgwq8namz4dcmjpklvr1&#45;libidn2&#45;2.3.2&#45;&gt;ayfr5l52xkqqjn3n4h9jfacgnchz1z7s&#45;glibc&#45;2.35&#45;224 -->
<g id="edge5" class="edge">
<title>6fid553s8qb5vgwq8namz4dcmjpklvr1&#45;libidn2&#45;2.3.2&#45;&gt;ayfr5l52xkqqjn3n4h9jfacgnchz1z7s&#45;glibc&#45;2.35&#45;224</title>
<path fill="none" stroke="magenta" d="M369.5,-287.7C369.5,-280.24 369.5,-271.32 369.5,-262.97"/>
<polygon fill="magenta" stroke="magenta" points="373,-263.1 369.5,-253.1 366,-263.1 373,-263.1"/>
</g>
<!-- crj2i8d82fff4hk94nlxmyzi1ir2z0cz&#45;libunistring&#45;1.0 -->
<g id="node7" class="node">
<title>crj2i8d82fff4hk94nlxmyzi1ir2z0cz&#45;libunistring&#45;1.0</title>
<polygon fill="lightgrey" stroke="black" points="432.62,-396 306.38,-396 306.38,-360 432.62,-360 432.62,-396"/>
<text text-anchor="middle" x="369.5" y="-373.32" font-family="Times,serif" font-size="14.00">libunistring&#45;1.0</text>
</g>
<!-- crj2i8d82fff4hk94nlxmyzi1ir2z0cz&#45;libunistring&#45;1.0&#45;&gt;6fid553s8qb5vgwq8namz4dcmjpklvr1&#45;libidn2&#45;2.3.2 -->
<g id="edge6" class="edge">
<title>crj2i8d82fff4hk94nlxmyzi1ir2z0cz&#45;libunistring&#45;1.0&#45;&gt;6fid553s8qb5vgwq8namz4dcmjpklvr1&#45;libidn2&#45;2.3.2</title>
<path fill="none" stroke="burlywood" d="M369.5,-359.7C369.5,-352.24 369.5,-343.32 369.5,-334.97"/>
<polygon fill="burlywood" stroke="burlywood" points="373,-335.1 369.5,-325.1 366,-335.1 373,-335.1"/>
</g>
<!-- mb6pgv5w5ki64k5s2m83dqvg8i2b239n&#45;linux&#45;headers&#45;6.0 -->
<g id="node8" class="node">
<title>mb6pgv5w5ki64k5s2m83dqvg8i2b239n&#45;linux&#45;headers&#45;6.0</title>
<polygon fill="lightgrey" stroke="black" points="139,-180 0,-180 0,-144 139,-144 139,-180"/>
<text text-anchor="middle" x="69.5" y="-157.32" font-family="Times,serif" font-size="14.00">linux&#45;headers&#45;6.0</text>
</g>
<!-- mb6pgv5w5ki64k5s2m83dqvg8i2b239n&#45;linux&#45;headers&#45;6.0&#45;&gt;mmmjp0xcmr0dm307jv1l34hvi95z6d8s&#45;glibc&#45;2.35&#45;224&#45;dev -->
<g id="edge8" class="edge">
<title>mb6pgv5w5ki64k5s2m83dqvg8i2b239n&#45;linux&#45;headers&#45;6.0&#45;&gt;mmmjp0xcmr0dm307jv1l34hvi95z6d8s&#45;glibc&#45;2.35&#45;224&#45;dev</title>
<path fill="none" stroke="red" d="M106.46,-143.52C125.96,-134.29 150.08,-122.89 170.86,-113.06"/>
<polygon fill="red" stroke="red" points="172.21,-115.82 179.75,-108.38 169.21,-109.49 172.21,-115.82"/>
</g>
<!-- s7ip867mrpnnjlppbnxlcsq10gv13x2x&#45;glibc&#45;2.35&#45;224&#45;bin&#45;&gt;mmmjp0xcmr0dm307jv1l34hvi95z6d8s&#45;glibc&#45;2.35&#45;224&#45;dev -->
<g id="edge9" class="edge">
<title>s7ip867mrpnnjlppbnxlcsq10gv13x2x&#45;glibc&#45;2.35&#45;224&#45;bin&#45;&gt;mmmjp0xcmr0dm307jv1l34hvi95z6d8s&#45;glibc&#45;2.35&#45;224&#45;dev</title>
<path fill="none" stroke="green" d="M255.89,-143.7C250.03,-135.64 242.92,-125.89 236.43,-116.98"/>
<polygon fill="green" stroke="green" points="238.68,-115.13 229.96,-109.1 233.02,-119.25 238.68,-115.13"/>
</g>
</g>
</svg>
