<?xml version="1.0" encoding="UTF-8" standalone="no"?>
<!DOCTYPE svg PUBLIC "-//W3C//DTD SVG 1.1//EN"
 "http://www.w3.org/Graphics/SVG/1.1/DTD/svg11.dtd">
<!-- Generated by graphviz version 12.1.1 (0)
 -->
<!-- Title: G Pages: 1 -->
<svg width="545pt" height="116pt"
 viewBox="0.00 0.00 545.12 116.00" xmlns="http://www.w3.org/2000/svg" xmlns:xlink="http://www.w3.org/1999/xlink">
<g id="graph0" class="graph" transform="scale(1 1) rotate(0) translate(4 112)">
<title>G</title>
<polygon fill="white" stroke="none" points="-4,4 -4,-112 541.12,-112 541.12,4 -4,4"/>
<!-- 0zhkga32apid60mm7nh92z2970im5837&#45;bootstrap&#45;tools.drv -->
<g id="node1" class="node">
<title>0zhkga32apid60mm7nh92z2970im5837&#45;bootstrap&#45;tools.drv</title>
<polygon fill="lightgrey" stroke="black" points="296.12,-36 143.62,-36 143.62,0 296.12,0 296.12,-36"/>
<text text-anchor="middle" x="219.88" y="-13.32" font-family="Times,serif" font-size="14.00">bootstrap&#45;tools.drv</text>
</g>
<!-- b7irlwi2wjlx5aj1dghx4c8k3ax6m56q&#45;busybox.drv -->
<g id="node2" class="node">
<title>b7irlwi2wjlx5aj1dghx4c8k3ax6m56q&#45;busybox.drv</title>
<polygon fill="lightgrey" stroke="black" points="103.75,-108 0,-108 0,-72 103.75,-72 103.75,-108"/>
<text text-anchor="middle" x="51.88" y="-85.33" font-family="Times,serif" font-size="14.00">busybox.drv</text>
</g>
<!-- b7irlwi2wjlx5aj1dghx4c8k3ax6m56q&#45;busybox.drv&#45;&gt;0zhkga32apid60mm7nh92z2970im5837&#45;bootstrap&#45;tools.drv -->
<g id="edge1" class="edge">
<title>b7irlwi2wjlx5aj1dghx4c8k3ax6m56q&#45;busybox.drv&#45;&gt;0zhkga32apid60mm7nh92z2970im5837&#45;bootstrap&#45;tools.drv</title>
<path fill="none" stroke="black" d="M93.84,-71.52C116.17,-62.21 143.85,-50.68 167.57,-40.79"/>
<polygon fill="black" stroke="black" points="168.88,-44.04 176.76,-36.96 166.18,-37.58 168.88,-44.04"/>
</g>
<!-- bzq60ip2z5xgi7jk6jgdw8cngfiwjrcm&#45;bootstrap&#45;tools.tar.xz.drv -->
<g id="node3" class="node">
<title>bzq60ip2z5xgi7jk6jgdw8cngfiwjrcm&#45;bootstrap&#45;tools.tar.xz.drv</title>
<polygon fill="lightgrey" stroke="black" points="318.25,-108 121.5,-108 121.5,-72 318.25,-72 318.25,-108"/>
<text text-anchor="middle" x="219.88" y="-85.33" font-family="Times,serif" font-size="14.00">bootstrap&#45;tools.tar.xz.drv</text>
</g>
<!-- bzq60ip2z5xgi7jk6jgdw8cngfiwjrcm&#45;bootstrap&#45;tools.tar.xz.drv&#45;&gt;0zhkga32apid60mm7nh92z2970im5837&#45;bootstrap&#45;tools.drv -->
<g id="edge2" class="edge">
<title>bzq60ip2z5xgi7jk6jgdw8cngfiwjrcm&#45;bootstrap&#45;tools.tar.xz.drv&#45;&gt;0zhkga32apid60mm7nh92z2970im5837&#45;bootstrap&#45;tools.drv</title>
<path fill="none" stroke="red" d="M219.88,-71.7C219.88,-64.41 219.88,-55.73 219.88,-47.54"/>
<polygon fill="red" stroke="red" points="223.38,-47.62 219.88,-37.62 216.38,-47.62 223.38,-47.62"/>
</g>
<!-- wzdwpgqf2384hr2npma78mqillg5lv08&#45;unpack&#45;bootstrap&#45;tools.sh -->
<g id="node4" class="node">
<title>wzdwpgqf2384hr2npma78mqillg5lv08&#45;unpack&#45;bootstrap&#45;tools.sh</title>
<polygon fill="lightgrey" stroke="black" points="537.12,-108 336.62,-108 336.62,-72 537.12,-72 537.12,-108"/>
<text text-anchor="middle" x="436.88" y="-85.33" font-family="Times,serif" font-size="14.00">unpack&#45;bootstrap&#45;tools.sh</text>
</g>
<!-- wzdwpgqf2384hr2npma78mqillg5lv08&#45;unpack&#45;bootstrap&#45;tools.sh&#45;&gt;0zhkga32apid60mm7nh92z2970im5837&#45;bootstrap&#45;tools.drv -->
<g id="edge3" class="edge">
<title>wzdwpgqf2384hr2npma78mqillg5lv08&#45;unpack&#45;bootstrap&#45;tools.sh&#45;&gt;0zhkga32apid60mm7nh92z2970im5837&#45;bootstrap&#45;tools.drv</title>
<path fill="none" stroke="green" d="M382.68,-71.52C352.92,-61.92 315.82,-49.95 284.55,-39.86"/>
<polygon fill="green" stroke="green" points="285.79,-36.59 275.2,-36.85 283.64,-43.25 285.79,-36.59"/>
</g>
</g>
</svg>
