<?xml version="1.0" encoding="UTF-8" standalone="no"?>
<!DOCTYPE svg PUBLIC "-//W3C//DTD SVG 1.1//EN"
 "http://www.w3.org/Graphics/SVG/1.1/DTD/svg11.dtd">
<!-- Generated by graphviz version 7.1.0 (0)
 -->
<!-- Title: G Pages: 1 -->
<svg width="547pt" height="116pt"
 viewBox="0.00 0.00 546.50 116.00" xmlns="http://www.w3.org/2000/svg" xmlns:xlink="http://www.w3.org/1999/xlink">
<g id="graph0" class="graph" transform="scale(1 1) rotate(0) translate(4 112)">
<title>G</title>
<polygon fill="white" stroke="none" points="-4,4 -4,-112 542.5,-112 542.5,4 -4,4"/>
<!-- 0zhkga32apid60mm7nh92z2970im5837&#45;bootstrap&#45;tools.drv -->
<g id="node1" class="node">
<title>0zhkga32apid60mm7nh92z2970im5837&#45;bootstrap&#45;tools.drv</title>
<polygon fill="lightgrey" stroke="black" points="297.5,-36 144.5,-36 144.5,0 297.5,0 297.5,-36"/>
<text text-anchor="middle" x="221" y="-14.3" font-family="Times,serif" font-size="14.00">bootstrap&#45;tools.drv</text>
</g>
<!-- b7irlwi2wjlx5aj1dghx4c8k3ax6m56q&#45;busybox.drv -->
<g id="node2" class="node">
<title>b7irlwi2wjlx5aj1dghx4c8k3ax6m56q&#45;busybox.drv</title>
<polygon fill="lightgrey" stroke="black" points="104,-108 0,-108 0,-72 104,-72 104,-108"/>
<text text-anchor="middle" x="52" y="-86.3" font-family="Times,serif" font-size="14.00">busybox.drv</text>
</g>
<!-- b7irlwi2wjlx5aj1dghx4c8k3ax6m56q&#45;busybox.drv&#45;&gt;0zhkga32apid60mm7nh92z2970im5837&#45;bootstrap&#45;tools.drv -->
<g id="edge1" class="edge">
<title>b7irlwi2wjlx5aj1dghx4c8k3ax6m56q&#45;busybox.drv&#45;&gt;0zhkga32apid60mm7nh92z2970im5837&#45;bootstrap&#45;tools.drv</title>
<path fill="none" stroke="black" d="M94.21,-71.52C116.78,-62.17 144.77,-50.57 168.71,-40.66"/>
<polygon fill="black" stroke="black" points="169.74,-44.02 177.64,-36.96 167.06,-37.55 169.74,-44.02"/>
</g>
<!-- bzq60ip2z5xgi7jk6jgdw8cngfiwjrcm&#45;bootstrap&#45;tools.tar.xz.drv -->
<g id="node3" class="node">
<title>bzq60ip2z5xgi7jk6jgdw8cngfiwjrcm&#45;bootstrap&#45;tools.tar.xz.drv</title>
<polygon fill="lightgrey" stroke="black" points="319.5,-108 122.5,-108 122.5,-72 319.5,-72 319.5,-108"/>
<text text-anchor="middle" x="221" y="-86.3" font-family="Times,serif" font-size="14.00">bootstrap&#45;tools.tar.xz.drv</text>
</g>
<!-- bzq60ip2z5xgi7jk6jgdw8cngfiwjrcm&#45;bootstrap&#45;tools.tar.xz.drv&#45;&gt;0zhkga32apid60mm7nh92z2970im5837&#45;bootstrap&#45;tools.drv -->
<g id="edge2" class="edge">
<title>bzq60ip2z5xgi7jk6jgdw8cngfiwjrcm&#45;bootstrap&#45;tools.tar.xz.drv&#45;&gt;0zhkga32apid60mm7nh92z2970im5837&#45;bootstrap&#45;tools.drv</title>
<path fill="none" stroke="red" d="M221,-71.7C221,-64.41 221,-55.73 221,-47.54"/>
<polygon fill="red" stroke="red" points="224.5,-47.62 221,-37.62 217.5,-47.62 224.5,-47.62"/>
</g>
<!-- wzdwpgqf2384hr2npma78mqillg5lv08&#45;unpack&#45;bootstrap&#45;tools.sh -->
<g id="node4" class="node">
<title>wzdwpgqf2384hr2npma78mqillg5lv08&#45;unpack&#45;bootstrap&#45;tools.sh</title>
<polygon fill="lightgrey" stroke="black" points="538.5,-108 337.5,-108 337.5,-72 538.5,-72 538.5,-108"/>
<text text-anchor="middle" x="438" y="-86.3" font-family="Times,serif" font-size="14.00">unpack&#45;bootstrap&#45;tools.sh</text>
</g>
<!-- wzdwpgqf2384hr2npma78mqillg5lv08&#45;unpack&#45;bootstrap&#45;tools.sh&#45;&gt;0zhkga32apid60mm7nh92z2970im5837&#45;bootstrap&#45;tools.drv -->
<g id="edge3" class="edge">
<title>wzdwpgqf2384hr2npma78mqillg5lv08&#45;unpack&#45;bootstrap&#45;tools.sh&#45;&gt;0zhkga32apid60mm7nh92z2970im5837&#45;bootstrap&#45;tools.drv</title>
<path fill="none" stroke="green" d="M383.8,-71.52C354.04,-61.92 316.94,-49.95 285.68,-39.86"/>
<polygon fill="green" stroke="green" points="286.92,-36.59 276.32,-36.85 284.77,-43.25 286.92,-36.59"/>
</g>
</g>
</svg>
