<?xml version="1.0" encoding="UTF-8" standalone="no"?>
<!DOCTYPE svg PUBLIC "-//W3C//DTD SVG 1.1//EN"
 "http://www.w3.org/Graphics/SVG/1.1/DTD/svg11.dtd">
<!-- Generated by graphviz version 12.1.1 (0)
 -->
<!-- Title: G Pages: 1 -->
<svg width="1022pt" height="764pt"
 viewBox="0.00 0.00 1022.40 764.00" xmlns="http://www.w3.org/2000/svg" xmlns:xlink="http://www.w3.org/1999/xlink">
<g id="graph0" class="graph" transform="scale(1 1) rotate(0) translate(4 760)">
<title>G</title>
<polygon fill="white" stroke="none" points="-4,4 -4,-760 1018.4,-760 1018.4,4 -4,4"/>
<!-- gcc&#45;11.3.0.drv -->
<g id="node1" class="node">
<title>gcc&#45;11.3.0.drv</title>
<polygon fill="#00ff00" stroke="black" points="269.25,-324 151.25,-324 151.25,-288 269.25,-288 269.25,-324"/>
<text text-anchor="middle" x="210.25" y="-301.32" font-family="Times,serif" font-size="14.00">gcc&#45;11.3.0.drv</text>
</g>
<!-- stdenv&#45;linux.drv -->
<g id="node6" class="node">
<title>stdenv&#45;linux.drv</title>
<polygon fill="none" stroke="black" points="276.38,-36 144.12,-36 144.12,0 276.38,0 276.38,-36"/>
<text text-anchor="middle" x="210.25" y="-13.32" font-family="Times,serif" font-size="14.00">stdenv&#45;linux.drv</text>
</g>
<!-- gcc&#45;11.3.0.drv&#45;&gt;stdenv&#45;linux.drv -->
<g id="edge2" class="edge">
<title>gcc&#45;11.3.0.drv&#45;&gt;stdenv&#45;linux.drv</title>
<path fill="none" stroke="blue" d="M210.25,-287.54C210.25,-239.76 210.25,-106.51 210.25,-47.61"/>
<polygon fill="blue" stroke="blue" points="213.75,-47.75 210.25,-37.75 206.75,-47.75 213.75,-47.75"/>
</g>
<!-- bootstrap&#45;stage4&#45;gcc&#45;wrapper&#45;11.3.0.drv -->
<g id="node15" class="node">
<title>bootstrap&#45;stage4&#45;gcc&#45;wrapper&#45;11.3.0.drv</title>
<polygon fill="none" stroke="black" points="546.5,-252 238,-252 238,-216 546.5,-216 546.5,-252"/>
<text text-anchor="middle" x="392.25" y="-229.32" font-family="Times,serif" font-size="14.00">bootstrap&#45;stage4&#45;gcc&#45;wrapper&#45;11.3.0.drv</text>
</g>
<!-- gcc&#45;11.3.0.drv&#45;&gt;bootstrap&#45;stage4&#45;gcc&#45;wrapper&#45;11.3.0.drv -->
<g id="edge27" class="edge">
<title>gcc&#45;11.3.0.drv&#45;&gt;bootstrap&#45;stage4&#45;gcc&#45;wrapper&#45;11.3.0.drv</title>
<path fill="none" stroke="magenta" d="M255.71,-287.52C280.23,-278.08 310.7,-266.37 336.63,-256.39"/>
<polygon fill="magenta" stroke="magenta" points="337.57,-259.78 345.64,-252.93 335.05,-253.25 337.57,-259.78"/>
</g>
<!-- bootstrap&#45;tools.drv -->
<g id="node2" class="node">
<title>bootstrap&#45;tools.drv</title>
<polygon fill="#ffff00" stroke="black" points="386.5,-756 234,-756 234,-720 386.5,-720 386.5,-756"/>
<text text-anchor="middle" x="310.25" y="-733.33" font-family="Times,serif" font-size="14.00">bootstrap&#45;tools.drv</text>
</g>
<!-- bootstrap&#45;tools.drv&#45;&gt;gcc&#45;11.3.0.drv -->
<g id="edge10" class="edge">
<title>bootstrap&#45;tools.drv&#45;&gt;gcc&#45;11.3.0.drv</title>
<path fill="none" stroke="red" d="M233.76,-721.82C168.53,-703.91 85.25,-666.94 85.25,-595 85.25,-595 85.25,-595 85.25,-449 85.25,-396.99 133.08,-354.99 169.56,-330.52"/>
<polygon fill="red" stroke="red" points="171.27,-333.58 177.76,-325.21 167.46,-327.71 171.27,-333.58"/>
</g>
<!-- glibc&#45;2.35&#45;224.drv -->
<g id="node4" class="node">
<title>glibc&#45;2.35&#45;224.drv</title>
<polygon fill="#ff0000" stroke="black" points="560.5,-540 414,-540 414,-504 560.5,-504 560.5,-540"/>
<text text-anchor="middle" x="487.25" y="-517.33" font-family="Times,serif" font-size="14.00">glibc&#45;2.35&#45;224.drv</text>
</g>
<!-- bootstrap&#45;tools.drv&#45;&gt;glibc&#45;2.35&#45;224.drv -->
<g id="edge14" class="edge">
<title>bootstrap&#45;tools.drv&#45;&gt;glibc&#45;2.35&#45;224.drv</title>
<path fill="none" stroke="burlywood" d="M322.58,-719.5C344.12,-689.3 390.47,-625.83 434.25,-576 442.58,-566.52 452.21,-556.61 460.95,-547.96"/>
<polygon fill="burlywood" stroke="burlywood" points="463.2,-550.66 467.91,-541.17 458.31,-545.65 463.2,-550.66"/>
</g>
<!-- gcc&#45;wrapper&#45;11.3.0.drv -->
<g id="node5" class="node">
<title>gcc&#45;wrapper&#45;11.3.0.drv</title>
<polygon fill="none" stroke="black" points="182.5,-108 0,-108 0,-72 182.5,-72 182.5,-108"/>
<text text-anchor="middle" x="91.25" y="-85.33" font-family="Times,serif" font-size="14.00">gcc&#45;wrapper&#45;11.3.0.drv</text>
</g>
<!-- bootstrap&#45;tools.drv&#45;&gt;gcc&#45;wrapper&#45;11.3.0.drv -->
<g id="edge4" class="edge">
<title>bootstrap&#45;tools.drv&#45;&gt;gcc&#45;wrapper&#45;11.3.0.drv</title>
<path fill="none" stroke="red" d="M233.69,-732C190.93,-725.91 138.69,-712.65 100.25,-684 63.34,-656.49 47.25,-641.04 47.25,-595 47.25,-595 47.25,-595 47.25,-233 47.25,-191.76 64.39,-146.68 77.28,-118.62"/>
<polygon fill="red" stroke="red" points="80.36,-120.3 81.48,-109.76 74.03,-117.29 80.36,-120.3"/>
</g>
<!-- bootstrap&#45;stage3&#45;gcc&#45;wrapper&#45;.drv -->
<g id="node8" class="node">
<title>bootstrap&#45;stage3&#45;gcc&#45;wrapper&#45;.drv</title>
<polygon fill="none" stroke="black" points="409,-468 145.5,-468 145.5,-432 409,-432 409,-468"/>
<text text-anchor="middle" x="277.25" y="-445.32" font-family="Times,serif" font-size="14.00">bootstrap&#45;stage3&#45;gcc&#45;wrapper&#45;.drv</text>
</g>
<!-- bootstrap&#45;tools.drv&#45;&gt;bootstrap&#45;stage3&#45;gcc&#45;wrapper&#45;.drv -->
<g id="edge17" class="edge">
<title>bootstrap&#45;tools.drv&#45;&gt;bootstrap&#45;stage3&#45;gcc&#45;wrapper&#45;.drv</title>
<path fill="none" stroke="black" d="M304.79,-719.5C301.81,-709.26 298.31,-696.01 296.25,-684 283.74,-611.05 279.41,-523.8 277.96,-479.64"/>
<polygon fill="black" stroke="black" points="281.46,-479.78 277.66,-469.89 274.47,-479.99 281.46,-479.78"/>
</g>
<!-- bootstrap&#45;stage2&#45;gcc&#45;wrapper&#45;.drv -->
<g id="node10" class="node">
<title>bootstrap&#45;stage2&#45;gcc&#45;wrapper&#45;.drv</title>
<polygon fill="none" stroke="black" points="691,-684 427.5,-684 427.5,-648 691,-648 691,-684"/>
<text text-anchor="middle" x="559.25" y="-661.33" font-family="Times,serif" font-size="14.00">bootstrap&#45;stage2&#45;gcc&#45;wrapper&#45;.drv</text>
</g>
<!-- bootstrap&#45;tools.drv&#45;&gt;bootstrap&#45;stage2&#45;gcc&#45;wrapper&#45;.drv -->
<g id="edge7" class="edge">
<title>bootstrap&#45;tools.drv&#45;&gt;bootstrap&#45;stage2&#45;gcc&#45;wrapper&#45;.drv</title>
<path fill="none" stroke="burlywood" d="M372.44,-719.52C407.03,-709.79 450.28,-697.64 486.44,-687.47"/>
<polygon fill="burlywood" stroke="burlywood" points="487.28,-690.87 495.96,-684.79 485.39,-684.13 487.28,-690.87"/>
</g>
<!-- bootstrap&#45;stage1&#45;gcc&#45;wrapper&#45;.drv -->
<g id="node13" class="node">
<title>bootstrap&#45;stage1&#45;gcc&#45;wrapper&#45;.drv</title>
<polygon fill="none" stroke="black" points="975,-684 711.5,-684 711.5,-648 975,-648 975,-684"/>
<text text-anchor="middle" x="843.25" y="-661.33" font-family="Times,serif" font-size="14.00">bootstrap&#45;stage1&#45;gcc&#45;wrapper&#45;.drv</text>
</g>
<!-- bootstrap&#45;tools.drv&#45;&gt;bootstrap&#45;stage1&#45;gcc&#45;wrapper&#45;.drv -->
<g id="edge21" class="edge">
<title>bootstrap&#45;tools.drv&#45;&gt;bootstrap&#45;stage1&#45;gcc&#45;wrapper&#45;.drv</title>
<path fill="none" stroke="magenta" d="M386.94,-724.98C398.43,-723.26 410.15,-721.55 421.25,-720 473.59,-712.71 599.32,-697 700.02,-684.57"/>
<polygon fill="magenta" stroke="magenta" points="700.23,-688.07 709.73,-683.37 699.38,-681.12 700.23,-688.07"/>
</g>
<!-- bootstrap&#45;tools.drv&#45;&gt;bootstrap&#45;stage4&#45;gcc&#45;wrapper&#45;11.3.0.drv -->
<g id="edge26" class="edge">
<title>bootstrap&#45;tools.drv&#45;&gt;bootstrap&#45;stage4&#45;gcc&#45;wrapper&#45;11.3.0.drv</title>
<path fill="none" stroke="black" d="M317.29,-719.59C341.16,-660.55 417.61,-471.34 418.25,-468 432.36,-394.97 413.08,-307.47 400.89,-263.38"/>
<polygon fill="black" stroke="black" points="404.27,-262.5 398.16,-253.84 397.54,-264.42 404.27,-262.5"/>
</g>
<!-- bootstrap&#45;stage0&#45;glibc&#45;bootstrap.drv -->
<g id="node3" class="node">
<title>bootstrap&#45;stage0&#45;glibc&#45;bootstrap.drv</title>
<polygon fill="#ffff00" stroke="black" points="984.5,-756 706,-756 706,-720 984.5,-720 984.5,-756"/>
<text text-anchor="middle" x="845.25" y="-733.33" font-family="Times,serif" font-size="14.00">bootstrap&#45;stage0&#45;glibc&#45;bootstrap.drv</text>
</g>
<!-- bootstrap&#45;stage0&#45;glibc&#45;bootstrap.drv&#45;&gt;glibc&#45;2.35&#45;224.drv -->
<g id="edge16" class="edge">
<title>bootstrap&#45;stage0&#45;glibc&#45;bootstrap.drv&#45;&gt;glibc&#45;2.35&#45;224.drv</title>
<path fill="none" stroke="magenta" d="M932.53,-719.53C952.14,-711.7 971.03,-700.38 984.25,-684 1014.55,-646.45 1027.55,-611.84 995.25,-576 967.5,-545.2 709.25,-531.12 572.04,-525.76"/>
<polygon fill="magenta" stroke="magenta" points="572.4,-522.28 562.27,-525.39 572.13,-529.27 572.4,-522.28"/>
</g>
<!-- bootstrap&#45;stage0&#45;glibc&#45;bootstrap.drv&#45;&gt;bootstrap&#45;stage2&#45;gcc&#45;wrapper&#45;.drv -->
<g id="edge9" class="edge">
<title>bootstrap&#45;stage0&#45;glibc&#45;bootstrap.drv&#45;&gt;bootstrap&#45;stage2&#45;gcc&#45;wrapper&#45;.drv</title>
<path fill="none" stroke="magenta" d="M773.82,-719.52C733.57,-709.67 683.13,-697.32 641.27,-687.07"/>
<polygon fill="magenta" stroke="magenta" points="642.28,-683.72 631.74,-684.74 640.62,-690.52 642.28,-683.72"/>
</g>
<!-- bootstrap&#45;stage0&#45;glibc&#45;bootstrap.drv&#45;&gt;bootstrap&#45;stage1&#45;gcc&#45;wrapper&#45;.drv -->
<g id="edge23" class="edge">
<title>bootstrap&#45;stage0&#45;glibc&#45;bootstrap.drv&#45;&gt;bootstrap&#45;stage1&#45;gcc&#45;wrapper&#45;.drv</title>
<path fill="none" stroke="green" d="M844.76,-719.7C844.55,-712.41 844.3,-703.73 844.07,-695.54"/>
<polygon fill="green" stroke="green" points="847.57,-695.51 843.78,-685.62 840.57,-695.71 847.57,-695.51"/>
</g>
<!-- glibc&#45;2.35&#45;224.drv&#45;&gt;stdenv&#45;linux.drv -->
<g id="edge3" class="edge">
<title>glibc&#45;2.35&#45;224.drv&#45;&gt;stdenv&#45;linux.drv</title>
<path fill="none" stroke="black" d="M506.56,-503.82C532.19,-479.01 574.25,-430.46 574.25,-379 574.25,-379 574.25,-379 574.25,-161 574.25,-99.99 394.53,-54.61 287.65,-33.01"/>
<polygon fill="black" stroke="black" points="288.57,-29.63 278.07,-31.11 287.2,-36.49 288.57,-29.63"/>
</g>
<!-- glibc&#45;2.35&#45;224.drv&#45;&gt;bootstrap&#45;stage3&#45;gcc&#45;wrapper&#45;.drv -->
<g id="edge18" class="edge">
<title>glibc&#45;2.35&#45;224.drv&#45;&gt;bootstrap&#45;stage3&#45;gcc&#45;wrapper&#45;.drv</title>
<path fill="none" stroke="red" d="M434.8,-503.52C406.13,-493.96 370.41,-482.05 340.24,-472"/>
<polygon fill="red" stroke="red" points="341.42,-468.7 330.83,-468.86 339.21,-475.34 341.42,-468.7"/>
</g>
<!-- glibc&#45;2.35&#45;224.drv&#45;&gt;bootstrap&#45;stage4&#45;gcc&#45;wrapper&#45;11.3.0.drv -->
<g id="edge28" class="edge">
<title>glibc&#45;2.35&#45;224.drv&#45;&gt;bootstrap&#45;stage4&#45;gcc&#45;wrapper&#45;11.3.0.drv</title>
<path fill="none" stroke="red" d="M488.39,-503.68C490.27,-463.24 490.51,-360.53 451.25,-288 445.44,-277.26 436.58,-267.61 427.47,-259.57"/>
<polygon fill="red" stroke="red" points="429.87,-257.01 419.93,-253.34 425.41,-262.41 429.87,-257.01"/>
</g>
<!-- gcc&#45;wrapper&#45;11.3.0.drv&#45;&gt;stdenv&#45;linux.drv -->
<g id="edge1" class="edge">
<title>gcc&#45;wrapper&#45;11.3.0.drv&#45;&gt;stdenv&#45;linux.drv</title>
<path fill="none" stroke="red" d="M120.97,-71.52C136.14,-62.6 154.78,-51.63 171.1,-42.03"/>
<polygon fill="red" stroke="red" points="172.76,-45.11 179.6,-37.03 169.21,-39.08 172.76,-45.11"/>
</g>
<!-- bootstrap&#45;stage4&#45;stdenv&#45;linux.drv -->
<g id="node7" class="node">
<title>bootstrap&#45;stage4&#45;stdenv&#45;linux.drv</title>
<polygon fill="none" stroke="black" points="509.38,-180 251.12,-180 251.12,-144 509.38,-144 509.38,-180"/>
<text text-anchor="middle" x="380.25" y="-157.32" font-family="Times,serif" font-size="14.00">bootstrap&#45;stage4&#45;stdenv&#45;linux.drv</text>
</g>
<!-- bootstrap&#45;stage4&#45;stdenv&#45;linux.drv&#45;&gt;gcc&#45;wrapper&#45;11.3.0.drv -->
<g id="edge5" class="edge">
<title>bootstrap&#45;stage4&#45;stdenv&#45;linux.drv&#45;&gt;gcc&#45;wrapper&#45;11.3.0.drv</title>
<path fill="none" stroke="blue" d="M308.07,-143.52C267.48,-133.68 216.62,-121.37 174.37,-111.13"/>
<polygon fill="blue" stroke="blue" points="175.28,-107.75 164.73,-108.8 173.63,-114.55 175.28,-107.75"/>
</g>
<!-- bootstrap&#45;stage3&#45;gcc&#45;wrapper&#45;.drv&#45;&gt;gcc&#45;11.3.0.drv -->
<g id="edge12" class="edge">
<title>bootstrap&#45;stage3&#45;gcc&#45;wrapper&#45;.drv&#45;&gt;gcc&#45;11.3.0.drv</title>
<path fill="none" stroke="burlywood" d="M188.95,-431.6C170.6,-423.77 153.45,-412.44 142.25,-396 133.24,-382.78 135.23,-374.38 142.25,-360 147.83,-348.57 157.2,-338.89 167.23,-331.05"/>
<polygon fill="burlywood" stroke="burlywood" points="169.22,-333.93 175.3,-325.26 165.14,-328.25 169.22,-333.93"/>
</g>
<!-- bootstrap&#45;stage3&#45;stdenv&#45;linux.drv -->
<g id="node9" class="node">
<title>bootstrap&#45;stage3&#45;stdenv&#45;linux.drv</title>
<polygon fill="none" stroke="black" points="409.38,-396 151.12,-396 151.12,-360 409.38,-360 409.38,-396"/>
<text text-anchor="middle" x="280.25" y="-373.32" font-family="Times,serif" font-size="14.00">bootstrap&#45;stage3&#45;stdenv&#45;linux.drv</text>
</g>
<!-- bootstrap&#45;stage3&#45;gcc&#45;wrapper&#45;.drv&#45;&gt;bootstrap&#45;stage3&#45;stdenv&#45;linux.drv -->
<g id="edge6" class="edge">
<title>bootstrap&#45;stage3&#45;gcc&#45;wrapper&#45;.drv&#45;&gt;bootstrap&#45;stage3&#45;stdenv&#45;linux.drv</title>
<path fill="none" stroke="blue" d="M277.99,-431.7C278.3,-424.41 278.68,-415.73 279.03,-407.54"/>
<polygon fill="blue" stroke="blue" points="282.52,-407.76 279.45,-397.62 275.53,-407.46 282.52,-407.76"/>
</g>
<!-- bootstrap&#45;stage3&#45;stdenv&#45;linux.drv&#45;&gt;gcc&#45;11.3.0.drv -->
<g id="edge11" class="edge">
<title>bootstrap&#45;stage3&#45;stdenv&#45;linux.drv&#45;&gt;gcc&#45;11.3.0.drv</title>
<path fill="none" stroke="magenta" d="M262.95,-359.7C254.64,-351.39 244.53,-341.28 235.39,-332.14"/>
<polygon fill="magenta" stroke="magenta" points="237.97,-329.77 228.42,-325.17 233.02,-334.72 237.97,-329.77"/>
</g>
<!-- bootstrap&#45;stage2&#45;gcc&#45;wrapper&#45;.drv&#45;&gt;glibc&#45;2.35&#45;224.drv -->
<g id="edge13" class="edge">
<title>bootstrap&#45;stage2&#45;gcc&#45;wrapper&#45;.drv&#45;&gt;glibc&#45;2.35&#45;224.drv</title>
<path fill="none" stroke="magenta" d="M488.25,-647.53C470.59,-639.65 453.72,-628.3 443.25,-612 430.2,-591.69 444.6,-566.96 460.33,-548.72"/>
<polygon fill="magenta" stroke="magenta" points="462.82,-551.19 467.01,-541.46 457.66,-546.45 462.82,-551.19"/>
</g>
<!-- bootstrap&#45;stage2&#45;stdenv&#45;linux.drv -->
<g id="node12" class="node">
<title>bootstrap&#45;stage2&#45;stdenv&#45;linux.drv</title>
<polygon fill="none" stroke="black" points="710.38,-612 452.12,-612 452.12,-576 710.38,-576 710.38,-612"/>
<text text-anchor="middle" x="581.25" y="-589.33" font-family="Times,serif" font-size="14.00">bootstrap&#45;stage2&#45;stdenv&#45;linux.drv</text>
</g>
<!-- bootstrap&#45;stage2&#45;gcc&#45;wrapper&#45;.drv&#45;&gt;bootstrap&#45;stage2&#45;stdenv&#45;linux.drv -->
<g id="edge20" class="edge">
<title>bootstrap&#45;stage2&#45;gcc&#45;wrapper&#45;.drv&#45;&gt;bootstrap&#45;stage2&#45;stdenv&#45;linux.drv</title>
<path fill="none" stroke="burlywood" d="M564.69,-647.7C567.03,-640.24 569.83,-631.32 572.46,-622.97"/>
<polygon fill="burlywood" stroke="burlywood" points="575.76,-624.14 575.42,-613.55 569.08,-622.04 575.76,-624.14"/>
</g>
<!-- bootstrap&#45;stage0&#45;stdenv&#45;linux.drv -->
<g id="node11" class="node">
<title>bootstrap&#45;stage0&#45;stdenv&#45;linux.drv</title>
<polygon fill="none" stroke="black" points="688.38,-756 430.12,-756 430.12,-720 688.38,-720 688.38,-756"/>
<text text-anchor="middle" x="559.25" y="-733.33" font-family="Times,serif" font-size="14.00">bootstrap&#45;stage0&#45;stdenv&#45;linux.drv</text>
</g>
<!-- bootstrap&#45;stage0&#45;stdenv&#45;linux.drv&#45;&gt;bootstrap&#45;stage3&#45;gcc&#45;wrapper&#45;.drv -->
<g id="edge19" class="edge">
<title>bootstrap&#45;stage0&#45;stdenv&#45;linux.drv&#45;&gt;bootstrap&#45;stage3&#45;gcc&#45;wrapper&#45;.drv</title>
<path fill="none" stroke="burlywood" d="M485.5,-719.57C462.22,-711.5 437.56,-700.04 418.25,-684 349.56,-626.95 305.48,-527.26 287.08,-478.9"/>
<polygon fill="burlywood" stroke="burlywood" points="290.44,-477.89 283.68,-469.73 283.88,-480.32 290.44,-477.89"/>
</g>
<!-- bootstrap&#45;stage0&#45;stdenv&#45;linux.drv&#45;&gt;bootstrap&#45;stage2&#45;gcc&#45;wrapper&#45;.drv -->
<g id="edge8" class="edge">
<title>bootstrap&#45;stage0&#45;stdenv&#45;linux.drv&#45;&gt;bootstrap&#45;stage2&#45;gcc&#45;wrapper&#45;.drv</title>
<path fill="none" stroke="green" d="M559.25,-719.7C559.25,-712.41 559.25,-703.73 559.25,-695.54"/>
<polygon fill="green" stroke="green" points="562.75,-695.62 559.25,-685.62 555.75,-695.62 562.75,-695.62"/>
</g>
<!-- bootstrap&#45;stage0&#45;stdenv&#45;linux.drv&#45;&gt;bootstrap&#45;stage1&#45;gcc&#45;wrapper&#45;.drv -->
<g id="edge22" class="edge">
<title>bootstrap&#45;stage0&#45;stdenv&#45;linux.drv&#45;&gt;bootstrap&#45;stage1&#45;gcc&#45;wrapper&#45;.drv</title>
<path fill="none" stroke="red" d="M630.18,-719.52C670.15,-709.67 720.24,-697.32 761.8,-687.07"/>
<polygon fill="red" stroke="red" points="762.39,-690.54 771.26,-684.74 760.71,-683.74 762.39,-690.54"/>
</g>
<!-- bootstrap&#45;stage0&#45;stdenv&#45;linux.drv&#45;&gt;bootstrap&#45;stage4&#45;gcc&#45;wrapper&#45;11.3.0.drv -->
<g id="edge29" class="edge">
<title>bootstrap&#45;stage0&#45;stdenv&#45;linux.drv&#45;&gt;bootstrap&#45;stage4&#45;gcc&#45;wrapper&#45;11.3.0.drv</title>
<path fill="none" stroke="black" d="M688.64,-720.97C813.53,-705.48 983.89,-684.3 984.25,-684 1016.58,-657.59 1014.25,-636.74 1014.25,-595 1014.25,-595 1014.25,-595 1014.25,-377 1014.25,-283.29 742.51,-251.42 558.26,-240.58"/>
<polygon fill="black" stroke="black" points="558.5,-237.09 548.31,-240.02 558.1,-244.08 558.5,-237.09"/>
</g>
<!-- bootstrap&#45;stage2&#45;stdenv&#45;linux.drv&#45;&gt;glibc&#45;2.35&#45;224.drv -->
<g id="edge15" class="edge">
<title>bootstrap&#45;stage2&#45;stdenv&#45;linux.drv&#45;&gt;glibc&#45;2.35&#45;224.drv</title>
<path fill="none" stroke="black" d="M558.01,-575.7C546.38,-567.03 532.1,-556.4 519.43,-546.96"/>
<polygon fill="black" stroke="black" points="521.87,-544.42 511.76,-541.25 517.69,-550.03 521.87,-544.42"/>
</g>
<!-- bootstrap&#45;stage1&#45;stdenv&#45;linux.drv -->
<g id="node14" class="node">
<title>bootstrap&#45;stage1&#45;stdenv&#45;linux.drv</title>
<polygon fill="none" stroke="black" points="986.38,-612 728.12,-612 728.12,-576 986.38,-576 986.38,-612"/>
<text text-anchor="middle" x="857.25" y="-589.33" font-family="Times,serif" font-size="14.00">bootstrap&#45;stage1&#45;stdenv&#45;linux.drv</text>
</g>
<!-- bootstrap&#45;stage1&#45;gcc&#45;wrapper&#45;.drv&#45;&gt;bootstrap&#45;stage1&#45;stdenv&#45;linux.drv -->
<g id="edge24" class="edge">
<title>bootstrap&#45;stage1&#45;gcc&#45;wrapper&#45;.drv&#45;&gt;bootstrap&#45;stage1&#45;stdenv&#45;linux.drv</title>
<path fill="none" stroke="burlywood" d="M846.71,-647.7C848.19,-640.32 849.95,-631.52 851.6,-623.25"/>
<polygon fill="burlywood" stroke="burlywood" points="855,-624.08 853.53,-613.59 848.14,-622.71 855,-624.08"/>
</g>
<!-- bootstrap&#45;stage4&#45;gcc&#45;wrapper&#45;11.3.0.drv&#45;&gt;bootstrap&#45;stage4&#45;stdenv&#45;linux.drv -->
<g id="edge25" class="edge">
<title>bootstrap&#45;stage4&#45;gcc&#45;wrapper&#45;11.3.0.drv&#45;&gt;bootstrap&#45;stage4&#45;stdenv&#45;linux.drv</title>
<path fill="none" stroke="blue" d="M389.28,-215.7C388.02,-208.32 386.51,-199.52 385.09,-191.25"/>
<polygon fill="blue" stroke="blue" points="388.58,-190.86 383.44,-181.6 381.68,-192.04 388.58,-190.86"/>
</g>
</g>
</svg>
