<?xml version="1.0" encoding="UTF-8" standalone="no"?>
<!DOCTYPE svg PUBLIC "-//W3C//DTD SVG 1.1//EN"
 "http://www.w3.org/Graphics/SVG/1.1/DTD/svg11.dtd">
<!-- Generated by graphviz version 8.0.5 (0)
 -->
<!-- Title: G Pages: 1 -->
<svg width="1022pt" height="764pt"
 viewBox="0.00 0.00 1022.40 764.00" xmlns="http://www.w3.org/2000/svg" xmlns:xlink="http://www.w3.org/1999/xlink">
<g id="graph0" class="graph" transform="scale(1 1) rotate(0) translate(4 760)">
<title>G</title>
<polygon fill="white" stroke="none" points="-4,4 -4,-760 1018.4,-760 1018.4,4 -4,4"/>
<!-- gcc&#45;11.3.0.drv -->
<g id="node1" class="node">
<title>gcc&#45;11.3.0.drv</title>
<polygon fill="#00ff00" stroke="black" points="269.25,-324 151.25,-324 151.25,-288 269.25,-288 269.25,-324"/>
<text text-anchor="middle" x="210.25" y="-301.32" font-family="Times,serif" font-size="14.00">gcc&#45;11.3.0.drv</text>
</g>
<!-- stdenv&#45;linux.drv -->
<g id="node6" class="node">
<title>stdenv&#45;linux.drv</title>
<polygon fill="none" stroke="black" points="276.38,-36 144.12,-36 144.12,0 276.38,0 276.38,-36"/>
<text text-anchor="middle" x="210.25" y="-13.32" font-family="Times,serif" font-size="14.00">stdenv&#45;linux.drv</text>
</g>
<!-- gcc&#45;11.3.0.drv&#45;&gt;stdenv&#45;linux.drv -->
<g id="edge2" class="edge">
<title>gcc&#45;11.3.0.drv&#45;&gt;stdenv&#45;linux.drv</title>
<path fill="none" stroke="blue" d="M210.25,-287.54C210.25,-239.56 210.25,-105.39 210.25,-46.88"/>
<polygon fill="blue" stroke="blue" points="213.75,-47.23 210.25,-37.23 206.75,-47.23 213.75,-47.23"/>
</g>
<!-- bootstrap&#45;stage4&#45;gcc&#45;wrapper&#45;11.3.0.drv -->
<g id="node15" class="node">
<title>bootstrap&#45;stage4&#45;gcc&#45;wrapper&#45;11.3.0.drv</title>
<polygon fill="none" stroke="black" points="546.5,-252 238,-252 238,-216 546.5,-216 546.5,-252"/>
<text text-anchor="middle" x="392.25" y="-229.32" font-family="Times,serif" font-size="14.00">bootstrap&#45;stage4&#45;gcc&#45;wrapper&#45;11.3.0.drv</text>
</g>
<!-- gcc&#45;11.3.0.drv&#45;&gt;bootstrap&#45;stage4&#45;gcc&#45;wrapper&#45;11.3.0.drv -->
<g id="edge27" class="edge">
<title>gcc&#45;11.3.0.drv&#45;&gt;bootstrap&#45;stage4&#45;gcc&#45;wrapper&#45;11.3.0.drv</title>
<path fill="none" stroke="magenta" d="M255.71,-287.52C280.34,-278.04 310.97,-266.26 336.97,-256.26"/>
<polygon fill="magenta" stroke="magenta" points="337.98,-259.24 346.06,-252.38 335.47,-252.7 337.98,-259.24"/>
</g>
<!-- bootstrap&#45;tools.drv -->
<g id="node2" class="node">
<title>bootstrap&#45;tools.drv</title>
<polygon fill="#ffff00" stroke="black" points="386.5,-756 234,-756 234,-720 386.5,-720 386.5,-756"/>
<text text-anchor="middle" x="310.25" y="-733.33" font-family="Times,serif" font-size="14.00">bootstrap&#45;tools.drv</text>
</g>
<!-- bootstrap&#45;tools.drv&#45;&gt;gcc&#45;11.3.0.drv -->
<g id="edge10" class="edge">
<title>bootstrap&#45;tools.drv&#45;&gt;gcc&#45;11.3.0.drv</title>
<path fill="none" stroke="red" d="M233.76,-721.82C168.53,-703.91 85.25,-666.94 85.25,-595 85.25,-595 85.25,-595 85.25,-449 85.25,-396.77 133.48,-354.64 170.03,-330.21"/>
<polygon fill="red" stroke="red" points="171.53,-332.75 178.03,-324.38 167.73,-326.88 171.53,-332.75"/>
</g>
<!-- glibc&#45;2.35&#45;224.drv -->
<g id="node4" class="node">
<title>glibc&#45;2.35&#45;224.drv</title>
<polygon fill="#ff0000" stroke="black" points="560.5,-540 414,-540 414,-504 560.5,-504 560.5,-540"/>
<text text-anchor="middle" x="487.25" y="-517.33" font-family="Times,serif" font-size="14.00">glibc&#45;2.35&#45;224.drv</text>
</g>
<!-- bootstrap&#45;tools.drv&#45;&gt;glibc&#45;2.35&#45;224.drv -->
<g id="edge14" class="edge">
<title>bootstrap&#45;tools.drv&#45;&gt;glibc&#45;2.35&#45;224.drv</title>
<path fill="none" stroke="burlywood" d="M322.58,-719.5C344.12,-689.3 390.47,-625.83 434.25,-576 442.67,-566.42 452.41,-556.41 461.22,-547.7"/>
<polygon fill="burlywood" stroke="burlywood" points="463.28,-550.6 468,-541.12 458.39,-545.59 463.28,-550.6"/>
</g>
<!-- gcc&#45;wrapper&#45;11.3.0.drv -->
<g id="node5" class="node">
<title>gcc&#45;wrapper&#45;11.3.0.drv</title>
<polygon fill="none" stroke="black" points="182.5,-108 0,-108 0,-72 182.5,-72 182.5,-108"/>
<text text-anchor="middle" x="91.25" y="-85.33" font-family="Times,serif" font-size="14.00">gcc&#45;wrapper&#45;11.3.0.drv</text>
</g>
<!-- bootstrap&#45;tools.drv&#45;&gt;gcc&#45;wrapper&#45;11.3.0.drv -->
<g id="edge4" class="edge">
<title>bootstrap&#45;tools.drv&#45;&gt;gcc&#45;wrapper&#45;11.3.0.drv</title>
<path fill="none" stroke="red" d="M233.64,-731.73C191.21,-725.54 139.47,-712.27 101.25,-684 64.05,-656.48 47.25,-641.27 47.25,-595 47.25,-595 47.25,-595 47.25,-233 47.25,-191.58 64.54,-146.28 77.45,-118.25"/>
<polygon fill="red" stroke="red" points="81,-119.93 82.13,-109.39 74.68,-116.92 81,-119.93"/>
</g>
<!-- bootstrap&#45;stage3&#45;gcc&#45;wrapper&#45;.drv -->
<g id="node8" class="node">
<title>bootstrap&#45;stage3&#45;gcc&#45;wrapper&#45;.drv</title>
<polygon fill="none" stroke="black" points="409,-468 145.5,-468 145.5,-432 409,-432 409,-468"/>
<text text-anchor="middle" x="277.25" y="-445.32" font-family="Times,serif" font-size="14.00">bootstrap&#45;stage3&#45;gcc&#45;wrapper&#45;.drv</text>
</g>
<!-- bootstrap&#45;tools.drv&#45;&gt;bootstrap&#45;stage3&#45;gcc&#45;wrapper&#45;.drv -->
<g id="edge17" class="edge">
<title>bootstrap&#45;tools.drv&#45;&gt;bootstrap&#45;stage3&#45;gcc&#45;wrapper&#45;.drv</title>
<path fill="none" stroke="black" d="M304.79,-719.5C301.81,-709.26 298.31,-696.01 296.25,-684 283.72,-610.9 279.39,-523.43 277.95,-479.36"/>
<polygon fill="black" stroke="black" points="281.42,-479.27 277.62,-469.38 274.42,-479.48 281.42,-479.27"/>
</g>
<!-- bootstrap&#45;stage2&#45;gcc&#45;wrapper&#45;.drv -->
<g id="node10" class="node">
<title>bootstrap&#45;stage2&#45;gcc&#45;wrapper&#45;.drv</title>
<polygon fill="none" stroke="black" points="691,-684 427.5,-684 427.5,-648 691,-648 691,-684"/>
<text text-anchor="middle" x="559.25" y="-661.33" font-family="Times,serif" font-size="14.00">bootstrap&#45;stage2&#45;gcc&#45;wrapper&#45;.drv</text>
</g>
<!-- bootstrap&#45;tools.drv&#45;&gt;bootstrap&#45;stage2&#45;gcc&#45;wrapper&#45;.drv -->
<g id="edge7" class="edge">
<title>bootstrap&#45;tools.drv&#45;&gt;bootstrap&#45;stage2&#45;gcc&#45;wrapper&#45;.drv</title>
<path fill="none" stroke="burlywood" d="M372.44,-719.52C407.18,-709.75 450.65,-697.53 486.91,-687.34"/>
<polygon fill="burlywood" stroke="burlywood" points="487.74,-690.46 496.42,-684.38 485.85,-683.72 487.74,-690.46"/>
</g>
<!-- bootstrap&#45;stage1&#45;gcc&#45;wrapper&#45;.drv -->
<g id="node13" class="node">
<title>bootstrap&#45;stage1&#45;gcc&#45;wrapper&#45;.drv</title>
<polygon fill="none" stroke="black" points="975,-684 711.5,-684 711.5,-648 975,-648 975,-684"/>
<text text-anchor="middle" x="843.25" y="-661.33" font-family="Times,serif" font-size="14.00">bootstrap&#45;stage1&#45;gcc&#45;wrapper&#45;.drv</text>
</g>
<!-- bootstrap&#45;tools.drv&#45;&gt;bootstrap&#45;stage1&#45;gcc&#45;wrapper&#45;.drv -->
<g id="edge21" class="edge">
<title>bootstrap&#45;tools.drv&#45;&gt;bootstrap&#45;stage1&#45;gcc&#45;wrapper&#45;.drv</title>
<path fill="none" stroke="magenta" d="M386.94,-724.98C398.43,-723.26 410.15,-721.55 421.25,-720 473.64,-712.7 599.58,-696.97 700.32,-684.53"/>
<polygon fill="magenta" stroke="magenta" points="700.74,-687.88 710.23,-683.19 699.88,-680.94 700.74,-687.88"/>
</g>
<!-- bootstrap&#45;tools.drv&#45;&gt;bootstrap&#45;stage4&#45;gcc&#45;wrapper&#45;11.3.0.drv -->
<g id="edge26" class="edge">
<title>bootstrap&#45;tools.drv&#45;&gt;bootstrap&#45;stage4&#45;gcc&#45;wrapper&#45;11.3.0.drv</title>
<path fill="none" stroke="black" d="M317.29,-719.59C341.16,-660.55 417.61,-471.34 418.25,-468 432.42,-394.66 412.91,-306.73 400.73,-262.82"/>
<polygon fill="black" stroke="black" points="403.86,-262.04 397.74,-253.39 397.13,-263.97 403.86,-262.04"/>
</g>
<!-- bootstrap&#45;stage0&#45;glibc&#45;bootstrap.drv -->
<g id="node3" class="node">
<title>bootstrap&#45;stage0&#45;glibc&#45;bootstrap.drv</title>
<polygon fill="#ffff00" stroke="black" points="984.5,-756 706,-756 706,-720 984.5,-720 984.5,-756"/>
<text text-anchor="middle" x="845.25" y="-733.33" font-family="Times,serif" font-size="14.00">bootstrap&#45;stage0&#45;glibc&#45;bootstrap.drv</text>
</g>
<!-- bootstrap&#45;stage0&#45;glibc&#45;bootstrap.drv&#45;&gt;glibc&#45;2.35&#45;224.drv -->
<g id="edge16" class="edge">
<title>bootstrap&#45;stage0&#45;glibc&#45;bootstrap.drv&#45;&gt;glibc&#45;2.35&#45;224.drv</title>
<path fill="none" stroke="magenta" d="M932.53,-719.53C952.14,-711.7 971.03,-700.38 984.25,-684 1014.55,-646.45 1027.55,-611.84 995.25,-576 967.47,-545.17 708.73,-531.09 571.62,-525.75"/>
<polygon fill="magenta" stroke="magenta" points="571.89,-522.22 561.76,-525.33 571.62,-529.21 571.89,-522.22"/>
</g>
<!-- bootstrap&#45;stage0&#45;glibc&#45;bootstrap.drv&#45;&gt;bootstrap&#45;stage2&#45;gcc&#45;wrapper&#45;.drv -->
<g id="edge9" class="edge">
<title>bootstrap&#45;stage0&#45;glibc&#45;bootstrap.drv&#45;&gt;bootstrap&#45;stage2&#45;gcc&#45;wrapper&#45;.drv</title>
<path fill="none" stroke="magenta" d="M773.82,-719.52C733.4,-709.62 682.7,-697.22 640.74,-686.94"/>
<polygon fill="magenta" stroke="magenta" points="641.81,-683.36 631.27,-684.38 640.15,-690.16 641.81,-683.36"/>
</g>
<!-- bootstrap&#45;stage0&#45;glibc&#45;bootstrap.drv&#45;&gt;bootstrap&#45;stage1&#45;gcc&#45;wrapper&#45;.drv -->
<g id="edge23" class="edge">
<title>bootstrap&#45;stage0&#45;glibc&#45;bootstrap.drv&#45;&gt;bootstrap&#45;stage1&#45;gcc&#45;wrapper&#45;.drv</title>
<path fill="none" stroke="green" d="M844.76,-719.7C844.54,-712.24 844.29,-703.32 844.05,-694.97"/>
<polygon fill="green" stroke="green" points="847.52,-695 843.74,-685.1 840.53,-695.2 847.52,-695"/>
</g>
<!-- glibc&#45;2.35&#45;224.drv&#45;&gt;stdenv&#45;linux.drv -->
<g id="edge3" class="edge">
<title>glibc&#45;2.35&#45;224.drv&#45;&gt;stdenv&#45;linux.drv</title>
<path fill="none" stroke="black" d="M506.56,-503.82C532.19,-479.01 574.25,-430.46 574.25,-379 574.25,-379 574.25,-379 574.25,-161 574.25,-99.93 394.16,-54.52 287.33,-32.95"/>
<polygon fill="black" stroke="black" points="288.08,-29.33 277.59,-30.81 286.71,-36.2 288.08,-29.33"/>
</g>
<!-- glibc&#45;2.35&#45;224.drv&#45;&gt;bootstrap&#45;stage3&#45;gcc&#45;wrapper&#45;.drv -->
<g id="edge18" class="edge">
<title>glibc&#45;2.35&#45;224.drv&#45;&gt;bootstrap&#45;stage3&#45;gcc&#45;wrapper&#45;.drv</title>
<path fill="none" stroke="red" d="M434.8,-503.52C405.88,-493.88 369.78,-481.84 339.44,-471.73"/>
<polygon fill="red" stroke="red" points="340.99,-468.22 330.4,-468.38 338.78,-474.86 340.99,-468.22"/>
</g>
<!-- glibc&#45;2.35&#45;224.drv&#45;&gt;bootstrap&#45;stage4&#45;gcc&#45;wrapper&#45;11.3.0.drv -->
<g id="edge28" class="edge">
<title>glibc&#45;2.35&#45;224.drv&#45;&gt;bootstrap&#45;stage4&#45;gcc&#45;wrapper&#45;11.3.0.drv</title>
<path fill="none" stroke="red" d="M488.39,-503.68C490.27,-463.24 490.51,-360.53 451.25,-288 445.38,-277.15 436.39,-267.41 427.19,-259.32"/>
<polygon fill="red" stroke="red" points="429.7,-256.03 419.76,-252.38 425.25,-261.44 429.7,-256.03"/>
</g>
<!-- gcc&#45;wrapper&#45;11.3.0.drv&#45;&gt;stdenv&#45;linux.drv -->
<g id="edge1" class="edge">
<title>gcc&#45;wrapper&#45;11.3.0.drv&#45;&gt;stdenv&#45;linux.drv</title>
<path fill="none" stroke="red" d="M120.97,-71.52C136.28,-62.51 155.13,-51.42 171.56,-41.76"/>
<polygon fill="red" stroke="red" points="173.06,-44.35 179.91,-36.26 169.51,-38.31 173.06,-44.35"/>
</g>
<!-- bootstrap&#45;stage4&#45;stdenv&#45;linux.drv -->
<g id="node7" class="node">
<title>bootstrap&#45;stage4&#45;stdenv&#45;linux.drv</title>
<polygon fill="none" stroke="black" points="509.38,-180 251.12,-180 251.12,-144 509.38,-144 509.38,-180"/>
<text text-anchor="middle" x="380.25" y="-157.32" font-family="Times,serif" font-size="14.00">bootstrap&#45;stage4&#45;stdenv&#45;linux.drv</text>
</g>
<!-- bootstrap&#45;stage4&#45;stdenv&#45;linux.drv&#45;&gt;gcc&#45;wrapper&#45;11.3.0.drv -->
<g id="edge5" class="edge">
<title>bootstrap&#45;stage4&#45;stdenv&#45;linux.drv&#45;&gt;gcc&#45;wrapper&#45;11.3.0.drv</title>
<path fill="none" stroke="blue" d="M308.07,-143.52C267.3,-133.64 216.19,-121.26 173.83,-111"/>
<polygon fill="blue" stroke="blue" points="174.81,-107.39 164.26,-108.44 173.16,-114.2 174.81,-107.39"/>
</g>
<!-- bootstrap&#45;stage3&#45;gcc&#45;wrapper&#45;.drv&#45;&gt;gcc&#45;11.3.0.drv -->
<g id="edge12" class="edge">
<title>bootstrap&#45;stage3&#45;gcc&#45;wrapper&#45;.drv&#45;&gt;gcc&#45;11.3.0.drv</title>
<path fill="none" stroke="burlywood" d="M188.95,-431.6C170.6,-423.77 153.45,-412.44 142.25,-396 133.24,-382.78 135.23,-374.38 142.25,-360 147.95,-348.34 157.59,-338.49 167.85,-330.58"/>
<polygon fill="burlywood" stroke="burlywood" points="169.42,-333.04 175.53,-324.38 165.36,-327.34 169.42,-333.04"/>
</g>
<!-- bootstrap&#45;stage3&#45;stdenv&#45;linux.drv -->
<g id="node9" class="node">
<title>bootstrap&#45;stage3&#45;stdenv&#45;linux.drv</title>
<polygon fill="none" stroke="black" points="409.38,-396 151.12,-396 151.12,-360 409.38,-360 409.38,-396"/>
<text text-anchor="middle" x="280.25" y="-373.32" font-family="Times,serif" font-size="14.00">bootstrap&#45;stage3&#45;stdenv&#45;linux.drv</text>
</g>
<!-- bootstrap&#45;stage3&#45;gcc&#45;wrapper&#45;.drv&#45;&gt;bootstrap&#45;stage3&#45;stdenv&#45;linux.drv -->
<g id="edge6" class="edge">
<title>bootstrap&#45;stage3&#45;gcc&#45;wrapper&#45;.drv&#45;&gt;bootstrap&#45;stage3&#45;stdenv&#45;linux.drv</title>
<path fill="none" stroke="blue" d="M277.99,-431.7C278.31,-424.24 278.69,-415.32 279.05,-406.97"/>
<polygon fill="blue" stroke="blue" points="282.59,-407.25 279.52,-397.1 275.59,-406.95 282.59,-407.25"/>
</g>
<!-- bootstrap&#45;stage3&#45;stdenv&#45;linux.drv&#45;&gt;gcc&#45;11.3.0.drv -->
<g id="edge11" class="edge">
<title>bootstrap&#45;stage3&#45;stdenv&#45;linux.drv&#45;&gt;gcc&#45;11.3.0.drv</title>
<path fill="none" stroke="magenta" d="M262.95,-359.7C254.55,-351.3 244.32,-341.07 235.11,-331.86"/>
<polygon fill="magenta" stroke="magenta" points="237.9,-329.7 228.35,-325.1 232.95,-334.65 237.9,-329.7"/>
</g>
<!-- bootstrap&#45;stage2&#45;gcc&#45;wrapper&#45;.drv&#45;&gt;glibc&#45;2.35&#45;224.drv -->
<g id="edge13" class="edge">
<title>bootstrap&#45;stage2&#45;gcc&#45;wrapper&#45;.drv&#45;&gt;glibc&#45;2.35&#45;224.drv</title>
<path fill="none" stroke="magenta" d="M488.25,-647.53C470.59,-639.65 453.72,-628.3 443.25,-612 430.08,-591.5 444.87,-566.51 460.76,-548.23"/>
<polygon fill="magenta" stroke="magenta" points="462.82,-551.07 467.04,-541.34 457.68,-546.32 462.82,-551.07"/>
</g>
<!-- bootstrap&#45;stage2&#45;stdenv&#45;linux.drv -->
<g id="node12" class="node">
<title>bootstrap&#45;stage2&#45;stdenv&#45;linux.drv</title>
<polygon fill="none" stroke="black" points="710.38,-612 452.12,-612 452.12,-576 710.38,-576 710.38,-612"/>
<text text-anchor="middle" x="581.25" y="-589.33" font-family="Times,serif" font-size="14.00">bootstrap&#45;stage2&#45;stdenv&#45;linux.drv</text>
</g>
<!-- bootstrap&#45;stage2&#45;gcc&#45;wrapper&#45;.drv&#45;&gt;bootstrap&#45;stage2&#45;stdenv&#45;linux.drv -->
<g id="edge20" class="edge">
<title>bootstrap&#45;stage2&#45;gcc&#45;wrapper&#45;.drv&#45;&gt;bootstrap&#45;stage2&#45;stdenv&#45;linux.drv</title>
<path fill="none" stroke="burlywood" d="M564.69,-647.7C567.09,-640.07 569.96,-630.92 572.64,-622.4"/>
<polygon fill="burlywood" stroke="burlywood" points="576.22,-623.69 575.87,-613.1 569.54,-621.59 576.22,-623.69"/>
</g>
<!-- bootstrap&#45;stage0&#45;stdenv&#45;linux.drv -->
<g id="node11" class="node">
<title>bootstrap&#45;stage0&#45;stdenv&#45;linux.drv</title>
<polygon fill="none" stroke="black" points="688.38,-756 430.12,-756 430.12,-720 688.38,-720 688.38,-756"/>
<text text-anchor="middle" x="559.25" y="-733.33" font-family="Times,serif" font-size="14.00">bootstrap&#45;stage0&#45;stdenv&#45;linux.drv</text>
</g>
<!-- bootstrap&#45;stage0&#45;stdenv&#45;linux.drv&#45;&gt;bootstrap&#45;stage3&#45;gcc&#45;wrapper&#45;.drv -->
<g id="edge19" class="edge">
<title>bootstrap&#45;stage0&#45;stdenv&#45;linux.drv&#45;&gt;bootstrap&#45;stage3&#45;gcc&#45;wrapper&#45;.drv</title>
<path fill="none" stroke="burlywood" d="M485.5,-719.57C462.22,-711.5 437.56,-700.04 418.25,-684 349.41,-626.83 305.29,-526.84 286.97,-478.6"/>
<polygon fill="burlywood" stroke="burlywood" points="289.91,-477.47 283.15,-469.31 283.35,-479.9 289.91,-477.47"/>
</g>
<!-- bootstrap&#45;stage0&#45;stdenv&#45;linux.drv&#45;&gt;bootstrap&#45;stage2&#45;gcc&#45;wrapper&#45;.drv -->
<g id="edge8" class="edge">
<title>bootstrap&#45;stage0&#45;stdenv&#45;linux.drv&#45;&gt;bootstrap&#45;stage2&#45;gcc&#45;wrapper&#45;.drv</title>
<path fill="none" stroke="green" d="M559.25,-719.7C559.25,-712.24 559.25,-703.32 559.25,-694.97"/>
<polygon fill="green" stroke="green" points="562.75,-695.1 559.25,-685.1 555.75,-695.1 562.75,-695.1"/>
</g>
<!-- bootstrap&#45;stage0&#45;stdenv&#45;linux.drv&#45;&gt;bootstrap&#45;stage1&#45;gcc&#45;wrapper&#45;.drv -->
<g id="edge22" class="edge">
<title>bootstrap&#45;stage0&#45;stdenv&#45;linux.drv&#45;&gt;bootstrap&#45;stage1&#45;gcc&#45;wrapper&#45;.drv</title>
<path fill="none" stroke="red" d="M630.18,-719.52C670.23,-709.64 720.45,-697.27 762.07,-687.01"/>
<polygon fill="red" stroke="red" points="762.86,-690.17 771.73,-684.38 761.18,-683.38 762.86,-690.17"/>
</g>
<!-- bootstrap&#45;stage0&#45;stdenv&#45;linux.drv&#45;&gt;bootstrap&#45;stage4&#45;gcc&#45;wrapper&#45;11.3.0.drv -->
<g id="edge29" class="edge">
<title>bootstrap&#45;stage0&#45;stdenv&#45;linux.drv&#45;&gt;bootstrap&#45;stage4&#45;gcc&#45;wrapper&#45;11.3.0.drv</title>
<path fill="none" stroke="black" d="M688.64,-720.97C813.53,-705.48 983.89,-684.3 984.25,-684 1016.58,-657.59 1014.25,-636.74 1014.25,-595 1014.25,-595 1014.25,-595 1014.25,-377 1014.25,-283.2 741.97,-251.36 557.71,-240.55"/>
<polygon fill="black" stroke="black" points="557.98,-237.01 547.8,-239.93 557.59,-243.99 557.98,-237.01"/>
</g>
<!-- bootstrap&#45;stage2&#45;stdenv&#45;linux.drv&#45;&gt;glibc&#45;2.35&#45;224.drv -->
<g id="edge15" class="edge">
<title>bootstrap&#45;stage2&#45;stdenv&#45;linux.drv&#45;&gt;glibc&#45;2.35&#45;224.drv</title>
<path fill="none" stroke="black" d="M558.01,-575.7C546.26,-566.95 531.82,-556.19 519.06,-546.69"/>
<polygon fill="black" stroke="black" points="521.66,-543.51 511.54,-540.35 517.47,-549.13 521.66,-543.51"/>
</g>
<!-- bootstrap&#45;stage1&#45;stdenv&#45;linux.drv -->
<g id="node14" class="node">
<title>bootstrap&#45;stage1&#45;stdenv&#45;linux.drv</title>
<polygon fill="none" stroke="black" points="986.38,-612 728.12,-612 728.12,-576 986.38,-576 986.38,-612"/>
<text text-anchor="middle" x="857.25" y="-589.33" font-family="Times,serif" font-size="14.00">bootstrap&#45;stage1&#45;stdenv&#45;linux.drv</text>
</g>
<!-- bootstrap&#45;stage1&#45;gcc&#45;wrapper&#45;.drv&#45;&gt;bootstrap&#45;stage1&#45;stdenv&#45;linux.drv -->
<g id="edge24" class="edge">
<title>bootstrap&#45;stage1&#45;gcc&#45;wrapper&#45;.drv&#45;&gt;bootstrap&#45;stage1&#45;stdenv&#45;linux.drv</title>
<path fill="none" stroke="burlywood" d="M846.71,-647.7C848.22,-640.15 850.03,-631.12 851.71,-622.68"/>
<polygon fill="burlywood" stroke="burlywood" points="855.3,-623.6 853.83,-613.1 848.44,-622.22 855.3,-623.6"/>
</g>
<!-- bootstrap&#45;stage4&#45;gcc&#45;wrapper&#45;11.3.0.drv&#45;&gt;bootstrap&#45;stage4&#45;stdenv&#45;linux.drv -->
<g id="edge25" class="edge">
<title>bootstrap&#45;stage4&#45;gcc&#45;wrapper&#45;11.3.0.drv&#45;&gt;bootstrap&#45;stage4&#45;stdenv&#45;linux.drv</title>
<path fill="none" stroke="blue" d="M389.28,-215.7C387.99,-208.15 386.44,-199.12 385,-190.68"/>
<polygon fill="blue" stroke="blue" points="388.32,-190.37 383.18,-181.1 381.42,-191.55 388.32,-190.37"/>
</g>
</g>
</svg>
