<?xml version="1.0" encoding="UTF-8" standalone="no"?>
<!DOCTYPE svg PUBLIC "-//W3C//DTD SVG 1.1//EN"
 "http://www.w3.org/Graphics/SVG/1.1/DTD/svg11.dtd">
<!-- Generated by graphviz version 7.1.0 (0)
 -->
<!-- Title: G Pages: 1 -->
<svg width="1028pt" height="764pt"
 viewBox="0.00 0.00 1027.55 764.00" xmlns="http://www.w3.org/2000/svg" xmlns:xlink="http://www.w3.org/1999/xlink">
<g id="graph0" class="graph" transform="scale(1 1) rotate(0) translate(4 760)">
<title>G</title>
<polygon fill="white" stroke="none" points="-4,4 -4,-760 1023.55,-760 1023.55,4 -4,4"/>
<!-- gcc&#45;11.3.0.drv -->
<g id="node1" class="node">
<title>gcc&#45;11.3.0.drv</title>
<polygon fill="#00ff00" stroke="black" points="271,-324 152,-324 152,-288 271,-288 271,-324"/>
<text text-anchor="middle" x="211.5" y="-302.3" font-family="Times,serif" font-size="14.00">gcc&#45;11.3.0.drv</text>
</g>
<!-- stdenv&#45;linux.drv -->
<g id="node6" class="node">
<title>stdenv&#45;linux.drv</title>
<polygon fill="none" stroke="black" points="278,-36 145,-36 145,0 278,0 278,-36"/>
<text text-anchor="middle" x="211.5" y="-14.3" font-family="Times,serif" font-size="14.00">stdenv&#45;linux.drv</text>
</g>
<!-- gcc&#45;11.3.0.drv&#45;&gt;stdenv&#45;linux.drv -->
<g id="edge2" class="edge">
<title>gcc&#45;11.3.0.drv&#45;&gt;stdenv&#45;linux.drv</title>
<path fill="none" stroke="blue" d="M211.5,-287.54C211.5,-239.76 211.5,-106.51 211.5,-47.61"/>
<polygon fill="blue" stroke="blue" points="215,-47.75 211.5,-37.75 208,-47.75 215,-47.75"/>
</g>
<!-- bootstrap&#45;stage4&#45;gcc&#45;wrapper&#45;11.3.0.drv -->
<g id="node15" class="node">
<title>bootstrap&#45;stage4&#45;gcc&#45;wrapper&#45;11.3.0.drv</title>
<polygon fill="none" stroke="black" points="549,-252 240,-252 240,-216 549,-216 549,-252"/>
<text text-anchor="middle" x="394.5" y="-230.3" font-family="Times,serif" font-size="14.00">bootstrap&#45;stage4&#45;gcc&#45;wrapper&#45;11.3.0.drv</text>
</g>
<!-- gcc&#45;11.3.0.drv&#45;&gt;bootstrap&#45;stage4&#45;gcc&#45;wrapper&#45;11.3.0.drv -->
<g id="edge27" class="edge">
<title>gcc&#45;11.3.0.drv&#45;&gt;bootstrap&#45;stage4&#45;gcc&#45;wrapper&#45;11.3.0.drv</title>
<path fill="none" stroke="magenta" d="M257.21,-287.52C281.86,-278.08 312.5,-266.37 338.57,-256.39"/>
<polygon fill="magenta" stroke="magenta" points="339.56,-259.76 347.65,-252.92 337.06,-253.23 339.56,-259.76"/>
</g>
<!-- bootstrap&#45;tools.drv -->
<g id="node2" class="node">
<title>bootstrap&#45;tools.drv</title>
<polygon fill="#ffff00" stroke="black" points="389,-756 236,-756 236,-720 389,-720 389,-756"/>
<text text-anchor="middle" x="312.5" y="-734.3" font-family="Times,serif" font-size="14.00">bootstrap&#45;tools.drv</text>
</g>
<!-- bootstrap&#45;tools.drv&#45;&gt;gcc&#45;11.3.0.drv -->
<g id="edge10" class="edge">
<title>bootstrap&#45;tools.drv&#45;&gt;gcc&#45;11.3.0.drv</title>
<path fill="none" stroke="red" d="M235.65,-722.12C169.79,-704.38 85.5,-667.52 85.5,-595 85.5,-595 85.5,-595 85.5,-449 85.5,-404.27 102.57,-393.25 132.5,-360 142.71,-348.65 155.85,-338.59 168.47,-330.36"/>
<polygon fill="red" stroke="red" points="170.05,-333.5 176.68,-325.24 166.34,-327.57 170.05,-333.5"/>
</g>
<!-- glibc&#45;2.35&#45;224.drv -->
<g id="node4" class="node">
<title>glibc&#45;2.35&#45;224.drv</title>
<polygon fill="#ff0000" stroke="black" points="564,-540 417,-540 417,-504 564,-504 564,-540"/>
<text text-anchor="middle" x="490.5" y="-518.3" font-family="Times,serif" font-size="14.00">glibc&#45;2.35&#45;224.drv</text>
</g>
<!-- bootstrap&#45;tools.drv&#45;&gt;glibc&#45;2.35&#45;224.drv -->
<g id="edge14" class="edge">
<title>bootstrap&#45;tools.drv&#45;&gt;glibc&#45;2.35&#45;224.drv</title>
<path fill="none" stroke="burlywood" d="M324.44,-719.94C345.75,-689.87 392.26,-625.89 436.5,-576 444.89,-566.54 454.6,-556.7 463.46,-548.11"/>
<polygon fill="burlywood" stroke="burlywood" points="465.72,-550.79 470.52,-541.35 460.88,-545.73 465.72,-550.79"/>
</g>
<!-- gcc&#45;wrapper&#45;11.3.0.drv -->
<g id="node5" class="node">
<title>gcc&#45;wrapper&#45;11.3.0.drv</title>
<polygon fill="none" stroke="black" points="183,-108 0,-108 0,-72 183,-72 183,-108"/>
<text text-anchor="middle" x="91.5" y="-86.3" font-family="Times,serif" font-size="14.00">gcc&#45;wrapper&#45;11.3.0.drv</text>
</g>
<!-- bootstrap&#45;tools.drv&#45;&gt;gcc&#45;wrapper&#45;11.3.0.drv -->
<g id="edge4" class="edge">
<title>bootstrap&#45;tools.drv&#45;&gt;gcc&#45;wrapper&#45;11.3.0.drv</title>
<path fill="none" stroke="red" d="M235.67,-731.96C192.74,-725.85 140.25,-712.6 101.5,-684 64.27,-656.53 47.5,-641.27 47.5,-595 47.5,-595 47.5,-595 47.5,-233 47.5,-191.76 64.64,-146.68 77.53,-118.62"/>
<polygon fill="red" stroke="red" points="80.61,-120.3 81.73,-109.76 74.28,-117.29 80.61,-120.3"/>
</g>
<!-- bootstrap&#45;stage3&#45;gcc&#45;wrapper&#45;.drv -->
<g id="node8" class="node">
<title>bootstrap&#45;stage3&#45;gcc&#45;wrapper&#45;.drv</title>
<polygon fill="none" stroke="black" points="411.5,-468 147.5,-468 147.5,-432 411.5,-432 411.5,-468"/>
<text text-anchor="middle" x="279.5" y="-446.3" font-family="Times,serif" font-size="14.00">bootstrap&#45;stage3&#45;gcc&#45;wrapper&#45;.drv</text>
</g>
<!-- bootstrap&#45;tools.drv&#45;&gt;bootstrap&#45;stage3&#45;gcc&#45;wrapper&#45;.drv -->
<g id="edge17" class="edge">
<title>bootstrap&#45;tools.drv&#45;&gt;bootstrap&#45;stage3&#45;gcc&#45;wrapper&#45;.drv</title>
<path fill="none" stroke="black" d="M307.04,-719.5C304.06,-709.26 300.56,-696.01 298.5,-684 285.99,-611.05 281.66,-523.8 280.21,-479.64"/>
<polygon fill="black" stroke="black" points="283.71,-479.78 279.91,-469.89 276.72,-479.99 283.71,-479.78"/>
</g>
<!-- bootstrap&#45;stage2&#45;gcc&#45;wrapper&#45;.drv -->
<g id="node10" class="node">
<title>bootstrap&#45;stage2&#45;gcc&#45;wrapper&#45;.drv</title>
<polygon fill="none" stroke="black" points="694.5,-684 430.5,-684 430.5,-648 694.5,-648 694.5,-684"/>
<text text-anchor="middle" x="562.5" y="-662.3" font-family="Times,serif" font-size="14.00">bootstrap&#45;stage2&#45;gcc&#45;wrapper&#45;.drv</text>
</g>
<!-- bootstrap&#45;tools.drv&#45;&gt;bootstrap&#45;stage2&#45;gcc&#45;wrapper&#45;.drv -->
<g id="edge7" class="edge">
<title>bootstrap&#45;tools.drv&#45;&gt;bootstrap&#45;stage2&#45;gcc&#45;wrapper&#45;.drv</title>
<path fill="none" stroke="burlywood" d="M374.94,-719.52C409.67,-709.79 453.09,-697.64 489.4,-687.47"/>
<polygon fill="burlywood" stroke="burlywood" points="490.28,-690.86 498.96,-684.79 488.39,-684.12 490.28,-690.86"/>
</g>
<!-- bootstrap&#45;stage1&#45;gcc&#45;wrapper&#45;.drv -->
<g id="node13" class="node">
<title>bootstrap&#45;stage1&#45;gcc&#45;wrapper&#45;.drv</title>
<polygon fill="none" stroke="black" points="978.5,-684 714.5,-684 714.5,-648 978.5,-648 978.5,-684"/>
<text text-anchor="middle" x="846.5" y="-662.3" font-family="Times,serif" font-size="14.00">bootstrap&#45;stage1&#45;gcc&#45;wrapper&#45;.drv</text>
</g>
<!-- bootstrap&#45;tools.drv&#45;&gt;bootstrap&#45;stage1&#45;gcc&#45;wrapper&#45;.drv -->
<g id="edge21" class="edge">
<title>bootstrap&#45;tools.drv&#45;&gt;bootstrap&#45;stage1&#45;gcc&#45;wrapper&#45;.drv</title>
<path fill="none" stroke="magenta" d="M389.49,-724.93C400.89,-723.22 412.49,-721.53 423.5,-720 475.96,-712.7 601.99,-696.99 702.93,-684.56"/>
<polygon fill="magenta" stroke="magenta" points="703.17,-688.06 712.67,-683.37 702.31,-681.11 703.17,-688.06"/>
</g>
<!-- bootstrap&#45;tools.drv&#45;&gt;bootstrap&#45;stage4&#45;gcc&#45;wrapper&#45;11.3.0.drv -->
<g id="edge26" class="edge">
<title>bootstrap&#45;tools.drv&#45;&gt;bootstrap&#45;stage4&#45;gcc&#45;wrapper&#45;11.3.0.drv</title>
<path fill="none" stroke="black" d="M319.54,-719.59C343.41,-660.55 419.86,-471.34 420.5,-468 434.61,-394.97 415.33,-307.47 403.14,-263.38"/>
<polygon fill="black" stroke="black" points="406.52,-262.5 400.41,-253.84 399.79,-264.42 406.52,-262.5"/>
</g>
<!-- bootstrap&#45;stage0&#45;glibc&#45;bootstrap.drv -->
<g id="node3" class="node">
<title>bootstrap&#45;stage0&#45;glibc&#45;bootstrap.drv</title>
<polygon fill="#ffff00" stroke="black" points="989,-756 710,-756 710,-720 989,-720 989,-756"/>
<text text-anchor="middle" x="849.5" y="-734.3" font-family="Times,serif" font-size="14.00">bootstrap&#45;stage0&#45;glibc&#45;bootstrap.drv</text>
</g>
<!-- bootstrap&#45;stage0&#45;glibc&#45;bootstrap.drv&#45;&gt;glibc&#45;2.35&#45;224.drv -->
<g id="edge16" class="edge">
<title>bootstrap&#45;stage0&#45;glibc&#45;bootstrap.drv&#45;&gt;glibc&#45;2.35&#45;224.drv</title>
<path fill="none" stroke="magenta" d="M934.78,-719.58C954.64,-711.75 973.92,-700.41 987.5,-684 1018.33,-646.76 1032.87,-611.91 1000.5,-576 972.64,-545.09 713.37,-531.06 575.62,-525.74"/>
<polygon fill="magenta" stroke="magenta" points="575.94,-522.25 565.81,-525.37 575.67,-529.24 575.94,-522.25"/>
</g>
<!-- bootstrap&#45;stage0&#45;glibc&#45;bootstrap.drv&#45;&gt;bootstrap&#45;stage2&#45;gcc&#45;wrapper&#45;.drv -->
<g id="edge9" class="edge">
<title>bootstrap&#45;stage0&#45;glibc&#45;bootstrap.drv&#45;&gt;bootstrap&#45;stage2&#45;gcc&#45;wrapper&#45;.drv</title>
<path fill="none" stroke="magenta" d="M777.82,-719.52C737.43,-709.67 686.81,-697.32 644.81,-687.07"/>
<polygon fill="magenta" stroke="magenta" points="645.78,-683.71 635.24,-684.74 644.12,-690.51 645.78,-683.71"/>
</g>
<!-- bootstrap&#45;stage0&#45;glibc&#45;bootstrap.drv&#45;&gt;bootstrap&#45;stage1&#45;gcc&#45;wrapper&#45;.drv -->
<g id="edge23" class="edge">
<title>bootstrap&#45;stage0&#45;glibc&#45;bootstrap.drv&#45;&gt;bootstrap&#45;stage1&#45;gcc&#45;wrapper&#45;.drv</title>
<path fill="none" stroke="green" d="M848.76,-719.7C848.45,-712.41 848.07,-703.73 847.72,-695.54"/>
<polygon fill="green" stroke="green" points="851.22,-695.46 847.3,-685.62 844.23,-695.76 851.22,-695.46"/>
</g>
<!-- glibc&#45;2.35&#45;224.drv&#45;&gt;stdenv&#45;linux.drv -->
<g id="edge3" class="edge">
<title>glibc&#45;2.35&#45;224.drv&#45;&gt;stdenv&#45;linux.drv</title>
<path fill="none" stroke="black" d="M509.81,-503.82C535.44,-479.01 577.5,-430.46 577.5,-379 577.5,-379 577.5,-379 577.5,-161 577.5,-99.7 396.79,-54.43 289.33,-32.94"/>
<polygon fill="black" stroke="black" points="290.18,-29.54 279.69,-31.04 288.82,-36.41 290.18,-29.54"/>
</g>
<!-- glibc&#45;2.35&#45;224.drv&#45;&gt;bootstrap&#45;stage3&#45;gcc&#45;wrapper&#45;.drv -->
<g id="edge18" class="edge">
<title>glibc&#45;2.35&#45;224.drv&#45;&gt;bootstrap&#45;stage3&#45;gcc&#45;wrapper&#45;.drv</title>
<path fill="none" stroke="red" d="M437.8,-503.52C408.99,-493.96 373.1,-482.05 342.79,-472"/>
<polygon fill="red" stroke="red" points="343.92,-468.69 333.33,-468.86 341.72,-475.33 343.92,-468.69"/>
</g>
<!-- glibc&#45;2.35&#45;224.drv&#45;&gt;bootstrap&#45;stage4&#45;gcc&#45;wrapper&#45;11.3.0.drv -->
<g id="edge28" class="edge">
<title>glibc&#45;2.35&#45;224.drv&#45;&gt;bootstrap&#45;stage4&#45;gcc&#45;wrapper&#45;11.3.0.drv</title>
<path fill="none" stroke="red" d="M491.55,-503.67C493.21,-463.22 492.94,-360.5 453.5,-288 447.67,-277.28 438.8,-267.62 429.69,-259.58"/>
<polygon fill="red" stroke="red" points="432.09,-257.03 422.15,-253.36 427.63,-262.42 432.09,-257.03"/>
</g>
<!-- gcc&#45;wrapper&#45;11.3.0.drv&#45;&gt;stdenv&#45;linux.drv -->
<g id="edge1" class="edge">
<title>gcc&#45;wrapper&#45;11.3.0.drv&#45;&gt;stdenv&#45;linux.drv</title>
<path fill="none" stroke="red" d="M121.47,-71.52C136.76,-62.6 155.56,-51.63 172.02,-42.03"/>
<polygon fill="red" stroke="red" points="173.73,-45.09 180.6,-37.02 170.2,-39.04 173.73,-45.09"/>
</g>
<!-- bootstrap&#45;stage4&#45;stdenv&#45;linux.drv -->
<g id="node7" class="node">
<title>bootstrap&#45;stage4&#45;stdenv&#45;linux.drv</title>
<polygon fill="none" stroke="black" points="512,-180 253,-180 253,-144 512,-144 512,-180"/>
<text text-anchor="middle" x="382.5" y="-158.3" font-family="Times,serif" font-size="14.00">bootstrap&#45;stage4&#45;stdenv&#45;linux.drv</text>
</g>
<!-- bootstrap&#45;stage4&#45;stdenv&#45;linux.drv&#45;&gt;gcc&#45;wrapper&#45;11.3.0.drv -->
<g id="edge5" class="edge">
<title>bootstrap&#45;stage4&#45;stdenv&#45;linux.drv&#45;&gt;gcc&#45;wrapper&#45;11.3.0.drv</title>
<path fill="none" stroke="blue" d="M309.82,-143.52C268.94,-133.68 217.74,-121.37 175.2,-111.13"/>
<polygon fill="blue" stroke="blue" points="176.02,-107.73 165.48,-108.8 174.39,-114.54 176.02,-107.73"/>
</g>
<!-- bootstrap&#45;stage3&#45;gcc&#45;wrapper&#45;.drv&#45;&gt;gcc&#45;11.3.0.drv -->
<g id="edge12" class="edge">
<title>bootstrap&#45;stage3&#45;gcc&#45;wrapper&#45;.drv&#45;&gt;gcc&#45;11.3.0.drv</title>
<path fill="none" stroke="burlywood" d="M189.22,-431.56C170.86,-423.74 153.75,-412.41 142.5,-396 133.45,-382.8 135.43,-374.35 142.5,-360 148.23,-348.37 157.88,-338.58 168.17,-330.7"/>
<polygon fill="burlywood" stroke="burlywood" points="169.9,-333.76 176.06,-325.14 165.87,-328.04 169.9,-333.76"/>
</g>
<!-- bootstrap&#45;stage3&#45;stdenv&#45;linux.drv -->
<g id="node9" class="node">
<title>bootstrap&#45;stage3&#45;stdenv&#45;linux.drv</title>
<polygon fill="none" stroke="black" points="411,-396 152,-396 152,-360 411,-360 411,-396"/>
<text text-anchor="middle" x="281.5" y="-374.3" font-family="Times,serif" font-size="14.00">bootstrap&#45;stage3&#45;stdenv&#45;linux.drv</text>
</g>
<!-- bootstrap&#45;stage3&#45;gcc&#45;wrapper&#45;.drv&#45;&gt;bootstrap&#45;stage3&#45;stdenv&#45;linux.drv -->
<g id="edge6" class="edge">
<title>bootstrap&#45;stage3&#45;gcc&#45;wrapper&#45;.drv&#45;&gt;bootstrap&#45;stage3&#45;stdenv&#45;linux.drv</title>
<path fill="none" stroke="blue" d="M279.99,-431.7C280.2,-424.41 280.45,-415.73 280.68,-407.54"/>
<polygon fill="blue" stroke="blue" points="284.18,-407.71 280.97,-397.62 277.18,-407.51 284.18,-407.71"/>
</g>
<!-- bootstrap&#45;stage3&#45;stdenv&#45;linux.drv&#45;&gt;gcc&#45;11.3.0.drv -->
<g id="edge11" class="edge">
<title>bootstrap&#45;stage3&#45;stdenv&#45;linux.drv&#45;&gt;gcc&#45;11.3.0.drv</title>
<path fill="none" stroke="magenta" d="M264.2,-359.7C255.89,-351.39 245.78,-341.28 236.64,-332.14"/>
<polygon fill="magenta" stroke="magenta" points="239.22,-329.77 229.67,-325.17 234.27,-334.72 239.22,-329.77"/>
</g>
<!-- bootstrap&#45;stage2&#45;gcc&#45;wrapper&#45;.drv&#45;&gt;glibc&#45;2.35&#45;224.drv -->
<g id="edge13" class="edge">
<title>bootstrap&#45;stage2&#45;gcc&#45;wrapper&#45;.drv&#45;&gt;glibc&#45;2.35&#45;224.drv</title>
<path fill="none" stroke="magenta" d="M490.6,-647.52C472.89,-639.65 456.01,-628.3 445.5,-612 432.36,-591.62 447.07,-566.89 463.09,-548.68"/>
<polygon fill="magenta" stroke="magenta" points="465.62,-551.1 469.91,-541.42 460.51,-546.31 465.62,-551.1"/>
</g>
<!-- bootstrap&#45;stage2&#45;stdenv&#45;linux.drv -->
<g id="node12" class="node">
<title>bootstrap&#45;stage2&#45;stdenv&#45;linux.drv</title>
<polygon fill="none" stroke="black" points="714,-612 455,-612 455,-576 714,-576 714,-612"/>
<text text-anchor="middle" x="584.5" y="-590.3" font-family="Times,serif" font-size="14.00">bootstrap&#45;stage2&#45;stdenv&#45;linux.drv</text>
</g>
<!-- bootstrap&#45;stage2&#45;gcc&#45;wrapper&#45;.drv&#45;&gt;bootstrap&#45;stage2&#45;stdenv&#45;linux.drv -->
<g id="edge20" class="edge">
<title>bootstrap&#45;stage2&#45;gcc&#45;wrapper&#45;.drv&#45;&gt;bootstrap&#45;stage2&#45;stdenv&#45;linux.drv</title>
<path fill="none" stroke="burlywood" d="M567.94,-647.7C570.28,-640.24 573.08,-631.32 575.71,-622.97"/>
<polygon fill="burlywood" stroke="burlywood" points="579.01,-624.14 578.67,-613.55 572.33,-622.04 579.01,-624.14"/>
</g>
<!-- bootstrap&#45;stage0&#45;stdenv&#45;linux.drv -->
<g id="node11" class="node">
<title>bootstrap&#45;stage0&#45;stdenv&#45;linux.drv</title>
<polygon fill="none" stroke="black" points="692,-756 433,-756 433,-720 692,-720 692,-756"/>
<text text-anchor="middle" x="562.5" y="-734.3" font-family="Times,serif" font-size="14.00">bootstrap&#45;stage0&#45;stdenv&#45;linux.drv</text>
</g>
<!-- bootstrap&#45;stage0&#45;stdenv&#45;linux.drv&#45;&gt;bootstrap&#45;stage3&#45;gcc&#45;wrapper&#45;.drv -->
<g id="edge19" class="edge">
<title>bootstrap&#45;stage0&#45;stdenv&#45;linux.drv&#45;&gt;bootstrap&#45;stage3&#45;gcc&#45;wrapper&#45;.drv</title>
<path fill="none" stroke="burlywood" d="M488.78,-719.53C465.5,-711.47 440.84,-700.01 421.5,-684 352.59,-626.95 308.07,-527.26 289.46,-478.9"/>
<polygon fill="burlywood" stroke="burlywood" points="292.8,-477.86 286.01,-469.72 286.25,-480.32 292.8,-477.86"/>
</g>
<!-- bootstrap&#45;stage0&#45;stdenv&#45;linux.drv&#45;&gt;bootstrap&#45;stage2&#45;gcc&#45;wrapper&#45;.drv -->
<g id="edge8" class="edge">
<title>bootstrap&#45;stage0&#45;stdenv&#45;linux.drv&#45;&gt;bootstrap&#45;stage2&#45;gcc&#45;wrapper&#45;.drv</title>
<path fill="none" stroke="green" d="M562.5,-719.7C562.5,-712.41 562.5,-703.73 562.5,-695.54"/>
<polygon fill="green" stroke="green" points="566,-695.62 562.5,-685.62 559,-695.62 566,-695.62"/>
</g>
<!-- bootstrap&#45;stage0&#45;stdenv&#45;linux.drv&#45;&gt;bootstrap&#45;stage1&#45;gcc&#45;wrapper&#45;.drv -->
<g id="edge22" class="edge">
<title>bootstrap&#45;stage0&#45;stdenv&#45;linux.drv&#45;&gt;bootstrap&#45;stage1&#45;gcc&#45;wrapper&#45;.drv</title>
<path fill="none" stroke="red" d="M633.43,-719.52C673.4,-709.67 723.49,-697.32 765.05,-687.07"/>
<polygon fill="red" stroke="red" points="765.64,-690.54 774.51,-684.74 763.96,-683.74 765.64,-690.54"/>
</g>
<!-- bootstrap&#45;stage0&#45;stdenv&#45;linux.drv&#45;&gt;bootstrap&#45;stage4&#45;gcc&#45;wrapper&#45;11.3.0.drv -->
<g id="edge29" class="edge">
<title>bootstrap&#45;stage0&#45;stdenv&#45;linux.drv&#45;&gt;bootstrap&#45;stage4&#45;gcc&#45;wrapper&#45;11.3.0.drv</title>
<path fill="none" stroke="black" d="M692.31,-721.01C817.03,-705.62 986.77,-684.59 987.5,-684 1020.32,-657.74 1019.5,-637.03 1019.5,-595 1019.5,-595 1019.5,-595 1019.5,-377 1019.5,-282.74 745.78,-251.05 560.63,-240.4"/>
<polygon fill="black" stroke="black" points="561.09,-236.92 550.91,-239.85 560.7,-243.91 561.09,-236.92"/>
</g>
<!-- bootstrap&#45;stage2&#45;stdenv&#45;linux.drv&#45;&gt;glibc&#45;2.35&#45;224.drv -->
<g id="edge15" class="edge">
<title>bootstrap&#45;stage2&#45;stdenv&#45;linux.drv&#45;&gt;glibc&#45;2.35&#45;224.drv</title>
<path fill="none" stroke="black" d="M561.26,-575.7C549.63,-567.03 535.35,-556.4 522.68,-546.96"/>
<polygon fill="black" stroke="black" points="525.12,-544.42 515.01,-541.25 520.94,-550.03 525.12,-544.42"/>
</g>
<!-- bootstrap&#45;stage1&#45;stdenv&#45;linux.drv -->
<g id="node14" class="node">
<title>bootstrap&#45;stage1&#45;stdenv&#45;linux.drv</title>
<polygon fill="none" stroke="black" points="991,-612 732,-612 732,-576 991,-576 991,-612"/>
<text text-anchor="middle" x="861.5" y="-590.3" font-family="Times,serif" font-size="14.00">bootstrap&#45;stage1&#45;stdenv&#45;linux.drv</text>
</g>
<!-- bootstrap&#45;stage1&#45;gcc&#45;wrapper&#45;.drv&#45;&gt;bootstrap&#45;stage1&#45;stdenv&#45;linux.drv -->
<g id="edge24" class="edge">
<title>bootstrap&#45;stage1&#45;gcc&#45;wrapper&#45;.drv&#45;&gt;bootstrap&#45;stage1&#45;stdenv&#45;linux.drv</title>
<path fill="none" stroke="burlywood" d="M850.21,-647.7C851.79,-640.32 853.67,-631.52 855.45,-623.25"/>
<polygon fill="burlywood" stroke="burlywood" points="858.84,-624.1 857.52,-613.58 852,-622.63 858.84,-624.1"/>
</g>
<!-- bootstrap&#45;stage4&#45;gcc&#45;wrapper&#45;11.3.0.drv&#45;&gt;bootstrap&#45;stage4&#45;stdenv&#45;linux.drv -->
<g id="edge25" class="edge">
<title>bootstrap&#45;stage4&#45;gcc&#45;wrapper&#45;11.3.0.drv&#45;&gt;bootstrap&#45;stage4&#45;stdenv&#45;linux.drv</title>
<path fill="none" stroke="blue" d="M391.53,-215.7C390.27,-208.32 388.76,-199.52 387.34,-191.25"/>
<polygon fill="blue" stroke="blue" points="390.83,-190.86 385.69,-181.6 383.93,-192.04 390.83,-190.86"/>
</g>
</g>
</svg>
