<?xml version="1.0" encoding="UTF-8" standalone="no"?>
<!DOCTYPE svg PUBLIC "-//W3C//DTD SVG 1.1//EN"
 "http://www.w3.org/Graphics/SVG/1.1/DTD/svg11.dtd">
<!-- Generated by graphviz version 7.1.0 (0)
 -->
<!-- Title: G Pages: 1 -->
<svg width="522pt" height="216pt"
 viewBox="0.00 0.00 522.00 216.00" xmlns="http://www.w3.org/2000/svg" xmlns:xlink="http://www.w3.org/1999/xlink">
<g id="graph0" class="graph" transform="scale(1 1) rotate(0) translate(4 212)">
<title>G</title>
<polygon fill="white" stroke="none" points="-4,4 -4,-212 518,-212 518,4 -4,4"/>
<g id="clust1" class="cluster">
<title>clusterBoot</title>
<polygon fill="none" stroke="black" points="8,-108 8,-200 434,-200 434,-108 8,-108"/>
<text text-anchor="middle" x="221" y="-184.8" font-family="Times,serif" font-size="14.00">bootstrapTools</text>
</g>
<g id="clust2" class="cluster">
<title>clusterFinal</title>
<polygon fill="none" stroke="black" points="56,-8 56,-100 506,-100 506,-8 56,-8"/>
<text text-anchor="middle" x="281" y="-84.8" font-family="Times,serif" font-size="14.00">final</text>
</g>
<!-- gcc&#45;boot -->
<g id="node1" class="node">
<title>gcc&#45;boot</title>
<polygon fill="#ffff00" stroke="black" points="425.5,-169 228.5,-169 228.5,-116 425.5,-116 425.5,-169"/>
<text text-anchor="middle" x="327" y="-153.8" font-family="Times,serif" font-size="14.00">gcc&#45;boot</text>
<text text-anchor="middle" x="327" y="-138.8" font-family="Times,serif" font-size="14.00">built by: gcc&#45;boot</text>
<text text-anchor="middle" x="327" y="-123.8" font-family="Times,serif" font-size="14.00">linked against: glibc&#45;boot</text>
</g>
<!-- gcc&#45;nixpkgs&#45;by&#45;boot -->
<g id="node3" class="node">
<title>gcc&#45;nixpkgs&#45;by&#45;boot</title>
<polygon fill="#00ff00" stroke="black" points="497.5,-69 276.5,-69 276.5,-16 497.5,-16 497.5,-69"/>
<text text-anchor="middle" x="387" y="-53.8" font-family="Times,serif" font-size="14.00">gcc&#45;nixpkgs</text>
<text text-anchor="middle" x="387" y="-38.8" font-family="Times,serif" font-size="14.00">built by: gcc&#45;boot</text>
<text text-anchor="middle" x="387" y="-23.8" font-family="Times,serif" font-size="14.00">linked against: glibc&#45;nixpkgs</text>
</g>
<!-- gcc&#45;boot&#45;&gt;gcc&#45;nixpkgs&#45;by&#45;boot -->
<g id="edge1" class="edge">
<title>gcc&#45;boot&#45;&gt;gcc&#45;nixpkgs&#45;by&#45;boot</title>
<path fill="none" stroke="black" d="M342.76,-115.75C349.6,-104.59 357.72,-91.33 365.12,-79.23"/>
<polygon fill="black" stroke="black" points="368.11,-81.06 370.34,-70.71 362.14,-77.41 368.11,-81.06"/>
</g>
<!-- glibc&#45;nixpkgs&#45;by&#45;boot -->
<g id="node4" class="node">
<title>glibc&#45;nixpkgs&#45;by&#45;boot</title>
<polygon fill="#ff0000" stroke="black" points="258,-69 64,-69 64,-16 258,-16 258,-69"/>
<text text-anchor="middle" x="161" y="-53.8" font-family="Times,serif" font-size="14.00">glibc&#45;nixpkgs</text>
<text text-anchor="middle" x="161" y="-38.8" font-family="Times,serif" font-size="14.00">built by: gcc&#45;boot</text>
<text text-anchor="middle" x="161" y="-23.8" font-family="Times,serif" font-size="14.00">bundles: libgcc_s.so&#45;boot</text>
</g>
<!-- gcc&#45;boot&#45;&gt;glibc&#45;nixpkgs&#45;by&#45;boot -->
<g id="edge2" class="edge">
<title>gcc&#45;boot&#45;&gt;glibc&#45;nixpkgs&#45;by&#45;boot</title>
<path fill="none" stroke="black" d="M283.39,-115.75C262.3,-103.3 236.8,-88.25 214.54,-75.11"/>
<polygon fill="black" stroke="black" points="216.59,-72.26 206.2,-70.19 213.03,-78.28 216.59,-72.26"/>
</g>
<!-- glibc&#45;boot -->
<g id="node2" class="node">
<title>glibc&#45;boot</title>
<polygon fill="#ffff00" stroke="black" points="210,-169 16,-169 16,-116 210,-116 210,-169"/>
<text text-anchor="middle" x="113" y="-153.8" font-family="Times,serif" font-size="14.00">glibc&#45;boot</text>
<text text-anchor="middle" x="113" y="-138.8" font-family="Times,serif" font-size="14.00">built by: gcc&#45;boot</text>
<text text-anchor="middle" x="113" y="-123.8" font-family="Times,serif" font-size="14.00">bundles: libgcc_s.so&#45;boot</text>
</g>
</g>
</svg>
