<?xml version="1.0" encoding="UTF-8" standalone="no"?>
<!DOCTYPE svg PUBLIC "-//W3C//DTD SVG 1.1//EN"
 "http://www.w3.org/Graphics/SVG/1.1/DTD/svg11.dtd">
<!-- Generated by graphviz version 10.0.1 (0)
 -->
<!-- Title: G Pages: 1 -->
<svg width="472pt" height="234pt"
 viewBox="0.00 0.00 472.00 234.00" xmlns="http://www.w3.org/2000/svg" xmlns:xlink="http://www.w3.org/1999/xlink">
<g id="graph0" class="graph" transform="scale(1 1) rotate(0) translate(4 230)">
<title>G</title>
<polygon fill="white" stroke="none" points="-4,4 -4,-230 468,-230 468,4 -4,4"/>
<g id="clust1" class="cluster">
<title>clusterBoot</title>
<polygon fill="none" stroke="black" points="26,-117 26,-218 450,-218 450,-117 26,-117"/>
<text text-anchor="middle" x="238" y="-200.7" font-family="Times,serif" font-size="14.00">bootstrapTools</text>
</g>
<g id="clust2" class="cluster">
<title>clusterFinal</title>
<polygon fill="none" stroke="black" points="8,-8 8,-109 456,-109 456,-8 8,-8"/>
<text text-anchor="middle" x="232" y="-91.7" font-family="Times,serif" font-size="14.00">final</text>
</g>
<!-- gcc&#45;boot -->
<g id="node1" class="node">
<title>gcc&#45;boot</title>
<polygon fill="#ffff00" stroke="black" points="230,-184.75 34,-184.75 34,-125 230,-125 230,-184.75"/>
<text text-anchor="middle" x="132" y="-167.45" font-family="Times,serif" font-size="14.00">gcc&#45;boot</text>
<text text-anchor="middle" x="132" y="-150.2" font-family="Times,serif" font-size="14.00">built by: gcc&#45;boot</text>
<text text-anchor="middle" x="132" y="-132.95" font-family="Times,serif" font-size="14.00">linked against: glibc&#45;boot</text>
</g>
<!-- gcc&#45;nixpkgs&#45;by&#45;boot -->
<g id="node3" class="node">
<title>gcc&#45;nixpkgs&#45;by&#45;boot</title>
<polygon fill="#00ff00" stroke="black" points="236,-75.75 16,-75.75 16,-16 236,-16 236,-75.75"/>
<text text-anchor="middle" x="126" y="-58.45" font-family="Times,serif" font-size="14.00">gcc&#45;nixpkgs</text>
<text text-anchor="middle" x="126" y="-41.2" font-family="Times,serif" font-size="14.00">built by: gcc&#45;boot</text>
<text text-anchor="middle" x="126" y="-23.95" font-family="Times,serif" font-size="14.00">linked against: glibc&#45;nixpkgs</text>
</g>
<!-- gcc&#45;boot&#45;&gt;gcc&#45;nixpkgs&#45;by&#45;boot -->
<g id="edge1" class="edge">
<title>gcc&#45;boot&#45;&gt;gcc&#45;nixpkgs&#45;by&#45;boot</title>
<path fill="none" stroke="black" d="M130.36,-124.64C129.72,-113.2 128.97,-99.88 128.28,-87.53"/>
<polygon fill="black" stroke="black" points="131.78,-87.38 127.72,-77.59 124.79,-87.77 131.78,-87.38"/>
</g>
<!-- glibc&#45;nixpkgs&#45;by&#45;boot -->
<g id="node4" class="node">
<title>glibc&#45;nixpkgs&#45;by&#45;boot</title>
<polygon fill="#ff0000" stroke="black" points="447.88,-75.75 254.12,-75.75 254.12,-16 447.88,-16 447.88,-75.75"/>
<text text-anchor="middle" x="351" y="-58.45" font-family="Times,serif" font-size="14.00">glibc&#45;nixpkgs</text>
<text text-anchor="middle" x="351" y="-41.2" font-family="Times,serif" font-size="14.00">built by: gcc&#45;boot</text>
<text text-anchor="middle" x="351" y="-23.95" font-family="Times,serif" font-size="14.00">bundles: libgcc_s.so&#45;boot</text>
</g>
<!-- gcc&#45;boot&#45;&gt;glibc&#45;nixpkgs&#45;by&#45;boot -->
<g id="edge2" class="edge">
<title>gcc&#45;boot&#45;&gt;glibc&#45;nixpkgs&#45;by&#45;boot</title>
<path fill="none" stroke="black" d="M210.48,-124.5C222.18,-119.61 234,-114.37 245,-109 261.59,-100.9 279.07,-91.18 294.96,-81.86"/>
<polygon fill="black" stroke="black" points="296.5,-85.01 303.31,-76.9 292.93,-78.99 296.5,-85.01"/>
</g>
<!-- glibc&#45;boot -->
<g id="node2" class="node">
<title>glibc&#45;boot</title>
<polygon fill="#ffff00" stroke="black" points="441.88,-184.75 248.12,-184.75 248.12,-125 441.88,-125 441.88,-184.75"/>
<text text-anchor="middle" x="345" y="-167.45" font-family="Times,serif" font-size="14.00">glibc&#45;boot</text>
<text text-anchor="middle" x="345" y="-150.2" font-family="Times,serif" font-size="14.00">built by: gcc&#45;boot</text>
<text text-anchor="middle" x="345" y="-132.95" font-family="Times,serif" font-size="14.00">bundles: libgcc_s.so&#45;boot</text>
</g>
</g>
</svg>
