<?xml version="1.0" encoding="UTF-8" standalone="no"?>
<!DOCTYPE svg PUBLIC "-//W3C//DTD SVG 1.1//EN"
 "http://www.w3.org/Graphics/SVG/1.1/DTD/svg11.dtd">
<!-- Generated by graphviz version 9.0.0 (0)
 -->
<!-- Title: G Pages: 1 -->
<svg width="519pt" height="234pt"
 viewBox="0.00 0.00 519.00 234.00" xmlns="http://www.w3.org/2000/svg" xmlns:xlink="http://www.w3.org/1999/xlink">
<g id="graph0" class="graph" transform="scale(1 1) rotate(0) translate(4 230)">
<title>G</title>
<polygon fill="white" stroke="none" points="-4,4 -4,-230 515,-230 515,4 -4,4"/>
<g id="clust1" class="cluster">
<title>clusterBoot</title>
<polygon fill="none" stroke="black" points="8,-117 8,-218 432,-218 432,-117 8,-117"/>
<text text-anchor="middle" x="220" y="-200.7" font-family="Times,serif" font-size="14.00">bootstrapTools</text>
</g>
<g id="clust2" class="cluster">
<title>clusterFinal</title>
<polygon fill="none" stroke="black" points="55,-8 55,-109 503,-109 503,-8 55,-8"/>
<text text-anchor="middle" x="279" y="-91.7" font-family="Times,serif" font-size="14.00">final</text>
</g>
<!-- gcc&#45;boot -->
<g id="node1" class="node">
<title>gcc&#45;boot</title>
<polygon fill="#ffff00" stroke="black" points="424,-184.75 228,-184.75 228,-125 424,-125 424,-184.75"/>
<text text-anchor="middle" x="326" y="-167.45" font-family="Times,serif" font-size="14.00">gcc&#45;boot</text>
<text text-anchor="middle" x="326" y="-150.2" font-family="Times,serif" font-size="14.00">built by: gcc&#45;boot</text>
<text text-anchor="middle" x="326" y="-132.95" font-family="Times,serif" font-size="14.00">linked against: glibc&#45;boot</text>
</g>
<!-- gcc&#45;nixpkgs&#45;by&#45;boot -->
<g id="node3" class="node">
<title>gcc&#45;nixpkgs&#45;by&#45;boot</title>
<polygon fill="#00ff00" stroke="black" points="495,-75.75 275,-75.75 275,-16 495,-16 495,-75.75"/>
<text text-anchor="middle" x="385" y="-58.45" font-family="Times,serif" font-size="14.00">gcc&#45;nixpkgs</text>
<text text-anchor="middle" x="385" y="-41.2" font-family="Times,serif" font-size="14.00">built by: gcc&#45;boot</text>
<text text-anchor="middle" x="385" y="-23.95" font-family="Times,serif" font-size="14.00">linked against: glibc&#45;nixpkgs</text>
</g>
<!-- gcc&#45;boot&#45;&gt;gcc&#45;nixpkgs&#45;by&#45;boot -->
<g id="edge1" class="edge">
<title>gcc&#45;boot&#45;&gt;gcc&#45;nixpkgs&#45;by&#45;boot</title>
<path fill="none" stroke="black" d="M342.12,-124.64C348.69,-112.72 356.38,-98.77 363.42,-86"/>
<polygon fill="black" stroke="black" points="366.4,-87.85 368.17,-77.4 360.27,-84.47 366.4,-87.85"/>
</g>
<!-- glibc&#45;nixpkgs&#45;by&#45;boot -->
<g id="node4" class="node">
<title>glibc&#45;nixpkgs&#45;by&#45;boot</title>
<polygon fill="#ff0000" stroke="black" points="256.88,-75.75 63.12,-75.75 63.12,-16 256.88,-16 256.88,-75.75"/>
<text text-anchor="middle" x="160" y="-58.45" font-family="Times,serif" font-size="14.00">glibc&#45;nixpkgs</text>
<text text-anchor="middle" x="160" y="-41.2" font-family="Times,serif" font-size="14.00">built by: gcc&#45;boot</text>
<text text-anchor="middle" x="160" y="-23.95" font-family="Times,serif" font-size="14.00">bundles: libgcc_s.so&#45;boot</text>
</g>
<!-- gcc&#45;boot&#45;&gt;glibc&#45;nixpkgs&#45;by&#45;boot -->
<g id="edge2" class="edge">
<title>gcc&#45;boot&#45;&gt;glibc&#45;nixpkgs&#45;by&#45;boot</title>
<path fill="none" stroke="black" d="M280.64,-124.64C260.33,-111.54 236.2,-95.99 214.88,-82.25"/>
<polygon fill="black" stroke="black" points="216.88,-79.37 206.58,-76.9 213.09,-85.26 216.88,-79.37"/>
</g>
<!-- glibc&#45;boot -->
<g id="node2" class="node">
<title>glibc&#45;boot</title>
<polygon fill="#ffff00" stroke="black" points="209.88,-184.75 16.12,-184.75 16.12,-125 209.88,-125 209.88,-184.75"/>
<text text-anchor="middle" x="113" y="-167.45" font-family="Times,serif" font-size="14.00">glibc&#45;boot</text>
<text text-anchor="middle" x="113" y="-150.2" font-family="Times,serif" font-size="14.00">built by: gcc&#45;boot</text>
<text text-anchor="middle" x="113" y="-132.95" font-family="Times,serif" font-size="14.00">bundles: libgcc_s.so&#45;boot</text>
</g>
</g>
</svg>
