<?xml version="1.0" encoding="UTF-8" standalone="no"?>
<!DOCTYPE svg PUBLIC "-//W3C//DTD SVG 1.1//EN"
 "http://www.w3.org/Graphics/SVG/1.1/DTD/svg11.dtd">
<!-- Generated by graphviz version 9.0.0 (0)
 -->
<!-- Title: G Pages: 1 -->
<svg width="556pt" height="360pt"
 viewBox="0.00 0.00 556.00 360.25" xmlns="http://www.w3.org/2000/svg" xmlns:xlink="http://www.w3.org/1999/xlink">
<g id="graph0" class="graph" transform="scale(1 1) rotate(0) translate(4 356.25)">
<title>G</title>
<polygon fill="white" stroke="none" points="-4,4 -4,-356.25 552,-356.25 552,4 -4,4"/>
<g id="clust1" class="cluster">
<title>clusterBoot</title>
<polygon fill="none" stroke="black" points="8,-243.25 8,-344.25 432,-344.25 432,-243.25 8,-243.25"/>
<text text-anchor="middle" x="220" y="-326.95" font-family="Times,serif" font-size="14.00">bootstrapTools</text>
</g>
<g id="clust2" class="cluster">
<title>clusterIntermediate</title>
<polygon fill="none" stroke="black" points="65,-134.25 65,-235.25 513,-235.25 513,-134.25 65,-134.25"/>
<text text-anchor="middle" x="289" y="-217.95" font-family="Times,serif" font-size="14.00">intermediate (or fresh&#45;bootstrapTools)</text>
</g>
<g id="clust3" class="cluster">
<title>clusterideal</title>
<polygon fill="none" stroke="black" points="34,-8 34,-126.25 540,-126.25 540,-8 34,-8"/>
<text text-anchor="middle" x="287" y="-108.95" font-family="Times,serif" font-size="14.00">ideal</text>
</g>
<!-- gcc&#45;boot -->
<g id="node1" class="node">
<title>gcc&#45;boot</title>
<polygon fill="#ffff00" stroke="black" points="424,-311 228,-311 228,-251.25 424,-251.25 424,-311"/>
<text text-anchor="middle" x="326" y="-293.7" font-family="Times,serif" font-size="14.00">gcc&#45;boot</text>
<text text-anchor="middle" x="326" y="-276.45" font-family="Times,serif" font-size="14.00">built by: gcc&#45;boot</text>
<text text-anchor="middle" x="326" y="-259.2" font-family="Times,serif" font-size="14.00">linked against: glibc&#45;boot</text>
</g>
<!-- gcc&#45;nixpkgs&#45;by&#45;boot -->
<g id="node3" class="node">
<title>gcc&#45;nixpkgs&#45;by&#45;boot</title>
<polygon fill="#00ff00" stroke="black" points="505,-202 309,-202 309,-142.25 505,-142.25 505,-202"/>
<text text-anchor="middle" x="407" y="-184.7" font-family="Times,serif" font-size="14.00">gcc&#45;nixpkgs</text>
<text text-anchor="middle" x="407" y="-167.45" font-family="Times,serif" font-size="14.00">built by: gcc&#45;boot</text>
<text text-anchor="middle" x="407" y="-150.2" font-family="Times,serif" font-size="14.00">linked against: glibc&#45;boot</text>
</g>
<!-- gcc&#45;boot&#45;&gt;gcc&#45;nixpkgs&#45;by&#45;boot -->
<g id="edge1" class="edge">
<title>gcc&#45;boot&#45;&gt;gcc&#45;nixpkgs&#45;by&#45;boot</title>
<path fill="none" stroke="black" d="M348.13,-250.89C357.33,-238.74 368.13,-224.47 377.95,-211.5"/>
<polygon fill="black" stroke="black" points="380.73,-213.62 383.98,-203.53 375.15,-209.4 380.73,-213.62"/>
</g>
<!-- glibc&#45;nixpkgs&#45;by&#45;nixpkgs -->
<g id="node4" class="node">
<title>glibc&#45;nixpkgs&#45;by&#45;nixpkgs</title>
<polygon fill="#ff0000" stroke="black" points="290.88,-202 73.12,-202 73.12,-142.25 290.88,-142.25 290.88,-202"/>
<text text-anchor="middle" x="182" y="-184.7" font-family="Times,serif" font-size="14.00">glibc&#45;nixpkgs</text>
<text text-anchor="middle" x="182" y="-167.45" font-family="Times,serif" font-size="14.00">built by: gcc&#45;nixpkgs</text>
<text text-anchor="middle" x="182" y="-150.2" font-family="Times,serif" font-size="14.00">bundles: libgcc_s.so&#45;nixpkgs</text>
</g>
<!-- gcc&#45;boot&#45;&gt;glibc&#45;nixpkgs&#45;by&#45;nixpkgs -->
<g id="edge2" class="edge">
<title>gcc&#45;boot&#45;&gt;glibc&#45;nixpkgs&#45;by&#45;nixpkgs</title>
<path fill="none" stroke="black" d="M286.65,-250.89C269.27,-237.97 248.67,-222.66 230.36,-209.06"/>
<polygon fill="black" stroke="black" points="232.63,-206.39 222.52,-203.23 228.46,-212 232.63,-206.39"/>
</g>
<!-- glibc&#45;boot -->
<g id="node2" class="node">
<title>glibc&#45;boot</title>
<polygon fill="#ffff00" stroke="black" points="209.88,-311 16.12,-311 16.12,-251.25 209.88,-251.25 209.88,-311"/>
<text text-anchor="middle" x="113" y="-293.7" font-family="Times,serif" font-size="14.00">glibc&#45;boot</text>
<text text-anchor="middle" x="113" y="-276.45" font-family="Times,serif" font-size="14.00">built by: gcc&#45;boot</text>
<text text-anchor="middle" x="113" y="-259.2" font-family="Times,serif" font-size="14.00">bundles: libgcc_s.so&#45;boot</text>
</g>
<!-- gcc&#45;nixpkgs&#45;ideal -->
<g id="node5" class="node">
<title>gcc&#45;nixpkgs&#45;ideal</title>
<polygon fill="#00ffff" stroke="black" points="532,-84.38 312,-84.38 312,-24.62 532,-24.62 532,-84.38"/>
<text text-anchor="middle" x="422" y="-67.08" font-family="Times,serif" font-size="14.00">gcc&#45;nixpkgs</text>
<text text-anchor="middle" x="422" y="-49.83" font-family="Times,serif" font-size="14.00">built by: gcc&#45;nixpkgs</text>
<text text-anchor="middle" x="422" y="-32.58" font-family="Times,serif" font-size="14.00">linked against: glibc&#45;nixpkgs</text>
</g>
<!-- gcc&#45;nixpkgs&#45;by&#45;boot&#45;&gt;gcc&#45;nixpkgs&#45;ideal -->
<g id="edge3" class="edge">
<title>gcc&#45;nixpkgs&#45;by&#45;boot&#45;&gt;gcc&#45;nixpkgs&#45;ideal</title>
<path fill="none" stroke="black" d="M410.79,-141.95C412.6,-127.98 414.8,-111.03 416.77,-95.85"/>
<polygon fill="black" stroke="black" points="420.21,-96.54 418.02,-86.17 413.26,-95.64 420.21,-96.54"/>
</g>
<!-- glibc&#45;nixpkgs&#45;ideal -->
<g id="node6" class="node">
<title>glibc&#45;nixpkgs&#45;ideal</title>
<polygon fill="none" stroke="black" points="294.12,-93 41.88,-93 41.88,-16 294.12,-16 294.12,-93"/>
<text text-anchor="middle" x="168" y="-75.7" font-family="Times,serif" font-size="14.00">glibc&#45;nixpkgs</text>
<text text-anchor="middle" x="168" y="-58.45" font-family="Times,serif" font-size="14.00">same as intermediate, no rebuild</text>
<text text-anchor="middle" x="168" y="-41.2" font-family="Times,serif" font-size="14.00">built by: gcc&#45;nixpkgs</text>
<text text-anchor="middle" x="168" y="-23.95" font-family="Times,serif" font-size="14.00">bundles: libgcc_s.so&#45;nixpkgs</text>
</g>
<!-- glibc&#45;nixpkgs&#45;by&#45;nixpkgs&#45;&gt;glibc&#45;nixpkgs&#45;ideal -->
<g id="edge4" class="edge">
<title>glibc&#45;nixpkgs&#45;by&#45;nixpkgs&#45;&gt;glibc&#45;nixpkgs&#45;ideal</title>
<path fill="none" stroke="black" d="M178.47,-141.95C177.1,-130.68 175.5,-117.47 173.97,-104.81"/>
<polygon fill="black" stroke="black" points="177.45,-104.43 172.77,-94.92 170.5,-105.27 177.45,-104.43"/>
</g>
</g>
</svg>
