<?xml version="1.0" encoding="UTF-8" standalone="no"?>
<!DOCTYPE svg PUBLIC "-//W3C//DTD SVG 1.1//EN"
 "http://www.w3.org/Graphics/SVG/1.1/DTD/svg11.dtd">
<!-- Generated by graphviz version 7.0.2 (0)
 -->
<!-- Title: G Pages: 1 -->
<svg width="558pt" height="331pt"
 viewBox="0.00 0.00 558.00 331.00" xmlns="http://www.w3.org/2000/svg" xmlns:xlink="http://www.w3.org/1999/xlink">
<g id="graph0" class="graph" transform="scale(1 1) rotate(0) translate(4 327)">
<title>G</title>
<polygon fill="white" stroke="none" points="-4,4 -4,-327 554,-327 554,4 -4,4"/>
<g id="clust1" class="cluster">
<title>clusterBoot</title>
<polygon fill="none" stroke="black" points="8,-223 8,-315 434,-315 434,-223 8,-223"/>
<text text-anchor="middle" x="221" y="-299.8" font-family="Times,serif" font-size="14.00">bootstrapTools</text>
</g>
<g id="clust2" class="cluster">
<title>clusterIntermediate</title>
<polygon fill="none" stroke="black" points="65,-123 65,-215 515,-215 515,-123 65,-123"/>
<text text-anchor="middle" x="290" y="-199.8" font-family="Times,serif" font-size="14.00">intermediate (or fresh&#45;bootstrapTools)</text>
</g>
<g id="clust3" class="cluster">
<title>clusterideal</title>
<polygon fill="none" stroke="black" points="33,-8 33,-115 542,-115 542,-8 33,-8"/>
<text text-anchor="middle" x="287.5" y="-99.8" font-family="Times,serif" font-size="14.00">ideal</text>
</g>
<!-- gcc&#45;boot -->
<g id="node1" class="node">
<title>gcc&#45;boot</title>
<polygon fill="#ffff00" stroke="black" points="425.5,-284 228.5,-284 228.5,-231 425.5,-231 425.5,-284"/>
<text text-anchor="middle" x="327" y="-268.8" font-family="Times,serif" font-size="14.00">gcc&#45;boot</text>
<text text-anchor="middle" x="327" y="-253.8" font-family="Times,serif" font-size="14.00">built by: gcc&#45;boot</text>
<text text-anchor="middle" x="327" y="-238.8" font-family="Times,serif" font-size="14.00">linked against: glibc&#45;boot</text>
</g>
<!-- gcc&#45;nixpkgs&#45;by&#45;boot -->
<g id="node3" class="node">
<title>gcc&#45;nixpkgs&#45;by&#45;boot</title>
<polygon fill="#00ff00" stroke="black" points="506.5,-184 309.5,-184 309.5,-131 506.5,-131 506.5,-184"/>
<text text-anchor="middle" x="408" y="-168.8" font-family="Times,serif" font-size="14.00">gcc&#45;nixpkgs</text>
<text text-anchor="middle" x="408" y="-153.8" font-family="Times,serif" font-size="14.00">built by: gcc&#45;boot</text>
<text text-anchor="middle" x="408" y="-138.8" font-family="Times,serif" font-size="14.00">linked against: glibc&#45;boot</text>
</g>
<!-- gcc&#45;boot&#45;&gt;gcc&#45;nixpkgs&#45;by&#45;boot -->
<g id="edge1" class="edge">
<title>gcc&#45;boot&#45;&gt;gcc&#45;nixpkgs&#45;by&#45;boot</title>
<path fill="none" stroke="black" d="M348.28,-230.75C357.79,-219.25 369.13,-205.53 379.36,-193.15"/>
<polygon fill="black" stroke="black" points="381.94,-195.52 385.61,-185.58 376.55,-191.06 381.94,-195.52"/>
</g>
<!-- glibc&#45;nixpkgs&#45;by&#45;nixpkgs -->
<g id="node4" class="node">
<title>glibc&#45;nixpkgs&#45;by&#45;nixpkgs</title>
<polygon fill="#ff0000" stroke="black" points="291,-184 73,-184 73,-131 291,-131 291,-184"/>
<text text-anchor="middle" x="182" y="-168.8" font-family="Times,serif" font-size="14.00">glibc&#45;nixpkgs</text>
<text text-anchor="middle" x="182" y="-153.8" font-family="Times,serif" font-size="14.00">built by: gcc&#45;nixpkgs</text>
<text text-anchor="middle" x="182" y="-138.8" font-family="Times,serif" font-size="14.00">bundles: libgcc_s.so&#45;nixpkgs</text>
</g>
<!-- gcc&#45;boot&#45;&gt;glibc&#45;nixpkgs&#45;by&#45;nixpkgs -->
<g id="edge2" class="edge">
<title>gcc&#45;boot&#45;&gt;glibc&#45;nixpkgs&#45;by&#45;nixpkgs</title>
<path fill="none" stroke="black" d="M288.9,-230.75C270.81,-218.53 249.01,-203.79 229.82,-190.82"/>
<polygon fill="black" stroke="black" points="231.85,-187.96 221.6,-185.26 227.93,-193.76 231.85,-187.96"/>
</g>
<!-- glibc&#45;boot -->
<g id="node2" class="node">
<title>glibc&#45;boot</title>
<polygon fill="#ffff00" stroke="black" points="210,-284 16,-284 16,-231 210,-231 210,-284"/>
<text text-anchor="middle" x="113" y="-268.8" font-family="Times,serif" font-size="14.00">glibc&#45;boot</text>
<text text-anchor="middle" x="113" y="-253.8" font-family="Times,serif" font-size="14.00">built by: gcc&#45;boot</text>
<text text-anchor="middle" x="113" y="-238.8" font-family="Times,serif" font-size="14.00">bundles: libgcc_s.so&#45;boot</text>
</g>
<!-- gcc&#45;nixpkgs&#45;ideal -->
<g id="node5" class="node">
<title>gcc&#45;nixpkgs&#45;ideal</title>
<polygon fill="#00ffff" stroke="black" points="533.5,-76.5 312.5,-76.5 312.5,-23.5 533.5,-23.5 533.5,-76.5"/>
<text text-anchor="middle" x="423" y="-61.3" font-family="Times,serif" font-size="14.00">gcc&#45;nixpkgs</text>
<text text-anchor="middle" x="423" y="-46.3" font-family="Times,serif" font-size="14.00">built by: gcc&#45;nixpkgs</text>
<text text-anchor="middle" x="423" y="-31.3" font-family="Times,serif" font-size="14.00">linked against: glibc&#45;nixpkgs</text>
</g>
<!-- gcc&#45;nixpkgs&#45;by&#45;boot&#45;&gt;gcc&#45;nixpkgs&#45;ideal -->
<g id="edge3" class="edge">
<title>gcc&#45;nixpkgs&#45;by&#45;boot&#45;&gt;gcc&#45;nixpkgs&#45;ideal</title>
<path fill="none" stroke="black" d="M411.67,-130.69C413.49,-117.92 415.71,-102.27 417.71,-88.22"/>
<polygon fill="black" stroke="black" points="421.16,-88.8 419.1,-78.41 414.23,-87.81 421.16,-88.8"/>
</g>
<!-- glibc&#45;nixpkgs&#45;ideal -->
<g id="node6" class="node">
<title>glibc&#45;nixpkgs&#45;ideal</title>
<polygon fill="none" stroke="black" points="294.5,-84 41.5,-84 41.5,-16 294.5,-16 294.5,-84"/>
<text text-anchor="middle" x="168" y="-68.8" font-family="Times,serif" font-size="14.00">glibc&#45;nixpkgs</text>
<text text-anchor="middle" x="168" y="-53.8" font-family="Times,serif" font-size="14.00">same as intermediate, no rebuild</text>
<text text-anchor="middle" x="168" y="-38.8" font-family="Times,serif" font-size="14.00">built by: gcc&#45;nixpkgs</text>
<text text-anchor="middle" x="168" y="-23.8" font-family="Times,serif" font-size="14.00">bundles: libgcc_s.so&#45;nixpkgs</text>
</g>
<!-- glibc&#45;nixpkgs&#45;by&#45;nixpkgs&#45;&gt;glibc&#45;nixpkgs&#45;ideal -->
<g id="edge4" class="edge">
<title>glibc&#45;nixpkgs&#45;by&#45;nixpkgs&#45;&gt;glibc&#45;nixpkgs&#45;ideal</title>
<path fill="none" stroke="black" d="M178.58,-130.69C177.16,-120.06 175.49,-107.43 173.89,-95.4"/>
<polygon fill="black" stroke="black" points="177.38,-95.08 172.6,-85.63 170.44,-96 177.38,-95.08"/>
</g>
</g>
</svg>
