<?xml version="1.0" encoding="UTF-8" standalone="no"?>
<!DOCTYPE svg PUBLIC "-//W3C//DTD SVG 1.1//EN"
 "http://www.w3.org/Graphics/SVG/1.1/DTD/svg11.dtd">
<!-- Generated by graphviz version 10.0.1 (0)
 -->
<!-- Title: G Pages: 1 -->
<svg width="530pt" height="360pt"
 viewBox="0.00 0.00 530.00 360.25" xmlns="http://www.w3.org/2000/svg" xmlns:xlink="http://www.w3.org/1999/xlink">
<g id="graph0" class="graph" transform="scale(1 1) rotate(0) translate(4 356.25)">
<title>G</title>
<polygon fill="white" stroke="none" points="-4,4 -4,-356.25 526,-356.25 526,4 -4,4"/>
<g id="clust1" class="cluster">
<title>clusterBoot</title>
<polygon fill="none" stroke="black" points="62,-243.25 62,-344.25 486,-344.25 486,-243.25 62,-243.25"/>
<text text-anchor="middle" x="274" y="-326.95" font-family="Times,serif" font-size="14.00">bootstrapTools</text>
</g>
<g id="clust2" class="cluster">
<title>clusterIntermediate</title>
<polygon fill="none" stroke="black" points="34,-134.25 34,-235.25 482,-235.25 482,-134.25 34,-134.25"/>
<text text-anchor="middle" x="258" y="-217.95" font-family="Times,serif" font-size="14.00">intermediate (or fresh&#45;bootstrapTools)</text>
</g>
<g id="clust3" class="cluster">
<title>clusterideal</title>
<polygon fill="none" stroke="black" points="8,-8 8,-126.25 514,-126.25 514,-8 8,-8"/>
<text text-anchor="middle" x="261" y="-108.95" font-family="Times,serif" font-size="14.00">ideal</text>
</g>
<!-- gcc&#45;boot -->
<g id="node1" class="node">
<title>gcc&#45;boot</title>
<polygon fill="#ffff00" stroke="black" points="266,-311 70,-311 70,-251.25 266,-251.25 266,-311"/>
<text text-anchor="middle" x="168" y="-293.7" font-family="Times,serif" font-size="14.00">gcc&#45;boot</text>
<text text-anchor="middle" x="168" y="-276.45" font-family="Times,serif" font-size="14.00">built by: gcc&#45;boot</text>
<text text-anchor="middle" x="168" y="-259.2" font-family="Times,serif" font-size="14.00">linked against: glibc&#45;boot</text>
</g>
<!-- gcc&#45;nixpkgs&#45;by&#45;boot -->
<g id="node3" class="node">
<title>gcc&#45;nixpkgs&#45;by&#45;boot</title>
<polygon fill="#00ff00" stroke="black" points="238,-202 42,-202 42,-142.25 238,-142.25 238,-202"/>
<text text-anchor="middle" x="140" y="-184.7" font-family="Times,serif" font-size="14.00">gcc&#45;nixpkgs</text>
<text text-anchor="middle" x="140" y="-167.45" font-family="Times,serif" font-size="14.00">built by: gcc&#45;boot</text>
<text text-anchor="middle" x="140" y="-150.2" font-family="Times,serif" font-size="14.00">linked against: glibc&#45;boot</text>
</g>
<!-- gcc&#45;boot&#45;&gt;gcc&#45;nixpkgs&#45;by&#45;boot -->
<g id="edge1" class="edge">
<title>gcc&#45;boot&#45;&gt;gcc&#45;nixpkgs&#45;by&#45;boot</title>
<path fill="none" stroke="black" d="M160.35,-250.89C157.32,-239.33 153.8,-225.85 150.54,-213.4"/>
<polygon fill="black" stroke="black" points="153.94,-212.58 148.03,-203.79 147.17,-214.35 153.94,-212.58"/>
</g>
<!-- glibc&#45;nixpkgs&#45;by&#45;nixpkgs -->
<g id="node4" class="node">
<title>glibc&#45;nixpkgs&#45;by&#45;nixpkgs</title>
<polygon fill="#ff0000" stroke="black" points="473.88,-202 256.12,-202 256.12,-142.25 473.88,-142.25 473.88,-202"/>
<text text-anchor="middle" x="365" y="-184.7" font-family="Times,serif" font-size="14.00">glibc&#45;nixpkgs</text>
<text text-anchor="middle" x="365" y="-167.45" font-family="Times,serif" font-size="14.00">built by: gcc&#45;nixpkgs</text>
<text text-anchor="middle" x="365" y="-150.2" font-family="Times,serif" font-size="14.00">bundles: libgcc_s.so&#45;nixpkgs</text>
</g>
<!-- gcc&#45;boot&#45;&gt;glibc&#45;nixpkgs&#45;by&#45;nixpkgs -->
<g id="edge2" class="edge">
<title>gcc&#45;boot&#45;&gt;glibc&#45;nixpkgs&#45;by&#45;nixpkgs</title>
<path fill="none" stroke="black" d="M221.83,-250.89C246.37,-237.56 275.6,-221.68 301.24,-207.76"/>
<polygon fill="black" stroke="black" points="302.79,-210.9 309.9,-203.05 299.45,-204.75 302.79,-210.9"/>
</g>
<!-- glibc&#45;boot -->
<g id="node2" class="node">
<title>glibc&#45;boot</title>
<polygon fill="#ffff00" stroke="black" points="477.88,-311 284.12,-311 284.12,-251.25 477.88,-251.25 477.88,-311"/>
<text text-anchor="middle" x="381" y="-293.7" font-family="Times,serif" font-size="14.00">glibc&#45;boot</text>
<text text-anchor="middle" x="381" y="-276.45" font-family="Times,serif" font-size="14.00">built by: gcc&#45;boot</text>
<text text-anchor="middle" x="381" y="-259.2" font-family="Times,serif" font-size="14.00">bundles: libgcc_s.so&#45;boot</text>
</g>
<!-- gcc&#45;nixpkgs&#45;ideal -->
<g id="node5" class="node">
<title>gcc&#45;nixpkgs&#45;ideal</title>
<polygon fill="#00ffff" stroke="black" points="236,-84.38 16,-84.38 16,-24.62 236,-24.62 236,-84.38"/>
<text text-anchor="middle" x="126" y="-67.08" font-family="Times,serif" font-size="14.00">gcc&#45;nixpkgs</text>
<text text-anchor="middle" x="126" y="-49.83" font-family="Times,serif" font-size="14.00">built by: gcc&#45;nixpkgs</text>
<text text-anchor="middle" x="126" y="-32.58" font-family="Times,serif" font-size="14.00">linked against: glibc&#45;nixpkgs</text>
</g>
<!-- gcc&#45;nixpkgs&#45;by&#45;boot&#45;&gt;gcc&#45;nixpkgs&#45;ideal -->
<g id="edge3" class="edge">
<title>gcc&#45;nixpkgs&#45;by&#45;boot&#45;&gt;gcc&#45;nixpkgs&#45;ideal</title>
<path fill="none" stroke="black" d="M136.47,-141.95C134.78,-127.98 132.72,-111.03 130.89,-95.85"/>
<polygon fill="black" stroke="black" points="134.39,-95.68 129.71,-86.17 127.44,-96.52 134.39,-95.68"/>
</g>
<!-- glibc&#45;nixpkgs&#45;ideal -->
<g id="node6" class="node">
<title>glibc&#45;nixpkgs&#45;ideal</title>
<polygon fill="none" stroke="black" points="506.12,-93 253.88,-93 253.88,-16 506.12,-16 506.12,-93"/>
<text text-anchor="middle" x="380" y="-75.7" font-family="Times,serif" font-size="14.00">glibc&#45;nixpkgs</text>
<text text-anchor="middle" x="380" y="-58.45" font-family="Times,serif" font-size="14.00">same as intermediate, no rebuild</text>
<text text-anchor="middle" x="380" y="-41.2" font-family="Times,serif" font-size="14.00">built by: gcc&#45;nixpkgs</text>
<text text-anchor="middle" x="380" y="-23.95" font-family="Times,serif" font-size="14.00">bundles: libgcc_s.so&#45;nixpkgs</text>
</g>
<!-- glibc&#45;nixpkgs&#45;by&#45;nixpkgs&#45;&gt;glibc&#45;nixpkgs&#45;ideal -->
<g id="edge4" class="edge">
<title>glibc&#45;nixpkgs&#45;by&#45;nixpkgs&#45;&gt;glibc&#45;nixpkgs&#45;ideal</title>
<path fill="none" stroke="black" d="M368.79,-141.95C370.25,-130.68 371.96,-117.47 373.6,-104.81"/>
<polygon fill="black" stroke="black" points="377.07,-105.29 374.89,-94.92 370.13,-104.39 377.07,-105.29"/>
</g>
</g>
</svg>
