<?xml version="1.0" encoding="UTF-8" standalone="no"?>
<!DOCTYPE svg PUBLIC "-//W3C//DTD SVG 1.1//EN"
 "http://www.w3.org/Graphics/SVG/1.1/DTD/svg11.dtd">
<!-- Generated by graphviz version 12.2.0 (0)
 -->
<!-- Title: G Pages: 1 -->
<svg width="220pt" height="425pt"
 viewBox="0.00 0.00 219.83 425.00" xmlns="http://www.w3.org/2000/svg" xmlns:xlink="http://www.w3.org/1999/xlink">
<g id="graph0" class="graph" transform="scale(1 1) rotate(0) translate(4 421)">
<title>G</title>
<polygon fill="white" stroke="none" points="-4,4 -4,-421 215.83,-421 215.83,4 -4,4"/>
<g id="clust1" class="cluster">
<title>clusterStdenv1</title>
<polygon fill="none" stroke="black" points="23.83,-8 23.83,-301 103.83,-301 103.83,-8 23.83,-8"/>
<text text-anchor="middle" x="63.83" y="-283.7" font-family="Times,serif" font-size="14.00">pkgs1</text>
</g>
<g id="clust2" class="cluster">
<title>clusterStdenv2</title>
<polygon fill="none" stroke="black" points="123.83,-116 123.83,-409 203.83,-409 203.83,-116 123.83,-116"/>
<text text-anchor="middle" x="163.83" y="-391.7" font-family="Times,serif" font-size="14.00">pkgs2</text>
</g>
<!-- gcc&#45;1 -->
<g id="node1" class="node">
<title>gcc&#45;1</title>
<polygon fill="none" stroke="black" points="90.83,-52 36.83,-52 36.83,-16 90.83,-16 90.83,-52"/>
<text text-anchor="middle" x="63.83" y="-29.32" font-family="Times,serif" font-size="14.00">gcc</text>
</g>
<!-- glibc&#45;1 -->
<g id="node2" class="node">
<title>glibc&#45;1</title>
<polygon fill="none" stroke="black" points="90.83,-106 36.83,-106 36.83,-70 90.83,-70 90.83,-106"/>
<text text-anchor="middle" x="63.83" y="-83.33" font-family="Times,serif" font-size="14.00">glibc</text>
</g>
<!-- gcc&#45;1&#45;&gt;glibc&#45;1 -->
<g id="edge1" class="edge">
<title>gcc&#45;1&#45;&gt;glibc&#45;1</title>
<path fill="none" stroke="green" d="M63.83,-52.14C63.83,-54.13 63.83,-56.12 63.83,-58.11"/>
<polygon fill="green" stroke="green" points="60.33,-58 63.83,-68 67.33,-58 60.33,-58"/>
</g>
<!-- stdenv&#45;1 -->
<g id="node3" class="node">
<title>stdenv&#45;1</title>
<polygon fill="none" stroke="black" points="95.83,-160 31.83,-160 31.83,-124 95.83,-124 95.83,-160"/>
<text text-anchor="middle" x="63.83" y="-137.32" font-family="Times,serif" font-size="14.00">stdenv</text>
</g>
<!-- gcc&#45;1&#45;&gt;stdenv&#45;1 -->
<g id="edge2" class="edge">
<title>gcc&#45;1&#45;&gt;stdenv&#45;1</title>
<path fill="none" stroke="green" d="M36.46,-43.89C24.84,-49.62 12.46,-58.09 5.83,-70 -1.94,-83.98 -1.94,-92.02 5.83,-106 9.75,-113.05 15.69,-118.89 22.29,-123.68"/>
<polygon fill="green" stroke="green" points="19.98,-126.36 30.3,-128.75 23.72,-120.44 19.98,-126.36"/>
</g>
<!-- glibc&#45;1&#45;&gt;stdenv&#45;1 -->
<g id="edge3" class="edge">
<title>glibc&#45;1&#45;&gt;stdenv&#45;1</title>
<path fill="none" stroke="green" d="M63.83,-106.14C63.83,-108.13 63.83,-110.12 63.83,-112.11"/>
<polygon fill="green" stroke="green" points="60.33,-112 63.83,-122 67.33,-112 60.33,-112"/>
</g>
<!-- xz&#45;1 -->
<g id="node4" class="node">
<title>xz&#45;1</title>
<polygon fill="none" stroke="black" points="90.83,-214 36.83,-214 36.83,-178 90.83,-178 90.83,-214"/>
<text text-anchor="middle" x="63.83" y="-191.32" font-family="Times,serif" font-size="14.00">xz</text>
</g>
<!-- stdenv&#45;1&#45;&gt;xz&#45;1 -->
<g id="edge4" class="edge">
<title>stdenv&#45;1&#45;&gt;xz&#45;1</title>
<path fill="none" stroke="red" d="M63.83,-160.14C63.83,-162.13 63.83,-164.12 63.83,-166.11"/>
<polygon fill="red" stroke="red" points="60.33,-166 63.83,-176 67.33,-166 60.33,-166"/>
</g>
<!-- gcc&#45;2 -->
<g id="node6" class="node">
<title>gcc&#45;2</title>
<polygon fill="none" stroke="black" points="190.83,-160 136.83,-160 136.83,-124 190.83,-124 190.83,-160"/>
<text text-anchor="middle" x="163.83" y="-137.32" font-family="Times,serif" font-size="14.00">gcc</text>
</g>
<!-- stdenv&#45;1&#45;&gt;gcc&#45;2 -->
<g id="edge9" class="edge">
<title>stdenv&#45;1&#45;&gt;gcc&#45;2</title>
<path fill="none" stroke="blue" d="M96.11,-142C105.35,-142 115.56,-142 125.16,-142"/>
<polygon fill="blue" stroke="blue" points="124.94,-145.5 134.94,-142 124.94,-138.5 124.94,-145.5"/>
</g>
<!-- ...&#45;1 -->
<g id="node5" class="node">
<title>...&#45;1</title>
<polygon fill="none" stroke="black" points="90.83,-268 36.83,-268 36.83,-232 90.83,-232 90.83,-268"/>
<text text-anchor="middle" x="63.83" y="-245.32" font-family="Times,serif" font-size="14.00">...</text>
</g>
<!-- glibc&#45;2 -->
<g id="node7" class="node">
<title>glibc&#45;2</title>
<polygon fill="none" stroke="black" points="190.83,-214 136.83,-214 136.83,-178 190.83,-178 190.83,-214"/>
<text text-anchor="middle" x="163.83" y="-191.32" font-family="Times,serif" font-size="14.00">glibc</text>
</g>
<!-- gcc&#45;2&#45;&gt;glibc&#45;2 -->
<g id="edge5" class="edge">
<title>gcc&#45;2&#45;&gt;glibc&#45;2</title>
<path fill="none" stroke="green" d="M163.83,-160.14C163.83,-162.13 163.83,-164.12 163.83,-166.11"/>
<polygon fill="green" stroke="green" points="160.33,-166 163.83,-176 167.33,-166 160.33,-166"/>
</g>
<!-- stdenv&#45;2 -->
<g id="node8" class="node">
<title>stdenv&#45;2</title>
<polygon fill="none" stroke="black" points="195.83,-268 131.83,-268 131.83,-232 195.83,-232 195.83,-268"/>
<text text-anchor="middle" x="163.83" y="-245.32" font-family="Times,serif" font-size="14.00">stdenv</text>
</g>
<!-- gcc&#45;2&#45;&gt;stdenv&#45;2 -->
<g id="edge6" class="edge">
<title>gcc&#45;2&#45;&gt;stdenv&#45;2</title>
<path fill="none" stroke="green" d="M136.41,-154.42C127.29,-160.14 118.32,-167.94 113.83,-178 107.32,-192.62 107.32,-199.38 113.83,-214 115.95,-218.75 119.06,-222.99 122.71,-226.74"/>
<polygon fill="green" stroke="green" points="120.38,-229.36 130.25,-233.21 124.94,-224.05 120.38,-229.36"/>
</g>
<!-- glibc&#45;2&#45;&gt;stdenv&#45;2 -->
<g id="edge7" class="edge">
<title>glibc&#45;2&#45;&gt;stdenv&#45;2</title>
<path fill="none" stroke="green" d="M163.83,-214.14C163.83,-216.13 163.83,-218.12 163.83,-220.11"/>
<polygon fill="green" stroke="green" points="160.33,-220 163.83,-230 167.33,-220 160.33,-220"/>
</g>
<!-- xz&#45;2 -->
<g id="node9" class="node">
<title>xz&#45;2</title>
<polygon fill="none" stroke="black" points="190.83,-322 136.83,-322 136.83,-286 190.83,-286 190.83,-322"/>
<text text-anchor="middle" x="163.83" y="-299.32" font-family="Times,serif" font-size="14.00">xz</text>
</g>
<!-- stdenv&#45;2&#45;&gt;xz&#45;2 -->
<g id="edge8" class="edge">
<title>stdenv&#45;2&#45;&gt;xz&#45;2</title>
<path fill="none" stroke="red" d="M163.83,-268.14C163.83,-270.13 163.83,-272.12 163.83,-274.11"/>
<polygon fill="red" stroke="red" points="160.33,-274 163.83,-284 167.33,-274 160.33,-274"/>
</g>
<!-- ...&#45;2 -->
<g id="node10" class="node">
<title>...&#45;2</title>
<polygon fill="none" stroke="black" points="190.83,-376 136.83,-376 136.83,-340 190.83,-340 190.83,-376"/>
<text text-anchor="middle" x="163.83" y="-353.32" font-family="Times,serif" font-size="14.00">...</text>
</g>
</g>
</svg>
