<?xml version="1.0" encoding="UTF-8" standalone="no"?>
<!DOCTYPE svg PUBLIC "-//W3C//DTD SVG 1.1//EN"
 "http://www.w3.org/Graphics/SVG/1.1/DTD/svg11.dtd">
<!-- Generated by graphviz version 7.0.2 (0)
 -->
<!-- Title: G Pages: 1 -->
<svg width="222pt" height="423pt"
 viewBox="0.00 0.00 221.85 423.00" xmlns="http://www.w3.org/2000/svg" xmlns:xlink="http://www.w3.org/1999/xlink">
<g id="graph0" class="graph" transform="scale(1 1) rotate(0) translate(4 419)">
<title>G</title>
<polygon fill="white" stroke="none" points="-4,4 -4,-419 217.85,-419 217.85,4 -4,4"/>
<g id="clust1" class="cluster">
<title>clusterStdenv1</title>
<polygon fill="none" stroke="black" points="23.85,-116 23.85,-407 104.85,-407 104.85,-116 23.85,-116"/>
<text text-anchor="middle" x="64.35" y="-391.8" font-family="Times,serif" font-size="14.00">pkgs1</text>
</g>
<g id="clust2" class="cluster">
<title>clusterStdenv2</title>
<polygon fill="none" stroke="black" points="124.85,-8 124.85,-299 205.85,-299 205.85,-8 124.85,-8"/>
<text text-anchor="middle" x="165.35" y="-283.8" font-family="Times,serif" font-size="14.00">pkgs2</text>
</g>
<!-- gcc&#45;1 -->
<g id="node1" class="node">
<title>gcc&#45;1</title>
<polygon fill="none" stroke="black" points="91.35,-376 37.35,-376 37.35,-340 91.35,-340 91.35,-376"/>
<text text-anchor="middle" x="64.35" y="-354.3" font-family="Times,serif" font-size="14.00">gcc</text>
</g>
<!-- glibc&#45;1 -->
<g id="node2" class="node">
<title>glibc&#45;1</title>
<polygon fill="none" stroke="black" points="91.35,-322 37.35,-322 37.35,-286 91.35,-286 91.35,-322"/>
<text text-anchor="middle" x="64.35" y="-300.3" font-family="Times,serif" font-size="14.00">glibc</text>
</g>
<!-- gcc&#45;1&#45;&gt;glibc&#45;1 -->
<g id="edge1" class="edge">
<title>gcc&#45;1&#45;&gt;glibc&#45;1</title>
<path fill="none" stroke="green" d="M64.35,-339.51C64.35,-337.52 64.35,-335.53 64.35,-333.54"/>
<polygon fill="green" stroke="green" points="67.85,-333.65 64.35,-323.65 60.85,-333.65 67.85,-333.65"/>
</g>
<!-- stdenv&#45;1 -->
<g id="node3" class="node">
<title>stdenv&#45;1</title>
<polygon fill="none" stroke="black" points="96.85,-268 31.85,-268 31.85,-232 96.85,-232 96.85,-268"/>
<text text-anchor="middle" x="64.35" y="-246.3" font-family="Times,serif" font-size="14.00">stdenv</text>
</g>
<!-- gcc&#45;1&#45;&gt;stdenv&#45;1 -->
<g id="edge2" class="edge">
<title>gcc&#45;1&#45;&gt;stdenv&#45;1</title>
<path fill="none" stroke="green" d="M37.06,-348.31C25.25,-342.6 12.6,-334.08 5.85,-322 -1.95,-308.03 -1.95,-299.97 5.85,-286 9.68,-279.15 15.41,-273.44 21.81,-268.73"/>
<polygon fill="green" stroke="green" points="23.69,-271.69 30.25,-263.37 19.93,-265.78 23.69,-271.69"/>
</g>
<!-- glibc&#45;1&#45;&gt;stdenv&#45;1 -->
<g id="edge3" class="edge">
<title>glibc&#45;1&#45;&gt;stdenv&#45;1</title>
<path fill="none" stroke="green" d="M64.35,-285.51C64.35,-283.52 64.35,-281.53 64.35,-279.54"/>
<polygon fill="green" stroke="green" points="67.85,-279.65 64.35,-269.65 60.85,-279.65 67.85,-279.65"/>
</g>
<!-- xz&#45;1 -->
<g id="node4" class="node">
<title>xz&#45;1</title>
<polygon fill="none" stroke="black" points="91.35,-214 37.35,-214 37.35,-178 91.35,-178 91.35,-214"/>
<text text-anchor="middle" x="64.35" y="-192.3" font-family="Times,serif" font-size="14.00">xz</text>
</g>
<!-- stdenv&#45;1&#45;&gt;xz&#45;1 -->
<g id="edge4" class="edge">
<title>stdenv&#45;1&#45;&gt;xz&#45;1</title>
<path fill="none" stroke="red" d="M64.35,-231.51C64.35,-229.52 64.35,-227.53 64.35,-225.54"/>
<polygon fill="red" stroke="red" points="67.85,-225.65 64.35,-215.65 60.85,-225.65 67.85,-225.65"/>
</g>
<!-- gcc&#45;2 -->
<g id="node6" class="node">
<title>gcc&#45;2</title>
<polygon fill="none" stroke="black" points="192.35,-268 138.35,-268 138.35,-232 192.35,-232 192.35,-268"/>
<text text-anchor="middle" x="165.35" y="-246.3" font-family="Times,serif" font-size="14.00">gcc</text>
</g>
<!-- stdenv&#45;1&#45;&gt;gcc&#45;2 -->
<g id="edge9" class="edge">
<title>stdenv&#45;1&#45;&gt;gcc&#45;2</title>
<path fill="none" stroke="blue" d="M97.22,-250C106.63,-250 117.01,-250 126.74,-250"/>
<polygon fill="blue" stroke="blue" points="126.66,-253.5 136.66,-250 126.66,-246.5 126.66,-253.5"/>
</g>
<!-- ...&#45;1 -->
<g id="node5" class="node">
<title>...&#45;1</title>
<polygon fill="none" stroke="black" points="91.35,-160 37.35,-160 37.35,-124 91.35,-124 91.35,-160"/>
<text text-anchor="middle" x="64.35" y="-138.3" font-family="Times,serif" font-size="14.00">...</text>
</g>
<!-- glibc&#45;2 -->
<g id="node7" class="node">
<title>glibc&#45;2</title>
<polygon fill="none" stroke="black" points="192.35,-214 138.35,-214 138.35,-178 192.35,-178 192.35,-214"/>
<text text-anchor="middle" x="165.35" y="-192.3" font-family="Times,serif" font-size="14.00">glibc</text>
</g>
<!-- gcc&#45;2&#45;&gt;glibc&#45;2 -->
<g id="edge5" class="edge">
<title>gcc&#45;2&#45;&gt;glibc&#45;2</title>
<path fill="none" stroke="green" d="M165.35,-231.51C165.35,-229.52 165.35,-227.53 165.35,-225.54"/>
<polygon fill="green" stroke="green" points="168.85,-225.65 165.35,-215.65 161.85,-225.65 168.85,-225.65"/>
</g>
<!-- stdenv&#45;2 -->
<g id="node8" class="node">
<title>stdenv&#45;2</title>
<polygon fill="none" stroke="black" points="197.85,-160 132.85,-160 132.85,-124 197.85,-124 197.85,-160"/>
<text text-anchor="middle" x="165.35" y="-138.3" font-family="Times,serif" font-size="14.00">stdenv</text>
</g>
<!-- gcc&#45;2&#45;&gt;stdenv&#45;2 -->
<g id="edge6" class="edge">
<title>gcc&#45;2&#45;&gt;stdenv&#45;2</title>
<path fill="none" stroke="green" d="M137.9,-237.82C128.6,-232.09 119.41,-224.23 114.85,-214 108.34,-199.38 108.34,-192.62 114.85,-178 117.04,-173.09 120.29,-168.73 124.11,-164.89"/>
<polygon fill="green" stroke="green" points="126.05,-167.83 131.42,-158.7 121.53,-162.49 126.05,-167.83"/>
</g>
<!-- glibc&#45;2&#45;&gt;stdenv&#45;2 -->
<g id="edge7" class="edge">
<title>glibc&#45;2&#45;&gt;stdenv&#45;2</title>
<path fill="none" stroke="green" d="M165.35,-177.51C165.35,-175.52 165.35,-173.53 165.35,-171.54"/>
<polygon fill="green" stroke="green" points="168.85,-171.65 165.35,-161.65 161.85,-171.65 168.85,-171.65"/>
</g>
<!-- xz&#45;2 -->
<g id="node9" class="node">
<title>xz&#45;2</title>
<polygon fill="none" stroke="black" points="192.35,-106 138.35,-106 138.35,-70 192.35,-70 192.35,-106"/>
<text text-anchor="middle" x="165.35" y="-84.3" font-family="Times,serif" font-size="14.00">xz</text>
</g>
<!-- stdenv&#45;2&#45;&gt;xz&#45;2 -->
<g id="edge8" class="edge">
<title>stdenv&#45;2&#45;&gt;xz&#45;2</title>
<path fill="none" stroke="red" d="M165.35,-123.51C165.35,-121.52 165.35,-119.53 165.35,-117.54"/>
<polygon fill="red" stroke="red" points="168.85,-117.65 165.35,-107.65 161.85,-117.65 168.85,-117.65"/>
</g>
<!-- ...&#45;2 -->
<g id="node10" class="node">
<title>...&#45;2</title>
<polygon fill="none" stroke="black" points="192.35,-52 138.35,-52 138.35,-16 192.35,-16 192.35,-52"/>
<text text-anchor="middle" x="165.35" y="-30.3" font-family="Times,serif" font-size="14.00">...</text>
</g>
</g>
</svg>
