<?xml version="1.0" encoding="UTF-8" standalone="no"?>
<!DOCTYPE svg PUBLIC "-//W3C//DTD SVG 1.1//EN"
 "http://www.w3.org/Graphics/SVG/1.1/DTD/svg11.dtd">
<!-- Generated by graphviz version 7.0.2 (0)
 -->
<!-- Title: G Pages: 1 -->
<svg width="115pt" height="422pt"
 viewBox="0.00 0.00 115.32 422.00" xmlns="http://www.w3.org/2000/svg" xmlns:xlink="http://www.w3.org/1999/xlink">
<g id="graph0" class="graph" transform="scale(1 1) rotate(0) translate(4 418)">
<title>G</title>
<polygon fill="white" stroke="none" points="-4,4 -4,-418 111.32,-418 111.32,4 -4,4"/>
<!-- gcc -->
<g id="node1" class="node">
<title>gcc</title>
<polygon fill="none" stroke="black" points="96.82,-360 42.82,-360 42.82,-324 96.82,-324 96.82,-360"/>
<text text-anchor="middle" x="69.82" y="-338.3" font-family="Times,serif" font-size="14.00">gcc</text>
</g>
<!-- glibc -->
<g id="node2" class="node">
<title>glibc</title>
<polygon fill="none" stroke="black" points="96.82,-306 42.82,-306 42.82,-270 96.82,-270 96.82,-306"/>
<text text-anchor="middle" x="69.82" y="-284.3" font-family="Times,serif" font-size="14.00">glibc</text>
</g>
<!-- gcc&#45;&gt;glibc -->
<g id="edge1" class="edge">
<title>gcc&#45;&gt;glibc</title>
<path fill="none" stroke="green" d="M69.82,-323.51C69.82,-321.52 69.82,-319.53 69.82,-317.54"/>
<polygon fill="green" stroke="green" points="73.32,-317.65 69.82,-307.65 66.32,-317.65 73.32,-317.65"/>
</g>
<!-- stdenv -->
<g id="node3" class="node">
<title>stdenv</title>
<polygon fill="none" stroke="black" points="102.32,-252 37.32,-252 37.32,-216 102.32,-216 102.32,-252"/>
<text text-anchor="middle" x="69.82" y="-230.3" font-family="Times,serif" font-size="14.00">stdenv</text>
</g>
<!-- gcc&#45;&gt;stdenv -->
<g id="edge2" class="edge">
<title>gcc&#45;&gt;stdenv</title>
<path fill="none" stroke="green" d="M42.43,-331.22C31.65,-325.46 20.41,-317.2 14.32,-306 6.68,-291.94 6.68,-284.06 14.32,-270 17.55,-264.05 22.24,-258.93 27.54,-254.58"/>
<polygon fill="green" stroke="green" points="29.51,-257.47 35.65,-248.84 25.46,-251.76 29.51,-257.47"/>
</g>
<!-- glibc&#45;&gt;stdenv -->
<g id="edge3" class="edge">
<title>glibc&#45;&gt;stdenv</title>
<path fill="none" stroke="green" d="M69.82,-269.51C69.82,-267.52 69.82,-265.53 69.82,-263.54"/>
<polygon fill="green" stroke="green" points="73.32,-263.65 69.82,-253.65 66.32,-263.65 73.32,-263.65"/>
</g>
<!-- re2c -->
<g id="node4" class="node">
<title>re2c</title>
<polygon fill="none" stroke="black" points="96.82,-198 42.82,-198 42.82,-162 96.82,-162 96.82,-198"/>
<text text-anchor="middle" x="69.82" y="-176.3" font-family="Times,serif" font-size="14.00">re2c</text>
</g>
<!-- stdenv&#45;&gt;re2c -->
<g id="edge4" class="edge">
<title>stdenv&#45;&gt;re2c</title>
<path fill="none" stroke="red" d="M69.82,-215.51C69.82,-213.52 69.82,-211.53 69.82,-209.54"/>
<polygon fill="red" stroke="red" points="73.32,-209.65 69.82,-199.65 66.32,-209.65 73.32,-209.65"/>
</g>
<!-- python3 -->
<g id="node5" class="node">
<title>python3</title>
<polygon fill="none" stroke="black" points="107.32,-90 32.32,-90 32.32,-54 107.32,-54 107.32,-90"/>
<text text-anchor="middle" x="69.82" y="-68.3" font-family="Times,serif" font-size="14.00">python3</text>
</g>
<!-- stdenv&#45;&gt;python3 -->
<g id="edge5" class="edge">
<title>stdenv&#45;&gt;python3</title>
<path fill="none" stroke="red" d="M36.88,-220.04C27.95,-214.54 19.37,-207.28 14.32,-198 -4.77,-162.85 -4.77,-143.15 14.32,-108 16.63,-103.74 19.69,-99.91 23.19,-96.48"/>
<polygon fill="red" stroke="red" points="25.35,-99.23 30.82,-90.16 20.89,-93.84 25.35,-99.23"/>
</g>
<!-- php -->
<g id="node6" class="node">
<title>php</title>
<polygon fill="none" stroke="black" points="96.82,-144 42.82,-144 42.82,-108 96.82,-108 96.82,-144"/>
<text text-anchor="middle" x="69.82" y="-122.3" font-family="Times,serif" font-size="14.00">php</text>
</g>
<!-- stdenv&#45;&gt;php -->
<g id="edge6" class="edge">
<title>stdenv&#45;&gt;php</title>
<path fill="none" stroke="red" d="M36.88,-220.04C27.95,-214.54 19.37,-207.28 14.32,-198 6.68,-183.94 6.68,-176.06 14.32,-162 18.6,-154.12 25.43,-147.7 32.86,-142.58"/>
<polygon fill="red" stroke="red" points="34.4,-145.74 41.14,-137.57 30.77,-139.75 34.4,-145.74"/>
</g>
<!-- xz -->
<g id="node7" class="node">
<title>xz</title>
<polygon fill="none" stroke="black" points="96.82,-36 42.82,-36 42.82,0 96.82,0 96.82,-36"/>
<text text-anchor="middle" x="69.82" y="-14.3" font-family="Times,serif" font-size="14.00">xz</text>
</g>
<!-- stdenv&#45;&gt;xz -->
<g id="edge7" class="edge">
<title>stdenv&#45;&gt;xz</title>
<path fill="none" stroke="red" d="M36.88,-220.04C27.95,-214.54 19.37,-207.28 14.32,-198 -0.95,-169.88 -0.95,-82.12 14.32,-54 18.6,-46.12 25.43,-39.7 32.86,-34.58"/>
<polygon fill="red" stroke="red" points="34.4,-37.74 41.14,-29.57 30.77,-31.75 34.4,-37.74"/>
</g>
<!-- re2c&#45;&gt;php -->
<g id="edge9" class="edge">
<title>re2c&#45;&gt;php</title>
<path fill="none" stroke="cyan" d="M69.82,-161.51C69.82,-159.52 69.82,-157.53 69.82,-155.54"/>
<polygon fill="cyan" stroke="cyan" points="73.32,-155.65 69.82,-145.65 66.32,-155.65 73.32,-155.65"/>
</g>
<!-- python3&#45;&gt;re2c -->
<g id="edge8" class="edge">
<title>python3&#45;&gt;re2c</title>
<path fill="none" stroke="cyan" d="M31.99,-89.19C24.9,-94.21 18.43,-100.43 14.32,-108 6.68,-122.06 6.68,-129.94 14.32,-144 18.6,-151.88 25.43,-158.3 32.86,-163.42"/>
<polygon fill="cyan" stroke="cyan" points="30.77,-166.25 41.14,-168.43 34.4,-160.26 30.77,-166.25"/>
</g>
<!-- ... -->
<g id="node8" class="node">
<title>...</title>
<polygon fill="none" stroke="black" points="96.82,-414 42.82,-414 42.82,-378 96.82,-378 96.82,-414"/>
<text text-anchor="middle" x="69.82" y="-392.3" font-family="Times,serif" font-size="14.00">...</text>
</g>
</g>
</svg>
