<?xml version="1.0" encoding="UTF-8" standalone="no"?>
<!DOCTYPE svg PUBLIC "-//W3C//DTD SVG 1.1//EN"
 "http://www.w3.org/Graphics/SVG/1.1/DTD/svg11.dtd">
<!-- Generated by graphviz version 12.2.0 (0)
 -->
<!-- Title: G Pages: 1 -->
<svg width="115pt" height="422pt"
 viewBox="0.00 0.00 114.79 422.00" xmlns="http://www.w3.org/2000/svg" xmlns:xlink="http://www.w3.org/1999/xlink">
<g id="graph0" class="graph" transform="scale(1 1) rotate(0) translate(4 418)">
<title>G</title>
<polygon fill="white" stroke="none" points="-4,4 -4,-418 110.79,-418 110.79,4 -4,4"/>
<!-- gcc -->
<g id="node1" class="node">
<title>gcc</title>
<polygon fill="none" stroke="black" points="96.54,-360 42.54,-360 42.54,-324 96.54,-324 96.54,-360"/>
<text text-anchor="middle" x="69.54" y="-337.32" font-family="Times,serif" font-size="14.00">gcc</text>
</g>
<!-- glibc -->
<g id="node2" class="node">
<title>glibc</title>
<polygon fill="none" stroke="black" points="96.54,-306 42.54,-306 42.54,-270 96.54,-270 96.54,-306"/>
<text text-anchor="middle" x="69.54" y="-283.32" font-family="Times,serif" font-size="14.00">glibc</text>
</g>
<!-- gcc&#45;&gt;glibc -->
<g id="edge1" class="edge">
<title>gcc&#45;&gt;glibc</title>
<path fill="none" stroke="green" d="M69.54,-323.51C69.54,-321.52 69.54,-319.53 69.54,-317.54"/>
<polygon fill="green" stroke="green" points="73.04,-317.65 69.54,-307.65 66.04,-317.65 73.04,-317.65"/>
</g>
<!-- stdenv -->
<g id="node3" class="node">
<title>stdenv</title>
<polygon fill="none" stroke="black" points="101.54,-252 37.54,-252 37.54,-216 101.54,-216 101.54,-252"/>
<text text-anchor="middle" x="69.54" y="-229.32" font-family="Times,serif" font-size="14.00">stdenv</text>
</g>
<!-- gcc&#45;&gt;stdenv -->
<g id="edge2" class="edge">
<title>gcc&#45;&gt;stdenv</title>
<path fill="none" stroke="green" d="M42.28,-331.19C31.54,-325.42 20.35,-317.17 14.29,-306 6.67,-291.93 6.67,-284.07 14.29,-270 17.66,-263.79 22.61,-258.48 28.19,-254"/>
<polygon fill="green" stroke="green" points="29.88,-257.09 36.09,-248.5 25.88,-251.35 29.88,-257.09"/>
</g>
<!-- glibc&#45;&gt;stdenv -->
<g id="edge3" class="edge">
<title>glibc&#45;&gt;stdenv</title>
<path fill="none" stroke="green" d="M69.54,-269.51C69.54,-267.52 69.54,-265.53 69.54,-263.54"/>
<polygon fill="green" stroke="green" points="73.04,-263.65 69.54,-253.65 66.04,-263.65 73.04,-263.65"/>
</g>
<!-- re2c -->
<g id="node4" class="node">
<title>re2c</title>
<polygon fill="none" stroke="black" points="96.54,-198 42.54,-198 42.54,-162 96.54,-162 96.54,-198"/>
<text text-anchor="middle" x="69.54" y="-175.32" font-family="Times,serif" font-size="14.00">re2c</text>
</g>
<!-- stdenv&#45;&gt;re2c -->
<g id="edge4" class="edge">
<title>stdenv&#45;&gt;re2c</title>
<path fill="none" stroke="red" d="M69.54,-215.51C69.54,-213.52 69.54,-211.53 69.54,-209.54"/>
<polygon fill="red" stroke="red" points="73.04,-209.65 69.54,-199.65 66.04,-209.65 73.04,-209.65"/>
</g>
<!-- python3 -->
<g id="node5" class="node">
<title>python3</title>
<polygon fill="none" stroke="black" points="106.79,-90 32.29,-90 32.29,-54 106.79,-54 106.79,-90"/>
<text text-anchor="middle" x="69.54" y="-67.33" font-family="Times,serif" font-size="14.00">python3</text>
</g>
<!-- stdenv&#45;&gt;python3 -->
<g id="edge5" class="edge">
<title>stdenv&#45;&gt;python3</title>
<path fill="none" stroke="red" d="M37.33,-220.36C28.23,-214.83 19.42,-207.46 14.29,-198 -4.76,-162.83 -4.76,-143.17 14.29,-108 16.6,-103.75 19.64,-99.93 23.12,-96.5"/>
<polygon fill="red" stroke="red" points="25.26,-99.27 30.71,-90.19 20.79,-93.89 25.26,-99.27"/>
</g>
<!-- php -->
<g id="node6" class="node">
<title>php</title>
<polygon fill="none" stroke="black" points="96.54,-144 42.54,-144 42.54,-108 96.54,-108 96.54,-144"/>
<text text-anchor="middle" x="69.54" y="-121.33" font-family="Times,serif" font-size="14.00">php</text>
</g>
<!-- stdenv&#45;&gt;php -->
<g id="edge6" class="edge">
<title>stdenv&#45;&gt;php</title>
<path fill="none" stroke="red" d="M37.33,-220.36C28.23,-214.83 19.42,-207.46 14.29,-198 6.67,-183.93 6.67,-176.07 14.29,-162 18.55,-154.14 25.35,-147.73 32.74,-142.61"/>
<polygon fill="red" stroke="red" points="34.26,-145.79 40.98,-137.6 30.62,-139.81 34.26,-145.79"/>
</g>
<!-- xz -->
<g id="node7" class="node">
<title>xz</title>
<polygon fill="none" stroke="black" points="96.54,-36 42.54,-36 42.54,0 96.54,0 96.54,-36"/>
<text text-anchor="middle" x="69.54" y="-13.32" font-family="Times,serif" font-size="14.00">xz</text>
</g>
<!-- stdenv&#45;&gt;xz -->
<g id="edge7" class="edge">
<title>stdenv&#45;&gt;xz</title>
<path fill="none" stroke="red" d="M37.33,-220.36C28.23,-214.83 19.42,-207.46 14.29,-198 -0.95,-169.87 -0.95,-82.13 14.29,-54 18.55,-46.14 25.35,-39.73 32.74,-34.61"/>
<polygon fill="red" stroke="red" points="34.26,-37.79 40.98,-29.6 30.62,-31.81 34.26,-37.79"/>
</g>
<!-- re2c&#45;&gt;php -->
<g id="edge9" class="edge">
<title>re2c&#45;&gt;php</title>
<path fill="none" stroke="cyan" d="M69.54,-161.51C69.54,-159.52 69.54,-157.53 69.54,-155.54"/>
<polygon fill="cyan" stroke="cyan" points="73.04,-155.65 69.54,-145.65 66.04,-155.65 73.04,-155.65"/>
</g>
<!-- python3&#45;&gt;re2c -->
<g id="edge8" class="edge">
<title>python3&#45;&gt;re2c</title>
<path fill="none" stroke="cyan" d="M31.88,-89.22C24.82,-94.24 18.39,-100.45 14.29,-108 6.67,-122.07 6.67,-129.93 14.29,-144 18.55,-151.86 25.35,-158.27 32.74,-163.39"/>
<polygon fill="cyan" stroke="cyan" points="30.62,-166.19 40.98,-168.4 34.26,-160.21 30.62,-166.19"/>
</g>
<!-- ... -->
<g id="node8" class="node">
<title>...</title>
<polygon fill="none" stroke="black" points="96.54,-414 42.54,-414 42.54,-378 96.54,-378 96.54,-414"/>
<text text-anchor="middle" x="69.54" y="-391.32" font-family="Times,serif" font-size="14.00">...</text>
</g>
</g>
</svg>
