<?xml version="1.0" encoding="UTF-8" standalone="no"?>
<!DOCTYPE svg PUBLIC "-//W3C//DTD SVG 1.1//EN"
 "http://www.w3.org/Graphics/SVG/1.1/DTD/svg11.dtd">
<!-- Generated by graphviz version 9.0.0 (0)
 -->
<!-- Title: G Pages: 1 -->
<svg width="220pt" height="425pt"
 viewBox="0.00 0.00 219.83 425.00" xmlns="http://www.w3.org/2000/svg" xmlns:xlink="http://www.w3.org/1999/xlink">
<g id="graph0" class="graph" transform="scale(1 1) rotate(0) translate(4 421)">
<title>G</title>
<polygon fill="white" stroke="none" points="-4,4 -4,-421 215.83,-421 215.83,4 -4,4"/>
<g id="clust1" class="cluster">
<title>clusterStdenv1</title>
<polygon fill="none" stroke="black" points="23.83,-116 23.83,-409 103.83,-409 103.83,-116 23.83,-116"/>
<text text-anchor="middle" x="63.83" y="-391.7" font-family="Times,serif" font-size="14.00">pkgs1</text>
</g>
<g id="clust2" class="cluster">
<title>clusterStdenv2</title>
<polygon fill="none" stroke="black" points="123.83,-8 123.83,-301 203.83,-301 203.83,-8 123.83,-8"/>
<text text-anchor="middle" x="163.83" y="-283.7" font-family="Times,serif" font-size="14.00">pkgs2</text>
</g>
<!-- gcc&#45;1 -->
<g id="node1" class="node">
<title>gcc&#45;1</title>
<polygon fill="none" stroke="black" points="90.83,-376 36.83,-376 36.83,-340 90.83,-340 90.83,-376"/>
<text text-anchor="middle" x="63.83" y="-353.32" font-family="Times,serif" font-size="14.00">gcc</text>
</g>
<!-- glibc&#45;1 -->
<g id="node2" class="node">
<title>glibc&#45;1</title>
<polygon fill="none" stroke="black" points="90.83,-322 36.83,-322 36.83,-286 90.83,-286 90.83,-322"/>
<text text-anchor="middle" x="63.83" y="-299.32" font-family="Times,serif" font-size="14.00">glibc</text>
</g>
<!-- gcc&#45;1&#45;&gt;glibc&#45;1 -->
<g id="edge1" class="edge">
<title>gcc&#45;1&#45;&gt;glibc&#45;1</title>
<path fill="none" stroke="green" d="M63.83,-339.51C63.83,-337.52 63.83,-335.53 63.83,-333.54"/>
<polygon fill="green" stroke="green" points="67.33,-333.65 63.83,-323.65 60.33,-333.65 67.33,-333.65"/>
</g>
<!-- stdenv&#45;1 -->
<g id="node3" class="node">
<title>stdenv&#45;1</title>
<polygon fill="none" stroke="black" points="95.83,-268 31.83,-268 31.83,-232 95.83,-232 95.83,-268"/>
<text text-anchor="middle" x="63.83" y="-245.32" font-family="Times,serif" font-size="14.00">stdenv</text>
</g>
<!-- gcc&#45;1&#45;&gt;stdenv&#45;1 -->
<g id="edge2" class="edge">
<title>gcc&#45;1&#45;&gt;stdenv&#45;1</title>
<path fill="none" stroke="green" d="M36.46,-348.11C24.84,-342.38 12.46,-333.91 5.83,-322 -1.94,-308.02 -1.94,-299.98 5.83,-286 9.75,-278.95 15.69,-273.11 22.29,-268.32"/>
<polygon fill="green" stroke="green" points="23.72,-271.56 30.3,-263.25 19.98,-265.64 23.72,-271.56"/>
</g>
<!-- glibc&#45;1&#45;&gt;stdenv&#45;1 -->
<g id="edge3" class="edge">
<title>glibc&#45;1&#45;&gt;stdenv&#45;1</title>
<path fill="none" stroke="green" d="M63.83,-285.51C63.83,-283.52 63.83,-281.53 63.83,-279.54"/>
<polygon fill="green" stroke="green" points="67.33,-279.65 63.83,-269.65 60.33,-279.65 67.33,-279.65"/>
</g>
<!-- xz&#45;1 -->
<g id="node4" class="node">
<title>xz&#45;1</title>
<polygon fill="none" stroke="black" points="90.83,-214 36.83,-214 36.83,-178 90.83,-178 90.83,-214"/>
<text text-anchor="middle" x="63.83" y="-191.32" font-family="Times,serif" font-size="14.00">xz</text>
</g>
<!-- stdenv&#45;1&#45;&gt;xz&#45;1 -->
<g id="edge4" class="edge">
<title>stdenv&#45;1&#45;&gt;xz&#45;1</title>
<path fill="none" stroke="red" d="M63.83,-231.51C63.83,-229.52 63.83,-227.53 63.83,-225.54"/>
<polygon fill="red" stroke="red" points="67.33,-225.65 63.83,-215.65 60.33,-225.65 67.33,-225.65"/>
</g>
<!-- gcc&#45;2 -->
<g id="node6" class="node">
<title>gcc&#45;2</title>
<polygon fill="none" stroke="black" points="190.83,-268 136.83,-268 136.83,-232 190.83,-232 190.83,-268"/>
<text text-anchor="middle" x="163.83" y="-245.32" font-family="Times,serif" font-size="14.00">gcc</text>
</g>
<!-- stdenv&#45;1&#45;&gt;gcc&#45;2 -->
<g id="edge9" class="edge">
<title>stdenv&#45;1&#45;&gt;gcc&#45;2</title>
<path fill="none" stroke="blue" d="M96.11,-250C105.35,-250 115.56,-250 125.16,-250"/>
<polygon fill="blue" stroke="blue" points="124.94,-253.5 134.94,-250 124.94,-246.5 124.94,-253.5"/>
</g>
<!-- ...&#45;1 -->
<g id="node5" class="node">
<title>...&#45;1</title>
<polygon fill="none" stroke="black" points="90.83,-160 36.83,-160 36.83,-124 90.83,-124 90.83,-160"/>
<text text-anchor="middle" x="63.83" y="-137.32" font-family="Times,serif" font-size="14.00">...</text>
</g>
<!-- glibc&#45;2 -->
<g id="node7" class="node">
<title>glibc&#45;2</title>
<polygon fill="none" stroke="black" points="190.83,-214 136.83,-214 136.83,-178 190.83,-178 190.83,-214"/>
<text text-anchor="middle" x="163.83" y="-191.32" font-family="Times,serif" font-size="14.00">glibc</text>
</g>
<!-- gcc&#45;2&#45;&gt;glibc&#45;2 -->
<g id="edge5" class="edge">
<title>gcc&#45;2&#45;&gt;glibc&#45;2</title>
<path fill="none" stroke="green" d="M163.83,-231.51C163.83,-229.52 163.83,-227.53 163.83,-225.54"/>
<polygon fill="green" stroke="green" points="167.33,-225.65 163.83,-215.65 160.33,-225.65 167.33,-225.65"/>
</g>
<!-- stdenv&#45;2 -->
<g id="node8" class="node">
<title>stdenv&#45;2</title>
<polygon fill="none" stroke="black" points="195.83,-160 131.83,-160 131.83,-124 195.83,-124 195.83,-160"/>
<text text-anchor="middle" x="163.83" y="-137.32" font-family="Times,serif" font-size="14.00">stdenv</text>
</g>
<!-- gcc&#45;2&#45;&gt;stdenv&#45;2 -->
<g id="edge6" class="edge">
<title>gcc&#45;2&#45;&gt;stdenv&#45;2</title>
<path fill="none" stroke="green" d="M136.41,-237.58C127.29,-231.86 118.32,-224.06 113.83,-214 107.32,-199.38 107.32,-192.62 113.83,-178 115.95,-173.25 119.06,-169.01 122.71,-165.26"/>
<polygon fill="green" stroke="green" points="124.94,-167.95 130.25,-158.79 120.38,-162.64 124.94,-167.95"/>
</g>
<!-- glibc&#45;2&#45;&gt;stdenv&#45;2 -->
<g id="edge7" class="edge">
<title>glibc&#45;2&#45;&gt;stdenv&#45;2</title>
<path fill="none" stroke="green" d="M163.83,-177.51C163.83,-175.52 163.83,-173.53 163.83,-171.54"/>
<polygon fill="green" stroke="green" points="167.33,-171.65 163.83,-161.65 160.33,-171.65 167.33,-171.65"/>
</g>
<!-- xz&#45;2 -->
<g id="node9" class="node">
<title>xz&#45;2</title>
<polygon fill="none" stroke="black" points="190.83,-106 136.83,-106 136.83,-70 190.83,-70 190.83,-106"/>
<text text-anchor="middle" x="163.83" y="-83.33" font-family="Times,serif" font-size="14.00">xz</text>
</g>
<!-- stdenv&#45;2&#45;&gt;xz&#45;2 -->
<g id="edge8" class="edge">
<title>stdenv&#45;2&#45;&gt;xz&#45;2</title>
<path fill="none" stroke="red" d="M163.83,-123.51C163.83,-121.52 163.83,-119.53 163.83,-117.54"/>
<polygon fill="red" stroke="red" points="167.33,-117.65 163.83,-107.65 160.33,-117.65 167.33,-117.65"/>
</g>
<!-- ...&#45;2 -->
<g id="node10" class="node">
<title>...&#45;2</title>
<polygon fill="none" stroke="black" points="190.83,-52 136.83,-52 136.83,-16 190.83,-16 190.83,-52"/>
<text text-anchor="middle" x="163.83" y="-29.32" font-family="Times,serif" font-size="14.00">...</text>
</g>
</g>
</svg>
