<?xml version="1.0" encoding="UTF-8" standalone="no"?>
<!DOCTYPE svg PUBLIC "-//W3C//DTD SVG 1.1//EN"
 "http://www.w3.org/Graphics/SVG/1.1/DTD/svg11.dtd">
<!-- Generated by graphviz version 9.0.0 (0)
 -->
<!-- Title: G Pages: 1 -->
<svg width="622pt" height="461pt"
 viewBox="0.00 0.00 622.25 461.00" xmlns="http://www.w3.org/2000/svg" xmlns:xlink="http://www.w3.org/1999/xlink">
<g id="graph0" class="graph" transform="scale(1 1) rotate(0) translate(4 457)">
<title>G</title>
<polygon fill="white" stroke="none" points="-4,4 -4,-457 618.25,-457 618.25,4 -4,4"/>
<g id="clust1" class="cluster">
<title>clusterStdenv1</title>
<polygon fill="none" stroke="black" points="13.5,-116 13.5,-445 93.5,-445 93.5,-116 13.5,-116"/>
<text text-anchor="middle" x="53.5" y="-427.7" font-family="Times,serif" font-size="14.00">pkgs1</text>
</g>
<g id="clust2" class="cluster">
<title>clusterStdenv2</title>
<polygon fill="none" stroke="black" points="164.5,-62 164.5,-409 270.5,-409 270.5,-62 164.5,-62"/>
<text text-anchor="middle" x="217.5" y="-391.7" font-family="Times,serif" font-size="14.00">pkgs2</text>
<text text-anchor="middle" x="217.5" y="-374.45" font-family="Times,serif" font-size="14.00">(gcc rebuild)</text>
</g>
<g id="clust3" class="cluster">
<title>clusterStdenv3</title>
<polygon fill="none" stroke="black" points="341.5,-8 341.5,-355 457.5,-355 457.5,-8 341.5,-8"/>
<text text-anchor="middle" x="399.5" y="-337.7" font-family="Times,serif" font-size="14.00">pkgs3</text>
<text text-anchor="middle" x="399.5" y="-320.45" font-family="Times,serif" font-size="14.00">(glibc rebuild)</text>
</g>
<g id="clust4" class="cluster">
<title>clusterStdenv4</title>
<polygon fill="none" stroke="black" points="517.25,-8 517.25,-355 614.25,-355 614.25,-8 517.25,-8"/>
<text text-anchor="middle" x="565.75" y="-337.7" font-family="Times,serif" font-size="14.00">pkgs4</text>
<text text-anchor="middle" x="565.75" y="-320.45" font-family="Times,serif" font-size="14.00">(xz rebuild)</text>
</g>
<!-- gcc&#45;1 -->
<g id="node1" class="node">
<title>gcc&#45;1</title>
<polygon fill="none" stroke="black" points="80.5,-412 26.5,-412 26.5,-376 80.5,-376 80.5,-412"/>
<text text-anchor="middle" x="53.5" y="-389.32" font-family="Times,serif" font-size="14.00">gcc</text>
</g>
<!-- stdenv&#45;1 -->
<g id="node3" class="node">
<title>stdenv&#45;1</title>
<polygon fill="none" stroke="black" points="85.5,-286 21.5,-286 21.5,-250 85.5,-250 85.5,-286"/>
<text text-anchor="middle" x="53.5" y="-263.32" font-family="Times,serif" font-size="14.00">stdenv</text>
</g>
<!-- gcc&#45;1&#45;&gt;stdenv&#45;1 -->
<g id="edge1" class="edge">
<title>gcc&#45;1&#45;&gt;stdenv&#45;1</title>
<path fill="none" stroke="green" d="M26.11,-381.39C17.24,-375.68 8.62,-367.95 4.5,-358 -1.62,-343.22 -1.26,-336.93 4.5,-322 8.39,-311.94 15.11,-302.6 22.36,-294.6"/>
<polygon fill="green" stroke="green" points="24.75,-297.16 29.25,-287.57 19.75,-292.26 24.75,-297.16"/>
</g>
<!-- glibc&#45;1 -->
<g id="node2" class="node">
<title>glibc&#45;1</title>
<polygon fill="none" stroke="black" points="80.5,-358 26.5,-358 26.5,-322 80.5,-322 80.5,-358"/>
<text text-anchor="middle" x="53.5" y="-335.32" font-family="Times,serif" font-size="14.00">glibc</text>
</g>
<!-- glibc&#45;1&#45;&gt;stdenv&#45;1 -->
<g id="edge2" class="edge">
<title>glibc&#45;1&#45;&gt;stdenv&#45;1</title>
<path fill="none" stroke="green" d="M53.5,-321.53C53.5,-313.55 53.5,-305.56 53.5,-297.57"/>
<polygon fill="green" stroke="green" points="57,-297.79 53.5,-287.79 50,-297.79 57,-297.79"/>
</g>
<!-- glibc&#45;2 -->
<g id="node7" class="node">
<title>glibc&#45;2</title>
<polygon fill="none" stroke="black" points="244.5,-358 190.5,-358 190.5,-322 244.5,-322 244.5,-358"/>
<text text-anchor="middle" x="217.5" y="-335.32" font-family="Times,serif" font-size="14.00">glibc</text>
</g>
<!-- glibc&#45;1&#45;&gt;glibc&#45;2 -->
<g id="edge15" class="edge">
<title>glibc&#45;1&#45;&gt;glibc&#45;2</title>
<path fill="none" stroke="cyan" d="M80.89,-340C107.49,-340 148.78,-340 178.82,-340"/>
<polygon fill="cyan" stroke="cyan" points="178.61,-343.5 188.61,-340 178.61,-336.5 178.61,-343.5"/>
<text text-anchor="middle" x="129" y="-343.95" font-family="Times,serif" font-size="14.00">reuse</text>
</g>
<!-- gcc&#45;2 -->
<g id="node6" class="node">
<title>gcc&#45;2</title>
<polygon fill="none" stroke="black" points="244.5,-304 190.5,-304 190.5,-268 244.5,-268 244.5,-304"/>
<text text-anchor="middle" x="217.5" y="-281.32" font-family="Times,serif" font-size="14.00">gcc</text>
</g>
<!-- stdenv&#45;1&#45;&gt;gcc&#45;2 -->
<g id="edge13" class="edge">
<title>stdenv&#45;1&#45;&gt;gcc&#45;2</title>
<path fill="none" stroke="blue" d="M85.74,-271.47C112.29,-274.42 150.48,-278.66 178.74,-281.8"/>
<polygon fill="blue" stroke="blue" points="178.35,-285.28 188.68,-282.91 179.12,-278.33 178.35,-285.28"/>
<text text-anchor="middle" x="129" y="-281.95" font-family="Times,serif" font-size="14.00">rebuild</text>
</g>
<!-- xz&#45;1 -->
<g id="node4" class="node">
<title>xz&#45;1</title>
<polygon fill="none" stroke="black" points="80.5,-214 26.5,-214 26.5,-178 80.5,-178 80.5,-214"/>
<text text-anchor="middle" x="53.5" y="-191.32" font-family="Times,serif" font-size="14.00">xz</text>
</g>
<!-- xz&#45;1&#45;&gt;stdenv&#45;1 -->
<g id="edge3" class="edge">
<title>xz&#45;1&#45;&gt;stdenv&#45;1</title>
<path fill="none" stroke="green" d="M53.5,-214.28C53.5,-222.27 53.5,-230.26 53.5,-238.24"/>
<polygon fill="green" stroke="green" points="50,-238.02 53.5,-248.02 57,-238.02 50,-238.02"/>
</g>
<!-- xz&#45;2 -->
<g id="node9" class="node">
<title>xz&#45;2</title>
<polygon fill="none" stroke="black" points="244.5,-160 190.5,-160 190.5,-124 244.5,-124 244.5,-160"/>
<text text-anchor="middle" x="217.5" y="-137.32" font-family="Times,serif" font-size="14.00">xz</text>
</g>
<!-- xz&#45;1&#45;&gt;xz&#45;2 -->
<g id="edge14" class="edge">
<title>xz&#45;1&#45;&gt;xz&#45;2</title>
<path fill="none" stroke="cyan" d="M80.89,-187.2C107.6,-178.3 149.15,-164.45 179.22,-154.43"/>
<polygon fill="cyan" stroke="cyan" points="180.31,-157.75 188.69,-151.27 178.1,-151.11 180.31,-157.75"/>
<text text-anchor="middle" x="129" y="-182.95" font-family="Times,serif" font-size="14.00">reuse</text>
</g>
<!-- ...&#45;1 -->
<g id="node5" class="node">
<title>...&#45;1</title>
<polygon fill="none" stroke="black" points="80.5,-160 26.5,-160 26.5,-124 80.5,-124 80.5,-160"/>
<text text-anchor="middle" x="53.5" y="-137.32" font-family="Times,serif" font-size="14.00">...</text>
</g>
<!-- stdenv&#45;2 -->
<g id="node8" class="node">
<title>stdenv&#45;2</title>
<polygon fill="none" stroke="black" points="249.5,-232 185.5,-232 185.5,-196 249.5,-196 249.5,-232"/>
<text text-anchor="middle" x="217.5" y="-209.32" font-family="Times,serif" font-size="14.00">stdenv</text>
</g>
<!-- gcc&#45;2&#45;&gt;stdenv&#45;2 -->
<g id="edge4" class="edge">
<title>gcc&#45;2&#45;&gt;stdenv&#45;2</title>
<path fill="none" stroke="green" d="M217.5,-267.53C217.5,-259.55 217.5,-251.56 217.5,-243.57"/>
<polygon fill="green" stroke="green" points="221,-243.79 217.5,-233.79 214,-243.79 221,-243.79"/>
</g>
<!-- gcc&#45;3 -->
<g id="node11" class="node">
<title>gcc&#45;3</title>
<polygon fill="none" stroke="black" points="426.5,-304 372.5,-304 372.5,-268 426.5,-268 426.5,-304"/>
<text text-anchor="middle" x="399.5" y="-281.32" font-family="Times,serif" font-size="14.00">gcc</text>
</g>
<!-- gcc&#45;2&#45;&gt;gcc&#45;3 -->
<g id="edge17" class="edge">
<title>gcc&#45;2&#45;&gt;gcc&#45;3</title>
<path fill="none" stroke="cyan" d="M244.68,-286C275.25,-286 326.07,-286 360.87,-286"/>
<polygon fill="cyan" stroke="cyan" points="360.49,-289.5 370.49,-286 360.49,-282.5 360.49,-289.5"/>
<text text-anchor="middle" x="306" y="-289.95" font-family="Times,serif" font-size="14.00">reuse</text>
</g>
<!-- glibc&#45;2&#45;&gt;stdenv&#45;2 -->
<g id="edge5" class="edge">
<title>glibc&#45;2&#45;&gt;stdenv&#45;2</title>
<path fill="none" stroke="green" d="M190.01,-336.9C169.4,-332.98 142.52,-324.09 129,-304 120.07,-290.72 121.17,-281.95 129,-268 139.02,-250.16 157.59,-237.51 175.15,-228.97"/>
<polygon fill="green" stroke="green" points="176.23,-232.32 183.91,-225.02 173.36,-225.93 176.23,-232.32"/>
</g>
<!-- glibc&#45;3 -->
<g id="node12" class="node">
<title>glibc&#45;3</title>
<polygon fill="none" stroke="black" points="426.5,-250 372.5,-250 372.5,-214 426.5,-214 426.5,-250"/>
<text text-anchor="middle" x="399.5" y="-227.32" font-family="Times,serif" font-size="14.00">glibc</text>
</g>
<!-- stdenv&#45;2&#45;&gt;glibc&#45;3 -->
<g id="edge16" class="edge">
<title>stdenv&#45;2&#45;&gt;glibc&#45;3</title>
<path fill="none" stroke="blue" d="M249.86,-217.14C280.72,-220.22 327.87,-224.94 360.77,-228.23"/>
<polygon fill="blue" stroke="blue" points="360.38,-231.71 370.68,-229.22 361.08,-224.74 360.38,-231.71"/>
<text text-anchor="middle" x="306" y="-228.95" font-family="Times,serif" font-size="14.00">rebuild</text>
</g>
<!-- xz&#45;2&#45;&gt;stdenv&#45;2 -->
<g id="edge6" class="edge">
<title>xz&#45;2&#45;&gt;stdenv&#45;2</title>
<path fill="none" stroke="green" d="M217.5,-160.28C217.5,-168.27 217.5,-176.26 217.5,-184.24"/>
<polygon fill="green" stroke="green" points="214,-184.02 217.5,-194.02 221,-184.02 214,-184.02"/>
</g>
<!-- xz&#45;3 -->
<g id="node14" class="node">
<title>xz&#45;3</title>
<polygon fill="none" stroke="black" points="426.5,-106 372.5,-106 372.5,-70 426.5,-70 426.5,-106"/>
<text text-anchor="middle" x="399.5" y="-83.33" font-family="Times,serif" font-size="14.00">xz</text>
</g>
<!-- xz&#45;2&#45;&gt;xz&#45;3 -->
<g id="edge18" class="edge">
<title>xz&#45;2&#45;&gt;xz&#45;3</title>
<path fill="none" stroke="cyan" d="M244.68,-134.15C275.38,-124.94 326.51,-109.6 361.32,-99.15"/>
<polygon fill="cyan" stroke="cyan" points="361.98,-102.61 370.55,-96.38 359.97,-95.91 361.98,-102.61"/>
<text text-anchor="middle" x="306" y="-126.95" font-family="Times,serif" font-size="14.00">reuse</text>
</g>
<!-- ...&#45;2 -->
<g id="node10" class="node">
<title>...&#45;2</title>
<polygon fill="none" stroke="black" points="244.5,-106 190.5,-106 190.5,-70 244.5,-70 244.5,-106"/>
<text text-anchor="middle" x="217.5" y="-83.33" font-family="Times,serif" font-size="14.00">...</text>
</g>
<!-- stdenv&#45;3 -->
<g id="node13" class="node">
<title>stdenv&#45;3</title>
<polygon fill="none" stroke="black" points="431.5,-178 367.5,-178 367.5,-142 431.5,-142 431.5,-178"/>
<text text-anchor="middle" x="399.5" y="-155.32" font-family="Times,serif" font-size="14.00">stdenv</text>
</g>
<!-- gcc&#45;3&#45;&gt;stdenv&#45;3 -->
<g id="edge7" class="edge">
<title>gcc&#45;3&#45;&gt;stdenv&#45;3</title>
<path fill="none" stroke="green" d="M372.28,-283.66C350.33,-280.17 320.77,-271.51 306,-250 296.95,-236.81 298,-227.86 306,-214 317.07,-194.82 337.83,-181.85 356.99,-173.43"/>
<polygon fill="green" stroke="green" points="358.03,-176.78 365.99,-169.78 355.4,-170.3 358.03,-176.78"/>
</g>
<!-- gcc&#45;4 -->
<g id="node16" class="node">
<title>gcc&#45;4</title>
<polygon fill="none" stroke="black" points="592.25,-304 538.25,-304 538.25,-268 592.25,-268 592.25,-304"/>
<text text-anchor="middle" x="565.25" y="-281.32" font-family="Times,serif" font-size="14.00">gcc</text>
</g>
<!-- gcc&#45;3&#45;&gt;gcc&#45;4 -->
<g id="edge19" class="edge">
<title>gcc&#45;3&#45;&gt;gcc&#45;4</title>
<path fill="none" stroke="cyan" d="M426.81,-286C453.79,-286 496,-286 526.53,-286"/>
<polygon fill="cyan" stroke="cyan" points="526.49,-289.5 536.49,-286 526.49,-282.5 526.49,-289.5"/>
<text text-anchor="middle" x="487.38" y="-289.95" font-family="Times,serif" font-size="14.00">reuse</text>
</g>
<!-- glibc&#45;3&#45;&gt;stdenv&#45;3 -->
<g id="edge8" class="edge">
<title>glibc&#45;3&#45;&gt;stdenv&#45;3</title>
<path fill="none" stroke="green" d="M399.5,-213.53C399.5,-205.55 399.5,-197.56 399.5,-189.57"/>
<polygon fill="green" stroke="green" points="403,-189.79 399.5,-179.79 396,-189.79 403,-189.79"/>
</g>
<!-- glibc&#45;4 -->
<g id="node17" class="node">
<title>glibc&#45;4</title>
<polygon fill="none" stroke="black" points="592.25,-250 538.25,-250 538.25,-214 592.25,-214 592.25,-250"/>
<text text-anchor="middle" x="565.25" y="-227.32" font-family="Times,serif" font-size="14.00">glibc</text>
</g>
<!-- glibc&#45;3&#45;&gt;glibc&#45;4 -->
<g id="edge20" class="edge">
<title>glibc&#45;3&#45;&gt;glibc&#45;4</title>
<path fill="none" stroke="cyan" d="M426.81,-232C453.79,-232 496,-232 526.53,-232"/>
<polygon fill="cyan" stroke="cyan" points="526.49,-235.5 536.49,-232 526.49,-228.5 526.49,-235.5"/>
<text text-anchor="middle" x="487.38" y="-235.95" font-family="Times,serif" font-size="14.00">reuse</text>
</g>
<!-- xz&#45;3&#45;&gt;stdenv&#45;3 -->
<g id="edge9" class="edge">
<title>xz&#45;3&#45;&gt;stdenv&#45;3</title>
<path fill="none" stroke="green" d="M399.5,-106.28C399.5,-114.27 399.5,-122.26 399.5,-130.24"/>
<polygon fill="green" stroke="green" points="396,-130.02 399.5,-140.02 403,-130.02 396,-130.02"/>
</g>
<!-- ...&#45;3 -->
<g id="node15" class="node">
<title>...&#45;3</title>
<polygon fill="none" stroke="black" points="426.5,-52 372.5,-52 372.5,-16 426.5,-16 426.5,-52"/>
<text text-anchor="middle" x="399.5" y="-29.32" font-family="Times,serif" font-size="14.00">...</text>
</g>
<!-- stdenv&#45;4 -->
<g id="node18" class="node">
<title>stdenv&#45;4</title>
<polygon fill="none" stroke="black" points="597.25,-178 533.25,-178 533.25,-142 597.25,-142 597.25,-178"/>
<text text-anchor="middle" x="565.25" y="-155.32" font-family="Times,serif" font-size="14.00">stdenv</text>
</g>
<!-- gcc&#45;4&#45;&gt;stdenv&#45;4 -->
<g id="edge10" class="edge">
<title>gcc&#45;4&#45;&gt;stdenv&#45;4</title>
<path fill="none" stroke="green" d="M537.93,-281.14C520.21,-276.43 498.45,-267.32 487.38,-250 478.76,-236.52 479.96,-228.18 487.38,-214 495.19,-199.08 509.21,-187.45 523.22,-178.88"/>
<polygon fill="green" stroke="green" points="524.55,-182.15 531.52,-174.17 521.1,-176.06 524.55,-182.15"/>
</g>
<!-- glibc&#45;4&#45;&gt;stdenv&#45;4 -->
<g id="edge11" class="edge">
<title>glibc&#45;4&#45;&gt;stdenv&#45;4</title>
<path fill="none" stroke="green" d="M565.25,-213.53C565.25,-205.55 565.25,-197.56 565.25,-189.57"/>
<polygon fill="green" stroke="green" points="568.75,-189.79 565.25,-179.79 561.75,-189.79 568.75,-189.79"/>
</g>
<!-- xz&#45;4 -->
<g id="node19" class="node">
<title>xz&#45;4</title>
<polygon fill="none" stroke="black" points="592.25,-106 538.25,-106 538.25,-70 592.25,-70 592.25,-106"/>
<text text-anchor="middle" x="565.25" y="-83.33" font-family="Times,serif" font-size="14.00">xz</text>
</g>
<!-- stdenv&#45;4&#45;&gt;xz&#45;4 -->
<g id="edge12" class="edge">
<title>stdenv&#45;4&#45;&gt;xz&#45;4</title>
<path fill="none" stroke="blue" d="M565.25,-141.59C565.25,-134.28 565.25,-125.69 565.25,-117.56"/>
<polygon fill="blue" stroke="blue" points="568.75,-117.68 565.25,-107.68 561.75,-117.68 568.75,-117.68"/>
<text text-anchor="middle" x="553.63" y="-119.33" font-family="Times,serif" font-size="14.00">rebuild</text>
</g>
<!-- ...&#45;4 -->
<g id="node20" class="node">
<title>...&#45;4</title>
<polygon fill="none" stroke="black" points="592.25,-52 538.25,-52 538.25,-16 592.25,-16 592.25,-52"/>
<text text-anchor="middle" x="565.25" y="-29.32" font-family="Times,serif" font-size="14.00">...</text>
</g>
</g>
</svg>
