<?xml version="1.0" encoding="UTF-8" standalone="no"?>
<!DOCTYPE svg PUBLIC "-//W3C//DTD SVG 1.1//EN"
 "http://www.w3.org/Graphics/SVG/1.1/DTD/svg11.dtd">
<!-- Generated by graphviz version 10.0.1 (0)
 -->
<!-- Title: G Pages: 1 -->
<svg width="622pt" height="385pt"
 viewBox="0.00 0.00 622.25 385.00" xmlns="http://www.w3.org/2000/svg" xmlns:xlink="http://www.w3.org/1999/xlink">
<g id="graph0" class="graph" transform="scale(1 1) rotate(0) translate(4 381)">
<title>G</title>
<polygon fill="white" stroke="none" points="-4,4 -4,-381 618.25,-381 618.25,4 -4,4"/>
<g id="clust1" class="cluster">
<title>clusterStdenv1</title>
<polygon fill="none" stroke="black" points="13.5,-8 13.5,-337 93.5,-337 93.5,-8 13.5,-8"/>
<text text-anchor="middle" x="53.5" y="-319.7" font-family="Times,serif" font-size="14.00">pkgs1</text>
</g>
<g id="clust2" class="cluster">
<title>clusterStdenv2</title>
<polygon fill="none" stroke="black" points="164.5,-8 164.5,-355 270.5,-355 270.5,-8 164.5,-8"/>
<text text-anchor="middle" x="217.5" y="-337.7" font-family="Times,serif" font-size="14.00">pkgs2</text>
<text text-anchor="middle" x="217.5" y="-320.45" font-family="Times,serif" font-size="14.00">(gcc rebuild)</text>
</g>
<g id="clust3" class="cluster">
<title>clusterStdenv3</title>
<polygon fill="none" stroke="black" points="341.5,-8 341.5,-355 457.5,-355 457.5,-8 341.5,-8"/>
<text text-anchor="middle" x="399.5" y="-337.7" font-family="Times,serif" font-size="14.00">pkgs3</text>
<text text-anchor="middle" x="399.5" y="-320.45" font-family="Times,serif" font-size="14.00">(glibc rebuild)</text>
</g>
<g id="clust4" class="cluster">
<title>clusterStdenv4</title>
<polygon fill="none" stroke="black" points="517.25,-22 517.25,-369 614.25,-369 614.25,-22 517.25,-22"/>
<text text-anchor="middle" x="565.75" y="-351.7" font-family="Times,serif" font-size="14.00">pkgs4</text>
<text text-anchor="middle" x="565.75" y="-334.45" font-family="Times,serif" font-size="14.00">(xz rebuild)</text>
</g>
<!-- gcc&#45;1 -->
<g id="node1" class="node">
<title>gcc&#45;1</title>
<polygon fill="none" stroke="black" points="80.5,-106 26.5,-106 26.5,-70 80.5,-70 80.5,-106"/>
<text text-anchor="middle" x="53.5" y="-83.33" font-family="Times,serif" font-size="14.00">gcc</text>
</g>
<!-- stdenv&#45;1 -->
<g id="node3" class="node">
<title>stdenv&#45;1</title>
<polygon fill="none" stroke="black" points="85.5,-178 21.5,-178 21.5,-142 85.5,-142 85.5,-178"/>
<text text-anchor="middle" x="53.5" y="-155.32" font-family="Times,serif" font-size="14.00">stdenv</text>
</g>
<!-- gcc&#45;1&#45;&gt;stdenv&#45;1 -->
<g id="edge1" class="edge">
<title>gcc&#45;1&#45;&gt;stdenv&#45;1</title>
<path fill="none" stroke="green" d="M53.5,-106.28C53.5,-114.27 53.5,-122.26 53.5,-130.24"/>
<polygon fill="green" stroke="green" points="50,-130.02 53.5,-140.02 57,-130.02 50,-130.02"/>
</g>
<!-- glibc&#45;1 -->
<g id="node2" class="node">
<title>glibc&#45;1</title>
<polygon fill="none" stroke="black" points="80.5,-250 26.5,-250 26.5,-214 80.5,-214 80.5,-250"/>
<text text-anchor="middle" x="53.5" y="-227.32" font-family="Times,serif" font-size="14.00">glibc</text>
</g>
<!-- glibc&#45;1&#45;&gt;stdenv&#45;1 -->
<g id="edge2" class="edge">
<title>glibc&#45;1&#45;&gt;stdenv&#45;1</title>
<path fill="none" stroke="green" d="M53.5,-213.53C53.5,-205.55 53.5,-197.56 53.5,-189.57"/>
<polygon fill="green" stroke="green" points="57,-189.79 53.5,-179.79 50,-189.79 57,-189.79"/>
</g>
<!-- glibc&#45;2 -->
<g id="node7" class="node">
<title>glibc&#45;2</title>
<polygon fill="none" stroke="black" points="244.5,-250 190.5,-250 190.5,-214 244.5,-214 244.5,-250"/>
<text text-anchor="middle" x="217.5" y="-227.32" font-family="Times,serif" font-size="14.00">glibc</text>
</g>
<!-- glibc&#45;1&#45;&gt;glibc&#45;2 -->
<g id="edge15" class="edge">
<title>glibc&#45;1&#45;&gt;glibc&#45;2</title>
<path fill="none" stroke="cyan" d="M80.89,-232C107.49,-232 148.78,-232 178.82,-232"/>
<polygon fill="cyan" stroke="cyan" points="178.61,-235.5 188.61,-232 178.61,-228.5 178.61,-235.5"/>
<text text-anchor="middle" x="129" y="-235.95" font-family="Times,serif" font-size="14.00">reuse</text>
</g>
<!-- gcc&#45;2 -->
<g id="node6" class="node">
<title>gcc&#45;2</title>
<polygon fill="none" stroke="black" points="244.5,-196 190.5,-196 190.5,-160 244.5,-160 244.5,-196"/>
<text text-anchor="middle" x="217.5" y="-173.32" font-family="Times,serif" font-size="14.00">gcc</text>
</g>
<!-- stdenv&#45;1&#45;&gt;gcc&#45;2 -->
<g id="edge13" class="edge">
<title>stdenv&#45;1&#45;&gt;gcc&#45;2</title>
<path fill="none" stroke="blue" d="M85.74,-163.47C112.29,-166.42 150.48,-170.66 178.74,-173.8"/>
<polygon fill="blue" stroke="blue" points="178.35,-177.28 188.68,-174.91 179.12,-170.33 178.35,-177.28"/>
<text text-anchor="middle" x="129" y="-173.95" font-family="Times,serif" font-size="14.00">rebuild</text>
</g>
<!-- xz&#45;1 -->
<g id="node4" class="node">
<title>xz&#45;1</title>
<polygon fill="none" stroke="black" points="80.5,-52 26.5,-52 26.5,-16 80.5,-16 80.5,-52"/>
<text text-anchor="middle" x="53.5" y="-29.32" font-family="Times,serif" font-size="14.00">xz</text>
</g>
<!-- xz&#45;1&#45;&gt;stdenv&#45;1 -->
<g id="edge3" class="edge">
<title>xz&#45;1&#45;&gt;stdenv&#45;1</title>
<path fill="none" stroke="green" d="M26.11,-46.61C17.24,-52.32 8.62,-60.05 4.5,-70 -1.62,-84.78 -1.26,-91.07 4.5,-106 8.39,-116.06 15.11,-125.4 22.36,-133.4"/>
<polygon fill="green" stroke="green" points="19.75,-135.74 29.25,-140.43 24.75,-130.84 19.75,-135.74"/>
</g>
<!-- xz&#45;2 -->
<g id="node9" class="node">
<title>xz&#45;2</title>
<polygon fill="none" stroke="black" points="244.5,-52 190.5,-52 190.5,-16 244.5,-16 244.5,-52"/>
<text text-anchor="middle" x="217.5" y="-29.32" font-family="Times,serif" font-size="14.00">xz</text>
</g>
<!-- xz&#45;1&#45;&gt;xz&#45;2 -->
<g id="edge14" class="edge">
<title>xz&#45;1&#45;&gt;xz&#45;2</title>
<path fill="none" stroke="cyan" d="M80.89,-34C107.49,-34 148.78,-34 178.82,-34"/>
<polygon fill="cyan" stroke="cyan" points="178.61,-37.5 188.61,-34 178.61,-30.5 178.61,-37.5"/>
<text text-anchor="middle" x="129" y="-37.95" font-family="Times,serif" font-size="14.00">reuse</text>
</g>
<!-- ...&#45;1 -->
<g id="node5" class="node">
<title>...&#45;1</title>
<polygon fill="none" stroke="black" points="80.5,-304 26.5,-304 26.5,-268 80.5,-268 80.5,-304"/>
<text text-anchor="middle" x="53.5" y="-281.32" font-family="Times,serif" font-size="14.00">...</text>
</g>
<!-- stdenv&#45;2 -->
<g id="node8" class="node">
<title>stdenv&#45;2</title>
<polygon fill="none" stroke="black" points="249.5,-124 185.5,-124 185.5,-88 249.5,-88 249.5,-124"/>
<text text-anchor="middle" x="217.5" y="-101.33" font-family="Times,serif" font-size="14.00">stdenv</text>
</g>
<!-- gcc&#45;2&#45;&gt;stdenv&#45;2 -->
<g id="edge4" class="edge">
<title>gcc&#45;2&#45;&gt;stdenv&#45;2</title>
<path fill="none" stroke="green" d="M217.5,-159.53C217.5,-151.55 217.5,-143.56 217.5,-135.57"/>
<polygon fill="green" stroke="green" points="221,-135.79 217.5,-125.79 214,-135.79 221,-135.79"/>
</g>
<!-- gcc&#45;3 -->
<g id="node11" class="node">
<title>gcc&#45;3</title>
<polygon fill="none" stroke="black" points="426.5,-250 372.5,-250 372.5,-214 426.5,-214 426.5,-250"/>
<text text-anchor="middle" x="399.5" y="-227.32" font-family="Times,serif" font-size="14.00">gcc</text>
</g>
<!-- gcc&#45;2&#45;&gt;gcc&#45;3 -->
<g id="edge17" class="edge">
<title>gcc&#45;2&#45;&gt;gcc&#45;3</title>
<path fill="none" stroke="cyan" d="M244.68,-185.85C275.38,-195.06 326.51,-210.4 361.32,-220.85"/>
<polygon fill="cyan" stroke="cyan" points="359.97,-224.09 370.55,-223.62 361.98,-217.39 359.97,-224.09"/>
<text text-anchor="middle" x="306" y="-214.95" font-family="Times,serif" font-size="14.00">reuse</text>
</g>
<!-- glibc&#45;2&#45;&gt;stdenv&#45;2 -->
<g id="edge5" class="edge">
<title>glibc&#45;2&#45;&gt;stdenv&#45;2</title>
<path fill="none" stroke="green" d="M190.01,-228.9C169.4,-224.98 142.52,-216.09 129,-196 120.07,-182.72 121.17,-173.95 129,-160 139.02,-142.16 157.59,-129.51 175.15,-120.97"/>
<polygon fill="green" stroke="green" points="176.23,-124.32 183.91,-117.02 173.36,-117.93 176.23,-124.32"/>
</g>
<!-- glibc&#45;3 -->
<g id="node12" class="node">
<title>glibc&#45;3</title>
<polygon fill="none" stroke="black" points="426.5,-106 372.5,-106 372.5,-70 426.5,-70 426.5,-106"/>
<text text-anchor="middle" x="399.5" y="-83.33" font-family="Times,serif" font-size="14.00">glibc</text>
</g>
<!-- stdenv&#45;2&#45;&gt;glibc&#45;3 -->
<g id="edge16" class="edge">
<title>stdenv&#45;2&#45;&gt;glibc&#45;3</title>
<path fill="none" stroke="blue" d="M249.86,-102.86C280.72,-99.78 327.87,-95.06 360.77,-91.77"/>
<polygon fill="blue" stroke="blue" points="361.08,-95.26 370.68,-90.78 360.38,-88.29 361.08,-95.26"/>
<text text-anchor="middle" x="306" y="-102.95" font-family="Times,serif" font-size="14.00">rebuild</text>
</g>
<!-- xz&#45;2&#45;&gt;stdenv&#45;2 -->
<g id="edge6" class="edge">
<title>xz&#45;2&#45;&gt;stdenv&#45;2</title>
<path fill="none" stroke="green" d="M217.5,-52.28C217.5,-60.27 217.5,-68.26 217.5,-76.24"/>
<polygon fill="green" stroke="green" points="214,-76.02 217.5,-86.02 221,-76.02 214,-76.02"/>
</g>
<!-- xz&#45;3 -->
<g id="node14" class="node">
<title>xz&#45;3</title>
<polygon fill="none" stroke="black" points="426.5,-52 372.5,-52 372.5,-16 426.5,-16 426.5,-52"/>
<text text-anchor="middle" x="399.5" y="-29.32" font-family="Times,serif" font-size="14.00">xz</text>
</g>
<!-- xz&#45;2&#45;&gt;xz&#45;3 -->
<g id="edge18" class="edge">
<title>xz&#45;2&#45;&gt;xz&#45;3</title>
<path fill="none" stroke="cyan" d="M244.68,-34C275.25,-34 326.07,-34 360.87,-34"/>
<polygon fill="cyan" stroke="cyan" points="360.49,-37.5 370.49,-34 360.49,-30.5 360.49,-37.5"/>
<text text-anchor="middle" x="306" y="-37.95" font-family="Times,serif" font-size="14.00">reuse</text>
</g>
<!-- ...&#45;2 -->
<g id="node10" class="node">
<title>...&#45;2</title>
<polygon fill="none" stroke="black" points="244.5,-304 190.5,-304 190.5,-268 244.5,-268 244.5,-304"/>
<text text-anchor="middle" x="217.5" y="-281.32" font-family="Times,serif" font-size="14.00">...</text>
</g>
<!-- stdenv&#45;3 -->
<g id="node13" class="node">
<title>stdenv&#45;3</title>
<polygon fill="none" stroke="black" points="431.5,-178 367.5,-178 367.5,-142 431.5,-142 431.5,-178"/>
<text text-anchor="middle" x="399.5" y="-155.32" font-family="Times,serif" font-size="14.00">stdenv</text>
</g>
<!-- gcc&#45;3&#45;&gt;stdenv&#45;3 -->
<g id="edge7" class="edge">
<title>gcc&#45;3&#45;&gt;stdenv&#45;3</title>
<path fill="none" stroke="green" d="M399.5,-213.53C399.5,-205.55 399.5,-197.56 399.5,-189.57"/>
<polygon fill="green" stroke="green" points="403,-189.79 399.5,-179.79 396,-189.79 403,-189.79"/>
</g>
<!-- gcc&#45;4 -->
<g id="node16" class="node">
<title>gcc&#45;4</title>
<polygon fill="none" stroke="black" points="592.25,-264 538.25,-264 538.25,-228 592.25,-228 592.25,-264"/>
<text text-anchor="middle" x="565.25" y="-241.32" font-family="Times,serif" font-size="14.00">gcc</text>
</g>
<!-- gcc&#45;3&#45;&gt;gcc&#45;4 -->
<g id="edge19" class="edge">
<title>gcc&#45;3&#45;&gt;gcc&#45;4</title>
<path fill="none" stroke="cyan" d="M426.81,-234.25C453.91,-236.57 496.38,-240.2 526.94,-242.81"/>
<polygon fill="cyan" stroke="cyan" points="526.24,-246.26 536.5,-243.63 526.83,-239.29 526.24,-246.26"/>
<text text-anchor="middle" x="487.38" y="-244.95" font-family="Times,serif" font-size="14.00">reuse</text>
</g>
<!-- glibc&#45;3&#45;&gt;stdenv&#45;3 -->
<g id="edge8" class="edge">
<title>glibc&#45;3&#45;&gt;stdenv&#45;3</title>
<path fill="none" stroke="green" d="M399.5,-106.28C399.5,-114.27 399.5,-122.26 399.5,-130.24"/>
<polygon fill="green" stroke="green" points="396,-130.02 399.5,-140.02 403,-130.02 396,-130.02"/>
</g>
<!-- glibc&#45;4 -->
<g id="node17" class="node">
<title>glibc&#45;4</title>
<polygon fill="none" stroke="black" points="592.25,-66 538.25,-66 538.25,-30 592.25,-30 592.25,-66"/>
<text text-anchor="middle" x="565.25" y="-43.33" font-family="Times,serif" font-size="14.00">glibc</text>
</g>
<!-- glibc&#45;3&#45;&gt;glibc&#45;4 -->
<g id="edge20" class="edge">
<title>glibc&#45;3&#45;&gt;glibc&#45;4</title>
<path fill="none" stroke="cyan" d="M426.81,-81.57C453.91,-74.95 496.38,-64.58 526.94,-57.12"/>
<polygon fill="cyan" stroke="cyan" points="527.65,-60.54 536.54,-54.77 525.99,-53.74 527.65,-60.54"/>
<text text-anchor="middle" x="487.38" y="-75.95" font-family="Times,serif" font-size="14.00">reuse</text>
</g>
<!-- xz&#45;3&#45;&gt;stdenv&#45;3 -->
<g id="edge9" class="edge">
<title>xz&#45;3&#45;&gt;stdenv&#45;3</title>
<path fill="none" stroke="green" d="M372.28,-36.34C350.33,-39.83 320.77,-48.49 306,-70 296.95,-83.19 298,-92.14 306,-106 317.07,-125.18 337.83,-138.15 356.99,-146.57"/>
<polygon fill="green" stroke="green" points="355.4,-149.7 365.99,-150.22 358.03,-143.22 355.4,-149.7"/>
</g>
<!-- ...&#45;3 -->
<g id="node15" class="node">
<title>...&#45;3</title>
<polygon fill="none" stroke="black" points="426.5,-304 372.5,-304 372.5,-268 426.5,-268 426.5,-304"/>
<text text-anchor="middle" x="399.5" y="-281.32" font-family="Times,serif" font-size="14.00">...</text>
</g>
<!-- stdenv&#45;4 -->
<g id="node18" class="node">
<title>stdenv&#45;4</title>
<polygon fill="none" stroke="black" points="597.25,-138 533.25,-138 533.25,-102 597.25,-102 597.25,-138"/>
<text text-anchor="middle" x="565.25" y="-115.33" font-family="Times,serif" font-size="14.00">stdenv</text>
</g>
<!-- gcc&#45;4&#45;&gt;stdenv&#45;4 -->
<g id="edge10" class="edge">
<title>gcc&#45;4&#45;&gt;stdenv&#45;4</title>
<path fill="none" stroke="green" d="M537.93,-241.14C520.21,-236.43 498.45,-227.32 487.38,-210 478.76,-196.52 479.96,-188.18 487.38,-174 495.19,-159.08 509.21,-147.45 523.22,-138.88"/>
<polygon fill="green" stroke="green" points="524.55,-142.15 531.52,-134.17 521.1,-136.06 524.55,-142.15"/>
</g>
<!-- glibc&#45;4&#45;&gt;stdenv&#45;4 -->
<g id="edge11" class="edge">
<title>glibc&#45;4&#45;&gt;stdenv&#45;4</title>
<path fill="none" stroke="green" d="M565.25,-66.28C565.25,-74.27 565.25,-82.26 565.25,-90.24"/>
<polygon fill="green" stroke="green" points="561.75,-90.02 565.25,-100.02 568.75,-90.02 561.75,-90.02"/>
</g>
<!-- xz&#45;4 -->
<g id="node19" class="node">
<title>xz&#45;4</title>
<polygon fill="none" stroke="black" points="592.25,-210 538.25,-210 538.25,-174 592.25,-174 592.25,-210"/>
<text text-anchor="middle" x="565.25" y="-187.32" font-family="Times,serif" font-size="14.00">xz</text>
</g>
<!-- stdenv&#45;4&#45;&gt;xz&#45;4 -->
<g id="edge12" class="edge">
<title>stdenv&#45;4&#45;&gt;xz&#45;4</title>
<path fill="none" stroke="blue" d="M565.25,-138.17C565.25,-145.45 565.25,-154.02 565.25,-162.17"/>
<polygon fill="blue" stroke="blue" points="561.75,-162.07 565.25,-172.07 568.75,-162.07 561.75,-162.07"/>
<text text-anchor="middle" x="553.63" y="-151.32" font-family="Times,serif" font-size="14.00">rebuild</text>
</g>
<!-- ...&#45;4 -->
<g id="node20" class="node">
<title>...&#45;4</title>
<polygon fill="none" stroke="black" points="592.25,-318 538.25,-318 538.25,-282 592.25,-282 592.25,-318"/>
<text text-anchor="middle" x="565.25" y="-295.32" font-family="Times,serif" font-size="14.00">...</text>
</g>
</g>
</svg>
