<?xml version="1.0" encoding="UTF-8" standalone="no"?>
<!DOCTYPE svg PUBLIC "-//W3C//DTD SVG 1.1//EN"
 "http://www.w3.org/Graphics/SVG/1.1/DTD/svg11.dtd">
<!-- Generated by graphviz version 12.2.1 (0)
 -->
<!-- Title: G Pages: 1 -->
<svg width="624pt" height="385pt"
 viewBox="0.00 0.00 623.50 385.00" xmlns="http://www.w3.org/2000/svg" xmlns:xlink="http://www.w3.org/1999/xlink">
<g id="graph0" class="graph" transform="scale(1 1) rotate(0) translate(4 381)">
<title>G</title>
<polygon fill="white" stroke="none" points="-4,4 -4,-381 619.5,-381 619.5,4 -4,4"/>
<g id="clust1" class="cluster">
<title>clusterStdenv1</title>
<polygon fill="none" stroke="black" points="13.5,-8 13.5,-337 93.5,-337 93.5,-8 13.5,-8"/>
<text text-anchor="middle" x="53.5" y="-319.7" font-family="Times,serif" font-size="14.00">pkgs1</text>
</g>
<g id="clust2" class="cluster">
<title>clusterStdenv2</title>
<polygon fill="none" stroke="black" points="164.5,-8 164.5,-355 270.5,-355 270.5,-8 164.5,-8"/>
<text text-anchor="middle" x="217.5" y="-337.7" font-family="Times,serif" font-size="14.00">pkgs2</text>
<text text-anchor="middle" x="217.5" y="-320.45" font-family="Times,serif" font-size="14.00">(gcc rebuild)</text>
</g>
<g id="clust3" class="cluster">
<title>clusterStdenv3</title>
<polygon fill="none" stroke="black" points="341.5,-8 341.5,-355 458,-355 458,-8 341.5,-8"/>
<text text-anchor="middle" x="399.75" y="-337.7" font-family="Times,serif" font-size="14.00">pkgs3</text>
<text text-anchor="middle" x="399.75" y="-320.45" font-family="Times,serif" font-size="14.00">(glibc rebuild)</text>
</g>
<g id="clust4" class="cluster">
<title>clusterStdenv4</title>
<polygon fill="none" stroke="black" points="517.75,-22 517.75,-369 615.5,-369 615.5,-22 517.75,-22"/>
<text text-anchor="middle" x="566.63" y="-351.7" font-family="Times,serif" font-size="14.00">pkgs4</text>
<text text-anchor="middle" x="566.63" y="-334.45" font-family="Times,serif" font-size="14.00">(xz rebuild)</text>
</g>
<!-- gcc&#45;1 -->
<g id="node1" class="node">
<title>gcc&#45;1</title>
<polygon fill="none" stroke="black" points="80.5,-106 26.5,-106 26.5,-70 80.5,-70 80.5,-106"/>
<text text-anchor="middle" x="53.5" y="-83.33" font-family="Times,serif" font-size="14.00">gcc</text>
</g>
<!-- stdenv&#45;1 -->
<g id="node3" class="node">
<title>stdenv&#45;1</title>
<polygon fill="none" stroke="black" points="85.5,-178 21.5,-178 21.5,-142 85.5,-142 85.5,-178"/>
<text text-anchor="middle" x="53.5" y="-155.32" font-family="Times,serif" font-size="14.00">stdenv</text>
</g>
<!-- gcc&#45;1&#45;&gt;stdenv&#45;1 -->
<g id="edge1" class="edge">
<title>gcc&#45;1&#45;&gt;stdenv&#45;1</title>
<path fill="none" stroke="green" d="M53.5,-106.28C53.5,-114.27 53.5,-122.26 53.5,-130.24"/>
<polygon fill="green" stroke="green" points="50,-130.02 53.5,-140.02 57,-130.02 50,-130.02"/>
</g>
<!-- glibc&#45;1 -->
<g id="node2" class="node">
<title>glibc&#45;1</title>
<polygon fill="none" stroke="black" points="80.5,-250 26.5,-250 26.5,-214 80.5,-214 80.5,-250"/>
<text text-anchor="middle" x="53.5" y="-227.32" font-family="Times,serif" font-size="14.00">glibc</text>
</g>
<!-- glibc&#45;1&#45;&gt;stdenv&#45;1 -->
<g id="edge2" class="edge">
<title>glibc&#45;1&#45;&gt;stdenv&#45;1</title>
<path fill="none" stroke="green" d="M53.5,-213.53C53.5,-205.55 53.5,-197.56 53.5,-189.57"/>
<polygon fill="green" stroke="green" points="57,-189.79 53.5,-179.79 50,-189.79 57,-189.79"/>
</g>
<!-- glibc&#45;2 -->
<g id="node7" class="node">
<title>glibc&#45;2</title>
<polygon fill="none" stroke="black" points="244,-250 190,-250 190,-214 244,-214 244,-250"/>
<text text-anchor="middle" x="217" y="-227.32" font-family="Times,serif" font-size="14.00">glibc</text>
</g>
<!-- glibc&#45;1&#45;&gt;glibc&#45;2 -->
<g id="edge15" class="edge">
<title>glibc&#45;1&#45;&gt;glibc&#45;2</title>
<path fill="none" stroke="cyan" d="M80.81,-232C107.32,-232 148.49,-232 178.44,-232"/>
<polygon fill="cyan" stroke="cyan" points="178.19,-235.5 188.19,-232 178.19,-228.5 178.19,-235.5"/>
<text text-anchor="middle" x="129" y="-235.95" font-family="Times,serif" font-size="14.00">reuse</text>
</g>
<!-- gcc&#45;2 -->
<g id="node6" class="node">
<title>gcc&#45;2</title>
<polygon fill="none" stroke="black" points="244,-196 190,-196 190,-160 244,-160 244,-196"/>
<text text-anchor="middle" x="217" y="-173.32" font-family="Times,serif" font-size="14.00">gcc</text>
</g>
<!-- stdenv&#45;1&#45;&gt;gcc&#45;2 -->
<g id="edge13" class="edge">
<title>stdenv&#45;1&#45;&gt;gcc&#45;2</title>
<path fill="none" stroke="blue" d="M85.64,-163.47C112.03,-166.41 149.95,-170.64 178.1,-173.78"/>
<polygon fill="blue" stroke="blue" points="177.67,-177.25 188,-174.88 178.45,-170.29 177.67,-177.25"/>
<text text-anchor="middle" x="129" y="-175.09" font-family="Times,serif" font-size="14.00">rebuild</text>
</g>
<!-- xz&#45;1 -->
<g id="node4" class="node">
<title>xz&#45;1</title>
<polygon fill="none" stroke="black" points="80.5,-52 26.5,-52 26.5,-16 80.5,-16 80.5,-52"/>
<text text-anchor="middle" x="53.5" y="-29.32" font-family="Times,serif" font-size="14.00">xz</text>
</g>
<!-- xz&#45;1&#45;&gt;stdenv&#45;1 -->
<g id="edge3" class="edge">
<title>xz&#45;1&#45;&gt;stdenv&#45;1</title>
<path fill="none" stroke="green" d="M26.11,-46.61C17.24,-52.32 8.62,-60.05 4.5,-70 -1.62,-84.78 -1.26,-91.07 4.5,-106 8.39,-116.06 15.11,-125.4 22.36,-133.4"/>
<polygon fill="green" stroke="green" points="19.75,-135.74 29.25,-140.43 24.75,-130.84 19.75,-135.74"/>
</g>
<!-- xz&#45;2 -->
<g id="node9" class="node">
<title>xz&#45;2</title>
<polygon fill="none" stroke="black" points="244,-52 190,-52 190,-16 244,-16 244,-52"/>
<text text-anchor="middle" x="217" y="-29.32" font-family="Times,serif" font-size="14.00">xz</text>
</g>
<!-- xz&#45;1&#45;&gt;xz&#45;2 -->
<g id="edge14" class="edge">
<title>xz&#45;1&#45;&gt;xz&#45;2</title>
<path fill="none" stroke="cyan" d="M80.81,-34C107.32,-34 148.49,-34 178.44,-34"/>
<polygon fill="cyan" stroke="cyan" points="178.19,-37.5 188.19,-34 178.19,-30.5 178.19,-37.5"/>
<text text-anchor="middle" x="129" y="-37.95" font-family="Times,serif" font-size="14.00">reuse</text>
</g>
<!-- ...&#45;1 -->
<g id="node5" class="node">
<title>...&#45;1</title>
<polygon fill="none" stroke="black" points="80.5,-304 26.5,-304 26.5,-268 80.5,-268 80.5,-304"/>
<text text-anchor="middle" x="53.5" y="-281.32" font-family="Times,serif" font-size="14.00">...</text>
</g>
<!-- stdenv&#45;2 -->
<g id="node8" class="node">
<title>stdenv&#45;2</title>
<polygon fill="none" stroke="black" points="249,-124 185,-124 185,-88 249,-88 249,-124"/>
<text text-anchor="middle" x="217" y="-101.33" font-family="Times,serif" font-size="14.00">stdenv</text>
</g>
<!-- gcc&#45;2&#45;&gt;stdenv&#45;2 -->
<g id="edge4" class="edge">
<title>gcc&#45;2&#45;&gt;stdenv&#45;2</title>
<path fill="none" stroke="green" d="M217,-159.53C217,-151.55 217,-143.56 217,-135.57"/>
<polygon fill="green" stroke="green" points="220.5,-135.79 217,-125.79 213.5,-135.79 220.5,-135.79"/>
</g>
<!-- gcc&#45;3 -->
<g id="node11" class="node">
<title>gcc&#45;3</title>
<polygon fill="none" stroke="black" points="426.25,-250 372.25,-250 372.25,-214 426.25,-214 426.25,-250"/>
<text text-anchor="middle" x="399.25" y="-227.32" font-family="Times,serif" font-size="14.00">gcc</text>
</g>
<!-- gcc&#45;2&#45;&gt;gcc&#45;3 -->
<g id="edge17" class="edge">
<title>gcc&#45;2&#45;&gt;gcc&#45;3</title>
<path fill="none" stroke="cyan" d="M244.21,-185.85C275.05,-195.09 326.45,-210.49 361.32,-220.94"/>
<polygon fill="cyan" stroke="cyan" points="359.98,-224.19 370.56,-223.7 361.99,-217.48 359.98,-224.19"/>
<text text-anchor="middle" x="306" y="-215.37" font-family="Times,serif" font-size="14.00">reuse</text>
</g>
<!-- glibc&#45;2&#45;&gt;stdenv&#45;2 -->
<g id="edge5" class="edge">
<title>glibc&#45;2&#45;&gt;stdenv&#45;2</title>
<path fill="none" stroke="green" d="M189.66,-228.85C169.17,-224.9 142.44,-216.01 129,-196 120.08,-182.72 121.19,-173.96 129,-160 138.88,-142.35 157.15,-129.76 174.49,-121.21"/>
<polygon fill="green" stroke="green" points="175.51,-124.6 183.15,-117.26 172.6,-118.23 175.51,-124.6"/>
</g>
<!-- glibc&#45;3 -->
<g id="node12" class="node">
<title>glibc&#45;3</title>
<polygon fill="none" stroke="black" points="426.25,-106 372.25,-106 372.25,-70 426.25,-70 426.25,-106"/>
<text text-anchor="middle" x="399.25" y="-83.33" font-family="Times,serif" font-size="14.00">glibc</text>
</g>
<!-- stdenv&#45;2&#45;&gt;glibc&#45;3 -->
<g id="edge16" class="edge">
<title>stdenv&#45;2&#45;&gt;glibc&#45;3</title>
<path fill="none" stroke="blue" d="M249.4,-102.86C280.3,-99.78 327.52,-95.06 360.46,-91.77"/>
<polygon fill="blue" stroke="blue" points="360.79,-95.26 370.39,-90.78 360.09,-88.29 360.79,-95.26"/>
<text text-anchor="middle" x="306" y="-103.61" font-family="Times,serif" font-size="14.00">rebuild</text>
</g>
<!-- xz&#45;2&#45;&gt;stdenv&#45;2 -->
<g id="edge6" class="edge">
<title>xz&#45;2&#45;&gt;stdenv&#45;2</title>
<path fill="none" stroke="green" d="M217,-52.28C217,-60.27 217,-68.26 217,-76.24"/>
<polygon fill="green" stroke="green" points="213.5,-76.02 217,-86.02 220.5,-76.02 213.5,-76.02"/>
</g>
<!-- xz&#45;3 -->
<g id="node14" class="node">
<title>xz&#45;3</title>
<polygon fill="none" stroke="black" points="426.25,-52 372.25,-52 372.25,-16 426.25,-16 426.25,-52"/>
<text text-anchor="middle" x="399.25" y="-29.32" font-family="Times,serif" font-size="14.00">xz</text>
</g>
<!-- xz&#45;2&#45;&gt;xz&#45;3 -->
<g id="edge18" class="edge">
<title>xz&#45;2&#45;&gt;xz&#45;3</title>
<path fill="none" stroke="cyan" d="M244.21,-34C274.92,-34 326.01,-34 360.87,-34"/>
<polygon fill="cyan" stroke="cyan" points="360.5,-37.5 370.5,-34 360.5,-30.5 360.5,-37.5"/>
<text text-anchor="middle" x="306" y="-37.95" font-family="Times,serif" font-size="14.00">reuse</text>
</g>
<!-- ...&#45;2 -->
<g id="node10" class="node">
<title>...&#45;2</title>
<polygon fill="none" stroke="black" points="244,-304 190,-304 190,-268 244,-268 244,-304"/>
<text text-anchor="middle" x="217" y="-281.32" font-family="Times,serif" font-size="14.00">...</text>
</g>
<!-- stdenv&#45;3 -->
<g id="node13" class="node">
<title>stdenv&#45;3</title>
<polygon fill="none" stroke="black" points="431.25,-178 367.25,-178 367.25,-142 431.25,-142 431.25,-178"/>
<text text-anchor="middle" x="399.25" y="-155.32" font-family="Times,serif" font-size="14.00">stdenv</text>
</g>
<!-- gcc&#45;3&#45;&gt;stdenv&#45;3 -->
<g id="edge7" class="edge">
<title>gcc&#45;3&#45;&gt;stdenv&#45;3</title>
<path fill="none" stroke="green" d="M399.25,-213.53C399.25,-205.55 399.25,-197.56 399.25,-189.57"/>
<polygon fill="green" stroke="green" points="402.75,-189.79 399.25,-179.79 395.75,-189.79 402.75,-189.79"/>
</g>
<!-- gcc&#45;4 -->
<g id="node16" class="node">
<title>gcc&#45;4</title>
<polygon fill="none" stroke="black" points="593.13,-264 539.13,-264 539.13,-228 593.13,-228 593.13,-264"/>
<text text-anchor="middle" x="566.13" y="-241.32" font-family="Times,serif" font-size="14.00">gcc</text>
</g>
<!-- gcc&#45;3&#45;&gt;gcc&#45;4 -->
<g id="edge19" class="edge">
<title>gcc&#45;3&#45;&gt;gcc&#45;4</title>
<path fill="none" stroke="cyan" d="M426.74,-234.25C454.02,-236.57 496.79,-240.2 527.55,-242.81"/>
<polygon fill="cyan" stroke="cyan" points="526.93,-246.27 537.19,-243.63 527.53,-239.29 526.93,-246.27"/>
<text text-anchor="middle" x="487.88" y="-245.02" font-family="Times,serif" font-size="14.00">reuse</text>
</g>
<!-- glibc&#45;3&#45;&gt;stdenv&#45;3 -->
<g id="edge8" class="edge">
<title>glibc&#45;3&#45;&gt;stdenv&#45;3</title>
<path fill="none" stroke="green" d="M399.25,-106.28C399.25,-114.27 399.25,-122.26 399.25,-130.24"/>
<polygon fill="green" stroke="green" points="395.75,-130.02 399.25,-140.02 402.75,-130.02 395.75,-130.02"/>
</g>
<!-- glibc&#45;4 -->
<g id="node17" class="node">
<title>glibc&#45;4</title>
<polygon fill="none" stroke="black" points="593.13,-66 539.13,-66 539.13,-30 593.13,-30 593.13,-66"/>
<text text-anchor="middle" x="566.13" y="-43.33" font-family="Times,serif" font-size="14.00">glibc</text>
</g>
<!-- glibc&#45;3&#45;&gt;glibc&#45;4 -->
<g id="edge20" class="edge">
<title>glibc&#45;3&#45;&gt;glibc&#45;4</title>
<path fill="none" stroke="cyan" d="M426.74,-81.57C454.02,-74.95 496.79,-64.58 527.55,-57.12"/>
<polygon fill="cyan" stroke="cyan" points="528.34,-60.53 537.23,-54.77 526.69,-53.72 528.34,-60.53"/>
<text text-anchor="middle" x="487.88" y="-74.34" font-family="Times,serif" font-size="14.00">reuse</text>
</g>
<!-- xz&#45;3&#45;&gt;stdenv&#45;3 -->
<g id="edge9" class="edge">
<title>xz&#45;3&#45;&gt;stdenv&#45;3</title>
<path fill="none" stroke="green" d="M372.1,-36.36C350.21,-39.86 320.73,-48.53 306,-70 296.95,-83.19 298.01,-92.14 306,-106 316.91,-124.92 337.26,-137.81 356.17,-146.24"/>
<polygon fill="green" stroke="green" points="354.78,-149.45 365.36,-150.01 357.44,-142.98 354.78,-149.45"/>
</g>
<!-- ...&#45;3 -->
<g id="node15" class="node">
<title>...&#45;3</title>
<polygon fill="none" stroke="black" points="426.25,-304 372.25,-304 372.25,-268 426.25,-268 426.25,-304"/>
<text text-anchor="middle" x="399.25" y="-281.32" font-family="Times,serif" font-size="14.00">...</text>
</g>
<!-- stdenv&#45;4 -->
<g id="node18" class="node">
<title>stdenv&#45;4</title>
<polygon fill="none" stroke="black" points="598.13,-138 534.13,-138 534.13,-102 598.13,-102 598.13,-138"/>
<text text-anchor="middle" x="566.13" y="-115.33" font-family="Times,serif" font-size="14.00">stdenv</text>
</g>
<!-- gcc&#45;4&#45;&gt;stdenv&#45;4 -->
<g id="edge10" class="edge">
<title>gcc&#45;4&#45;&gt;stdenv&#45;4</title>
<path fill="none" stroke="green" d="M538.67,-241.18C520.88,-236.48 499.01,-227.38 487.88,-210 479.25,-196.53 480.44,-188.17 487.88,-174 495.79,-158.92 510.04,-147.22 524.23,-138.63"/>
<polygon fill="green" stroke="green" points="525.63,-141.86 532.64,-133.92 522.21,-135.75 525.63,-141.86"/>
</g>
<!-- glibc&#45;4&#45;&gt;stdenv&#45;4 -->
<g id="edge11" class="edge">
<title>glibc&#45;4&#45;&gt;stdenv&#45;4</title>
<path fill="none" stroke="green" d="M566.13,-66.28C566.13,-74.27 566.13,-82.26 566.13,-90.24"/>
<polygon fill="green" stroke="green" points="562.63,-90.02 566.13,-100.02 569.63,-90.02 562.63,-90.02"/>
</g>
<!-- xz&#45;4 -->
<g id="node19" class="node">
<title>xz&#45;4</title>
<polygon fill="none" stroke="black" points="593.13,-210 539.13,-210 539.13,-174 593.13,-174 593.13,-210"/>
<text text-anchor="middle" x="566.13" y="-187.32" font-family="Times,serif" font-size="14.00">xz</text>
</g>
<!-- stdenv&#45;4&#45;&gt;xz&#45;4 -->
<g id="edge12" class="edge">
<title>stdenv&#45;4&#45;&gt;xz&#45;4</title>
<path fill="none" stroke="blue" d="M566.13,-138.17C566.13,-145.45 566.13,-154.02 566.13,-162.17"/>
<polygon fill="blue" stroke="blue" points="562.63,-162.07 566.13,-172.07 569.63,-162.07 562.63,-162.07"/>
<text text-anchor="middle" x="554.5" y="-151.32" font-family="Times,serif" font-size="14.00">rebuild</text>
</g>
<!-- ...&#45;4 -->
<g id="node20" class="node">
<title>...&#45;4</title>
<polygon fill="none" stroke="black" points="593.13,-318 539.13,-318 539.13,-282 593.13,-282 593.13,-318"/>
<text text-anchor="middle" x="566.13" y="-295.32" font-family="Times,serif" font-size="14.00">...</text>
</g>
</g>
</svg>
