<?xml version="1.0" encoding="UTF-8" standalone="no"?>
<!DOCTYPE svg PUBLIC "-//W3C//DTD SVG 1.1//EN"
 "http://www.w3.org/Graphics/SVG/1.1/DTD/svg11.dtd">
<!-- Generated by graphviz version 7.1.0 (0)
 -->
<!-- Title: G Pages: 1 -->
<svg width="629pt" height="459pt"
 viewBox="0.00 0.00 628.51 459.00" xmlns="http://www.w3.org/2000/svg" xmlns:xlink="http://www.w3.org/1999/xlink">
<g id="graph0" class="graph" transform="scale(1 1) rotate(0) translate(4 455)">
<title>G</title>
<polygon fill="white" stroke="none" points="-4,4 -4,-455 624.51,-455 624.51,4 -4,4"/>
<g id="clust1" class="cluster">
<title>clusterStdenv1</title>
<polygon fill="none" stroke="black" points="13.51,-116 13.51,-443 94.51,-443 94.51,-116 13.51,-116"/>
<text text-anchor="middle" x="54.01" y="-427.8" font-family="Times,serif" font-size="14.00">pkgs1</text>
</g>
<g id="clust2" class="cluster">
<title>clusterStdenv2</title>
<polygon fill="none" stroke="black" points="166.51,-62 166.51,-404 273.51,-404 273.51,-62 166.51,-62"/>
<text text-anchor="middle" x="220.01" y="-388.8" font-family="Times,serif" font-size="14.00">pkgs2</text>
<text text-anchor="middle" x="220.01" y="-373.8" font-family="Times,serif" font-size="14.00">(gcc rebuild)</text>
</g>
<g id="clust3" class="cluster">
<title>clusterStdenv3</title>
<polygon fill="none" stroke="black" points="345.51,-8 345.51,-350 462.51,-350 462.51,-8 345.51,-8"/>
<text text-anchor="middle" x="404.01" y="-334.8" font-family="Times,serif" font-size="14.00">pkgs3</text>
<text text-anchor="middle" x="404.01" y="-319.8" font-family="Times,serif" font-size="14.00">(glibc rebuild)</text>
</g>
<g id="clust4" class="cluster">
<title>clusterStdenv4</title>
<polygon fill="none" stroke="black" points="522.51,-8 522.51,-350 620.51,-350 620.51,-8 522.51,-8"/>
<text text-anchor="middle" x="571.51" y="-334.8" font-family="Times,serif" font-size="14.00">pkgs4</text>
<text text-anchor="middle" x="571.51" y="-319.8" font-family="Times,serif" font-size="14.00">(xz rebuild)</text>
</g>
<!-- gcc&#45;1 -->
<g id="node1" class="node">
<title>gcc&#45;1</title>
<polygon fill="none" stroke="black" points="81.01,-412 27.01,-412 27.01,-376 81.01,-376 81.01,-412"/>
<text text-anchor="middle" x="54.01" y="-390.3" font-family="Times,serif" font-size="14.00">gcc</text>
</g>
<!-- stdenv&#45;1 -->
<g id="node3" class="node">
<title>stdenv&#45;1</title>
<polygon fill="none" stroke="black" points="86.51,-286 21.51,-286 21.51,-250 86.51,-250 86.51,-286"/>
<text text-anchor="middle" x="54.01" y="-264.3" font-family="Times,serif" font-size="14.00">stdenv</text>
</g>
<!-- gcc&#45;1&#45;&gt;stdenv&#45;1 -->
<g id="edge1" class="edge">
<title>gcc&#45;1&#45;&gt;stdenv&#45;1</title>
<path fill="none" stroke="green" d="M26.59,-381.63C17.53,-375.91 8.7,-368.11 4.51,-358 -1.61,-343.22 -1.29,-336.91 4.51,-322 8.44,-311.9 15.23,-302.55 22.55,-294.56"/>
<polygon fill="green" stroke="green" points="24.97,-297.09 29.52,-287.52 20,-292.16 24.97,-297.09"/>
</g>
<!-- glibc&#45;1 -->
<g id="node2" class="node">
<title>glibc&#45;1</title>
<polygon fill="none" stroke="black" points="81.01,-358 27.01,-358 27.01,-322 81.01,-322 81.01,-358"/>
<text text-anchor="middle" x="54.01" y="-336.3" font-family="Times,serif" font-size="14.00">glibc</text>
</g>
<!-- glibc&#45;1&#45;&gt;stdenv&#45;1 -->
<g id="edge2" class="edge">
<title>glibc&#45;1&#45;&gt;stdenv&#45;1</title>
<path fill="none" stroke="green" d="M54.01,-321.53C54.01,-313.55 54.01,-305.56 54.01,-297.57"/>
<polygon fill="green" stroke="green" points="57.51,-297.79 54.01,-287.79 50.51,-297.79 57.51,-297.79"/>
</g>
<!-- glibc&#45;2 -->
<g id="node7" class="node">
<title>glibc&#45;2</title>
<polygon fill="none" stroke="black" points="247.01,-358 193.01,-358 193.01,-322 247.01,-322 247.01,-358"/>
<text text-anchor="middle" x="220.01" y="-336.3" font-family="Times,serif" font-size="14.00">glibc</text>
</g>
<!-- glibc&#45;1&#45;&gt;glibc&#45;2 -->
<g id="edge15" class="edge">
<title>glibc&#45;1&#45;&gt;glibc&#45;2</title>
<path fill="none" stroke="cyan" d="M81.36,-340C108.38,-340 150.66,-340 181.23,-340"/>
<polygon fill="cyan" stroke="cyan" points="181.21,-343.5 191.21,-340 181.21,-336.5 181.21,-343.5"/>
<text text-anchor="middle" x="130.51" y="-343.8" font-family="Times,serif" font-size="14.00">reuse</text>
</g>
<!-- gcc&#45;2 -->
<g id="node6" class="node">
<title>gcc&#45;2</title>
<polygon fill="none" stroke="black" points="247.01,-304 193.01,-304 193.01,-268 247.01,-268 247.01,-304"/>
<text text-anchor="middle" x="220.01" y="-282.3" font-family="Times,serif" font-size="14.00">gcc</text>
</g>
<!-- stdenv&#45;1&#45;&gt;gcc&#45;2 -->
<g id="edge13" class="edge">
<title>stdenv&#45;1&#45;&gt;gcc&#45;2</title>
<path fill="none" stroke="blue" d="M86.63,-271.47C113.71,-274.44 152.76,-278.73 181.43,-281.87"/>
<polygon fill="blue" stroke="blue" points="180.8,-285.33 191.12,-282.94 181.57,-278.37 180.8,-285.33"/>
<text text-anchor="middle" x="130.51" y="-281.8" font-family="Times,serif" font-size="14.00">rebuild</text>
</g>
<!-- xz&#45;1 -->
<g id="node4" class="node">
<title>xz&#45;1</title>
<polygon fill="none" stroke="black" points="81.01,-214 27.01,-214 27.01,-178 81.01,-178 81.01,-214"/>
<text text-anchor="middle" x="54.01" y="-192.3" font-family="Times,serif" font-size="14.00">xz</text>
</g>
<!-- xz&#45;1&#45;&gt;stdenv&#45;1 -->
<g id="edge3" class="edge">
<title>xz&#45;1&#45;&gt;stdenv&#45;1</title>
<path fill="none" stroke="green" d="M54.01,-214.28C54.01,-222.27 54.01,-230.26 54.01,-238.24"/>
<polygon fill="green" stroke="green" points="50.51,-238.02 54.01,-248.02 57.51,-238.02 50.51,-238.02"/>
</g>
<!-- xz&#45;2 -->
<g id="node9" class="node">
<title>xz&#45;2</title>
<polygon fill="none" stroke="black" points="247.01,-160 193.01,-160 193.01,-124 247.01,-124 247.01,-160"/>
<text text-anchor="middle" x="220.01" y="-138.3" font-family="Times,serif" font-size="14.00">xz</text>
</g>
<!-- xz&#45;1&#45;&gt;xz&#45;2 -->
<g id="edge14" class="edge">
<title>xz&#45;1&#45;&gt;xz&#45;2</title>
<path fill="none" stroke="cyan" d="M81.36,-187.32C108.62,-178.35 151.41,-164.26 182.04,-154.17"/>
<polygon fill="cyan" stroke="cyan" points="182.89,-157.58 191.29,-151.13 180.7,-150.93 182.89,-157.58"/>
<text text-anchor="middle" x="130.51" y="-182.8" font-family="Times,serif" font-size="14.00">reuse</text>
</g>
<!-- ...&#45;1 -->
<g id="node5" class="node">
<title>...&#45;1</title>
<polygon fill="none" stroke="black" points="81.01,-160 27.01,-160 27.01,-124 81.01,-124 81.01,-160"/>
<text text-anchor="middle" x="54.01" y="-138.3" font-family="Times,serif" font-size="14.00">...</text>
</g>
<!-- stdenv&#45;2 -->
<g id="node8" class="node">
<title>stdenv&#45;2</title>
<polygon fill="none" stroke="black" points="252.51,-232 187.51,-232 187.51,-196 252.51,-196 252.51,-232"/>
<text text-anchor="middle" x="220.01" y="-210.3" font-family="Times,serif" font-size="14.00">stdenv</text>
</g>
<!-- gcc&#45;2&#45;&gt;stdenv&#45;2 -->
<g id="edge4" class="edge">
<title>gcc&#45;2&#45;&gt;stdenv&#45;2</title>
<path fill="none" stroke="green" d="M220.01,-267.53C220.01,-259.55 220.01,-251.56 220.01,-243.57"/>
<polygon fill="green" stroke="green" points="223.51,-243.79 220.01,-233.79 216.51,-243.79 223.51,-243.79"/>
</g>
<!-- gcc&#45;3 -->
<g id="node11" class="node">
<title>gcc&#45;3</title>
<polygon fill="none" stroke="black" points="431.01,-304 377.01,-304 377.01,-268 431.01,-268 431.01,-304"/>
<text text-anchor="middle" x="404.01" y="-282.3" font-family="Times,serif" font-size="14.00">gcc</text>
</g>
<!-- gcc&#45;2&#45;&gt;gcc&#45;3 -->
<g id="edge17" class="edge">
<title>gcc&#45;2&#45;&gt;gcc&#45;3</title>
<path fill="none" stroke="cyan" d="M247.48,-286C278.48,-286 330.07,-286 365.26,-286"/>
<polygon fill="cyan" stroke="cyan" points="365,-289.5 375,-286 365,-282.5 365,-289.5"/>
<text text-anchor="middle" x="309.51" y="-289.8" font-family="Times,serif" font-size="14.00">reuse</text>
</g>
<!-- glibc&#45;2&#45;&gt;stdenv&#45;2 -->
<g id="edge5" class="edge">
<title>glibc&#45;2&#45;&gt;stdenv&#45;2</title>
<path fill="none" stroke="green" d="M192.65,-337.07C171.76,-333.24 144.29,-324.4 130.51,-304 121.55,-290.74 122.65,-281.93 130.51,-268 140.65,-250.03 159.44,-237.38 177.19,-228.85"/>
<polygon fill="green" stroke="green" points="178.34,-232.17 186.07,-224.92 175.51,-225.77 178.34,-232.17"/>
</g>
<!-- glibc&#45;3 -->
<g id="node12" class="node">
<title>glibc&#45;3</title>
<polygon fill="none" stroke="black" points="431.01,-250 377.01,-250 377.01,-214 431.01,-214 431.01,-250"/>
<text text-anchor="middle" x="404.01" y="-228.3" font-family="Times,serif" font-size="14.00">glibc</text>
</g>
<!-- stdenv&#45;2&#45;&gt;glibc&#45;3 -->
<g id="edge16" class="edge">
<title>stdenv&#45;2&#45;&gt;glibc&#45;3</title>
<path fill="none" stroke="blue" d="M252.71,-217.14C284.14,-220.24 332.29,-225.01 365.58,-228.3"/>
<polygon fill="blue" stroke="blue" points="364.88,-231.75 375.18,-229.25 365.57,-224.78 364.88,-231.75"/>
<text text-anchor="middle" x="309.51" y="-228.8" font-family="Times,serif" font-size="14.00">rebuild</text>
</g>
<!-- xz&#45;2&#45;&gt;stdenv&#45;2 -->
<g id="edge6" class="edge">
<title>xz&#45;2&#45;&gt;stdenv&#45;2</title>
<path fill="none" stroke="green" d="M220.01,-160.28C220.01,-168.27 220.01,-176.26 220.01,-184.24"/>
<polygon fill="green" stroke="green" points="216.51,-184.02 220.01,-194.02 223.51,-184.02 216.51,-184.02"/>
</g>
<!-- xz&#45;3 -->
<g id="node14" class="node">
<title>xz&#45;3</title>
<polygon fill="none" stroke="black" points="431.01,-106 377.01,-106 377.01,-70 431.01,-70 431.01,-106"/>
<text text-anchor="middle" x="404.01" y="-84.3" font-family="Times,serif" font-size="14.00">xz</text>
</g>
<!-- xz&#45;2&#45;&gt;xz&#45;3 -->
<g id="edge18" class="edge">
<title>xz&#45;2&#45;&gt;xz&#45;3</title>
<path fill="none" stroke="cyan" d="M247.48,-134.15C278.61,-124.91 330.52,-109.51 365.72,-99.06"/>
<polygon fill="cyan" stroke="cyan" points="366.47,-102.49 375.06,-96.29 364.48,-95.78 366.47,-102.49"/>
<text text-anchor="middle" x="309.51" y="-126.8" font-family="Times,serif" font-size="14.00">reuse</text>
</g>
<!-- ...&#45;2 -->
<g id="node10" class="node">
<title>...&#45;2</title>
<polygon fill="none" stroke="black" points="247.01,-106 193.01,-106 193.01,-70 247.01,-70 247.01,-106"/>
<text text-anchor="middle" x="220.01" y="-84.3" font-family="Times,serif" font-size="14.00">...</text>
</g>
<!-- stdenv&#45;3 -->
<g id="node13" class="node">
<title>stdenv&#45;3</title>
<polygon fill="none" stroke="black" points="436.51,-178 371.51,-178 371.51,-142 436.51,-142 436.51,-178"/>
<text text-anchor="middle" x="404.01" y="-156.3" font-family="Times,serif" font-size="14.00">stdenv</text>
</g>
<!-- gcc&#45;3&#45;&gt;stdenv&#45;3 -->
<g id="edge7" class="edge">
<title>gcc&#45;3&#45;&gt;stdenv&#45;3</title>
<path fill="none" stroke="green" d="M376.95,-283.82C354.73,-280.43 324.55,-271.83 309.51,-250 300.43,-236.83 301.48,-227.84 309.51,-214 320.63,-194.83 341.4,-181.89 360.64,-173.5"/>
<polygon fill="green" stroke="green" points="361.72,-176.84 369.69,-169.86 359.11,-170.34 361.72,-176.84"/>
</g>
<!-- gcc&#45;4 -->
<g id="node16" class="node">
<title>gcc&#45;4</title>
<polygon fill="none" stroke="black" points="598.01,-304 544.01,-304 544.01,-268 598.01,-268 598.01,-304"/>
<text text-anchor="middle" x="571.01" y="-282.3" font-family="Times,serif" font-size="14.00">gcc</text>
</g>
<!-- gcc&#45;3&#45;&gt;gcc&#45;4 -->
<g id="edge19" class="edge">
<title>gcc&#45;3&#45;&gt;gcc&#45;4</title>
<path fill="none" stroke="cyan" d="M431.16,-286C458.47,-286 501.58,-286 532.51,-286"/>
<polygon fill="cyan" stroke="cyan" points="532.2,-289.5 542.2,-286 532.2,-282.5 532.2,-289.5"/>
<text text-anchor="middle" x="492.51" y="-289.8" font-family="Times,serif" font-size="14.00">reuse</text>
</g>
<!-- glibc&#45;3&#45;&gt;stdenv&#45;3 -->
<g id="edge8" class="edge">
<title>glibc&#45;3&#45;&gt;stdenv&#45;3</title>
<path fill="none" stroke="green" d="M404.01,-213.53C404.01,-205.55 404.01,-197.56 404.01,-189.57"/>
<polygon fill="green" stroke="green" points="407.51,-189.79 404.01,-179.79 400.51,-189.79 407.51,-189.79"/>
</g>
<!-- glibc&#45;4 -->
<g id="node17" class="node">
<title>glibc&#45;4</title>
<polygon fill="none" stroke="black" points="598.01,-250 544.01,-250 544.01,-214 598.01,-214 598.01,-250"/>
<text text-anchor="middle" x="571.01" y="-228.3" font-family="Times,serif" font-size="14.00">glibc</text>
</g>
<!-- glibc&#45;3&#45;&gt;glibc&#45;4 -->
<g id="edge20" class="edge">
<title>glibc&#45;3&#45;&gt;glibc&#45;4</title>
<path fill="none" stroke="cyan" d="M431.16,-232C458.47,-232 501.58,-232 532.51,-232"/>
<polygon fill="cyan" stroke="cyan" points="532.2,-235.5 542.2,-232 532.2,-228.5 532.2,-235.5"/>
<text text-anchor="middle" x="492.51" y="-235.8" font-family="Times,serif" font-size="14.00">reuse</text>
</g>
<!-- xz&#45;3&#45;&gt;stdenv&#45;3 -->
<g id="edge9" class="edge">
<title>xz&#45;3&#45;&gt;stdenv&#45;3</title>
<path fill="none" stroke="green" d="M404.01,-106.28C404.01,-114.27 404.01,-122.26 404.01,-130.24"/>
<polygon fill="green" stroke="green" points="400.51,-130.02 404.01,-140.02 407.51,-130.02 400.51,-130.02"/>
</g>
<!-- ...&#45;3 -->
<g id="node15" class="node">
<title>...&#45;3</title>
<polygon fill="none" stroke="black" points="431.01,-52 377.01,-52 377.01,-16 431.01,-16 431.01,-52"/>
<text text-anchor="middle" x="404.01" y="-30.3" font-family="Times,serif" font-size="14.00">...</text>
</g>
<!-- stdenv&#45;4 -->
<g id="node18" class="node">
<title>stdenv&#45;4</title>
<polygon fill="none" stroke="black" points="603.51,-178 538.51,-178 538.51,-142 603.51,-142 603.51,-178"/>
<text text-anchor="middle" x="571.01" y="-156.3" font-family="Times,serif" font-size="14.00">stdenv</text>
</g>
<!-- gcc&#45;4&#45;&gt;stdenv&#45;4 -->
<g id="edge10" class="edge">
<title>gcc&#45;4&#45;&gt;stdenv&#45;4</title>
<path fill="none" stroke="green" d="M543.86,-281.31C525.94,-276.65 503.76,-267.54 492.51,-250 483.87,-236.53 485.06,-228.16 492.51,-214 500.39,-199.01 514.53,-187.38 528.65,-178.81"/>
<polygon fill="green" stroke="green" points="530.02,-182.05 537.03,-174.1 526.59,-175.95 530.02,-182.05"/>
</g>
<!-- glibc&#45;4&#45;&gt;stdenv&#45;4 -->
<g id="edge11" class="edge">
<title>glibc&#45;4&#45;&gt;stdenv&#45;4</title>
<path fill="none" stroke="green" d="M571.01,-213.53C571.01,-205.55 571.01,-197.56 571.01,-189.57"/>
<polygon fill="green" stroke="green" points="574.51,-189.79 571.01,-179.79 567.51,-189.79 574.51,-189.79"/>
</g>
<!-- xz&#45;4 -->
<g id="node19" class="node">
<title>xz&#45;4</title>
<polygon fill="none" stroke="black" points="598.01,-106 544.01,-106 544.01,-70 598.01,-70 598.01,-106"/>
<text text-anchor="middle" x="571.01" y="-84.3" font-family="Times,serif" font-size="14.00">xz</text>
</g>
<!-- stdenv&#45;4&#45;&gt;xz&#45;4 -->
<g id="edge12" class="edge">
<title>stdenv&#45;4&#45;&gt;xz&#45;4</title>
<path fill="none" stroke="blue" d="M571.01,-141.59C571.01,-134.28 571.01,-125.69 571.01,-117.56"/>
<polygon fill="blue" stroke="blue" points="574.51,-117.68 571.01,-107.68 567.51,-117.68 574.51,-117.68"/>
<text text-anchor="middle" x="560.51" y="-120.3" font-family="Times,serif" font-size="14.00">rebuild</text>
</g>
<!-- ...&#45;4 -->
<g id="node20" class="node">
<title>...&#45;4</title>
<polygon fill="none" stroke="black" points="598.01,-52 544.01,-52 544.01,-16 598.01,-16 598.01,-52"/>
<text text-anchor="middle" x="571.01" y="-30.3" font-family="Times,serif" font-size="14.00">...</text>
</g>
</g>
</svg>
