<?xml version="1.0" encoding="UTF-8" standalone="no"?>
<!DOCTYPE svg PUBLIC "-//W3C//DTD SVG 1.1//EN"
 "http://www.w3.org/Graphics/SVG/1.1/DTD/svg11.dtd">
<!-- Generated by graphviz version 12.2.0 (0)
 -->
<!-- Title: G Pages: 1 -->
<svg width="259pt" height="312pt"
 viewBox="0.00 0.00 259.13 311.75" xmlns="http://www.w3.org/2000/svg" xmlns:xlink="http://www.w3.org/1999/xlink">
<g id="graph0" class="graph" transform="scale(1 1) rotate(0) translate(4 307.75)">
<title>G</title>
<polygon fill="white" stroke="none" points="-4,4 -4,-307.75 255.13,-307.75 255.13,4 -4,4"/>
<!-- file /etc/shadow -->
<g id="node1" class="node">
<title>file /etc/shadow</title>
<polygon fill="none" stroke="black" points="142.13,-36 27.13,-36 27.13,-40 15.13,-40 15.13,0 142.13,0 142.13,-36"/>
<polyline fill="none" stroke="black" points="15.13,-36 27.13,-36"/>
<text text-anchor="middle" x="78.63" y="-13.32" font-family="Times,serif" font-size="14.00">file /etc/shadow</text>
</g>
<!-- libpam&#45;1.6.0 -->
<g id="node2" class="node">
<title>libpam&#45;1.6.0</title>
<polygon fill="none" stroke="black" points="85.9,-178.55 90.72,-178.65 95.49,-178.8 100.18,-178.99 104.79,-179.24 109.3,-179.53 113.67,-179.86 117.91,-180.25 121.99,-180.68 125.9,-181.15 129.62,-181.66 133.13,-182.21 136.44,-182.81 139.53,-183.44 142.38,-184.11 145,-184.81 147.37,-185.54 149.49,-186.3 151.35,-187.09 152.96,-187.91 154.31,-188.75 155.4,-189.61 156.24,-190.49 156.83,-191.39 157.16,-192.3 157.25,-193.22 157.1,-194.15 156.72,-195.09 156.12,-196.03 155.3,-196.97 154.27,-197.91 153.05,-198.85 151.63,-199.78 150.04,-200.7 148.29,-201.61 146.38,-202.51 144.32,-203.39 142.13,-204.25 139.82,-205.09 137.39,-205.91 134.86,-206.7 132.23,-207.46 129.52,-208.19 126.73,-208.89 123.88,-209.56 120.96,-210.19 118,-210.79 114.98,-211.34 111.93,-211.85 108.85,-212.32 105.73,-212.75 102.59,-213.14 99.43,-213.47 96.26,-213.76 93.07,-214.01 89.87,-214.2 86.66,-214.35 83.45,-214.45 80.23,-214.5 77.02,-214.5 73.8,-214.45 70.59,-214.35 67.38,-214.2 64.18,-214.01 60.99,-213.76 57.82,-213.47 54.66,-213.14 51.52,-212.75 48.4,-212.32 45.32,-211.85 42.27,-211.34 39.25,-210.79 36.29,-210.19 33.37,-209.56 30.52,-208.89 27.73,-208.19 25.02,-207.46 22.39,-206.7 19.86,-205.91 17.43,-205.09 15.12,-204.25 12.93,-203.39 10.87,-202.51 8.96,-201.61 7.21,-200.7 5.62,-199.78 4.2,-198.85 2.98,-197.91 1.95,-196.97 1.13,-196.03 0.53,-195.09 0.15,-194.15 0,-193.22 0.09,-192.3 0.42,-191.39 1.01,-190.49 1.85,-189.61 2.94,-188.75 4.29,-187.91 5.9,-187.09 7.76,-186.3 9.88,-185.54 12.25,-184.81 14.87,-184.11 17.72,-183.44 20.81,-182.81 24.12,-182.21 27.63,-181.66 31.35,-181.15 35.26,-180.68 39.34,-180.25 43.58,-179.86 47.95,-179.53 52.46,-179.24 57.07,-178.99 61.77,-178.8 66.53,-178.65 71.35,-178.55 76.2,-178.5 81.05,-178.5 85.9,-178.55"/>
<text text-anchor="middle" x="78.63" y="-191.82" font-family="Times,serif" font-size="14.00">libpam&#45;1.6.0</text>
</g>
<!-- unix_chkpwd -->
<g id="node4" class="node">
<title>unix_chkpwd</title>
<polygon fill="none" stroke="black" points="132.75,-125.25 24.5,-125.25 24.5,-89.25 132.75,-89.25 132.75,-125.25"/>
<text text-anchor="middle" x="78.63" y="-102.58" font-family="Times,serif" font-size="14.00">unix_chkpwd</text>
</g>
<!-- libpam&#45;1.6.0&#45;&gt;unix_chkpwd -->
<g id="edge2" class="edge">
<title>libpam&#45;1.6.0&#45;&gt;unix_chkpwd</title>
<path fill="none" stroke="black" stroke-dasharray="1,5" d="M78.63,-178.26C78.63,-166.43 78.63,-150.45 78.63,-136.75"/>
<polygon fill="black" stroke="black" points="82.13,-136.97 78.63,-126.97 75.13,-136.97 82.13,-136.97"/>
<text text-anchor="middle" x="134.88" y="-147.2" font-family="Times,serif" font-size="14.00">always execve()</text>
</g>
<!-- program -->
<g id="node3" class="node">
<title>program</title>
<polygon fill="none" stroke="black" points="117.38,-303.75 39.88,-303.75 39.88,-267.75 117.38,-267.75 117.38,-303.75"/>
<text text-anchor="middle" x="78.63" y="-281.07" font-family="Times,serif" font-size="14.00">program</text>
</g>
<!-- program&#45;&gt;libpam&#45;1.6.0 -->
<g id="edge1" class="edge">
<title>program&#45;&gt;libpam&#45;1.6.0</title>
<path fill="none" stroke="black" d="M78.63,-267.51C78.63,-255.68 78.63,-239.7 78.63,-226"/>
<polygon fill="black" stroke="black" points="82.13,-226.22 78.63,-216.22 75.13,-226.22 82.13,-226.22"/>
<text text-anchor="middle" x="162.25" y="-236.45" font-family="Times,serif" font-size="14.00">call pam_authenticate()</text>
</g>
<!-- unix_chkpwd&#45;&gt;file /etc/shadow -->
<g id="edge3" class="edge">
<title>unix_chkpwd&#45;&gt;file /etc/shadow</title>
<path fill="none" stroke="black" d="M78.63,-89.01C78.63,-77.18 78.63,-61.2 78.63,-47.5"/>
<polygon fill="black" stroke="black" points="82.13,-47.72 78.63,-37.72 75.13,-47.72 82.13,-47.72"/>
<text text-anchor="middle" x="164.88" y="-57.95" font-family="Times,serif" font-size="14.00">SUID&#45;root: read directly</text>
</g>
</g>
</svg>
