<?xml version="1.0" encoding="UTF-8" standalone="no"?>
<!DOCTYPE svg PUBLIC "-//W3C//DTD SVG 1.1//EN"
 "http://www.w3.org/Graphics/SVG/1.1/DTD/svg11.dtd">
<!-- Generated by graphviz version 12.2.1 (0)
 -->
<!-- Title: G Pages: 1 -->
<svg width="734pt" height="173pt"
 viewBox="0.00 0.00 734.00 173.25" xmlns="http://www.w3.org/2000/svg" xmlns:xlink="http://www.w3.org/1999/xlink">
<g id="graph0" class="graph" transform="scale(1 1) rotate(0) translate(4 169.25)">
<title>G</title>
<polygon fill="white" stroke="none" points="-4,4 -4,-169.25 730,-169.25 730,4 -4,4"/>
<g id="clust1" class="cluster">
<title>cluster_before</title>
<polygon fill="none" stroke="black" points="8,-8 8,-157.25 359,-157.25 359,-8 8,-8"/>
<text text-anchor="middle" x="183.5" y="-139.95" font-family="Times,serif" font-size="14.00">before</text>
</g>
<g id="clust2" class="cluster">
<title>cluster_after</title>
<polygon fill="none" stroke="black" points="367,-8 367,-157.25 718,-157.25 718,-8 367,-8"/>
<text text-anchor="middle" x="542.5" y="-139.95" font-family="Times,serif" font-size="14.00">after</text>
</g>
<!-- busybox&#45;before&#45;i686 -->
<g id="node1" class="node">
<title>busybox&#45;before&#45;i686</title>
<polygon fill="none" stroke="black" points="233.25,-124 122.75,-124 122.75,-88 233.25,-88 233.25,-124"/>
<text text-anchor="middle" x="178" y="-101.33" font-family="Times,serif" font-size="14.00">busybox&#45;i686</text>
</g>
<!-- boostrap&#45;files&#45;before&#45;i686 -->
<g id="node2" class="node">
<title>boostrap&#45;files&#45;before&#45;i686</title>
<polygon fill="none" stroke="black" points="164.38,-52 15.62,-52 15.62,-16 164.38,-16 164.38,-52"/>
<text text-anchor="middle" x="90" y="-29.32" font-family="Times,serif" font-size="14.00">boostrap&#45;files&#45;i686</text>
</g>
<!-- busybox&#45;before&#45;i686&#45;&gt;boostrap&#45;files&#45;before&#45;i686 -->
<g id="edge1" class="edge">
<title>busybox&#45;before&#45;i686&#45;&gt;boostrap&#45;files&#45;before&#45;i686</title>
<path fill="none" stroke="black" d="M156.25,-87.7C145.56,-79.2 132.51,-68.81 120.82,-59.51"/>
<polygon fill="black" stroke="black" points="123,-56.78 112.99,-53.29 118.64,-62.25 123,-56.78"/>
</g>
<!-- boostrap&#45;files&#45;before&#45;x86_64 -->
<g id="node3" class="node">
<title>boostrap&#45;files&#45;before&#45;x86_64</title>
<polygon fill="none" stroke="black" points="351.12,-52 182.88,-52 182.88,-16 351.12,-16 351.12,-52"/>
<text text-anchor="middle" x="267" y="-29.32" font-family="Times,serif" font-size="14.00">boostrap&#45;files&#45;x86_64</text>
</g>
<!-- busybox&#45;before&#45;i686&#45;&gt;boostrap&#45;files&#45;before&#45;x86_64 -->
<g id="edge2" class="edge">
<title>busybox&#45;before&#45;i686&#45;&gt;boostrap&#45;files&#45;before&#45;x86_64</title>
<path fill="none" stroke="red" d="M200,-87.7C210.91,-79.11 224.27,-68.61 236.18,-59.24"/>
<polygon fill="red" stroke="red" points="238.06,-62.22 243.75,-53.28 233.73,-56.71 238.06,-62.22"/>
</g>
<!-- busybox&#45;after&#45;i686 -->
<g id="node4" class="node">
<title>busybox&#45;after&#45;i686</title>
<polygon fill="none" stroke="black" points="504.25,-124 393.75,-124 393.75,-88 504.25,-88 504.25,-124"/>
<text text-anchor="middle" x="449" y="-101.33" font-family="Times,serif" font-size="14.00">busybox&#45;i686</text>
</g>
<!-- boostrap&#45;files&#45;after&#45;i686 -->
<g id="node6" class="node">
<title>boostrap&#45;files&#45;after&#45;i686</title>
<polygon fill="none" stroke="black" points="523.38,-52 374.62,-52 374.62,-16 523.38,-16 523.38,-52"/>
<text text-anchor="middle" x="449" y="-29.32" font-family="Times,serif" font-size="14.00">boostrap&#45;files&#45;i686</text>
</g>
<!-- busybox&#45;after&#45;i686&#45;&gt;boostrap&#45;files&#45;after&#45;i686 -->
<g id="edge3" class="edge">
<title>busybox&#45;after&#45;i686&#45;&gt;boostrap&#45;files&#45;after&#45;i686</title>
<path fill="none" stroke="black" d="M449,-87.7C449,-80.41 449,-71.73 449,-63.54"/>
<polygon fill="black" stroke="black" points="452.5,-63.62 449,-53.62 445.5,-63.62 452.5,-63.62"/>
</g>
<!-- busybox&#45;after&#45;x86_64 -->
<g id="node5" class="node">
<title>busybox&#45;after&#45;x86_64</title>
<polygon fill="none" stroke="green" points="691,-124 561,-124 561,-88 691,-88 691,-124"/>
<text text-anchor="middle" x="626" y="-101.33" font-family="Times,serif" font-size="14.00">busybox&#45;x86_64</text>
</g>
<!-- boostrap&#45;files&#45;after&#45;x86_64 -->
<g id="node7" class="node">
<title>boostrap&#45;files&#45;after&#45;x86_64</title>
<polygon fill="none" stroke="black" points="710.12,-52 541.88,-52 541.88,-16 710.12,-16 710.12,-52"/>
<text text-anchor="middle" x="626" y="-29.32" font-family="Times,serif" font-size="14.00">boostrap&#45;files&#45;x86_64</text>
</g>
<!-- busybox&#45;after&#45;x86_64&#45;&gt;boostrap&#45;files&#45;after&#45;x86_64 -->
<g id="edge4" class="edge">
<title>busybox&#45;after&#45;x86_64&#45;&gt;boostrap&#45;files&#45;after&#45;x86_64</title>
<path fill="none" stroke="green" d="M626,-87.7C626,-80.41 626,-71.73 626,-63.54"/>
<polygon fill="green" stroke="green" points="629.5,-63.62 626,-53.62 622.5,-63.62 629.5,-63.62"/>
</g>
</g>
</svg>
